G04 #@! TF.GenerationSoftware,KiCad,Pcbnew,(5.1.5)-3*
G04 #@! TF.CreationDate,2020-07-05T00:24:43+03:00*
G04 #@! TF.ProjectId,body_temp,626f6479-5f74-4656-9d70-2e6b69636164,rev?*
G04 #@! TF.SameCoordinates,Original*
G04 #@! TF.FileFunction,Soldermask,Top*
G04 #@! TF.FilePolarity,Negative*
%FSLAX46Y46*%
G04 Gerber Fmt 4.6, Leading zero omitted, Abs format (unit mm)*
G04 Created by KiCad (PCBNEW (5.1.5)-3) date 2020-07-05 00:24:43*
%MOMM*%
%LPD*%
G04 APERTURE LIST*
%ADD10C,0.100000*%
G04 APERTURE END LIST*
D10*
G36*
X27578591Y-43246185D02*
G01*
X27612569Y-43256493D01*
X27643890Y-43273234D01*
X27671339Y-43295761D01*
X27693866Y-43323210D01*
X27710607Y-43354531D01*
X27720915Y-43388509D01*
X27725000Y-43429990D01*
X27725000Y-44031210D01*
X27720915Y-44072691D01*
X27710607Y-44106669D01*
X27693866Y-44137990D01*
X27671339Y-44165439D01*
X27643890Y-44187966D01*
X27612569Y-44204707D01*
X27578591Y-44215015D01*
X27537110Y-44219100D01*
X26860890Y-44219100D01*
X26819409Y-44215015D01*
X26785431Y-44204707D01*
X26754110Y-44187966D01*
X26726661Y-44165439D01*
X26704134Y-44137990D01*
X26687393Y-44106669D01*
X26677085Y-44072691D01*
X26673000Y-44031210D01*
X26673000Y-43429990D01*
X26677085Y-43388509D01*
X26687393Y-43354531D01*
X26704134Y-43323210D01*
X26726661Y-43295761D01*
X26754110Y-43273234D01*
X26785431Y-43256493D01*
X26819409Y-43246185D01*
X26860890Y-43242100D01*
X27537110Y-43242100D01*
X27578591Y-43246185D01*
G37*
G36*
X37678862Y-42004898D02*
G01*
X37691114Y-42005500D01*
X38904000Y-42005500D01*
X38904000Y-44007500D01*
X37691114Y-44007500D01*
X37678862Y-44008102D01*
X37653000Y-44010649D01*
X37627138Y-44008102D01*
X37614886Y-44007500D01*
X37541594Y-44007500D01*
X37524836Y-43998543D01*
X37513299Y-43994415D01*
X37428307Y-43968632D01*
X37402664Y-43960854D01*
X37289575Y-43900406D01*
X37190447Y-43819054D01*
X37109094Y-43719924D01*
X37048646Y-43606835D01*
X37038960Y-43574903D01*
X37011420Y-43484117D01*
X37002000Y-43388472D01*
X37002000Y-42624527D01*
X37011420Y-42528882D01*
X37048645Y-42406168D01*
X37109096Y-42293074D01*
X37190447Y-42193946D01*
X37289576Y-42112594D01*
X37402666Y-42052146D01*
X37402669Y-42052145D01*
X37513290Y-42018588D01*
X37535925Y-42009212D01*
X37541481Y-42005500D01*
X37614886Y-42005500D01*
X37627138Y-42004898D01*
X37653000Y-42002351D01*
X37678862Y-42004898D01*
G37*
G36*
X44678862Y-42004898D02*
G01*
X44691114Y-42005500D01*
X44764406Y-42005500D01*
X44781164Y-42014457D01*
X44792707Y-42018587D01*
X44903331Y-42052145D01*
X44903334Y-42052146D01*
X45016424Y-42112594D01*
X45115554Y-42193947D01*
X45196906Y-42293075D01*
X45257354Y-42406164D01*
X45267040Y-42438096D01*
X45294580Y-42528882D01*
X45297939Y-42562990D01*
X45304000Y-42624526D01*
X45304000Y-43388474D01*
X45303566Y-43392880D01*
X45294580Y-43484118D01*
X45267040Y-43574904D01*
X45257354Y-43606836D01*
X45196906Y-43719925D01*
X45115554Y-43819054D01*
X45016425Y-43900406D01*
X44903336Y-43960854D01*
X44877693Y-43968632D01*
X44792708Y-43994413D01*
X44770075Y-44003787D01*
X44764518Y-44007500D01*
X44691114Y-44007500D01*
X44678862Y-44008102D01*
X44653000Y-44010649D01*
X44627138Y-44008102D01*
X44614886Y-44007500D01*
X43402000Y-44007500D01*
X43402000Y-42005500D01*
X44614886Y-42005500D01*
X44627138Y-42004898D01*
X44653000Y-42002351D01*
X44678862Y-42004898D01*
G37*
G36*
X40954000Y-44007500D02*
G01*
X39352000Y-44007500D01*
X39352000Y-42005500D01*
X40954000Y-42005500D01*
X40954000Y-44007500D01*
G37*
G36*
X42954000Y-44007500D02*
G01*
X41352000Y-44007500D01*
X41352000Y-42005500D01*
X42954000Y-42005500D01*
X42954000Y-44007500D01*
G37*
G36*
X29914500Y-43223000D02*
G01*
X28362500Y-43223000D01*
X28362500Y-36821000D01*
X29914500Y-36821000D01*
X29914500Y-43223000D01*
G37*
G36*
X35814500Y-43223000D02*
G01*
X34262500Y-43223000D01*
X34262500Y-36821000D01*
X35814500Y-36821000D01*
X35814500Y-43223000D01*
G37*
G36*
X27578591Y-41671185D02*
G01*
X27612569Y-41681493D01*
X27643890Y-41698234D01*
X27671339Y-41720761D01*
X27693866Y-41748210D01*
X27710607Y-41779531D01*
X27720915Y-41813509D01*
X27725000Y-41854990D01*
X27725000Y-42456210D01*
X27720915Y-42497691D01*
X27710607Y-42531669D01*
X27693866Y-42562990D01*
X27671339Y-42590439D01*
X27643890Y-42612966D01*
X27612569Y-42629707D01*
X27578591Y-42640015D01*
X27537110Y-42644100D01*
X26860890Y-42644100D01*
X26819409Y-42640015D01*
X26785431Y-42629707D01*
X26754110Y-42612966D01*
X26726661Y-42590439D01*
X26704134Y-42562990D01*
X26687393Y-42531669D01*
X26677085Y-42497691D01*
X26673000Y-42456210D01*
X26673000Y-41854990D01*
X26677085Y-41813509D01*
X26687393Y-41779531D01*
X26704134Y-41748210D01*
X26726661Y-41720761D01*
X26754110Y-41698234D01*
X26785431Y-41681493D01*
X26819409Y-41671185D01*
X26860890Y-41667100D01*
X27537110Y-41667100D01*
X27578591Y-41671185D01*
G37*
G36*
X25808400Y-42225000D02*
G01*
X23306400Y-42225000D01*
X23306400Y-39723000D01*
X25808400Y-39723000D01*
X25808400Y-42225000D01*
G37*
G36*
X20270473Y-36282938D02*
G01*
X20398049Y-36335782D01*
X20512859Y-36412495D01*
X20610505Y-36510141D01*
X20687218Y-36624951D01*
X20740062Y-36752527D01*
X20767000Y-36887956D01*
X20767000Y-37026044D01*
X20740062Y-37161473D01*
X20687218Y-37289049D01*
X20610505Y-37403859D01*
X20512859Y-37501505D01*
X20398051Y-37578217D01*
X20365944Y-37591516D01*
X20344334Y-37603067D01*
X20325392Y-37618613D01*
X20309847Y-37637555D01*
X20298296Y-37659165D01*
X20291183Y-37682614D01*
X20288781Y-37707001D01*
X20291183Y-37731387D01*
X20298296Y-37754836D01*
X20309847Y-37776446D01*
X20325393Y-37795388D01*
X20344335Y-37810933D01*
X20365944Y-37822484D01*
X20398051Y-37835783D01*
X20512859Y-37912495D01*
X20610505Y-38010141D01*
X20687218Y-38124951D01*
X20740062Y-38252527D01*
X20767000Y-38387956D01*
X20767000Y-38526044D01*
X20740062Y-38661473D01*
X20687218Y-38789049D01*
X20610505Y-38903859D01*
X20512859Y-39001505D01*
X20398051Y-39078217D01*
X20365944Y-39091516D01*
X20344334Y-39103067D01*
X20325392Y-39118613D01*
X20309847Y-39137555D01*
X20298296Y-39159165D01*
X20291183Y-39182614D01*
X20288781Y-39207001D01*
X20291183Y-39231387D01*
X20298296Y-39254836D01*
X20309847Y-39276446D01*
X20325393Y-39295388D01*
X20344335Y-39310933D01*
X20365944Y-39322484D01*
X20398051Y-39335783D01*
X20512859Y-39412495D01*
X20610505Y-39510141D01*
X20687218Y-39624951D01*
X20740062Y-39752527D01*
X20767000Y-39887956D01*
X20767000Y-40026044D01*
X20740062Y-40161473D01*
X20687218Y-40289049D01*
X20610505Y-40403859D01*
X20512859Y-40501505D01*
X20398051Y-40578217D01*
X20365944Y-40591516D01*
X20344334Y-40603067D01*
X20325392Y-40618613D01*
X20309847Y-40637555D01*
X20298296Y-40659165D01*
X20291183Y-40682614D01*
X20288781Y-40707001D01*
X20291183Y-40731387D01*
X20298296Y-40754836D01*
X20309847Y-40776446D01*
X20325393Y-40795388D01*
X20344335Y-40810933D01*
X20365944Y-40822484D01*
X20398051Y-40835783D01*
X20512859Y-40912495D01*
X20610505Y-41010141D01*
X20687218Y-41124951D01*
X20740062Y-41252527D01*
X20767000Y-41387956D01*
X20767000Y-41526044D01*
X20740062Y-41661473D01*
X20687218Y-41789049D01*
X20610505Y-41903859D01*
X20512859Y-42001505D01*
X20398049Y-42078218D01*
X20270473Y-42131062D01*
X20135044Y-42158000D01*
X19996956Y-42158000D01*
X19861527Y-42131062D01*
X19733951Y-42078218D01*
X19619141Y-42001505D01*
X19521495Y-41903859D01*
X19444782Y-41789049D01*
X19391938Y-41661473D01*
X19365000Y-41526044D01*
X19365000Y-41387956D01*
X19391938Y-41252527D01*
X19444782Y-41124951D01*
X19521495Y-41010141D01*
X19619141Y-40912495D01*
X19733949Y-40835783D01*
X19766056Y-40822484D01*
X19787666Y-40810933D01*
X19806608Y-40795387D01*
X19822153Y-40776445D01*
X19833704Y-40754835D01*
X19840817Y-40731386D01*
X19843219Y-40706999D01*
X19840817Y-40682613D01*
X19833704Y-40659164D01*
X19822153Y-40637554D01*
X19806607Y-40618612D01*
X19787665Y-40603067D01*
X19766056Y-40591516D01*
X19733949Y-40578217D01*
X19619141Y-40501505D01*
X19521495Y-40403859D01*
X19444782Y-40289049D01*
X19391938Y-40161473D01*
X19365000Y-40026044D01*
X19365000Y-39887956D01*
X19391938Y-39752527D01*
X19444782Y-39624951D01*
X19521495Y-39510141D01*
X19619141Y-39412495D01*
X19733949Y-39335783D01*
X19766056Y-39322484D01*
X19787666Y-39310933D01*
X19806608Y-39295387D01*
X19822153Y-39276445D01*
X19833704Y-39254835D01*
X19840817Y-39231386D01*
X19843219Y-39206999D01*
X19840817Y-39182613D01*
X19833704Y-39159164D01*
X19822153Y-39137554D01*
X19806607Y-39118612D01*
X19787665Y-39103067D01*
X19766056Y-39091516D01*
X19733949Y-39078217D01*
X19619141Y-39001505D01*
X19521495Y-38903859D01*
X19444782Y-38789049D01*
X19391938Y-38661473D01*
X19365000Y-38526044D01*
X19365000Y-38387956D01*
X19391938Y-38252527D01*
X19444782Y-38124951D01*
X19521495Y-38010141D01*
X19619141Y-37912495D01*
X19733949Y-37835783D01*
X19766056Y-37822484D01*
X19787666Y-37810933D01*
X19806608Y-37795387D01*
X19822153Y-37776445D01*
X19833704Y-37754835D01*
X19840817Y-37731386D01*
X19843219Y-37706999D01*
X19840817Y-37682613D01*
X19833704Y-37659164D01*
X19822153Y-37637554D01*
X19806607Y-37618612D01*
X19787665Y-37603067D01*
X19766056Y-37591516D01*
X19733949Y-37578217D01*
X19619141Y-37501505D01*
X19521495Y-37403859D01*
X19444782Y-37289049D01*
X19391938Y-37161473D01*
X19365000Y-37026044D01*
X19365000Y-36887956D01*
X19391938Y-36752527D01*
X19444782Y-36624951D01*
X19521495Y-36510141D01*
X19619141Y-36412495D01*
X19733951Y-36335782D01*
X19861527Y-36282938D01*
X19996956Y-36256000D01*
X20135044Y-36256000D01*
X20270473Y-36282938D01*
G37*
G36*
X27578591Y-40375785D02*
G01*
X27612569Y-40386093D01*
X27643890Y-40402834D01*
X27671339Y-40425361D01*
X27693866Y-40452810D01*
X27710607Y-40484131D01*
X27720915Y-40518109D01*
X27725000Y-40559590D01*
X27725000Y-41160810D01*
X27720915Y-41202291D01*
X27710607Y-41236269D01*
X27693866Y-41267590D01*
X27671339Y-41295039D01*
X27643890Y-41317566D01*
X27612569Y-41334307D01*
X27578591Y-41344615D01*
X27537110Y-41348700D01*
X26860890Y-41348700D01*
X26819409Y-41344615D01*
X26785431Y-41334307D01*
X26754110Y-41317566D01*
X26726661Y-41295039D01*
X26704134Y-41267590D01*
X26687393Y-41236269D01*
X26677085Y-41202291D01*
X26673000Y-41160810D01*
X26673000Y-40559590D01*
X26677085Y-40518109D01*
X26687393Y-40484131D01*
X26704134Y-40452810D01*
X26726661Y-40425361D01*
X26754110Y-40402834D01*
X26785431Y-40386093D01*
X26819409Y-40375785D01*
X26860890Y-40371700D01*
X27537110Y-40371700D01*
X27578591Y-40375785D01*
G37*
G36*
X38879348Y-39560320D02*
G01*
X38879350Y-39560321D01*
X38879351Y-39560321D01*
X39020574Y-39618817D01*
X39020577Y-39618819D01*
X39147669Y-39703739D01*
X39255761Y-39811831D01*
X39306626Y-39887956D01*
X39340683Y-39938926D01*
X39361517Y-39989225D01*
X39373068Y-40010836D01*
X39388614Y-40029778D01*
X39407556Y-40045323D01*
X39429166Y-40056874D01*
X39452615Y-40063987D01*
X39477001Y-40066389D01*
X39501387Y-40063987D01*
X39524836Y-40056874D01*
X39546447Y-40045323D01*
X39565389Y-40029777D01*
X39580934Y-40010835D01*
X39592485Y-39989225D01*
X39599598Y-39965776D01*
X39602000Y-39941390D01*
X39602000Y-39580500D01*
X42704000Y-39580500D01*
X42704000Y-39941390D01*
X42706402Y-39965776D01*
X42713515Y-39989225D01*
X42725066Y-40010836D01*
X42740611Y-40029778D01*
X42759553Y-40045323D01*
X42781164Y-40056874D01*
X42804613Y-40063987D01*
X42828999Y-40066389D01*
X42853385Y-40063987D01*
X42876834Y-40056874D01*
X42898445Y-40045323D01*
X42917387Y-40029778D01*
X42932932Y-40010836D01*
X42944483Y-39989225D01*
X42965317Y-39938926D01*
X42999374Y-39887956D01*
X43050239Y-39811831D01*
X43158331Y-39703739D01*
X43285423Y-39618819D01*
X43285426Y-39618817D01*
X43426649Y-39560321D01*
X43426650Y-39560321D01*
X43426652Y-39560320D01*
X43576569Y-39530500D01*
X43729431Y-39530500D01*
X43879348Y-39560320D01*
X43879350Y-39560321D01*
X43879351Y-39560321D01*
X44020574Y-39618817D01*
X44020577Y-39618819D01*
X44147669Y-39703739D01*
X44255761Y-39811831D01*
X44306626Y-39887956D01*
X44340683Y-39938926D01*
X44393479Y-40066389D01*
X44399180Y-40080152D01*
X44429000Y-40230069D01*
X44429000Y-40382931D01*
X44402112Y-40518109D01*
X44399179Y-40532851D01*
X44340683Y-40674074D01*
X44340682Y-40674075D01*
X44340681Y-40674077D01*
X44255761Y-40801169D01*
X44147669Y-40909261D01*
X44142824Y-40912498D01*
X44020574Y-40994183D01*
X43879351Y-41052679D01*
X43879350Y-41052679D01*
X43879348Y-41052680D01*
X43729431Y-41082500D01*
X43576569Y-41082500D01*
X43426652Y-41052680D01*
X43426650Y-41052679D01*
X43426649Y-41052679D01*
X43285426Y-40994183D01*
X43163176Y-40912498D01*
X43158331Y-40909261D01*
X43050239Y-40801169D01*
X42987317Y-40706999D01*
X42965317Y-40674074D01*
X42944481Y-40623772D01*
X42932932Y-40602164D01*
X42917386Y-40583222D01*
X42898444Y-40567677D01*
X42876834Y-40556126D01*
X42853385Y-40549013D01*
X42828999Y-40546611D01*
X42804613Y-40549013D01*
X42781164Y-40556126D01*
X42759553Y-40567677D01*
X42740611Y-40583223D01*
X42725066Y-40602165D01*
X42713515Y-40623775D01*
X42706402Y-40647224D01*
X42704000Y-40671610D01*
X42704000Y-41032500D01*
X39602000Y-41032500D01*
X39602000Y-40671610D01*
X39599598Y-40647224D01*
X39592485Y-40623775D01*
X39580934Y-40602164D01*
X39565389Y-40583222D01*
X39546447Y-40567677D01*
X39524836Y-40556126D01*
X39501387Y-40549013D01*
X39477001Y-40546611D01*
X39452615Y-40549013D01*
X39429166Y-40556126D01*
X39407555Y-40567677D01*
X39388613Y-40583222D01*
X39373068Y-40602164D01*
X39361519Y-40623772D01*
X39340683Y-40674074D01*
X39318683Y-40706999D01*
X39255761Y-40801169D01*
X39147669Y-40909261D01*
X39142824Y-40912498D01*
X39020574Y-40994183D01*
X38879351Y-41052679D01*
X38879350Y-41052679D01*
X38879348Y-41052680D01*
X38729431Y-41082500D01*
X38576569Y-41082500D01*
X38426652Y-41052680D01*
X38426650Y-41052679D01*
X38426649Y-41052679D01*
X38285426Y-40994183D01*
X38163176Y-40912498D01*
X38158331Y-40909261D01*
X38050239Y-40801169D01*
X37965319Y-40674077D01*
X37965318Y-40674075D01*
X37965317Y-40674074D01*
X37906821Y-40532851D01*
X37903889Y-40518109D01*
X37877000Y-40382931D01*
X37877000Y-40230069D01*
X37906820Y-40080152D01*
X37912521Y-40066389D01*
X37965317Y-39938926D01*
X37999374Y-39887956D01*
X38050239Y-39811831D01*
X38158331Y-39703739D01*
X38285423Y-39618819D01*
X38285426Y-39618817D01*
X38426649Y-39560321D01*
X38426650Y-39560321D01*
X38426652Y-39560320D01*
X38576569Y-39530500D01*
X38729431Y-39530500D01*
X38879348Y-39560320D01*
G37*
G36*
X27578591Y-38800785D02*
G01*
X27612569Y-38811093D01*
X27643890Y-38827834D01*
X27671339Y-38850361D01*
X27693866Y-38877810D01*
X27710607Y-38909131D01*
X27720915Y-38943109D01*
X27725000Y-38984590D01*
X27725000Y-39585810D01*
X27720915Y-39627291D01*
X27710607Y-39661269D01*
X27693866Y-39692590D01*
X27671339Y-39720039D01*
X27643890Y-39742566D01*
X27612569Y-39759307D01*
X27578591Y-39769615D01*
X27537110Y-39773700D01*
X26860890Y-39773700D01*
X26819409Y-39769615D01*
X26785431Y-39759307D01*
X26754110Y-39742566D01*
X26726661Y-39720039D01*
X26704134Y-39692590D01*
X26687393Y-39661269D01*
X26677085Y-39627291D01*
X26673000Y-39585810D01*
X26673000Y-38984590D01*
X26677085Y-38943109D01*
X26687393Y-38909131D01*
X26704134Y-38877810D01*
X26726661Y-38850361D01*
X26754110Y-38827834D01*
X26785431Y-38811093D01*
X26819409Y-38800785D01*
X26860890Y-38796700D01*
X27537110Y-38796700D01*
X27578591Y-38800785D01*
G37*
G36*
X37484591Y-37886585D02*
G01*
X37518569Y-37896893D01*
X37549890Y-37913634D01*
X37577339Y-37936161D01*
X37599866Y-37963610D01*
X37616607Y-37994931D01*
X37626915Y-38028909D01*
X37631000Y-38070390D01*
X37631000Y-38671610D01*
X37626915Y-38713091D01*
X37616607Y-38747069D01*
X37599866Y-38778390D01*
X37577339Y-38805839D01*
X37549890Y-38828366D01*
X37518569Y-38845107D01*
X37484591Y-38855415D01*
X37443110Y-38859500D01*
X36766890Y-38859500D01*
X36725409Y-38855415D01*
X36691431Y-38845107D01*
X36660110Y-38828366D01*
X36632661Y-38805839D01*
X36610134Y-38778390D01*
X36593393Y-38747069D01*
X36583085Y-38713091D01*
X36579000Y-38671610D01*
X36579000Y-38070390D01*
X36583085Y-38028909D01*
X36593393Y-37994931D01*
X36610134Y-37963610D01*
X36632661Y-37936161D01*
X36660110Y-37913634D01*
X36691431Y-37896893D01*
X36725409Y-37886585D01*
X36766890Y-37882500D01*
X37443110Y-37882500D01*
X37484591Y-37886585D01*
G37*
G36*
X45536391Y-37759585D02*
G01*
X45570369Y-37769893D01*
X45601690Y-37786634D01*
X45629139Y-37809161D01*
X45651666Y-37836610D01*
X45668407Y-37867931D01*
X45678715Y-37901909D01*
X45682800Y-37943390D01*
X45682800Y-38544610D01*
X45678715Y-38586091D01*
X45668407Y-38620069D01*
X45651666Y-38651390D01*
X45629139Y-38678839D01*
X45601690Y-38701366D01*
X45570369Y-38718107D01*
X45536391Y-38728415D01*
X45494910Y-38732500D01*
X44818690Y-38732500D01*
X44777209Y-38728415D01*
X44743231Y-38718107D01*
X44711910Y-38701366D01*
X44684461Y-38678839D01*
X44661934Y-38651390D01*
X44645193Y-38620069D01*
X44634885Y-38586091D01*
X44630800Y-38544610D01*
X44630800Y-37943390D01*
X44634885Y-37901909D01*
X44645193Y-37867931D01*
X44661934Y-37836610D01*
X44684461Y-37809161D01*
X44711910Y-37786634D01*
X44743231Y-37769893D01*
X44777209Y-37759585D01*
X44818690Y-37755500D01*
X45494910Y-37755500D01*
X45536391Y-37759585D01*
G37*
G36*
X39008591Y-37747085D02*
G01*
X39042569Y-37757393D01*
X39073890Y-37774134D01*
X39101339Y-37796661D01*
X39123866Y-37824110D01*
X39140607Y-37855431D01*
X39150915Y-37889409D01*
X39155000Y-37930890D01*
X39155000Y-38532110D01*
X39150915Y-38573591D01*
X39140607Y-38607569D01*
X39123866Y-38638890D01*
X39101339Y-38666339D01*
X39073890Y-38688866D01*
X39042569Y-38705607D01*
X39008591Y-38715915D01*
X38967110Y-38720000D01*
X38290890Y-38720000D01*
X38249409Y-38715915D01*
X38215431Y-38705607D01*
X38184110Y-38688866D01*
X38156661Y-38666339D01*
X38134134Y-38638890D01*
X38117393Y-38607569D01*
X38107085Y-38573591D01*
X38103000Y-38532110D01*
X38103000Y-37930890D01*
X38107085Y-37889409D01*
X38117393Y-37855431D01*
X38134134Y-37824110D01*
X38156661Y-37796661D01*
X38184110Y-37774134D01*
X38215431Y-37757393D01*
X38249409Y-37747085D01*
X38290890Y-37743000D01*
X38967110Y-37743000D01*
X39008591Y-37747085D01*
G37*
G36*
X42779000Y-38358000D02*
G01*
X40127000Y-38358000D01*
X40127000Y-37196000D01*
X42779000Y-37196000D01*
X42779000Y-38358000D01*
G37*
G36*
X25808400Y-38225000D02*
G01*
X23306400Y-38225000D01*
X23306400Y-35723000D01*
X25808400Y-35723000D01*
X25808400Y-38225000D01*
G37*
G36*
X37510591Y-35055085D02*
G01*
X37544569Y-35065393D01*
X37575890Y-35082134D01*
X37603339Y-35104661D01*
X37625866Y-35132110D01*
X37642607Y-35163431D01*
X37652915Y-35197409D01*
X37657000Y-35238890D01*
X37657000Y-35915110D01*
X37652915Y-35956591D01*
X37642607Y-35990569D01*
X37625866Y-36021890D01*
X37603339Y-36049339D01*
X37575890Y-36071866D01*
X37544570Y-36088607D01*
X37538329Y-36090500D01*
X37515691Y-36099878D01*
X37495317Y-36113492D01*
X37477990Y-36130819D01*
X37464377Y-36151194D01*
X37455000Y-36173833D01*
X37450220Y-36197866D01*
X37450220Y-36222371D01*
X37455001Y-36246404D01*
X37464379Y-36269042D01*
X37477993Y-36289416D01*
X37495320Y-36306743D01*
X37515693Y-36320355D01*
X37549888Y-36338633D01*
X37577339Y-36361161D01*
X37599866Y-36388610D01*
X37616607Y-36419931D01*
X37626915Y-36453909D01*
X37631000Y-36495390D01*
X37631000Y-37096610D01*
X37626915Y-37138091D01*
X37616607Y-37172069D01*
X37599866Y-37203390D01*
X37577339Y-37230839D01*
X37549890Y-37253366D01*
X37518569Y-37270107D01*
X37484591Y-37280415D01*
X37443110Y-37284500D01*
X36766890Y-37284500D01*
X36725409Y-37280415D01*
X36691431Y-37270107D01*
X36660110Y-37253366D01*
X36632661Y-37230839D01*
X36610134Y-37203390D01*
X36593393Y-37172069D01*
X36583085Y-37138091D01*
X36579000Y-37096610D01*
X36579000Y-36495390D01*
X36583085Y-36453909D01*
X36593393Y-36419931D01*
X36610134Y-36388610D01*
X36632661Y-36361161D01*
X36660110Y-36338634D01*
X36691431Y-36321893D01*
X36726596Y-36311225D01*
X36748207Y-36306927D01*
X36770846Y-36297550D01*
X36791221Y-36283936D01*
X36808548Y-36266609D01*
X36822162Y-36246235D01*
X36831539Y-36223596D01*
X36836320Y-36199563D01*
X36836320Y-36175059D01*
X36831540Y-36151026D01*
X36822163Y-36128387D01*
X36808549Y-36108012D01*
X36791222Y-36090685D01*
X36770848Y-36077071D01*
X36761110Y-36071866D01*
X36733661Y-36049339D01*
X36711134Y-36021890D01*
X36694393Y-35990569D01*
X36684085Y-35956591D01*
X36680000Y-35915110D01*
X36680000Y-35238890D01*
X36684085Y-35197409D01*
X36694393Y-35163431D01*
X36711134Y-35132110D01*
X36733661Y-35104661D01*
X36761110Y-35082134D01*
X36792431Y-35065393D01*
X36826409Y-35055085D01*
X36867890Y-35051000D01*
X37469110Y-35051000D01*
X37510591Y-35055085D01*
G37*
G36*
X45536391Y-36184585D02*
G01*
X45570369Y-36194893D01*
X45601690Y-36211634D01*
X45629139Y-36234161D01*
X45651666Y-36261610D01*
X45668407Y-36292931D01*
X45678715Y-36326909D01*
X45682800Y-36368390D01*
X45682800Y-36969610D01*
X45678715Y-37011091D01*
X45668407Y-37045069D01*
X45651666Y-37076390D01*
X45629139Y-37103839D01*
X45601690Y-37126366D01*
X45570369Y-37143107D01*
X45536391Y-37153415D01*
X45494910Y-37157500D01*
X44818690Y-37157500D01*
X44777209Y-37153415D01*
X44743231Y-37143107D01*
X44711910Y-37126366D01*
X44684461Y-37103839D01*
X44661934Y-37076390D01*
X44645193Y-37045069D01*
X44634885Y-37011091D01*
X44630800Y-36969610D01*
X44630800Y-36368390D01*
X44634885Y-36326909D01*
X44645193Y-36292931D01*
X44661934Y-36261610D01*
X44684461Y-36234161D01*
X44711910Y-36211634D01*
X44743231Y-36194893D01*
X44777209Y-36184585D01*
X44818690Y-36180500D01*
X45494910Y-36180500D01*
X45536391Y-36184585D01*
G37*
G36*
X39008591Y-36172085D02*
G01*
X39042569Y-36182393D01*
X39073890Y-36199134D01*
X39101339Y-36221661D01*
X39123866Y-36249110D01*
X39140607Y-36280431D01*
X39150915Y-36314409D01*
X39155000Y-36355890D01*
X39155000Y-36957110D01*
X39150915Y-36998591D01*
X39140607Y-37032569D01*
X39123866Y-37063890D01*
X39101339Y-37091339D01*
X39073890Y-37113866D01*
X39042569Y-37130607D01*
X39008591Y-37140915D01*
X38967110Y-37145000D01*
X38290890Y-37145000D01*
X38249409Y-37140915D01*
X38215431Y-37130607D01*
X38184110Y-37113866D01*
X38156661Y-37091339D01*
X38134134Y-37063890D01*
X38117393Y-37032569D01*
X38107085Y-36998591D01*
X38103000Y-36957110D01*
X38103000Y-36355890D01*
X38107085Y-36314409D01*
X38117393Y-36280431D01*
X38134134Y-36249110D01*
X38156661Y-36221661D01*
X38184110Y-36199134D01*
X38215431Y-36182393D01*
X38249409Y-36172085D01*
X38290890Y-36168000D01*
X38967110Y-36168000D01*
X39008591Y-36172085D01*
G37*
G36*
X42779000Y-36158000D02*
G01*
X40127000Y-36158000D01*
X40127000Y-34996000D01*
X42779000Y-34996000D01*
X42779000Y-36158000D01*
G37*
G36*
X34386591Y-35055085D02*
G01*
X34420569Y-35065393D01*
X34451890Y-35082134D01*
X34479339Y-35104661D01*
X34501866Y-35132110D01*
X34518607Y-35163431D01*
X34528915Y-35197409D01*
X34533000Y-35238890D01*
X34533000Y-35915110D01*
X34528915Y-35956591D01*
X34518607Y-35990569D01*
X34501866Y-36021890D01*
X34479339Y-36049339D01*
X34451890Y-36071866D01*
X34420569Y-36088607D01*
X34386591Y-36098915D01*
X34345110Y-36103000D01*
X33743890Y-36103000D01*
X33702409Y-36098915D01*
X33668431Y-36088607D01*
X33637110Y-36071866D01*
X33609661Y-36049339D01*
X33587134Y-36021890D01*
X33570393Y-35990569D01*
X33560085Y-35956591D01*
X33556000Y-35915110D01*
X33556000Y-35238890D01*
X33560085Y-35197409D01*
X33570393Y-35163431D01*
X33587134Y-35132110D01*
X33609661Y-35104661D01*
X33637110Y-35082134D01*
X33668431Y-35065393D01*
X33702409Y-35055085D01*
X33743890Y-35051000D01*
X34345110Y-35051000D01*
X34386591Y-35055085D01*
G37*
G36*
X29700091Y-35055085D02*
G01*
X29734069Y-35065393D01*
X29765390Y-35082134D01*
X29792839Y-35104661D01*
X29815366Y-35132110D01*
X29832107Y-35163431D01*
X29842415Y-35197409D01*
X29846500Y-35238890D01*
X29846500Y-35915110D01*
X29842415Y-35956591D01*
X29832107Y-35990569D01*
X29815366Y-36021890D01*
X29792839Y-36049339D01*
X29765390Y-36071866D01*
X29734069Y-36088607D01*
X29700091Y-36098915D01*
X29658610Y-36103000D01*
X29057390Y-36103000D01*
X29015909Y-36098915D01*
X28981931Y-36088607D01*
X28950610Y-36071866D01*
X28923161Y-36049339D01*
X28900634Y-36021890D01*
X28883893Y-35990569D01*
X28873585Y-35956591D01*
X28869500Y-35915110D01*
X28869500Y-35238890D01*
X28873585Y-35197409D01*
X28883893Y-35163431D01*
X28900634Y-35132110D01*
X28923161Y-35104661D01*
X28950610Y-35082134D01*
X28981931Y-35065393D01*
X29015909Y-35055085D01*
X29057390Y-35051000D01*
X29658610Y-35051000D01*
X29700091Y-35055085D01*
G37*
G36*
X31275091Y-35055085D02*
G01*
X31309069Y-35065393D01*
X31340390Y-35082134D01*
X31367839Y-35104661D01*
X31390366Y-35132110D01*
X31407107Y-35163431D01*
X31417415Y-35197409D01*
X31421500Y-35238890D01*
X31421500Y-35915110D01*
X31417415Y-35956591D01*
X31407107Y-35990569D01*
X31390366Y-36021890D01*
X31367839Y-36049339D01*
X31340390Y-36071866D01*
X31309069Y-36088607D01*
X31275091Y-36098915D01*
X31233610Y-36103000D01*
X30632390Y-36103000D01*
X30590909Y-36098915D01*
X30556931Y-36088607D01*
X30525610Y-36071866D01*
X30498161Y-36049339D01*
X30475634Y-36021890D01*
X30458893Y-35990569D01*
X30448585Y-35956591D01*
X30444500Y-35915110D01*
X30444500Y-35238890D01*
X30448585Y-35197409D01*
X30458893Y-35163431D01*
X30475634Y-35132110D01*
X30498161Y-35104661D01*
X30525610Y-35082134D01*
X30556931Y-35065393D01*
X30590909Y-35055085D01*
X30632390Y-35051000D01*
X31233610Y-35051000D01*
X31275091Y-35055085D01*
G37*
G36*
X32811591Y-35055085D02*
G01*
X32845569Y-35065393D01*
X32876890Y-35082134D01*
X32904339Y-35104661D01*
X32926866Y-35132110D01*
X32943607Y-35163431D01*
X32953915Y-35197409D01*
X32958000Y-35238890D01*
X32958000Y-35915110D01*
X32953915Y-35956591D01*
X32943607Y-35990569D01*
X32926866Y-36021890D01*
X32904339Y-36049339D01*
X32876890Y-36071866D01*
X32845569Y-36088607D01*
X32811591Y-36098915D01*
X32770110Y-36103000D01*
X32168890Y-36103000D01*
X32127409Y-36098915D01*
X32093431Y-36088607D01*
X32062110Y-36071866D01*
X32034661Y-36049339D01*
X32012134Y-36021890D01*
X31995393Y-35990569D01*
X31985085Y-35956591D01*
X31981000Y-35915110D01*
X31981000Y-35238890D01*
X31985085Y-35197409D01*
X31995393Y-35163431D01*
X32012134Y-35132110D01*
X32034661Y-35104661D01*
X32062110Y-35082134D01*
X32093431Y-35065393D01*
X32127409Y-35055085D01*
X32168890Y-35051000D01*
X32770110Y-35051000D01*
X32811591Y-35055085D01*
G37*
G36*
X35935591Y-35055085D02*
G01*
X35969569Y-35065393D01*
X36000890Y-35082134D01*
X36028339Y-35104661D01*
X36050866Y-35132110D01*
X36067607Y-35163431D01*
X36077915Y-35197409D01*
X36082000Y-35238890D01*
X36082000Y-35915110D01*
X36077915Y-35956591D01*
X36067607Y-35990569D01*
X36050866Y-36021890D01*
X36028339Y-36049339D01*
X36000890Y-36071866D01*
X35969569Y-36088607D01*
X35935591Y-36098915D01*
X35894110Y-36103000D01*
X35292890Y-36103000D01*
X35251409Y-36098915D01*
X35217431Y-36088607D01*
X35186110Y-36071866D01*
X35158661Y-36049339D01*
X35136134Y-36021890D01*
X35119393Y-35990569D01*
X35109085Y-35956591D01*
X35105000Y-35915110D01*
X35105000Y-35238890D01*
X35109085Y-35197409D01*
X35119393Y-35163431D01*
X35136134Y-35132110D01*
X35158661Y-35104661D01*
X35186110Y-35082134D01*
X35217431Y-35065393D01*
X35251409Y-35055085D01*
X35292890Y-35051000D01*
X35894110Y-35051000D01*
X35935591Y-35055085D01*
G37*
G36*
X28277691Y-34242285D02*
G01*
X28311669Y-34252593D01*
X28342990Y-34269334D01*
X28370439Y-34291861D01*
X28392966Y-34319310D01*
X28409707Y-34350631D01*
X28420015Y-34384609D01*
X28424100Y-34426090D01*
X28424100Y-35102310D01*
X28420015Y-35143791D01*
X28409707Y-35177769D01*
X28392966Y-35209090D01*
X28370439Y-35236539D01*
X28342990Y-35259066D01*
X28311669Y-35275807D01*
X28277691Y-35286115D01*
X28236210Y-35290200D01*
X27634990Y-35290200D01*
X27593509Y-35286115D01*
X27559531Y-35275807D01*
X27528210Y-35259066D01*
X27500761Y-35236539D01*
X27478234Y-35209090D01*
X27461493Y-35177769D01*
X27451185Y-35143791D01*
X27447100Y-35102310D01*
X27447100Y-34426090D01*
X27451185Y-34384609D01*
X27461493Y-34350631D01*
X27478234Y-34319310D01*
X27500761Y-34291861D01*
X27528210Y-34269334D01*
X27559531Y-34252593D01*
X27593509Y-34242285D01*
X27634990Y-34238200D01*
X28236210Y-34238200D01*
X28277691Y-34242285D01*
G37*
G36*
X26702691Y-34242285D02*
G01*
X26736669Y-34252593D01*
X26767990Y-34269334D01*
X26795439Y-34291861D01*
X26817966Y-34319310D01*
X26834707Y-34350631D01*
X26845015Y-34384609D01*
X26849100Y-34426090D01*
X26849100Y-35102310D01*
X26845015Y-35143791D01*
X26834707Y-35177769D01*
X26817966Y-35209090D01*
X26795439Y-35236539D01*
X26767990Y-35259066D01*
X26736669Y-35275807D01*
X26702691Y-35286115D01*
X26661210Y-35290200D01*
X26059990Y-35290200D01*
X26018509Y-35286115D01*
X25984531Y-35275807D01*
X25953210Y-35259066D01*
X25925761Y-35236539D01*
X25903234Y-35209090D01*
X25886493Y-35177769D01*
X25876185Y-35143791D01*
X25872100Y-35102310D01*
X25872100Y-34426090D01*
X25876185Y-34384609D01*
X25886493Y-34350631D01*
X25903234Y-34319310D01*
X25925761Y-34291861D01*
X25953210Y-34269334D01*
X25984531Y-34252593D01*
X26018509Y-34242285D01*
X26059990Y-34238200D01*
X26661210Y-34238200D01*
X26702691Y-34242285D01*
G37*
G36*
X45536391Y-33898785D02*
G01*
X45570369Y-33909093D01*
X45601690Y-33925834D01*
X45629139Y-33948361D01*
X45651666Y-33975810D01*
X45668407Y-34007131D01*
X45678715Y-34041109D01*
X45682800Y-34082590D01*
X45682800Y-34683810D01*
X45678715Y-34725291D01*
X45668407Y-34759269D01*
X45651666Y-34790590D01*
X45629139Y-34818039D01*
X45601690Y-34840566D01*
X45570369Y-34857307D01*
X45536391Y-34867615D01*
X45494910Y-34871700D01*
X44818690Y-34871700D01*
X44777209Y-34867615D01*
X44743231Y-34857307D01*
X44711910Y-34840566D01*
X44684461Y-34818039D01*
X44661934Y-34790590D01*
X44645193Y-34759269D01*
X44634885Y-34725291D01*
X44630800Y-34683810D01*
X44630800Y-34082590D01*
X44634885Y-34041109D01*
X44645193Y-34007131D01*
X44661934Y-33975810D01*
X44684461Y-33948361D01*
X44711910Y-33925834D01*
X44743231Y-33909093D01*
X44777209Y-33898785D01*
X44818690Y-33894700D01*
X45494910Y-33894700D01*
X45536391Y-33898785D01*
G37*
G36*
X31456500Y-33302000D02*
G01*
X30354500Y-33302000D01*
X30354500Y-30700000D01*
X31456500Y-30700000D01*
X31456500Y-33302000D01*
G37*
G36*
X27456500Y-33302000D02*
G01*
X26354500Y-33302000D01*
X26354500Y-30700000D01*
X27456500Y-30700000D01*
X27456500Y-33302000D01*
G37*
G36*
X37456500Y-33302000D02*
G01*
X36354500Y-33302000D01*
X36354500Y-30700000D01*
X37456500Y-30700000D01*
X37456500Y-33302000D01*
G37*
G36*
X39456500Y-33302000D02*
G01*
X38354500Y-33302000D01*
X38354500Y-30700000D01*
X39456500Y-30700000D01*
X39456500Y-33302000D01*
G37*
G36*
X35456500Y-33302000D02*
G01*
X34354500Y-33302000D01*
X34354500Y-30700000D01*
X35456500Y-30700000D01*
X35456500Y-33302000D01*
G37*
G36*
X33456500Y-33302000D02*
G01*
X32354500Y-33302000D01*
X32354500Y-30700000D01*
X33456500Y-30700000D01*
X33456500Y-33302000D01*
G37*
G36*
X25456500Y-33302000D02*
G01*
X24354500Y-33302000D01*
X24354500Y-30700000D01*
X25456500Y-30700000D01*
X25456500Y-33302000D01*
G37*
G36*
X29456500Y-33302000D02*
G01*
X28354500Y-33302000D01*
X28354500Y-30700000D01*
X29456500Y-30700000D01*
X29456500Y-33302000D01*
G37*
G36*
X45536391Y-32323785D02*
G01*
X45570369Y-32334093D01*
X45601690Y-32350834D01*
X45629139Y-32373361D01*
X45651666Y-32400810D01*
X45668407Y-32432131D01*
X45678715Y-32466109D01*
X45682800Y-32507590D01*
X45682800Y-33108810D01*
X45678715Y-33150291D01*
X45668407Y-33184269D01*
X45651666Y-33215590D01*
X45629139Y-33243039D01*
X45601690Y-33265566D01*
X45570369Y-33282307D01*
X45536391Y-33292615D01*
X45494910Y-33296700D01*
X44818690Y-33296700D01*
X44777209Y-33292615D01*
X44743231Y-33282307D01*
X44711910Y-33265566D01*
X44684461Y-33243039D01*
X44661934Y-33215590D01*
X44645193Y-33184269D01*
X44634885Y-33150291D01*
X44630800Y-33108810D01*
X44630800Y-32507590D01*
X44634885Y-32466109D01*
X44645193Y-32432131D01*
X44661934Y-32400810D01*
X44684461Y-32373361D01*
X44711910Y-32350834D01*
X44743231Y-32334093D01*
X44777209Y-32323785D01*
X44818690Y-32319700D01*
X45494910Y-32319700D01*
X45536391Y-32323785D01*
G37*
G36*
X45210300Y-31611400D02*
G01*
X42558300Y-31611400D01*
X42558300Y-30449400D01*
X45210300Y-30449400D01*
X45210300Y-31611400D01*
G37*
G36*
X41356500Y-29952000D02*
G01*
X39454500Y-29952000D01*
X39454500Y-28850000D01*
X41356500Y-28850000D01*
X41356500Y-29952000D01*
G37*
G36*
X43310300Y-29411400D02*
G01*
X42558300Y-29411400D01*
X42558300Y-28249400D01*
X43310300Y-28249400D01*
X43310300Y-29411400D01*
G37*
G36*
X45210300Y-29411400D02*
G01*
X44458300Y-29411400D01*
X44458300Y-28249400D01*
X45210300Y-28249400D01*
X45210300Y-29411400D01*
G37*
G36*
X41356500Y-27952000D02*
G01*
X39454500Y-27952000D01*
X39454500Y-26850000D01*
X41356500Y-26850000D01*
X41356500Y-27952000D01*
G37*
G36*
X45210300Y-27537600D02*
G01*
X42558300Y-27537600D01*
X42558300Y-26375600D01*
X45210300Y-26375600D01*
X45210300Y-27537600D01*
G37*
G36*
X41356500Y-25952000D02*
G01*
X39454500Y-25952000D01*
X39454500Y-24850000D01*
X41356500Y-24850000D01*
X41356500Y-25952000D01*
G37*
G36*
X43310300Y-25337600D02*
G01*
X42558300Y-25337600D01*
X42558300Y-24175600D01*
X43310300Y-24175600D01*
X43310300Y-25337600D01*
G37*
G36*
X45210300Y-25337600D02*
G01*
X44458300Y-25337600D01*
X44458300Y-24175600D01*
X45210300Y-24175600D01*
X45210300Y-25337600D01*
G37*
G36*
X41356500Y-23952000D02*
G01*
X39454500Y-23952000D01*
X39454500Y-22850000D01*
X41356500Y-22850000D01*
X41356500Y-23952000D01*
G37*
G36*
X45361715Y-20987573D02*
G01*
X45465579Y-21019079D01*
X45492755Y-21033605D01*
X45561300Y-21070243D01*
X45645201Y-21139099D01*
X45714057Y-21223000D01*
X45748025Y-21286550D01*
X45765221Y-21318721D01*
X45796727Y-21422585D01*
X45807366Y-21530600D01*
X45796727Y-21638615D01*
X45765221Y-21742479D01*
X45765219Y-21742482D01*
X45714057Y-21838200D01*
X45645201Y-21922101D01*
X45561300Y-21990957D01*
X45492755Y-22027595D01*
X45465579Y-22042121D01*
X45361715Y-22073627D01*
X45280767Y-22081600D01*
X44702633Y-22081600D01*
X44621685Y-22073627D01*
X44517821Y-22042121D01*
X44490645Y-22027595D01*
X44422100Y-21990957D01*
X44338199Y-21922101D01*
X44269343Y-21838200D01*
X44218181Y-21742482D01*
X44218179Y-21742479D01*
X44186673Y-21638615D01*
X44176034Y-21530600D01*
X44186673Y-21422585D01*
X44218179Y-21318721D01*
X44235375Y-21286550D01*
X44269343Y-21223000D01*
X44338199Y-21139099D01*
X44422100Y-21070243D01*
X44490645Y-21033605D01*
X44517821Y-21019079D01*
X44621685Y-20987573D01*
X44702633Y-20979600D01*
X45280767Y-20979600D01*
X45361715Y-20987573D01*
G37*
G36*
X43212291Y-21046385D02*
G01*
X43246269Y-21056693D01*
X43277590Y-21073434D01*
X43305039Y-21095961D01*
X43327566Y-21123410D01*
X43344307Y-21154731D01*
X43354615Y-21188709D01*
X43358700Y-21230190D01*
X43358700Y-21831410D01*
X43354615Y-21872891D01*
X43344307Y-21906869D01*
X43327566Y-21938190D01*
X43305039Y-21965639D01*
X43277590Y-21988166D01*
X43246269Y-22004907D01*
X43212291Y-22015215D01*
X43170810Y-22019300D01*
X42494590Y-22019300D01*
X42453109Y-22015215D01*
X42419131Y-22004907D01*
X42387810Y-21988166D01*
X42360361Y-21965639D01*
X42337834Y-21938190D01*
X42321093Y-21906869D01*
X42310785Y-21872891D01*
X42306700Y-21831410D01*
X42306700Y-21230190D01*
X42310785Y-21188709D01*
X42321093Y-21154731D01*
X42337834Y-21123410D01*
X42360361Y-21095961D01*
X42387810Y-21073434D01*
X42419131Y-21056693D01*
X42453109Y-21046385D01*
X42494590Y-21042300D01*
X43170810Y-21042300D01*
X43212291Y-21046385D01*
G37*
G36*
X41356500Y-21952000D02*
G01*
X39454500Y-21952000D01*
X39454500Y-20850000D01*
X41356500Y-20850000D01*
X41356500Y-21952000D01*
G37*
G36*
X45361715Y-19387573D02*
G01*
X45465579Y-19419079D01*
X45492755Y-19433605D01*
X45561300Y-19470243D01*
X45645201Y-19539099D01*
X45714057Y-19623000D01*
X45750695Y-19691545D01*
X45765221Y-19718721D01*
X45796727Y-19822585D01*
X45807366Y-19930600D01*
X45796727Y-20038615D01*
X45765221Y-20142479D01*
X45765219Y-20142482D01*
X45714057Y-20238200D01*
X45645201Y-20322101D01*
X45561300Y-20390957D01*
X45496285Y-20425708D01*
X45465579Y-20442121D01*
X45361715Y-20473627D01*
X45280767Y-20481600D01*
X44702633Y-20481600D01*
X44621685Y-20473627D01*
X44517821Y-20442121D01*
X44487115Y-20425708D01*
X44422100Y-20390957D01*
X44338199Y-20322101D01*
X44269343Y-20238200D01*
X44218181Y-20142482D01*
X44218179Y-20142479D01*
X44186673Y-20038615D01*
X44176034Y-19930600D01*
X44186673Y-19822585D01*
X44218179Y-19718721D01*
X44232705Y-19691545D01*
X44269343Y-19623000D01*
X44338199Y-19539099D01*
X44422100Y-19470243D01*
X44490645Y-19433605D01*
X44517821Y-19419079D01*
X44621685Y-19387573D01*
X44702633Y-19379600D01*
X45280767Y-19379600D01*
X45361715Y-19387573D01*
G37*
G36*
X43212291Y-19471385D02*
G01*
X43246269Y-19481693D01*
X43277590Y-19498434D01*
X43305039Y-19520961D01*
X43327566Y-19548410D01*
X43344307Y-19579731D01*
X43354615Y-19613709D01*
X43358700Y-19655190D01*
X43358700Y-20256410D01*
X43354615Y-20297891D01*
X43344307Y-20331869D01*
X43327566Y-20363190D01*
X43305039Y-20390639D01*
X43277590Y-20413166D01*
X43246269Y-20429907D01*
X43212291Y-20440215D01*
X43170810Y-20444300D01*
X42494590Y-20444300D01*
X42453109Y-20440215D01*
X42419131Y-20429907D01*
X42387810Y-20413166D01*
X42360361Y-20390639D01*
X42337834Y-20363190D01*
X42321093Y-20331869D01*
X42310785Y-20297891D01*
X42306700Y-20256410D01*
X42306700Y-19655190D01*
X42310785Y-19613709D01*
X42321093Y-19579731D01*
X42337834Y-19548410D01*
X42360361Y-19520961D01*
X42387810Y-19498434D01*
X42419131Y-19481693D01*
X42453109Y-19471385D01*
X42494590Y-19467300D01*
X43170810Y-19467300D01*
X43212291Y-19471385D01*
G37*
G36*
X41356500Y-19952000D02*
G01*
X39454500Y-19952000D01*
X39454500Y-18850000D01*
X41356500Y-18850000D01*
X41356500Y-19952000D01*
G37*
G36*
X33456500Y-18102000D02*
G01*
X32354500Y-18102000D01*
X32354500Y-15500000D01*
X33456500Y-15500000D01*
X33456500Y-18102000D01*
G37*
G36*
X39456500Y-18102000D02*
G01*
X38354500Y-18102000D01*
X38354500Y-15500000D01*
X39456500Y-15500000D01*
X39456500Y-18102000D01*
G37*
G36*
X37456500Y-18102000D02*
G01*
X36354500Y-18102000D01*
X36354500Y-15500000D01*
X37456500Y-15500000D01*
X37456500Y-18102000D01*
G37*
G36*
X35456500Y-18102000D02*
G01*
X34354500Y-18102000D01*
X34354500Y-15500000D01*
X35456500Y-15500000D01*
X35456500Y-18102000D01*
G37*
G36*
X29456500Y-18102000D02*
G01*
X28354500Y-18102000D01*
X28354500Y-15500000D01*
X29456500Y-15500000D01*
X29456500Y-18102000D01*
G37*
G36*
X31456500Y-18102000D02*
G01*
X30354500Y-18102000D01*
X30354500Y-15500000D01*
X31456500Y-15500000D01*
X31456500Y-18102000D01*
G37*
G36*
X25456500Y-18102000D02*
G01*
X24354500Y-18102000D01*
X24354500Y-15500000D01*
X25456500Y-15500000D01*
X25456500Y-18102000D01*
G37*
G36*
X27456500Y-18102000D02*
G01*
X26354500Y-18102000D01*
X26354500Y-15500000D01*
X27456500Y-15500000D01*
X27456500Y-18102000D01*
G37*
M02*
