G04 #@! TF.GenerationSoftware,KiCad,Pcbnew,(5.1.5)-3*
G04 #@! TF.CreationDate,2020-08-26T12:51:06+03:00*
G04 #@! TF.ProjectId,body_temp,626f6479-5f74-4656-9d70-2e6b69636164,rev?*
G04 #@! TF.SameCoordinates,Original*
G04 #@! TF.FileFunction,Soldermask,Top*
G04 #@! TF.FilePolarity,Negative*
%FSLAX46Y46*%
G04 Gerber Fmt 4.6, Leading zero omitted, Abs format (unit mm)*
G04 Created by KiCad (PCBNEW (5.1.5)-3) date 2020-08-26 12:51:06*
%MOMM*%
%LPD*%
G04 APERTURE LIST*
%ADD10C,0.100000*%
G04 APERTURE END LIST*
D10*
G36*
X25119231Y-50205705D02*
G01*
X25157967Y-50213410D01*
X25188195Y-50225931D01*
X25230944Y-50243638D01*
X25296622Y-50287523D01*
X25352477Y-50343378D01*
X25396362Y-50409056D01*
X25426590Y-50482034D01*
X25442000Y-50559504D01*
X25442000Y-50638496D01*
X25426590Y-50715966D01*
X25396362Y-50788944D01*
X25352477Y-50854622D01*
X25296622Y-50910477D01*
X25230944Y-50954362D01*
X25188195Y-50972069D01*
X25157967Y-50984590D01*
X25119231Y-50992295D01*
X25080496Y-51000000D01*
X25001504Y-51000000D01*
X24962769Y-50992295D01*
X24924033Y-50984590D01*
X24893805Y-50972069D01*
X24851056Y-50954362D01*
X24785378Y-50910477D01*
X24729523Y-50854622D01*
X24685638Y-50788944D01*
X24655410Y-50715966D01*
X24640000Y-50638496D01*
X24640000Y-50559504D01*
X24655410Y-50482034D01*
X24685638Y-50409056D01*
X24729523Y-50343378D01*
X24785378Y-50287523D01*
X24851056Y-50243638D01*
X24893805Y-50225931D01*
X24924033Y-50213410D01*
X24962769Y-50205705D01*
X25001504Y-50198000D01*
X25080496Y-50198000D01*
X25119231Y-50205705D01*
G37*
G36*
X19233231Y-50205705D02*
G01*
X19271967Y-50213410D01*
X19302195Y-50225931D01*
X19344944Y-50243638D01*
X19410622Y-50287523D01*
X19466477Y-50343378D01*
X19510362Y-50409056D01*
X19540590Y-50482034D01*
X19556000Y-50559504D01*
X19556000Y-50638496D01*
X19540590Y-50715966D01*
X19510362Y-50788944D01*
X19466477Y-50854622D01*
X19410622Y-50910477D01*
X19344944Y-50954362D01*
X19302195Y-50972069D01*
X19271967Y-50984590D01*
X19233231Y-50992295D01*
X19194496Y-51000000D01*
X19115504Y-51000000D01*
X19076769Y-50992295D01*
X19038033Y-50984590D01*
X19007805Y-50972069D01*
X18965056Y-50954362D01*
X18899378Y-50910477D01*
X18843523Y-50854622D01*
X18799638Y-50788944D01*
X18769410Y-50715966D01*
X18754000Y-50638496D01*
X18754000Y-50559504D01*
X18769410Y-50482034D01*
X18799638Y-50409056D01*
X18843523Y-50343378D01*
X18899378Y-50287523D01*
X18965056Y-50243638D01*
X19007805Y-50225931D01*
X19038033Y-50213410D01*
X19076769Y-50205705D01*
X19115504Y-50198000D01*
X19194496Y-50198000D01*
X19233231Y-50205705D01*
G37*
G36*
X27592000Y-50995000D02*
G01*
X26090000Y-50995000D01*
X26090000Y-49843000D01*
X27592000Y-49843000D01*
X27592000Y-50995000D01*
G37*
G36*
X18106000Y-50995000D02*
G01*
X16604000Y-50995000D01*
X16604000Y-49843000D01*
X18106000Y-49843000D01*
X18106000Y-50995000D01*
G37*
G36*
X21706000Y-50995000D02*
G01*
X20204000Y-50995000D01*
X20204000Y-49843000D01*
X21706000Y-49843000D01*
X21706000Y-50995000D01*
G37*
G36*
X23992000Y-50995000D02*
G01*
X22490000Y-50995000D01*
X22490000Y-49843000D01*
X23992000Y-49843000D01*
X23992000Y-50995000D01*
G37*
G36*
X38569091Y-48881085D02*
G01*
X38603069Y-48891393D01*
X38634390Y-48908134D01*
X38661839Y-48930661D01*
X38684366Y-48958110D01*
X38701107Y-48989431D01*
X38711415Y-49023409D01*
X38715500Y-49064890D01*
X38715500Y-49741110D01*
X38711415Y-49782591D01*
X38701107Y-49816569D01*
X38684366Y-49847890D01*
X38661839Y-49875339D01*
X38634390Y-49897866D01*
X38603069Y-49914607D01*
X38569091Y-49924915D01*
X38527610Y-49929000D01*
X37926390Y-49929000D01*
X37884909Y-49924915D01*
X37850931Y-49914607D01*
X37819610Y-49897866D01*
X37792161Y-49875339D01*
X37769634Y-49847890D01*
X37752893Y-49816569D01*
X37742585Y-49782591D01*
X37738500Y-49741110D01*
X37738500Y-49064890D01*
X37742585Y-49023409D01*
X37752893Y-48989431D01*
X37769634Y-48958110D01*
X37792161Y-48930661D01*
X37819610Y-48908134D01*
X37850931Y-48891393D01*
X37884909Y-48881085D01*
X37926390Y-48877000D01*
X38527610Y-48877000D01*
X38569091Y-48881085D01*
G37*
G36*
X36994091Y-48881085D02*
G01*
X37028069Y-48891393D01*
X37059390Y-48908134D01*
X37086839Y-48930661D01*
X37109366Y-48958110D01*
X37126107Y-48989431D01*
X37136415Y-49023409D01*
X37140500Y-49064890D01*
X37140500Y-49741110D01*
X37136415Y-49782591D01*
X37126107Y-49816569D01*
X37109366Y-49847890D01*
X37086839Y-49875339D01*
X37059390Y-49897866D01*
X37028069Y-49914607D01*
X36994091Y-49924915D01*
X36952610Y-49929000D01*
X36351390Y-49929000D01*
X36309909Y-49924915D01*
X36275931Y-49914607D01*
X36244610Y-49897866D01*
X36217161Y-49875339D01*
X36194634Y-49847890D01*
X36177893Y-49816569D01*
X36167585Y-49782591D01*
X36163500Y-49741110D01*
X36163500Y-49064890D01*
X36167585Y-49023409D01*
X36177893Y-48989431D01*
X36194634Y-48958110D01*
X36217161Y-48930661D01*
X36244610Y-48908134D01*
X36275931Y-48891393D01*
X36309909Y-48881085D01*
X36351390Y-48877000D01*
X36952610Y-48877000D01*
X36994091Y-48881085D01*
G37*
G36*
X32990000Y-49679000D02*
G01*
X32288000Y-49679000D01*
X32288000Y-49127000D01*
X32990000Y-49127000D01*
X32990000Y-49679000D01*
G37*
G36*
X35090000Y-49679000D02*
G01*
X34388000Y-49679000D01*
X34388000Y-49127000D01*
X35090000Y-49127000D01*
X35090000Y-49679000D01*
G37*
G36*
X27592000Y-49555000D02*
G01*
X26090000Y-49555000D01*
X26090000Y-48403000D01*
X27592000Y-48403000D01*
X27592000Y-49555000D01*
G37*
G36*
X21706000Y-49555000D02*
G01*
X20204000Y-49555000D01*
X20204000Y-48403000D01*
X21706000Y-48403000D01*
X21706000Y-49555000D01*
G37*
G36*
X18106000Y-49555000D02*
G01*
X16604000Y-49555000D01*
X16604000Y-48403000D01*
X18106000Y-48403000D01*
X18106000Y-49555000D01*
G37*
G36*
X23992000Y-49555000D02*
G01*
X22490000Y-49555000D01*
X22490000Y-48403000D01*
X23992000Y-48403000D01*
X23992000Y-49555000D01*
G37*
G36*
X19219632Y-48403000D02*
G01*
X19271967Y-48413410D01*
X19302195Y-48425931D01*
X19344944Y-48443638D01*
X19410622Y-48487523D01*
X19466477Y-48543378D01*
X19510362Y-48609056D01*
X19540590Y-48682034D01*
X19556000Y-48759504D01*
X19556000Y-48838496D01*
X19540590Y-48915966D01*
X19510362Y-48988944D01*
X19466477Y-49054622D01*
X19410622Y-49110477D01*
X19344944Y-49154362D01*
X19317250Y-49165833D01*
X19271967Y-49184590D01*
X19233231Y-49192295D01*
X19194496Y-49200000D01*
X19115504Y-49200000D01*
X19076769Y-49192295D01*
X19038033Y-49184590D01*
X18992750Y-49165833D01*
X18965056Y-49154362D01*
X18899378Y-49110477D01*
X18843523Y-49054622D01*
X18799638Y-48988944D01*
X18769410Y-48915966D01*
X18754000Y-48838496D01*
X18754000Y-48759504D01*
X18769410Y-48682034D01*
X18799638Y-48609056D01*
X18843523Y-48543378D01*
X18899378Y-48487523D01*
X18965056Y-48443638D01*
X19007805Y-48425931D01*
X19038033Y-48413410D01*
X19090368Y-48403000D01*
X19115504Y-48398000D01*
X19194496Y-48398000D01*
X19219632Y-48403000D01*
G37*
G36*
X25105632Y-48403000D02*
G01*
X25157967Y-48413410D01*
X25188195Y-48425931D01*
X25230944Y-48443638D01*
X25296622Y-48487523D01*
X25352477Y-48543378D01*
X25396362Y-48609056D01*
X25426590Y-48682034D01*
X25442000Y-48759504D01*
X25442000Y-48838496D01*
X25426590Y-48915966D01*
X25396362Y-48988944D01*
X25352477Y-49054622D01*
X25296622Y-49110477D01*
X25230944Y-49154362D01*
X25203250Y-49165833D01*
X25157967Y-49184590D01*
X25119231Y-49192295D01*
X25080496Y-49200000D01*
X25001504Y-49200000D01*
X24962769Y-49192295D01*
X24924033Y-49184590D01*
X24878750Y-49165833D01*
X24851056Y-49154362D01*
X24785378Y-49110477D01*
X24729523Y-49054622D01*
X24685638Y-48988944D01*
X24655410Y-48915966D01*
X24640000Y-48838496D01*
X24640000Y-48759504D01*
X24655410Y-48682034D01*
X24685638Y-48609056D01*
X24729523Y-48543378D01*
X24785378Y-48487523D01*
X24851056Y-48443638D01*
X24893805Y-48425931D01*
X24924033Y-48413410D01*
X24976368Y-48403000D01*
X25001504Y-48398000D01*
X25080496Y-48398000D01*
X25105632Y-48403000D01*
G37*
G36*
X31306798Y-47673247D02*
G01*
X31342367Y-47684037D01*
X31375139Y-47701554D01*
X31403869Y-47725131D01*
X31427446Y-47753861D01*
X31444963Y-47786633D01*
X31455753Y-47822202D01*
X31460000Y-47865325D01*
X31460000Y-48974675D01*
X31455753Y-49017798D01*
X31444963Y-49053367D01*
X31427446Y-49086139D01*
X31403869Y-49114869D01*
X31375139Y-49138446D01*
X31342367Y-49155963D01*
X31306798Y-49166753D01*
X31263675Y-49171000D01*
X30204325Y-49171000D01*
X30161202Y-49166753D01*
X30125633Y-49155963D01*
X30092861Y-49138446D01*
X30064131Y-49114869D01*
X30040554Y-49086139D01*
X30023037Y-49053367D01*
X30012247Y-49017798D01*
X30008000Y-48974675D01*
X30008000Y-47865325D01*
X30012247Y-47822202D01*
X30023037Y-47786633D01*
X30040554Y-47753861D01*
X30064131Y-47725131D01*
X30092861Y-47701554D01*
X30125633Y-47684037D01*
X30161202Y-47673247D01*
X30204325Y-47669000D01*
X31263675Y-47669000D01*
X31306798Y-47673247D01*
G37*
G36*
X37284000Y-48001000D02*
G01*
X36122000Y-48001000D01*
X36122000Y-45349000D01*
X37284000Y-45349000D01*
X37284000Y-48001000D01*
G37*
G36*
X39484000Y-48001000D02*
G01*
X38322000Y-48001000D01*
X38322000Y-45349000D01*
X39484000Y-45349000D01*
X39484000Y-48001000D01*
G37*
G36*
X35420000Y-47996000D02*
G01*
X34258000Y-47996000D01*
X34258000Y-45344000D01*
X35420000Y-45344000D01*
X35420000Y-47996000D01*
G37*
G36*
X33220000Y-47996000D02*
G01*
X32058000Y-47996000D01*
X32058000Y-45344000D01*
X33220000Y-45344000D01*
X33220000Y-47996000D01*
G37*
G36*
X29208591Y-46810585D02*
G01*
X29242569Y-46820893D01*
X29273890Y-46837634D01*
X29301339Y-46860161D01*
X29323866Y-46887610D01*
X29340607Y-46918931D01*
X29350915Y-46952909D01*
X29355000Y-46994390D01*
X29355000Y-47595610D01*
X29350915Y-47637091D01*
X29340607Y-47671069D01*
X29323866Y-47702390D01*
X29301339Y-47729839D01*
X29273890Y-47752366D01*
X29242569Y-47769107D01*
X29208591Y-47779415D01*
X29167110Y-47783500D01*
X28490890Y-47783500D01*
X28449409Y-47779415D01*
X28415431Y-47769107D01*
X28384110Y-47752366D01*
X28356661Y-47729839D01*
X28334134Y-47702390D01*
X28317393Y-47671069D01*
X28307085Y-47637091D01*
X28303000Y-47595610D01*
X28303000Y-46994390D01*
X28307085Y-46952909D01*
X28317393Y-46918931D01*
X28334134Y-46887610D01*
X28356661Y-46860161D01*
X28384110Y-46837634D01*
X28415431Y-46820893D01*
X28449409Y-46810585D01*
X28490890Y-46806500D01*
X29167110Y-46806500D01*
X29208591Y-46810585D01*
G37*
G36*
X31306798Y-44973247D02*
G01*
X31342367Y-44984037D01*
X31375139Y-45001554D01*
X31403869Y-45025131D01*
X31427446Y-45053861D01*
X31444963Y-45086633D01*
X31455753Y-45122202D01*
X31460000Y-45165325D01*
X31460000Y-46274675D01*
X31455753Y-46317798D01*
X31444963Y-46353367D01*
X31427446Y-46386139D01*
X31403869Y-46414869D01*
X31375139Y-46438446D01*
X31342367Y-46455963D01*
X31306798Y-46466753D01*
X31263675Y-46471000D01*
X30204325Y-46471000D01*
X30161202Y-46466753D01*
X30125633Y-46455963D01*
X30092861Y-46438446D01*
X30064131Y-46414869D01*
X30040554Y-46386139D01*
X30023037Y-46353367D01*
X30012247Y-46317798D01*
X30008000Y-46274675D01*
X30008000Y-45165325D01*
X30012247Y-45122202D01*
X30023037Y-45086633D01*
X30040554Y-45053861D01*
X30064131Y-45025131D01*
X30092861Y-45001554D01*
X30125633Y-44984037D01*
X30161202Y-44973247D01*
X30204325Y-44969000D01*
X31263675Y-44969000D01*
X31306798Y-44973247D01*
G37*
G36*
X29208591Y-45235585D02*
G01*
X29242569Y-45245893D01*
X29273890Y-45262634D01*
X29301339Y-45285161D01*
X29323866Y-45312610D01*
X29340607Y-45343931D01*
X29350915Y-45377909D01*
X29355000Y-45419390D01*
X29355000Y-46020610D01*
X29350915Y-46062091D01*
X29340607Y-46096069D01*
X29323866Y-46127390D01*
X29301339Y-46154839D01*
X29273890Y-46177366D01*
X29242569Y-46194107D01*
X29208591Y-46204415D01*
X29167110Y-46208500D01*
X28490890Y-46208500D01*
X28449409Y-46204415D01*
X28415431Y-46194107D01*
X28384110Y-46177366D01*
X28356661Y-46154839D01*
X28334134Y-46127390D01*
X28317393Y-46096069D01*
X28307085Y-46062091D01*
X28303000Y-46020610D01*
X28303000Y-45419390D01*
X28307085Y-45377909D01*
X28317393Y-45343931D01*
X28334134Y-45312610D01*
X28356661Y-45285161D01*
X28384110Y-45262634D01*
X28415431Y-45245893D01*
X28449409Y-45235585D01*
X28490890Y-45231500D01*
X29167110Y-45231500D01*
X29208591Y-45235585D01*
G37*
G36*
X24472091Y-43928085D02*
G01*
X24506069Y-43938393D01*
X24537390Y-43955134D01*
X24564839Y-43977661D01*
X24587366Y-44005110D01*
X24604107Y-44036431D01*
X24614415Y-44070409D01*
X24618500Y-44111890D01*
X24618500Y-44788110D01*
X24614415Y-44829591D01*
X24604107Y-44863569D01*
X24587366Y-44894890D01*
X24564839Y-44922339D01*
X24537390Y-44944866D01*
X24506069Y-44961607D01*
X24472091Y-44971915D01*
X24430610Y-44976000D01*
X23829390Y-44976000D01*
X23787909Y-44971915D01*
X23753931Y-44961607D01*
X23722610Y-44944866D01*
X23695161Y-44922339D01*
X23672634Y-44894890D01*
X23655893Y-44863569D01*
X23645585Y-44829591D01*
X23641500Y-44788110D01*
X23641500Y-44111890D01*
X23645585Y-44070409D01*
X23655893Y-44036431D01*
X23672634Y-44005110D01*
X23695161Y-43977661D01*
X23722610Y-43955134D01*
X23753931Y-43938393D01*
X23787909Y-43928085D01*
X23829390Y-43924000D01*
X24430610Y-43924000D01*
X24472091Y-43928085D01*
G37*
G36*
X26047091Y-43928085D02*
G01*
X26081069Y-43938393D01*
X26112390Y-43955134D01*
X26139839Y-43977661D01*
X26162366Y-44005110D01*
X26179107Y-44036431D01*
X26189415Y-44070409D01*
X26193500Y-44111890D01*
X26193500Y-44788110D01*
X26189415Y-44829591D01*
X26179107Y-44863569D01*
X26162366Y-44894890D01*
X26139839Y-44922339D01*
X26112390Y-44944866D01*
X26081069Y-44961607D01*
X26047091Y-44971915D01*
X26005610Y-44976000D01*
X25404390Y-44976000D01*
X25362909Y-44971915D01*
X25328931Y-44961607D01*
X25297610Y-44944866D01*
X25270161Y-44922339D01*
X25247634Y-44894890D01*
X25230893Y-44863569D01*
X25220585Y-44829591D01*
X25216500Y-44788110D01*
X25216500Y-44111890D01*
X25220585Y-44070409D01*
X25230893Y-44036431D01*
X25247634Y-44005110D01*
X25270161Y-43977661D01*
X25297610Y-43955134D01*
X25328931Y-43938393D01*
X25362909Y-43928085D01*
X25404390Y-43924000D01*
X26005610Y-43924000D01*
X26047091Y-43928085D01*
G37*
G36*
X43827000Y-43521000D02*
G01*
X40725000Y-43521000D01*
X40725000Y-42219000D01*
X43827000Y-42219000D01*
X43827000Y-43521000D01*
G37*
G36*
X57827000Y-43521000D02*
G01*
X54725000Y-43521000D01*
X54725000Y-42219000D01*
X57827000Y-42219000D01*
X57827000Y-43521000D01*
G37*
G36*
X21594000Y-43141000D02*
G01*
X20692000Y-43141000D01*
X20692000Y-42139000D01*
X21594000Y-42139000D01*
X21594000Y-43141000D01*
G37*
G36*
X19694000Y-43141000D02*
G01*
X18792000Y-43141000D01*
X18792000Y-42139000D01*
X19694000Y-42139000D01*
X19694000Y-43141000D01*
G37*
G36*
X35649798Y-40680247D02*
G01*
X35685367Y-40691037D01*
X35718139Y-40708554D01*
X35746869Y-40732131D01*
X35770446Y-40760861D01*
X35787963Y-40793633D01*
X35798753Y-40829202D01*
X35803000Y-40872325D01*
X35803000Y-41931675D01*
X35798753Y-41974798D01*
X35787963Y-42010367D01*
X35770446Y-42043139D01*
X35746869Y-42071869D01*
X35718139Y-42095446D01*
X35685367Y-42112963D01*
X35649798Y-42123753D01*
X35606675Y-42128000D01*
X34497325Y-42128000D01*
X34454202Y-42123753D01*
X34418633Y-42112963D01*
X34385861Y-42095446D01*
X34357131Y-42071869D01*
X34333554Y-42043139D01*
X34316037Y-42010367D01*
X34305247Y-41974798D01*
X34301000Y-41931675D01*
X34301000Y-40872325D01*
X34305247Y-40829202D01*
X34316037Y-40793633D01*
X34333554Y-40760861D01*
X34357131Y-40732131D01*
X34385861Y-40708554D01*
X34418633Y-40691037D01*
X34454202Y-40680247D01*
X34497325Y-40676000D01*
X35606675Y-40676000D01*
X35649798Y-40680247D01*
G37*
G36*
X32949798Y-40680247D02*
G01*
X32985367Y-40691037D01*
X33018139Y-40708554D01*
X33046869Y-40732131D01*
X33070446Y-40760861D01*
X33087963Y-40793633D01*
X33098753Y-40829202D01*
X33103000Y-40872325D01*
X33103000Y-41931675D01*
X33098753Y-41974798D01*
X33087963Y-42010367D01*
X33070446Y-42043139D01*
X33046869Y-42071869D01*
X33018139Y-42095446D01*
X32985367Y-42112963D01*
X32949798Y-42123753D01*
X32906675Y-42128000D01*
X31797325Y-42128000D01*
X31754202Y-42123753D01*
X31718633Y-42112963D01*
X31685861Y-42095446D01*
X31657131Y-42071869D01*
X31633554Y-42043139D01*
X31616037Y-42010367D01*
X31605247Y-41974798D01*
X31601000Y-41931675D01*
X31601000Y-40872325D01*
X31605247Y-40829202D01*
X31616037Y-40793633D01*
X31633554Y-40760861D01*
X31657131Y-40732131D01*
X31685861Y-40708554D01*
X31718633Y-40691037D01*
X31754202Y-40680247D01*
X31797325Y-40676000D01*
X32906675Y-40676000D01*
X32949798Y-40680247D01*
G37*
G36*
X43827000Y-41521000D02*
G01*
X40725000Y-41521000D01*
X40725000Y-40219000D01*
X43827000Y-40219000D01*
X43827000Y-41521000D01*
G37*
G36*
X57827000Y-41521000D02*
G01*
X54725000Y-41521000D01*
X54725000Y-40219000D01*
X57827000Y-40219000D01*
X57827000Y-41521000D01*
G37*
G36*
X37796473Y-38441938D02*
G01*
X37924049Y-38494782D01*
X38038859Y-38571495D01*
X38136505Y-38669141D01*
X38213218Y-38783951D01*
X38266062Y-38911527D01*
X38293000Y-39046956D01*
X38293000Y-39185044D01*
X38266062Y-39320473D01*
X38213218Y-39448049D01*
X38136505Y-39562859D01*
X38038859Y-39660505D01*
X37924051Y-39737217D01*
X37891944Y-39750516D01*
X37870334Y-39762067D01*
X37851392Y-39777613D01*
X37835847Y-39796555D01*
X37824296Y-39818165D01*
X37817183Y-39841614D01*
X37814781Y-39866001D01*
X37817183Y-39890387D01*
X37824296Y-39913836D01*
X37835847Y-39935446D01*
X37851393Y-39954388D01*
X37870335Y-39969933D01*
X37891944Y-39981484D01*
X37924051Y-39994783D01*
X38038859Y-40071495D01*
X38136505Y-40169141D01*
X38213218Y-40283951D01*
X38266062Y-40411527D01*
X38293000Y-40546956D01*
X38293000Y-40685044D01*
X38266062Y-40820473D01*
X38213218Y-40948049D01*
X38136505Y-41062859D01*
X38038859Y-41160505D01*
X37924049Y-41237218D01*
X37796473Y-41290062D01*
X37661044Y-41317000D01*
X37522956Y-41317000D01*
X37387527Y-41290062D01*
X37259951Y-41237218D01*
X37145141Y-41160505D01*
X37047495Y-41062859D01*
X36970782Y-40948049D01*
X36917938Y-40820473D01*
X36891000Y-40685044D01*
X36891000Y-40546956D01*
X36917938Y-40411527D01*
X36970782Y-40283951D01*
X37047495Y-40169141D01*
X37145141Y-40071495D01*
X37259949Y-39994783D01*
X37292056Y-39981484D01*
X37313666Y-39969933D01*
X37332608Y-39954387D01*
X37348153Y-39935445D01*
X37359704Y-39913835D01*
X37366817Y-39890386D01*
X37369219Y-39865999D01*
X37366817Y-39841613D01*
X37359704Y-39818164D01*
X37348153Y-39796554D01*
X37332607Y-39777612D01*
X37313665Y-39762067D01*
X37292056Y-39750516D01*
X37259949Y-39737217D01*
X37145141Y-39660505D01*
X37047495Y-39562859D01*
X36970782Y-39448049D01*
X36917938Y-39320473D01*
X36891000Y-39185044D01*
X36891000Y-39046956D01*
X36917938Y-38911527D01*
X36970782Y-38783951D01*
X37047495Y-38669141D01*
X37145141Y-38571495D01*
X37259951Y-38494782D01*
X37387527Y-38441938D01*
X37522956Y-38415000D01*
X37661044Y-38415000D01*
X37796473Y-38441938D01*
G37*
G36*
X20644000Y-41141000D02*
G01*
X19742000Y-41141000D01*
X19742000Y-40139000D01*
X20644000Y-40139000D01*
X20644000Y-41141000D01*
G37*
G36*
X35648091Y-39102085D02*
G01*
X35682069Y-39112393D01*
X35713390Y-39129134D01*
X35740839Y-39151661D01*
X35763366Y-39179110D01*
X35780107Y-39210431D01*
X35790415Y-39244409D01*
X35794500Y-39285890D01*
X35794500Y-39962110D01*
X35790415Y-40003591D01*
X35780107Y-40037569D01*
X35763366Y-40068890D01*
X35740839Y-40096339D01*
X35713390Y-40118866D01*
X35682069Y-40135607D01*
X35648091Y-40145915D01*
X35606610Y-40150000D01*
X35005390Y-40150000D01*
X34963909Y-40145915D01*
X34929931Y-40135607D01*
X34898610Y-40118866D01*
X34871161Y-40096339D01*
X34848634Y-40068890D01*
X34831893Y-40037569D01*
X34821585Y-40003591D01*
X34817500Y-39962110D01*
X34817500Y-39285890D01*
X34821585Y-39244409D01*
X34831893Y-39210431D01*
X34848634Y-39179110D01*
X34871161Y-39151661D01*
X34898610Y-39129134D01*
X34929931Y-39112393D01*
X34963909Y-39102085D01*
X35005390Y-39098000D01*
X35606610Y-39098000D01*
X35648091Y-39102085D01*
G37*
G36*
X34073091Y-39102085D02*
G01*
X34107069Y-39112393D01*
X34138390Y-39129134D01*
X34165839Y-39151661D01*
X34188366Y-39179110D01*
X34205107Y-39210431D01*
X34215415Y-39244409D01*
X34219500Y-39285890D01*
X34219500Y-39962110D01*
X34215415Y-40003591D01*
X34205107Y-40037569D01*
X34188366Y-40068890D01*
X34165839Y-40096339D01*
X34138390Y-40118866D01*
X34107069Y-40135607D01*
X34073091Y-40145915D01*
X34031610Y-40150000D01*
X33430390Y-40150000D01*
X33388909Y-40145915D01*
X33354931Y-40135607D01*
X33323610Y-40118866D01*
X33296161Y-40096339D01*
X33273634Y-40068890D01*
X33256893Y-40037569D01*
X33246585Y-40003591D01*
X33242500Y-39962110D01*
X33242500Y-39285890D01*
X33246585Y-39244409D01*
X33256893Y-39210431D01*
X33273634Y-39179110D01*
X33296161Y-39151661D01*
X33323610Y-39129134D01*
X33354931Y-39112393D01*
X33388909Y-39102085D01*
X33430390Y-39098000D01*
X34031610Y-39098000D01*
X34073091Y-39102085D01*
G37*
G36*
X32571591Y-39139585D02*
G01*
X32605569Y-39149893D01*
X32636890Y-39166634D01*
X32664339Y-39189161D01*
X32686866Y-39216610D01*
X32703607Y-39247931D01*
X32713915Y-39281909D01*
X32718000Y-39323390D01*
X32718000Y-39924610D01*
X32713915Y-39966091D01*
X32703607Y-40000069D01*
X32686866Y-40031390D01*
X32664339Y-40058839D01*
X32636890Y-40081366D01*
X32605569Y-40098107D01*
X32571591Y-40108415D01*
X32530110Y-40112500D01*
X31853890Y-40112500D01*
X31812409Y-40108415D01*
X31778431Y-40098107D01*
X31747110Y-40081366D01*
X31719661Y-40058839D01*
X31697134Y-40031390D01*
X31680393Y-40000069D01*
X31670085Y-39966091D01*
X31666000Y-39924610D01*
X31666000Y-39323390D01*
X31670085Y-39281909D01*
X31680393Y-39247931D01*
X31697134Y-39216610D01*
X31719661Y-39189161D01*
X31747110Y-39166634D01*
X31778431Y-39149893D01*
X31812409Y-39139585D01*
X31853890Y-39135500D01*
X32530110Y-39135500D01*
X32571591Y-39139585D01*
G37*
G36*
X23239591Y-39139585D02*
G01*
X23273569Y-39149893D01*
X23304890Y-39166634D01*
X23332339Y-39189161D01*
X23354866Y-39216610D01*
X23371607Y-39247931D01*
X23381915Y-39281909D01*
X23386000Y-39323390D01*
X23386000Y-39924610D01*
X23381915Y-39966091D01*
X23371607Y-40000069D01*
X23354866Y-40031390D01*
X23332339Y-40058839D01*
X23304890Y-40081366D01*
X23273569Y-40098107D01*
X23239591Y-40108415D01*
X23198110Y-40112500D01*
X22521890Y-40112500D01*
X22480409Y-40108415D01*
X22446431Y-40098107D01*
X22415110Y-40081366D01*
X22387661Y-40058839D01*
X22365134Y-40031390D01*
X22348393Y-40000069D01*
X22338085Y-39966091D01*
X22334000Y-39924610D01*
X22334000Y-39323390D01*
X22338085Y-39281909D01*
X22348393Y-39247931D01*
X22365134Y-39216610D01*
X22387661Y-39189161D01*
X22415110Y-39166634D01*
X22446431Y-39149893D01*
X22480409Y-39139585D01*
X22521890Y-39135500D01*
X23198110Y-39135500D01*
X23239591Y-39139585D01*
G37*
G36*
X24763591Y-39139585D02*
G01*
X24797569Y-39149893D01*
X24828890Y-39166634D01*
X24856339Y-39189161D01*
X24878866Y-39216610D01*
X24895607Y-39247931D01*
X24905915Y-39281909D01*
X24910000Y-39323390D01*
X24910000Y-39924610D01*
X24905915Y-39966091D01*
X24895607Y-40000069D01*
X24878866Y-40031390D01*
X24856339Y-40058839D01*
X24828890Y-40081366D01*
X24797569Y-40098107D01*
X24763591Y-40108415D01*
X24722110Y-40112500D01*
X24045890Y-40112500D01*
X24004409Y-40108415D01*
X23970431Y-40098107D01*
X23939110Y-40081366D01*
X23911661Y-40058839D01*
X23889134Y-40031390D01*
X23872393Y-40000069D01*
X23862085Y-39966091D01*
X23858000Y-39924610D01*
X23858000Y-39323390D01*
X23862085Y-39281909D01*
X23872393Y-39247931D01*
X23889134Y-39216610D01*
X23911661Y-39189161D01*
X23939110Y-39166634D01*
X23970431Y-39149893D01*
X24004409Y-39139585D01*
X24045890Y-39135500D01*
X24722110Y-39135500D01*
X24763591Y-39139585D01*
G37*
G36*
X21461591Y-38631585D02*
G01*
X21495569Y-38641893D01*
X21526890Y-38658634D01*
X21554339Y-38681161D01*
X21576866Y-38708610D01*
X21593607Y-38739931D01*
X21603915Y-38773909D01*
X21608000Y-38815390D01*
X21608000Y-39416610D01*
X21603915Y-39458091D01*
X21593607Y-39492069D01*
X21576866Y-39523390D01*
X21554339Y-39550839D01*
X21526890Y-39573366D01*
X21495569Y-39590107D01*
X21461591Y-39600415D01*
X21420110Y-39604500D01*
X20743890Y-39604500D01*
X20702409Y-39600415D01*
X20668431Y-39590107D01*
X20637110Y-39573366D01*
X20609661Y-39550839D01*
X20587134Y-39523390D01*
X20570393Y-39492069D01*
X20560085Y-39458091D01*
X20556000Y-39416610D01*
X20556000Y-38815390D01*
X20560085Y-38773909D01*
X20570393Y-38739931D01*
X20587134Y-38708610D01*
X20609661Y-38681161D01*
X20637110Y-38658634D01*
X20668431Y-38641893D01*
X20702409Y-38631585D01*
X20743890Y-38627500D01*
X21420110Y-38627500D01*
X21461591Y-38631585D01*
G37*
G36*
X18961591Y-38631585D02*
G01*
X18995569Y-38641893D01*
X19026890Y-38658634D01*
X19054339Y-38681161D01*
X19076866Y-38708610D01*
X19093607Y-38739931D01*
X19103915Y-38773909D01*
X19108000Y-38815390D01*
X19108000Y-39416610D01*
X19103915Y-39458091D01*
X19093607Y-39492069D01*
X19076866Y-39523390D01*
X19054339Y-39550839D01*
X19026890Y-39573366D01*
X18995569Y-39590107D01*
X18961591Y-39600415D01*
X18920110Y-39604500D01*
X18243890Y-39604500D01*
X18202409Y-39600415D01*
X18168431Y-39590107D01*
X18137110Y-39573366D01*
X18109661Y-39550839D01*
X18087134Y-39523390D01*
X18070393Y-39492069D01*
X18060085Y-39458091D01*
X18056000Y-39416610D01*
X18056000Y-38815390D01*
X18060085Y-38773909D01*
X18070393Y-38739931D01*
X18087134Y-38708610D01*
X18109661Y-38681161D01*
X18137110Y-38658634D01*
X18168431Y-38641893D01*
X18202409Y-38631585D01*
X18243890Y-38627500D01*
X18920110Y-38627500D01*
X18961591Y-38631585D01*
G37*
G36*
X43827000Y-39521000D02*
G01*
X40725000Y-39521000D01*
X40725000Y-38219000D01*
X43827000Y-38219000D01*
X43827000Y-39521000D01*
G37*
G36*
X57827000Y-39521000D02*
G01*
X54725000Y-39521000D01*
X54725000Y-38219000D01*
X57827000Y-38219000D01*
X57827000Y-39521000D01*
G37*
G36*
X34073091Y-37527085D02*
G01*
X34107069Y-37537393D01*
X34138390Y-37554134D01*
X34165839Y-37576661D01*
X34188366Y-37604110D01*
X34205107Y-37635431D01*
X34215415Y-37669409D01*
X34219500Y-37710890D01*
X34219500Y-38387110D01*
X34215415Y-38428591D01*
X34205107Y-38462569D01*
X34188366Y-38493890D01*
X34165839Y-38521339D01*
X34138390Y-38543866D01*
X34107069Y-38560607D01*
X34073091Y-38570915D01*
X34031610Y-38575000D01*
X33430390Y-38575000D01*
X33388909Y-38570915D01*
X33354931Y-38560607D01*
X33323610Y-38543866D01*
X33296161Y-38521339D01*
X33273634Y-38493890D01*
X33256893Y-38462569D01*
X33246585Y-38428591D01*
X33242500Y-38387110D01*
X33242500Y-37710890D01*
X33246585Y-37669409D01*
X33256893Y-37635431D01*
X33273634Y-37604110D01*
X33296161Y-37576661D01*
X33323610Y-37554134D01*
X33354931Y-37537393D01*
X33388909Y-37527085D01*
X33430390Y-37523000D01*
X34031610Y-37523000D01*
X34073091Y-37527085D01*
G37*
G36*
X35648091Y-37527085D02*
G01*
X35682069Y-37537393D01*
X35713390Y-37554134D01*
X35740839Y-37576661D01*
X35763366Y-37604110D01*
X35780107Y-37635431D01*
X35790415Y-37669409D01*
X35794500Y-37710890D01*
X35794500Y-38387110D01*
X35790415Y-38428591D01*
X35780107Y-38462569D01*
X35763366Y-38493890D01*
X35740839Y-38521339D01*
X35713390Y-38543866D01*
X35682069Y-38560607D01*
X35648091Y-38570915D01*
X35606610Y-38575000D01*
X35005390Y-38575000D01*
X34963909Y-38570915D01*
X34929931Y-38560607D01*
X34898610Y-38543866D01*
X34871161Y-38521339D01*
X34848634Y-38493890D01*
X34831893Y-38462569D01*
X34821585Y-38428591D01*
X34817500Y-38387110D01*
X34817500Y-37710890D01*
X34821585Y-37669409D01*
X34831893Y-37635431D01*
X34848634Y-37604110D01*
X34871161Y-37576661D01*
X34898610Y-37554134D01*
X34929931Y-37537393D01*
X34963909Y-37527085D01*
X35005390Y-37523000D01*
X35606610Y-37523000D01*
X35648091Y-37527085D01*
G37*
G36*
X32571591Y-37564585D02*
G01*
X32605569Y-37574893D01*
X32636890Y-37591634D01*
X32664339Y-37614161D01*
X32686866Y-37641610D01*
X32703607Y-37672931D01*
X32713915Y-37706909D01*
X32718000Y-37748390D01*
X32718000Y-38349610D01*
X32713915Y-38391091D01*
X32703607Y-38425069D01*
X32686866Y-38456390D01*
X32664339Y-38483839D01*
X32636890Y-38506366D01*
X32605569Y-38523107D01*
X32571591Y-38533415D01*
X32530110Y-38537500D01*
X31853890Y-38537500D01*
X31812409Y-38533415D01*
X31778431Y-38523107D01*
X31747110Y-38506366D01*
X31719661Y-38483839D01*
X31697134Y-38456390D01*
X31680393Y-38425069D01*
X31670085Y-38391091D01*
X31666000Y-38349610D01*
X31666000Y-37748390D01*
X31670085Y-37706909D01*
X31680393Y-37672931D01*
X31697134Y-37641610D01*
X31719661Y-37614161D01*
X31747110Y-37591634D01*
X31778431Y-37574893D01*
X31812409Y-37564585D01*
X31853890Y-37560500D01*
X32530110Y-37560500D01*
X32571591Y-37564585D01*
G37*
G36*
X24763591Y-37564585D02*
G01*
X24797569Y-37574893D01*
X24828890Y-37591634D01*
X24856339Y-37614161D01*
X24878866Y-37641610D01*
X24895607Y-37672931D01*
X24905915Y-37706909D01*
X24910000Y-37748390D01*
X24910000Y-38349610D01*
X24905915Y-38391091D01*
X24895607Y-38425069D01*
X24878866Y-38456390D01*
X24856339Y-38483839D01*
X24828890Y-38506366D01*
X24797569Y-38523107D01*
X24763591Y-38533415D01*
X24722110Y-38537500D01*
X24045890Y-38537500D01*
X24004409Y-38533415D01*
X23970431Y-38523107D01*
X23939110Y-38506366D01*
X23911661Y-38483839D01*
X23889134Y-38456390D01*
X23872393Y-38425069D01*
X23862085Y-38391091D01*
X23858000Y-38349610D01*
X23858000Y-37748390D01*
X23862085Y-37706909D01*
X23872393Y-37672931D01*
X23889134Y-37641610D01*
X23911661Y-37614161D01*
X23939110Y-37591634D01*
X23970431Y-37574893D01*
X24004409Y-37564585D01*
X24045890Y-37560500D01*
X24722110Y-37560500D01*
X24763591Y-37564585D01*
G37*
G36*
X23239591Y-37564585D02*
G01*
X23273569Y-37574893D01*
X23304890Y-37591634D01*
X23332339Y-37614161D01*
X23354866Y-37641610D01*
X23371607Y-37672931D01*
X23381915Y-37706909D01*
X23386000Y-37748390D01*
X23386000Y-38349610D01*
X23381915Y-38391091D01*
X23371607Y-38425069D01*
X23354866Y-38456390D01*
X23332339Y-38483839D01*
X23304890Y-38506366D01*
X23273569Y-38523107D01*
X23239591Y-38533415D01*
X23198110Y-38537500D01*
X22521890Y-38537500D01*
X22480409Y-38533415D01*
X22446431Y-38523107D01*
X22415110Y-38506366D01*
X22387661Y-38483839D01*
X22365134Y-38456390D01*
X22348393Y-38425069D01*
X22338085Y-38391091D01*
X22334000Y-38349610D01*
X22334000Y-37748390D01*
X22338085Y-37706909D01*
X22348393Y-37672931D01*
X22365134Y-37641610D01*
X22387661Y-37614161D01*
X22415110Y-37591634D01*
X22446431Y-37574893D01*
X22480409Y-37564585D01*
X22521890Y-37560500D01*
X23198110Y-37560500D01*
X23239591Y-37564585D01*
G37*
G36*
X18961591Y-37056585D02*
G01*
X18995569Y-37066893D01*
X19026890Y-37083634D01*
X19054339Y-37106161D01*
X19076866Y-37133610D01*
X19093607Y-37164931D01*
X19103915Y-37198909D01*
X19108000Y-37240390D01*
X19108000Y-37841610D01*
X19103915Y-37883091D01*
X19093607Y-37917069D01*
X19076866Y-37948390D01*
X19054339Y-37975839D01*
X19026890Y-37998366D01*
X18995569Y-38015107D01*
X18961591Y-38025415D01*
X18920110Y-38029500D01*
X18243890Y-38029500D01*
X18202409Y-38025415D01*
X18168431Y-38015107D01*
X18137110Y-37998366D01*
X18109661Y-37975839D01*
X18087134Y-37948390D01*
X18070393Y-37917069D01*
X18060085Y-37883091D01*
X18056000Y-37841610D01*
X18056000Y-37240390D01*
X18060085Y-37198909D01*
X18070393Y-37164931D01*
X18087134Y-37133610D01*
X18109661Y-37106161D01*
X18137110Y-37083634D01*
X18168431Y-37066893D01*
X18202409Y-37056585D01*
X18243890Y-37052500D01*
X18920110Y-37052500D01*
X18961591Y-37056585D01*
G37*
G36*
X21461591Y-37056585D02*
G01*
X21495569Y-37066893D01*
X21526890Y-37083634D01*
X21554339Y-37106161D01*
X21576866Y-37133610D01*
X21593607Y-37164931D01*
X21603915Y-37198909D01*
X21608000Y-37240390D01*
X21608000Y-37841610D01*
X21603915Y-37883091D01*
X21593607Y-37917069D01*
X21576866Y-37948390D01*
X21554339Y-37975839D01*
X21526890Y-37998366D01*
X21495569Y-38015107D01*
X21461591Y-38025415D01*
X21420110Y-38029500D01*
X20743890Y-38029500D01*
X20702409Y-38025415D01*
X20668431Y-38015107D01*
X20637110Y-37998366D01*
X20609661Y-37975839D01*
X20587134Y-37948390D01*
X20570393Y-37917069D01*
X20560085Y-37883091D01*
X20556000Y-37841610D01*
X20556000Y-37240390D01*
X20560085Y-37198909D01*
X20570393Y-37164931D01*
X20587134Y-37133610D01*
X20609661Y-37106161D01*
X20637110Y-37083634D01*
X20668431Y-37066893D01*
X20702409Y-37056585D01*
X20743890Y-37052500D01*
X21420110Y-37052500D01*
X21461591Y-37056585D01*
G37*
G36*
X43827000Y-37521000D02*
G01*
X40725000Y-37521000D01*
X40725000Y-36219000D01*
X43827000Y-36219000D01*
X43827000Y-37521000D01*
G37*
G36*
X57827000Y-37521000D02*
G01*
X54725000Y-37521000D01*
X54725000Y-36219000D01*
X57827000Y-36219000D01*
X57827000Y-37521000D01*
G37*
G36*
X30671798Y-35862247D02*
G01*
X30707367Y-35873037D01*
X30740139Y-35890554D01*
X30768869Y-35914131D01*
X30792446Y-35942861D01*
X30809963Y-35975633D01*
X30820753Y-36011202D01*
X30825000Y-36054325D01*
X30825000Y-37163675D01*
X30820753Y-37206798D01*
X30809963Y-37242367D01*
X30792446Y-37275139D01*
X30768869Y-37303869D01*
X30740139Y-37327446D01*
X30707367Y-37344963D01*
X30671798Y-37355753D01*
X30628675Y-37360000D01*
X29569325Y-37360000D01*
X29526202Y-37355753D01*
X29490633Y-37344963D01*
X29457861Y-37327446D01*
X29429131Y-37303869D01*
X29405554Y-37275139D01*
X29388037Y-37242367D01*
X29377247Y-37206798D01*
X29373000Y-37163675D01*
X29373000Y-36054325D01*
X29377247Y-36011202D01*
X29388037Y-35975633D01*
X29405554Y-35942861D01*
X29429131Y-35914131D01*
X29457861Y-35890554D01*
X29490633Y-35873037D01*
X29526202Y-35862247D01*
X29569325Y-35858000D01*
X30628675Y-35858000D01*
X30671798Y-35862247D01*
G37*
G36*
X24763591Y-36091585D02*
G01*
X24797569Y-36101893D01*
X24828890Y-36118634D01*
X24856339Y-36141161D01*
X24878866Y-36168610D01*
X24895607Y-36199931D01*
X24905915Y-36233909D01*
X24910000Y-36275390D01*
X24910000Y-36876610D01*
X24905915Y-36918091D01*
X24895607Y-36952069D01*
X24878866Y-36983390D01*
X24856339Y-37010839D01*
X24828890Y-37033366D01*
X24797569Y-37050107D01*
X24763591Y-37060415D01*
X24722110Y-37064500D01*
X24045890Y-37064500D01*
X24004409Y-37060415D01*
X23970431Y-37050107D01*
X23939110Y-37033366D01*
X23911661Y-37010839D01*
X23889134Y-36983390D01*
X23872393Y-36952069D01*
X23862085Y-36918091D01*
X23858000Y-36876610D01*
X23858000Y-36275390D01*
X23862085Y-36233909D01*
X23872393Y-36199931D01*
X23889134Y-36168610D01*
X23911661Y-36141161D01*
X23939110Y-36118634D01*
X23970431Y-36101893D01*
X24004409Y-36091585D01*
X24045890Y-36087500D01*
X24722110Y-36087500D01*
X24763591Y-36091585D01*
G37*
G36*
X23239591Y-36091585D02*
G01*
X23273569Y-36101893D01*
X23304890Y-36118634D01*
X23332339Y-36141161D01*
X23354866Y-36168610D01*
X23371607Y-36199931D01*
X23381915Y-36233909D01*
X23386000Y-36275390D01*
X23386000Y-36876610D01*
X23381915Y-36918091D01*
X23371607Y-36952069D01*
X23354866Y-36983390D01*
X23332339Y-37010839D01*
X23304890Y-37033366D01*
X23273569Y-37050107D01*
X23239591Y-37060415D01*
X23198110Y-37064500D01*
X22521890Y-37064500D01*
X22480409Y-37060415D01*
X22446431Y-37050107D01*
X22415110Y-37033366D01*
X22387661Y-37010839D01*
X22365134Y-36983390D01*
X22348393Y-36952069D01*
X22338085Y-36918091D01*
X22334000Y-36876610D01*
X22334000Y-36275390D01*
X22338085Y-36233909D01*
X22348393Y-36199931D01*
X22365134Y-36168610D01*
X22387661Y-36141161D01*
X22415110Y-36118634D01*
X22446431Y-36101893D01*
X22480409Y-36091585D01*
X22521890Y-36087500D01*
X23198110Y-36087500D01*
X23239591Y-36091585D01*
G37*
G36*
X33018000Y-36927000D02*
G01*
X31366000Y-36927000D01*
X31366000Y-36225000D01*
X33018000Y-36225000D01*
X33018000Y-36927000D01*
G37*
G36*
X38418000Y-36927000D02*
G01*
X36766000Y-36927000D01*
X36766000Y-36225000D01*
X38418000Y-36225000D01*
X38418000Y-36927000D01*
G37*
G36*
X21633000Y-36551000D02*
G01*
X20531000Y-36551000D01*
X20531000Y-34649000D01*
X21633000Y-34649000D01*
X21633000Y-36551000D01*
G37*
G36*
X19133000Y-36551000D02*
G01*
X18031000Y-36551000D01*
X18031000Y-34649000D01*
X19133000Y-34649000D01*
X19133000Y-36551000D01*
G37*
G36*
X36243000Y-36272000D02*
G01*
X33541000Y-36272000D01*
X33541000Y-33070000D01*
X36243000Y-33070000D01*
X36243000Y-36272000D01*
G37*
G36*
X40196798Y-34559247D02*
G01*
X40232367Y-34570037D01*
X40265139Y-34587554D01*
X40293869Y-34611131D01*
X40317446Y-34639861D01*
X40334963Y-34672633D01*
X40345753Y-34708202D01*
X40350000Y-34751325D01*
X40350000Y-35860675D01*
X40345753Y-35903798D01*
X40334963Y-35939367D01*
X40317446Y-35972139D01*
X40293869Y-36000869D01*
X40265139Y-36024446D01*
X40232367Y-36041963D01*
X40196798Y-36052753D01*
X40153675Y-36057000D01*
X39094325Y-36057000D01*
X39051202Y-36052753D01*
X39015633Y-36041963D01*
X38982861Y-36024446D01*
X38954131Y-36000869D01*
X38930554Y-35972139D01*
X38913037Y-35939367D01*
X38902247Y-35903798D01*
X38898000Y-35860675D01*
X38898000Y-34751325D01*
X38902247Y-34708202D01*
X38913037Y-34672633D01*
X38930554Y-34639861D01*
X38954131Y-34611131D01*
X38982861Y-34587554D01*
X39015633Y-34570037D01*
X39051202Y-34559247D01*
X39094325Y-34555000D01*
X40153675Y-34555000D01*
X40196798Y-34559247D01*
G37*
G36*
X33018000Y-35657000D02*
G01*
X31366000Y-35657000D01*
X31366000Y-34955000D01*
X33018000Y-34955000D01*
X33018000Y-35657000D01*
G37*
G36*
X38418000Y-35657000D02*
G01*
X36766000Y-35657000D01*
X36766000Y-34955000D01*
X38418000Y-34955000D01*
X38418000Y-35657000D01*
G37*
G36*
X57827000Y-35521000D02*
G01*
X54725000Y-35521000D01*
X54725000Y-34219000D01*
X57827000Y-34219000D01*
X57827000Y-35521000D01*
G37*
G36*
X43827000Y-35521000D02*
G01*
X40725000Y-35521000D01*
X40725000Y-34219000D01*
X43827000Y-34219000D01*
X43827000Y-35521000D01*
G37*
G36*
X24763591Y-34516585D02*
G01*
X24797569Y-34526893D01*
X24828890Y-34543634D01*
X24856339Y-34566161D01*
X24878866Y-34593610D01*
X24895607Y-34624931D01*
X24905915Y-34658909D01*
X24910000Y-34700390D01*
X24910000Y-35301610D01*
X24905915Y-35343091D01*
X24895607Y-35377069D01*
X24878866Y-35408390D01*
X24856339Y-35435839D01*
X24828890Y-35458366D01*
X24797569Y-35475107D01*
X24763591Y-35485415D01*
X24722110Y-35489500D01*
X24045890Y-35489500D01*
X24004409Y-35485415D01*
X23970431Y-35475107D01*
X23939110Y-35458366D01*
X23911661Y-35435839D01*
X23889134Y-35408390D01*
X23872393Y-35377069D01*
X23862085Y-35343091D01*
X23858000Y-35301610D01*
X23858000Y-34700390D01*
X23862085Y-34658909D01*
X23872393Y-34624931D01*
X23889134Y-34593610D01*
X23911661Y-34566161D01*
X23939110Y-34543634D01*
X23970431Y-34526893D01*
X24004409Y-34516585D01*
X24045890Y-34512500D01*
X24722110Y-34512500D01*
X24763591Y-34516585D01*
G37*
G36*
X23239591Y-34516585D02*
G01*
X23273569Y-34526893D01*
X23304890Y-34543634D01*
X23332339Y-34566161D01*
X23354866Y-34593610D01*
X23371607Y-34624931D01*
X23381915Y-34658909D01*
X23386000Y-34700390D01*
X23386000Y-35301610D01*
X23381915Y-35343091D01*
X23371607Y-35377069D01*
X23354866Y-35408390D01*
X23332339Y-35435839D01*
X23304890Y-35458366D01*
X23273569Y-35475107D01*
X23239591Y-35485415D01*
X23198110Y-35489500D01*
X22521890Y-35489500D01*
X22480409Y-35485415D01*
X22446431Y-35475107D01*
X22415110Y-35458366D01*
X22387661Y-35435839D01*
X22365134Y-35408390D01*
X22348393Y-35377069D01*
X22338085Y-35343091D01*
X22334000Y-35301610D01*
X22334000Y-34700390D01*
X22338085Y-34658909D01*
X22348393Y-34624931D01*
X22365134Y-34593610D01*
X22387661Y-34566161D01*
X22415110Y-34543634D01*
X22446431Y-34526893D01*
X22480409Y-34516585D01*
X22521890Y-34512500D01*
X23198110Y-34512500D01*
X23239591Y-34516585D01*
G37*
G36*
X30671798Y-33162247D02*
G01*
X30707367Y-33173037D01*
X30740139Y-33190554D01*
X30768869Y-33214131D01*
X30792446Y-33242861D01*
X30809963Y-33275633D01*
X30820753Y-33311202D01*
X30825000Y-33354325D01*
X30825000Y-34463675D01*
X30820753Y-34506798D01*
X30809963Y-34542367D01*
X30792446Y-34575139D01*
X30768869Y-34603869D01*
X30740139Y-34627446D01*
X30707367Y-34644963D01*
X30671798Y-34655753D01*
X30628675Y-34660000D01*
X29569325Y-34660000D01*
X29526202Y-34655753D01*
X29490633Y-34644963D01*
X29457861Y-34627446D01*
X29429131Y-34603869D01*
X29405554Y-34575139D01*
X29388037Y-34542367D01*
X29377247Y-34506798D01*
X29373000Y-34463675D01*
X29373000Y-33354325D01*
X29377247Y-33311202D01*
X29388037Y-33275633D01*
X29405554Y-33242861D01*
X29429131Y-33214131D01*
X29457861Y-33190554D01*
X29490633Y-33173037D01*
X29526202Y-33162247D01*
X29569325Y-33158000D01*
X30628675Y-33158000D01*
X30671798Y-33162247D01*
G37*
G36*
X38418000Y-34387000D02*
G01*
X36766000Y-34387000D01*
X36766000Y-33685000D01*
X38418000Y-33685000D01*
X38418000Y-34387000D01*
G37*
G36*
X33018000Y-34387000D02*
G01*
X31366000Y-34387000D01*
X31366000Y-33685000D01*
X33018000Y-33685000D01*
X33018000Y-34387000D01*
G37*
G36*
X21058295Y-32282323D02*
G01*
X21065309Y-32284451D01*
X21079077Y-32291810D01*
X21101716Y-32301187D01*
X21125749Y-32305967D01*
X21150253Y-32305967D01*
X21174286Y-32301186D01*
X21196923Y-32291810D01*
X21210691Y-32284451D01*
X21217705Y-32282323D01*
X21231140Y-32281000D01*
X21544860Y-32281000D01*
X21558295Y-32282323D01*
X21565309Y-32284451D01*
X21579077Y-32291810D01*
X21601716Y-32301187D01*
X21625749Y-32305967D01*
X21650253Y-32305967D01*
X21674286Y-32301186D01*
X21696923Y-32291810D01*
X21710691Y-32284451D01*
X21717705Y-32282323D01*
X21731140Y-32281000D01*
X22044860Y-32281000D01*
X22058295Y-32282323D01*
X22065309Y-32284451D01*
X22079077Y-32291810D01*
X22101716Y-32301187D01*
X22125749Y-32305967D01*
X22150253Y-32305967D01*
X22174286Y-32301186D01*
X22196923Y-32291810D01*
X22210691Y-32284451D01*
X22217705Y-32282323D01*
X22231140Y-32281000D01*
X22544860Y-32281000D01*
X22558295Y-32282323D01*
X22565309Y-32284451D01*
X22579077Y-32291810D01*
X22601716Y-32301187D01*
X22625749Y-32305967D01*
X22650253Y-32305967D01*
X22674286Y-32301186D01*
X22696923Y-32291810D01*
X22710691Y-32284451D01*
X22717705Y-32282323D01*
X22731140Y-32281000D01*
X23044860Y-32281000D01*
X23058295Y-32282323D01*
X23065309Y-32284451D01*
X23079077Y-32291810D01*
X23101716Y-32301187D01*
X23125749Y-32305967D01*
X23150253Y-32305967D01*
X23174286Y-32301186D01*
X23196923Y-32291810D01*
X23210691Y-32284451D01*
X23217705Y-32282323D01*
X23231140Y-32281000D01*
X23544860Y-32281000D01*
X23558295Y-32282323D01*
X23565309Y-32284451D01*
X23579077Y-32291810D01*
X23601716Y-32301187D01*
X23625749Y-32305967D01*
X23650253Y-32305967D01*
X23674286Y-32301186D01*
X23696923Y-32291810D01*
X23710691Y-32284451D01*
X23717705Y-32282323D01*
X23731140Y-32281000D01*
X24044860Y-32281000D01*
X24058295Y-32282323D01*
X24065309Y-32284451D01*
X24079077Y-32291810D01*
X24101716Y-32301187D01*
X24125749Y-32305967D01*
X24150253Y-32305967D01*
X24174286Y-32301186D01*
X24196923Y-32291810D01*
X24210691Y-32284451D01*
X24217705Y-32282323D01*
X24231140Y-32281000D01*
X24544860Y-32281000D01*
X24558295Y-32282323D01*
X24565309Y-32284451D01*
X24579077Y-32291810D01*
X24601716Y-32301187D01*
X24625749Y-32305967D01*
X24650253Y-32305967D01*
X24674286Y-32301186D01*
X24696923Y-32291810D01*
X24710691Y-32284451D01*
X24717705Y-32282323D01*
X24731140Y-32281000D01*
X25044860Y-32281000D01*
X25058295Y-32282323D01*
X25065309Y-32284451D01*
X25079077Y-32291810D01*
X25101716Y-32301187D01*
X25125749Y-32305967D01*
X25150253Y-32305967D01*
X25174286Y-32301186D01*
X25196923Y-32291810D01*
X25210691Y-32284451D01*
X25217705Y-32282323D01*
X25231140Y-32281000D01*
X25544860Y-32281000D01*
X25558295Y-32282323D01*
X25565309Y-32284451D01*
X25579077Y-32291810D01*
X25601716Y-32301187D01*
X25625749Y-32305967D01*
X25650253Y-32305967D01*
X25674286Y-32301186D01*
X25696923Y-32291810D01*
X25710691Y-32284451D01*
X25717705Y-32282323D01*
X25731140Y-32281000D01*
X26044860Y-32281000D01*
X26058295Y-32282323D01*
X26065309Y-32284451D01*
X26079077Y-32291810D01*
X26101716Y-32301187D01*
X26125749Y-32305967D01*
X26150253Y-32305967D01*
X26174286Y-32301186D01*
X26196923Y-32291810D01*
X26210691Y-32284451D01*
X26217705Y-32282323D01*
X26231140Y-32281000D01*
X26544860Y-32281000D01*
X26558295Y-32282323D01*
X26565309Y-32284451D01*
X26579077Y-32291810D01*
X26601716Y-32301187D01*
X26625749Y-32305967D01*
X26650253Y-32305967D01*
X26674286Y-32301186D01*
X26696923Y-32291810D01*
X26710691Y-32284451D01*
X26717705Y-32282323D01*
X26731140Y-32281000D01*
X27044860Y-32281000D01*
X27058295Y-32282323D01*
X27065309Y-32284451D01*
X27079077Y-32291810D01*
X27101716Y-32301187D01*
X27125749Y-32305967D01*
X27150253Y-32305967D01*
X27174286Y-32301186D01*
X27196923Y-32291810D01*
X27210691Y-32284451D01*
X27217705Y-32282323D01*
X27231140Y-32281000D01*
X27544860Y-32281000D01*
X27558295Y-32282323D01*
X27565309Y-32284451D01*
X27579077Y-32291810D01*
X27601716Y-32301187D01*
X27625749Y-32305967D01*
X27650253Y-32305967D01*
X27674286Y-32301186D01*
X27696923Y-32291810D01*
X27710691Y-32284451D01*
X27717705Y-32282323D01*
X27731140Y-32281000D01*
X28044860Y-32281000D01*
X28058295Y-32282323D01*
X28065309Y-32284451D01*
X28079077Y-32291810D01*
X28101716Y-32301187D01*
X28125749Y-32305967D01*
X28150253Y-32305967D01*
X28174286Y-32301186D01*
X28196923Y-32291810D01*
X28210691Y-32284451D01*
X28217705Y-32282323D01*
X28231140Y-32281000D01*
X28544860Y-32281000D01*
X28558295Y-32282323D01*
X28565310Y-32284451D01*
X28571776Y-32287908D01*
X28577442Y-32292558D01*
X28582092Y-32298224D01*
X28585549Y-32304690D01*
X28587677Y-32311705D01*
X28589000Y-32325140D01*
X28589000Y-33888860D01*
X28587677Y-33902295D01*
X28585549Y-33909310D01*
X28582092Y-33915776D01*
X28577442Y-33921442D01*
X28571776Y-33926092D01*
X28565310Y-33929549D01*
X28558295Y-33931677D01*
X28544860Y-33933000D01*
X28231140Y-33933000D01*
X28217705Y-33931677D01*
X28210691Y-33929549D01*
X28196923Y-33922190D01*
X28174284Y-33912813D01*
X28150251Y-33908033D01*
X28125747Y-33908033D01*
X28101714Y-33912814D01*
X28079077Y-33922190D01*
X28065309Y-33929549D01*
X28058295Y-33931677D01*
X28044860Y-33933000D01*
X27731140Y-33933000D01*
X27717705Y-33931677D01*
X27710691Y-33929549D01*
X27696923Y-33922190D01*
X27674284Y-33912813D01*
X27650251Y-33908033D01*
X27625747Y-33908033D01*
X27601714Y-33912814D01*
X27579077Y-33922190D01*
X27565309Y-33929549D01*
X27558295Y-33931677D01*
X27544860Y-33933000D01*
X27231140Y-33933000D01*
X27217705Y-33931677D01*
X27210691Y-33929549D01*
X27196923Y-33922190D01*
X27174284Y-33912813D01*
X27150251Y-33908033D01*
X27125747Y-33908033D01*
X27101714Y-33912814D01*
X27079077Y-33922190D01*
X27065309Y-33929549D01*
X27058295Y-33931677D01*
X27044860Y-33933000D01*
X26731140Y-33933000D01*
X26717705Y-33931677D01*
X26710691Y-33929549D01*
X26696923Y-33922190D01*
X26674284Y-33912813D01*
X26650251Y-33908033D01*
X26625747Y-33908033D01*
X26601714Y-33912814D01*
X26579077Y-33922190D01*
X26565309Y-33929549D01*
X26558295Y-33931677D01*
X26544860Y-33933000D01*
X26231140Y-33933000D01*
X26217705Y-33931677D01*
X26210691Y-33929549D01*
X26196923Y-33922190D01*
X26174284Y-33912813D01*
X26150251Y-33908033D01*
X26125747Y-33908033D01*
X26101714Y-33912814D01*
X26079077Y-33922190D01*
X26065309Y-33929549D01*
X26058295Y-33931677D01*
X26044860Y-33933000D01*
X25731140Y-33933000D01*
X25717705Y-33931677D01*
X25710691Y-33929549D01*
X25696923Y-33922190D01*
X25674284Y-33912813D01*
X25650251Y-33908033D01*
X25625747Y-33908033D01*
X25601714Y-33912814D01*
X25579077Y-33922190D01*
X25565309Y-33929549D01*
X25558295Y-33931677D01*
X25544860Y-33933000D01*
X25231140Y-33933000D01*
X25217705Y-33931677D01*
X25210691Y-33929549D01*
X25196923Y-33922190D01*
X25174284Y-33912813D01*
X25150251Y-33908033D01*
X25125747Y-33908033D01*
X25101714Y-33912814D01*
X25079077Y-33922190D01*
X25065309Y-33929549D01*
X25058295Y-33931677D01*
X25044860Y-33933000D01*
X24731140Y-33933000D01*
X24717705Y-33931677D01*
X24710691Y-33929549D01*
X24696923Y-33922190D01*
X24674284Y-33912813D01*
X24650251Y-33908033D01*
X24625747Y-33908033D01*
X24601714Y-33912814D01*
X24579077Y-33922190D01*
X24565309Y-33929549D01*
X24558295Y-33931677D01*
X24544860Y-33933000D01*
X24231140Y-33933000D01*
X24217705Y-33931677D01*
X24210691Y-33929549D01*
X24196923Y-33922190D01*
X24174284Y-33912813D01*
X24150251Y-33908033D01*
X24125747Y-33908033D01*
X24101714Y-33912814D01*
X24079077Y-33922190D01*
X24065309Y-33929549D01*
X24058295Y-33931677D01*
X24044860Y-33933000D01*
X23731140Y-33933000D01*
X23717705Y-33931677D01*
X23710691Y-33929549D01*
X23696923Y-33922190D01*
X23674284Y-33912813D01*
X23650251Y-33908033D01*
X23625747Y-33908033D01*
X23601714Y-33912814D01*
X23579077Y-33922190D01*
X23565309Y-33929549D01*
X23558295Y-33931677D01*
X23544860Y-33933000D01*
X23231140Y-33933000D01*
X23217705Y-33931677D01*
X23210691Y-33929549D01*
X23196923Y-33922190D01*
X23174284Y-33912813D01*
X23150251Y-33908033D01*
X23125747Y-33908033D01*
X23101714Y-33912814D01*
X23079077Y-33922190D01*
X23065309Y-33929549D01*
X23058295Y-33931677D01*
X23044860Y-33933000D01*
X22731140Y-33933000D01*
X22717705Y-33931677D01*
X22710691Y-33929549D01*
X22696923Y-33922190D01*
X22674284Y-33912813D01*
X22650251Y-33908033D01*
X22625747Y-33908033D01*
X22601714Y-33912814D01*
X22579077Y-33922190D01*
X22565309Y-33929549D01*
X22558295Y-33931677D01*
X22544860Y-33933000D01*
X22231140Y-33933000D01*
X22217705Y-33931677D01*
X22210691Y-33929549D01*
X22196923Y-33922190D01*
X22174284Y-33912813D01*
X22150251Y-33908033D01*
X22125747Y-33908033D01*
X22101714Y-33912814D01*
X22079077Y-33922190D01*
X22065309Y-33929549D01*
X22058295Y-33931677D01*
X22044860Y-33933000D01*
X21731140Y-33933000D01*
X21717705Y-33931677D01*
X21710691Y-33929549D01*
X21696923Y-33922190D01*
X21674284Y-33912813D01*
X21650251Y-33908033D01*
X21625747Y-33908033D01*
X21601714Y-33912814D01*
X21579077Y-33922190D01*
X21565309Y-33929549D01*
X21558295Y-33931677D01*
X21544860Y-33933000D01*
X21231140Y-33933000D01*
X21217705Y-33931677D01*
X21210691Y-33929549D01*
X21196923Y-33922190D01*
X21174284Y-33912813D01*
X21150251Y-33908033D01*
X21125747Y-33908033D01*
X21101714Y-33912814D01*
X21079077Y-33922190D01*
X21065309Y-33929549D01*
X21058295Y-33931677D01*
X21044860Y-33933000D01*
X20731140Y-33933000D01*
X20717705Y-33931677D01*
X20710690Y-33929549D01*
X20704224Y-33926092D01*
X20698558Y-33921442D01*
X20693908Y-33915776D01*
X20690451Y-33909310D01*
X20688323Y-33902295D01*
X20687000Y-33888860D01*
X20687000Y-32325140D01*
X20688323Y-32311705D01*
X20690451Y-32304690D01*
X20693908Y-32298224D01*
X20698558Y-32292558D01*
X20704224Y-32287908D01*
X20710690Y-32284451D01*
X20717705Y-32282323D01*
X20731140Y-32281000D01*
X21044860Y-32281000D01*
X21058295Y-32282323D01*
G37*
G36*
X43827000Y-33521000D02*
G01*
X40725000Y-33521000D01*
X40725000Y-32219000D01*
X43827000Y-32219000D01*
X43827000Y-33521000D01*
G37*
G36*
X57827000Y-33521000D02*
G01*
X54725000Y-33521000D01*
X54725000Y-32219000D01*
X57827000Y-32219000D01*
X57827000Y-33521000D01*
G37*
G36*
X40196798Y-31859247D02*
G01*
X40232367Y-31870037D01*
X40265139Y-31887554D01*
X40293869Y-31911131D01*
X40317446Y-31939861D01*
X40334963Y-31972633D01*
X40345753Y-32008202D01*
X40350000Y-32051325D01*
X40350000Y-33160675D01*
X40345753Y-33203798D01*
X40334963Y-33239367D01*
X40317446Y-33272139D01*
X40293869Y-33300869D01*
X40265139Y-33324446D01*
X40232367Y-33341963D01*
X40196798Y-33352753D01*
X40153675Y-33357000D01*
X39094325Y-33357000D01*
X39051202Y-33352753D01*
X39015633Y-33341963D01*
X38982861Y-33324446D01*
X38954131Y-33300869D01*
X38930554Y-33272139D01*
X38913037Y-33239367D01*
X38902247Y-33203798D01*
X38898000Y-33160675D01*
X38898000Y-32051325D01*
X38902247Y-32008202D01*
X38913037Y-31972633D01*
X38930554Y-31939861D01*
X38954131Y-31911131D01*
X38982861Y-31887554D01*
X39015633Y-31870037D01*
X39051202Y-31859247D01*
X39094325Y-31855000D01*
X40153675Y-31855000D01*
X40196798Y-31859247D01*
G37*
G36*
X38418000Y-33117000D02*
G01*
X36766000Y-33117000D01*
X36766000Y-32415000D01*
X38418000Y-32415000D01*
X38418000Y-33117000D01*
G37*
G36*
X33018000Y-33117000D02*
G01*
X31366000Y-33117000D01*
X31366000Y-32415000D01*
X33018000Y-32415000D01*
X33018000Y-33117000D01*
G37*
G36*
X43827000Y-31521000D02*
G01*
X40725000Y-31521000D01*
X40725000Y-30219000D01*
X43827000Y-30219000D01*
X43827000Y-31521000D01*
G37*
G36*
X57827000Y-31521000D02*
G01*
X54725000Y-31521000D01*
X54725000Y-30219000D01*
X57827000Y-30219000D01*
X57827000Y-31521000D01*
G37*
G36*
X19758295Y-23482323D02*
G01*
X19765310Y-23484451D01*
X19771776Y-23487908D01*
X19777442Y-23492558D01*
X19782092Y-23498224D01*
X19785549Y-23504690D01*
X19787677Y-23511705D01*
X19789000Y-23525140D01*
X19789000Y-23838860D01*
X19787677Y-23852295D01*
X19785549Y-23859309D01*
X19778190Y-23873077D01*
X19768813Y-23895716D01*
X19764033Y-23919749D01*
X19764033Y-23944253D01*
X19768814Y-23968286D01*
X19778190Y-23990923D01*
X19785549Y-24004691D01*
X19787677Y-24011705D01*
X19789000Y-24025140D01*
X19789000Y-24338860D01*
X19787677Y-24352295D01*
X19785549Y-24359309D01*
X19778190Y-24373077D01*
X19768813Y-24395716D01*
X19764033Y-24419749D01*
X19764033Y-24444253D01*
X19768814Y-24468286D01*
X19778190Y-24490923D01*
X19785549Y-24504691D01*
X19787677Y-24511705D01*
X19789000Y-24525140D01*
X19789000Y-24838860D01*
X19787677Y-24852295D01*
X19785549Y-24859309D01*
X19778190Y-24873077D01*
X19768813Y-24895716D01*
X19764033Y-24919749D01*
X19764033Y-24944253D01*
X19768814Y-24968286D01*
X19778190Y-24990923D01*
X19785549Y-25004691D01*
X19787677Y-25011705D01*
X19789000Y-25025140D01*
X19789000Y-25338860D01*
X19787677Y-25352295D01*
X19785549Y-25359309D01*
X19778190Y-25373077D01*
X19768813Y-25395716D01*
X19764033Y-25419749D01*
X19764033Y-25444253D01*
X19768814Y-25468286D01*
X19778190Y-25490923D01*
X19785549Y-25504691D01*
X19787677Y-25511705D01*
X19789000Y-25525140D01*
X19789000Y-25838860D01*
X19787677Y-25852295D01*
X19785549Y-25859309D01*
X19778190Y-25873077D01*
X19768813Y-25895716D01*
X19764033Y-25919749D01*
X19764033Y-25944253D01*
X19768814Y-25968286D01*
X19778190Y-25990923D01*
X19785549Y-26004691D01*
X19787677Y-26011705D01*
X19789000Y-26025140D01*
X19789000Y-26338860D01*
X19787677Y-26352295D01*
X19785549Y-26359309D01*
X19778190Y-26373077D01*
X19768813Y-26395716D01*
X19764033Y-26419749D01*
X19764033Y-26444253D01*
X19768814Y-26468286D01*
X19778190Y-26490923D01*
X19785549Y-26504691D01*
X19787677Y-26511705D01*
X19789000Y-26525140D01*
X19789000Y-26838860D01*
X19787677Y-26852295D01*
X19785549Y-26859309D01*
X19778190Y-26873077D01*
X19768813Y-26895716D01*
X19764033Y-26919749D01*
X19764033Y-26944253D01*
X19768814Y-26968286D01*
X19778190Y-26990923D01*
X19785549Y-27004691D01*
X19787677Y-27011705D01*
X19789000Y-27025140D01*
X19789000Y-27338860D01*
X19787677Y-27352295D01*
X19785549Y-27359309D01*
X19778190Y-27373077D01*
X19768813Y-27395716D01*
X19764033Y-27419749D01*
X19764033Y-27444253D01*
X19768814Y-27468286D01*
X19778190Y-27490923D01*
X19785549Y-27504691D01*
X19787677Y-27511705D01*
X19789000Y-27525140D01*
X19789000Y-27838860D01*
X19787677Y-27852295D01*
X19785549Y-27859309D01*
X19778190Y-27873077D01*
X19768813Y-27895716D01*
X19764033Y-27919749D01*
X19764033Y-27944253D01*
X19768814Y-27968286D01*
X19778190Y-27990923D01*
X19785549Y-28004691D01*
X19787677Y-28011705D01*
X19789000Y-28025140D01*
X19789000Y-28338860D01*
X19787677Y-28352295D01*
X19785549Y-28359309D01*
X19778190Y-28373077D01*
X19768813Y-28395716D01*
X19764033Y-28419749D01*
X19764033Y-28444253D01*
X19768814Y-28468286D01*
X19778190Y-28490923D01*
X19785549Y-28504691D01*
X19787677Y-28511705D01*
X19789000Y-28525140D01*
X19789000Y-28838860D01*
X19787677Y-28852295D01*
X19785549Y-28859309D01*
X19778190Y-28873077D01*
X19768813Y-28895716D01*
X19764033Y-28919749D01*
X19764033Y-28944253D01*
X19768814Y-28968286D01*
X19778190Y-28990923D01*
X19785549Y-29004691D01*
X19787677Y-29011705D01*
X19789000Y-29025140D01*
X19789000Y-29338860D01*
X19787677Y-29352295D01*
X19785549Y-29359309D01*
X19778190Y-29373077D01*
X19768813Y-29395716D01*
X19764033Y-29419749D01*
X19764033Y-29444253D01*
X19768814Y-29468286D01*
X19778190Y-29490923D01*
X19785549Y-29504691D01*
X19787677Y-29511705D01*
X19789000Y-29525140D01*
X19789000Y-29838860D01*
X19787677Y-29852295D01*
X19785549Y-29859309D01*
X19778190Y-29873077D01*
X19768813Y-29895716D01*
X19764033Y-29919749D01*
X19764033Y-29944253D01*
X19768814Y-29968286D01*
X19778190Y-29990923D01*
X19785549Y-30004691D01*
X19787677Y-30011705D01*
X19789000Y-30025140D01*
X19789000Y-30338860D01*
X19787677Y-30352295D01*
X19785549Y-30359309D01*
X19778190Y-30373077D01*
X19768813Y-30395716D01*
X19764033Y-30419749D01*
X19764033Y-30444253D01*
X19768814Y-30468286D01*
X19778190Y-30490923D01*
X19785549Y-30504691D01*
X19787677Y-30511705D01*
X19789000Y-30525140D01*
X19789000Y-30838860D01*
X19787677Y-30852295D01*
X19785549Y-30859309D01*
X19778190Y-30873077D01*
X19768813Y-30895716D01*
X19764033Y-30919749D01*
X19764033Y-30944253D01*
X19768814Y-30968286D01*
X19778190Y-30990923D01*
X19785549Y-31004691D01*
X19787677Y-31011705D01*
X19789000Y-31025140D01*
X19789000Y-31338860D01*
X19787677Y-31352295D01*
X19785549Y-31359310D01*
X19782092Y-31365776D01*
X19777442Y-31371442D01*
X19771776Y-31376092D01*
X19765310Y-31379549D01*
X19758295Y-31381677D01*
X19744860Y-31383000D01*
X18181140Y-31383000D01*
X18167705Y-31381677D01*
X18160690Y-31379549D01*
X18154224Y-31376092D01*
X18148558Y-31371442D01*
X18143908Y-31365776D01*
X18140451Y-31359310D01*
X18138323Y-31352295D01*
X18137000Y-31338860D01*
X18137000Y-31025140D01*
X18138323Y-31011705D01*
X18140451Y-31004691D01*
X18147810Y-30990923D01*
X18157187Y-30968284D01*
X18161967Y-30944251D01*
X18161967Y-30919747D01*
X18157186Y-30895714D01*
X18147810Y-30873077D01*
X18140451Y-30859309D01*
X18138323Y-30852295D01*
X18137000Y-30838860D01*
X18137000Y-30525140D01*
X18138323Y-30511705D01*
X18140451Y-30504691D01*
X18147810Y-30490923D01*
X18157187Y-30468284D01*
X18161967Y-30444251D01*
X18161967Y-30419747D01*
X18157186Y-30395714D01*
X18147810Y-30373077D01*
X18140451Y-30359309D01*
X18138323Y-30352295D01*
X18137000Y-30338860D01*
X18137000Y-30025140D01*
X18138323Y-30011705D01*
X18140451Y-30004691D01*
X18147810Y-29990923D01*
X18157187Y-29968284D01*
X18161967Y-29944251D01*
X18161967Y-29919747D01*
X18157186Y-29895714D01*
X18147810Y-29873077D01*
X18140451Y-29859309D01*
X18138323Y-29852295D01*
X18137000Y-29838860D01*
X18137000Y-29525140D01*
X18138323Y-29511705D01*
X18140451Y-29504691D01*
X18147810Y-29490923D01*
X18157187Y-29468284D01*
X18161967Y-29444251D01*
X18161967Y-29419747D01*
X18157186Y-29395714D01*
X18147810Y-29373077D01*
X18140451Y-29359309D01*
X18138323Y-29352295D01*
X18137000Y-29338860D01*
X18137000Y-29025140D01*
X18138323Y-29011705D01*
X18140451Y-29004691D01*
X18147810Y-28990923D01*
X18157187Y-28968284D01*
X18161967Y-28944251D01*
X18161967Y-28919747D01*
X18157186Y-28895714D01*
X18147810Y-28873077D01*
X18140451Y-28859309D01*
X18138323Y-28852295D01*
X18137000Y-28838860D01*
X18137000Y-28525140D01*
X18138323Y-28511705D01*
X18140451Y-28504691D01*
X18147810Y-28490923D01*
X18157187Y-28468284D01*
X18161967Y-28444251D01*
X18161967Y-28419747D01*
X18157186Y-28395714D01*
X18147810Y-28373077D01*
X18140451Y-28359309D01*
X18138323Y-28352295D01*
X18137000Y-28338860D01*
X18137000Y-28025140D01*
X18138323Y-28011705D01*
X18140451Y-28004691D01*
X18147810Y-27990923D01*
X18157187Y-27968284D01*
X18161967Y-27944251D01*
X18161967Y-27919747D01*
X18157186Y-27895714D01*
X18147810Y-27873077D01*
X18140451Y-27859309D01*
X18138323Y-27852295D01*
X18137000Y-27838860D01*
X18137000Y-27525140D01*
X18138323Y-27511705D01*
X18140451Y-27504691D01*
X18147810Y-27490923D01*
X18157187Y-27468284D01*
X18161967Y-27444251D01*
X18161967Y-27419747D01*
X18157186Y-27395714D01*
X18147810Y-27373077D01*
X18140451Y-27359309D01*
X18138323Y-27352295D01*
X18137000Y-27338860D01*
X18137000Y-27025140D01*
X18138323Y-27011705D01*
X18140451Y-27004691D01*
X18147810Y-26990923D01*
X18157187Y-26968284D01*
X18161967Y-26944251D01*
X18161967Y-26919747D01*
X18157186Y-26895714D01*
X18147810Y-26873077D01*
X18140451Y-26859309D01*
X18138323Y-26852295D01*
X18137000Y-26838860D01*
X18137000Y-26525140D01*
X18138323Y-26511705D01*
X18140451Y-26504691D01*
X18147810Y-26490923D01*
X18157187Y-26468284D01*
X18161967Y-26444251D01*
X18161967Y-26419747D01*
X18157186Y-26395714D01*
X18147810Y-26373077D01*
X18140451Y-26359309D01*
X18138323Y-26352295D01*
X18137000Y-26338860D01*
X18137000Y-26025140D01*
X18138323Y-26011705D01*
X18140451Y-26004691D01*
X18147810Y-25990923D01*
X18157187Y-25968284D01*
X18161967Y-25944251D01*
X18161967Y-25919747D01*
X18157186Y-25895714D01*
X18147810Y-25873077D01*
X18140451Y-25859309D01*
X18138323Y-25852295D01*
X18137000Y-25838860D01*
X18137000Y-25525140D01*
X18138323Y-25511705D01*
X18140451Y-25504691D01*
X18147810Y-25490923D01*
X18157187Y-25468284D01*
X18161967Y-25444251D01*
X18161967Y-25419747D01*
X18157186Y-25395714D01*
X18147810Y-25373077D01*
X18140451Y-25359309D01*
X18138323Y-25352295D01*
X18137000Y-25338860D01*
X18137000Y-25025140D01*
X18138323Y-25011705D01*
X18140451Y-25004691D01*
X18147810Y-24990923D01*
X18157187Y-24968284D01*
X18161967Y-24944251D01*
X18161967Y-24919747D01*
X18157186Y-24895714D01*
X18147810Y-24873077D01*
X18140451Y-24859309D01*
X18138323Y-24852295D01*
X18137000Y-24838860D01*
X18137000Y-24525140D01*
X18138323Y-24511705D01*
X18140451Y-24504691D01*
X18147810Y-24490923D01*
X18157187Y-24468284D01*
X18161967Y-24444251D01*
X18161967Y-24419747D01*
X18157186Y-24395714D01*
X18147810Y-24373077D01*
X18140451Y-24359309D01*
X18138323Y-24352295D01*
X18137000Y-24338860D01*
X18137000Y-24025140D01*
X18138323Y-24011705D01*
X18140451Y-24004691D01*
X18147810Y-23990923D01*
X18157187Y-23968284D01*
X18161967Y-23944251D01*
X18161967Y-23919747D01*
X18157186Y-23895714D01*
X18147810Y-23873077D01*
X18140451Y-23859309D01*
X18138323Y-23852295D01*
X18137000Y-23838860D01*
X18137000Y-23525140D01*
X18138323Y-23511705D01*
X18140451Y-23504690D01*
X18143908Y-23498224D01*
X18148558Y-23492558D01*
X18154224Y-23487908D01*
X18160690Y-23484451D01*
X18167705Y-23482323D01*
X18181140Y-23481000D01*
X19744860Y-23481000D01*
X19758295Y-23482323D01*
G37*
G36*
X31108295Y-23482323D02*
G01*
X31115310Y-23484451D01*
X31121776Y-23487908D01*
X31127442Y-23492558D01*
X31132092Y-23498224D01*
X31135549Y-23504690D01*
X31137677Y-23511705D01*
X31139000Y-23525140D01*
X31139000Y-23838860D01*
X31137677Y-23852295D01*
X31135549Y-23859309D01*
X31128190Y-23873077D01*
X31118813Y-23895716D01*
X31114033Y-23919749D01*
X31114033Y-23944253D01*
X31118814Y-23968286D01*
X31128190Y-23990923D01*
X31135549Y-24004691D01*
X31137677Y-24011705D01*
X31139000Y-24025140D01*
X31139000Y-24338860D01*
X31137677Y-24352295D01*
X31135549Y-24359309D01*
X31128190Y-24373077D01*
X31118813Y-24395716D01*
X31114033Y-24419749D01*
X31114033Y-24444253D01*
X31118814Y-24468286D01*
X31128190Y-24490923D01*
X31135549Y-24504691D01*
X31137677Y-24511705D01*
X31139000Y-24525140D01*
X31139000Y-24838860D01*
X31137677Y-24852295D01*
X31135549Y-24859309D01*
X31128190Y-24873077D01*
X31118813Y-24895716D01*
X31114033Y-24919749D01*
X31114033Y-24944253D01*
X31118814Y-24968286D01*
X31128190Y-24990923D01*
X31135549Y-25004691D01*
X31137677Y-25011705D01*
X31139000Y-25025140D01*
X31139000Y-25338860D01*
X31137677Y-25352295D01*
X31135549Y-25359309D01*
X31128190Y-25373077D01*
X31118813Y-25395716D01*
X31114033Y-25419749D01*
X31114033Y-25444253D01*
X31118814Y-25468286D01*
X31128190Y-25490923D01*
X31135549Y-25504691D01*
X31137677Y-25511705D01*
X31139000Y-25525140D01*
X31139000Y-25838860D01*
X31137677Y-25852295D01*
X31135549Y-25859309D01*
X31128190Y-25873077D01*
X31118813Y-25895716D01*
X31114033Y-25919749D01*
X31114033Y-25944253D01*
X31118814Y-25968286D01*
X31128190Y-25990923D01*
X31135549Y-26004691D01*
X31137677Y-26011705D01*
X31139000Y-26025140D01*
X31139000Y-26338860D01*
X31137677Y-26352295D01*
X31135549Y-26359309D01*
X31128190Y-26373077D01*
X31118813Y-26395716D01*
X31114033Y-26419749D01*
X31114033Y-26444253D01*
X31118814Y-26468286D01*
X31128190Y-26490923D01*
X31135549Y-26504691D01*
X31137677Y-26511705D01*
X31139000Y-26525140D01*
X31139000Y-26838860D01*
X31137677Y-26852295D01*
X31135549Y-26859309D01*
X31128190Y-26873077D01*
X31118813Y-26895716D01*
X31114033Y-26919749D01*
X31114033Y-26944253D01*
X31118814Y-26968286D01*
X31128190Y-26990923D01*
X31135549Y-27004691D01*
X31137677Y-27011705D01*
X31139000Y-27025140D01*
X31139000Y-27338860D01*
X31137677Y-27352295D01*
X31135549Y-27359309D01*
X31128190Y-27373077D01*
X31118813Y-27395716D01*
X31114033Y-27419749D01*
X31114033Y-27444253D01*
X31118814Y-27468286D01*
X31128190Y-27490923D01*
X31135549Y-27504691D01*
X31137677Y-27511705D01*
X31139000Y-27525140D01*
X31139000Y-27838860D01*
X31137677Y-27852295D01*
X31135549Y-27859309D01*
X31128190Y-27873077D01*
X31118813Y-27895716D01*
X31114033Y-27919749D01*
X31114033Y-27944253D01*
X31118814Y-27968286D01*
X31128190Y-27990923D01*
X31135549Y-28004691D01*
X31137677Y-28011705D01*
X31139000Y-28025140D01*
X31139000Y-28338860D01*
X31137677Y-28352295D01*
X31135549Y-28359309D01*
X31128190Y-28373077D01*
X31118813Y-28395716D01*
X31114033Y-28419749D01*
X31114033Y-28444253D01*
X31118814Y-28468286D01*
X31128190Y-28490923D01*
X31135549Y-28504691D01*
X31137677Y-28511705D01*
X31139000Y-28525140D01*
X31139000Y-28838860D01*
X31137677Y-28852295D01*
X31135549Y-28859309D01*
X31128190Y-28873077D01*
X31118813Y-28895716D01*
X31114033Y-28919749D01*
X31114033Y-28944253D01*
X31118814Y-28968286D01*
X31128190Y-28990923D01*
X31135549Y-29004691D01*
X31137677Y-29011705D01*
X31139000Y-29025140D01*
X31139000Y-29338860D01*
X31137677Y-29352295D01*
X31135549Y-29359309D01*
X31128190Y-29373077D01*
X31118813Y-29395716D01*
X31114033Y-29419749D01*
X31114033Y-29444253D01*
X31118814Y-29468286D01*
X31128190Y-29490923D01*
X31135549Y-29504691D01*
X31137677Y-29511705D01*
X31139000Y-29525140D01*
X31139000Y-29838860D01*
X31137677Y-29852295D01*
X31135549Y-29859309D01*
X31128190Y-29873077D01*
X31118813Y-29895716D01*
X31114033Y-29919749D01*
X31114033Y-29944253D01*
X31118814Y-29968286D01*
X31128190Y-29990923D01*
X31135549Y-30004691D01*
X31137677Y-30011705D01*
X31139000Y-30025140D01*
X31139000Y-30338860D01*
X31137677Y-30352295D01*
X31135549Y-30359309D01*
X31128190Y-30373077D01*
X31118813Y-30395716D01*
X31114033Y-30419749D01*
X31114033Y-30444253D01*
X31118814Y-30468286D01*
X31128190Y-30490923D01*
X31135549Y-30504691D01*
X31137677Y-30511705D01*
X31139000Y-30525140D01*
X31139000Y-30838860D01*
X31137677Y-30852295D01*
X31135549Y-30859309D01*
X31128190Y-30873077D01*
X31118813Y-30895716D01*
X31114033Y-30919749D01*
X31114033Y-30944253D01*
X31118814Y-30968286D01*
X31128190Y-30990923D01*
X31135549Y-31004691D01*
X31137677Y-31011705D01*
X31139000Y-31025140D01*
X31139000Y-31338860D01*
X31137677Y-31352295D01*
X31135549Y-31359310D01*
X31132092Y-31365776D01*
X31127442Y-31371442D01*
X31121776Y-31376092D01*
X31115310Y-31379549D01*
X31108295Y-31381677D01*
X31094860Y-31383000D01*
X29531140Y-31383000D01*
X29517705Y-31381677D01*
X29510690Y-31379549D01*
X29504224Y-31376092D01*
X29498558Y-31371442D01*
X29493908Y-31365776D01*
X29490451Y-31359310D01*
X29488323Y-31352295D01*
X29487000Y-31338860D01*
X29487000Y-31025140D01*
X29488323Y-31011705D01*
X29490451Y-31004691D01*
X29497810Y-30990923D01*
X29507187Y-30968284D01*
X29511967Y-30944251D01*
X29511967Y-30919747D01*
X29507186Y-30895714D01*
X29497810Y-30873077D01*
X29490451Y-30859309D01*
X29488323Y-30852295D01*
X29487000Y-30838860D01*
X29487000Y-30525140D01*
X29488323Y-30511705D01*
X29490451Y-30504691D01*
X29497810Y-30490923D01*
X29507187Y-30468284D01*
X29511967Y-30444251D01*
X29511967Y-30419747D01*
X29507186Y-30395714D01*
X29497810Y-30373077D01*
X29490451Y-30359309D01*
X29488323Y-30352295D01*
X29487000Y-30338860D01*
X29487000Y-30025140D01*
X29488323Y-30011705D01*
X29490451Y-30004691D01*
X29497810Y-29990923D01*
X29507187Y-29968284D01*
X29511967Y-29944251D01*
X29511967Y-29919747D01*
X29507186Y-29895714D01*
X29497810Y-29873077D01*
X29490451Y-29859309D01*
X29488323Y-29852295D01*
X29487000Y-29838860D01*
X29487000Y-29525140D01*
X29488323Y-29511705D01*
X29490451Y-29504691D01*
X29497810Y-29490923D01*
X29507187Y-29468284D01*
X29511967Y-29444251D01*
X29511967Y-29419747D01*
X29507186Y-29395714D01*
X29497810Y-29373077D01*
X29490451Y-29359309D01*
X29488323Y-29352295D01*
X29487000Y-29338860D01*
X29487000Y-29025140D01*
X29488323Y-29011705D01*
X29490451Y-29004691D01*
X29497810Y-28990923D01*
X29507187Y-28968284D01*
X29511967Y-28944251D01*
X29511967Y-28919747D01*
X29507186Y-28895714D01*
X29497810Y-28873077D01*
X29490451Y-28859309D01*
X29488323Y-28852295D01*
X29487000Y-28838860D01*
X29487000Y-28525140D01*
X29488323Y-28511705D01*
X29490451Y-28504691D01*
X29497810Y-28490923D01*
X29507187Y-28468284D01*
X29511967Y-28444251D01*
X29511967Y-28419747D01*
X29507186Y-28395714D01*
X29497810Y-28373077D01*
X29490451Y-28359309D01*
X29488323Y-28352295D01*
X29487000Y-28338860D01*
X29487000Y-28025140D01*
X29488323Y-28011705D01*
X29490451Y-28004691D01*
X29497810Y-27990923D01*
X29507187Y-27968284D01*
X29511967Y-27944251D01*
X29511967Y-27919747D01*
X29507186Y-27895714D01*
X29497810Y-27873077D01*
X29490451Y-27859309D01*
X29488323Y-27852295D01*
X29487000Y-27838860D01*
X29487000Y-27525140D01*
X29488323Y-27511705D01*
X29490451Y-27504691D01*
X29497810Y-27490923D01*
X29507187Y-27468284D01*
X29511967Y-27444251D01*
X29511967Y-27419747D01*
X29507186Y-27395714D01*
X29497810Y-27373077D01*
X29490451Y-27359309D01*
X29488323Y-27352295D01*
X29487000Y-27338860D01*
X29487000Y-27025140D01*
X29488323Y-27011705D01*
X29490451Y-27004691D01*
X29497810Y-26990923D01*
X29507187Y-26968284D01*
X29511967Y-26944251D01*
X29511967Y-26919747D01*
X29507186Y-26895714D01*
X29497810Y-26873077D01*
X29490451Y-26859309D01*
X29488323Y-26852295D01*
X29487000Y-26838860D01*
X29487000Y-26525140D01*
X29488323Y-26511705D01*
X29490451Y-26504691D01*
X29497810Y-26490923D01*
X29507187Y-26468284D01*
X29511967Y-26444251D01*
X29511967Y-26419747D01*
X29507186Y-26395714D01*
X29497810Y-26373077D01*
X29490451Y-26359309D01*
X29488323Y-26352295D01*
X29487000Y-26338860D01*
X29487000Y-26025140D01*
X29488323Y-26011705D01*
X29490451Y-26004691D01*
X29497810Y-25990923D01*
X29507187Y-25968284D01*
X29511967Y-25944251D01*
X29511967Y-25919747D01*
X29507186Y-25895714D01*
X29497810Y-25873077D01*
X29490451Y-25859309D01*
X29488323Y-25852295D01*
X29487000Y-25838860D01*
X29487000Y-25525140D01*
X29488323Y-25511705D01*
X29490451Y-25504691D01*
X29497810Y-25490923D01*
X29507187Y-25468284D01*
X29511967Y-25444251D01*
X29511967Y-25419747D01*
X29507186Y-25395714D01*
X29497810Y-25373077D01*
X29490451Y-25359309D01*
X29488323Y-25352295D01*
X29487000Y-25338860D01*
X29487000Y-25025140D01*
X29488323Y-25011705D01*
X29490451Y-25004691D01*
X29497810Y-24990923D01*
X29507187Y-24968284D01*
X29511967Y-24944251D01*
X29511967Y-24919747D01*
X29507186Y-24895714D01*
X29497810Y-24873077D01*
X29490451Y-24859309D01*
X29488323Y-24852295D01*
X29487000Y-24838860D01*
X29487000Y-24525140D01*
X29488323Y-24511705D01*
X29490451Y-24504691D01*
X29497810Y-24490923D01*
X29507187Y-24468284D01*
X29511967Y-24444251D01*
X29511967Y-24419747D01*
X29507186Y-24395714D01*
X29497810Y-24373077D01*
X29490451Y-24359309D01*
X29488323Y-24352295D01*
X29487000Y-24338860D01*
X29487000Y-24025140D01*
X29488323Y-24011705D01*
X29490451Y-24004691D01*
X29497810Y-23990923D01*
X29507187Y-23968284D01*
X29511967Y-23944251D01*
X29511967Y-23919747D01*
X29507186Y-23895714D01*
X29497810Y-23873077D01*
X29490451Y-23859309D01*
X29488323Y-23852295D01*
X29487000Y-23838860D01*
X29487000Y-23525140D01*
X29488323Y-23511705D01*
X29490451Y-23504690D01*
X29493908Y-23498224D01*
X29498558Y-23492558D01*
X29504224Y-23487908D01*
X29510690Y-23484451D01*
X29517705Y-23482323D01*
X29531140Y-23481000D01*
X31094860Y-23481000D01*
X31108295Y-23482323D01*
G37*
G36*
X15873591Y-29772585D02*
G01*
X15907569Y-29782893D01*
X15938890Y-29799634D01*
X15966339Y-29822161D01*
X15988866Y-29849610D01*
X16005607Y-29880931D01*
X16015915Y-29914909D01*
X16020000Y-29956390D01*
X16020000Y-30557610D01*
X16015915Y-30599091D01*
X16005607Y-30633069D01*
X15988866Y-30664390D01*
X15966339Y-30691839D01*
X15938890Y-30714366D01*
X15907569Y-30731107D01*
X15873591Y-30741415D01*
X15832110Y-30745500D01*
X15155890Y-30745500D01*
X15114409Y-30741415D01*
X15080431Y-30731107D01*
X15049110Y-30714366D01*
X15021661Y-30691839D01*
X14999134Y-30664390D01*
X14982393Y-30633069D01*
X14972085Y-30599091D01*
X14968000Y-30557610D01*
X14968000Y-29956390D01*
X14972085Y-29914909D01*
X14982393Y-29880931D01*
X14999134Y-29849610D01*
X15021661Y-29822161D01*
X15049110Y-29799634D01*
X15080431Y-29782893D01*
X15114409Y-29772585D01*
X15155890Y-29768500D01*
X15832110Y-29768500D01*
X15873591Y-29772585D01*
G37*
G36*
X17397591Y-29772585D02*
G01*
X17431569Y-29782893D01*
X17462890Y-29799634D01*
X17490339Y-29822161D01*
X17512866Y-29849610D01*
X17529607Y-29880931D01*
X17539915Y-29914909D01*
X17544000Y-29956390D01*
X17544000Y-30557610D01*
X17539915Y-30599091D01*
X17529607Y-30633069D01*
X17512866Y-30664390D01*
X17490339Y-30691839D01*
X17462890Y-30714366D01*
X17431569Y-30731107D01*
X17397591Y-30741415D01*
X17356110Y-30745500D01*
X16679890Y-30745500D01*
X16638409Y-30741415D01*
X16604431Y-30731107D01*
X16573110Y-30714366D01*
X16545661Y-30691839D01*
X16523134Y-30664390D01*
X16506393Y-30633069D01*
X16496085Y-30599091D01*
X16492000Y-30557610D01*
X16492000Y-29956390D01*
X16496085Y-29914909D01*
X16506393Y-29880931D01*
X16523134Y-29849610D01*
X16545661Y-29822161D01*
X16573110Y-29799634D01*
X16604431Y-29782893D01*
X16638409Y-29772585D01*
X16679890Y-29768500D01*
X17356110Y-29768500D01*
X17397591Y-29772585D01*
G37*
G36*
X43827000Y-29521000D02*
G01*
X40725000Y-29521000D01*
X40725000Y-28219000D01*
X43827000Y-28219000D01*
X43827000Y-29521000D01*
G37*
G36*
X57827000Y-29521000D02*
G01*
X54725000Y-29521000D01*
X54725000Y-28219000D01*
X57827000Y-28219000D01*
X57827000Y-29521000D01*
G37*
G36*
X36787091Y-28434085D02*
G01*
X36821069Y-28444393D01*
X36852390Y-28461134D01*
X36879839Y-28483661D01*
X36902366Y-28511110D01*
X36919107Y-28542431D01*
X36929415Y-28576409D01*
X36933500Y-28617890D01*
X36933500Y-29294110D01*
X36929415Y-29335591D01*
X36919107Y-29369569D01*
X36902366Y-29400890D01*
X36879839Y-29428339D01*
X36852390Y-29450866D01*
X36821069Y-29467607D01*
X36787091Y-29477915D01*
X36745610Y-29482000D01*
X36144390Y-29482000D01*
X36102909Y-29477915D01*
X36068931Y-29467607D01*
X36037610Y-29450866D01*
X36010161Y-29428339D01*
X35987634Y-29400890D01*
X35970893Y-29369569D01*
X35960585Y-29335591D01*
X35956500Y-29294110D01*
X35956500Y-28617890D01*
X35960585Y-28576409D01*
X35970893Y-28542431D01*
X35987634Y-28511110D01*
X36010161Y-28483661D01*
X36037610Y-28461134D01*
X36068931Y-28444393D01*
X36102909Y-28434085D01*
X36144390Y-28430000D01*
X36745610Y-28430000D01*
X36787091Y-28434085D01*
G37*
G36*
X38362091Y-28434085D02*
G01*
X38396069Y-28444393D01*
X38427390Y-28461134D01*
X38454839Y-28483661D01*
X38477366Y-28511110D01*
X38494107Y-28542431D01*
X38504415Y-28576409D01*
X38508500Y-28617890D01*
X38508500Y-29294110D01*
X38504415Y-29335591D01*
X38494107Y-29369569D01*
X38477366Y-29400890D01*
X38454839Y-29428339D01*
X38427390Y-29450866D01*
X38396069Y-29467607D01*
X38362091Y-29477915D01*
X38320610Y-29482000D01*
X37719390Y-29482000D01*
X37677909Y-29477915D01*
X37643931Y-29467607D01*
X37612610Y-29450866D01*
X37585161Y-29428339D01*
X37562634Y-29400890D01*
X37545893Y-29369569D01*
X37535585Y-29335591D01*
X37531500Y-29294110D01*
X37531500Y-28617890D01*
X37535585Y-28576409D01*
X37545893Y-28542431D01*
X37562634Y-28511110D01*
X37585161Y-28483661D01*
X37612610Y-28461134D01*
X37643931Y-28444393D01*
X37677909Y-28434085D01*
X37719390Y-28430000D01*
X38320610Y-28430000D01*
X38362091Y-28434085D01*
G37*
G36*
X17397591Y-28197585D02*
G01*
X17431569Y-28207893D01*
X17462890Y-28224634D01*
X17490339Y-28247161D01*
X17512866Y-28274610D01*
X17529607Y-28305931D01*
X17539915Y-28339909D01*
X17544000Y-28381390D01*
X17544000Y-28982610D01*
X17539915Y-29024091D01*
X17529607Y-29058069D01*
X17512866Y-29089390D01*
X17490339Y-29116839D01*
X17462890Y-29139366D01*
X17431569Y-29156107D01*
X17397591Y-29166415D01*
X17356110Y-29170500D01*
X16679890Y-29170500D01*
X16638409Y-29166415D01*
X16604431Y-29156107D01*
X16573110Y-29139366D01*
X16545661Y-29116839D01*
X16523134Y-29089390D01*
X16506393Y-29058069D01*
X16496085Y-29024091D01*
X16492000Y-28982610D01*
X16492000Y-28381390D01*
X16496085Y-28339909D01*
X16506393Y-28305931D01*
X16523134Y-28274610D01*
X16545661Y-28247161D01*
X16573110Y-28224634D01*
X16604431Y-28207893D01*
X16638409Y-28197585D01*
X16679890Y-28193500D01*
X17356110Y-28193500D01*
X17397591Y-28197585D01*
G37*
G36*
X15873591Y-28197585D02*
G01*
X15907569Y-28207893D01*
X15938890Y-28224634D01*
X15966339Y-28247161D01*
X15988866Y-28274610D01*
X16005607Y-28305931D01*
X16015915Y-28339909D01*
X16020000Y-28381390D01*
X16020000Y-28982610D01*
X16015915Y-29024091D01*
X16005607Y-29058069D01*
X15988866Y-29089390D01*
X15966339Y-29116839D01*
X15938890Y-29139366D01*
X15907569Y-29156107D01*
X15873591Y-29166415D01*
X15832110Y-29170500D01*
X15155890Y-29170500D01*
X15114409Y-29166415D01*
X15080431Y-29156107D01*
X15049110Y-29139366D01*
X15021661Y-29116839D01*
X14999134Y-29089390D01*
X14982393Y-29058069D01*
X14972085Y-29024091D01*
X14968000Y-28982610D01*
X14968000Y-28381390D01*
X14972085Y-28339909D01*
X14982393Y-28305931D01*
X14999134Y-28274610D01*
X15021661Y-28247161D01*
X15049110Y-28224634D01*
X15080431Y-28207893D01*
X15114409Y-28197585D01*
X15155890Y-28193500D01*
X15832110Y-28193500D01*
X15873591Y-28197585D01*
G37*
G36*
X50827000Y-27471000D02*
G01*
X49725000Y-27471000D01*
X49725000Y-26369000D01*
X50827000Y-26369000D01*
X50827000Y-27471000D01*
G37*
G36*
X52827000Y-27471000D02*
G01*
X51725000Y-27471000D01*
X51725000Y-26369000D01*
X52827000Y-26369000D01*
X52827000Y-27471000D01*
G37*
G36*
X48827000Y-27471000D02*
G01*
X47725000Y-27471000D01*
X47725000Y-26369000D01*
X48827000Y-26369000D01*
X48827000Y-27471000D01*
G37*
G36*
X46827000Y-27471000D02*
G01*
X45725000Y-27471000D01*
X45725000Y-26369000D01*
X46827000Y-26369000D01*
X46827000Y-27471000D01*
G37*
G36*
X44827000Y-27471000D02*
G01*
X43725000Y-27471000D01*
X43725000Y-26369000D01*
X44827000Y-26369000D01*
X44827000Y-27471000D01*
G37*
G36*
X54827000Y-27471000D02*
G01*
X53725000Y-27471000D01*
X53725000Y-26369000D01*
X54827000Y-26369000D01*
X54827000Y-27471000D01*
G37*
G36*
X35175355Y-26384083D02*
G01*
X35180029Y-26385501D01*
X35184330Y-26387800D01*
X35190702Y-26393029D01*
X35211076Y-26406643D01*
X35233715Y-26416020D01*
X35257749Y-26420800D01*
X35282253Y-26420800D01*
X35306286Y-26416019D01*
X35328925Y-26406642D01*
X35349298Y-26393029D01*
X35355670Y-26387800D01*
X35359971Y-26385501D01*
X35364645Y-26384083D01*
X35375641Y-26383000D01*
X35664359Y-26383000D01*
X35675355Y-26384083D01*
X35680029Y-26385501D01*
X35684330Y-26387800D01*
X35690702Y-26393029D01*
X35711076Y-26406643D01*
X35733715Y-26416020D01*
X35757749Y-26420800D01*
X35782253Y-26420800D01*
X35806286Y-26416019D01*
X35828925Y-26406642D01*
X35849298Y-26393029D01*
X35855670Y-26387800D01*
X35859971Y-26385501D01*
X35864645Y-26384083D01*
X35875641Y-26383000D01*
X36164359Y-26383000D01*
X36175355Y-26384083D01*
X36180029Y-26385501D01*
X36184330Y-26387800D01*
X36190702Y-26393029D01*
X36211076Y-26406643D01*
X36233715Y-26416020D01*
X36257749Y-26420800D01*
X36282253Y-26420800D01*
X36306286Y-26416019D01*
X36328925Y-26406642D01*
X36349298Y-26393029D01*
X36355670Y-26387800D01*
X36359971Y-26385501D01*
X36364645Y-26384083D01*
X36375641Y-26383000D01*
X36664359Y-26383000D01*
X36675355Y-26384083D01*
X36680029Y-26385501D01*
X36684330Y-26387800D01*
X36690702Y-26393029D01*
X36711076Y-26406643D01*
X36733715Y-26416020D01*
X36757749Y-26420800D01*
X36782253Y-26420800D01*
X36806286Y-26416019D01*
X36828925Y-26406642D01*
X36849298Y-26393029D01*
X36855670Y-26387800D01*
X36859971Y-26385501D01*
X36864645Y-26384083D01*
X36875641Y-26383000D01*
X37164359Y-26383000D01*
X37175355Y-26384083D01*
X37180029Y-26385501D01*
X37184330Y-26387800D01*
X37190702Y-26393029D01*
X37211076Y-26406643D01*
X37233715Y-26416020D01*
X37257749Y-26420800D01*
X37282253Y-26420800D01*
X37306286Y-26416019D01*
X37328925Y-26406642D01*
X37349298Y-26393029D01*
X37355670Y-26387800D01*
X37359971Y-26385501D01*
X37364645Y-26384083D01*
X37375641Y-26383000D01*
X37664359Y-26383000D01*
X37675355Y-26384083D01*
X37680029Y-26385501D01*
X37684330Y-26387800D01*
X37690702Y-26393029D01*
X37711076Y-26406643D01*
X37733715Y-26416020D01*
X37757749Y-26420800D01*
X37782253Y-26420800D01*
X37806286Y-26416019D01*
X37828925Y-26406642D01*
X37849298Y-26393029D01*
X37855670Y-26387800D01*
X37859971Y-26385501D01*
X37864645Y-26384083D01*
X37875641Y-26383000D01*
X38164359Y-26383000D01*
X38175355Y-26384083D01*
X38180029Y-26385501D01*
X38184331Y-26387800D01*
X38188104Y-26390896D01*
X38191200Y-26394669D01*
X38193499Y-26398971D01*
X38194917Y-26403645D01*
X38196000Y-26414641D01*
X38196000Y-27253359D01*
X38194917Y-27264355D01*
X38193499Y-27269029D01*
X38191200Y-27273331D01*
X38188104Y-27277104D01*
X38184331Y-27280200D01*
X38180029Y-27282499D01*
X38175355Y-27283917D01*
X38164359Y-27285000D01*
X37875641Y-27285000D01*
X37864645Y-27283917D01*
X37859971Y-27282499D01*
X37855670Y-27280200D01*
X37849298Y-27274971D01*
X37828924Y-27261357D01*
X37806285Y-27251980D01*
X37782251Y-27247200D01*
X37757747Y-27247200D01*
X37733714Y-27251981D01*
X37711075Y-27261358D01*
X37690702Y-27274971D01*
X37684330Y-27280200D01*
X37680029Y-27282499D01*
X37675355Y-27283917D01*
X37664359Y-27285000D01*
X37375641Y-27285000D01*
X37364645Y-27283917D01*
X37359971Y-27282499D01*
X37355670Y-27280200D01*
X37349298Y-27274971D01*
X37328924Y-27261357D01*
X37306285Y-27251980D01*
X37282251Y-27247200D01*
X37257747Y-27247200D01*
X37233714Y-27251981D01*
X37211075Y-27261358D01*
X37190702Y-27274971D01*
X37184330Y-27280200D01*
X37180029Y-27282499D01*
X37175355Y-27283917D01*
X37164359Y-27285000D01*
X36875641Y-27285000D01*
X36864645Y-27283917D01*
X36859971Y-27282499D01*
X36855670Y-27280200D01*
X36849298Y-27274971D01*
X36828924Y-27261357D01*
X36806285Y-27251980D01*
X36782251Y-27247200D01*
X36757747Y-27247200D01*
X36733714Y-27251981D01*
X36711075Y-27261358D01*
X36690702Y-27274971D01*
X36684330Y-27280200D01*
X36680029Y-27282499D01*
X36675355Y-27283917D01*
X36664359Y-27285000D01*
X36375641Y-27285000D01*
X36364645Y-27283917D01*
X36359971Y-27282499D01*
X36355670Y-27280200D01*
X36349298Y-27274971D01*
X36328924Y-27261357D01*
X36306285Y-27251980D01*
X36282251Y-27247200D01*
X36257747Y-27247200D01*
X36233714Y-27251981D01*
X36211075Y-27261358D01*
X36190702Y-27274971D01*
X36184330Y-27280200D01*
X36180029Y-27282499D01*
X36175355Y-27283917D01*
X36164359Y-27285000D01*
X35875641Y-27285000D01*
X35864645Y-27283917D01*
X35859971Y-27282499D01*
X35855670Y-27280200D01*
X35849298Y-27274971D01*
X35828924Y-27261357D01*
X35806285Y-27251980D01*
X35782251Y-27247200D01*
X35757747Y-27247200D01*
X35733714Y-27251981D01*
X35711075Y-27261358D01*
X35690702Y-27274971D01*
X35684330Y-27280200D01*
X35680029Y-27282499D01*
X35675355Y-27283917D01*
X35664359Y-27285000D01*
X35375641Y-27285000D01*
X35364645Y-27283917D01*
X35359971Y-27282499D01*
X35355670Y-27280200D01*
X35349298Y-27274971D01*
X35328924Y-27261357D01*
X35306285Y-27251980D01*
X35282251Y-27247200D01*
X35257747Y-27247200D01*
X35233714Y-27251981D01*
X35211075Y-27261358D01*
X35190702Y-27274971D01*
X35184330Y-27280200D01*
X35180029Y-27282499D01*
X35175355Y-27283917D01*
X35164359Y-27285000D01*
X34875641Y-27285000D01*
X34864645Y-27283917D01*
X34859971Y-27282499D01*
X34855669Y-27280200D01*
X34851896Y-27277104D01*
X34848800Y-27273331D01*
X34846501Y-27269029D01*
X34845083Y-27264355D01*
X34844000Y-27253359D01*
X34844000Y-26414641D01*
X34845083Y-26403645D01*
X34846501Y-26398971D01*
X34848800Y-26394669D01*
X34851896Y-26390896D01*
X34855669Y-26387800D01*
X34859971Y-26385501D01*
X34864645Y-26384083D01*
X34875641Y-26383000D01*
X35164359Y-26383000D01*
X35175355Y-26384083D01*
G37*
G36*
X32510591Y-25272585D02*
G01*
X32544569Y-25282893D01*
X32575890Y-25299634D01*
X32603339Y-25322161D01*
X32625866Y-25349610D01*
X32642607Y-25380931D01*
X32652915Y-25414909D01*
X32657000Y-25456390D01*
X32657000Y-26057610D01*
X32652915Y-26099091D01*
X32642607Y-26133069D01*
X32625866Y-26164390D01*
X32603339Y-26191839D01*
X32575890Y-26214366D01*
X32544569Y-26231107D01*
X32510591Y-26241415D01*
X32469110Y-26245500D01*
X31792890Y-26245500D01*
X31751409Y-26241415D01*
X31717431Y-26231107D01*
X31686110Y-26214366D01*
X31658661Y-26191839D01*
X31636134Y-26164390D01*
X31619393Y-26133069D01*
X31609085Y-26099091D01*
X31605000Y-26057610D01*
X31605000Y-25456390D01*
X31609085Y-25414909D01*
X31619393Y-25380931D01*
X31636134Y-25349610D01*
X31658661Y-25322161D01*
X31686110Y-25299634D01*
X31717431Y-25282893D01*
X31751409Y-25272585D01*
X31792890Y-25268500D01*
X32469110Y-25268500D01*
X32510591Y-25272585D01*
G37*
G36*
X38124124Y-22661499D02*
G01*
X38152387Y-22670073D01*
X38178434Y-22683996D01*
X38201267Y-22702733D01*
X38220004Y-22725566D01*
X38233927Y-22751613D01*
X38242501Y-22779876D01*
X38246000Y-22815408D01*
X38246000Y-25952592D01*
X38242501Y-25988124D01*
X38233927Y-26016387D01*
X38220004Y-26042434D01*
X38201267Y-26065267D01*
X38178434Y-26084004D01*
X38152387Y-26097927D01*
X38124124Y-26106501D01*
X38088592Y-26110000D01*
X34951408Y-26110000D01*
X34915876Y-26106501D01*
X34887613Y-26097927D01*
X34861566Y-26084004D01*
X34838733Y-26065267D01*
X34819996Y-26042434D01*
X34806073Y-26016387D01*
X34797499Y-25988124D01*
X34794000Y-25952592D01*
X34794000Y-22815408D01*
X34797499Y-22779876D01*
X34806073Y-22751613D01*
X34819996Y-22725566D01*
X34838733Y-22702733D01*
X34861566Y-22683996D01*
X34887613Y-22670073D01*
X34915876Y-22661499D01*
X34951408Y-22658000D01*
X38088592Y-22658000D01*
X38124124Y-22661499D01*
G37*
G36*
X39400355Y-22709083D02*
G01*
X39405029Y-22710501D01*
X39409331Y-22712800D01*
X39413104Y-22715896D01*
X39416200Y-22719669D01*
X39418499Y-22723971D01*
X39419917Y-22728645D01*
X39421000Y-22739641D01*
X39421000Y-23028359D01*
X39419917Y-23039355D01*
X39418499Y-23044029D01*
X39416200Y-23048330D01*
X39410971Y-23054702D01*
X39397357Y-23075076D01*
X39387980Y-23097715D01*
X39383200Y-23121749D01*
X39383200Y-23146253D01*
X39387981Y-23170286D01*
X39397358Y-23192925D01*
X39410971Y-23213298D01*
X39416200Y-23219670D01*
X39418499Y-23223971D01*
X39419917Y-23228645D01*
X39421000Y-23239641D01*
X39421000Y-23528359D01*
X39419917Y-23539355D01*
X39418499Y-23544029D01*
X39416200Y-23548330D01*
X39410971Y-23554702D01*
X39397357Y-23575076D01*
X39387980Y-23597715D01*
X39383200Y-23621749D01*
X39383200Y-23646253D01*
X39387981Y-23670286D01*
X39397358Y-23692925D01*
X39410971Y-23713298D01*
X39416200Y-23719670D01*
X39418499Y-23723971D01*
X39419917Y-23728645D01*
X39421000Y-23739641D01*
X39421000Y-24028359D01*
X39419917Y-24039355D01*
X39418499Y-24044029D01*
X39416200Y-24048330D01*
X39410971Y-24054702D01*
X39397357Y-24075076D01*
X39387980Y-24097715D01*
X39383200Y-24121749D01*
X39383200Y-24146253D01*
X39387981Y-24170286D01*
X39397358Y-24192925D01*
X39410971Y-24213298D01*
X39416200Y-24219670D01*
X39418499Y-24223971D01*
X39419917Y-24228645D01*
X39421000Y-24239641D01*
X39421000Y-24528359D01*
X39419917Y-24539355D01*
X39418499Y-24544029D01*
X39416200Y-24548330D01*
X39410971Y-24554702D01*
X39397357Y-24575076D01*
X39387980Y-24597715D01*
X39383200Y-24621749D01*
X39383200Y-24646253D01*
X39387981Y-24670286D01*
X39397358Y-24692925D01*
X39410971Y-24713298D01*
X39416200Y-24719670D01*
X39418499Y-24723971D01*
X39419917Y-24728645D01*
X39421000Y-24739641D01*
X39421000Y-25028359D01*
X39419917Y-25039355D01*
X39418499Y-25044029D01*
X39416200Y-25048330D01*
X39410971Y-25054702D01*
X39397357Y-25075076D01*
X39387980Y-25097715D01*
X39383200Y-25121749D01*
X39383200Y-25146253D01*
X39387981Y-25170286D01*
X39397358Y-25192925D01*
X39410971Y-25213298D01*
X39416200Y-25219670D01*
X39418499Y-25223971D01*
X39419917Y-25228645D01*
X39421000Y-25239641D01*
X39421000Y-25528359D01*
X39419917Y-25539355D01*
X39418499Y-25544029D01*
X39416200Y-25548330D01*
X39410971Y-25554702D01*
X39397357Y-25575076D01*
X39387980Y-25597715D01*
X39383200Y-25621749D01*
X39383200Y-25646253D01*
X39387981Y-25670286D01*
X39397358Y-25692925D01*
X39410971Y-25713298D01*
X39416200Y-25719670D01*
X39418499Y-25723971D01*
X39419917Y-25728645D01*
X39421000Y-25739641D01*
X39421000Y-26028359D01*
X39419917Y-26039355D01*
X39418499Y-26044029D01*
X39416200Y-26048331D01*
X39413104Y-26052104D01*
X39409331Y-26055200D01*
X39405029Y-26057499D01*
X39400355Y-26058917D01*
X39389359Y-26060000D01*
X38550641Y-26060000D01*
X38539645Y-26058917D01*
X38534971Y-26057499D01*
X38530669Y-26055200D01*
X38526896Y-26052104D01*
X38523800Y-26048331D01*
X38521501Y-26044029D01*
X38520083Y-26039355D01*
X38519000Y-26028359D01*
X38519000Y-25739641D01*
X38520083Y-25728645D01*
X38521501Y-25723971D01*
X38523800Y-25719670D01*
X38529029Y-25713298D01*
X38542643Y-25692924D01*
X38552020Y-25670285D01*
X38556800Y-25646251D01*
X38556800Y-25621747D01*
X38552019Y-25597714D01*
X38542642Y-25575075D01*
X38529029Y-25554702D01*
X38523800Y-25548330D01*
X38521501Y-25544029D01*
X38520083Y-25539355D01*
X38519000Y-25528359D01*
X38519000Y-25239641D01*
X38520083Y-25228645D01*
X38521501Y-25223971D01*
X38523800Y-25219670D01*
X38529029Y-25213298D01*
X38542643Y-25192924D01*
X38552020Y-25170285D01*
X38556800Y-25146251D01*
X38556800Y-25121747D01*
X38552019Y-25097714D01*
X38542642Y-25075075D01*
X38529029Y-25054702D01*
X38523800Y-25048330D01*
X38521501Y-25044029D01*
X38520083Y-25039355D01*
X38519000Y-25028359D01*
X38519000Y-24739641D01*
X38520083Y-24728645D01*
X38521501Y-24723971D01*
X38523800Y-24719670D01*
X38529029Y-24713298D01*
X38542643Y-24692924D01*
X38552020Y-24670285D01*
X38556800Y-24646251D01*
X38556800Y-24621747D01*
X38552019Y-24597714D01*
X38542642Y-24575075D01*
X38529029Y-24554702D01*
X38523800Y-24548330D01*
X38521501Y-24544029D01*
X38520083Y-24539355D01*
X38519000Y-24528359D01*
X38519000Y-24239641D01*
X38520083Y-24228645D01*
X38521501Y-24223971D01*
X38523800Y-24219670D01*
X38529029Y-24213298D01*
X38542643Y-24192924D01*
X38552020Y-24170285D01*
X38556800Y-24146251D01*
X38556800Y-24121747D01*
X38552019Y-24097714D01*
X38542642Y-24075075D01*
X38529029Y-24054702D01*
X38523800Y-24048330D01*
X38521501Y-24044029D01*
X38520083Y-24039355D01*
X38519000Y-24028359D01*
X38519000Y-23739641D01*
X38520083Y-23728645D01*
X38521501Y-23723971D01*
X38523800Y-23719670D01*
X38529029Y-23713298D01*
X38542643Y-23692924D01*
X38552020Y-23670285D01*
X38556800Y-23646251D01*
X38556800Y-23621747D01*
X38552019Y-23597714D01*
X38542642Y-23575075D01*
X38529029Y-23554702D01*
X38523800Y-23548330D01*
X38521501Y-23544029D01*
X38520083Y-23539355D01*
X38519000Y-23528359D01*
X38519000Y-23239641D01*
X38520083Y-23228645D01*
X38521501Y-23223971D01*
X38523800Y-23219670D01*
X38529029Y-23213298D01*
X38542643Y-23192924D01*
X38552020Y-23170285D01*
X38556800Y-23146251D01*
X38556800Y-23121747D01*
X38552019Y-23097714D01*
X38542642Y-23075075D01*
X38529029Y-23054702D01*
X38523800Y-23048330D01*
X38521501Y-23044029D01*
X38520083Y-23039355D01*
X38519000Y-23028359D01*
X38519000Y-22739641D01*
X38520083Y-22728645D01*
X38521501Y-22723971D01*
X38523800Y-22719669D01*
X38526896Y-22715896D01*
X38530669Y-22712800D01*
X38534971Y-22710501D01*
X38539645Y-22709083D01*
X38550641Y-22708000D01*
X39389359Y-22708000D01*
X39400355Y-22709083D01*
G37*
G36*
X34500355Y-22709083D02*
G01*
X34505029Y-22710501D01*
X34509331Y-22712800D01*
X34513104Y-22715896D01*
X34516200Y-22719669D01*
X34518499Y-22723971D01*
X34519917Y-22728645D01*
X34521000Y-22739641D01*
X34521000Y-23028359D01*
X34519917Y-23039355D01*
X34518499Y-23044029D01*
X34516200Y-23048330D01*
X34510971Y-23054702D01*
X34497357Y-23075076D01*
X34487980Y-23097715D01*
X34483200Y-23121749D01*
X34483200Y-23146253D01*
X34487981Y-23170286D01*
X34497358Y-23192925D01*
X34510971Y-23213298D01*
X34516200Y-23219670D01*
X34518499Y-23223971D01*
X34519917Y-23228645D01*
X34521000Y-23239641D01*
X34521000Y-23528359D01*
X34519917Y-23539355D01*
X34518499Y-23544029D01*
X34516200Y-23548330D01*
X34510971Y-23554702D01*
X34497357Y-23575076D01*
X34487980Y-23597715D01*
X34483200Y-23621749D01*
X34483200Y-23646253D01*
X34487981Y-23670286D01*
X34497358Y-23692925D01*
X34510971Y-23713298D01*
X34516200Y-23719670D01*
X34518499Y-23723971D01*
X34519917Y-23728645D01*
X34521000Y-23739641D01*
X34521000Y-24028359D01*
X34519917Y-24039355D01*
X34518499Y-24044029D01*
X34516200Y-24048330D01*
X34510971Y-24054702D01*
X34497357Y-24075076D01*
X34487980Y-24097715D01*
X34483200Y-24121749D01*
X34483200Y-24146253D01*
X34487981Y-24170286D01*
X34497358Y-24192925D01*
X34510971Y-24213298D01*
X34516200Y-24219670D01*
X34518499Y-24223971D01*
X34519917Y-24228645D01*
X34521000Y-24239641D01*
X34521000Y-24528359D01*
X34519917Y-24539355D01*
X34518499Y-24544029D01*
X34516200Y-24548330D01*
X34510971Y-24554702D01*
X34497357Y-24575076D01*
X34487980Y-24597715D01*
X34483200Y-24621749D01*
X34483200Y-24646253D01*
X34487981Y-24670286D01*
X34497358Y-24692925D01*
X34510971Y-24713298D01*
X34516200Y-24719670D01*
X34518499Y-24723971D01*
X34519917Y-24728645D01*
X34521000Y-24739641D01*
X34521000Y-25028359D01*
X34519917Y-25039355D01*
X34518499Y-25044029D01*
X34516200Y-25048330D01*
X34510971Y-25054702D01*
X34497357Y-25075076D01*
X34487980Y-25097715D01*
X34483200Y-25121749D01*
X34483200Y-25146253D01*
X34487981Y-25170286D01*
X34497358Y-25192925D01*
X34510971Y-25213298D01*
X34516200Y-25219670D01*
X34518499Y-25223971D01*
X34519917Y-25228645D01*
X34521000Y-25239641D01*
X34521000Y-25528359D01*
X34519917Y-25539355D01*
X34518499Y-25544029D01*
X34516200Y-25548330D01*
X34510971Y-25554702D01*
X34497357Y-25575076D01*
X34487980Y-25597715D01*
X34483200Y-25621749D01*
X34483200Y-25646253D01*
X34487981Y-25670286D01*
X34497358Y-25692925D01*
X34510971Y-25713298D01*
X34516200Y-25719670D01*
X34518499Y-25723971D01*
X34519917Y-25728645D01*
X34521000Y-25739641D01*
X34521000Y-26028359D01*
X34519917Y-26039355D01*
X34518499Y-26044029D01*
X34516200Y-26048331D01*
X34513104Y-26052104D01*
X34509331Y-26055200D01*
X34505029Y-26057499D01*
X34500355Y-26058917D01*
X34489359Y-26060000D01*
X33650641Y-26060000D01*
X33639645Y-26058917D01*
X33634971Y-26057499D01*
X33630669Y-26055200D01*
X33626896Y-26052104D01*
X33623800Y-26048331D01*
X33621501Y-26044029D01*
X33620083Y-26039355D01*
X33619000Y-26028359D01*
X33619000Y-25739641D01*
X33620083Y-25728645D01*
X33621501Y-25723971D01*
X33623800Y-25719670D01*
X33629029Y-25713298D01*
X33642643Y-25692924D01*
X33652020Y-25670285D01*
X33656800Y-25646251D01*
X33656800Y-25621747D01*
X33652019Y-25597714D01*
X33642642Y-25575075D01*
X33629029Y-25554702D01*
X33623800Y-25548330D01*
X33621501Y-25544029D01*
X33620083Y-25539355D01*
X33619000Y-25528359D01*
X33619000Y-25239641D01*
X33620083Y-25228645D01*
X33621501Y-25223971D01*
X33623800Y-25219670D01*
X33629029Y-25213298D01*
X33642643Y-25192924D01*
X33652020Y-25170285D01*
X33656800Y-25146251D01*
X33656800Y-25121747D01*
X33652019Y-25097714D01*
X33642642Y-25075075D01*
X33629029Y-25054702D01*
X33623800Y-25048330D01*
X33621501Y-25044029D01*
X33620083Y-25039355D01*
X33619000Y-25028359D01*
X33619000Y-24739641D01*
X33620083Y-24728645D01*
X33621501Y-24723971D01*
X33623800Y-24719670D01*
X33629029Y-24713298D01*
X33642643Y-24692924D01*
X33652020Y-24670285D01*
X33656800Y-24646251D01*
X33656800Y-24621747D01*
X33652019Y-24597714D01*
X33642642Y-24575075D01*
X33629029Y-24554702D01*
X33623800Y-24548330D01*
X33621501Y-24544029D01*
X33620083Y-24539355D01*
X33619000Y-24528359D01*
X33619000Y-24239641D01*
X33620083Y-24228645D01*
X33621501Y-24223971D01*
X33623800Y-24219670D01*
X33629029Y-24213298D01*
X33642643Y-24192924D01*
X33652020Y-24170285D01*
X33656800Y-24146251D01*
X33656800Y-24121747D01*
X33652019Y-24097714D01*
X33642642Y-24075075D01*
X33629029Y-24054702D01*
X33623800Y-24048330D01*
X33621501Y-24044029D01*
X33620083Y-24039355D01*
X33619000Y-24028359D01*
X33619000Y-23739641D01*
X33620083Y-23728645D01*
X33621501Y-23723971D01*
X33623800Y-23719670D01*
X33629029Y-23713298D01*
X33642643Y-23692924D01*
X33652020Y-23670285D01*
X33656800Y-23646251D01*
X33656800Y-23621747D01*
X33652019Y-23597714D01*
X33642642Y-23575075D01*
X33629029Y-23554702D01*
X33623800Y-23548330D01*
X33621501Y-23544029D01*
X33620083Y-23539355D01*
X33619000Y-23528359D01*
X33619000Y-23239641D01*
X33620083Y-23228645D01*
X33621501Y-23223971D01*
X33623800Y-23219670D01*
X33629029Y-23213298D01*
X33642643Y-23192924D01*
X33652020Y-23170285D01*
X33656800Y-23146251D01*
X33656800Y-23121747D01*
X33652019Y-23097714D01*
X33642642Y-23075075D01*
X33629029Y-23054702D01*
X33623800Y-23048330D01*
X33621501Y-23044029D01*
X33620083Y-23039355D01*
X33619000Y-23028359D01*
X33619000Y-22739641D01*
X33620083Y-22728645D01*
X33621501Y-22723971D01*
X33623800Y-22719669D01*
X33626896Y-22715896D01*
X33630669Y-22712800D01*
X33634971Y-22710501D01*
X33639645Y-22709083D01*
X33650641Y-22708000D01*
X34489359Y-22708000D01*
X34500355Y-22709083D01*
G37*
G36*
X55969798Y-24424247D02*
G01*
X56005367Y-24435037D01*
X56038139Y-24452554D01*
X56066869Y-24476131D01*
X56090446Y-24504861D01*
X56107963Y-24537633D01*
X56118753Y-24573202D01*
X56123000Y-24616325D01*
X56123000Y-25675675D01*
X56118753Y-25718798D01*
X56107963Y-25754367D01*
X56090446Y-25787139D01*
X56066869Y-25815869D01*
X56038139Y-25839446D01*
X56005367Y-25856963D01*
X55969798Y-25867753D01*
X55926675Y-25872000D01*
X54817325Y-25872000D01*
X54774202Y-25867753D01*
X54738633Y-25856963D01*
X54705861Y-25839446D01*
X54677131Y-25815869D01*
X54653554Y-25787139D01*
X54636037Y-25754367D01*
X54625247Y-25718798D01*
X54621000Y-25675675D01*
X54621000Y-24616325D01*
X54625247Y-24573202D01*
X54636037Y-24537633D01*
X54653554Y-24504861D01*
X54677131Y-24476131D01*
X54705861Y-24452554D01*
X54738633Y-24435037D01*
X54774202Y-24424247D01*
X54817325Y-24420000D01*
X55926675Y-24420000D01*
X55969798Y-24424247D01*
G37*
G36*
X58669798Y-24424247D02*
G01*
X58705367Y-24435037D01*
X58738139Y-24452554D01*
X58766869Y-24476131D01*
X58790446Y-24504861D01*
X58807963Y-24537633D01*
X58818753Y-24573202D01*
X58823000Y-24616325D01*
X58823000Y-25675675D01*
X58818753Y-25718798D01*
X58807963Y-25754367D01*
X58790446Y-25787139D01*
X58766869Y-25815869D01*
X58738139Y-25839446D01*
X58705367Y-25856963D01*
X58669798Y-25867753D01*
X58626675Y-25872000D01*
X57517325Y-25872000D01*
X57474202Y-25867753D01*
X57438633Y-25856963D01*
X57405861Y-25839446D01*
X57377131Y-25815869D01*
X57353554Y-25787139D01*
X57336037Y-25754367D01*
X57325247Y-25718798D01*
X57321000Y-25675675D01*
X57321000Y-24616325D01*
X57325247Y-24573202D01*
X57336037Y-24537633D01*
X57353554Y-24504861D01*
X57377131Y-24476131D01*
X57405861Y-24452554D01*
X57438633Y-24435037D01*
X57474202Y-24424247D01*
X57517325Y-24420000D01*
X58626675Y-24420000D01*
X58669798Y-24424247D01*
G37*
G36*
X42239000Y-24935000D02*
G01*
X40737000Y-24935000D01*
X40737000Y-23833000D01*
X42239000Y-23833000D01*
X42239000Y-24935000D01*
G37*
G36*
X44439000Y-24855000D02*
G01*
X42937000Y-24855000D01*
X42937000Y-23553000D01*
X44439000Y-23553000D01*
X44439000Y-24855000D01*
G37*
G36*
X32510591Y-23697585D02*
G01*
X32544569Y-23707893D01*
X32575890Y-23724634D01*
X32603339Y-23747161D01*
X32625866Y-23774610D01*
X32642607Y-23805931D01*
X32652915Y-23839909D01*
X32657000Y-23881390D01*
X32657000Y-24482610D01*
X32652915Y-24524091D01*
X32642607Y-24558069D01*
X32625866Y-24589390D01*
X32603339Y-24616839D01*
X32575890Y-24639366D01*
X32544569Y-24656107D01*
X32510591Y-24666415D01*
X32469110Y-24670500D01*
X31792890Y-24670500D01*
X31751409Y-24666415D01*
X31717431Y-24656107D01*
X31686110Y-24639366D01*
X31658661Y-24616839D01*
X31636134Y-24589390D01*
X31619393Y-24558069D01*
X31609085Y-24524091D01*
X31605000Y-24482610D01*
X31605000Y-23881390D01*
X31609085Y-23839909D01*
X31619393Y-23805931D01*
X31636134Y-23774610D01*
X31658661Y-23747161D01*
X31686110Y-23724634D01*
X31717431Y-23707893D01*
X31751409Y-23697585D01*
X31792890Y-23693500D01*
X32469110Y-23693500D01*
X32510591Y-23697585D01*
G37*
G36*
X47060000Y-23837000D02*
G01*
X46158000Y-23837000D01*
X46158000Y-22835000D01*
X47060000Y-22835000D01*
X47060000Y-23837000D01*
G37*
G36*
X51820000Y-23837000D02*
G01*
X50918000Y-23837000D01*
X50918000Y-22835000D01*
X51820000Y-22835000D01*
X51820000Y-23837000D01*
G37*
G36*
X58813091Y-22592085D02*
G01*
X58847069Y-22602393D01*
X58878390Y-22619134D01*
X58905839Y-22641661D01*
X58928366Y-22669110D01*
X58945107Y-22700431D01*
X58955415Y-22734409D01*
X58959500Y-22775890D01*
X58959500Y-23452110D01*
X58955415Y-23493591D01*
X58945107Y-23527569D01*
X58928366Y-23558890D01*
X58905839Y-23586339D01*
X58878390Y-23608866D01*
X58847069Y-23625607D01*
X58813091Y-23635915D01*
X58771610Y-23640000D01*
X58170390Y-23640000D01*
X58128909Y-23635915D01*
X58094931Y-23625607D01*
X58063610Y-23608866D01*
X58036161Y-23586339D01*
X58013634Y-23558890D01*
X57996893Y-23527569D01*
X57986585Y-23493591D01*
X57982500Y-23452110D01*
X57982500Y-22775890D01*
X57986585Y-22734409D01*
X57996893Y-22700431D01*
X58013634Y-22669110D01*
X58036161Y-22641661D01*
X58063610Y-22619134D01*
X58094931Y-22602393D01*
X58128909Y-22592085D01*
X58170390Y-22588000D01*
X58771610Y-22588000D01*
X58813091Y-22592085D01*
G37*
G36*
X54190091Y-22592085D02*
G01*
X54224069Y-22602393D01*
X54255390Y-22619134D01*
X54282839Y-22641661D01*
X54305366Y-22669110D01*
X54322107Y-22700431D01*
X54332415Y-22734409D01*
X54336500Y-22775890D01*
X54336500Y-23452110D01*
X54332415Y-23493591D01*
X54322107Y-23527569D01*
X54305366Y-23558890D01*
X54282839Y-23586339D01*
X54255390Y-23608866D01*
X54224069Y-23625607D01*
X54190091Y-23635915D01*
X54148610Y-23640000D01*
X53547390Y-23640000D01*
X53505909Y-23635915D01*
X53471931Y-23625607D01*
X53440610Y-23608866D01*
X53413161Y-23586339D01*
X53390634Y-23558890D01*
X53373893Y-23527569D01*
X53363585Y-23493591D01*
X53359500Y-23452110D01*
X53359500Y-22775890D01*
X53363585Y-22734409D01*
X53373893Y-22700431D01*
X53390634Y-22669110D01*
X53413161Y-22641661D01*
X53440610Y-22619134D01*
X53471931Y-22602393D01*
X53505909Y-22592085D01*
X53547390Y-22588000D01*
X54148610Y-22588000D01*
X54190091Y-22592085D01*
G37*
G36*
X57238091Y-22592085D02*
G01*
X57272069Y-22602393D01*
X57303390Y-22619134D01*
X57330839Y-22641661D01*
X57353366Y-22669110D01*
X57370107Y-22700431D01*
X57380415Y-22734409D01*
X57384500Y-22775890D01*
X57384500Y-23452110D01*
X57380415Y-23493591D01*
X57370107Y-23527569D01*
X57353366Y-23558890D01*
X57330839Y-23586339D01*
X57303390Y-23608866D01*
X57272069Y-23625607D01*
X57238091Y-23635915D01*
X57196610Y-23640000D01*
X56595390Y-23640000D01*
X56553909Y-23635915D01*
X56519931Y-23625607D01*
X56488610Y-23608866D01*
X56461161Y-23586339D01*
X56438634Y-23558890D01*
X56421893Y-23527569D01*
X56411585Y-23493591D01*
X56407500Y-23452110D01*
X56407500Y-22775890D01*
X56411585Y-22734409D01*
X56421893Y-22700431D01*
X56438634Y-22669110D01*
X56461161Y-22641661D01*
X56488610Y-22619134D01*
X56519931Y-22602393D01*
X56553909Y-22592085D01*
X56595390Y-22588000D01*
X57196610Y-22588000D01*
X57238091Y-22592085D01*
G37*
G36*
X55765091Y-22592085D02*
G01*
X55799069Y-22602393D01*
X55830390Y-22619134D01*
X55857839Y-22641661D01*
X55880366Y-22669110D01*
X55897107Y-22700431D01*
X55907415Y-22734409D01*
X55911500Y-22775890D01*
X55911500Y-23452110D01*
X55907415Y-23493591D01*
X55897107Y-23527569D01*
X55880366Y-23558890D01*
X55857839Y-23586339D01*
X55830390Y-23608866D01*
X55799069Y-23625607D01*
X55765091Y-23635915D01*
X55723610Y-23640000D01*
X55122390Y-23640000D01*
X55080909Y-23635915D01*
X55046931Y-23625607D01*
X55015610Y-23608866D01*
X54988161Y-23586339D01*
X54965634Y-23558890D01*
X54948893Y-23527569D01*
X54938585Y-23493591D01*
X54934500Y-23452110D01*
X54934500Y-22775890D01*
X54938585Y-22734409D01*
X54948893Y-22700431D01*
X54965634Y-22669110D01*
X54988161Y-22641661D01*
X55015610Y-22619134D01*
X55046931Y-22602393D01*
X55080909Y-22592085D01*
X55122390Y-22588000D01*
X55723610Y-22588000D01*
X55765091Y-22592085D01*
G37*
G36*
X42239000Y-23035000D02*
G01*
X40737000Y-23035000D01*
X40737000Y-21933000D01*
X42239000Y-21933000D01*
X42239000Y-23035000D01*
G37*
G36*
X44439000Y-23035000D02*
G01*
X42937000Y-23035000D01*
X42937000Y-21933000D01*
X44439000Y-21933000D01*
X44439000Y-23035000D01*
G37*
G36*
X21058295Y-20932323D02*
G01*
X21065309Y-20934451D01*
X21079077Y-20941810D01*
X21101716Y-20951187D01*
X21125749Y-20955967D01*
X21150253Y-20955967D01*
X21174286Y-20951186D01*
X21196923Y-20941810D01*
X21210691Y-20934451D01*
X21217705Y-20932323D01*
X21231140Y-20931000D01*
X21544860Y-20931000D01*
X21558295Y-20932323D01*
X21565309Y-20934451D01*
X21579077Y-20941810D01*
X21601716Y-20951187D01*
X21625749Y-20955967D01*
X21650253Y-20955967D01*
X21674286Y-20951186D01*
X21696923Y-20941810D01*
X21710691Y-20934451D01*
X21717705Y-20932323D01*
X21731140Y-20931000D01*
X22044860Y-20931000D01*
X22058295Y-20932323D01*
X22065309Y-20934451D01*
X22079077Y-20941810D01*
X22101716Y-20951187D01*
X22125749Y-20955967D01*
X22150253Y-20955967D01*
X22174286Y-20951186D01*
X22196923Y-20941810D01*
X22210691Y-20934451D01*
X22217705Y-20932323D01*
X22231140Y-20931000D01*
X22544860Y-20931000D01*
X22558295Y-20932323D01*
X22565309Y-20934451D01*
X22579077Y-20941810D01*
X22601716Y-20951187D01*
X22625749Y-20955967D01*
X22650253Y-20955967D01*
X22674286Y-20951186D01*
X22696923Y-20941810D01*
X22710691Y-20934451D01*
X22717705Y-20932323D01*
X22731140Y-20931000D01*
X23044860Y-20931000D01*
X23058295Y-20932323D01*
X23065309Y-20934451D01*
X23079077Y-20941810D01*
X23101716Y-20951187D01*
X23125749Y-20955967D01*
X23150253Y-20955967D01*
X23174286Y-20951186D01*
X23196923Y-20941810D01*
X23210691Y-20934451D01*
X23217705Y-20932323D01*
X23231140Y-20931000D01*
X23544860Y-20931000D01*
X23558295Y-20932323D01*
X23565309Y-20934451D01*
X23579077Y-20941810D01*
X23601716Y-20951187D01*
X23625749Y-20955967D01*
X23650253Y-20955967D01*
X23674286Y-20951186D01*
X23696923Y-20941810D01*
X23710691Y-20934451D01*
X23717705Y-20932323D01*
X23731140Y-20931000D01*
X24044860Y-20931000D01*
X24058295Y-20932323D01*
X24065309Y-20934451D01*
X24079077Y-20941810D01*
X24101716Y-20951187D01*
X24125749Y-20955967D01*
X24150253Y-20955967D01*
X24174286Y-20951186D01*
X24196923Y-20941810D01*
X24210691Y-20934451D01*
X24217705Y-20932323D01*
X24231140Y-20931000D01*
X24544860Y-20931000D01*
X24558295Y-20932323D01*
X24565309Y-20934451D01*
X24579077Y-20941810D01*
X24601716Y-20951187D01*
X24625749Y-20955967D01*
X24650253Y-20955967D01*
X24674286Y-20951186D01*
X24696923Y-20941810D01*
X24710691Y-20934451D01*
X24717705Y-20932323D01*
X24731140Y-20931000D01*
X25044860Y-20931000D01*
X25058295Y-20932323D01*
X25065309Y-20934451D01*
X25079077Y-20941810D01*
X25101716Y-20951187D01*
X25125749Y-20955967D01*
X25150253Y-20955967D01*
X25174286Y-20951186D01*
X25196923Y-20941810D01*
X25210691Y-20934451D01*
X25217705Y-20932323D01*
X25231140Y-20931000D01*
X25544860Y-20931000D01*
X25558295Y-20932323D01*
X25565309Y-20934451D01*
X25579077Y-20941810D01*
X25601716Y-20951187D01*
X25625749Y-20955967D01*
X25650253Y-20955967D01*
X25674286Y-20951186D01*
X25696923Y-20941810D01*
X25710691Y-20934451D01*
X25717705Y-20932323D01*
X25731140Y-20931000D01*
X26044860Y-20931000D01*
X26058295Y-20932323D01*
X26065309Y-20934451D01*
X26079077Y-20941810D01*
X26101716Y-20951187D01*
X26125749Y-20955967D01*
X26150253Y-20955967D01*
X26174286Y-20951186D01*
X26196923Y-20941810D01*
X26210691Y-20934451D01*
X26217705Y-20932323D01*
X26231140Y-20931000D01*
X26544860Y-20931000D01*
X26558295Y-20932323D01*
X26565309Y-20934451D01*
X26579077Y-20941810D01*
X26601716Y-20951187D01*
X26625749Y-20955967D01*
X26650253Y-20955967D01*
X26674286Y-20951186D01*
X26696923Y-20941810D01*
X26710691Y-20934451D01*
X26717705Y-20932323D01*
X26731140Y-20931000D01*
X27044860Y-20931000D01*
X27058295Y-20932323D01*
X27065309Y-20934451D01*
X27079077Y-20941810D01*
X27101716Y-20951187D01*
X27125749Y-20955967D01*
X27150253Y-20955967D01*
X27174286Y-20951186D01*
X27196923Y-20941810D01*
X27210691Y-20934451D01*
X27217705Y-20932323D01*
X27231140Y-20931000D01*
X27544860Y-20931000D01*
X27558295Y-20932323D01*
X27565309Y-20934451D01*
X27579077Y-20941810D01*
X27601716Y-20951187D01*
X27625749Y-20955967D01*
X27650253Y-20955967D01*
X27674286Y-20951186D01*
X27696923Y-20941810D01*
X27710691Y-20934451D01*
X27717705Y-20932323D01*
X27731140Y-20931000D01*
X28044860Y-20931000D01*
X28058295Y-20932323D01*
X28065309Y-20934451D01*
X28079077Y-20941810D01*
X28101716Y-20951187D01*
X28125749Y-20955967D01*
X28150253Y-20955967D01*
X28174286Y-20951186D01*
X28196923Y-20941810D01*
X28210691Y-20934451D01*
X28217705Y-20932323D01*
X28231140Y-20931000D01*
X28544860Y-20931000D01*
X28558295Y-20932323D01*
X28565310Y-20934451D01*
X28571776Y-20937908D01*
X28577442Y-20942558D01*
X28582092Y-20948224D01*
X28585549Y-20954690D01*
X28587677Y-20961705D01*
X28589000Y-20975140D01*
X28589000Y-22538860D01*
X28587677Y-22552295D01*
X28585549Y-22559310D01*
X28582092Y-22565776D01*
X28577442Y-22571442D01*
X28571776Y-22576092D01*
X28565310Y-22579549D01*
X28558295Y-22581677D01*
X28544860Y-22583000D01*
X28231140Y-22583000D01*
X28217705Y-22581677D01*
X28210691Y-22579549D01*
X28196923Y-22572190D01*
X28174284Y-22562813D01*
X28150251Y-22558033D01*
X28125747Y-22558033D01*
X28101714Y-22562814D01*
X28079077Y-22572190D01*
X28065309Y-22579549D01*
X28058295Y-22581677D01*
X28044860Y-22583000D01*
X27731140Y-22583000D01*
X27717705Y-22581677D01*
X27710691Y-22579549D01*
X27696923Y-22572190D01*
X27674284Y-22562813D01*
X27650251Y-22558033D01*
X27625747Y-22558033D01*
X27601714Y-22562814D01*
X27579077Y-22572190D01*
X27565309Y-22579549D01*
X27558295Y-22581677D01*
X27544860Y-22583000D01*
X27231140Y-22583000D01*
X27217705Y-22581677D01*
X27210691Y-22579549D01*
X27196923Y-22572190D01*
X27174284Y-22562813D01*
X27150251Y-22558033D01*
X27125747Y-22558033D01*
X27101714Y-22562814D01*
X27079077Y-22572190D01*
X27065309Y-22579549D01*
X27058295Y-22581677D01*
X27044860Y-22583000D01*
X26731140Y-22583000D01*
X26717705Y-22581677D01*
X26710691Y-22579549D01*
X26696923Y-22572190D01*
X26674284Y-22562813D01*
X26650251Y-22558033D01*
X26625747Y-22558033D01*
X26601714Y-22562814D01*
X26579077Y-22572190D01*
X26565309Y-22579549D01*
X26558295Y-22581677D01*
X26544860Y-22583000D01*
X26231140Y-22583000D01*
X26217705Y-22581677D01*
X26210691Y-22579549D01*
X26196923Y-22572190D01*
X26174284Y-22562813D01*
X26150251Y-22558033D01*
X26125747Y-22558033D01*
X26101714Y-22562814D01*
X26079077Y-22572190D01*
X26065309Y-22579549D01*
X26058295Y-22581677D01*
X26044860Y-22583000D01*
X25731140Y-22583000D01*
X25717705Y-22581677D01*
X25710691Y-22579549D01*
X25696923Y-22572190D01*
X25674284Y-22562813D01*
X25650251Y-22558033D01*
X25625747Y-22558033D01*
X25601714Y-22562814D01*
X25579077Y-22572190D01*
X25565309Y-22579549D01*
X25558295Y-22581677D01*
X25544860Y-22583000D01*
X25231140Y-22583000D01*
X25217705Y-22581677D01*
X25210691Y-22579549D01*
X25196923Y-22572190D01*
X25174284Y-22562813D01*
X25150251Y-22558033D01*
X25125747Y-22558033D01*
X25101714Y-22562814D01*
X25079077Y-22572190D01*
X25065309Y-22579549D01*
X25058295Y-22581677D01*
X25044860Y-22583000D01*
X24731140Y-22583000D01*
X24717705Y-22581677D01*
X24710691Y-22579549D01*
X24696923Y-22572190D01*
X24674284Y-22562813D01*
X24650251Y-22558033D01*
X24625747Y-22558033D01*
X24601714Y-22562814D01*
X24579077Y-22572190D01*
X24565309Y-22579549D01*
X24558295Y-22581677D01*
X24544860Y-22583000D01*
X24231140Y-22583000D01*
X24217705Y-22581677D01*
X24210691Y-22579549D01*
X24196923Y-22572190D01*
X24174284Y-22562813D01*
X24150251Y-22558033D01*
X24125747Y-22558033D01*
X24101714Y-22562814D01*
X24079077Y-22572190D01*
X24065309Y-22579549D01*
X24058295Y-22581677D01*
X24044860Y-22583000D01*
X23731140Y-22583000D01*
X23717705Y-22581677D01*
X23710691Y-22579549D01*
X23696923Y-22572190D01*
X23674284Y-22562813D01*
X23650251Y-22558033D01*
X23625747Y-22558033D01*
X23601714Y-22562814D01*
X23579077Y-22572190D01*
X23565309Y-22579549D01*
X23558295Y-22581677D01*
X23544860Y-22583000D01*
X23231140Y-22583000D01*
X23217705Y-22581677D01*
X23210691Y-22579549D01*
X23196923Y-22572190D01*
X23174284Y-22562813D01*
X23150251Y-22558033D01*
X23125747Y-22558033D01*
X23101714Y-22562814D01*
X23079077Y-22572190D01*
X23065309Y-22579549D01*
X23058295Y-22581677D01*
X23044860Y-22583000D01*
X22731140Y-22583000D01*
X22717705Y-22581677D01*
X22710691Y-22579549D01*
X22696923Y-22572190D01*
X22674284Y-22562813D01*
X22650251Y-22558033D01*
X22625747Y-22558033D01*
X22601714Y-22562814D01*
X22579077Y-22572190D01*
X22565309Y-22579549D01*
X22558295Y-22581677D01*
X22544860Y-22583000D01*
X22231140Y-22583000D01*
X22217705Y-22581677D01*
X22210691Y-22579549D01*
X22196923Y-22572190D01*
X22174284Y-22562813D01*
X22150251Y-22558033D01*
X22125747Y-22558033D01*
X22101714Y-22562814D01*
X22079077Y-22572190D01*
X22065309Y-22579549D01*
X22058295Y-22581677D01*
X22044860Y-22583000D01*
X21731140Y-22583000D01*
X21717705Y-22581677D01*
X21710691Y-22579549D01*
X21696923Y-22572190D01*
X21674284Y-22562813D01*
X21650251Y-22558033D01*
X21625747Y-22558033D01*
X21601714Y-22562814D01*
X21579077Y-22572190D01*
X21565309Y-22579549D01*
X21558295Y-22581677D01*
X21544860Y-22583000D01*
X21231140Y-22583000D01*
X21217705Y-22581677D01*
X21210691Y-22579549D01*
X21196923Y-22572190D01*
X21174284Y-22562813D01*
X21150251Y-22558033D01*
X21125747Y-22558033D01*
X21101714Y-22562814D01*
X21079077Y-22572190D01*
X21065309Y-22579549D01*
X21058295Y-22581677D01*
X21044860Y-22583000D01*
X20731140Y-22583000D01*
X20717705Y-22581677D01*
X20710690Y-22579549D01*
X20704224Y-22576092D01*
X20698558Y-22571442D01*
X20693908Y-22565776D01*
X20690451Y-22559310D01*
X20688323Y-22552295D01*
X20687000Y-22538860D01*
X20687000Y-20975140D01*
X20688323Y-20961705D01*
X20690451Y-20954690D01*
X20693908Y-20948224D01*
X20698558Y-20942558D01*
X20704224Y-20937908D01*
X20710690Y-20934451D01*
X20717705Y-20932323D01*
X20731140Y-20931000D01*
X21044860Y-20931000D01*
X21058295Y-20932323D01*
G37*
G36*
X35175355Y-21484083D02*
G01*
X35180029Y-21485501D01*
X35184330Y-21487800D01*
X35190702Y-21493029D01*
X35211076Y-21506643D01*
X35233715Y-21516020D01*
X35257749Y-21520800D01*
X35282253Y-21520800D01*
X35306286Y-21516019D01*
X35328925Y-21506642D01*
X35349298Y-21493029D01*
X35355670Y-21487800D01*
X35359971Y-21485501D01*
X35364645Y-21484083D01*
X35375641Y-21483000D01*
X35664359Y-21483000D01*
X35675355Y-21484083D01*
X35680029Y-21485501D01*
X35684330Y-21487800D01*
X35690702Y-21493029D01*
X35711076Y-21506643D01*
X35733715Y-21516020D01*
X35757749Y-21520800D01*
X35782253Y-21520800D01*
X35806286Y-21516019D01*
X35828925Y-21506642D01*
X35849298Y-21493029D01*
X35855670Y-21487800D01*
X35859971Y-21485501D01*
X35864645Y-21484083D01*
X35875641Y-21483000D01*
X36164359Y-21483000D01*
X36175355Y-21484083D01*
X36180029Y-21485501D01*
X36184330Y-21487800D01*
X36190702Y-21493029D01*
X36211076Y-21506643D01*
X36233715Y-21516020D01*
X36257749Y-21520800D01*
X36282253Y-21520800D01*
X36306286Y-21516019D01*
X36328925Y-21506642D01*
X36349298Y-21493029D01*
X36355670Y-21487800D01*
X36359971Y-21485501D01*
X36364645Y-21484083D01*
X36375641Y-21483000D01*
X36664359Y-21483000D01*
X36675355Y-21484083D01*
X36680029Y-21485501D01*
X36684330Y-21487800D01*
X36690702Y-21493029D01*
X36711076Y-21506643D01*
X36733715Y-21516020D01*
X36757749Y-21520800D01*
X36782253Y-21520800D01*
X36806286Y-21516019D01*
X36828925Y-21506642D01*
X36849298Y-21493029D01*
X36855670Y-21487800D01*
X36859971Y-21485501D01*
X36864645Y-21484083D01*
X36875641Y-21483000D01*
X37164359Y-21483000D01*
X37175355Y-21484083D01*
X37180029Y-21485501D01*
X37184330Y-21487800D01*
X37190702Y-21493029D01*
X37211076Y-21506643D01*
X37233715Y-21516020D01*
X37257749Y-21520800D01*
X37282253Y-21520800D01*
X37306286Y-21516019D01*
X37328925Y-21506642D01*
X37349298Y-21493029D01*
X37355670Y-21487800D01*
X37359971Y-21485501D01*
X37364645Y-21484083D01*
X37375641Y-21483000D01*
X37664359Y-21483000D01*
X37675355Y-21484083D01*
X37680029Y-21485501D01*
X37684330Y-21487800D01*
X37690702Y-21493029D01*
X37711076Y-21506643D01*
X37733715Y-21516020D01*
X37757749Y-21520800D01*
X37782253Y-21520800D01*
X37806286Y-21516019D01*
X37828925Y-21506642D01*
X37849298Y-21493029D01*
X37855670Y-21487800D01*
X37859971Y-21485501D01*
X37864645Y-21484083D01*
X37875641Y-21483000D01*
X38164359Y-21483000D01*
X38175355Y-21484083D01*
X38180029Y-21485501D01*
X38184331Y-21487800D01*
X38188104Y-21490896D01*
X38191200Y-21494669D01*
X38193499Y-21498971D01*
X38194917Y-21503645D01*
X38196000Y-21514641D01*
X38196000Y-22353359D01*
X38194917Y-22364355D01*
X38193499Y-22369029D01*
X38191200Y-22373331D01*
X38188104Y-22377104D01*
X38184331Y-22380200D01*
X38180029Y-22382499D01*
X38175355Y-22383917D01*
X38164359Y-22385000D01*
X37875641Y-22385000D01*
X37864645Y-22383917D01*
X37859971Y-22382499D01*
X37855670Y-22380200D01*
X37849298Y-22374971D01*
X37828924Y-22361357D01*
X37806285Y-22351980D01*
X37782251Y-22347200D01*
X37757747Y-22347200D01*
X37733714Y-22351981D01*
X37711075Y-22361358D01*
X37690702Y-22374971D01*
X37684330Y-22380200D01*
X37680029Y-22382499D01*
X37675355Y-22383917D01*
X37664359Y-22385000D01*
X37375641Y-22385000D01*
X37364645Y-22383917D01*
X37359971Y-22382499D01*
X37355670Y-22380200D01*
X37349298Y-22374971D01*
X37328924Y-22361357D01*
X37306285Y-22351980D01*
X37282251Y-22347200D01*
X37257747Y-22347200D01*
X37233714Y-22351981D01*
X37211075Y-22361358D01*
X37190702Y-22374971D01*
X37184330Y-22380200D01*
X37180029Y-22382499D01*
X37175355Y-22383917D01*
X37164359Y-22385000D01*
X36875641Y-22385000D01*
X36864645Y-22383917D01*
X36859971Y-22382499D01*
X36855670Y-22380200D01*
X36849298Y-22374971D01*
X36828924Y-22361357D01*
X36806285Y-22351980D01*
X36782251Y-22347200D01*
X36757747Y-22347200D01*
X36733714Y-22351981D01*
X36711075Y-22361358D01*
X36690702Y-22374971D01*
X36684330Y-22380200D01*
X36680029Y-22382499D01*
X36675355Y-22383917D01*
X36664359Y-22385000D01*
X36375641Y-22385000D01*
X36364645Y-22383917D01*
X36359971Y-22382499D01*
X36355670Y-22380200D01*
X36349298Y-22374971D01*
X36328924Y-22361357D01*
X36306285Y-22351980D01*
X36282251Y-22347200D01*
X36257747Y-22347200D01*
X36233714Y-22351981D01*
X36211075Y-22361358D01*
X36190702Y-22374971D01*
X36184330Y-22380200D01*
X36180029Y-22382499D01*
X36175355Y-22383917D01*
X36164359Y-22385000D01*
X35875641Y-22385000D01*
X35864645Y-22383917D01*
X35859971Y-22382499D01*
X35855670Y-22380200D01*
X35849298Y-22374971D01*
X35828924Y-22361357D01*
X35806285Y-22351980D01*
X35782251Y-22347200D01*
X35757747Y-22347200D01*
X35733714Y-22351981D01*
X35711075Y-22361358D01*
X35690702Y-22374971D01*
X35684330Y-22380200D01*
X35680029Y-22382499D01*
X35675355Y-22383917D01*
X35664359Y-22385000D01*
X35375641Y-22385000D01*
X35364645Y-22383917D01*
X35359971Y-22382499D01*
X35355670Y-22380200D01*
X35349298Y-22374971D01*
X35328924Y-22361357D01*
X35306285Y-22351980D01*
X35282251Y-22347200D01*
X35257747Y-22347200D01*
X35233714Y-22351981D01*
X35211075Y-22361358D01*
X35190702Y-22374971D01*
X35184330Y-22380200D01*
X35180029Y-22382499D01*
X35175355Y-22383917D01*
X35164359Y-22385000D01*
X34875641Y-22385000D01*
X34864645Y-22383917D01*
X34859971Y-22382499D01*
X34855669Y-22380200D01*
X34851896Y-22377104D01*
X34848800Y-22373331D01*
X34846501Y-22369029D01*
X34845083Y-22364355D01*
X34844000Y-22353359D01*
X34844000Y-21514641D01*
X34845083Y-21503645D01*
X34846501Y-21498971D01*
X34848800Y-21494669D01*
X34851896Y-21490896D01*
X34855669Y-21487800D01*
X34859971Y-21485501D01*
X34864645Y-21484083D01*
X34875641Y-21483000D01*
X35164359Y-21483000D01*
X35175355Y-21484083D01*
G37*
G36*
X55714091Y-20814085D02*
G01*
X55748069Y-20824393D01*
X55779390Y-20841134D01*
X55806839Y-20863661D01*
X55829366Y-20891110D01*
X55846107Y-20922431D01*
X55856415Y-20956409D01*
X55860500Y-20997890D01*
X55860500Y-21674110D01*
X55856415Y-21715591D01*
X55846107Y-21749569D01*
X55829366Y-21780890D01*
X55806839Y-21808339D01*
X55779390Y-21830866D01*
X55748069Y-21847607D01*
X55714091Y-21857915D01*
X55672610Y-21862000D01*
X55071390Y-21862000D01*
X55029909Y-21857915D01*
X54995931Y-21847607D01*
X54964610Y-21830866D01*
X54937161Y-21808339D01*
X54914634Y-21780890D01*
X54897893Y-21749569D01*
X54887585Y-21715591D01*
X54883500Y-21674110D01*
X54883500Y-20997890D01*
X54887585Y-20956409D01*
X54897893Y-20922431D01*
X54914634Y-20891110D01*
X54937161Y-20863661D01*
X54964610Y-20841134D01*
X54995931Y-20824393D01*
X55029909Y-20814085D01*
X55071390Y-20810000D01*
X55672610Y-20810000D01*
X55714091Y-20814085D01*
G37*
G36*
X54139091Y-20814085D02*
G01*
X54173069Y-20824393D01*
X54204390Y-20841134D01*
X54231839Y-20863661D01*
X54254366Y-20891110D01*
X54271107Y-20922431D01*
X54281415Y-20956409D01*
X54285500Y-20997890D01*
X54285500Y-21674110D01*
X54281415Y-21715591D01*
X54271107Y-21749569D01*
X54254366Y-21780890D01*
X54231839Y-21808339D01*
X54204390Y-21830866D01*
X54173069Y-21847607D01*
X54139091Y-21857915D01*
X54097610Y-21862000D01*
X53496390Y-21862000D01*
X53454909Y-21857915D01*
X53420931Y-21847607D01*
X53389610Y-21830866D01*
X53362161Y-21808339D01*
X53339634Y-21780890D01*
X53322893Y-21749569D01*
X53312585Y-21715591D01*
X53308500Y-21674110D01*
X53308500Y-20997890D01*
X53312585Y-20956409D01*
X53322893Y-20922431D01*
X53339634Y-20891110D01*
X53362161Y-20863661D01*
X53389610Y-20841134D01*
X53420931Y-20824393D01*
X53454909Y-20814085D01*
X53496390Y-20810000D01*
X54097610Y-20810000D01*
X54139091Y-20814085D01*
G37*
G36*
X52770000Y-21837000D02*
G01*
X51868000Y-21837000D01*
X51868000Y-20835000D01*
X52770000Y-20835000D01*
X52770000Y-21837000D01*
G37*
G36*
X50870000Y-21837000D02*
G01*
X49968000Y-21837000D01*
X49968000Y-20835000D01*
X50870000Y-20835000D01*
X50870000Y-21837000D01*
G37*
G36*
X46110000Y-21837000D02*
G01*
X45208000Y-21837000D01*
X45208000Y-20835000D01*
X46110000Y-20835000D01*
X46110000Y-21837000D01*
G37*
G36*
X48043091Y-19544085D02*
G01*
X48077069Y-19554393D01*
X48108390Y-19571134D01*
X48135839Y-19593661D01*
X48158366Y-19621110D01*
X48175107Y-19652431D01*
X48185415Y-19686409D01*
X48189500Y-19727890D01*
X48189500Y-20404110D01*
X48185415Y-20445591D01*
X48175107Y-20479569D01*
X48158366Y-20510890D01*
X48135839Y-20538339D01*
X48108390Y-20560866D01*
X48077072Y-20577606D01*
X48034948Y-20590384D01*
X48012309Y-20599762D01*
X47991934Y-20613376D01*
X47974607Y-20630703D01*
X47960994Y-20651077D01*
X47951616Y-20673716D01*
X47946836Y-20697749D01*
X47946836Y-20722253D01*
X47951616Y-20746286D01*
X47960994Y-20768925D01*
X47974608Y-20789300D01*
X47991935Y-20806627D01*
X48010000Y-20818697D01*
X48010000Y-21837000D01*
X47108000Y-21837000D01*
X47108000Y-20835000D01*
X47330767Y-20835000D01*
X47355153Y-20832598D01*
X47378602Y-20825485D01*
X47400213Y-20813934D01*
X47419155Y-20798389D01*
X47434700Y-20779447D01*
X47446251Y-20757836D01*
X47453364Y-20734387D01*
X47455766Y-20710001D01*
X47453364Y-20685615D01*
X47446251Y-20662166D01*
X47434700Y-20640555D01*
X47419155Y-20621613D01*
X47400213Y-20606068D01*
X47367052Y-20590384D01*
X47324928Y-20577606D01*
X47293610Y-20560866D01*
X47266161Y-20538339D01*
X47243634Y-20510890D01*
X47226893Y-20479569D01*
X47216585Y-20445591D01*
X47212500Y-20404110D01*
X47212500Y-19727890D01*
X47216585Y-19686409D01*
X47226893Y-19652431D01*
X47243634Y-19621110D01*
X47266161Y-19593661D01*
X47293610Y-19571134D01*
X47324931Y-19554393D01*
X47358909Y-19544085D01*
X47400390Y-19540000D01*
X48001610Y-19540000D01*
X48043091Y-19544085D01*
G37*
G36*
X49618091Y-19544085D02*
G01*
X49652069Y-19554393D01*
X49683390Y-19571134D01*
X49710839Y-19593661D01*
X49733366Y-19621110D01*
X49750107Y-19652431D01*
X49760415Y-19686409D01*
X49764500Y-19727890D01*
X49764500Y-20404110D01*
X49760415Y-20445591D01*
X49750107Y-20479569D01*
X49733366Y-20510890D01*
X49710839Y-20538339D01*
X49683390Y-20560866D01*
X49652069Y-20577607D01*
X49618091Y-20587915D01*
X49576610Y-20592000D01*
X48975390Y-20592000D01*
X48933909Y-20587915D01*
X48899931Y-20577607D01*
X48868610Y-20560866D01*
X48841161Y-20538339D01*
X48818634Y-20510890D01*
X48801893Y-20479569D01*
X48791585Y-20445591D01*
X48787500Y-20404110D01*
X48787500Y-19727890D01*
X48791585Y-19686409D01*
X48801893Y-19652431D01*
X48818634Y-19621110D01*
X48841161Y-19593661D01*
X48868610Y-19571134D01*
X48899931Y-19554393D01*
X48933909Y-19544085D01*
X48975390Y-19540000D01*
X49576610Y-19540000D01*
X49618091Y-19544085D01*
G37*
G36*
X42543591Y-19607085D02*
G01*
X42577569Y-19617393D01*
X42608890Y-19634134D01*
X42636339Y-19656661D01*
X42658866Y-19684110D01*
X42675607Y-19715431D01*
X42685915Y-19749409D01*
X42690000Y-19790890D01*
X42690000Y-20392110D01*
X42685915Y-20433591D01*
X42675607Y-20467569D01*
X42658866Y-20498890D01*
X42636339Y-20526339D01*
X42608890Y-20548866D01*
X42577569Y-20565607D01*
X42543591Y-20575915D01*
X42502110Y-20580000D01*
X41825890Y-20580000D01*
X41784409Y-20575915D01*
X41750431Y-20565607D01*
X41719110Y-20548866D01*
X41691661Y-20526339D01*
X41669134Y-20498890D01*
X41652393Y-20467569D01*
X41642085Y-20433591D01*
X41638000Y-20392110D01*
X41638000Y-19790890D01*
X41642085Y-19749409D01*
X41652393Y-19715431D01*
X41669134Y-19684110D01*
X41691661Y-19656661D01*
X41719110Y-19634134D01*
X41750431Y-19617393D01*
X41784409Y-19607085D01*
X41825890Y-19603000D01*
X42502110Y-19603000D01*
X42543591Y-19607085D01*
G37*
G36*
X34246348Y-18717820D02*
G01*
X34246350Y-18717821D01*
X34246351Y-18717821D01*
X34387574Y-18776317D01*
X34387577Y-18776319D01*
X34514669Y-18861239D01*
X34622761Y-18969331D01*
X34646594Y-19005000D01*
X34707683Y-19096426D01*
X34728517Y-19146725D01*
X34740068Y-19168336D01*
X34755614Y-19187278D01*
X34774556Y-19202823D01*
X34796166Y-19214374D01*
X34819615Y-19221487D01*
X34844001Y-19223889D01*
X34868387Y-19221487D01*
X34891836Y-19214374D01*
X34913447Y-19202823D01*
X34932389Y-19187277D01*
X34947934Y-19168335D01*
X34959485Y-19146725D01*
X34966598Y-19123276D01*
X34969000Y-19098890D01*
X34969000Y-18738000D01*
X38071000Y-18738000D01*
X38071000Y-19098890D01*
X38073402Y-19123276D01*
X38080515Y-19146725D01*
X38092066Y-19168336D01*
X38107611Y-19187278D01*
X38126553Y-19202823D01*
X38148164Y-19214374D01*
X38171613Y-19221487D01*
X38195999Y-19223889D01*
X38220385Y-19221487D01*
X38243834Y-19214374D01*
X38265445Y-19202823D01*
X38284387Y-19187278D01*
X38299932Y-19168336D01*
X38311483Y-19146725D01*
X38332317Y-19096426D01*
X38393406Y-19005000D01*
X38417239Y-18969331D01*
X38525331Y-18861239D01*
X38652423Y-18776319D01*
X38652426Y-18776317D01*
X38793649Y-18717821D01*
X38793650Y-18717821D01*
X38793652Y-18717820D01*
X38943569Y-18688000D01*
X39096431Y-18688000D01*
X39246348Y-18717820D01*
X39246350Y-18717821D01*
X39246351Y-18717821D01*
X39387574Y-18776317D01*
X39387577Y-18776319D01*
X39514669Y-18861239D01*
X39622761Y-18969331D01*
X39703388Y-19089998D01*
X39707683Y-19096426D01*
X39766179Y-19237649D01*
X39766180Y-19237652D01*
X39796000Y-19387569D01*
X39796000Y-19540431D01*
X39766964Y-19686409D01*
X39766179Y-19690351D01*
X39707683Y-19831574D01*
X39707682Y-19831575D01*
X39707681Y-19831577D01*
X39622761Y-19958669D01*
X39514669Y-20066761D01*
X39387577Y-20151681D01*
X39387574Y-20151683D01*
X39246351Y-20210179D01*
X39246350Y-20210179D01*
X39246348Y-20210180D01*
X39096431Y-20240000D01*
X38943569Y-20240000D01*
X38793652Y-20210180D01*
X38793650Y-20210179D01*
X38793649Y-20210179D01*
X38652426Y-20151683D01*
X38652423Y-20151681D01*
X38525331Y-20066761D01*
X38417239Y-19958669D01*
X38360625Y-19873940D01*
X38332317Y-19831574D01*
X38311481Y-19781272D01*
X38299932Y-19759664D01*
X38284386Y-19740722D01*
X38265444Y-19725177D01*
X38243834Y-19713626D01*
X38220385Y-19706513D01*
X38195999Y-19704111D01*
X38171613Y-19706513D01*
X38148164Y-19713626D01*
X38126553Y-19725177D01*
X38107611Y-19740723D01*
X38092066Y-19759665D01*
X38080515Y-19781275D01*
X38073402Y-19804724D01*
X38071000Y-19829110D01*
X38071000Y-20190000D01*
X34969000Y-20190000D01*
X34969000Y-19829110D01*
X34966598Y-19804724D01*
X34959485Y-19781275D01*
X34947934Y-19759664D01*
X34932389Y-19740722D01*
X34913447Y-19725177D01*
X34891836Y-19713626D01*
X34868387Y-19706513D01*
X34844001Y-19704111D01*
X34819615Y-19706513D01*
X34796166Y-19713626D01*
X34774555Y-19725177D01*
X34755613Y-19740722D01*
X34740068Y-19759664D01*
X34728519Y-19781272D01*
X34707683Y-19831574D01*
X34679375Y-19873940D01*
X34622761Y-19958669D01*
X34514669Y-20066761D01*
X34387577Y-20151681D01*
X34387574Y-20151683D01*
X34246351Y-20210179D01*
X34246350Y-20210179D01*
X34246348Y-20210180D01*
X34096431Y-20240000D01*
X33943569Y-20240000D01*
X33793652Y-20210180D01*
X33793650Y-20210179D01*
X33793649Y-20210179D01*
X33652426Y-20151683D01*
X33652423Y-20151681D01*
X33525331Y-20066761D01*
X33417239Y-19958669D01*
X33332319Y-19831577D01*
X33332318Y-19831575D01*
X33332317Y-19831574D01*
X33273821Y-19690351D01*
X33273037Y-19686409D01*
X33244000Y-19540431D01*
X33244000Y-19387569D01*
X33273820Y-19237652D01*
X33273821Y-19237649D01*
X33332317Y-19096426D01*
X33336612Y-19089998D01*
X33417239Y-18969331D01*
X33525331Y-18861239D01*
X33652423Y-18776319D01*
X33652426Y-18776317D01*
X33793649Y-18717821D01*
X33793650Y-18717821D01*
X33793652Y-18717820D01*
X33943569Y-18688000D01*
X34096431Y-18688000D01*
X34246348Y-18717820D01*
G37*
G36*
X45728199Y-15929954D02*
G01*
X45740450Y-15930556D01*
X45758869Y-15930556D01*
X45781149Y-15932750D01*
X45865233Y-15949476D01*
X45886660Y-15955976D01*
X45965858Y-15988780D01*
X45971303Y-15991691D01*
X45971309Y-15991693D01*
X45980169Y-15996429D01*
X45980173Y-15996432D01*
X45985614Y-15999340D01*
X46056899Y-16046971D01*
X46074204Y-16061172D01*
X46134828Y-16121796D01*
X46149029Y-16139101D01*
X46196660Y-16210386D01*
X46199568Y-16215827D01*
X46199571Y-16215831D01*
X46204307Y-16224691D01*
X46204309Y-16224697D01*
X46207220Y-16230142D01*
X46240024Y-16309340D01*
X46246524Y-16330767D01*
X46263250Y-16414851D01*
X46265444Y-16437131D01*
X46265444Y-16455550D01*
X46266046Y-16467801D01*
X46267852Y-16486139D01*
X46267852Y-17023860D01*
X46266263Y-17039999D01*
X46261855Y-17054528D01*
X46256394Y-17067711D01*
X46251612Y-17091745D01*
X46251611Y-17116249D01*
X46256391Y-17140282D01*
X46265768Y-17162921D01*
X46267000Y-17164765D01*
X46267000Y-18396050D01*
X46260525Y-18408164D01*
X46253412Y-18431613D01*
X46251010Y-18455999D01*
X46253412Y-18480385D01*
X46260525Y-18503834D01*
X46262848Y-18508746D01*
X46266263Y-18520001D01*
X46267852Y-18536140D01*
X46267852Y-19073862D01*
X46266046Y-19092199D01*
X46265444Y-19104450D01*
X46265444Y-19122869D01*
X46263250Y-19145149D01*
X46246524Y-19229233D01*
X46240024Y-19250660D01*
X46207220Y-19329858D01*
X46204309Y-19335303D01*
X46204307Y-19335309D01*
X46199571Y-19344169D01*
X46199568Y-19344173D01*
X46196660Y-19349614D01*
X46149032Y-19420895D01*
X46134828Y-19438204D01*
X46074204Y-19498828D01*
X46056899Y-19513029D01*
X45985614Y-19560660D01*
X45980173Y-19563568D01*
X45980169Y-19563571D01*
X45971309Y-19568307D01*
X45971303Y-19568309D01*
X45965858Y-19571220D01*
X45886660Y-19604024D01*
X45865233Y-19610524D01*
X45781149Y-19627250D01*
X45758869Y-19629444D01*
X45740450Y-19629444D01*
X45728199Y-19630046D01*
X45709862Y-19631852D01*
X45222138Y-19631852D01*
X45203801Y-19630046D01*
X45191550Y-19629444D01*
X45173131Y-19629444D01*
X45150851Y-19627250D01*
X45066767Y-19610524D01*
X45045340Y-19604024D01*
X44966142Y-19571220D01*
X44960697Y-19568309D01*
X44960691Y-19568307D01*
X44951831Y-19563571D01*
X44951827Y-19563568D01*
X44946386Y-19560660D01*
X44875101Y-19513029D01*
X44857796Y-19498828D01*
X44797172Y-19438204D01*
X44782968Y-19420895D01*
X44735340Y-19349614D01*
X44732432Y-19344173D01*
X44732429Y-19344169D01*
X44727693Y-19335309D01*
X44727691Y-19335303D01*
X44724780Y-19329858D01*
X44691976Y-19250660D01*
X44685476Y-19229233D01*
X44668750Y-19145149D01*
X44666556Y-19122869D01*
X44666556Y-19104450D01*
X44665954Y-19092199D01*
X44664148Y-19073862D01*
X44664148Y-18536140D01*
X44665737Y-18520001D01*
X44670145Y-18505472D01*
X44675606Y-18492289D01*
X44680388Y-18468255D01*
X44680389Y-18443751D01*
X44675609Y-18419718D01*
X44666232Y-18397079D01*
X44665000Y-18395235D01*
X44665000Y-17163950D01*
X44671475Y-17151836D01*
X44678588Y-17128387D01*
X44680990Y-17104001D01*
X44678588Y-17079615D01*
X44671475Y-17056166D01*
X44669152Y-17051254D01*
X44665737Y-17039999D01*
X44664148Y-17023860D01*
X44664148Y-16486139D01*
X44665954Y-16467801D01*
X44666556Y-16455550D01*
X44666556Y-16437131D01*
X44668750Y-16414851D01*
X44685476Y-16330767D01*
X44691976Y-16309340D01*
X44724780Y-16230142D01*
X44727691Y-16224697D01*
X44727693Y-16224691D01*
X44732429Y-16215831D01*
X44732432Y-16215827D01*
X44735340Y-16210386D01*
X44782971Y-16139101D01*
X44797172Y-16121796D01*
X44857796Y-16061172D01*
X44875101Y-16046971D01*
X44946386Y-15999340D01*
X44951827Y-15996432D01*
X44951831Y-15996429D01*
X44960691Y-15991693D01*
X44960697Y-15991691D01*
X44966142Y-15988780D01*
X45045340Y-15955976D01*
X45066767Y-15949476D01*
X45150851Y-15932750D01*
X45173131Y-15930556D01*
X45191550Y-15930556D01*
X45203801Y-15929954D01*
X45222139Y-15928148D01*
X45709861Y-15928148D01*
X45728199Y-15929954D01*
G37*
G36*
X48206000Y-19011000D02*
G01*
X47044000Y-19011000D01*
X47044000Y-18259000D01*
X48206000Y-18259000D01*
X48206000Y-19011000D01*
G37*
G36*
X50406000Y-19011000D02*
G01*
X49244000Y-19011000D01*
X49244000Y-16359000D01*
X50406000Y-16359000D01*
X50406000Y-19011000D01*
G37*
G36*
X55191000Y-19011000D02*
G01*
X54029000Y-19011000D01*
X54029000Y-18259000D01*
X55191000Y-18259000D01*
X55191000Y-19011000D01*
G37*
G36*
X52991000Y-19011000D02*
G01*
X51829000Y-19011000D01*
X51829000Y-16359000D01*
X52991000Y-16359000D01*
X52991000Y-19011000D01*
G37*
G36*
X42543591Y-18032085D02*
G01*
X42577569Y-18042393D01*
X42608890Y-18059134D01*
X42636339Y-18081661D01*
X42658866Y-18109110D01*
X42675607Y-18140431D01*
X42685915Y-18174409D01*
X42690000Y-18215890D01*
X42690000Y-18817110D01*
X42685915Y-18858591D01*
X42675607Y-18892569D01*
X42658866Y-18923890D01*
X42636339Y-18951339D01*
X42608890Y-18973866D01*
X42577569Y-18990607D01*
X42543591Y-19000915D01*
X42502110Y-19005000D01*
X41825890Y-19005000D01*
X41784409Y-19000915D01*
X41750431Y-18990607D01*
X41719110Y-18973866D01*
X41691661Y-18951339D01*
X41669134Y-18923890D01*
X41652393Y-18892569D01*
X41642085Y-18858591D01*
X41638000Y-18817110D01*
X41638000Y-18215890D01*
X41642085Y-18174409D01*
X41652393Y-18140431D01*
X41669134Y-18109110D01*
X41691661Y-18081661D01*
X41719110Y-18059134D01*
X41750431Y-18042393D01*
X41784409Y-18032085D01*
X41825890Y-18028000D01*
X42502110Y-18028000D01*
X42543591Y-18032085D01*
G37*
G36*
X58164473Y-15510938D02*
G01*
X58292049Y-15563782D01*
X58406859Y-15640495D01*
X58504505Y-15738141D01*
X58581218Y-15852951D01*
X58634062Y-15980527D01*
X58661000Y-16115956D01*
X58661000Y-16254044D01*
X58634062Y-16389473D01*
X58581218Y-16517049D01*
X58504505Y-16631859D01*
X58406859Y-16729505D01*
X58292051Y-16806217D01*
X58259944Y-16819516D01*
X58238334Y-16831067D01*
X58219392Y-16846613D01*
X58203847Y-16865555D01*
X58192296Y-16887165D01*
X58185183Y-16910614D01*
X58182781Y-16935001D01*
X58185183Y-16959387D01*
X58192296Y-16982836D01*
X58203847Y-17004446D01*
X58219393Y-17023388D01*
X58238335Y-17038933D01*
X58259944Y-17050484D01*
X58292051Y-17063783D01*
X58406859Y-17140495D01*
X58504505Y-17238141D01*
X58581218Y-17352951D01*
X58634062Y-17480527D01*
X58661000Y-17615956D01*
X58661000Y-17754044D01*
X58634062Y-17889473D01*
X58581218Y-18017049D01*
X58504505Y-18131859D01*
X58406859Y-18229505D01*
X58292049Y-18306218D01*
X58164473Y-18359062D01*
X58029044Y-18386000D01*
X57890956Y-18386000D01*
X57755527Y-18359062D01*
X57627951Y-18306218D01*
X57513141Y-18229505D01*
X57415495Y-18131859D01*
X57338782Y-18017049D01*
X57285938Y-17889473D01*
X57259000Y-17754044D01*
X57259000Y-17615956D01*
X57285938Y-17480527D01*
X57338782Y-17352951D01*
X57415495Y-17238141D01*
X57513141Y-17140495D01*
X57627949Y-17063783D01*
X57660056Y-17050484D01*
X57681666Y-17038933D01*
X57700608Y-17023387D01*
X57716153Y-17004445D01*
X57727704Y-16982835D01*
X57734817Y-16959386D01*
X57737219Y-16934999D01*
X57734817Y-16910613D01*
X57727704Y-16887164D01*
X57716153Y-16865554D01*
X57700607Y-16846612D01*
X57681665Y-16831067D01*
X57660056Y-16819516D01*
X57627949Y-16806217D01*
X57513141Y-16729505D01*
X57415495Y-16631859D01*
X57338782Y-16517049D01*
X57285938Y-16389473D01*
X57259000Y-16254044D01*
X57259000Y-16115956D01*
X57285938Y-15980527D01*
X57338782Y-15852951D01*
X57415495Y-15738141D01*
X57513141Y-15640495D01*
X57627951Y-15563782D01*
X57755527Y-15510938D01*
X57890956Y-15484000D01*
X58029044Y-15484000D01*
X58164473Y-15510938D01*
G37*
G36*
X33045862Y-15762398D02*
G01*
X33058114Y-15763000D01*
X34271000Y-15763000D01*
X34271000Y-17765000D01*
X33058114Y-17765000D01*
X33045862Y-17765602D01*
X33020000Y-17768149D01*
X32994138Y-17765602D01*
X32981886Y-17765000D01*
X32908594Y-17765000D01*
X32891836Y-17756043D01*
X32880299Y-17751915D01*
X32784664Y-17722904D01*
X32769664Y-17718354D01*
X32656575Y-17657906D01*
X32557447Y-17576554D01*
X32476094Y-17477424D01*
X32415646Y-17364335D01*
X32399134Y-17309901D01*
X32378420Y-17241617D01*
X32370669Y-17162921D01*
X32369000Y-17145973D01*
X32369000Y-16382026D01*
X32374049Y-16330767D01*
X32378420Y-16286382D01*
X32415645Y-16163668D01*
X32472523Y-16057258D01*
X32476095Y-16050575D01*
X32557447Y-15951446D01*
X32656576Y-15870094D01*
X32769666Y-15809646D01*
X32769669Y-15809645D01*
X32880290Y-15776088D01*
X32902925Y-15766712D01*
X32908481Y-15763000D01*
X32981886Y-15763000D01*
X32994138Y-15762398D01*
X33020000Y-15759851D01*
X33045862Y-15762398D01*
G37*
G36*
X40045862Y-15762398D02*
G01*
X40058114Y-15763000D01*
X40131406Y-15763000D01*
X40148164Y-15771957D01*
X40159707Y-15776087D01*
X40270331Y-15809645D01*
X40270334Y-15809646D01*
X40383424Y-15870094D01*
X40482554Y-15951447D01*
X40563906Y-16050575D01*
X40624354Y-16163664D01*
X40634040Y-16195596D01*
X40661580Y-16286382D01*
X40661580Y-16286384D01*
X40671000Y-16382026D01*
X40671000Y-17145974D01*
X40669149Y-17164765D01*
X40661580Y-17241618D01*
X40638225Y-17318610D01*
X40624354Y-17364336D01*
X40563906Y-17477425D01*
X40482554Y-17576554D01*
X40383425Y-17657906D01*
X40270336Y-17718354D01*
X40255336Y-17722904D01*
X40159708Y-17751913D01*
X40137075Y-17761287D01*
X40131518Y-17765000D01*
X40058114Y-17765000D01*
X40045862Y-17765602D01*
X40020000Y-17768149D01*
X39994138Y-17765602D01*
X39981886Y-17765000D01*
X38769000Y-17765000D01*
X38769000Y-15763000D01*
X39981886Y-15763000D01*
X39994138Y-15762398D01*
X40020000Y-15759851D01*
X40045862Y-15762398D01*
G37*
G36*
X38321000Y-17765000D02*
G01*
X36719000Y-17765000D01*
X36719000Y-15763000D01*
X38321000Y-15763000D01*
X38321000Y-17765000D01*
G37*
G36*
X36321000Y-17765000D02*
G01*
X34719000Y-17765000D01*
X34719000Y-15763000D01*
X36321000Y-15763000D01*
X36321000Y-17765000D01*
G37*
G36*
X27187601Y-16559397D02*
G01*
X27226305Y-16567096D01*
X27258340Y-16580365D01*
X27335680Y-16612400D01*
X27434115Y-16678173D01*
X27517827Y-16761885D01*
X27583600Y-16860320D01*
X27628904Y-16969696D01*
X27652000Y-17085805D01*
X27652000Y-17204195D01*
X27628904Y-17320304D01*
X27583600Y-17429680D01*
X27517827Y-17528115D01*
X27434115Y-17611827D01*
X27335680Y-17677600D01*
X27258340Y-17709635D01*
X27226305Y-17722904D01*
X27187601Y-17730603D01*
X27110195Y-17746000D01*
X26991805Y-17746000D01*
X26914399Y-17730603D01*
X26875695Y-17722904D01*
X26843660Y-17709635D01*
X26766320Y-17677600D01*
X26667885Y-17611827D01*
X26584173Y-17528115D01*
X26518400Y-17429680D01*
X26473096Y-17320304D01*
X26450000Y-17204195D01*
X26450000Y-17085805D01*
X26473096Y-16969696D01*
X26518400Y-16860320D01*
X26584173Y-16761885D01*
X26667885Y-16678173D01*
X26766320Y-16612400D01*
X26843660Y-16580365D01*
X26875695Y-16567096D01*
X26914399Y-16559397D01*
X26991805Y-16544000D01*
X27110195Y-16544000D01*
X27187601Y-16559397D01*
G37*
G36*
X19187601Y-16559397D02*
G01*
X19226305Y-16567096D01*
X19258340Y-16580365D01*
X19335680Y-16612400D01*
X19434115Y-16678173D01*
X19517827Y-16761885D01*
X19583600Y-16860320D01*
X19628904Y-16969696D01*
X19652000Y-17085805D01*
X19652000Y-17204195D01*
X19628904Y-17320304D01*
X19583600Y-17429680D01*
X19517827Y-17528115D01*
X19434115Y-17611827D01*
X19335680Y-17677600D01*
X19258340Y-17709635D01*
X19226305Y-17722904D01*
X19187601Y-17730603D01*
X19110195Y-17746000D01*
X18991805Y-17746000D01*
X18914399Y-17730603D01*
X18875695Y-17722904D01*
X18843660Y-17709635D01*
X18766320Y-17677600D01*
X18667885Y-17611827D01*
X18584173Y-17528115D01*
X18518400Y-17429680D01*
X18473096Y-17320304D01*
X18450000Y-17204195D01*
X18450000Y-17085805D01*
X18473096Y-16969696D01*
X18518400Y-16860320D01*
X18584173Y-16761885D01*
X18667885Y-16678173D01*
X18766320Y-16612400D01*
X18843660Y-16580365D01*
X18875695Y-16567096D01*
X18914399Y-16559397D01*
X18991805Y-16544000D01*
X19110195Y-16544000D01*
X19187601Y-16559397D01*
G37*
G36*
X21187601Y-16559397D02*
G01*
X21226305Y-16567096D01*
X21258340Y-16580365D01*
X21335680Y-16612400D01*
X21434115Y-16678173D01*
X21517827Y-16761885D01*
X21583600Y-16860320D01*
X21628904Y-16969696D01*
X21652000Y-17085805D01*
X21652000Y-17204195D01*
X21628904Y-17320304D01*
X21583600Y-17429680D01*
X21517827Y-17528115D01*
X21434115Y-17611827D01*
X21335680Y-17677600D01*
X21258340Y-17709635D01*
X21226305Y-17722904D01*
X21187601Y-17730603D01*
X21110195Y-17746000D01*
X20991805Y-17746000D01*
X20914399Y-17730603D01*
X20875695Y-17722904D01*
X20843660Y-17709635D01*
X20766320Y-17677600D01*
X20667885Y-17611827D01*
X20584173Y-17528115D01*
X20518400Y-17429680D01*
X20473096Y-17320304D01*
X20450000Y-17204195D01*
X20450000Y-17085805D01*
X20473096Y-16969696D01*
X20518400Y-16860320D01*
X20584173Y-16761885D01*
X20667885Y-16678173D01*
X20766320Y-16612400D01*
X20843660Y-16580365D01*
X20875695Y-16567096D01*
X20914399Y-16559397D01*
X20991805Y-16544000D01*
X21110195Y-16544000D01*
X21187601Y-16559397D01*
G37*
G36*
X23187601Y-16559397D02*
G01*
X23226305Y-16567096D01*
X23258340Y-16580365D01*
X23335680Y-16612400D01*
X23434115Y-16678173D01*
X23517827Y-16761885D01*
X23583600Y-16860320D01*
X23628904Y-16969696D01*
X23652000Y-17085805D01*
X23652000Y-17204195D01*
X23628904Y-17320304D01*
X23583600Y-17429680D01*
X23517827Y-17528115D01*
X23434115Y-17611827D01*
X23335680Y-17677600D01*
X23258340Y-17709635D01*
X23226305Y-17722904D01*
X23187601Y-17730603D01*
X23110195Y-17746000D01*
X22991805Y-17746000D01*
X22914399Y-17730603D01*
X22875695Y-17722904D01*
X22843660Y-17709635D01*
X22766320Y-17677600D01*
X22667885Y-17611827D01*
X22584173Y-17528115D01*
X22518400Y-17429680D01*
X22473096Y-17320304D01*
X22450000Y-17204195D01*
X22450000Y-17085805D01*
X22473096Y-16969696D01*
X22518400Y-16860320D01*
X22584173Y-16761885D01*
X22667885Y-16678173D01*
X22766320Y-16612400D01*
X22843660Y-16580365D01*
X22875695Y-16567096D01*
X22914399Y-16559397D01*
X22991805Y-16544000D01*
X23110195Y-16544000D01*
X23187601Y-16559397D01*
G37*
G36*
X25187601Y-16559397D02*
G01*
X25226305Y-16567096D01*
X25258340Y-16580365D01*
X25335680Y-16612400D01*
X25434115Y-16678173D01*
X25517827Y-16761885D01*
X25583600Y-16860320D01*
X25628904Y-16969696D01*
X25652000Y-17085805D01*
X25652000Y-17204195D01*
X25628904Y-17320304D01*
X25583600Y-17429680D01*
X25517827Y-17528115D01*
X25434115Y-17611827D01*
X25335680Y-17677600D01*
X25258340Y-17709635D01*
X25226305Y-17722904D01*
X25187601Y-17730603D01*
X25110195Y-17746000D01*
X24991805Y-17746000D01*
X24914399Y-17730603D01*
X24875695Y-17722904D01*
X24843660Y-17709635D01*
X24766320Y-17677600D01*
X24667885Y-17611827D01*
X24584173Y-17528115D01*
X24518400Y-17429680D01*
X24473096Y-17320304D01*
X24450000Y-17204195D01*
X24450000Y-17085805D01*
X24473096Y-16969696D01*
X24518400Y-16860320D01*
X24584173Y-16761885D01*
X24667885Y-16678173D01*
X24766320Y-16612400D01*
X24843660Y-16580365D01*
X24875695Y-16567096D01*
X24914399Y-16559397D01*
X24991805Y-16544000D01*
X25110195Y-16544000D01*
X25187601Y-16559397D01*
G37*
G36*
X42543591Y-16533585D02*
G01*
X42577569Y-16543893D01*
X42608890Y-16560634D01*
X42636339Y-16583161D01*
X42658866Y-16610610D01*
X42675607Y-16641931D01*
X42685915Y-16675909D01*
X42690000Y-16717390D01*
X42690000Y-17318610D01*
X42685915Y-17360091D01*
X42675607Y-17394069D01*
X42658866Y-17425390D01*
X42636339Y-17452839D01*
X42608890Y-17475366D01*
X42577569Y-17492107D01*
X42543591Y-17502415D01*
X42502110Y-17506500D01*
X41825890Y-17506500D01*
X41784409Y-17502415D01*
X41750431Y-17492107D01*
X41719110Y-17475366D01*
X41691661Y-17452839D01*
X41669134Y-17425390D01*
X41652393Y-17394069D01*
X41642085Y-17360091D01*
X41638000Y-17318610D01*
X41638000Y-16717390D01*
X41642085Y-16675909D01*
X41652393Y-16641931D01*
X41669134Y-16610610D01*
X41691661Y-16583161D01*
X41719110Y-16560634D01*
X41750431Y-16543893D01*
X41784409Y-16533585D01*
X41825890Y-16529500D01*
X42502110Y-16529500D01*
X42543591Y-16533585D01*
G37*
G36*
X55191000Y-17111000D02*
G01*
X54029000Y-17111000D01*
X54029000Y-16359000D01*
X55191000Y-16359000D01*
X55191000Y-17111000D01*
G37*
G36*
X48206000Y-17111000D02*
G01*
X47044000Y-17111000D01*
X47044000Y-16359000D01*
X48206000Y-16359000D01*
X48206000Y-17111000D01*
G37*
G36*
X42543591Y-14958585D02*
G01*
X42577569Y-14968893D01*
X42608890Y-14985634D01*
X42636339Y-15008161D01*
X42658866Y-15035610D01*
X42675607Y-15066931D01*
X42685915Y-15100909D01*
X42690000Y-15142390D01*
X42690000Y-15743610D01*
X42685915Y-15785091D01*
X42675607Y-15819069D01*
X42658866Y-15850390D01*
X42636339Y-15877839D01*
X42608890Y-15900366D01*
X42577569Y-15917107D01*
X42543591Y-15927415D01*
X42502110Y-15931500D01*
X41825890Y-15931500D01*
X41784409Y-15927415D01*
X41750431Y-15917107D01*
X41719110Y-15900366D01*
X41691661Y-15877839D01*
X41669134Y-15850390D01*
X41652393Y-15819069D01*
X41642085Y-15785091D01*
X41638000Y-15743610D01*
X41638000Y-15142390D01*
X41642085Y-15100909D01*
X41652393Y-15066931D01*
X41669134Y-15035610D01*
X41691661Y-15008161D01*
X41719110Y-14985634D01*
X41750431Y-14968893D01*
X41784409Y-14958585D01*
X41825890Y-14954500D01*
X42502110Y-14954500D01*
X42543591Y-14958585D01*
G37*
M02*
