M48
; DRILL file {KiCad (5.1.5)-3} date 26.08.2020 12:51:04
; FORMAT={-:-/ absolute / metric / decimal}
; #@! TF.CreationDate,2020-08-26T12:51:04+03:00
; #@! TF.GenerationSoftware,Kicad,Pcbnew,(5.1.5)-3
FMAT,2
METRIC
T1C0.300
T2C0.400
T3C0.550
T4C0.600
T5C0.762
T6C0.850
T7C0.700
%
G90
G05
T1
X34.292Y-32.871
X34.292Y-34.071
X34.292Y-35.371
X34.292Y-36.471
X35.492Y-32.871
X35.492Y-34.071
X35.492Y-35.371
X35.492Y-36.471
T2
X15.621Y-36.957
X15.621Y-41.275
X15.875Y-19.05
X15.875Y-22.225
X15.875Y-25.4
X16.129Y-47.879
X16.637Y-32.766
X17.145Y-26.67
X17.145Y-44.831
X17.399Y-41.402
X17.526Y-32.004
X17.526Y-38.862
X18.415Y-22.225
X18.415Y-46.99
X19.177Y-32.639
X19.243Y-44.003
X19.939Y-39.59
X20.637Y-18.732
X20.682Y-28.946
X20.701Y-29.957
X20.955Y-46.99
X21.463Y-28.321
X21.463Y-40.64
X21.844Y-31.496
X22.225Y-23.495
X22.352Y-29.718
X22.86Y-26.67
X22.86Y-46.99
X22.987Y-40.767
X23.495Y-43.307
X23.749Y-19.177
X23.749Y-24.182
X24.13Y-46.99
X25.146Y-31.623
X25.4Y-41.148
X25.4Y-43.307
X25.579Y-30.682
X25.59Y-34.861
X25.781Y-46.523
X26.035Y-19.05
X26.035Y-23.495
X26.364Y-25.325
X26.388Y-31.397
X26.543Y-37.973
X27.051Y-41.275
X27.051Y-43.561
X27.089Y-28.702
X27.432Y-29.718
X27.432Y-31.496
X27.94Y-44.45
X28.048Y-27.686
X28.523Y-24.182
X28.575Y-31.242
X28.989Y-48.42
X29.21Y-15.875
X29.464Y-22.86
X29.845Y-38.1
X29.845Y-39.37
X29.845Y-44.45
X30.099Y-33.909
X30.48Y-17.78
X30.861Y-47.371
X30.988Y-38.1
X31.038Y-32.766
X31.75Y-19.685
X32.512Y-30.607
X33.02Y-22.733
X33.02Y-28.194
X33.078Y-26.866
X33.655Y-21.59
X33.909Y-47.625
X34.798Y-29.21
X35.343Y-31.332
X35.56Y-25.4
X35.56Y-29.882
X36.477Y-18.277
X37.051Y-20.739
X37.338Y-30.353
X37.465Y-23.495
X38.1Y-31.75
X38.1Y-50.546
X39.345Y-21.003
X39.624Y-36.83
X39.988Y-45.798
X39.988Y-46.798
X40.005Y-50.165
X40.137Y-24.389
X40.763Y-47.883
X40.795Y-21.082
X41.148Y-18.542
X41.91Y-26.035
X45.212Y-23.368
X45.212Y-25.146
X45.425Y-28.87
X45.72Y-31.75
X45.72Y-36.195
X45.72Y-40.005
X46.355Y-43.18
X47.625Y-38.1
X48.26Y-34.29
X48.758Y-15.947
X48.768Y-21.844
X48.895Y-31.75
X49.235Y-28.87
X50.108Y-19.666
X50.165Y-36.195
X50.165Y-39.37
X51.308Y-16.764
X51.88Y-32.829
X52.07Y-20.066
X52.324Y-24.13
X52.324Y-28.87
X52.705Y-43.18
X53.34Y-36.195
X53.34Y-39.37
X53.59Y-19.307
X55.88Y-20.066
X56.515Y-18.415
X56.769Y-25.908
X57.96Y-19.764
X58.42Y-21.336
X58.42Y-27.305
T3
X19.051Y-17.145
X21.051Y-17.145
X23.051Y-17.145
X25.051Y-17.145
X27.051Y-17.145
T4
X42.276Y-28.87
X42.276Y-30.87
X42.276Y-32.87
X42.276Y-34.87
X42.276Y-36.87
X42.276Y-38.87
X42.276Y-40.87
X42.276Y-42.87
X56.276Y-28.87
X56.276Y-30.87
X56.276Y-32.87
X56.276Y-34.87
X56.276Y-36.87
X56.276Y-38.87
X56.276Y-40.87
X56.276Y-42.87
T5
X37.592Y-39.116
X37.592Y-40.616
X57.96Y-16.185
X57.96Y-17.685
T6
X34.02Y-19.464
X39.02Y-19.464
T7
X19.155Y-48.799
X19.155Y-50.599
X25.041Y-48.799
X25.041Y-50.599
T4
G00X33.02Y-17.114
M15
G01X33.02Y-16.414
M16
G05
G00X40.02Y-16.414
M15
G01X40.02Y-17.114
M16
G05
T0
M30
