G04 #@! TF.GenerationSoftware,KiCad,Pcbnew,(5.1.5)-3*
G04 #@! TF.CreationDate,2020-08-26T12:51:06+03:00*
G04 #@! TF.ProjectId,body_temp,626f6479-5f74-4656-9d70-2e6b69636164,rev?*
G04 #@! TF.SameCoordinates,Original*
G04 #@! TF.FileFunction,Soldermask,Bot*
G04 #@! TF.FilePolarity,Negative*
%FSLAX46Y46*%
G04 Gerber Fmt 4.6, Leading zero omitted, Abs format (unit mm)*
G04 Created by KiCad (PCBNEW (5.1.5)-3) date 2020-08-26 12:51:06*
%MOMM*%
%LPD*%
G04 APERTURE LIST*
%ADD10C,0.100000*%
G04 APERTURE END LIST*
D10*
G36*
X25119231Y-50205705D02*
G01*
X25157967Y-50213410D01*
X25188195Y-50225931D01*
X25230944Y-50243638D01*
X25296622Y-50287523D01*
X25352477Y-50343378D01*
X25396362Y-50409056D01*
X25426590Y-50482034D01*
X25442000Y-50559504D01*
X25442000Y-50638496D01*
X25426590Y-50715966D01*
X25396362Y-50788944D01*
X25352477Y-50854622D01*
X25296622Y-50910477D01*
X25230944Y-50954362D01*
X25188195Y-50972069D01*
X25157967Y-50984590D01*
X25119231Y-50992295D01*
X25080496Y-51000000D01*
X25001504Y-51000000D01*
X24962769Y-50992295D01*
X24924033Y-50984590D01*
X24893805Y-50972069D01*
X24851056Y-50954362D01*
X24785378Y-50910477D01*
X24729523Y-50854622D01*
X24685638Y-50788944D01*
X24655410Y-50715966D01*
X24640000Y-50638496D01*
X24640000Y-50559504D01*
X24655410Y-50482034D01*
X24685638Y-50409056D01*
X24729523Y-50343378D01*
X24785378Y-50287523D01*
X24851056Y-50243638D01*
X24893805Y-50225931D01*
X24924033Y-50213410D01*
X24962769Y-50205705D01*
X25001504Y-50198000D01*
X25080496Y-50198000D01*
X25119231Y-50205705D01*
G37*
G36*
X19233231Y-50205705D02*
G01*
X19271967Y-50213410D01*
X19302195Y-50225931D01*
X19344944Y-50243638D01*
X19410622Y-50287523D01*
X19466477Y-50343378D01*
X19510362Y-50409056D01*
X19540590Y-50482034D01*
X19556000Y-50559504D01*
X19556000Y-50638496D01*
X19540590Y-50715966D01*
X19510362Y-50788944D01*
X19466477Y-50854622D01*
X19410622Y-50910477D01*
X19344944Y-50954362D01*
X19302195Y-50972069D01*
X19271967Y-50984590D01*
X19233231Y-50992295D01*
X19194496Y-51000000D01*
X19115504Y-51000000D01*
X19076769Y-50992295D01*
X19038033Y-50984590D01*
X19007805Y-50972069D01*
X18965056Y-50954362D01*
X18899378Y-50910477D01*
X18843523Y-50854622D01*
X18799638Y-50788944D01*
X18769410Y-50715966D01*
X18754000Y-50638496D01*
X18754000Y-50559504D01*
X18769410Y-50482034D01*
X18799638Y-50409056D01*
X18843523Y-50343378D01*
X18899378Y-50287523D01*
X18965056Y-50243638D01*
X19007805Y-50225931D01*
X19038033Y-50213410D01*
X19076769Y-50205705D01*
X19115504Y-50198000D01*
X19194496Y-50198000D01*
X19233231Y-50205705D01*
G37*
G36*
X19233231Y-48405705D02*
G01*
X19271967Y-48413410D01*
X19302195Y-48425931D01*
X19344944Y-48443638D01*
X19410622Y-48487523D01*
X19466477Y-48543378D01*
X19510362Y-48609056D01*
X19540590Y-48682034D01*
X19556000Y-48759504D01*
X19556000Y-48838496D01*
X19540590Y-48915966D01*
X19510362Y-48988944D01*
X19466477Y-49054622D01*
X19410622Y-49110477D01*
X19344944Y-49154362D01*
X19302195Y-49172069D01*
X19271967Y-49184590D01*
X19233231Y-49192295D01*
X19194496Y-49200000D01*
X19115504Y-49200000D01*
X19076769Y-49192295D01*
X19038033Y-49184590D01*
X19007805Y-49172069D01*
X18965056Y-49154362D01*
X18899378Y-49110477D01*
X18843523Y-49054622D01*
X18799638Y-48988944D01*
X18769410Y-48915966D01*
X18754000Y-48838496D01*
X18754000Y-48759504D01*
X18769410Y-48682034D01*
X18799638Y-48609056D01*
X18843523Y-48543378D01*
X18899378Y-48487523D01*
X18965056Y-48443638D01*
X19007805Y-48425931D01*
X19038033Y-48413410D01*
X19076769Y-48405705D01*
X19115504Y-48398000D01*
X19194496Y-48398000D01*
X19233231Y-48405705D01*
G37*
G36*
X25119231Y-48405705D02*
G01*
X25157967Y-48413410D01*
X25188195Y-48425931D01*
X25230944Y-48443638D01*
X25296622Y-48487523D01*
X25352477Y-48543378D01*
X25396362Y-48609056D01*
X25426590Y-48682034D01*
X25442000Y-48759504D01*
X25442000Y-48838496D01*
X25426590Y-48915966D01*
X25396362Y-48988944D01*
X25352477Y-49054622D01*
X25296622Y-49110477D01*
X25230944Y-49154362D01*
X25188195Y-49172069D01*
X25157967Y-49184590D01*
X25119231Y-49192295D01*
X25080496Y-49200000D01*
X25001504Y-49200000D01*
X24962769Y-49192295D01*
X24924033Y-49184590D01*
X24893805Y-49172069D01*
X24851056Y-49154362D01*
X24785378Y-49110477D01*
X24729523Y-49054622D01*
X24685638Y-48988944D01*
X24655410Y-48915966D01*
X24640000Y-48838496D01*
X24640000Y-48759504D01*
X24655410Y-48682034D01*
X24685638Y-48609056D01*
X24729523Y-48543378D01*
X24785378Y-48487523D01*
X24851056Y-48443638D01*
X24893805Y-48425931D01*
X24924033Y-48413410D01*
X24962769Y-48405705D01*
X25001504Y-48398000D01*
X25080496Y-48398000D01*
X25119231Y-48405705D01*
G37*
G36*
X57827000Y-43521000D02*
G01*
X54725000Y-43521000D01*
X54725000Y-42219000D01*
X57827000Y-42219000D01*
X57827000Y-43521000D01*
G37*
G36*
X43827000Y-43521000D02*
G01*
X40725000Y-43521000D01*
X40725000Y-42219000D01*
X43827000Y-42219000D01*
X43827000Y-43521000D01*
G37*
G36*
X57827000Y-41521000D02*
G01*
X54725000Y-41521000D01*
X54725000Y-40219000D01*
X57827000Y-40219000D01*
X57827000Y-41521000D01*
G37*
G36*
X43827000Y-41521000D02*
G01*
X40725000Y-41521000D01*
X40725000Y-40219000D01*
X43827000Y-40219000D01*
X43827000Y-41521000D01*
G37*
G36*
X37796473Y-38441938D02*
G01*
X37924049Y-38494782D01*
X38038859Y-38571495D01*
X38136505Y-38669141D01*
X38213218Y-38783951D01*
X38266062Y-38911527D01*
X38293000Y-39046956D01*
X38293000Y-39185044D01*
X38266062Y-39320473D01*
X38213218Y-39448049D01*
X38136505Y-39562859D01*
X38038859Y-39660505D01*
X37924051Y-39737217D01*
X37891944Y-39750516D01*
X37870334Y-39762067D01*
X37851392Y-39777613D01*
X37835847Y-39796555D01*
X37824296Y-39818165D01*
X37817183Y-39841614D01*
X37814781Y-39866001D01*
X37817183Y-39890387D01*
X37824296Y-39913836D01*
X37835847Y-39935446D01*
X37851393Y-39954388D01*
X37870335Y-39969933D01*
X37891944Y-39981484D01*
X37924051Y-39994783D01*
X38038859Y-40071495D01*
X38136505Y-40169141D01*
X38213218Y-40283951D01*
X38266062Y-40411527D01*
X38293000Y-40546956D01*
X38293000Y-40685044D01*
X38266062Y-40820473D01*
X38213218Y-40948049D01*
X38136505Y-41062859D01*
X38038859Y-41160505D01*
X37924049Y-41237218D01*
X37796473Y-41290062D01*
X37661044Y-41317000D01*
X37522956Y-41317000D01*
X37387527Y-41290062D01*
X37259951Y-41237218D01*
X37145141Y-41160505D01*
X37047495Y-41062859D01*
X36970782Y-40948049D01*
X36917938Y-40820473D01*
X36891000Y-40685044D01*
X36891000Y-40546956D01*
X36917938Y-40411527D01*
X36970782Y-40283951D01*
X37047495Y-40169141D01*
X37145141Y-40071495D01*
X37259949Y-39994783D01*
X37292056Y-39981484D01*
X37313666Y-39969933D01*
X37332608Y-39954387D01*
X37348153Y-39935445D01*
X37359704Y-39913835D01*
X37366817Y-39890386D01*
X37369219Y-39865999D01*
X37366817Y-39841613D01*
X37359704Y-39818164D01*
X37348153Y-39796554D01*
X37332607Y-39777612D01*
X37313665Y-39762067D01*
X37292056Y-39750516D01*
X37259949Y-39737217D01*
X37145141Y-39660505D01*
X37047495Y-39562859D01*
X36970782Y-39448049D01*
X36917938Y-39320473D01*
X36891000Y-39185044D01*
X36891000Y-39046956D01*
X36917938Y-38911527D01*
X36970782Y-38783951D01*
X37047495Y-38669141D01*
X37145141Y-38571495D01*
X37259951Y-38494782D01*
X37387527Y-38441938D01*
X37522956Y-38415000D01*
X37661044Y-38415000D01*
X37796473Y-38441938D01*
G37*
G36*
X43827000Y-39521000D02*
G01*
X40725000Y-39521000D01*
X40725000Y-38219000D01*
X43827000Y-38219000D01*
X43827000Y-39521000D01*
G37*
G36*
X57827000Y-39521000D02*
G01*
X54725000Y-39521000D01*
X54725000Y-38219000D01*
X57827000Y-38219000D01*
X57827000Y-39521000D01*
G37*
G36*
X43827000Y-37521000D02*
G01*
X40725000Y-37521000D01*
X40725000Y-36219000D01*
X43827000Y-36219000D01*
X43827000Y-37521000D01*
G37*
G36*
X57827000Y-37521000D02*
G01*
X54725000Y-37521000D01*
X54725000Y-36219000D01*
X57827000Y-36219000D01*
X57827000Y-37521000D01*
G37*
G36*
X17905591Y-36142585D02*
G01*
X17939569Y-36152893D01*
X17970890Y-36169634D01*
X17998339Y-36192161D01*
X18020866Y-36219610D01*
X18037607Y-36250931D01*
X18047915Y-36284909D01*
X18052000Y-36326390D01*
X18052000Y-36927610D01*
X18047915Y-36969091D01*
X18037607Y-37003069D01*
X18020866Y-37034390D01*
X17998339Y-37061839D01*
X17970890Y-37084366D01*
X17939569Y-37101107D01*
X17905591Y-37111415D01*
X17864110Y-37115500D01*
X17187890Y-37115500D01*
X17146409Y-37111415D01*
X17112431Y-37101107D01*
X17081110Y-37084366D01*
X17053661Y-37061839D01*
X17031134Y-37034390D01*
X17014393Y-37003069D01*
X17004085Y-36969091D01*
X17000000Y-36927610D01*
X17000000Y-36326390D01*
X17004085Y-36284909D01*
X17014393Y-36250931D01*
X17031134Y-36219610D01*
X17053661Y-36192161D01*
X17081110Y-36169634D01*
X17112431Y-36152893D01*
X17146409Y-36142585D01*
X17187890Y-36138500D01*
X17864110Y-36138500D01*
X17905591Y-36142585D01*
G37*
G36*
X19429591Y-36142585D02*
G01*
X19463569Y-36152893D01*
X19494890Y-36169634D01*
X19522339Y-36192161D01*
X19544866Y-36219610D01*
X19561607Y-36250931D01*
X19571915Y-36284909D01*
X19576000Y-36326390D01*
X19576000Y-36927610D01*
X19571915Y-36969091D01*
X19561607Y-37003069D01*
X19544866Y-37034390D01*
X19522339Y-37061839D01*
X19494890Y-37084366D01*
X19463569Y-37101107D01*
X19429591Y-37111415D01*
X19388110Y-37115500D01*
X18711890Y-37115500D01*
X18670409Y-37111415D01*
X18636431Y-37101107D01*
X18605110Y-37084366D01*
X18577661Y-37061839D01*
X18555134Y-37034390D01*
X18538393Y-37003069D01*
X18528085Y-36969091D01*
X18524000Y-36927610D01*
X18524000Y-36326390D01*
X18528085Y-36284909D01*
X18538393Y-36250931D01*
X18555134Y-36219610D01*
X18577661Y-36192161D01*
X18605110Y-36169634D01*
X18636431Y-36152893D01*
X18670409Y-36142585D01*
X18711890Y-36138500D01*
X19388110Y-36138500D01*
X19429591Y-36142585D01*
G37*
G36*
X25445232Y-35700563D02*
G01*
X25454595Y-35703403D01*
X25463224Y-35708016D01*
X25470782Y-35714218D01*
X25476984Y-35721776D01*
X25481597Y-35730405D01*
X25484437Y-35739768D01*
X25486000Y-35755640D01*
X25486000Y-36494360D01*
X25484437Y-36510232D01*
X25481597Y-36519595D01*
X25476984Y-36528224D01*
X25470782Y-36535782D01*
X25463224Y-36541984D01*
X25454595Y-36546597D01*
X25445232Y-36549437D01*
X25429360Y-36551000D01*
X25090640Y-36551000D01*
X25074768Y-36549437D01*
X25065405Y-36546597D01*
X25056776Y-36541984D01*
X25049218Y-36535782D01*
X25043016Y-36528224D01*
X25038403Y-36519595D01*
X25035563Y-36510232D01*
X25034000Y-36494360D01*
X25034000Y-35755640D01*
X25035563Y-35739768D01*
X25038403Y-35730405D01*
X25043016Y-35721776D01*
X25049218Y-35714218D01*
X25056776Y-35708016D01*
X25065405Y-35703403D01*
X25074768Y-35700563D01*
X25090640Y-35699000D01*
X25429360Y-35699000D01*
X25445232Y-35700563D01*
G37*
G36*
X20645232Y-35700563D02*
G01*
X20654595Y-35703403D01*
X20663224Y-35708016D01*
X20670782Y-35714218D01*
X20676984Y-35721776D01*
X20681597Y-35730405D01*
X20684437Y-35739768D01*
X20686000Y-35755640D01*
X20686000Y-36494360D01*
X20684437Y-36510232D01*
X20681597Y-36519595D01*
X20676984Y-36528224D01*
X20670782Y-36535782D01*
X20663224Y-36541984D01*
X20654595Y-36546597D01*
X20645232Y-36549437D01*
X20629360Y-36551000D01*
X20290640Y-36551000D01*
X20274768Y-36549437D01*
X20265405Y-36546597D01*
X20256776Y-36541984D01*
X20249218Y-36535782D01*
X20243016Y-36528224D01*
X20238403Y-36519595D01*
X20235563Y-36510232D01*
X20234000Y-36494360D01*
X20234000Y-35755640D01*
X20235563Y-35739768D01*
X20238403Y-35730405D01*
X20243016Y-35721776D01*
X20249218Y-35714218D01*
X20256776Y-35708016D01*
X20265405Y-35703403D01*
X20274768Y-35700563D01*
X20290640Y-35699000D01*
X20629360Y-35699000D01*
X20645232Y-35700563D01*
G37*
G36*
X21445232Y-35700563D02*
G01*
X21454595Y-35703403D01*
X21463224Y-35708016D01*
X21470782Y-35714218D01*
X21476984Y-35721776D01*
X21481597Y-35730405D01*
X21484437Y-35739768D01*
X21486000Y-35755640D01*
X21486000Y-36494360D01*
X21484437Y-36510232D01*
X21481597Y-36519595D01*
X21476984Y-36528224D01*
X21470782Y-36535782D01*
X21463224Y-36541984D01*
X21454595Y-36546597D01*
X21445232Y-36549437D01*
X21429360Y-36551000D01*
X21090640Y-36551000D01*
X21074768Y-36549437D01*
X21065405Y-36546597D01*
X21056776Y-36541984D01*
X21049218Y-36535782D01*
X21043016Y-36528224D01*
X21038403Y-36519595D01*
X21035563Y-36510232D01*
X21034000Y-36494360D01*
X21034000Y-35755640D01*
X21035563Y-35739768D01*
X21038403Y-35730405D01*
X21043016Y-35721776D01*
X21049218Y-35714218D01*
X21056776Y-35708016D01*
X21065405Y-35703403D01*
X21074768Y-35700563D01*
X21090640Y-35699000D01*
X21429360Y-35699000D01*
X21445232Y-35700563D01*
G37*
G36*
X22245232Y-35700563D02*
G01*
X22254595Y-35703403D01*
X22263224Y-35708016D01*
X22270782Y-35714218D01*
X22276984Y-35721776D01*
X22281597Y-35730405D01*
X22284437Y-35739768D01*
X22286000Y-35755640D01*
X22286000Y-36494360D01*
X22284437Y-36510232D01*
X22281597Y-36519595D01*
X22276984Y-36528224D01*
X22270782Y-36535782D01*
X22263224Y-36541984D01*
X22254595Y-36546597D01*
X22245232Y-36549437D01*
X22229360Y-36551000D01*
X21890640Y-36551000D01*
X21874768Y-36549437D01*
X21865405Y-36546597D01*
X21856776Y-36541984D01*
X21849218Y-36535782D01*
X21843016Y-36528224D01*
X21838403Y-36519595D01*
X21835563Y-36510232D01*
X21834000Y-36494360D01*
X21834000Y-35755640D01*
X21835563Y-35739768D01*
X21838403Y-35730405D01*
X21843016Y-35721776D01*
X21849218Y-35714218D01*
X21856776Y-35708016D01*
X21865405Y-35703403D01*
X21874768Y-35700563D01*
X21890640Y-35699000D01*
X22229360Y-35699000D01*
X22245232Y-35700563D01*
G37*
G36*
X23045232Y-35700563D02*
G01*
X23054595Y-35703403D01*
X23063224Y-35708016D01*
X23070782Y-35714218D01*
X23076984Y-35721776D01*
X23081597Y-35730405D01*
X23084437Y-35739768D01*
X23086000Y-35755640D01*
X23086000Y-36494360D01*
X23084437Y-36510232D01*
X23081597Y-36519595D01*
X23076984Y-36528224D01*
X23070782Y-36535782D01*
X23063224Y-36541984D01*
X23054595Y-36546597D01*
X23045232Y-36549437D01*
X23029360Y-36551000D01*
X22690640Y-36551000D01*
X22674768Y-36549437D01*
X22665405Y-36546597D01*
X22656776Y-36541984D01*
X22649218Y-36535782D01*
X22643016Y-36528224D01*
X22638403Y-36519595D01*
X22635563Y-36510232D01*
X22634000Y-36494360D01*
X22634000Y-35755640D01*
X22635563Y-35739768D01*
X22638403Y-35730405D01*
X22643016Y-35721776D01*
X22649218Y-35714218D01*
X22656776Y-35708016D01*
X22665405Y-35703403D01*
X22674768Y-35700563D01*
X22690640Y-35699000D01*
X23029360Y-35699000D01*
X23045232Y-35700563D01*
G37*
G36*
X23845232Y-35700563D02*
G01*
X23854595Y-35703403D01*
X23863224Y-35708016D01*
X23870782Y-35714218D01*
X23876984Y-35721776D01*
X23881597Y-35730405D01*
X23884437Y-35739768D01*
X23886000Y-35755640D01*
X23886000Y-36494360D01*
X23884437Y-36510232D01*
X23881597Y-36519595D01*
X23876984Y-36528224D01*
X23870782Y-36535782D01*
X23863224Y-36541984D01*
X23854595Y-36546597D01*
X23845232Y-36549437D01*
X23829360Y-36551000D01*
X23490640Y-36551000D01*
X23474768Y-36549437D01*
X23465405Y-36546597D01*
X23456776Y-36541984D01*
X23449218Y-36535782D01*
X23443016Y-36528224D01*
X23438403Y-36519595D01*
X23435563Y-36510232D01*
X23434000Y-36494360D01*
X23434000Y-35755640D01*
X23435563Y-35739768D01*
X23438403Y-35730405D01*
X23443016Y-35721776D01*
X23449218Y-35714218D01*
X23456776Y-35708016D01*
X23465405Y-35703403D01*
X23474768Y-35700563D01*
X23490640Y-35699000D01*
X23829360Y-35699000D01*
X23845232Y-35700563D01*
G37*
G36*
X24645232Y-35700563D02*
G01*
X24654595Y-35703403D01*
X24663224Y-35708016D01*
X24670782Y-35714218D01*
X24676984Y-35721776D01*
X24681597Y-35730405D01*
X24684437Y-35739768D01*
X24686000Y-35755640D01*
X24686000Y-36494360D01*
X24684437Y-36510232D01*
X24681597Y-36519595D01*
X24676984Y-36528224D01*
X24670782Y-36535782D01*
X24663224Y-36541984D01*
X24654595Y-36546597D01*
X24645232Y-36549437D01*
X24629360Y-36551000D01*
X24290640Y-36551000D01*
X24274768Y-36549437D01*
X24265405Y-36546597D01*
X24256776Y-36541984D01*
X24249218Y-36535782D01*
X24243016Y-36528224D01*
X24238403Y-36519595D01*
X24235563Y-36510232D01*
X24234000Y-36494360D01*
X24234000Y-35755640D01*
X24235563Y-35739768D01*
X24238403Y-35730405D01*
X24243016Y-35721776D01*
X24249218Y-35714218D01*
X24256776Y-35708016D01*
X24265405Y-35703403D01*
X24274768Y-35700563D01*
X24290640Y-35699000D01*
X24629360Y-35699000D01*
X24645232Y-35700563D01*
G37*
G36*
X19429591Y-34567585D02*
G01*
X19463569Y-34577893D01*
X19494890Y-34594634D01*
X19522339Y-34617161D01*
X19544866Y-34644610D01*
X19561607Y-34675931D01*
X19571915Y-34709909D01*
X19576000Y-34751390D01*
X19576000Y-35352610D01*
X19571915Y-35394091D01*
X19561607Y-35428069D01*
X19544866Y-35459390D01*
X19522339Y-35486839D01*
X19494890Y-35509366D01*
X19463569Y-35526107D01*
X19429591Y-35536415D01*
X19388110Y-35540500D01*
X18711890Y-35540500D01*
X18670409Y-35536415D01*
X18636431Y-35526107D01*
X18605110Y-35509366D01*
X18577661Y-35486839D01*
X18555134Y-35459390D01*
X18538393Y-35428069D01*
X18528085Y-35394091D01*
X18524000Y-35352610D01*
X18524000Y-34751390D01*
X18528085Y-34709909D01*
X18538393Y-34675931D01*
X18555134Y-34644610D01*
X18577661Y-34617161D01*
X18605110Y-34594634D01*
X18636431Y-34577893D01*
X18670409Y-34567585D01*
X18711890Y-34563500D01*
X19388110Y-34563500D01*
X19429591Y-34567585D01*
G37*
G36*
X17905591Y-34567585D02*
G01*
X17939569Y-34577893D01*
X17970890Y-34594634D01*
X17998339Y-34617161D01*
X18020866Y-34644610D01*
X18037607Y-34675931D01*
X18047915Y-34709909D01*
X18052000Y-34751390D01*
X18052000Y-35352610D01*
X18047915Y-35394091D01*
X18037607Y-35428069D01*
X18020866Y-35459390D01*
X17998339Y-35486839D01*
X17970890Y-35509366D01*
X17939569Y-35526107D01*
X17905591Y-35536415D01*
X17864110Y-35540500D01*
X17187890Y-35540500D01*
X17146409Y-35536415D01*
X17112431Y-35526107D01*
X17081110Y-35509366D01*
X17053661Y-35486839D01*
X17031134Y-35459390D01*
X17014393Y-35428069D01*
X17004085Y-35394091D01*
X17000000Y-35352610D01*
X17000000Y-34751390D01*
X17004085Y-34709909D01*
X17014393Y-34675931D01*
X17031134Y-34644610D01*
X17053661Y-34617161D01*
X17081110Y-34594634D01*
X17112431Y-34577893D01*
X17146409Y-34567585D01*
X17187890Y-34563500D01*
X17864110Y-34563500D01*
X17905591Y-34567585D01*
G37*
G36*
X43827000Y-35521000D02*
G01*
X40725000Y-35521000D01*
X40725000Y-34219000D01*
X43827000Y-34219000D01*
X43827000Y-35521000D01*
G37*
G36*
X57827000Y-35521000D02*
G01*
X54725000Y-35521000D01*
X54725000Y-34219000D01*
X57827000Y-34219000D01*
X57827000Y-35521000D01*
G37*
G36*
X23045232Y-33300563D02*
G01*
X23054595Y-33303403D01*
X23063224Y-33308016D01*
X23070782Y-33314218D01*
X23076984Y-33321776D01*
X23081597Y-33330405D01*
X23084437Y-33339768D01*
X23086000Y-33355640D01*
X23086000Y-34094360D01*
X23084437Y-34110232D01*
X23081597Y-34119595D01*
X23076984Y-34128224D01*
X23070782Y-34135782D01*
X23063224Y-34141984D01*
X23054595Y-34146597D01*
X23045232Y-34149437D01*
X23029360Y-34151000D01*
X22690640Y-34151000D01*
X22674768Y-34149437D01*
X22665405Y-34146597D01*
X22656776Y-34141984D01*
X22649218Y-34135782D01*
X22643016Y-34128224D01*
X22638403Y-34119595D01*
X22635563Y-34110232D01*
X22634000Y-34094360D01*
X22634000Y-33355640D01*
X22635563Y-33339768D01*
X22638403Y-33330405D01*
X22643016Y-33321776D01*
X22649218Y-33314218D01*
X22656776Y-33308016D01*
X22665405Y-33303403D01*
X22674768Y-33300563D01*
X22690640Y-33299000D01*
X23029360Y-33299000D01*
X23045232Y-33300563D01*
G37*
G36*
X20645232Y-33300563D02*
G01*
X20654595Y-33303403D01*
X20663224Y-33308016D01*
X20670782Y-33314218D01*
X20676984Y-33321776D01*
X20681597Y-33330405D01*
X20684437Y-33339768D01*
X20686000Y-33355640D01*
X20686000Y-34094360D01*
X20684437Y-34110232D01*
X20681597Y-34119595D01*
X20676984Y-34128224D01*
X20670782Y-34135782D01*
X20663224Y-34141984D01*
X20654595Y-34146597D01*
X20645232Y-34149437D01*
X20629360Y-34151000D01*
X20290640Y-34151000D01*
X20274768Y-34149437D01*
X20265405Y-34146597D01*
X20256776Y-34141984D01*
X20249218Y-34135782D01*
X20243016Y-34128224D01*
X20238403Y-34119595D01*
X20235563Y-34110232D01*
X20234000Y-34094360D01*
X20234000Y-33355640D01*
X20235563Y-33339768D01*
X20238403Y-33330405D01*
X20243016Y-33321776D01*
X20249218Y-33314218D01*
X20256776Y-33308016D01*
X20265405Y-33303403D01*
X20274768Y-33300563D01*
X20290640Y-33299000D01*
X20629360Y-33299000D01*
X20645232Y-33300563D01*
G37*
G36*
X22245232Y-33300563D02*
G01*
X22254595Y-33303403D01*
X22263224Y-33308016D01*
X22270782Y-33314218D01*
X22276984Y-33321776D01*
X22281597Y-33330405D01*
X22284437Y-33339768D01*
X22286000Y-33355640D01*
X22286000Y-34094360D01*
X22284437Y-34110232D01*
X22281597Y-34119595D01*
X22276984Y-34128224D01*
X22270782Y-34135782D01*
X22263224Y-34141984D01*
X22254595Y-34146597D01*
X22245232Y-34149437D01*
X22229360Y-34151000D01*
X21890640Y-34151000D01*
X21874768Y-34149437D01*
X21865405Y-34146597D01*
X21856776Y-34141984D01*
X21849218Y-34135782D01*
X21843016Y-34128224D01*
X21838403Y-34119595D01*
X21835563Y-34110232D01*
X21834000Y-34094360D01*
X21834000Y-33355640D01*
X21835563Y-33339768D01*
X21838403Y-33330405D01*
X21843016Y-33321776D01*
X21849218Y-33314218D01*
X21856776Y-33308016D01*
X21865405Y-33303403D01*
X21874768Y-33300563D01*
X21890640Y-33299000D01*
X22229360Y-33299000D01*
X22245232Y-33300563D01*
G37*
G36*
X21445232Y-33300563D02*
G01*
X21454595Y-33303403D01*
X21463224Y-33308016D01*
X21470782Y-33314218D01*
X21476984Y-33321776D01*
X21481597Y-33330405D01*
X21484437Y-33339768D01*
X21486000Y-33355640D01*
X21486000Y-34094360D01*
X21484437Y-34110232D01*
X21481597Y-34119595D01*
X21476984Y-34128224D01*
X21470782Y-34135782D01*
X21463224Y-34141984D01*
X21454595Y-34146597D01*
X21445232Y-34149437D01*
X21429360Y-34151000D01*
X21090640Y-34151000D01*
X21074768Y-34149437D01*
X21065405Y-34146597D01*
X21056776Y-34141984D01*
X21049218Y-34135782D01*
X21043016Y-34128224D01*
X21038403Y-34119595D01*
X21035563Y-34110232D01*
X21034000Y-34094360D01*
X21034000Y-33355640D01*
X21035563Y-33339768D01*
X21038403Y-33330405D01*
X21043016Y-33321776D01*
X21049218Y-33314218D01*
X21056776Y-33308016D01*
X21065405Y-33303403D01*
X21074768Y-33300563D01*
X21090640Y-33299000D01*
X21429360Y-33299000D01*
X21445232Y-33300563D01*
G37*
G36*
X24645232Y-33300563D02*
G01*
X24654595Y-33303403D01*
X24663224Y-33308016D01*
X24670782Y-33314218D01*
X24676984Y-33321776D01*
X24681597Y-33330405D01*
X24684437Y-33339768D01*
X24686000Y-33355640D01*
X24686000Y-34094360D01*
X24684437Y-34110232D01*
X24681597Y-34119595D01*
X24676984Y-34128224D01*
X24670782Y-34135782D01*
X24663224Y-34141984D01*
X24654595Y-34146597D01*
X24645232Y-34149437D01*
X24629360Y-34151000D01*
X24290640Y-34151000D01*
X24274768Y-34149437D01*
X24265405Y-34146597D01*
X24256776Y-34141984D01*
X24249218Y-34135782D01*
X24243016Y-34128224D01*
X24238403Y-34119595D01*
X24235563Y-34110232D01*
X24234000Y-34094360D01*
X24234000Y-33355640D01*
X24235563Y-33339768D01*
X24238403Y-33330405D01*
X24243016Y-33321776D01*
X24249218Y-33314218D01*
X24256776Y-33308016D01*
X24265405Y-33303403D01*
X24274768Y-33300563D01*
X24290640Y-33299000D01*
X24629360Y-33299000D01*
X24645232Y-33300563D01*
G37*
G36*
X25445232Y-33300563D02*
G01*
X25454595Y-33303403D01*
X25463224Y-33308016D01*
X25470782Y-33314218D01*
X25476984Y-33321776D01*
X25481597Y-33330405D01*
X25484437Y-33339768D01*
X25486000Y-33355640D01*
X25486000Y-34094360D01*
X25484437Y-34110232D01*
X25481597Y-34119595D01*
X25476984Y-34128224D01*
X25470782Y-34135782D01*
X25463224Y-34141984D01*
X25454595Y-34146597D01*
X25445232Y-34149437D01*
X25429360Y-34151000D01*
X25090640Y-34151000D01*
X25074768Y-34149437D01*
X25065405Y-34146597D01*
X25056776Y-34141984D01*
X25049218Y-34135782D01*
X25043016Y-34128224D01*
X25038403Y-34119595D01*
X25035563Y-34110232D01*
X25034000Y-34094360D01*
X25034000Y-33355640D01*
X25035563Y-33339768D01*
X25038403Y-33330405D01*
X25043016Y-33321776D01*
X25049218Y-33314218D01*
X25056776Y-33308016D01*
X25065405Y-33303403D01*
X25074768Y-33300563D01*
X25090640Y-33299000D01*
X25429360Y-33299000D01*
X25445232Y-33300563D01*
G37*
G36*
X23845232Y-33300563D02*
G01*
X23854595Y-33303403D01*
X23863224Y-33308016D01*
X23870782Y-33314218D01*
X23876984Y-33321776D01*
X23881597Y-33330405D01*
X23884437Y-33339768D01*
X23886000Y-33355640D01*
X23886000Y-34094360D01*
X23884437Y-34110232D01*
X23881597Y-34119595D01*
X23876984Y-34128224D01*
X23870782Y-34135782D01*
X23863224Y-34141984D01*
X23854595Y-34146597D01*
X23845232Y-34149437D01*
X23829360Y-34151000D01*
X23490640Y-34151000D01*
X23474768Y-34149437D01*
X23465405Y-34146597D01*
X23456776Y-34141984D01*
X23449218Y-34135782D01*
X23443016Y-34128224D01*
X23438403Y-34119595D01*
X23435563Y-34110232D01*
X23434000Y-34094360D01*
X23434000Y-33355640D01*
X23435563Y-33339768D01*
X23438403Y-33330405D01*
X23443016Y-33321776D01*
X23449218Y-33314218D01*
X23456776Y-33308016D01*
X23465405Y-33303403D01*
X23474768Y-33300563D01*
X23490640Y-33299000D01*
X23829360Y-33299000D01*
X23845232Y-33300563D01*
G37*
G36*
X57827000Y-33521000D02*
G01*
X54725000Y-33521000D01*
X54725000Y-32219000D01*
X57827000Y-32219000D01*
X57827000Y-33521000D01*
G37*
G36*
X43827000Y-33521000D02*
G01*
X40725000Y-33521000D01*
X40725000Y-32219000D01*
X43827000Y-32219000D01*
X43827000Y-33521000D01*
G37*
G36*
X57827000Y-31521000D02*
G01*
X54725000Y-31521000D01*
X54725000Y-30219000D01*
X57827000Y-30219000D01*
X57827000Y-31521000D01*
G37*
G36*
X43827000Y-31521000D02*
G01*
X40725000Y-31521000D01*
X40725000Y-30219000D01*
X43827000Y-30219000D01*
X43827000Y-31521000D01*
G37*
G36*
X43827000Y-29521000D02*
G01*
X40725000Y-29521000D01*
X40725000Y-28219000D01*
X43827000Y-28219000D01*
X43827000Y-29521000D01*
G37*
G36*
X57827000Y-29521000D02*
G01*
X54725000Y-29521000D01*
X54725000Y-28219000D01*
X57827000Y-28219000D01*
X57827000Y-29521000D01*
G37*
G36*
X24933170Y-27871803D02*
G01*
X24944875Y-27875354D01*
X24955665Y-27881121D01*
X24965119Y-27888881D01*
X24972879Y-27898335D01*
X24978646Y-27909125D01*
X24982197Y-27920830D01*
X24984000Y-27939138D01*
X24984000Y-28702862D01*
X24982197Y-28721170D01*
X24978646Y-28732875D01*
X24972879Y-28743665D01*
X24965119Y-28753119D01*
X24955665Y-28760879D01*
X24944875Y-28766646D01*
X24933170Y-28770197D01*
X24914862Y-28772000D01*
X24551138Y-28772000D01*
X24532830Y-28770197D01*
X24521125Y-28766646D01*
X24510335Y-28760879D01*
X24500881Y-28753119D01*
X24493121Y-28743665D01*
X24487354Y-28732875D01*
X24483803Y-28721170D01*
X24482000Y-28702862D01*
X24482000Y-27939138D01*
X24483803Y-27920830D01*
X24487354Y-27909125D01*
X24493121Y-27898335D01*
X24500881Y-27888881D01*
X24510335Y-27881121D01*
X24521125Y-27875354D01*
X24532830Y-27871803D01*
X24551138Y-27870000D01*
X24914862Y-27870000D01*
X24933170Y-27871803D01*
G37*
G36*
X23933170Y-27871803D02*
G01*
X23944875Y-27875354D01*
X23955665Y-27881121D01*
X23965119Y-27888881D01*
X23972879Y-27898335D01*
X23978646Y-27909125D01*
X23982197Y-27920830D01*
X23984000Y-27939138D01*
X23984000Y-28702862D01*
X23982197Y-28721170D01*
X23978646Y-28732875D01*
X23972879Y-28743665D01*
X23965119Y-28753119D01*
X23955665Y-28760879D01*
X23944875Y-28766646D01*
X23933170Y-28770197D01*
X23914862Y-28772000D01*
X23551138Y-28772000D01*
X23532830Y-28770197D01*
X23521125Y-28766646D01*
X23510335Y-28760879D01*
X23500881Y-28753119D01*
X23493121Y-28743665D01*
X23487354Y-28732875D01*
X23483803Y-28721170D01*
X23482000Y-28702862D01*
X23482000Y-27939138D01*
X23483803Y-27920830D01*
X23487354Y-27909125D01*
X23493121Y-27898335D01*
X23500881Y-27888881D01*
X23510335Y-27881121D01*
X23521125Y-27875354D01*
X23532830Y-27871803D01*
X23551138Y-27870000D01*
X23914862Y-27870000D01*
X23933170Y-27871803D01*
G37*
G36*
X22933170Y-27871803D02*
G01*
X22944875Y-27875354D01*
X22955665Y-27881121D01*
X22965119Y-27888881D01*
X22972879Y-27898335D01*
X22978646Y-27909125D01*
X22982197Y-27920830D01*
X22984000Y-27939138D01*
X22984000Y-28702862D01*
X22982197Y-28721170D01*
X22978646Y-28732875D01*
X22972879Y-28743665D01*
X22965119Y-28753119D01*
X22955665Y-28760879D01*
X22944875Y-28766646D01*
X22933170Y-28770197D01*
X22914862Y-28772000D01*
X22551138Y-28772000D01*
X22532830Y-28770197D01*
X22521125Y-28766646D01*
X22510335Y-28760879D01*
X22500881Y-28753119D01*
X22493121Y-28743665D01*
X22487354Y-28732875D01*
X22483803Y-28721170D01*
X22482000Y-28702862D01*
X22482000Y-27939138D01*
X22483803Y-27920830D01*
X22487354Y-27909125D01*
X22493121Y-27898335D01*
X22500881Y-27888881D01*
X22510335Y-27881121D01*
X22521125Y-27875354D01*
X22532830Y-27871803D01*
X22551138Y-27870000D01*
X22914862Y-27870000D01*
X22933170Y-27871803D01*
G37*
G36*
X24933170Y-24971803D02*
G01*
X24944875Y-24975354D01*
X24955665Y-24981121D01*
X24965119Y-24988881D01*
X24972879Y-24998335D01*
X24978646Y-25009125D01*
X24982197Y-25020830D01*
X24984000Y-25039138D01*
X24984000Y-25802862D01*
X24982197Y-25821170D01*
X24978646Y-25832875D01*
X24972879Y-25843665D01*
X24965119Y-25853119D01*
X24955665Y-25860879D01*
X24944875Y-25866646D01*
X24933170Y-25870197D01*
X24914862Y-25872000D01*
X24551138Y-25872000D01*
X24532830Y-25870197D01*
X24521125Y-25866646D01*
X24510335Y-25860879D01*
X24500881Y-25853119D01*
X24493121Y-25843665D01*
X24487354Y-25832875D01*
X24483803Y-25821170D01*
X24482000Y-25802862D01*
X24482000Y-25039138D01*
X24483803Y-25020830D01*
X24487354Y-25009125D01*
X24493121Y-24998335D01*
X24500881Y-24988881D01*
X24510335Y-24981121D01*
X24521125Y-24975354D01*
X24532830Y-24971803D01*
X24551138Y-24970000D01*
X24914862Y-24970000D01*
X24933170Y-24971803D01*
G37*
G36*
X22933170Y-24971803D02*
G01*
X22944875Y-24975354D01*
X22955665Y-24981121D01*
X22965119Y-24988881D01*
X22972879Y-24998335D01*
X22978646Y-25009125D01*
X22982197Y-25020830D01*
X22984000Y-25039138D01*
X22984000Y-25802862D01*
X22982197Y-25821170D01*
X22978646Y-25832875D01*
X22972879Y-25843665D01*
X22965119Y-25853119D01*
X22955665Y-25860879D01*
X22944875Y-25866646D01*
X22933170Y-25870197D01*
X22914862Y-25872000D01*
X22551138Y-25872000D01*
X22532830Y-25870197D01*
X22521125Y-25866646D01*
X22510335Y-25860879D01*
X22500881Y-25853119D01*
X22493121Y-25843665D01*
X22487354Y-25832875D01*
X22483803Y-25821170D01*
X22482000Y-25802862D01*
X22482000Y-25039138D01*
X22483803Y-25020830D01*
X22487354Y-25009125D01*
X22493121Y-24998335D01*
X22500881Y-24988881D01*
X22510335Y-24981121D01*
X22521125Y-24975354D01*
X22532830Y-24971803D01*
X22551138Y-24970000D01*
X22914862Y-24970000D01*
X22933170Y-24971803D01*
G37*
G36*
X23933170Y-24971803D02*
G01*
X23944875Y-24975354D01*
X23955665Y-24981121D01*
X23965119Y-24988881D01*
X23972879Y-24998335D01*
X23978646Y-25009125D01*
X23982197Y-25020830D01*
X23984000Y-25039138D01*
X23984000Y-25802862D01*
X23982197Y-25821170D01*
X23978646Y-25832875D01*
X23972879Y-25843665D01*
X23965119Y-25853119D01*
X23955665Y-25860879D01*
X23944875Y-25866646D01*
X23933170Y-25870197D01*
X23914862Y-25872000D01*
X23551138Y-25872000D01*
X23532830Y-25870197D01*
X23521125Y-25866646D01*
X23510335Y-25860879D01*
X23500881Y-25853119D01*
X23493121Y-25843665D01*
X23487354Y-25832875D01*
X23483803Y-25821170D01*
X23482000Y-25802862D01*
X23482000Y-25039138D01*
X23483803Y-25020830D01*
X23487354Y-25009125D01*
X23493121Y-24998335D01*
X23500881Y-24988881D01*
X23510335Y-24981121D01*
X23521125Y-24975354D01*
X23532830Y-24971803D01*
X23551138Y-24970000D01*
X23914862Y-24970000D01*
X23933170Y-24971803D01*
G37*
G36*
X39246348Y-18717820D02*
G01*
X39246350Y-18717821D01*
X39246351Y-18717821D01*
X39387574Y-18776317D01*
X39387577Y-18776319D01*
X39514669Y-18861239D01*
X39622761Y-18969331D01*
X39707681Y-19096423D01*
X39707683Y-19096426D01*
X39766179Y-19237649D01*
X39796000Y-19387571D01*
X39796000Y-19540429D01*
X39766179Y-19690351D01*
X39707683Y-19831574D01*
X39707681Y-19831577D01*
X39622761Y-19958669D01*
X39514669Y-20066761D01*
X39387577Y-20151681D01*
X39387574Y-20151683D01*
X39246351Y-20210179D01*
X39246350Y-20210179D01*
X39246348Y-20210180D01*
X39096431Y-20240000D01*
X38943569Y-20240000D01*
X38793652Y-20210180D01*
X38793650Y-20210179D01*
X38793649Y-20210179D01*
X38652426Y-20151683D01*
X38652423Y-20151681D01*
X38525331Y-20066761D01*
X38417239Y-19958669D01*
X38332319Y-19831577D01*
X38332317Y-19831574D01*
X38273821Y-19690351D01*
X38244000Y-19540429D01*
X38244000Y-19387571D01*
X38273821Y-19237649D01*
X38332317Y-19096426D01*
X38332319Y-19096423D01*
X38417239Y-18969331D01*
X38525331Y-18861239D01*
X38652423Y-18776319D01*
X38652426Y-18776317D01*
X38793649Y-18717821D01*
X38793650Y-18717821D01*
X38793652Y-18717820D01*
X38943569Y-18688000D01*
X39096431Y-18688000D01*
X39246348Y-18717820D01*
G37*
G36*
X34246348Y-18717820D02*
G01*
X34246350Y-18717821D01*
X34246351Y-18717821D01*
X34387574Y-18776317D01*
X34387577Y-18776319D01*
X34514669Y-18861239D01*
X34622761Y-18969331D01*
X34707681Y-19096423D01*
X34707683Y-19096426D01*
X34766179Y-19237649D01*
X34796000Y-19387571D01*
X34796000Y-19540429D01*
X34766179Y-19690351D01*
X34707683Y-19831574D01*
X34707681Y-19831577D01*
X34622761Y-19958669D01*
X34514669Y-20066761D01*
X34387577Y-20151681D01*
X34387574Y-20151683D01*
X34246351Y-20210179D01*
X34246350Y-20210179D01*
X34246348Y-20210180D01*
X34096431Y-20240000D01*
X33943569Y-20240000D01*
X33793652Y-20210180D01*
X33793650Y-20210179D01*
X33793649Y-20210179D01*
X33652426Y-20151683D01*
X33652423Y-20151681D01*
X33525331Y-20066761D01*
X33417239Y-19958669D01*
X33332319Y-19831577D01*
X33332317Y-19831574D01*
X33273821Y-19690351D01*
X33244000Y-19540429D01*
X33244000Y-19387571D01*
X33273821Y-19237649D01*
X33332317Y-19096426D01*
X33332319Y-19096423D01*
X33417239Y-18969331D01*
X33525331Y-18861239D01*
X33652423Y-18776319D01*
X33652426Y-18776317D01*
X33793649Y-18717821D01*
X33793650Y-18717821D01*
X33793652Y-18717820D01*
X33943569Y-18688000D01*
X34096431Y-18688000D01*
X34246348Y-18717820D01*
G37*
G36*
X58164473Y-15510938D02*
G01*
X58292049Y-15563782D01*
X58406859Y-15640495D01*
X58504505Y-15738141D01*
X58581218Y-15852951D01*
X58634062Y-15980527D01*
X58661000Y-16115956D01*
X58661000Y-16254044D01*
X58634062Y-16389473D01*
X58581218Y-16517049D01*
X58504505Y-16631859D01*
X58406859Y-16729505D01*
X58292051Y-16806217D01*
X58259944Y-16819516D01*
X58238334Y-16831067D01*
X58219392Y-16846613D01*
X58203847Y-16865555D01*
X58192296Y-16887165D01*
X58185183Y-16910614D01*
X58182781Y-16935001D01*
X58185183Y-16959387D01*
X58192296Y-16982836D01*
X58203847Y-17004446D01*
X58219393Y-17023388D01*
X58238335Y-17038933D01*
X58259944Y-17050484D01*
X58292051Y-17063783D01*
X58406859Y-17140495D01*
X58504505Y-17238141D01*
X58581218Y-17352951D01*
X58634062Y-17480527D01*
X58661000Y-17615956D01*
X58661000Y-17754044D01*
X58634062Y-17889473D01*
X58581218Y-18017049D01*
X58504505Y-18131859D01*
X58406859Y-18229505D01*
X58292049Y-18306218D01*
X58164473Y-18359062D01*
X58029044Y-18386000D01*
X57890956Y-18386000D01*
X57755527Y-18359062D01*
X57627951Y-18306218D01*
X57513141Y-18229505D01*
X57415495Y-18131859D01*
X57338782Y-18017049D01*
X57285938Y-17889473D01*
X57259000Y-17754044D01*
X57259000Y-17615956D01*
X57285938Y-17480527D01*
X57338782Y-17352951D01*
X57415495Y-17238141D01*
X57513141Y-17140495D01*
X57627949Y-17063783D01*
X57660056Y-17050484D01*
X57681666Y-17038933D01*
X57700608Y-17023387D01*
X57716153Y-17004445D01*
X57727704Y-16982835D01*
X57734817Y-16959386D01*
X57737219Y-16934999D01*
X57734817Y-16910613D01*
X57727704Y-16887164D01*
X57716153Y-16865554D01*
X57700607Y-16846612D01*
X57681665Y-16831067D01*
X57660056Y-16819516D01*
X57627949Y-16806217D01*
X57513141Y-16729505D01*
X57415495Y-16631859D01*
X57338782Y-16517049D01*
X57285938Y-16389473D01*
X57259000Y-16254044D01*
X57259000Y-16115956D01*
X57285938Y-15980527D01*
X57338782Y-15852951D01*
X57415495Y-15738141D01*
X57513141Y-15640495D01*
X57627951Y-15563782D01*
X57755527Y-15510938D01*
X57890956Y-15484000D01*
X58029044Y-15484000D01*
X58164473Y-15510938D01*
G37*
G36*
X33147618Y-15772420D02*
G01*
X33238404Y-15799960D01*
X33270336Y-15809646D01*
X33383425Y-15870094D01*
X33482554Y-15951446D01*
X33563906Y-16050575D01*
X33624354Y-16163664D01*
X33634040Y-16195596D01*
X33661580Y-16286382D01*
X33671000Y-16382027D01*
X33671000Y-17145973D01*
X33661580Y-17241618D01*
X33637711Y-17320304D01*
X33624354Y-17364336D01*
X33563906Y-17477425D01*
X33482554Y-17576553D01*
X33383424Y-17657906D01*
X33270335Y-17718354D01*
X33255335Y-17722904D01*
X33147617Y-17755580D01*
X33020000Y-17768149D01*
X32892382Y-17755580D01*
X32784664Y-17722904D01*
X32769664Y-17718354D01*
X32656575Y-17657906D01*
X32557447Y-17576554D01*
X32476094Y-17477424D01*
X32415646Y-17364335D01*
X32402290Y-17320304D01*
X32378420Y-17241617D01*
X32369000Y-17145972D01*
X32369000Y-16382027D01*
X32378420Y-16286382D01*
X32415645Y-16163668D01*
X32441148Y-16115956D01*
X32476095Y-16050575D01*
X32557447Y-15951446D01*
X32656576Y-15870094D01*
X32769665Y-15809646D01*
X32801597Y-15799960D01*
X32892383Y-15772420D01*
X33020000Y-15759851D01*
X33147618Y-15772420D01*
G37*
G36*
X40147617Y-15772420D02*
G01*
X40238403Y-15799960D01*
X40270335Y-15809646D01*
X40383424Y-15870094D01*
X40482554Y-15951447D01*
X40563906Y-16050575D01*
X40624354Y-16163664D01*
X40634040Y-16195596D01*
X40661580Y-16286382D01*
X40671000Y-16382027D01*
X40671000Y-17145973D01*
X40661580Y-17241618D01*
X40637711Y-17320304D01*
X40624354Y-17364336D01*
X40563906Y-17477425D01*
X40482554Y-17576554D01*
X40383425Y-17657906D01*
X40270336Y-17718354D01*
X40255336Y-17722904D01*
X40147618Y-17755580D01*
X40020000Y-17768149D01*
X39892383Y-17755580D01*
X39784665Y-17722904D01*
X39769665Y-17718354D01*
X39656576Y-17657906D01*
X39557447Y-17576554D01*
X39476095Y-17477425D01*
X39415648Y-17364337D01*
X39415645Y-17364332D01*
X39378420Y-17241618D01*
X39369000Y-17145973D01*
X39369000Y-16382028D01*
X39378420Y-16286383D01*
X39415645Y-16163669D01*
X39415646Y-16163665D01*
X39476094Y-16050576D01*
X39557447Y-15951446D01*
X39656575Y-15870094D01*
X39769664Y-15809646D01*
X39801596Y-15799960D01*
X39892382Y-15772420D01*
X40020000Y-15759851D01*
X40147617Y-15772420D01*
G37*
G36*
X19187601Y-16559397D02*
G01*
X19226305Y-16567096D01*
X19258340Y-16580365D01*
X19335680Y-16612400D01*
X19434115Y-16678173D01*
X19517827Y-16761885D01*
X19583600Y-16860320D01*
X19628904Y-16969696D01*
X19652000Y-17085805D01*
X19652000Y-17204195D01*
X19628904Y-17320304D01*
X19583600Y-17429680D01*
X19517827Y-17528115D01*
X19434115Y-17611827D01*
X19335680Y-17677600D01*
X19258340Y-17709635D01*
X19226305Y-17722904D01*
X19187601Y-17730603D01*
X19110195Y-17746000D01*
X18991805Y-17746000D01*
X18914399Y-17730603D01*
X18875695Y-17722904D01*
X18843660Y-17709635D01*
X18766320Y-17677600D01*
X18667885Y-17611827D01*
X18584173Y-17528115D01*
X18518400Y-17429680D01*
X18473096Y-17320304D01*
X18450000Y-17204195D01*
X18450000Y-17085805D01*
X18473096Y-16969696D01*
X18518400Y-16860320D01*
X18584173Y-16761885D01*
X18667885Y-16678173D01*
X18766320Y-16612400D01*
X18843660Y-16580365D01*
X18875695Y-16567096D01*
X18914399Y-16559397D01*
X18991805Y-16544000D01*
X19110195Y-16544000D01*
X19187601Y-16559397D01*
G37*
G36*
X21187601Y-16559397D02*
G01*
X21226305Y-16567096D01*
X21258340Y-16580365D01*
X21335680Y-16612400D01*
X21434115Y-16678173D01*
X21517827Y-16761885D01*
X21583600Y-16860320D01*
X21628904Y-16969696D01*
X21652000Y-17085805D01*
X21652000Y-17204195D01*
X21628904Y-17320304D01*
X21583600Y-17429680D01*
X21517827Y-17528115D01*
X21434115Y-17611827D01*
X21335680Y-17677600D01*
X21258340Y-17709635D01*
X21226305Y-17722904D01*
X21187601Y-17730603D01*
X21110195Y-17746000D01*
X20991805Y-17746000D01*
X20914399Y-17730603D01*
X20875695Y-17722904D01*
X20843660Y-17709635D01*
X20766320Y-17677600D01*
X20667885Y-17611827D01*
X20584173Y-17528115D01*
X20518400Y-17429680D01*
X20473096Y-17320304D01*
X20450000Y-17204195D01*
X20450000Y-17085805D01*
X20473096Y-16969696D01*
X20518400Y-16860320D01*
X20584173Y-16761885D01*
X20667885Y-16678173D01*
X20766320Y-16612400D01*
X20843660Y-16580365D01*
X20875695Y-16567096D01*
X20914399Y-16559397D01*
X20991805Y-16544000D01*
X21110195Y-16544000D01*
X21187601Y-16559397D01*
G37*
G36*
X23187601Y-16559397D02*
G01*
X23226305Y-16567096D01*
X23258340Y-16580365D01*
X23335680Y-16612400D01*
X23434115Y-16678173D01*
X23517827Y-16761885D01*
X23583600Y-16860320D01*
X23628904Y-16969696D01*
X23652000Y-17085805D01*
X23652000Y-17204195D01*
X23628904Y-17320304D01*
X23583600Y-17429680D01*
X23517827Y-17528115D01*
X23434115Y-17611827D01*
X23335680Y-17677600D01*
X23258340Y-17709635D01*
X23226305Y-17722904D01*
X23187601Y-17730603D01*
X23110195Y-17746000D01*
X22991805Y-17746000D01*
X22914399Y-17730603D01*
X22875695Y-17722904D01*
X22843660Y-17709635D01*
X22766320Y-17677600D01*
X22667885Y-17611827D01*
X22584173Y-17528115D01*
X22518400Y-17429680D01*
X22473096Y-17320304D01*
X22450000Y-17204195D01*
X22450000Y-17085805D01*
X22473096Y-16969696D01*
X22518400Y-16860320D01*
X22584173Y-16761885D01*
X22667885Y-16678173D01*
X22766320Y-16612400D01*
X22843660Y-16580365D01*
X22875695Y-16567096D01*
X22914399Y-16559397D01*
X22991805Y-16544000D01*
X23110195Y-16544000D01*
X23187601Y-16559397D01*
G37*
G36*
X25187601Y-16559397D02*
G01*
X25226305Y-16567096D01*
X25258340Y-16580365D01*
X25335680Y-16612400D01*
X25434115Y-16678173D01*
X25517827Y-16761885D01*
X25583600Y-16860320D01*
X25628904Y-16969696D01*
X25652000Y-17085805D01*
X25652000Y-17204195D01*
X25628904Y-17320304D01*
X25583600Y-17429680D01*
X25517827Y-17528115D01*
X25434115Y-17611827D01*
X25335680Y-17677600D01*
X25258340Y-17709635D01*
X25226305Y-17722904D01*
X25187601Y-17730603D01*
X25110195Y-17746000D01*
X24991805Y-17746000D01*
X24914399Y-17730603D01*
X24875695Y-17722904D01*
X24843660Y-17709635D01*
X24766320Y-17677600D01*
X24667885Y-17611827D01*
X24584173Y-17528115D01*
X24518400Y-17429680D01*
X24473096Y-17320304D01*
X24450000Y-17204195D01*
X24450000Y-17085805D01*
X24473096Y-16969696D01*
X24518400Y-16860320D01*
X24584173Y-16761885D01*
X24667885Y-16678173D01*
X24766320Y-16612400D01*
X24843660Y-16580365D01*
X24875695Y-16567096D01*
X24914399Y-16559397D01*
X24991805Y-16544000D01*
X25110195Y-16544000D01*
X25187601Y-16559397D01*
G37*
G36*
X27187601Y-16559397D02*
G01*
X27226305Y-16567096D01*
X27258340Y-16580365D01*
X27335680Y-16612400D01*
X27434115Y-16678173D01*
X27517827Y-16761885D01*
X27583600Y-16860320D01*
X27628904Y-16969696D01*
X27652000Y-17085805D01*
X27652000Y-17204195D01*
X27628904Y-17320304D01*
X27583600Y-17429680D01*
X27517827Y-17528115D01*
X27434115Y-17611827D01*
X27335680Y-17677600D01*
X27258340Y-17709635D01*
X27226305Y-17722904D01*
X27187601Y-17730603D01*
X27110195Y-17746000D01*
X26991805Y-17746000D01*
X26914399Y-17730603D01*
X26875695Y-17722904D01*
X26843660Y-17709635D01*
X26766320Y-17677600D01*
X26667885Y-17611827D01*
X26584173Y-17528115D01*
X26518400Y-17429680D01*
X26473096Y-17320304D01*
X26450000Y-17204195D01*
X26450000Y-17085805D01*
X26473096Y-16969696D01*
X26518400Y-16860320D01*
X26584173Y-16761885D01*
X26667885Y-16678173D01*
X26766320Y-16612400D01*
X26843660Y-16580365D01*
X26875695Y-16567096D01*
X26914399Y-16559397D01*
X26991805Y-16544000D01*
X27110195Y-16544000D01*
X27187601Y-16559397D01*
G37*
M02*
