G04 #@! TF.GenerationSoftware,KiCad,Pcbnew,(5.1.5)-3*
G04 #@! TF.CreationDate,2020-07-05T00:24:43+03:00*
G04 #@! TF.ProjectId,body_temp,626f6479-5f74-4656-9d70-2e6b69636164,rev?*
G04 #@! TF.SameCoordinates,Original*
G04 #@! TF.FileFunction,Soldermask,Bot*
G04 #@! TF.FilePolarity,Negative*
%FSLAX46Y46*%
G04 Gerber Fmt 4.6, Leading zero omitted, Abs format (unit mm)*
G04 Created by KiCad (PCBNEW (5.1.5)-3) date 2020-07-05 00:24:43*
%MOMM*%
%LPD*%
G04 APERTURE LIST*
%ADD10C,0.100000*%
G04 APERTURE END LIST*
D10*
G36*
X44780617Y-42014920D02*
G01*
X44871403Y-42042460D01*
X44903335Y-42052146D01*
X45016424Y-42112594D01*
X45115554Y-42193947D01*
X45196906Y-42293075D01*
X45257354Y-42406164D01*
X45259133Y-42412030D01*
X45294580Y-42528882D01*
X45304000Y-42624527D01*
X45304000Y-43388473D01*
X45294580Y-43484118D01*
X45267040Y-43574904D01*
X45257354Y-43606836D01*
X45196906Y-43719925D01*
X45115554Y-43819054D01*
X45016425Y-43900406D01*
X44903336Y-43960854D01*
X44871404Y-43970540D01*
X44780618Y-43998080D01*
X44653000Y-44010649D01*
X44525383Y-43998080D01*
X44434597Y-43970540D01*
X44402665Y-43960854D01*
X44289576Y-43900406D01*
X44190447Y-43819054D01*
X44109095Y-43719925D01*
X44048648Y-43606837D01*
X44048645Y-43606832D01*
X44011420Y-43484118D01*
X44002000Y-43388473D01*
X44002000Y-42624528D01*
X44011420Y-42528883D01*
X44048645Y-42406169D01*
X44048646Y-42406165D01*
X44109094Y-42293076D01*
X44190447Y-42193946D01*
X44289575Y-42112594D01*
X44402664Y-42052146D01*
X44434596Y-42042460D01*
X44525382Y-42014920D01*
X44653000Y-42002351D01*
X44780617Y-42014920D01*
G37*
G36*
X37780618Y-42014920D02*
G01*
X37871404Y-42042460D01*
X37903336Y-42052146D01*
X38016425Y-42112594D01*
X38115554Y-42193946D01*
X38196906Y-42293075D01*
X38257354Y-42406164D01*
X38259133Y-42412030D01*
X38294580Y-42528882D01*
X38304000Y-42624527D01*
X38304000Y-43388473D01*
X38294580Y-43484118D01*
X38267040Y-43574904D01*
X38257354Y-43606836D01*
X38196906Y-43719925D01*
X38115554Y-43819053D01*
X38016424Y-43900406D01*
X37903335Y-43960854D01*
X37871403Y-43970540D01*
X37780617Y-43998080D01*
X37653000Y-44010649D01*
X37525382Y-43998080D01*
X37434596Y-43970540D01*
X37402664Y-43960854D01*
X37289575Y-43900406D01*
X37190447Y-43819054D01*
X37109094Y-43719924D01*
X37048646Y-43606835D01*
X37038960Y-43574903D01*
X37011420Y-43484117D01*
X37002000Y-43388472D01*
X37002000Y-42624527D01*
X37011420Y-42528882D01*
X37048645Y-42406168D01*
X37073608Y-42359466D01*
X37109095Y-42293075D01*
X37190447Y-42193946D01*
X37289576Y-42112594D01*
X37402665Y-42052146D01*
X37434597Y-42042460D01*
X37525383Y-42014920D01*
X37653000Y-42002351D01*
X37780618Y-42014920D01*
G37*
G36*
X33552370Y-39463003D02*
G01*
X33564075Y-39466554D01*
X33574865Y-39472321D01*
X33584319Y-39480081D01*
X33592079Y-39489535D01*
X33597846Y-39500325D01*
X33601397Y-39512030D01*
X33603200Y-39530338D01*
X33603200Y-40294062D01*
X33601397Y-40312370D01*
X33597846Y-40324075D01*
X33592079Y-40334865D01*
X33579572Y-40350104D01*
X33572774Y-40356902D01*
X33559160Y-40377276D01*
X33549783Y-40399915D01*
X33545002Y-40423948D01*
X33545002Y-40448452D01*
X33549782Y-40472485D01*
X33559159Y-40495124D01*
X33572773Y-40515499D01*
X33590100Y-40532826D01*
X33610474Y-40546440D01*
X33633113Y-40555817D01*
X33657146Y-40560598D01*
X33669399Y-40561200D01*
X34035001Y-40561200D01*
X34059387Y-40558798D01*
X34082836Y-40551685D01*
X34104447Y-40540134D01*
X34123389Y-40524589D01*
X34138934Y-40505647D01*
X34150485Y-40484036D01*
X34157598Y-40460587D01*
X34160000Y-40436201D01*
X34157598Y-40411815D01*
X34150485Y-40388366D01*
X34138934Y-40366755D01*
X34123389Y-40347813D01*
X34121667Y-40346252D01*
X34112321Y-40334865D01*
X34106554Y-40324075D01*
X34103003Y-40312370D01*
X34101200Y-40294062D01*
X34101200Y-39530338D01*
X34103003Y-39512030D01*
X34106554Y-39500325D01*
X34112321Y-39489535D01*
X34120081Y-39480081D01*
X34129535Y-39472321D01*
X34140325Y-39466554D01*
X34152030Y-39463003D01*
X34170338Y-39461200D01*
X34534062Y-39461200D01*
X34552370Y-39463003D01*
X34564075Y-39466554D01*
X34574865Y-39472321D01*
X34584319Y-39480081D01*
X34592079Y-39489535D01*
X34597846Y-39500325D01*
X34601397Y-39512030D01*
X34603200Y-39530338D01*
X34603200Y-40294062D01*
X34601397Y-40312370D01*
X34597846Y-40324075D01*
X34592079Y-40334865D01*
X34579572Y-40350104D01*
X34572774Y-40356902D01*
X34559160Y-40377276D01*
X34549783Y-40399915D01*
X34545002Y-40423948D01*
X34545002Y-40448452D01*
X34549782Y-40472485D01*
X34559159Y-40495124D01*
X34572773Y-40515499D01*
X34590100Y-40532826D01*
X34610474Y-40546440D01*
X34633113Y-40555817D01*
X34657146Y-40560598D01*
X34669399Y-40561200D01*
X35035001Y-40561200D01*
X35059387Y-40558798D01*
X35082836Y-40551685D01*
X35104447Y-40540134D01*
X35123389Y-40524589D01*
X35138934Y-40505647D01*
X35150485Y-40484036D01*
X35157598Y-40460587D01*
X35160000Y-40436201D01*
X35157598Y-40411815D01*
X35150485Y-40388366D01*
X35138934Y-40366755D01*
X35123389Y-40347813D01*
X35121667Y-40346252D01*
X35112321Y-40334865D01*
X35106554Y-40324075D01*
X35103003Y-40312370D01*
X35101200Y-40294062D01*
X35101200Y-39530338D01*
X35103003Y-39512030D01*
X35106554Y-39500325D01*
X35112321Y-39489535D01*
X35120081Y-39480081D01*
X35129535Y-39472321D01*
X35140325Y-39466554D01*
X35152030Y-39463003D01*
X35170338Y-39461200D01*
X35534062Y-39461200D01*
X35552370Y-39463003D01*
X35564075Y-39466554D01*
X35574865Y-39472321D01*
X35584319Y-39480081D01*
X35592079Y-39489535D01*
X35597846Y-39500325D01*
X35601397Y-39512030D01*
X35603200Y-39530338D01*
X35603200Y-40294062D01*
X35601397Y-40312370D01*
X35597846Y-40324075D01*
X35592079Y-40334865D01*
X35579572Y-40350104D01*
X35572774Y-40356902D01*
X35559160Y-40377276D01*
X35549783Y-40399915D01*
X35545002Y-40423948D01*
X35545002Y-40448452D01*
X35549782Y-40472485D01*
X35559159Y-40495124D01*
X35572773Y-40515499D01*
X35590100Y-40532826D01*
X35603200Y-40541579D01*
X35603200Y-42182530D01*
X35599953Y-42184266D01*
X35581011Y-42199811D01*
X35565466Y-42218753D01*
X35553915Y-42240364D01*
X35546802Y-42263813D01*
X35544400Y-42288199D01*
X35546802Y-42312585D01*
X35553915Y-42336034D01*
X35565466Y-42357645D01*
X35581011Y-42376587D01*
X35582733Y-42378148D01*
X35592079Y-42389535D01*
X35597846Y-42400325D01*
X35601397Y-42412030D01*
X35603200Y-42430338D01*
X35603200Y-43194062D01*
X35601397Y-43212370D01*
X35597846Y-43224075D01*
X35592079Y-43234865D01*
X35584319Y-43244319D01*
X35574865Y-43252079D01*
X35564075Y-43257846D01*
X35552370Y-43261397D01*
X35534062Y-43263200D01*
X35170338Y-43263200D01*
X35152030Y-43261397D01*
X35140325Y-43257846D01*
X35129535Y-43252079D01*
X35120081Y-43244319D01*
X35112321Y-43234865D01*
X35106554Y-43224075D01*
X35103003Y-43212370D01*
X35101200Y-43194062D01*
X35101200Y-42430338D01*
X35103003Y-42412030D01*
X35106554Y-42400325D01*
X35112321Y-42389535D01*
X35124828Y-42374296D01*
X35131626Y-42367498D01*
X35145240Y-42347124D01*
X35154617Y-42324485D01*
X35159398Y-42300452D01*
X35159398Y-42275948D01*
X35154618Y-42251915D01*
X35145241Y-42229276D01*
X35131627Y-42208901D01*
X35114300Y-42191574D01*
X35093926Y-42177960D01*
X35071287Y-42168583D01*
X35047254Y-42163802D01*
X35035001Y-42163200D01*
X34669399Y-42163200D01*
X34645013Y-42165602D01*
X34621564Y-42172715D01*
X34599953Y-42184266D01*
X34581011Y-42199811D01*
X34565466Y-42218753D01*
X34553915Y-42240364D01*
X34546802Y-42263813D01*
X34544400Y-42288199D01*
X34546802Y-42312585D01*
X34553915Y-42336034D01*
X34565466Y-42357645D01*
X34581011Y-42376587D01*
X34582733Y-42378148D01*
X34592079Y-42389535D01*
X34597846Y-42400325D01*
X34601397Y-42412030D01*
X34603200Y-42430338D01*
X34603200Y-43194062D01*
X34601397Y-43212370D01*
X34597846Y-43224075D01*
X34592079Y-43234865D01*
X34584319Y-43244319D01*
X34574865Y-43252079D01*
X34564075Y-43257846D01*
X34552370Y-43261397D01*
X34534062Y-43263200D01*
X34170338Y-43263200D01*
X34152030Y-43261397D01*
X34140325Y-43257846D01*
X34129535Y-43252079D01*
X34120081Y-43244319D01*
X34112321Y-43234865D01*
X34106554Y-43224075D01*
X34103003Y-43212370D01*
X34101200Y-43194062D01*
X34101200Y-42430338D01*
X34103003Y-42412030D01*
X34106554Y-42400325D01*
X34112321Y-42389535D01*
X34124828Y-42374296D01*
X34131626Y-42367498D01*
X34145240Y-42347124D01*
X34154617Y-42324485D01*
X34159398Y-42300452D01*
X34159398Y-42275948D01*
X34154618Y-42251915D01*
X34145241Y-42229276D01*
X34131627Y-42208901D01*
X34114300Y-42191574D01*
X34093926Y-42177960D01*
X34071287Y-42168583D01*
X34047254Y-42163802D01*
X34035001Y-42163200D01*
X33669399Y-42163200D01*
X33645013Y-42165602D01*
X33621564Y-42172715D01*
X33599953Y-42184266D01*
X33581011Y-42199811D01*
X33565466Y-42218753D01*
X33553915Y-42240364D01*
X33546802Y-42263813D01*
X33544400Y-42288199D01*
X33546802Y-42312585D01*
X33553915Y-42336034D01*
X33565466Y-42357645D01*
X33581011Y-42376587D01*
X33582733Y-42378148D01*
X33592079Y-42389535D01*
X33597846Y-42400325D01*
X33601397Y-42412030D01*
X33603200Y-42430338D01*
X33603200Y-43194062D01*
X33601397Y-43212370D01*
X33597846Y-43224075D01*
X33592079Y-43234865D01*
X33584319Y-43244319D01*
X33574865Y-43252079D01*
X33564075Y-43257846D01*
X33552370Y-43261397D01*
X33534062Y-43263200D01*
X33170338Y-43263200D01*
X33152030Y-43261397D01*
X33140325Y-43257846D01*
X33129535Y-43252079D01*
X33120081Y-43244319D01*
X33112321Y-43234865D01*
X33106554Y-43224075D01*
X33103003Y-43212370D01*
X33101200Y-43194062D01*
X33101200Y-42430338D01*
X33103003Y-42412030D01*
X33106554Y-42400325D01*
X33112321Y-42389535D01*
X33124828Y-42374296D01*
X33131626Y-42367498D01*
X33145240Y-42347124D01*
X33154617Y-42324485D01*
X33159398Y-42300452D01*
X33159398Y-42275948D01*
X33154618Y-42251915D01*
X33145241Y-42229276D01*
X33131627Y-42208901D01*
X33114300Y-42191574D01*
X33101200Y-42182821D01*
X33101200Y-40541870D01*
X33104447Y-40540134D01*
X33123389Y-40524589D01*
X33138934Y-40505647D01*
X33150485Y-40484036D01*
X33157598Y-40460587D01*
X33160000Y-40436201D01*
X33157598Y-40411815D01*
X33150485Y-40388366D01*
X33138934Y-40366755D01*
X33123389Y-40347813D01*
X33121667Y-40346252D01*
X33112321Y-40334865D01*
X33106554Y-40324075D01*
X33103003Y-40312370D01*
X33101200Y-40294062D01*
X33101200Y-39530338D01*
X33103003Y-39512030D01*
X33106554Y-39500325D01*
X33112321Y-39489535D01*
X33120081Y-39480081D01*
X33129535Y-39472321D01*
X33140325Y-39466554D01*
X33152030Y-39463003D01*
X33170338Y-39461200D01*
X33534062Y-39461200D01*
X33552370Y-39463003D01*
G37*
G36*
X20270473Y-36282938D02*
G01*
X20398049Y-36335782D01*
X20512859Y-36412495D01*
X20610505Y-36510141D01*
X20687218Y-36624951D01*
X20740062Y-36752527D01*
X20767000Y-36887956D01*
X20767000Y-37026044D01*
X20740062Y-37161473D01*
X20687218Y-37289049D01*
X20610505Y-37403859D01*
X20512859Y-37501505D01*
X20398051Y-37578217D01*
X20365944Y-37591516D01*
X20344334Y-37603067D01*
X20325392Y-37618613D01*
X20309847Y-37637555D01*
X20298296Y-37659165D01*
X20291183Y-37682614D01*
X20288781Y-37707001D01*
X20291183Y-37731387D01*
X20298296Y-37754836D01*
X20309847Y-37776446D01*
X20325393Y-37795388D01*
X20344335Y-37810933D01*
X20365944Y-37822484D01*
X20398051Y-37835783D01*
X20512859Y-37912495D01*
X20610505Y-38010141D01*
X20687218Y-38124951D01*
X20740062Y-38252527D01*
X20767000Y-38387956D01*
X20767000Y-38526044D01*
X20740062Y-38661473D01*
X20687218Y-38789049D01*
X20610505Y-38903859D01*
X20512859Y-39001505D01*
X20398051Y-39078217D01*
X20365944Y-39091516D01*
X20344334Y-39103067D01*
X20325392Y-39118613D01*
X20309847Y-39137555D01*
X20298296Y-39159165D01*
X20291183Y-39182614D01*
X20288781Y-39207001D01*
X20291183Y-39231387D01*
X20298296Y-39254836D01*
X20309847Y-39276446D01*
X20325393Y-39295388D01*
X20344335Y-39310933D01*
X20365944Y-39322484D01*
X20398051Y-39335783D01*
X20512859Y-39412495D01*
X20610505Y-39510141D01*
X20687218Y-39624951D01*
X20740062Y-39752527D01*
X20767000Y-39887956D01*
X20767000Y-40026044D01*
X20740062Y-40161473D01*
X20687218Y-40289049D01*
X20610505Y-40403859D01*
X20512859Y-40501505D01*
X20398051Y-40578217D01*
X20365944Y-40591516D01*
X20344334Y-40603067D01*
X20325392Y-40618613D01*
X20309847Y-40637555D01*
X20298296Y-40659165D01*
X20291183Y-40682614D01*
X20288781Y-40707001D01*
X20291183Y-40731387D01*
X20298296Y-40754836D01*
X20309847Y-40776446D01*
X20325393Y-40795388D01*
X20344335Y-40810933D01*
X20365944Y-40822484D01*
X20398051Y-40835783D01*
X20512859Y-40912495D01*
X20610505Y-41010141D01*
X20687218Y-41124951D01*
X20740062Y-41252527D01*
X20767000Y-41387956D01*
X20767000Y-41526044D01*
X20740062Y-41661473D01*
X20687218Y-41789049D01*
X20610505Y-41903859D01*
X20512859Y-42001505D01*
X20398049Y-42078218D01*
X20270473Y-42131062D01*
X20135044Y-42158000D01*
X19996956Y-42158000D01*
X19861527Y-42131062D01*
X19733951Y-42078218D01*
X19619141Y-42001505D01*
X19521495Y-41903859D01*
X19444782Y-41789049D01*
X19391938Y-41661473D01*
X19365000Y-41526044D01*
X19365000Y-41387956D01*
X19391938Y-41252527D01*
X19444782Y-41124951D01*
X19521495Y-41010141D01*
X19619141Y-40912495D01*
X19733949Y-40835783D01*
X19766056Y-40822484D01*
X19787666Y-40810933D01*
X19806608Y-40795387D01*
X19822153Y-40776445D01*
X19833704Y-40754835D01*
X19840817Y-40731386D01*
X19843219Y-40706999D01*
X19840817Y-40682613D01*
X19833704Y-40659164D01*
X19822153Y-40637554D01*
X19806607Y-40618612D01*
X19787665Y-40603067D01*
X19766056Y-40591516D01*
X19733949Y-40578217D01*
X19619141Y-40501505D01*
X19521495Y-40403859D01*
X19444782Y-40289049D01*
X19391938Y-40161473D01*
X19365000Y-40026044D01*
X19365000Y-39887956D01*
X19391938Y-39752527D01*
X19444782Y-39624951D01*
X19521495Y-39510141D01*
X19619141Y-39412495D01*
X19733949Y-39335783D01*
X19766056Y-39322484D01*
X19787666Y-39310933D01*
X19806608Y-39295387D01*
X19822153Y-39276445D01*
X19833704Y-39254835D01*
X19840817Y-39231386D01*
X19843219Y-39206999D01*
X19840817Y-39182613D01*
X19833704Y-39159164D01*
X19822153Y-39137554D01*
X19806607Y-39118612D01*
X19787665Y-39103067D01*
X19766056Y-39091516D01*
X19733949Y-39078217D01*
X19619141Y-39001505D01*
X19521495Y-38903859D01*
X19444782Y-38789049D01*
X19391938Y-38661473D01*
X19365000Y-38526044D01*
X19365000Y-38387956D01*
X19391938Y-38252527D01*
X19444782Y-38124951D01*
X19521495Y-38010141D01*
X19619141Y-37912495D01*
X19733949Y-37835783D01*
X19766056Y-37822484D01*
X19787666Y-37810933D01*
X19806608Y-37795387D01*
X19822153Y-37776445D01*
X19833704Y-37754835D01*
X19840817Y-37731386D01*
X19843219Y-37706999D01*
X19840817Y-37682613D01*
X19833704Y-37659164D01*
X19822153Y-37637554D01*
X19806607Y-37618612D01*
X19787665Y-37603067D01*
X19766056Y-37591516D01*
X19733949Y-37578217D01*
X19619141Y-37501505D01*
X19521495Y-37403859D01*
X19444782Y-37289049D01*
X19391938Y-37161473D01*
X19365000Y-37026044D01*
X19365000Y-36887956D01*
X19391938Y-36752527D01*
X19444782Y-36624951D01*
X19521495Y-36510141D01*
X19619141Y-36412495D01*
X19733951Y-36335782D01*
X19861527Y-36282938D01*
X19996956Y-36256000D01*
X20135044Y-36256000D01*
X20270473Y-36282938D01*
G37*
G36*
X38879348Y-39560320D02*
G01*
X38879350Y-39560321D01*
X38879351Y-39560321D01*
X39020574Y-39618817D01*
X39020577Y-39618819D01*
X39147669Y-39703739D01*
X39255761Y-39811831D01*
X39306626Y-39887956D01*
X39340683Y-39938926D01*
X39376767Y-40026042D01*
X39399180Y-40080152D01*
X39429000Y-40230069D01*
X39429000Y-40382931D01*
X39400823Y-40524589D01*
X39399179Y-40532851D01*
X39340683Y-40674074D01*
X39340681Y-40674077D01*
X39255761Y-40801169D01*
X39147669Y-40909261D01*
X39142824Y-40912498D01*
X39020574Y-40994183D01*
X38879351Y-41052679D01*
X38879350Y-41052679D01*
X38879348Y-41052680D01*
X38729431Y-41082500D01*
X38576569Y-41082500D01*
X38426652Y-41052680D01*
X38426650Y-41052679D01*
X38426649Y-41052679D01*
X38285426Y-40994183D01*
X38163176Y-40912498D01*
X38158331Y-40909261D01*
X38050239Y-40801169D01*
X37965319Y-40674077D01*
X37965317Y-40674074D01*
X37906821Y-40532851D01*
X37905178Y-40524589D01*
X37877000Y-40382931D01*
X37877000Y-40230069D01*
X37906820Y-40080152D01*
X37929233Y-40026042D01*
X37965317Y-39938926D01*
X37999374Y-39887956D01*
X38050239Y-39811831D01*
X38158331Y-39703739D01*
X38285423Y-39618819D01*
X38285426Y-39618817D01*
X38426649Y-39560321D01*
X38426650Y-39560321D01*
X38426652Y-39560320D01*
X38576569Y-39530500D01*
X38729431Y-39530500D01*
X38879348Y-39560320D01*
G37*
G36*
X43879348Y-39560320D02*
G01*
X43879350Y-39560321D01*
X43879351Y-39560321D01*
X44020574Y-39618817D01*
X44020577Y-39618819D01*
X44147669Y-39703739D01*
X44255761Y-39811831D01*
X44306626Y-39887956D01*
X44340683Y-39938926D01*
X44376767Y-40026042D01*
X44399180Y-40080152D01*
X44429000Y-40230069D01*
X44429000Y-40382931D01*
X44400823Y-40524589D01*
X44399179Y-40532851D01*
X44340683Y-40674074D01*
X44340681Y-40674077D01*
X44255761Y-40801169D01*
X44147669Y-40909261D01*
X44142824Y-40912498D01*
X44020574Y-40994183D01*
X43879351Y-41052679D01*
X43879350Y-41052679D01*
X43879348Y-41052680D01*
X43729431Y-41082500D01*
X43576569Y-41082500D01*
X43426652Y-41052680D01*
X43426650Y-41052679D01*
X43426649Y-41052679D01*
X43285426Y-40994183D01*
X43163176Y-40912498D01*
X43158331Y-40909261D01*
X43050239Y-40801169D01*
X42965319Y-40674077D01*
X42965317Y-40674074D01*
X42906821Y-40532851D01*
X42905178Y-40524589D01*
X42877000Y-40382931D01*
X42877000Y-40230069D01*
X42906820Y-40080152D01*
X42929233Y-40026042D01*
X42965317Y-39938926D01*
X42999374Y-39887956D01*
X43050239Y-39811831D01*
X43158331Y-39703739D01*
X43285423Y-39618819D01*
X43285426Y-39618817D01*
X43426649Y-39560321D01*
X43426650Y-39560321D01*
X43426652Y-39560320D01*
X43576569Y-39530500D01*
X43729431Y-39530500D01*
X43879348Y-39560320D01*
G37*
M02*
