G04 #@! TF.GenerationSoftware,KiCad,Pcbnew,(5.1.5)-3*
G04 #@! TF.CreationDate,2020-07-05T00:24:43+03:00*
G04 #@! TF.ProjectId,body_temp,626f6479-5f74-4656-9d70-2e6b69636164,rev?*
G04 #@! TF.SameCoordinates,Original*
G04 #@! TF.FileFunction,Legend,Top*
G04 #@! TF.FilePolarity,Positive*
%FSLAX46Y46*%
G04 Gerber Fmt 4.6, Leading zero omitted, Abs format (unit mm)*
G04 Created by KiCad (PCBNEW (5.1.5)-3) date 2020-07-05 00:24:43*
%MOMM*%
%LPD*%
G04 APERTURE LIST*
%ADD10C,0.120000*%
%ADD11C,0.200000*%
%ADD12C,0.150000*%
%ADD13C,1.402000*%
%ADD14O,1.626000X1.102000*%
%ADD15R,1.102000X2.602000*%
%ADD16R,1.902000X1.102000*%
%ADD17C,0.100000*%
%ADD18R,2.502000X2.502000*%
%ADD19R,1.552000X0.552000*%
%ADD20R,0.752000X1.162000*%
%ADD21R,1.302000X2.002000*%
%ADD22O,1.302000X2.002000*%
%ADD23R,1.602000X2.002000*%
%ADD24C,1.552000*%
%ADD25R,0.502000X1.452000*%
G04 APERTURE END LIST*
D10*
X21366000Y-42957000D02*
X17866000Y-42957000D01*
X21366000Y-35457000D02*
X21366000Y-42957000D01*
X17866000Y-35457000D02*
X21366000Y-35457000D01*
X17866000Y-42957000D02*
X17866000Y-35457000D01*
D11*
X44991700Y-18530600D02*
X44991700Y-19130600D01*
X44691700Y-22630600D02*
X45291700Y-22630600D01*
X44991700Y-22330600D02*
X44991700Y-22930600D01*
D10*
X23905500Y-32521000D02*
X23905500Y-33131000D01*
X23905500Y-32521000D02*
X16285500Y-32521000D01*
X40525500Y-32521000D02*
X39905500Y-32521000D01*
X40525500Y-30401000D02*
X40525500Y-32521000D01*
X40525500Y-16281000D02*
X40525500Y-18401000D01*
X39905500Y-16281000D02*
X40525500Y-16281000D01*
X16285500Y-16281000D02*
X23905500Y-16281000D01*
X16285500Y-32521000D02*
X16285500Y-16281000D01*
X43342700Y-20906079D02*
X43342700Y-20580521D01*
X42322700Y-20906079D02*
X42322700Y-20580521D01*
X36595000Y-37420721D02*
X36595000Y-37746279D01*
X37615000Y-37420721D02*
X37615000Y-37746279D01*
D11*
X26357400Y-42574000D02*
X26357400Y-35774000D01*
X22757400Y-42574000D02*
X26357400Y-42574000D01*
X22757400Y-35774000D02*
X22757400Y-42574000D01*
D12*
X28338500Y-36572000D02*
X34313500Y-36572000D01*
X29863500Y-43472000D02*
X34313500Y-43472000D01*
D10*
X42274300Y-24956600D02*
X42274300Y-27406600D01*
X45494300Y-26756600D02*
X45494300Y-24956600D01*
X43063000Y-37577000D02*
X43063000Y-35127000D01*
X39843000Y-35777000D02*
X39843000Y-37577000D01*
X27709000Y-40235479D02*
X27709000Y-39909921D01*
X26689000Y-40235479D02*
X26689000Y-39909921D01*
X26689000Y-42780321D02*
X26689000Y-43105879D01*
X27709000Y-42780321D02*
X27709000Y-43105879D01*
X29982721Y-36087000D02*
X30308279Y-36087000D01*
X29982721Y-35067000D02*
X30308279Y-35067000D01*
X27310879Y-34254200D02*
X26985321Y-34254200D01*
X27310879Y-35274200D02*
X26985321Y-35274200D01*
X33419779Y-35067000D02*
X33094221Y-35067000D01*
X33419779Y-36087000D02*
X33094221Y-36087000D01*
X36218221Y-36087000D02*
X36543779Y-36087000D01*
X36218221Y-35067000D02*
X36543779Y-35067000D01*
X39139000Y-37606779D02*
X39139000Y-37281221D01*
X38119000Y-37606779D02*
X38119000Y-37281221D01*
X45666800Y-33758479D02*
X45666800Y-33432921D01*
X44646800Y-33758479D02*
X44646800Y-33432921D01*
X39453000Y-39456500D02*
X39453000Y-39906500D01*
X39453000Y-39456500D02*
X39903000Y-39456500D01*
X45053000Y-40006500D02*
X44603000Y-40006500D01*
X45053000Y-41856500D02*
X45053000Y-40006500D01*
X37253000Y-44406500D02*
X37253000Y-44156500D01*
X45053000Y-44406500D02*
X45053000Y-44156500D01*
X37253000Y-41856500D02*
X37253000Y-40006500D01*
X37253000Y-40006500D02*
X37703000Y-40006500D01*
X42274300Y-29030400D02*
X42274300Y-31480400D01*
X45494300Y-30830400D02*
X45494300Y-29030400D01*
X44421800Y-35971500D02*
X44421800Y-38256500D01*
X45891800Y-35971500D02*
X44421800Y-35971500D01*
X45891800Y-38256500D02*
X45891800Y-35971500D01*
D12*
X19161166Y-43330880D02*
X19161166Y-44045166D01*
X19113547Y-44188023D01*
X19018309Y-44283261D01*
X18875452Y-44330880D01*
X18780214Y-44330880D01*
X19542119Y-43330880D02*
X20161166Y-43330880D01*
X19827833Y-43711833D01*
X19970690Y-43711833D01*
X20065928Y-43759452D01*
X20113547Y-43807071D01*
X20161166Y-43902309D01*
X20161166Y-44140404D01*
X20113547Y-44235642D01*
X20065928Y-44283261D01*
X19970690Y-44330880D01*
X19684976Y-44330880D01*
X19589738Y-44283261D01*
X19542119Y-44235642D01*
X17970595Y-33678880D02*
X17970595Y-34488404D01*
X18018214Y-34583642D01*
X18065833Y-34631261D01*
X18161071Y-34678880D01*
X18351547Y-34678880D01*
X18446785Y-34631261D01*
X18494404Y-34583642D01*
X18542023Y-34488404D01*
X18542023Y-33678880D01*
X19494404Y-33678880D02*
X19018214Y-33678880D01*
X18970595Y-34155071D01*
X19018214Y-34107452D01*
X19113452Y-34059833D01*
X19351547Y-34059833D01*
X19446785Y-34107452D01*
X19494404Y-34155071D01*
X19542023Y-34250309D01*
X19542023Y-34488404D01*
X19494404Y-34583642D01*
X19446785Y-34631261D01*
X19351547Y-34678880D01*
X19113452Y-34678880D01*
X19018214Y-34631261D01*
X18970595Y-34583642D01*
X42399333Y-18941542D02*
X42351714Y-18989161D01*
X42208857Y-19036780D01*
X42113619Y-19036780D01*
X41970761Y-18989161D01*
X41875523Y-18893923D01*
X41827904Y-18798685D01*
X41780285Y-18608209D01*
X41780285Y-18465352D01*
X41827904Y-18274876D01*
X41875523Y-18179638D01*
X41970761Y-18084400D01*
X42113619Y-18036780D01*
X42208857Y-18036780D01*
X42351714Y-18084400D01*
X42399333Y-18132019D01*
X42780285Y-18132019D02*
X42827904Y-18084400D01*
X42923142Y-18036780D01*
X43161238Y-18036780D01*
X43256476Y-18084400D01*
X43304095Y-18132019D01*
X43351714Y-18227257D01*
X43351714Y-18322495D01*
X43304095Y-18465352D01*
X42732666Y-19036780D01*
X43351714Y-19036780D01*
X36996642Y-40616166D02*
X37044261Y-40663785D01*
X37091880Y-40806642D01*
X37091880Y-40901880D01*
X37044261Y-41044738D01*
X36949023Y-41139976D01*
X36853785Y-41187595D01*
X36663309Y-41235214D01*
X36520452Y-41235214D01*
X36329976Y-41187595D01*
X36234738Y-41139976D01*
X36139500Y-41044738D01*
X36091880Y-40901880D01*
X36091880Y-40806642D01*
X36139500Y-40663785D01*
X36187119Y-40616166D01*
X37091880Y-39663785D02*
X37091880Y-40235214D01*
X37091880Y-39949500D02*
X36091880Y-39949500D01*
X36234738Y-40044738D01*
X36329976Y-40139976D01*
X36377595Y-40235214D01*
X22955309Y-43791190D02*
X22955309Y-44267380D01*
X22621976Y-43267380D02*
X22955309Y-43791190D01*
X23288642Y-43267380D01*
X24145785Y-44267380D02*
X23574357Y-44267380D01*
X23860071Y-44267380D02*
X23860071Y-43267380D01*
X23764833Y-43410238D01*
X23669595Y-43505476D01*
X23574357Y-43553095D01*
X26564095Y-35791380D02*
X26564095Y-36600904D01*
X26611714Y-36696142D01*
X26659333Y-36743761D01*
X26754571Y-36791380D01*
X26945047Y-36791380D01*
X27040285Y-36743761D01*
X27087904Y-36696142D01*
X27135523Y-36600904D01*
X27135523Y-35791380D01*
X27516476Y-35791380D02*
X28135523Y-35791380D01*
X27802190Y-36172333D01*
X27945047Y-36172333D01*
X28040285Y-36219952D01*
X28087904Y-36267571D01*
X28135523Y-36362809D01*
X28135523Y-36600904D01*
X28087904Y-36696142D01*
X28040285Y-36743761D01*
X27945047Y-36791380D01*
X27659333Y-36791380D01*
X27564095Y-36743761D01*
X27516476Y-36696142D01*
X42238095Y-22837380D02*
X42238095Y-23646904D01*
X42285714Y-23742142D01*
X42333333Y-23789761D01*
X42428571Y-23837380D01*
X42619047Y-23837380D01*
X42714285Y-23789761D01*
X42761904Y-23742142D01*
X42809523Y-23646904D01*
X42809523Y-22837380D01*
X43238095Y-22932619D02*
X43285714Y-22885000D01*
X43380952Y-22837380D01*
X43619047Y-22837380D01*
X43714285Y-22885000D01*
X43761904Y-22932619D01*
X43809523Y-23027857D01*
X43809523Y-23123095D01*
X43761904Y-23265952D01*
X43190476Y-23837380D01*
X43809523Y-23837380D01*
X40661095Y-33708580D02*
X40661095Y-34518104D01*
X40708714Y-34613342D01*
X40756333Y-34660961D01*
X40851571Y-34708580D01*
X41042047Y-34708580D01*
X41137285Y-34660961D01*
X41184904Y-34613342D01*
X41232523Y-34518104D01*
X41232523Y-33708580D01*
X42232523Y-34708580D02*
X41661095Y-34708580D01*
X41946809Y-34708580D02*
X41946809Y-33708580D01*
X41851571Y-33851438D01*
X41756333Y-33946676D01*
X41661095Y-33994295D01*
X27095833Y-38467780D02*
X26762500Y-37991590D01*
X26524404Y-38467780D02*
X26524404Y-37467780D01*
X26905357Y-37467780D01*
X27000595Y-37515400D01*
X27048214Y-37563019D01*
X27095833Y-37658257D01*
X27095833Y-37801114D01*
X27048214Y-37896352D01*
X27000595Y-37943971D01*
X26905357Y-37991590D01*
X26524404Y-37991590D01*
X27667261Y-37896352D02*
X27572023Y-37848733D01*
X27524404Y-37801114D01*
X27476785Y-37705876D01*
X27476785Y-37658257D01*
X27524404Y-37563019D01*
X27572023Y-37515400D01*
X27667261Y-37467780D01*
X27857738Y-37467780D01*
X27952976Y-37515400D01*
X28000595Y-37563019D01*
X28048214Y-37658257D01*
X28048214Y-37705876D01*
X28000595Y-37801114D01*
X27952976Y-37848733D01*
X27857738Y-37896352D01*
X27667261Y-37896352D01*
X27572023Y-37943971D01*
X27524404Y-37991590D01*
X27476785Y-38086828D01*
X27476785Y-38277304D01*
X27524404Y-38372542D01*
X27572023Y-38420161D01*
X27667261Y-38467780D01*
X27857738Y-38467780D01*
X27952976Y-38420161D01*
X28000595Y-38372542D01*
X28048214Y-38277304D01*
X28048214Y-38086828D01*
X28000595Y-37991590D01*
X27952976Y-37943971D01*
X27857738Y-37896352D01*
X25381333Y-44093880D02*
X25048000Y-43617690D01*
X24809904Y-44093880D02*
X24809904Y-43093880D01*
X25190857Y-43093880D01*
X25286095Y-43141500D01*
X25333714Y-43189119D01*
X25381333Y-43284357D01*
X25381333Y-43427214D01*
X25333714Y-43522452D01*
X25286095Y-43570071D01*
X25190857Y-43617690D01*
X24809904Y-43617690D01*
X25714666Y-43093880D02*
X26381333Y-43093880D01*
X25952761Y-44093880D01*
X29978833Y-34599380D02*
X29645500Y-34123190D01*
X29407404Y-34599380D02*
X29407404Y-33599380D01*
X29788357Y-33599380D01*
X29883595Y-33647000D01*
X29931214Y-33694619D01*
X29978833Y-33789857D01*
X29978833Y-33932714D01*
X29931214Y-34027952D01*
X29883595Y-34075571D01*
X29788357Y-34123190D01*
X29407404Y-34123190D01*
X30835976Y-33599380D02*
X30645500Y-33599380D01*
X30550261Y-33647000D01*
X30502642Y-33694619D01*
X30407404Y-33837476D01*
X30359785Y-34027952D01*
X30359785Y-34408904D01*
X30407404Y-34504142D01*
X30455023Y-34551761D01*
X30550261Y-34599380D01*
X30740738Y-34599380D01*
X30835976Y-34551761D01*
X30883595Y-34504142D01*
X30931214Y-34408904D01*
X30931214Y-34170809D01*
X30883595Y-34075571D01*
X30835976Y-34027952D01*
X30740738Y-33980333D01*
X30550261Y-33980333D01*
X30455023Y-34027952D01*
X30407404Y-34075571D01*
X30359785Y-34170809D01*
X24492333Y-35203880D02*
X24159000Y-34727690D01*
X23920904Y-35203880D02*
X23920904Y-34203880D01*
X24301857Y-34203880D01*
X24397095Y-34251500D01*
X24444714Y-34299119D01*
X24492333Y-34394357D01*
X24492333Y-34537214D01*
X24444714Y-34632452D01*
X24397095Y-34680071D01*
X24301857Y-34727690D01*
X23920904Y-34727690D01*
X25397095Y-34203880D02*
X24920904Y-34203880D01*
X24873285Y-34680071D01*
X24920904Y-34632452D01*
X25016142Y-34584833D01*
X25254238Y-34584833D01*
X25349476Y-34632452D01*
X25397095Y-34680071D01*
X25444714Y-34775309D01*
X25444714Y-35013404D01*
X25397095Y-35108642D01*
X25349476Y-35156261D01*
X25254238Y-35203880D01*
X25016142Y-35203880D01*
X24920904Y-35156261D01*
X24873285Y-35108642D01*
X33064833Y-34632380D02*
X32731500Y-34156190D01*
X32493404Y-34632380D02*
X32493404Y-33632380D01*
X32874357Y-33632380D01*
X32969595Y-33680000D01*
X33017214Y-33727619D01*
X33064833Y-33822857D01*
X33064833Y-33965714D01*
X33017214Y-34060952D01*
X32969595Y-34108571D01*
X32874357Y-34156190D01*
X32493404Y-34156190D01*
X33921976Y-33965714D02*
X33921976Y-34632380D01*
X33683880Y-33584761D02*
X33445785Y-34299047D01*
X34064833Y-34299047D01*
X36214333Y-34599380D02*
X35881000Y-34123190D01*
X35642904Y-34599380D02*
X35642904Y-33599380D01*
X36023857Y-33599380D01*
X36119095Y-33647000D01*
X36166714Y-33694619D01*
X36214333Y-33789857D01*
X36214333Y-33932714D01*
X36166714Y-34027952D01*
X36119095Y-34075571D01*
X36023857Y-34123190D01*
X35642904Y-34123190D01*
X36547666Y-33599380D02*
X37166714Y-33599380D01*
X36833380Y-33980333D01*
X36976238Y-33980333D01*
X37071476Y-34027952D01*
X37119095Y-34075571D01*
X37166714Y-34170809D01*
X37166714Y-34408904D01*
X37119095Y-34504142D01*
X37071476Y-34551761D01*
X36976238Y-34599380D01*
X36690523Y-34599380D01*
X36595285Y-34551761D01*
X36547666Y-34504142D01*
X38589333Y-35648380D02*
X38256000Y-35172190D01*
X38017904Y-35648380D02*
X38017904Y-34648380D01*
X38398857Y-34648380D01*
X38494095Y-34696000D01*
X38541714Y-34743619D01*
X38589333Y-34838857D01*
X38589333Y-34981714D01*
X38541714Y-35076952D01*
X38494095Y-35124571D01*
X38398857Y-35172190D01*
X38017904Y-35172190D01*
X38970285Y-34743619D02*
X39017904Y-34696000D01*
X39113142Y-34648380D01*
X39351238Y-34648380D01*
X39446476Y-34696000D01*
X39494095Y-34743619D01*
X39541714Y-34838857D01*
X39541714Y-34934095D01*
X39494095Y-35076952D01*
X38922666Y-35648380D01*
X39541714Y-35648380D01*
X43267333Y-34488380D02*
X42934000Y-34012190D01*
X42695904Y-34488380D02*
X42695904Y-33488380D01*
X43076857Y-33488380D01*
X43172095Y-33536000D01*
X43219714Y-33583619D01*
X43267333Y-33678857D01*
X43267333Y-33821714D01*
X43219714Y-33916952D01*
X43172095Y-33964571D01*
X43076857Y-34012190D01*
X42695904Y-34012190D01*
X44219714Y-34488380D02*
X43648285Y-34488380D01*
X43934000Y-34488380D02*
X43934000Y-33488380D01*
X43838761Y-33631238D01*
X43743523Y-33726476D01*
X43648285Y-33774095D01*
X43502666Y-38026580D02*
X43502666Y-38740866D01*
X43455047Y-38883723D01*
X43359809Y-38978961D01*
X43216952Y-39026580D01*
X43121714Y-39026580D01*
X44502666Y-39026580D02*
X43931238Y-39026580D01*
X44216952Y-39026580D02*
X44216952Y-38026580D01*
X44121714Y-38169438D01*
X44026476Y-38264676D01*
X43931238Y-38312295D01*
X41573904Y-33108380D02*
X41573904Y-32108380D01*
X41812000Y-32108380D01*
X41954857Y-32156000D01*
X42050095Y-32251238D01*
X42097714Y-32346476D01*
X42145333Y-32536952D01*
X42145333Y-32679809D01*
X42097714Y-32870285D01*
X42050095Y-32965523D01*
X41954857Y-33060761D01*
X41812000Y-33108380D01*
X41573904Y-33108380D01*
X42526285Y-32203619D02*
X42573904Y-32156000D01*
X42669142Y-32108380D01*
X42907238Y-32108380D01*
X43002476Y-32156000D01*
X43050095Y-32203619D01*
X43097714Y-32298857D01*
X43097714Y-32394095D01*
X43050095Y-32536952D01*
X42478666Y-33108380D01*
X43097714Y-33108380D01*
X44288380Y-36467495D02*
X43288380Y-36467495D01*
X43288380Y-36229400D01*
X43336000Y-36086542D01*
X43431238Y-35991304D01*
X43526476Y-35943685D01*
X43716952Y-35896066D01*
X43859809Y-35896066D01*
X44050285Y-35943685D01*
X44145523Y-35991304D01*
X44240761Y-36086542D01*
X44288380Y-36229400D01*
X44288380Y-36467495D01*
X44288380Y-34943685D02*
X44288380Y-35515114D01*
X44288380Y-35229400D02*
X43288380Y-35229400D01*
X43431238Y-35324638D01*
X43526476Y-35419876D01*
X43574095Y-35515114D01*
%LPC*%
D13*
X20066000Y-41457000D03*
X20066000Y-39957000D03*
X20066000Y-38457000D03*
X20066000Y-36957000D03*
D14*
X44991700Y-19930600D03*
X44991700Y-21530600D03*
D15*
X24905500Y-16801000D03*
X26905500Y-16801000D03*
X28905500Y-16801000D03*
X30905500Y-16801000D03*
X32905500Y-16801000D03*
X34905500Y-16801000D03*
X36905500Y-16801000D03*
X38905500Y-16801000D03*
D16*
X40405500Y-19401000D03*
X40405500Y-21401000D03*
X40405500Y-23401000D03*
X40405500Y-25401000D03*
X40405500Y-27401000D03*
X40405500Y-29401000D03*
D15*
X38905500Y-32001000D03*
X36905500Y-32001000D03*
X34905500Y-32001000D03*
X32905500Y-32001000D03*
X30905500Y-32001000D03*
X28905500Y-32001000D03*
X26905500Y-32001000D03*
X24905500Y-32001000D03*
D17*
G36*
X43138391Y-19468476D02*
G01*
X43162101Y-19471993D01*
X43185352Y-19477817D01*
X43207920Y-19485892D01*
X43229589Y-19496141D01*
X43250148Y-19508464D01*
X43269401Y-19522742D01*
X43287161Y-19538839D01*
X43303258Y-19556599D01*
X43317536Y-19575852D01*
X43329859Y-19596411D01*
X43340108Y-19618080D01*
X43348183Y-19640648D01*
X43354007Y-19663899D01*
X43357524Y-19687609D01*
X43358700Y-19711550D01*
X43358700Y-20200050D01*
X43357524Y-20223991D01*
X43354007Y-20247701D01*
X43348183Y-20270952D01*
X43340108Y-20293520D01*
X43329859Y-20315189D01*
X43317536Y-20335748D01*
X43303258Y-20355001D01*
X43287161Y-20372761D01*
X43269401Y-20388858D01*
X43250148Y-20403136D01*
X43229589Y-20415459D01*
X43207920Y-20425708D01*
X43185352Y-20433783D01*
X43162101Y-20439607D01*
X43138391Y-20443124D01*
X43114450Y-20444300D01*
X42550950Y-20444300D01*
X42527009Y-20443124D01*
X42503299Y-20439607D01*
X42480048Y-20433783D01*
X42457480Y-20425708D01*
X42435811Y-20415459D01*
X42415252Y-20403136D01*
X42395999Y-20388858D01*
X42378239Y-20372761D01*
X42362142Y-20355001D01*
X42347864Y-20335748D01*
X42335541Y-20315189D01*
X42325292Y-20293520D01*
X42317217Y-20270952D01*
X42311393Y-20247701D01*
X42307876Y-20223991D01*
X42306700Y-20200050D01*
X42306700Y-19711550D01*
X42307876Y-19687609D01*
X42311393Y-19663899D01*
X42317217Y-19640648D01*
X42325292Y-19618080D01*
X42335541Y-19596411D01*
X42347864Y-19575852D01*
X42362142Y-19556599D01*
X42378239Y-19538839D01*
X42395999Y-19522742D01*
X42415252Y-19508464D01*
X42435811Y-19496141D01*
X42457480Y-19485892D01*
X42480048Y-19477817D01*
X42503299Y-19471993D01*
X42527009Y-19468476D01*
X42550950Y-19467300D01*
X43114450Y-19467300D01*
X43138391Y-19468476D01*
G37*
G36*
X43138391Y-21043476D02*
G01*
X43162101Y-21046993D01*
X43185352Y-21052817D01*
X43207920Y-21060892D01*
X43229589Y-21071141D01*
X43250148Y-21083464D01*
X43269401Y-21097742D01*
X43287161Y-21113839D01*
X43303258Y-21131599D01*
X43317536Y-21150852D01*
X43329859Y-21171411D01*
X43340108Y-21193080D01*
X43348183Y-21215648D01*
X43354007Y-21238899D01*
X43357524Y-21262609D01*
X43358700Y-21286550D01*
X43358700Y-21775050D01*
X43357524Y-21798991D01*
X43354007Y-21822701D01*
X43348183Y-21845952D01*
X43340108Y-21868520D01*
X43329859Y-21890189D01*
X43317536Y-21910748D01*
X43303258Y-21930001D01*
X43287161Y-21947761D01*
X43269401Y-21963858D01*
X43250148Y-21978136D01*
X43229589Y-21990459D01*
X43207920Y-22000708D01*
X43185352Y-22008783D01*
X43162101Y-22014607D01*
X43138391Y-22018124D01*
X43114450Y-22019300D01*
X42550950Y-22019300D01*
X42527009Y-22018124D01*
X42503299Y-22014607D01*
X42480048Y-22008783D01*
X42457480Y-22000708D01*
X42435811Y-21990459D01*
X42415252Y-21978136D01*
X42395999Y-21963858D01*
X42378239Y-21947761D01*
X42362142Y-21930001D01*
X42347864Y-21910748D01*
X42335541Y-21890189D01*
X42325292Y-21868520D01*
X42317217Y-21845952D01*
X42311393Y-21822701D01*
X42307876Y-21798991D01*
X42306700Y-21775050D01*
X42306700Y-21286550D01*
X42307876Y-21262609D01*
X42311393Y-21238899D01*
X42317217Y-21215648D01*
X42325292Y-21193080D01*
X42335541Y-21171411D01*
X42347864Y-21150852D01*
X42362142Y-21131599D01*
X42378239Y-21113839D01*
X42395999Y-21097742D01*
X42415252Y-21083464D01*
X42435811Y-21071141D01*
X42457480Y-21060892D01*
X42480048Y-21052817D01*
X42503299Y-21046993D01*
X42527009Y-21043476D01*
X42550950Y-21042300D01*
X43114450Y-21042300D01*
X43138391Y-21043476D01*
G37*
G36*
X37410691Y-37883676D02*
G01*
X37434401Y-37887193D01*
X37457652Y-37893017D01*
X37480220Y-37901092D01*
X37501889Y-37911341D01*
X37522448Y-37923664D01*
X37541701Y-37937942D01*
X37559461Y-37954039D01*
X37575558Y-37971799D01*
X37589836Y-37991052D01*
X37602159Y-38011611D01*
X37612408Y-38033280D01*
X37620483Y-38055848D01*
X37626307Y-38079099D01*
X37629824Y-38102809D01*
X37631000Y-38126750D01*
X37631000Y-38615250D01*
X37629824Y-38639191D01*
X37626307Y-38662901D01*
X37620483Y-38686152D01*
X37612408Y-38708720D01*
X37602159Y-38730389D01*
X37589836Y-38750948D01*
X37575558Y-38770201D01*
X37559461Y-38787961D01*
X37541701Y-38804058D01*
X37522448Y-38818336D01*
X37501889Y-38830659D01*
X37480220Y-38840908D01*
X37457652Y-38848983D01*
X37434401Y-38854807D01*
X37410691Y-38858324D01*
X37386750Y-38859500D01*
X36823250Y-38859500D01*
X36799309Y-38858324D01*
X36775599Y-38854807D01*
X36752348Y-38848983D01*
X36729780Y-38840908D01*
X36708111Y-38830659D01*
X36687552Y-38818336D01*
X36668299Y-38804058D01*
X36650539Y-38787961D01*
X36634442Y-38770201D01*
X36620164Y-38750948D01*
X36607841Y-38730389D01*
X36597592Y-38708720D01*
X36589517Y-38686152D01*
X36583693Y-38662901D01*
X36580176Y-38639191D01*
X36579000Y-38615250D01*
X36579000Y-38126750D01*
X36580176Y-38102809D01*
X36583693Y-38079099D01*
X36589517Y-38055848D01*
X36597592Y-38033280D01*
X36607841Y-38011611D01*
X36620164Y-37991052D01*
X36634442Y-37971799D01*
X36650539Y-37954039D01*
X36668299Y-37937942D01*
X36687552Y-37923664D01*
X36708111Y-37911341D01*
X36729780Y-37901092D01*
X36752348Y-37893017D01*
X36775599Y-37887193D01*
X36799309Y-37883676D01*
X36823250Y-37882500D01*
X37386750Y-37882500D01*
X37410691Y-37883676D01*
G37*
G36*
X37410691Y-36308676D02*
G01*
X37434401Y-36312193D01*
X37457652Y-36318017D01*
X37480220Y-36326092D01*
X37501889Y-36336341D01*
X37522448Y-36348664D01*
X37541701Y-36362942D01*
X37559461Y-36379039D01*
X37575558Y-36396799D01*
X37589836Y-36416052D01*
X37602159Y-36436611D01*
X37612408Y-36458280D01*
X37620483Y-36480848D01*
X37626307Y-36504099D01*
X37629824Y-36527809D01*
X37631000Y-36551750D01*
X37631000Y-37040250D01*
X37629824Y-37064191D01*
X37626307Y-37087901D01*
X37620483Y-37111152D01*
X37612408Y-37133720D01*
X37602159Y-37155389D01*
X37589836Y-37175948D01*
X37575558Y-37195201D01*
X37559461Y-37212961D01*
X37541701Y-37229058D01*
X37522448Y-37243336D01*
X37501889Y-37255659D01*
X37480220Y-37265908D01*
X37457652Y-37273983D01*
X37434401Y-37279807D01*
X37410691Y-37283324D01*
X37386750Y-37284500D01*
X36823250Y-37284500D01*
X36799309Y-37283324D01*
X36775599Y-37279807D01*
X36752348Y-37273983D01*
X36729780Y-37265908D01*
X36708111Y-37255659D01*
X36687552Y-37243336D01*
X36668299Y-37229058D01*
X36650539Y-37212961D01*
X36634442Y-37195201D01*
X36620164Y-37175948D01*
X36607841Y-37155389D01*
X36597592Y-37133720D01*
X36589517Y-37111152D01*
X36583693Y-37087901D01*
X36580176Y-37064191D01*
X36579000Y-37040250D01*
X36579000Y-36551750D01*
X36580176Y-36527809D01*
X36583693Y-36504099D01*
X36589517Y-36480848D01*
X36597592Y-36458280D01*
X36607841Y-36436611D01*
X36620164Y-36416052D01*
X36634442Y-36396799D01*
X36650539Y-36379039D01*
X36668299Y-36362942D01*
X36687552Y-36348664D01*
X36708111Y-36336341D01*
X36729780Y-36326092D01*
X36752348Y-36318017D01*
X36775599Y-36312193D01*
X36799309Y-36308676D01*
X36823250Y-36307500D01*
X37386750Y-36307500D01*
X37410691Y-36308676D01*
G37*
D18*
X24557400Y-36974000D03*
X24557400Y-40974000D03*
D19*
X35038500Y-37097000D03*
X35038500Y-37747000D03*
X35038500Y-38397000D03*
X35038500Y-39047000D03*
X35038500Y-39697000D03*
X35038500Y-40347000D03*
X35038500Y-40997000D03*
X35038500Y-41647000D03*
X35038500Y-42297000D03*
X35038500Y-42947000D03*
X29138500Y-42947000D03*
X29138500Y-42297000D03*
X29138500Y-41647000D03*
X29138500Y-40997000D03*
X29138500Y-40347000D03*
X29138500Y-39697000D03*
X29138500Y-39047000D03*
X29138500Y-38397000D03*
X29138500Y-37747000D03*
X29138500Y-37097000D03*
D20*
X42934300Y-24756600D03*
X44834300Y-24756600D03*
X44834300Y-26956600D03*
X43884300Y-26956600D03*
X42934300Y-26956600D03*
X41453000Y-37777000D03*
X42403000Y-37777000D03*
X40503000Y-37777000D03*
X40503000Y-35577000D03*
X41453000Y-35577000D03*
X42403000Y-35577000D03*
D17*
G36*
X27504691Y-38797876D02*
G01*
X27528401Y-38801393D01*
X27551652Y-38807217D01*
X27574220Y-38815292D01*
X27595889Y-38825541D01*
X27616448Y-38837864D01*
X27635701Y-38852142D01*
X27653461Y-38868239D01*
X27669558Y-38885999D01*
X27683836Y-38905252D01*
X27696159Y-38925811D01*
X27706408Y-38947480D01*
X27714483Y-38970048D01*
X27720307Y-38993299D01*
X27723824Y-39017009D01*
X27725000Y-39040950D01*
X27725000Y-39529450D01*
X27723824Y-39553391D01*
X27720307Y-39577101D01*
X27714483Y-39600352D01*
X27706408Y-39622920D01*
X27696159Y-39644589D01*
X27683836Y-39665148D01*
X27669558Y-39684401D01*
X27653461Y-39702161D01*
X27635701Y-39718258D01*
X27616448Y-39732536D01*
X27595889Y-39744859D01*
X27574220Y-39755108D01*
X27551652Y-39763183D01*
X27528401Y-39769007D01*
X27504691Y-39772524D01*
X27480750Y-39773700D01*
X26917250Y-39773700D01*
X26893309Y-39772524D01*
X26869599Y-39769007D01*
X26846348Y-39763183D01*
X26823780Y-39755108D01*
X26802111Y-39744859D01*
X26781552Y-39732536D01*
X26762299Y-39718258D01*
X26744539Y-39702161D01*
X26728442Y-39684401D01*
X26714164Y-39665148D01*
X26701841Y-39644589D01*
X26691592Y-39622920D01*
X26683517Y-39600352D01*
X26677693Y-39577101D01*
X26674176Y-39553391D01*
X26673000Y-39529450D01*
X26673000Y-39040950D01*
X26674176Y-39017009D01*
X26677693Y-38993299D01*
X26683517Y-38970048D01*
X26691592Y-38947480D01*
X26701841Y-38925811D01*
X26714164Y-38905252D01*
X26728442Y-38885999D01*
X26744539Y-38868239D01*
X26762299Y-38852142D01*
X26781552Y-38837864D01*
X26802111Y-38825541D01*
X26823780Y-38815292D01*
X26846348Y-38807217D01*
X26869599Y-38801393D01*
X26893309Y-38797876D01*
X26917250Y-38796700D01*
X27480750Y-38796700D01*
X27504691Y-38797876D01*
G37*
G36*
X27504691Y-40372876D02*
G01*
X27528401Y-40376393D01*
X27551652Y-40382217D01*
X27574220Y-40390292D01*
X27595889Y-40400541D01*
X27616448Y-40412864D01*
X27635701Y-40427142D01*
X27653461Y-40443239D01*
X27669558Y-40460999D01*
X27683836Y-40480252D01*
X27696159Y-40500811D01*
X27706408Y-40522480D01*
X27714483Y-40545048D01*
X27720307Y-40568299D01*
X27723824Y-40592009D01*
X27725000Y-40615950D01*
X27725000Y-41104450D01*
X27723824Y-41128391D01*
X27720307Y-41152101D01*
X27714483Y-41175352D01*
X27706408Y-41197920D01*
X27696159Y-41219589D01*
X27683836Y-41240148D01*
X27669558Y-41259401D01*
X27653461Y-41277161D01*
X27635701Y-41293258D01*
X27616448Y-41307536D01*
X27595889Y-41319859D01*
X27574220Y-41330108D01*
X27551652Y-41338183D01*
X27528401Y-41344007D01*
X27504691Y-41347524D01*
X27480750Y-41348700D01*
X26917250Y-41348700D01*
X26893309Y-41347524D01*
X26869599Y-41344007D01*
X26846348Y-41338183D01*
X26823780Y-41330108D01*
X26802111Y-41319859D01*
X26781552Y-41307536D01*
X26762299Y-41293258D01*
X26744539Y-41277161D01*
X26728442Y-41259401D01*
X26714164Y-41240148D01*
X26701841Y-41219589D01*
X26691592Y-41197920D01*
X26683517Y-41175352D01*
X26677693Y-41152101D01*
X26674176Y-41128391D01*
X26673000Y-41104450D01*
X26673000Y-40615950D01*
X26674176Y-40592009D01*
X26677693Y-40568299D01*
X26683517Y-40545048D01*
X26691592Y-40522480D01*
X26701841Y-40500811D01*
X26714164Y-40480252D01*
X26728442Y-40460999D01*
X26744539Y-40443239D01*
X26762299Y-40427142D01*
X26781552Y-40412864D01*
X26802111Y-40400541D01*
X26823780Y-40390292D01*
X26846348Y-40382217D01*
X26869599Y-40376393D01*
X26893309Y-40372876D01*
X26917250Y-40371700D01*
X27480750Y-40371700D01*
X27504691Y-40372876D01*
G37*
G36*
X27504691Y-43243276D02*
G01*
X27528401Y-43246793D01*
X27551652Y-43252617D01*
X27574220Y-43260692D01*
X27595889Y-43270941D01*
X27616448Y-43283264D01*
X27635701Y-43297542D01*
X27653461Y-43313639D01*
X27669558Y-43331399D01*
X27683836Y-43350652D01*
X27696159Y-43371211D01*
X27706408Y-43392880D01*
X27714483Y-43415448D01*
X27720307Y-43438699D01*
X27723824Y-43462409D01*
X27725000Y-43486350D01*
X27725000Y-43974850D01*
X27723824Y-43998791D01*
X27720307Y-44022501D01*
X27714483Y-44045752D01*
X27706408Y-44068320D01*
X27696159Y-44089989D01*
X27683836Y-44110548D01*
X27669558Y-44129801D01*
X27653461Y-44147561D01*
X27635701Y-44163658D01*
X27616448Y-44177936D01*
X27595889Y-44190259D01*
X27574220Y-44200508D01*
X27551652Y-44208583D01*
X27528401Y-44214407D01*
X27504691Y-44217924D01*
X27480750Y-44219100D01*
X26917250Y-44219100D01*
X26893309Y-44217924D01*
X26869599Y-44214407D01*
X26846348Y-44208583D01*
X26823780Y-44200508D01*
X26802111Y-44190259D01*
X26781552Y-44177936D01*
X26762299Y-44163658D01*
X26744539Y-44147561D01*
X26728442Y-44129801D01*
X26714164Y-44110548D01*
X26701841Y-44089989D01*
X26691592Y-44068320D01*
X26683517Y-44045752D01*
X26677693Y-44022501D01*
X26674176Y-43998791D01*
X26673000Y-43974850D01*
X26673000Y-43486350D01*
X26674176Y-43462409D01*
X26677693Y-43438699D01*
X26683517Y-43415448D01*
X26691592Y-43392880D01*
X26701841Y-43371211D01*
X26714164Y-43350652D01*
X26728442Y-43331399D01*
X26744539Y-43313639D01*
X26762299Y-43297542D01*
X26781552Y-43283264D01*
X26802111Y-43270941D01*
X26823780Y-43260692D01*
X26846348Y-43252617D01*
X26869599Y-43246793D01*
X26893309Y-43243276D01*
X26917250Y-43242100D01*
X27480750Y-43242100D01*
X27504691Y-43243276D01*
G37*
G36*
X27504691Y-41668276D02*
G01*
X27528401Y-41671793D01*
X27551652Y-41677617D01*
X27574220Y-41685692D01*
X27595889Y-41695941D01*
X27616448Y-41708264D01*
X27635701Y-41722542D01*
X27653461Y-41738639D01*
X27669558Y-41756399D01*
X27683836Y-41775652D01*
X27696159Y-41796211D01*
X27706408Y-41817880D01*
X27714483Y-41840448D01*
X27720307Y-41863699D01*
X27723824Y-41887409D01*
X27725000Y-41911350D01*
X27725000Y-42399850D01*
X27723824Y-42423791D01*
X27720307Y-42447501D01*
X27714483Y-42470752D01*
X27706408Y-42493320D01*
X27696159Y-42514989D01*
X27683836Y-42535548D01*
X27669558Y-42554801D01*
X27653461Y-42572561D01*
X27635701Y-42588658D01*
X27616448Y-42602936D01*
X27595889Y-42615259D01*
X27574220Y-42625508D01*
X27551652Y-42633583D01*
X27528401Y-42639407D01*
X27504691Y-42642924D01*
X27480750Y-42644100D01*
X26917250Y-42644100D01*
X26893309Y-42642924D01*
X26869599Y-42639407D01*
X26846348Y-42633583D01*
X26823780Y-42625508D01*
X26802111Y-42615259D01*
X26781552Y-42602936D01*
X26762299Y-42588658D01*
X26744539Y-42572561D01*
X26728442Y-42554801D01*
X26714164Y-42535548D01*
X26701841Y-42514989D01*
X26691592Y-42493320D01*
X26683517Y-42470752D01*
X26677693Y-42447501D01*
X26674176Y-42423791D01*
X26673000Y-42399850D01*
X26673000Y-41911350D01*
X26674176Y-41887409D01*
X26677693Y-41863699D01*
X26683517Y-41840448D01*
X26691592Y-41817880D01*
X26701841Y-41796211D01*
X26714164Y-41775652D01*
X26728442Y-41756399D01*
X26744539Y-41738639D01*
X26762299Y-41722542D01*
X26781552Y-41708264D01*
X26802111Y-41695941D01*
X26823780Y-41685692D01*
X26846348Y-41677617D01*
X26869599Y-41671793D01*
X26893309Y-41668276D01*
X26917250Y-41667100D01*
X27480750Y-41667100D01*
X27504691Y-41668276D01*
G37*
G36*
X31201191Y-35052176D02*
G01*
X31224901Y-35055693D01*
X31248152Y-35061517D01*
X31270720Y-35069592D01*
X31292389Y-35079841D01*
X31312948Y-35092164D01*
X31332201Y-35106442D01*
X31349961Y-35122539D01*
X31366058Y-35140299D01*
X31380336Y-35159552D01*
X31392659Y-35180111D01*
X31402908Y-35201780D01*
X31410983Y-35224348D01*
X31416807Y-35247599D01*
X31420324Y-35271309D01*
X31421500Y-35295250D01*
X31421500Y-35858750D01*
X31420324Y-35882691D01*
X31416807Y-35906401D01*
X31410983Y-35929652D01*
X31402908Y-35952220D01*
X31392659Y-35973889D01*
X31380336Y-35994448D01*
X31366058Y-36013701D01*
X31349961Y-36031461D01*
X31332201Y-36047558D01*
X31312948Y-36061836D01*
X31292389Y-36074159D01*
X31270720Y-36084408D01*
X31248152Y-36092483D01*
X31224901Y-36098307D01*
X31201191Y-36101824D01*
X31177250Y-36103000D01*
X30688750Y-36103000D01*
X30664809Y-36101824D01*
X30641099Y-36098307D01*
X30617848Y-36092483D01*
X30595280Y-36084408D01*
X30573611Y-36074159D01*
X30553052Y-36061836D01*
X30533799Y-36047558D01*
X30516039Y-36031461D01*
X30499942Y-36013701D01*
X30485664Y-35994448D01*
X30473341Y-35973889D01*
X30463092Y-35952220D01*
X30455017Y-35929652D01*
X30449193Y-35906401D01*
X30445676Y-35882691D01*
X30444500Y-35858750D01*
X30444500Y-35295250D01*
X30445676Y-35271309D01*
X30449193Y-35247599D01*
X30455017Y-35224348D01*
X30463092Y-35201780D01*
X30473341Y-35180111D01*
X30485664Y-35159552D01*
X30499942Y-35140299D01*
X30516039Y-35122539D01*
X30533799Y-35106442D01*
X30553052Y-35092164D01*
X30573611Y-35079841D01*
X30595280Y-35069592D01*
X30617848Y-35061517D01*
X30641099Y-35055693D01*
X30664809Y-35052176D01*
X30688750Y-35051000D01*
X31177250Y-35051000D01*
X31201191Y-35052176D01*
G37*
G36*
X29626191Y-35052176D02*
G01*
X29649901Y-35055693D01*
X29673152Y-35061517D01*
X29695720Y-35069592D01*
X29717389Y-35079841D01*
X29737948Y-35092164D01*
X29757201Y-35106442D01*
X29774961Y-35122539D01*
X29791058Y-35140299D01*
X29805336Y-35159552D01*
X29817659Y-35180111D01*
X29827908Y-35201780D01*
X29835983Y-35224348D01*
X29841807Y-35247599D01*
X29845324Y-35271309D01*
X29846500Y-35295250D01*
X29846500Y-35858750D01*
X29845324Y-35882691D01*
X29841807Y-35906401D01*
X29835983Y-35929652D01*
X29827908Y-35952220D01*
X29817659Y-35973889D01*
X29805336Y-35994448D01*
X29791058Y-36013701D01*
X29774961Y-36031461D01*
X29757201Y-36047558D01*
X29737948Y-36061836D01*
X29717389Y-36074159D01*
X29695720Y-36084408D01*
X29673152Y-36092483D01*
X29649901Y-36098307D01*
X29626191Y-36101824D01*
X29602250Y-36103000D01*
X29113750Y-36103000D01*
X29089809Y-36101824D01*
X29066099Y-36098307D01*
X29042848Y-36092483D01*
X29020280Y-36084408D01*
X28998611Y-36074159D01*
X28978052Y-36061836D01*
X28958799Y-36047558D01*
X28941039Y-36031461D01*
X28924942Y-36013701D01*
X28910664Y-35994448D01*
X28898341Y-35973889D01*
X28888092Y-35952220D01*
X28880017Y-35929652D01*
X28874193Y-35906401D01*
X28870676Y-35882691D01*
X28869500Y-35858750D01*
X28869500Y-35295250D01*
X28870676Y-35271309D01*
X28874193Y-35247599D01*
X28880017Y-35224348D01*
X28888092Y-35201780D01*
X28898341Y-35180111D01*
X28910664Y-35159552D01*
X28924942Y-35140299D01*
X28941039Y-35122539D01*
X28958799Y-35106442D01*
X28978052Y-35092164D01*
X28998611Y-35079841D01*
X29020280Y-35069592D01*
X29042848Y-35061517D01*
X29066099Y-35055693D01*
X29089809Y-35052176D01*
X29113750Y-35051000D01*
X29602250Y-35051000D01*
X29626191Y-35052176D01*
G37*
G36*
X26628791Y-34239376D02*
G01*
X26652501Y-34242893D01*
X26675752Y-34248717D01*
X26698320Y-34256792D01*
X26719989Y-34267041D01*
X26740548Y-34279364D01*
X26759801Y-34293642D01*
X26777561Y-34309739D01*
X26793658Y-34327499D01*
X26807936Y-34346752D01*
X26820259Y-34367311D01*
X26830508Y-34388980D01*
X26838583Y-34411548D01*
X26844407Y-34434799D01*
X26847924Y-34458509D01*
X26849100Y-34482450D01*
X26849100Y-35045950D01*
X26847924Y-35069891D01*
X26844407Y-35093601D01*
X26838583Y-35116852D01*
X26830508Y-35139420D01*
X26820259Y-35161089D01*
X26807936Y-35181648D01*
X26793658Y-35200901D01*
X26777561Y-35218661D01*
X26759801Y-35234758D01*
X26740548Y-35249036D01*
X26719989Y-35261359D01*
X26698320Y-35271608D01*
X26675752Y-35279683D01*
X26652501Y-35285507D01*
X26628791Y-35289024D01*
X26604850Y-35290200D01*
X26116350Y-35290200D01*
X26092409Y-35289024D01*
X26068699Y-35285507D01*
X26045448Y-35279683D01*
X26022880Y-35271608D01*
X26001211Y-35261359D01*
X25980652Y-35249036D01*
X25961399Y-35234758D01*
X25943639Y-35218661D01*
X25927542Y-35200901D01*
X25913264Y-35181648D01*
X25900941Y-35161089D01*
X25890692Y-35139420D01*
X25882617Y-35116852D01*
X25876793Y-35093601D01*
X25873276Y-35069891D01*
X25872100Y-35045950D01*
X25872100Y-34482450D01*
X25873276Y-34458509D01*
X25876793Y-34434799D01*
X25882617Y-34411548D01*
X25890692Y-34388980D01*
X25900941Y-34367311D01*
X25913264Y-34346752D01*
X25927542Y-34327499D01*
X25943639Y-34309739D01*
X25961399Y-34293642D01*
X25980652Y-34279364D01*
X26001211Y-34267041D01*
X26022880Y-34256792D01*
X26045448Y-34248717D01*
X26068699Y-34242893D01*
X26092409Y-34239376D01*
X26116350Y-34238200D01*
X26604850Y-34238200D01*
X26628791Y-34239376D01*
G37*
G36*
X28203791Y-34239376D02*
G01*
X28227501Y-34242893D01*
X28250752Y-34248717D01*
X28273320Y-34256792D01*
X28294989Y-34267041D01*
X28315548Y-34279364D01*
X28334801Y-34293642D01*
X28352561Y-34309739D01*
X28368658Y-34327499D01*
X28382936Y-34346752D01*
X28395259Y-34367311D01*
X28405508Y-34388980D01*
X28413583Y-34411548D01*
X28419407Y-34434799D01*
X28422924Y-34458509D01*
X28424100Y-34482450D01*
X28424100Y-35045950D01*
X28422924Y-35069891D01*
X28419407Y-35093601D01*
X28413583Y-35116852D01*
X28405508Y-35139420D01*
X28395259Y-35161089D01*
X28382936Y-35181648D01*
X28368658Y-35200901D01*
X28352561Y-35218661D01*
X28334801Y-35234758D01*
X28315548Y-35249036D01*
X28294989Y-35261359D01*
X28273320Y-35271608D01*
X28250752Y-35279683D01*
X28227501Y-35285507D01*
X28203791Y-35289024D01*
X28179850Y-35290200D01*
X27691350Y-35290200D01*
X27667409Y-35289024D01*
X27643699Y-35285507D01*
X27620448Y-35279683D01*
X27597880Y-35271608D01*
X27576211Y-35261359D01*
X27555652Y-35249036D01*
X27536399Y-35234758D01*
X27518639Y-35218661D01*
X27502542Y-35200901D01*
X27488264Y-35181648D01*
X27475941Y-35161089D01*
X27465692Y-35139420D01*
X27457617Y-35116852D01*
X27451793Y-35093601D01*
X27448276Y-35069891D01*
X27447100Y-35045950D01*
X27447100Y-34482450D01*
X27448276Y-34458509D01*
X27451793Y-34434799D01*
X27457617Y-34411548D01*
X27465692Y-34388980D01*
X27475941Y-34367311D01*
X27488264Y-34346752D01*
X27502542Y-34327499D01*
X27518639Y-34309739D01*
X27536399Y-34293642D01*
X27555652Y-34279364D01*
X27576211Y-34267041D01*
X27597880Y-34256792D01*
X27620448Y-34248717D01*
X27643699Y-34242893D01*
X27667409Y-34239376D01*
X27691350Y-34238200D01*
X28179850Y-34238200D01*
X28203791Y-34239376D01*
G37*
G36*
X32737691Y-35052176D02*
G01*
X32761401Y-35055693D01*
X32784652Y-35061517D01*
X32807220Y-35069592D01*
X32828889Y-35079841D01*
X32849448Y-35092164D01*
X32868701Y-35106442D01*
X32886461Y-35122539D01*
X32902558Y-35140299D01*
X32916836Y-35159552D01*
X32929159Y-35180111D01*
X32939408Y-35201780D01*
X32947483Y-35224348D01*
X32953307Y-35247599D01*
X32956824Y-35271309D01*
X32958000Y-35295250D01*
X32958000Y-35858750D01*
X32956824Y-35882691D01*
X32953307Y-35906401D01*
X32947483Y-35929652D01*
X32939408Y-35952220D01*
X32929159Y-35973889D01*
X32916836Y-35994448D01*
X32902558Y-36013701D01*
X32886461Y-36031461D01*
X32868701Y-36047558D01*
X32849448Y-36061836D01*
X32828889Y-36074159D01*
X32807220Y-36084408D01*
X32784652Y-36092483D01*
X32761401Y-36098307D01*
X32737691Y-36101824D01*
X32713750Y-36103000D01*
X32225250Y-36103000D01*
X32201309Y-36101824D01*
X32177599Y-36098307D01*
X32154348Y-36092483D01*
X32131780Y-36084408D01*
X32110111Y-36074159D01*
X32089552Y-36061836D01*
X32070299Y-36047558D01*
X32052539Y-36031461D01*
X32036442Y-36013701D01*
X32022164Y-35994448D01*
X32009841Y-35973889D01*
X31999592Y-35952220D01*
X31991517Y-35929652D01*
X31985693Y-35906401D01*
X31982176Y-35882691D01*
X31981000Y-35858750D01*
X31981000Y-35295250D01*
X31982176Y-35271309D01*
X31985693Y-35247599D01*
X31991517Y-35224348D01*
X31999592Y-35201780D01*
X32009841Y-35180111D01*
X32022164Y-35159552D01*
X32036442Y-35140299D01*
X32052539Y-35122539D01*
X32070299Y-35106442D01*
X32089552Y-35092164D01*
X32110111Y-35079841D01*
X32131780Y-35069592D01*
X32154348Y-35061517D01*
X32177599Y-35055693D01*
X32201309Y-35052176D01*
X32225250Y-35051000D01*
X32713750Y-35051000D01*
X32737691Y-35052176D01*
G37*
G36*
X34312691Y-35052176D02*
G01*
X34336401Y-35055693D01*
X34359652Y-35061517D01*
X34382220Y-35069592D01*
X34403889Y-35079841D01*
X34424448Y-35092164D01*
X34443701Y-35106442D01*
X34461461Y-35122539D01*
X34477558Y-35140299D01*
X34491836Y-35159552D01*
X34504159Y-35180111D01*
X34514408Y-35201780D01*
X34522483Y-35224348D01*
X34528307Y-35247599D01*
X34531824Y-35271309D01*
X34533000Y-35295250D01*
X34533000Y-35858750D01*
X34531824Y-35882691D01*
X34528307Y-35906401D01*
X34522483Y-35929652D01*
X34514408Y-35952220D01*
X34504159Y-35973889D01*
X34491836Y-35994448D01*
X34477558Y-36013701D01*
X34461461Y-36031461D01*
X34443701Y-36047558D01*
X34424448Y-36061836D01*
X34403889Y-36074159D01*
X34382220Y-36084408D01*
X34359652Y-36092483D01*
X34336401Y-36098307D01*
X34312691Y-36101824D01*
X34288750Y-36103000D01*
X33800250Y-36103000D01*
X33776309Y-36101824D01*
X33752599Y-36098307D01*
X33729348Y-36092483D01*
X33706780Y-36084408D01*
X33685111Y-36074159D01*
X33664552Y-36061836D01*
X33645299Y-36047558D01*
X33627539Y-36031461D01*
X33611442Y-36013701D01*
X33597164Y-35994448D01*
X33584841Y-35973889D01*
X33574592Y-35952220D01*
X33566517Y-35929652D01*
X33560693Y-35906401D01*
X33557176Y-35882691D01*
X33556000Y-35858750D01*
X33556000Y-35295250D01*
X33557176Y-35271309D01*
X33560693Y-35247599D01*
X33566517Y-35224348D01*
X33574592Y-35201780D01*
X33584841Y-35180111D01*
X33597164Y-35159552D01*
X33611442Y-35140299D01*
X33627539Y-35122539D01*
X33645299Y-35106442D01*
X33664552Y-35092164D01*
X33685111Y-35079841D01*
X33706780Y-35069592D01*
X33729348Y-35061517D01*
X33752599Y-35055693D01*
X33776309Y-35052176D01*
X33800250Y-35051000D01*
X34288750Y-35051000D01*
X34312691Y-35052176D01*
G37*
G36*
X37436691Y-35052176D02*
G01*
X37460401Y-35055693D01*
X37483652Y-35061517D01*
X37506220Y-35069592D01*
X37527889Y-35079841D01*
X37548448Y-35092164D01*
X37567701Y-35106442D01*
X37585461Y-35122539D01*
X37601558Y-35140299D01*
X37615836Y-35159552D01*
X37628159Y-35180111D01*
X37638408Y-35201780D01*
X37646483Y-35224348D01*
X37652307Y-35247599D01*
X37655824Y-35271309D01*
X37657000Y-35295250D01*
X37657000Y-35858750D01*
X37655824Y-35882691D01*
X37652307Y-35906401D01*
X37646483Y-35929652D01*
X37638408Y-35952220D01*
X37628159Y-35973889D01*
X37615836Y-35994448D01*
X37601558Y-36013701D01*
X37585461Y-36031461D01*
X37567701Y-36047558D01*
X37548448Y-36061836D01*
X37527889Y-36074159D01*
X37506220Y-36084408D01*
X37483652Y-36092483D01*
X37460401Y-36098307D01*
X37436691Y-36101824D01*
X37412750Y-36103000D01*
X36924250Y-36103000D01*
X36900309Y-36101824D01*
X36876599Y-36098307D01*
X36853348Y-36092483D01*
X36830780Y-36084408D01*
X36809111Y-36074159D01*
X36788552Y-36061836D01*
X36769299Y-36047558D01*
X36751539Y-36031461D01*
X36735442Y-36013701D01*
X36721164Y-35994448D01*
X36708841Y-35973889D01*
X36698592Y-35952220D01*
X36690517Y-35929652D01*
X36684693Y-35906401D01*
X36681176Y-35882691D01*
X36680000Y-35858750D01*
X36680000Y-35295250D01*
X36681176Y-35271309D01*
X36684693Y-35247599D01*
X36690517Y-35224348D01*
X36698592Y-35201780D01*
X36708841Y-35180111D01*
X36721164Y-35159552D01*
X36735442Y-35140299D01*
X36751539Y-35122539D01*
X36769299Y-35106442D01*
X36788552Y-35092164D01*
X36809111Y-35079841D01*
X36830780Y-35069592D01*
X36853348Y-35061517D01*
X36876599Y-35055693D01*
X36900309Y-35052176D01*
X36924250Y-35051000D01*
X37412750Y-35051000D01*
X37436691Y-35052176D01*
G37*
G36*
X35861691Y-35052176D02*
G01*
X35885401Y-35055693D01*
X35908652Y-35061517D01*
X35931220Y-35069592D01*
X35952889Y-35079841D01*
X35973448Y-35092164D01*
X35992701Y-35106442D01*
X36010461Y-35122539D01*
X36026558Y-35140299D01*
X36040836Y-35159552D01*
X36053159Y-35180111D01*
X36063408Y-35201780D01*
X36071483Y-35224348D01*
X36077307Y-35247599D01*
X36080824Y-35271309D01*
X36082000Y-35295250D01*
X36082000Y-35858750D01*
X36080824Y-35882691D01*
X36077307Y-35906401D01*
X36071483Y-35929652D01*
X36063408Y-35952220D01*
X36053159Y-35973889D01*
X36040836Y-35994448D01*
X36026558Y-36013701D01*
X36010461Y-36031461D01*
X35992701Y-36047558D01*
X35973448Y-36061836D01*
X35952889Y-36074159D01*
X35931220Y-36084408D01*
X35908652Y-36092483D01*
X35885401Y-36098307D01*
X35861691Y-36101824D01*
X35837750Y-36103000D01*
X35349250Y-36103000D01*
X35325309Y-36101824D01*
X35301599Y-36098307D01*
X35278348Y-36092483D01*
X35255780Y-36084408D01*
X35234111Y-36074159D01*
X35213552Y-36061836D01*
X35194299Y-36047558D01*
X35176539Y-36031461D01*
X35160442Y-36013701D01*
X35146164Y-35994448D01*
X35133841Y-35973889D01*
X35123592Y-35952220D01*
X35115517Y-35929652D01*
X35109693Y-35906401D01*
X35106176Y-35882691D01*
X35105000Y-35858750D01*
X35105000Y-35295250D01*
X35106176Y-35271309D01*
X35109693Y-35247599D01*
X35115517Y-35224348D01*
X35123592Y-35201780D01*
X35133841Y-35180111D01*
X35146164Y-35159552D01*
X35160442Y-35140299D01*
X35176539Y-35122539D01*
X35194299Y-35106442D01*
X35213552Y-35092164D01*
X35234111Y-35079841D01*
X35255780Y-35069592D01*
X35278348Y-35061517D01*
X35301599Y-35055693D01*
X35325309Y-35052176D01*
X35349250Y-35051000D01*
X35837750Y-35051000D01*
X35861691Y-35052176D01*
G37*
G36*
X38934691Y-36169176D02*
G01*
X38958401Y-36172693D01*
X38981652Y-36178517D01*
X39004220Y-36186592D01*
X39025889Y-36196841D01*
X39046448Y-36209164D01*
X39065701Y-36223442D01*
X39083461Y-36239539D01*
X39099558Y-36257299D01*
X39113836Y-36276552D01*
X39126159Y-36297111D01*
X39136408Y-36318780D01*
X39144483Y-36341348D01*
X39150307Y-36364599D01*
X39153824Y-36388309D01*
X39155000Y-36412250D01*
X39155000Y-36900750D01*
X39153824Y-36924691D01*
X39150307Y-36948401D01*
X39144483Y-36971652D01*
X39136408Y-36994220D01*
X39126159Y-37015889D01*
X39113836Y-37036448D01*
X39099558Y-37055701D01*
X39083461Y-37073461D01*
X39065701Y-37089558D01*
X39046448Y-37103836D01*
X39025889Y-37116159D01*
X39004220Y-37126408D01*
X38981652Y-37134483D01*
X38958401Y-37140307D01*
X38934691Y-37143824D01*
X38910750Y-37145000D01*
X38347250Y-37145000D01*
X38323309Y-37143824D01*
X38299599Y-37140307D01*
X38276348Y-37134483D01*
X38253780Y-37126408D01*
X38232111Y-37116159D01*
X38211552Y-37103836D01*
X38192299Y-37089558D01*
X38174539Y-37073461D01*
X38158442Y-37055701D01*
X38144164Y-37036448D01*
X38131841Y-37015889D01*
X38121592Y-36994220D01*
X38113517Y-36971652D01*
X38107693Y-36948401D01*
X38104176Y-36924691D01*
X38103000Y-36900750D01*
X38103000Y-36412250D01*
X38104176Y-36388309D01*
X38107693Y-36364599D01*
X38113517Y-36341348D01*
X38121592Y-36318780D01*
X38131841Y-36297111D01*
X38144164Y-36276552D01*
X38158442Y-36257299D01*
X38174539Y-36239539D01*
X38192299Y-36223442D01*
X38211552Y-36209164D01*
X38232111Y-36196841D01*
X38253780Y-36186592D01*
X38276348Y-36178517D01*
X38299599Y-36172693D01*
X38323309Y-36169176D01*
X38347250Y-36168000D01*
X38910750Y-36168000D01*
X38934691Y-36169176D01*
G37*
G36*
X38934691Y-37744176D02*
G01*
X38958401Y-37747693D01*
X38981652Y-37753517D01*
X39004220Y-37761592D01*
X39025889Y-37771841D01*
X39046448Y-37784164D01*
X39065701Y-37798442D01*
X39083461Y-37814539D01*
X39099558Y-37832299D01*
X39113836Y-37851552D01*
X39126159Y-37872111D01*
X39136408Y-37893780D01*
X39144483Y-37916348D01*
X39150307Y-37939599D01*
X39153824Y-37963309D01*
X39155000Y-37987250D01*
X39155000Y-38475750D01*
X39153824Y-38499691D01*
X39150307Y-38523401D01*
X39144483Y-38546652D01*
X39136408Y-38569220D01*
X39126159Y-38590889D01*
X39113836Y-38611448D01*
X39099558Y-38630701D01*
X39083461Y-38648461D01*
X39065701Y-38664558D01*
X39046448Y-38678836D01*
X39025889Y-38691159D01*
X39004220Y-38701408D01*
X38981652Y-38709483D01*
X38958401Y-38715307D01*
X38934691Y-38718824D01*
X38910750Y-38720000D01*
X38347250Y-38720000D01*
X38323309Y-38718824D01*
X38299599Y-38715307D01*
X38276348Y-38709483D01*
X38253780Y-38701408D01*
X38232111Y-38691159D01*
X38211552Y-38678836D01*
X38192299Y-38664558D01*
X38174539Y-38648461D01*
X38158442Y-38630701D01*
X38144164Y-38611448D01*
X38131841Y-38590889D01*
X38121592Y-38569220D01*
X38113517Y-38546652D01*
X38107693Y-38523401D01*
X38104176Y-38499691D01*
X38103000Y-38475750D01*
X38103000Y-37987250D01*
X38104176Y-37963309D01*
X38107693Y-37939599D01*
X38113517Y-37916348D01*
X38121592Y-37893780D01*
X38131841Y-37872111D01*
X38144164Y-37851552D01*
X38158442Y-37832299D01*
X38174539Y-37814539D01*
X38192299Y-37798442D01*
X38211552Y-37784164D01*
X38232111Y-37771841D01*
X38253780Y-37761592D01*
X38276348Y-37753517D01*
X38299599Y-37747693D01*
X38323309Y-37744176D01*
X38347250Y-37743000D01*
X38910750Y-37743000D01*
X38934691Y-37744176D01*
G37*
G36*
X45462491Y-32320876D02*
G01*
X45486201Y-32324393D01*
X45509452Y-32330217D01*
X45532020Y-32338292D01*
X45553689Y-32348541D01*
X45574248Y-32360864D01*
X45593501Y-32375142D01*
X45611261Y-32391239D01*
X45627358Y-32408999D01*
X45641636Y-32428252D01*
X45653959Y-32448811D01*
X45664208Y-32470480D01*
X45672283Y-32493048D01*
X45678107Y-32516299D01*
X45681624Y-32540009D01*
X45682800Y-32563950D01*
X45682800Y-33052450D01*
X45681624Y-33076391D01*
X45678107Y-33100101D01*
X45672283Y-33123352D01*
X45664208Y-33145920D01*
X45653959Y-33167589D01*
X45641636Y-33188148D01*
X45627358Y-33207401D01*
X45611261Y-33225161D01*
X45593501Y-33241258D01*
X45574248Y-33255536D01*
X45553689Y-33267859D01*
X45532020Y-33278108D01*
X45509452Y-33286183D01*
X45486201Y-33292007D01*
X45462491Y-33295524D01*
X45438550Y-33296700D01*
X44875050Y-33296700D01*
X44851109Y-33295524D01*
X44827399Y-33292007D01*
X44804148Y-33286183D01*
X44781580Y-33278108D01*
X44759911Y-33267859D01*
X44739352Y-33255536D01*
X44720099Y-33241258D01*
X44702339Y-33225161D01*
X44686242Y-33207401D01*
X44671964Y-33188148D01*
X44659641Y-33167589D01*
X44649392Y-33145920D01*
X44641317Y-33123352D01*
X44635493Y-33100101D01*
X44631976Y-33076391D01*
X44630800Y-33052450D01*
X44630800Y-32563950D01*
X44631976Y-32540009D01*
X44635493Y-32516299D01*
X44641317Y-32493048D01*
X44649392Y-32470480D01*
X44659641Y-32448811D01*
X44671964Y-32428252D01*
X44686242Y-32408999D01*
X44702339Y-32391239D01*
X44720099Y-32375142D01*
X44739352Y-32360864D01*
X44759911Y-32348541D01*
X44781580Y-32338292D01*
X44804148Y-32330217D01*
X44827399Y-32324393D01*
X44851109Y-32320876D01*
X44875050Y-32319700D01*
X45438550Y-32319700D01*
X45462491Y-32320876D01*
G37*
G36*
X45462491Y-33895876D02*
G01*
X45486201Y-33899393D01*
X45509452Y-33905217D01*
X45532020Y-33913292D01*
X45553689Y-33923541D01*
X45574248Y-33935864D01*
X45593501Y-33950142D01*
X45611261Y-33966239D01*
X45627358Y-33983999D01*
X45641636Y-34003252D01*
X45653959Y-34023811D01*
X45664208Y-34045480D01*
X45672283Y-34068048D01*
X45678107Y-34091299D01*
X45681624Y-34115009D01*
X45682800Y-34138950D01*
X45682800Y-34627450D01*
X45681624Y-34651391D01*
X45678107Y-34675101D01*
X45672283Y-34698352D01*
X45664208Y-34720920D01*
X45653959Y-34742589D01*
X45641636Y-34763148D01*
X45627358Y-34782401D01*
X45611261Y-34800161D01*
X45593501Y-34816258D01*
X45574248Y-34830536D01*
X45553689Y-34842859D01*
X45532020Y-34853108D01*
X45509452Y-34861183D01*
X45486201Y-34867007D01*
X45462491Y-34870524D01*
X45438550Y-34871700D01*
X44875050Y-34871700D01*
X44851109Y-34870524D01*
X44827399Y-34867007D01*
X44804148Y-34861183D01*
X44781580Y-34853108D01*
X44759911Y-34842859D01*
X44739352Y-34830536D01*
X44720099Y-34816258D01*
X44702339Y-34800161D01*
X44686242Y-34782401D01*
X44671964Y-34763148D01*
X44659641Y-34742589D01*
X44649392Y-34720920D01*
X44641317Y-34698352D01*
X44635493Y-34675101D01*
X44631976Y-34651391D01*
X44630800Y-34627450D01*
X44630800Y-34138950D01*
X44631976Y-34115009D01*
X44635493Y-34091299D01*
X44641317Y-34068048D01*
X44649392Y-34045480D01*
X44659641Y-34023811D01*
X44671964Y-34003252D01*
X44686242Y-33983999D01*
X44702339Y-33966239D01*
X44720099Y-33950142D01*
X44739352Y-33935864D01*
X44759911Y-33923541D01*
X44781580Y-33913292D01*
X44804148Y-33905217D01*
X44827399Y-33899393D01*
X44851109Y-33895876D01*
X44875050Y-33894700D01*
X45438550Y-33894700D01*
X45462491Y-33895876D01*
G37*
D21*
X38253000Y-43006500D03*
X44053000Y-43006500D03*
D22*
X44653000Y-43006500D03*
X37653000Y-43006500D03*
D23*
X40153000Y-43006500D03*
D24*
X43653000Y-40306500D03*
D25*
X41153000Y-40306500D03*
X41803000Y-40306500D03*
X42453000Y-40306500D03*
X39853000Y-40306500D03*
X40503000Y-40306500D03*
D24*
X38653000Y-40306500D03*
D23*
X42153000Y-43006500D03*
D20*
X42934300Y-28830400D03*
X44834300Y-28830400D03*
X44834300Y-31030400D03*
X43884300Y-31030400D03*
X42934300Y-31030400D03*
D17*
G36*
X45462491Y-37756676D02*
G01*
X45486201Y-37760193D01*
X45509452Y-37766017D01*
X45532020Y-37774092D01*
X45553689Y-37784341D01*
X45574248Y-37796664D01*
X45593501Y-37810942D01*
X45611261Y-37827039D01*
X45627358Y-37844799D01*
X45641636Y-37864052D01*
X45653959Y-37884611D01*
X45664208Y-37906280D01*
X45672283Y-37928848D01*
X45678107Y-37952099D01*
X45681624Y-37975809D01*
X45682800Y-37999750D01*
X45682800Y-38488250D01*
X45681624Y-38512191D01*
X45678107Y-38535901D01*
X45672283Y-38559152D01*
X45664208Y-38581720D01*
X45653959Y-38603389D01*
X45641636Y-38623948D01*
X45627358Y-38643201D01*
X45611261Y-38660961D01*
X45593501Y-38677058D01*
X45574248Y-38691336D01*
X45553689Y-38703659D01*
X45532020Y-38713908D01*
X45509452Y-38721983D01*
X45486201Y-38727807D01*
X45462491Y-38731324D01*
X45438550Y-38732500D01*
X44875050Y-38732500D01*
X44851109Y-38731324D01*
X44827399Y-38727807D01*
X44804148Y-38721983D01*
X44781580Y-38713908D01*
X44759911Y-38703659D01*
X44739352Y-38691336D01*
X44720099Y-38677058D01*
X44702339Y-38660961D01*
X44686242Y-38643201D01*
X44671964Y-38623948D01*
X44659641Y-38603389D01*
X44649392Y-38581720D01*
X44641317Y-38559152D01*
X44635493Y-38535901D01*
X44631976Y-38512191D01*
X44630800Y-38488250D01*
X44630800Y-37999750D01*
X44631976Y-37975809D01*
X44635493Y-37952099D01*
X44641317Y-37928848D01*
X44649392Y-37906280D01*
X44659641Y-37884611D01*
X44671964Y-37864052D01*
X44686242Y-37844799D01*
X44702339Y-37827039D01*
X44720099Y-37810942D01*
X44739352Y-37796664D01*
X44759911Y-37784341D01*
X44781580Y-37774092D01*
X44804148Y-37766017D01*
X44827399Y-37760193D01*
X44851109Y-37756676D01*
X44875050Y-37755500D01*
X45438550Y-37755500D01*
X45462491Y-37756676D01*
G37*
G36*
X45462491Y-36181676D02*
G01*
X45486201Y-36185193D01*
X45509452Y-36191017D01*
X45532020Y-36199092D01*
X45553689Y-36209341D01*
X45574248Y-36221664D01*
X45593501Y-36235942D01*
X45611261Y-36252039D01*
X45627358Y-36269799D01*
X45641636Y-36289052D01*
X45653959Y-36309611D01*
X45664208Y-36331280D01*
X45672283Y-36353848D01*
X45678107Y-36377099D01*
X45681624Y-36400809D01*
X45682800Y-36424750D01*
X45682800Y-36913250D01*
X45681624Y-36937191D01*
X45678107Y-36960901D01*
X45672283Y-36984152D01*
X45664208Y-37006720D01*
X45653959Y-37028389D01*
X45641636Y-37048948D01*
X45627358Y-37068201D01*
X45611261Y-37085961D01*
X45593501Y-37102058D01*
X45574248Y-37116336D01*
X45553689Y-37128659D01*
X45532020Y-37138908D01*
X45509452Y-37146983D01*
X45486201Y-37152807D01*
X45462491Y-37156324D01*
X45438550Y-37157500D01*
X44875050Y-37157500D01*
X44851109Y-37156324D01*
X44827399Y-37152807D01*
X44804148Y-37146983D01*
X44781580Y-37138908D01*
X44759911Y-37128659D01*
X44739352Y-37116336D01*
X44720099Y-37102058D01*
X44702339Y-37085961D01*
X44686242Y-37068201D01*
X44671964Y-37048948D01*
X44659641Y-37028389D01*
X44649392Y-37006720D01*
X44641317Y-36984152D01*
X44635493Y-36960901D01*
X44631976Y-36937191D01*
X44630800Y-36913250D01*
X44630800Y-36424750D01*
X44631976Y-36400809D01*
X44635493Y-36377099D01*
X44641317Y-36353848D01*
X44649392Y-36331280D01*
X44659641Y-36309611D01*
X44671964Y-36289052D01*
X44686242Y-36269799D01*
X44702339Y-36252039D01*
X44720099Y-36235942D01*
X44739352Y-36221664D01*
X44759911Y-36209341D01*
X44781580Y-36199092D01*
X44804148Y-36191017D01*
X44827399Y-36185193D01*
X44851109Y-36181676D01*
X44875050Y-36180500D01*
X45438550Y-36180500D01*
X45462491Y-36181676D01*
G37*
M02*
