G04 #@! TF.GenerationSoftware,KiCad,Pcbnew,(5.1.5)-3*
G04 #@! TF.CreationDate,2020-07-05T00:24:43+03:00*
G04 #@! TF.ProjectId,body_temp,626f6479-5f74-4656-9d70-2e6b69636164,rev?*
G04 #@! TF.SameCoordinates,Original*
G04 #@! TF.FileFunction,Copper,L1,Top*
G04 #@! TF.FilePolarity,Positive*
%FSLAX46Y46*%
G04 Gerber Fmt 4.6, Leading zero omitted, Abs format (unit mm)*
G04 Created by KiCad (PCBNEW (5.1.5)-3) date 2020-07-05 00:24:43*
%MOMM*%
%LPD*%
G04 APERTURE LIST*
%ADD10C,1.300000*%
%ADD11O,1.524000X1.000000*%
%ADD12R,1.000000X2.500000*%
%ADD13R,1.800000X1.000000*%
%ADD14C,0.100000*%
%ADD15R,2.400000X2.400000*%
%ADD16R,1.450000X0.450000*%
%ADD17R,0.650000X1.060000*%
%ADD18R,1.200000X1.900000*%
%ADD19O,1.200000X1.900000*%
%ADD20R,1.500000X1.900000*%
%ADD21C,1.450000*%
%ADD22R,0.400000X1.350000*%
%ADD23C,0.800000*%
%ADD24C,0.350000*%
%ADD25C,0.400000*%
%ADD26C,0.254000*%
G04 APERTURE END LIST*
D10*
X20066000Y-41457000D03*
X20066000Y-39957000D03*
X20066000Y-38457000D03*
X20066000Y-36957000D03*
D11*
X44991700Y-19930600D03*
X44991700Y-21530600D03*
D12*
X24905500Y-16801000D03*
X26905500Y-16801000D03*
X28905500Y-16801000D03*
X30905500Y-16801000D03*
X32905500Y-16801000D03*
X34905500Y-16801000D03*
X36905500Y-16801000D03*
X38905500Y-16801000D03*
D13*
X40405500Y-19401000D03*
X40405500Y-21401000D03*
X40405500Y-23401000D03*
X40405500Y-25401000D03*
X40405500Y-27401000D03*
X40405500Y-29401000D03*
D12*
X38905500Y-32001000D03*
X36905500Y-32001000D03*
X34905500Y-32001000D03*
X32905500Y-32001000D03*
X30905500Y-32001000D03*
X28905500Y-32001000D03*
X26905500Y-32001000D03*
X24905500Y-32001000D03*
G04 #@! TA.AperFunction,SMDPad,CuDef*
D14*
G36*
X43110391Y-19519353D02*
G01*
X43131626Y-19522503D01*
X43152450Y-19527719D01*
X43172662Y-19534951D01*
X43192068Y-19544130D01*
X43210481Y-19555166D01*
X43227724Y-19567954D01*
X43243630Y-19582370D01*
X43258046Y-19598276D01*
X43270834Y-19615519D01*
X43281870Y-19633932D01*
X43291049Y-19653338D01*
X43298281Y-19673550D01*
X43303497Y-19694374D01*
X43306647Y-19715609D01*
X43307700Y-19737050D01*
X43307700Y-20174550D01*
X43306647Y-20195991D01*
X43303497Y-20217226D01*
X43298281Y-20238050D01*
X43291049Y-20258262D01*
X43281870Y-20277668D01*
X43270834Y-20296081D01*
X43258046Y-20313324D01*
X43243630Y-20329230D01*
X43227724Y-20343646D01*
X43210481Y-20356434D01*
X43192068Y-20367470D01*
X43172662Y-20376649D01*
X43152450Y-20383881D01*
X43131626Y-20389097D01*
X43110391Y-20392247D01*
X43088950Y-20393300D01*
X42576450Y-20393300D01*
X42555009Y-20392247D01*
X42533774Y-20389097D01*
X42512950Y-20383881D01*
X42492738Y-20376649D01*
X42473332Y-20367470D01*
X42454919Y-20356434D01*
X42437676Y-20343646D01*
X42421770Y-20329230D01*
X42407354Y-20313324D01*
X42394566Y-20296081D01*
X42383530Y-20277668D01*
X42374351Y-20258262D01*
X42367119Y-20238050D01*
X42361903Y-20217226D01*
X42358753Y-20195991D01*
X42357700Y-20174550D01*
X42357700Y-19737050D01*
X42358753Y-19715609D01*
X42361903Y-19694374D01*
X42367119Y-19673550D01*
X42374351Y-19653338D01*
X42383530Y-19633932D01*
X42394566Y-19615519D01*
X42407354Y-19598276D01*
X42421770Y-19582370D01*
X42437676Y-19567954D01*
X42454919Y-19555166D01*
X42473332Y-19544130D01*
X42492738Y-19534951D01*
X42512950Y-19527719D01*
X42533774Y-19522503D01*
X42555009Y-19519353D01*
X42576450Y-19518300D01*
X43088950Y-19518300D01*
X43110391Y-19519353D01*
G37*
G04 #@! TD.AperFunction*
G04 #@! TA.AperFunction,SMDPad,CuDef*
G36*
X43110391Y-21094353D02*
G01*
X43131626Y-21097503D01*
X43152450Y-21102719D01*
X43172662Y-21109951D01*
X43192068Y-21119130D01*
X43210481Y-21130166D01*
X43227724Y-21142954D01*
X43243630Y-21157370D01*
X43258046Y-21173276D01*
X43270834Y-21190519D01*
X43281870Y-21208932D01*
X43291049Y-21228338D01*
X43298281Y-21248550D01*
X43303497Y-21269374D01*
X43306647Y-21290609D01*
X43307700Y-21312050D01*
X43307700Y-21749550D01*
X43306647Y-21770991D01*
X43303497Y-21792226D01*
X43298281Y-21813050D01*
X43291049Y-21833262D01*
X43281870Y-21852668D01*
X43270834Y-21871081D01*
X43258046Y-21888324D01*
X43243630Y-21904230D01*
X43227724Y-21918646D01*
X43210481Y-21931434D01*
X43192068Y-21942470D01*
X43172662Y-21951649D01*
X43152450Y-21958881D01*
X43131626Y-21964097D01*
X43110391Y-21967247D01*
X43088950Y-21968300D01*
X42576450Y-21968300D01*
X42555009Y-21967247D01*
X42533774Y-21964097D01*
X42512950Y-21958881D01*
X42492738Y-21951649D01*
X42473332Y-21942470D01*
X42454919Y-21931434D01*
X42437676Y-21918646D01*
X42421770Y-21904230D01*
X42407354Y-21888324D01*
X42394566Y-21871081D01*
X42383530Y-21852668D01*
X42374351Y-21833262D01*
X42367119Y-21813050D01*
X42361903Y-21792226D01*
X42358753Y-21770991D01*
X42357700Y-21749550D01*
X42357700Y-21312050D01*
X42358753Y-21290609D01*
X42361903Y-21269374D01*
X42367119Y-21248550D01*
X42374351Y-21228338D01*
X42383530Y-21208932D01*
X42394566Y-21190519D01*
X42407354Y-21173276D01*
X42421770Y-21157370D01*
X42437676Y-21142954D01*
X42454919Y-21130166D01*
X42473332Y-21119130D01*
X42492738Y-21109951D01*
X42512950Y-21102719D01*
X42533774Y-21097503D01*
X42555009Y-21094353D01*
X42576450Y-21093300D01*
X43088950Y-21093300D01*
X43110391Y-21094353D01*
G37*
G04 #@! TD.AperFunction*
G04 #@! TA.AperFunction,SMDPad,CuDef*
G36*
X37382691Y-37934553D02*
G01*
X37403926Y-37937703D01*
X37424750Y-37942919D01*
X37444962Y-37950151D01*
X37464368Y-37959330D01*
X37482781Y-37970366D01*
X37500024Y-37983154D01*
X37515930Y-37997570D01*
X37530346Y-38013476D01*
X37543134Y-38030719D01*
X37554170Y-38049132D01*
X37563349Y-38068538D01*
X37570581Y-38088750D01*
X37575797Y-38109574D01*
X37578947Y-38130809D01*
X37580000Y-38152250D01*
X37580000Y-38589750D01*
X37578947Y-38611191D01*
X37575797Y-38632426D01*
X37570581Y-38653250D01*
X37563349Y-38673462D01*
X37554170Y-38692868D01*
X37543134Y-38711281D01*
X37530346Y-38728524D01*
X37515930Y-38744430D01*
X37500024Y-38758846D01*
X37482781Y-38771634D01*
X37464368Y-38782670D01*
X37444962Y-38791849D01*
X37424750Y-38799081D01*
X37403926Y-38804297D01*
X37382691Y-38807447D01*
X37361250Y-38808500D01*
X36848750Y-38808500D01*
X36827309Y-38807447D01*
X36806074Y-38804297D01*
X36785250Y-38799081D01*
X36765038Y-38791849D01*
X36745632Y-38782670D01*
X36727219Y-38771634D01*
X36709976Y-38758846D01*
X36694070Y-38744430D01*
X36679654Y-38728524D01*
X36666866Y-38711281D01*
X36655830Y-38692868D01*
X36646651Y-38673462D01*
X36639419Y-38653250D01*
X36634203Y-38632426D01*
X36631053Y-38611191D01*
X36630000Y-38589750D01*
X36630000Y-38152250D01*
X36631053Y-38130809D01*
X36634203Y-38109574D01*
X36639419Y-38088750D01*
X36646651Y-38068538D01*
X36655830Y-38049132D01*
X36666866Y-38030719D01*
X36679654Y-38013476D01*
X36694070Y-37997570D01*
X36709976Y-37983154D01*
X36727219Y-37970366D01*
X36745632Y-37959330D01*
X36765038Y-37950151D01*
X36785250Y-37942919D01*
X36806074Y-37937703D01*
X36827309Y-37934553D01*
X36848750Y-37933500D01*
X37361250Y-37933500D01*
X37382691Y-37934553D01*
G37*
G04 #@! TD.AperFunction*
G04 #@! TA.AperFunction,SMDPad,CuDef*
G36*
X37382691Y-36359553D02*
G01*
X37403926Y-36362703D01*
X37424750Y-36367919D01*
X37444962Y-36375151D01*
X37464368Y-36384330D01*
X37482781Y-36395366D01*
X37500024Y-36408154D01*
X37515930Y-36422570D01*
X37530346Y-36438476D01*
X37543134Y-36455719D01*
X37554170Y-36474132D01*
X37563349Y-36493538D01*
X37570581Y-36513750D01*
X37575797Y-36534574D01*
X37578947Y-36555809D01*
X37580000Y-36577250D01*
X37580000Y-37014750D01*
X37578947Y-37036191D01*
X37575797Y-37057426D01*
X37570581Y-37078250D01*
X37563349Y-37098462D01*
X37554170Y-37117868D01*
X37543134Y-37136281D01*
X37530346Y-37153524D01*
X37515930Y-37169430D01*
X37500024Y-37183846D01*
X37482781Y-37196634D01*
X37464368Y-37207670D01*
X37444962Y-37216849D01*
X37424750Y-37224081D01*
X37403926Y-37229297D01*
X37382691Y-37232447D01*
X37361250Y-37233500D01*
X36848750Y-37233500D01*
X36827309Y-37232447D01*
X36806074Y-37229297D01*
X36785250Y-37224081D01*
X36765038Y-37216849D01*
X36745632Y-37207670D01*
X36727219Y-37196634D01*
X36709976Y-37183846D01*
X36694070Y-37169430D01*
X36679654Y-37153524D01*
X36666866Y-37136281D01*
X36655830Y-37117868D01*
X36646651Y-37098462D01*
X36639419Y-37078250D01*
X36634203Y-37057426D01*
X36631053Y-37036191D01*
X36630000Y-37014750D01*
X36630000Y-36577250D01*
X36631053Y-36555809D01*
X36634203Y-36534574D01*
X36639419Y-36513750D01*
X36646651Y-36493538D01*
X36655830Y-36474132D01*
X36666866Y-36455719D01*
X36679654Y-36438476D01*
X36694070Y-36422570D01*
X36709976Y-36408154D01*
X36727219Y-36395366D01*
X36745632Y-36384330D01*
X36765038Y-36375151D01*
X36785250Y-36367919D01*
X36806074Y-36362703D01*
X36827309Y-36359553D01*
X36848750Y-36358500D01*
X37361250Y-36358500D01*
X37382691Y-36359553D01*
G37*
G04 #@! TD.AperFunction*
D15*
X24557400Y-36974000D03*
X24557400Y-40974000D03*
D16*
X35038500Y-37097000D03*
X35038500Y-37747000D03*
X35038500Y-38397000D03*
X35038500Y-39047000D03*
X35038500Y-39697000D03*
X35038500Y-40347000D03*
X35038500Y-40997000D03*
X35038500Y-41647000D03*
X35038500Y-42297000D03*
X35038500Y-42947000D03*
X29138500Y-42947000D03*
X29138500Y-42297000D03*
X29138500Y-41647000D03*
X29138500Y-40997000D03*
X29138500Y-40347000D03*
X29138500Y-39697000D03*
X29138500Y-39047000D03*
X29138500Y-38397000D03*
X29138500Y-37747000D03*
X29138500Y-37097000D03*
D17*
X42934300Y-24756600D03*
X44834300Y-24756600D03*
X44834300Y-26956600D03*
X43884300Y-26956600D03*
X42934300Y-26956600D03*
X41453000Y-37777000D03*
X42403000Y-37777000D03*
X40503000Y-37777000D03*
X40503000Y-35577000D03*
X41453000Y-35577000D03*
X42403000Y-35577000D03*
G04 #@! TA.AperFunction,SMDPad,CuDef*
D14*
G36*
X27476691Y-38848753D02*
G01*
X27497926Y-38851903D01*
X27518750Y-38857119D01*
X27538962Y-38864351D01*
X27558368Y-38873530D01*
X27576781Y-38884566D01*
X27594024Y-38897354D01*
X27609930Y-38911770D01*
X27624346Y-38927676D01*
X27637134Y-38944919D01*
X27648170Y-38963332D01*
X27657349Y-38982738D01*
X27664581Y-39002950D01*
X27669797Y-39023774D01*
X27672947Y-39045009D01*
X27674000Y-39066450D01*
X27674000Y-39503950D01*
X27672947Y-39525391D01*
X27669797Y-39546626D01*
X27664581Y-39567450D01*
X27657349Y-39587662D01*
X27648170Y-39607068D01*
X27637134Y-39625481D01*
X27624346Y-39642724D01*
X27609930Y-39658630D01*
X27594024Y-39673046D01*
X27576781Y-39685834D01*
X27558368Y-39696870D01*
X27538962Y-39706049D01*
X27518750Y-39713281D01*
X27497926Y-39718497D01*
X27476691Y-39721647D01*
X27455250Y-39722700D01*
X26942750Y-39722700D01*
X26921309Y-39721647D01*
X26900074Y-39718497D01*
X26879250Y-39713281D01*
X26859038Y-39706049D01*
X26839632Y-39696870D01*
X26821219Y-39685834D01*
X26803976Y-39673046D01*
X26788070Y-39658630D01*
X26773654Y-39642724D01*
X26760866Y-39625481D01*
X26749830Y-39607068D01*
X26740651Y-39587662D01*
X26733419Y-39567450D01*
X26728203Y-39546626D01*
X26725053Y-39525391D01*
X26724000Y-39503950D01*
X26724000Y-39066450D01*
X26725053Y-39045009D01*
X26728203Y-39023774D01*
X26733419Y-39002950D01*
X26740651Y-38982738D01*
X26749830Y-38963332D01*
X26760866Y-38944919D01*
X26773654Y-38927676D01*
X26788070Y-38911770D01*
X26803976Y-38897354D01*
X26821219Y-38884566D01*
X26839632Y-38873530D01*
X26859038Y-38864351D01*
X26879250Y-38857119D01*
X26900074Y-38851903D01*
X26921309Y-38848753D01*
X26942750Y-38847700D01*
X27455250Y-38847700D01*
X27476691Y-38848753D01*
G37*
G04 #@! TD.AperFunction*
G04 #@! TA.AperFunction,SMDPad,CuDef*
G36*
X27476691Y-40423753D02*
G01*
X27497926Y-40426903D01*
X27518750Y-40432119D01*
X27538962Y-40439351D01*
X27558368Y-40448530D01*
X27576781Y-40459566D01*
X27594024Y-40472354D01*
X27609930Y-40486770D01*
X27624346Y-40502676D01*
X27637134Y-40519919D01*
X27648170Y-40538332D01*
X27657349Y-40557738D01*
X27664581Y-40577950D01*
X27669797Y-40598774D01*
X27672947Y-40620009D01*
X27674000Y-40641450D01*
X27674000Y-41078950D01*
X27672947Y-41100391D01*
X27669797Y-41121626D01*
X27664581Y-41142450D01*
X27657349Y-41162662D01*
X27648170Y-41182068D01*
X27637134Y-41200481D01*
X27624346Y-41217724D01*
X27609930Y-41233630D01*
X27594024Y-41248046D01*
X27576781Y-41260834D01*
X27558368Y-41271870D01*
X27538962Y-41281049D01*
X27518750Y-41288281D01*
X27497926Y-41293497D01*
X27476691Y-41296647D01*
X27455250Y-41297700D01*
X26942750Y-41297700D01*
X26921309Y-41296647D01*
X26900074Y-41293497D01*
X26879250Y-41288281D01*
X26859038Y-41281049D01*
X26839632Y-41271870D01*
X26821219Y-41260834D01*
X26803976Y-41248046D01*
X26788070Y-41233630D01*
X26773654Y-41217724D01*
X26760866Y-41200481D01*
X26749830Y-41182068D01*
X26740651Y-41162662D01*
X26733419Y-41142450D01*
X26728203Y-41121626D01*
X26725053Y-41100391D01*
X26724000Y-41078950D01*
X26724000Y-40641450D01*
X26725053Y-40620009D01*
X26728203Y-40598774D01*
X26733419Y-40577950D01*
X26740651Y-40557738D01*
X26749830Y-40538332D01*
X26760866Y-40519919D01*
X26773654Y-40502676D01*
X26788070Y-40486770D01*
X26803976Y-40472354D01*
X26821219Y-40459566D01*
X26839632Y-40448530D01*
X26859038Y-40439351D01*
X26879250Y-40432119D01*
X26900074Y-40426903D01*
X26921309Y-40423753D01*
X26942750Y-40422700D01*
X27455250Y-40422700D01*
X27476691Y-40423753D01*
G37*
G04 #@! TD.AperFunction*
G04 #@! TA.AperFunction,SMDPad,CuDef*
G36*
X27476691Y-43294153D02*
G01*
X27497926Y-43297303D01*
X27518750Y-43302519D01*
X27538962Y-43309751D01*
X27558368Y-43318930D01*
X27576781Y-43329966D01*
X27594024Y-43342754D01*
X27609930Y-43357170D01*
X27624346Y-43373076D01*
X27637134Y-43390319D01*
X27648170Y-43408732D01*
X27657349Y-43428138D01*
X27664581Y-43448350D01*
X27669797Y-43469174D01*
X27672947Y-43490409D01*
X27674000Y-43511850D01*
X27674000Y-43949350D01*
X27672947Y-43970791D01*
X27669797Y-43992026D01*
X27664581Y-44012850D01*
X27657349Y-44033062D01*
X27648170Y-44052468D01*
X27637134Y-44070881D01*
X27624346Y-44088124D01*
X27609930Y-44104030D01*
X27594024Y-44118446D01*
X27576781Y-44131234D01*
X27558368Y-44142270D01*
X27538962Y-44151449D01*
X27518750Y-44158681D01*
X27497926Y-44163897D01*
X27476691Y-44167047D01*
X27455250Y-44168100D01*
X26942750Y-44168100D01*
X26921309Y-44167047D01*
X26900074Y-44163897D01*
X26879250Y-44158681D01*
X26859038Y-44151449D01*
X26839632Y-44142270D01*
X26821219Y-44131234D01*
X26803976Y-44118446D01*
X26788070Y-44104030D01*
X26773654Y-44088124D01*
X26760866Y-44070881D01*
X26749830Y-44052468D01*
X26740651Y-44033062D01*
X26733419Y-44012850D01*
X26728203Y-43992026D01*
X26725053Y-43970791D01*
X26724000Y-43949350D01*
X26724000Y-43511850D01*
X26725053Y-43490409D01*
X26728203Y-43469174D01*
X26733419Y-43448350D01*
X26740651Y-43428138D01*
X26749830Y-43408732D01*
X26760866Y-43390319D01*
X26773654Y-43373076D01*
X26788070Y-43357170D01*
X26803976Y-43342754D01*
X26821219Y-43329966D01*
X26839632Y-43318930D01*
X26859038Y-43309751D01*
X26879250Y-43302519D01*
X26900074Y-43297303D01*
X26921309Y-43294153D01*
X26942750Y-43293100D01*
X27455250Y-43293100D01*
X27476691Y-43294153D01*
G37*
G04 #@! TD.AperFunction*
G04 #@! TA.AperFunction,SMDPad,CuDef*
G36*
X27476691Y-41719153D02*
G01*
X27497926Y-41722303D01*
X27518750Y-41727519D01*
X27538962Y-41734751D01*
X27558368Y-41743930D01*
X27576781Y-41754966D01*
X27594024Y-41767754D01*
X27609930Y-41782170D01*
X27624346Y-41798076D01*
X27637134Y-41815319D01*
X27648170Y-41833732D01*
X27657349Y-41853138D01*
X27664581Y-41873350D01*
X27669797Y-41894174D01*
X27672947Y-41915409D01*
X27674000Y-41936850D01*
X27674000Y-42374350D01*
X27672947Y-42395791D01*
X27669797Y-42417026D01*
X27664581Y-42437850D01*
X27657349Y-42458062D01*
X27648170Y-42477468D01*
X27637134Y-42495881D01*
X27624346Y-42513124D01*
X27609930Y-42529030D01*
X27594024Y-42543446D01*
X27576781Y-42556234D01*
X27558368Y-42567270D01*
X27538962Y-42576449D01*
X27518750Y-42583681D01*
X27497926Y-42588897D01*
X27476691Y-42592047D01*
X27455250Y-42593100D01*
X26942750Y-42593100D01*
X26921309Y-42592047D01*
X26900074Y-42588897D01*
X26879250Y-42583681D01*
X26859038Y-42576449D01*
X26839632Y-42567270D01*
X26821219Y-42556234D01*
X26803976Y-42543446D01*
X26788070Y-42529030D01*
X26773654Y-42513124D01*
X26760866Y-42495881D01*
X26749830Y-42477468D01*
X26740651Y-42458062D01*
X26733419Y-42437850D01*
X26728203Y-42417026D01*
X26725053Y-42395791D01*
X26724000Y-42374350D01*
X26724000Y-41936850D01*
X26725053Y-41915409D01*
X26728203Y-41894174D01*
X26733419Y-41873350D01*
X26740651Y-41853138D01*
X26749830Y-41833732D01*
X26760866Y-41815319D01*
X26773654Y-41798076D01*
X26788070Y-41782170D01*
X26803976Y-41767754D01*
X26821219Y-41754966D01*
X26839632Y-41743930D01*
X26859038Y-41734751D01*
X26879250Y-41727519D01*
X26900074Y-41722303D01*
X26921309Y-41719153D01*
X26942750Y-41718100D01*
X27455250Y-41718100D01*
X27476691Y-41719153D01*
G37*
G04 #@! TD.AperFunction*
G04 #@! TA.AperFunction,SMDPad,CuDef*
G36*
X31173191Y-35103053D02*
G01*
X31194426Y-35106203D01*
X31215250Y-35111419D01*
X31235462Y-35118651D01*
X31254868Y-35127830D01*
X31273281Y-35138866D01*
X31290524Y-35151654D01*
X31306430Y-35166070D01*
X31320846Y-35181976D01*
X31333634Y-35199219D01*
X31344670Y-35217632D01*
X31353849Y-35237038D01*
X31361081Y-35257250D01*
X31366297Y-35278074D01*
X31369447Y-35299309D01*
X31370500Y-35320750D01*
X31370500Y-35833250D01*
X31369447Y-35854691D01*
X31366297Y-35875926D01*
X31361081Y-35896750D01*
X31353849Y-35916962D01*
X31344670Y-35936368D01*
X31333634Y-35954781D01*
X31320846Y-35972024D01*
X31306430Y-35987930D01*
X31290524Y-36002346D01*
X31273281Y-36015134D01*
X31254868Y-36026170D01*
X31235462Y-36035349D01*
X31215250Y-36042581D01*
X31194426Y-36047797D01*
X31173191Y-36050947D01*
X31151750Y-36052000D01*
X30714250Y-36052000D01*
X30692809Y-36050947D01*
X30671574Y-36047797D01*
X30650750Y-36042581D01*
X30630538Y-36035349D01*
X30611132Y-36026170D01*
X30592719Y-36015134D01*
X30575476Y-36002346D01*
X30559570Y-35987930D01*
X30545154Y-35972024D01*
X30532366Y-35954781D01*
X30521330Y-35936368D01*
X30512151Y-35916962D01*
X30504919Y-35896750D01*
X30499703Y-35875926D01*
X30496553Y-35854691D01*
X30495500Y-35833250D01*
X30495500Y-35320750D01*
X30496553Y-35299309D01*
X30499703Y-35278074D01*
X30504919Y-35257250D01*
X30512151Y-35237038D01*
X30521330Y-35217632D01*
X30532366Y-35199219D01*
X30545154Y-35181976D01*
X30559570Y-35166070D01*
X30575476Y-35151654D01*
X30592719Y-35138866D01*
X30611132Y-35127830D01*
X30630538Y-35118651D01*
X30650750Y-35111419D01*
X30671574Y-35106203D01*
X30692809Y-35103053D01*
X30714250Y-35102000D01*
X31151750Y-35102000D01*
X31173191Y-35103053D01*
G37*
G04 #@! TD.AperFunction*
G04 #@! TA.AperFunction,SMDPad,CuDef*
G36*
X29598191Y-35103053D02*
G01*
X29619426Y-35106203D01*
X29640250Y-35111419D01*
X29660462Y-35118651D01*
X29679868Y-35127830D01*
X29698281Y-35138866D01*
X29715524Y-35151654D01*
X29731430Y-35166070D01*
X29745846Y-35181976D01*
X29758634Y-35199219D01*
X29769670Y-35217632D01*
X29778849Y-35237038D01*
X29786081Y-35257250D01*
X29791297Y-35278074D01*
X29794447Y-35299309D01*
X29795500Y-35320750D01*
X29795500Y-35833250D01*
X29794447Y-35854691D01*
X29791297Y-35875926D01*
X29786081Y-35896750D01*
X29778849Y-35916962D01*
X29769670Y-35936368D01*
X29758634Y-35954781D01*
X29745846Y-35972024D01*
X29731430Y-35987930D01*
X29715524Y-36002346D01*
X29698281Y-36015134D01*
X29679868Y-36026170D01*
X29660462Y-36035349D01*
X29640250Y-36042581D01*
X29619426Y-36047797D01*
X29598191Y-36050947D01*
X29576750Y-36052000D01*
X29139250Y-36052000D01*
X29117809Y-36050947D01*
X29096574Y-36047797D01*
X29075750Y-36042581D01*
X29055538Y-36035349D01*
X29036132Y-36026170D01*
X29017719Y-36015134D01*
X29000476Y-36002346D01*
X28984570Y-35987930D01*
X28970154Y-35972024D01*
X28957366Y-35954781D01*
X28946330Y-35936368D01*
X28937151Y-35916962D01*
X28929919Y-35896750D01*
X28924703Y-35875926D01*
X28921553Y-35854691D01*
X28920500Y-35833250D01*
X28920500Y-35320750D01*
X28921553Y-35299309D01*
X28924703Y-35278074D01*
X28929919Y-35257250D01*
X28937151Y-35237038D01*
X28946330Y-35217632D01*
X28957366Y-35199219D01*
X28970154Y-35181976D01*
X28984570Y-35166070D01*
X29000476Y-35151654D01*
X29017719Y-35138866D01*
X29036132Y-35127830D01*
X29055538Y-35118651D01*
X29075750Y-35111419D01*
X29096574Y-35106203D01*
X29117809Y-35103053D01*
X29139250Y-35102000D01*
X29576750Y-35102000D01*
X29598191Y-35103053D01*
G37*
G04 #@! TD.AperFunction*
G04 #@! TA.AperFunction,SMDPad,CuDef*
G36*
X26600791Y-34290253D02*
G01*
X26622026Y-34293403D01*
X26642850Y-34298619D01*
X26663062Y-34305851D01*
X26682468Y-34315030D01*
X26700881Y-34326066D01*
X26718124Y-34338854D01*
X26734030Y-34353270D01*
X26748446Y-34369176D01*
X26761234Y-34386419D01*
X26772270Y-34404832D01*
X26781449Y-34424238D01*
X26788681Y-34444450D01*
X26793897Y-34465274D01*
X26797047Y-34486509D01*
X26798100Y-34507950D01*
X26798100Y-35020450D01*
X26797047Y-35041891D01*
X26793897Y-35063126D01*
X26788681Y-35083950D01*
X26781449Y-35104162D01*
X26772270Y-35123568D01*
X26761234Y-35141981D01*
X26748446Y-35159224D01*
X26734030Y-35175130D01*
X26718124Y-35189546D01*
X26700881Y-35202334D01*
X26682468Y-35213370D01*
X26663062Y-35222549D01*
X26642850Y-35229781D01*
X26622026Y-35234997D01*
X26600791Y-35238147D01*
X26579350Y-35239200D01*
X26141850Y-35239200D01*
X26120409Y-35238147D01*
X26099174Y-35234997D01*
X26078350Y-35229781D01*
X26058138Y-35222549D01*
X26038732Y-35213370D01*
X26020319Y-35202334D01*
X26003076Y-35189546D01*
X25987170Y-35175130D01*
X25972754Y-35159224D01*
X25959966Y-35141981D01*
X25948930Y-35123568D01*
X25939751Y-35104162D01*
X25932519Y-35083950D01*
X25927303Y-35063126D01*
X25924153Y-35041891D01*
X25923100Y-35020450D01*
X25923100Y-34507950D01*
X25924153Y-34486509D01*
X25927303Y-34465274D01*
X25932519Y-34444450D01*
X25939751Y-34424238D01*
X25948930Y-34404832D01*
X25959966Y-34386419D01*
X25972754Y-34369176D01*
X25987170Y-34353270D01*
X26003076Y-34338854D01*
X26020319Y-34326066D01*
X26038732Y-34315030D01*
X26058138Y-34305851D01*
X26078350Y-34298619D01*
X26099174Y-34293403D01*
X26120409Y-34290253D01*
X26141850Y-34289200D01*
X26579350Y-34289200D01*
X26600791Y-34290253D01*
G37*
G04 #@! TD.AperFunction*
G04 #@! TA.AperFunction,SMDPad,CuDef*
G36*
X28175791Y-34290253D02*
G01*
X28197026Y-34293403D01*
X28217850Y-34298619D01*
X28238062Y-34305851D01*
X28257468Y-34315030D01*
X28275881Y-34326066D01*
X28293124Y-34338854D01*
X28309030Y-34353270D01*
X28323446Y-34369176D01*
X28336234Y-34386419D01*
X28347270Y-34404832D01*
X28356449Y-34424238D01*
X28363681Y-34444450D01*
X28368897Y-34465274D01*
X28372047Y-34486509D01*
X28373100Y-34507950D01*
X28373100Y-35020450D01*
X28372047Y-35041891D01*
X28368897Y-35063126D01*
X28363681Y-35083950D01*
X28356449Y-35104162D01*
X28347270Y-35123568D01*
X28336234Y-35141981D01*
X28323446Y-35159224D01*
X28309030Y-35175130D01*
X28293124Y-35189546D01*
X28275881Y-35202334D01*
X28257468Y-35213370D01*
X28238062Y-35222549D01*
X28217850Y-35229781D01*
X28197026Y-35234997D01*
X28175791Y-35238147D01*
X28154350Y-35239200D01*
X27716850Y-35239200D01*
X27695409Y-35238147D01*
X27674174Y-35234997D01*
X27653350Y-35229781D01*
X27633138Y-35222549D01*
X27613732Y-35213370D01*
X27595319Y-35202334D01*
X27578076Y-35189546D01*
X27562170Y-35175130D01*
X27547754Y-35159224D01*
X27534966Y-35141981D01*
X27523930Y-35123568D01*
X27514751Y-35104162D01*
X27507519Y-35083950D01*
X27502303Y-35063126D01*
X27499153Y-35041891D01*
X27498100Y-35020450D01*
X27498100Y-34507950D01*
X27499153Y-34486509D01*
X27502303Y-34465274D01*
X27507519Y-34444450D01*
X27514751Y-34424238D01*
X27523930Y-34404832D01*
X27534966Y-34386419D01*
X27547754Y-34369176D01*
X27562170Y-34353270D01*
X27578076Y-34338854D01*
X27595319Y-34326066D01*
X27613732Y-34315030D01*
X27633138Y-34305851D01*
X27653350Y-34298619D01*
X27674174Y-34293403D01*
X27695409Y-34290253D01*
X27716850Y-34289200D01*
X28154350Y-34289200D01*
X28175791Y-34290253D01*
G37*
G04 #@! TD.AperFunction*
G04 #@! TA.AperFunction,SMDPad,CuDef*
G36*
X32709691Y-35103053D02*
G01*
X32730926Y-35106203D01*
X32751750Y-35111419D01*
X32771962Y-35118651D01*
X32791368Y-35127830D01*
X32809781Y-35138866D01*
X32827024Y-35151654D01*
X32842930Y-35166070D01*
X32857346Y-35181976D01*
X32870134Y-35199219D01*
X32881170Y-35217632D01*
X32890349Y-35237038D01*
X32897581Y-35257250D01*
X32902797Y-35278074D01*
X32905947Y-35299309D01*
X32907000Y-35320750D01*
X32907000Y-35833250D01*
X32905947Y-35854691D01*
X32902797Y-35875926D01*
X32897581Y-35896750D01*
X32890349Y-35916962D01*
X32881170Y-35936368D01*
X32870134Y-35954781D01*
X32857346Y-35972024D01*
X32842930Y-35987930D01*
X32827024Y-36002346D01*
X32809781Y-36015134D01*
X32791368Y-36026170D01*
X32771962Y-36035349D01*
X32751750Y-36042581D01*
X32730926Y-36047797D01*
X32709691Y-36050947D01*
X32688250Y-36052000D01*
X32250750Y-36052000D01*
X32229309Y-36050947D01*
X32208074Y-36047797D01*
X32187250Y-36042581D01*
X32167038Y-36035349D01*
X32147632Y-36026170D01*
X32129219Y-36015134D01*
X32111976Y-36002346D01*
X32096070Y-35987930D01*
X32081654Y-35972024D01*
X32068866Y-35954781D01*
X32057830Y-35936368D01*
X32048651Y-35916962D01*
X32041419Y-35896750D01*
X32036203Y-35875926D01*
X32033053Y-35854691D01*
X32032000Y-35833250D01*
X32032000Y-35320750D01*
X32033053Y-35299309D01*
X32036203Y-35278074D01*
X32041419Y-35257250D01*
X32048651Y-35237038D01*
X32057830Y-35217632D01*
X32068866Y-35199219D01*
X32081654Y-35181976D01*
X32096070Y-35166070D01*
X32111976Y-35151654D01*
X32129219Y-35138866D01*
X32147632Y-35127830D01*
X32167038Y-35118651D01*
X32187250Y-35111419D01*
X32208074Y-35106203D01*
X32229309Y-35103053D01*
X32250750Y-35102000D01*
X32688250Y-35102000D01*
X32709691Y-35103053D01*
G37*
G04 #@! TD.AperFunction*
G04 #@! TA.AperFunction,SMDPad,CuDef*
G36*
X34284691Y-35103053D02*
G01*
X34305926Y-35106203D01*
X34326750Y-35111419D01*
X34346962Y-35118651D01*
X34366368Y-35127830D01*
X34384781Y-35138866D01*
X34402024Y-35151654D01*
X34417930Y-35166070D01*
X34432346Y-35181976D01*
X34445134Y-35199219D01*
X34456170Y-35217632D01*
X34465349Y-35237038D01*
X34472581Y-35257250D01*
X34477797Y-35278074D01*
X34480947Y-35299309D01*
X34482000Y-35320750D01*
X34482000Y-35833250D01*
X34480947Y-35854691D01*
X34477797Y-35875926D01*
X34472581Y-35896750D01*
X34465349Y-35916962D01*
X34456170Y-35936368D01*
X34445134Y-35954781D01*
X34432346Y-35972024D01*
X34417930Y-35987930D01*
X34402024Y-36002346D01*
X34384781Y-36015134D01*
X34366368Y-36026170D01*
X34346962Y-36035349D01*
X34326750Y-36042581D01*
X34305926Y-36047797D01*
X34284691Y-36050947D01*
X34263250Y-36052000D01*
X33825750Y-36052000D01*
X33804309Y-36050947D01*
X33783074Y-36047797D01*
X33762250Y-36042581D01*
X33742038Y-36035349D01*
X33722632Y-36026170D01*
X33704219Y-36015134D01*
X33686976Y-36002346D01*
X33671070Y-35987930D01*
X33656654Y-35972024D01*
X33643866Y-35954781D01*
X33632830Y-35936368D01*
X33623651Y-35916962D01*
X33616419Y-35896750D01*
X33611203Y-35875926D01*
X33608053Y-35854691D01*
X33607000Y-35833250D01*
X33607000Y-35320750D01*
X33608053Y-35299309D01*
X33611203Y-35278074D01*
X33616419Y-35257250D01*
X33623651Y-35237038D01*
X33632830Y-35217632D01*
X33643866Y-35199219D01*
X33656654Y-35181976D01*
X33671070Y-35166070D01*
X33686976Y-35151654D01*
X33704219Y-35138866D01*
X33722632Y-35127830D01*
X33742038Y-35118651D01*
X33762250Y-35111419D01*
X33783074Y-35106203D01*
X33804309Y-35103053D01*
X33825750Y-35102000D01*
X34263250Y-35102000D01*
X34284691Y-35103053D01*
G37*
G04 #@! TD.AperFunction*
G04 #@! TA.AperFunction,SMDPad,CuDef*
G36*
X37408691Y-35103053D02*
G01*
X37429926Y-35106203D01*
X37450750Y-35111419D01*
X37470962Y-35118651D01*
X37490368Y-35127830D01*
X37508781Y-35138866D01*
X37526024Y-35151654D01*
X37541930Y-35166070D01*
X37556346Y-35181976D01*
X37569134Y-35199219D01*
X37580170Y-35217632D01*
X37589349Y-35237038D01*
X37596581Y-35257250D01*
X37601797Y-35278074D01*
X37604947Y-35299309D01*
X37606000Y-35320750D01*
X37606000Y-35833250D01*
X37604947Y-35854691D01*
X37601797Y-35875926D01*
X37596581Y-35896750D01*
X37589349Y-35916962D01*
X37580170Y-35936368D01*
X37569134Y-35954781D01*
X37556346Y-35972024D01*
X37541930Y-35987930D01*
X37526024Y-36002346D01*
X37508781Y-36015134D01*
X37490368Y-36026170D01*
X37470962Y-36035349D01*
X37450750Y-36042581D01*
X37429926Y-36047797D01*
X37408691Y-36050947D01*
X37387250Y-36052000D01*
X36949750Y-36052000D01*
X36928309Y-36050947D01*
X36907074Y-36047797D01*
X36886250Y-36042581D01*
X36866038Y-36035349D01*
X36846632Y-36026170D01*
X36828219Y-36015134D01*
X36810976Y-36002346D01*
X36795070Y-35987930D01*
X36780654Y-35972024D01*
X36767866Y-35954781D01*
X36756830Y-35936368D01*
X36747651Y-35916962D01*
X36740419Y-35896750D01*
X36735203Y-35875926D01*
X36732053Y-35854691D01*
X36731000Y-35833250D01*
X36731000Y-35320750D01*
X36732053Y-35299309D01*
X36735203Y-35278074D01*
X36740419Y-35257250D01*
X36747651Y-35237038D01*
X36756830Y-35217632D01*
X36767866Y-35199219D01*
X36780654Y-35181976D01*
X36795070Y-35166070D01*
X36810976Y-35151654D01*
X36828219Y-35138866D01*
X36846632Y-35127830D01*
X36866038Y-35118651D01*
X36886250Y-35111419D01*
X36907074Y-35106203D01*
X36928309Y-35103053D01*
X36949750Y-35102000D01*
X37387250Y-35102000D01*
X37408691Y-35103053D01*
G37*
G04 #@! TD.AperFunction*
G04 #@! TA.AperFunction,SMDPad,CuDef*
G36*
X35833691Y-35103053D02*
G01*
X35854926Y-35106203D01*
X35875750Y-35111419D01*
X35895962Y-35118651D01*
X35915368Y-35127830D01*
X35933781Y-35138866D01*
X35951024Y-35151654D01*
X35966930Y-35166070D01*
X35981346Y-35181976D01*
X35994134Y-35199219D01*
X36005170Y-35217632D01*
X36014349Y-35237038D01*
X36021581Y-35257250D01*
X36026797Y-35278074D01*
X36029947Y-35299309D01*
X36031000Y-35320750D01*
X36031000Y-35833250D01*
X36029947Y-35854691D01*
X36026797Y-35875926D01*
X36021581Y-35896750D01*
X36014349Y-35916962D01*
X36005170Y-35936368D01*
X35994134Y-35954781D01*
X35981346Y-35972024D01*
X35966930Y-35987930D01*
X35951024Y-36002346D01*
X35933781Y-36015134D01*
X35915368Y-36026170D01*
X35895962Y-36035349D01*
X35875750Y-36042581D01*
X35854926Y-36047797D01*
X35833691Y-36050947D01*
X35812250Y-36052000D01*
X35374750Y-36052000D01*
X35353309Y-36050947D01*
X35332074Y-36047797D01*
X35311250Y-36042581D01*
X35291038Y-36035349D01*
X35271632Y-36026170D01*
X35253219Y-36015134D01*
X35235976Y-36002346D01*
X35220070Y-35987930D01*
X35205654Y-35972024D01*
X35192866Y-35954781D01*
X35181830Y-35936368D01*
X35172651Y-35916962D01*
X35165419Y-35896750D01*
X35160203Y-35875926D01*
X35157053Y-35854691D01*
X35156000Y-35833250D01*
X35156000Y-35320750D01*
X35157053Y-35299309D01*
X35160203Y-35278074D01*
X35165419Y-35257250D01*
X35172651Y-35237038D01*
X35181830Y-35217632D01*
X35192866Y-35199219D01*
X35205654Y-35181976D01*
X35220070Y-35166070D01*
X35235976Y-35151654D01*
X35253219Y-35138866D01*
X35271632Y-35127830D01*
X35291038Y-35118651D01*
X35311250Y-35111419D01*
X35332074Y-35106203D01*
X35353309Y-35103053D01*
X35374750Y-35102000D01*
X35812250Y-35102000D01*
X35833691Y-35103053D01*
G37*
G04 #@! TD.AperFunction*
G04 #@! TA.AperFunction,SMDPad,CuDef*
G36*
X38906691Y-36220053D02*
G01*
X38927926Y-36223203D01*
X38948750Y-36228419D01*
X38968962Y-36235651D01*
X38988368Y-36244830D01*
X39006781Y-36255866D01*
X39024024Y-36268654D01*
X39039930Y-36283070D01*
X39054346Y-36298976D01*
X39067134Y-36316219D01*
X39078170Y-36334632D01*
X39087349Y-36354038D01*
X39094581Y-36374250D01*
X39099797Y-36395074D01*
X39102947Y-36416309D01*
X39104000Y-36437750D01*
X39104000Y-36875250D01*
X39102947Y-36896691D01*
X39099797Y-36917926D01*
X39094581Y-36938750D01*
X39087349Y-36958962D01*
X39078170Y-36978368D01*
X39067134Y-36996781D01*
X39054346Y-37014024D01*
X39039930Y-37029930D01*
X39024024Y-37044346D01*
X39006781Y-37057134D01*
X38988368Y-37068170D01*
X38968962Y-37077349D01*
X38948750Y-37084581D01*
X38927926Y-37089797D01*
X38906691Y-37092947D01*
X38885250Y-37094000D01*
X38372750Y-37094000D01*
X38351309Y-37092947D01*
X38330074Y-37089797D01*
X38309250Y-37084581D01*
X38289038Y-37077349D01*
X38269632Y-37068170D01*
X38251219Y-37057134D01*
X38233976Y-37044346D01*
X38218070Y-37029930D01*
X38203654Y-37014024D01*
X38190866Y-36996781D01*
X38179830Y-36978368D01*
X38170651Y-36958962D01*
X38163419Y-36938750D01*
X38158203Y-36917926D01*
X38155053Y-36896691D01*
X38154000Y-36875250D01*
X38154000Y-36437750D01*
X38155053Y-36416309D01*
X38158203Y-36395074D01*
X38163419Y-36374250D01*
X38170651Y-36354038D01*
X38179830Y-36334632D01*
X38190866Y-36316219D01*
X38203654Y-36298976D01*
X38218070Y-36283070D01*
X38233976Y-36268654D01*
X38251219Y-36255866D01*
X38269632Y-36244830D01*
X38289038Y-36235651D01*
X38309250Y-36228419D01*
X38330074Y-36223203D01*
X38351309Y-36220053D01*
X38372750Y-36219000D01*
X38885250Y-36219000D01*
X38906691Y-36220053D01*
G37*
G04 #@! TD.AperFunction*
G04 #@! TA.AperFunction,SMDPad,CuDef*
G36*
X38906691Y-37795053D02*
G01*
X38927926Y-37798203D01*
X38948750Y-37803419D01*
X38968962Y-37810651D01*
X38988368Y-37819830D01*
X39006781Y-37830866D01*
X39024024Y-37843654D01*
X39039930Y-37858070D01*
X39054346Y-37873976D01*
X39067134Y-37891219D01*
X39078170Y-37909632D01*
X39087349Y-37929038D01*
X39094581Y-37949250D01*
X39099797Y-37970074D01*
X39102947Y-37991309D01*
X39104000Y-38012750D01*
X39104000Y-38450250D01*
X39102947Y-38471691D01*
X39099797Y-38492926D01*
X39094581Y-38513750D01*
X39087349Y-38533962D01*
X39078170Y-38553368D01*
X39067134Y-38571781D01*
X39054346Y-38589024D01*
X39039930Y-38604930D01*
X39024024Y-38619346D01*
X39006781Y-38632134D01*
X38988368Y-38643170D01*
X38968962Y-38652349D01*
X38948750Y-38659581D01*
X38927926Y-38664797D01*
X38906691Y-38667947D01*
X38885250Y-38669000D01*
X38372750Y-38669000D01*
X38351309Y-38667947D01*
X38330074Y-38664797D01*
X38309250Y-38659581D01*
X38289038Y-38652349D01*
X38269632Y-38643170D01*
X38251219Y-38632134D01*
X38233976Y-38619346D01*
X38218070Y-38604930D01*
X38203654Y-38589024D01*
X38190866Y-38571781D01*
X38179830Y-38553368D01*
X38170651Y-38533962D01*
X38163419Y-38513750D01*
X38158203Y-38492926D01*
X38155053Y-38471691D01*
X38154000Y-38450250D01*
X38154000Y-38012750D01*
X38155053Y-37991309D01*
X38158203Y-37970074D01*
X38163419Y-37949250D01*
X38170651Y-37929038D01*
X38179830Y-37909632D01*
X38190866Y-37891219D01*
X38203654Y-37873976D01*
X38218070Y-37858070D01*
X38233976Y-37843654D01*
X38251219Y-37830866D01*
X38269632Y-37819830D01*
X38289038Y-37810651D01*
X38309250Y-37803419D01*
X38330074Y-37798203D01*
X38351309Y-37795053D01*
X38372750Y-37794000D01*
X38885250Y-37794000D01*
X38906691Y-37795053D01*
G37*
G04 #@! TD.AperFunction*
G04 #@! TA.AperFunction,SMDPad,CuDef*
G36*
X45434491Y-32371753D02*
G01*
X45455726Y-32374903D01*
X45476550Y-32380119D01*
X45496762Y-32387351D01*
X45516168Y-32396530D01*
X45534581Y-32407566D01*
X45551824Y-32420354D01*
X45567730Y-32434770D01*
X45582146Y-32450676D01*
X45594934Y-32467919D01*
X45605970Y-32486332D01*
X45615149Y-32505738D01*
X45622381Y-32525950D01*
X45627597Y-32546774D01*
X45630747Y-32568009D01*
X45631800Y-32589450D01*
X45631800Y-33026950D01*
X45630747Y-33048391D01*
X45627597Y-33069626D01*
X45622381Y-33090450D01*
X45615149Y-33110662D01*
X45605970Y-33130068D01*
X45594934Y-33148481D01*
X45582146Y-33165724D01*
X45567730Y-33181630D01*
X45551824Y-33196046D01*
X45534581Y-33208834D01*
X45516168Y-33219870D01*
X45496762Y-33229049D01*
X45476550Y-33236281D01*
X45455726Y-33241497D01*
X45434491Y-33244647D01*
X45413050Y-33245700D01*
X44900550Y-33245700D01*
X44879109Y-33244647D01*
X44857874Y-33241497D01*
X44837050Y-33236281D01*
X44816838Y-33229049D01*
X44797432Y-33219870D01*
X44779019Y-33208834D01*
X44761776Y-33196046D01*
X44745870Y-33181630D01*
X44731454Y-33165724D01*
X44718666Y-33148481D01*
X44707630Y-33130068D01*
X44698451Y-33110662D01*
X44691219Y-33090450D01*
X44686003Y-33069626D01*
X44682853Y-33048391D01*
X44681800Y-33026950D01*
X44681800Y-32589450D01*
X44682853Y-32568009D01*
X44686003Y-32546774D01*
X44691219Y-32525950D01*
X44698451Y-32505738D01*
X44707630Y-32486332D01*
X44718666Y-32467919D01*
X44731454Y-32450676D01*
X44745870Y-32434770D01*
X44761776Y-32420354D01*
X44779019Y-32407566D01*
X44797432Y-32396530D01*
X44816838Y-32387351D01*
X44837050Y-32380119D01*
X44857874Y-32374903D01*
X44879109Y-32371753D01*
X44900550Y-32370700D01*
X45413050Y-32370700D01*
X45434491Y-32371753D01*
G37*
G04 #@! TD.AperFunction*
G04 #@! TA.AperFunction,SMDPad,CuDef*
G36*
X45434491Y-33946753D02*
G01*
X45455726Y-33949903D01*
X45476550Y-33955119D01*
X45496762Y-33962351D01*
X45516168Y-33971530D01*
X45534581Y-33982566D01*
X45551824Y-33995354D01*
X45567730Y-34009770D01*
X45582146Y-34025676D01*
X45594934Y-34042919D01*
X45605970Y-34061332D01*
X45615149Y-34080738D01*
X45622381Y-34100950D01*
X45627597Y-34121774D01*
X45630747Y-34143009D01*
X45631800Y-34164450D01*
X45631800Y-34601950D01*
X45630747Y-34623391D01*
X45627597Y-34644626D01*
X45622381Y-34665450D01*
X45615149Y-34685662D01*
X45605970Y-34705068D01*
X45594934Y-34723481D01*
X45582146Y-34740724D01*
X45567730Y-34756630D01*
X45551824Y-34771046D01*
X45534581Y-34783834D01*
X45516168Y-34794870D01*
X45496762Y-34804049D01*
X45476550Y-34811281D01*
X45455726Y-34816497D01*
X45434491Y-34819647D01*
X45413050Y-34820700D01*
X44900550Y-34820700D01*
X44879109Y-34819647D01*
X44857874Y-34816497D01*
X44837050Y-34811281D01*
X44816838Y-34804049D01*
X44797432Y-34794870D01*
X44779019Y-34783834D01*
X44761776Y-34771046D01*
X44745870Y-34756630D01*
X44731454Y-34740724D01*
X44718666Y-34723481D01*
X44707630Y-34705068D01*
X44698451Y-34685662D01*
X44691219Y-34665450D01*
X44686003Y-34644626D01*
X44682853Y-34623391D01*
X44681800Y-34601950D01*
X44681800Y-34164450D01*
X44682853Y-34143009D01*
X44686003Y-34121774D01*
X44691219Y-34100950D01*
X44698451Y-34080738D01*
X44707630Y-34061332D01*
X44718666Y-34042919D01*
X44731454Y-34025676D01*
X44745870Y-34009770D01*
X44761776Y-33995354D01*
X44779019Y-33982566D01*
X44797432Y-33971530D01*
X44816838Y-33962351D01*
X44837050Y-33955119D01*
X44857874Y-33949903D01*
X44879109Y-33946753D01*
X44900550Y-33945700D01*
X45413050Y-33945700D01*
X45434491Y-33946753D01*
G37*
G04 #@! TD.AperFunction*
D18*
X38253000Y-43006500D03*
X44053000Y-43006500D03*
D19*
X44653000Y-43006500D03*
X37653000Y-43006500D03*
D20*
X40153000Y-43006500D03*
D21*
X43653000Y-40306500D03*
D22*
X41153000Y-40306500D03*
X41803000Y-40306500D03*
X42453000Y-40306500D03*
X39853000Y-40306500D03*
X40503000Y-40306500D03*
D21*
X38653000Y-40306500D03*
D20*
X42153000Y-43006500D03*
D17*
X42934300Y-28830400D03*
X44834300Y-28830400D03*
X44834300Y-31030400D03*
X43884300Y-31030400D03*
X42934300Y-31030400D03*
G04 #@! TA.AperFunction,SMDPad,CuDef*
D14*
G36*
X45434491Y-37807553D02*
G01*
X45455726Y-37810703D01*
X45476550Y-37815919D01*
X45496762Y-37823151D01*
X45516168Y-37832330D01*
X45534581Y-37843366D01*
X45551824Y-37856154D01*
X45567730Y-37870570D01*
X45582146Y-37886476D01*
X45594934Y-37903719D01*
X45605970Y-37922132D01*
X45615149Y-37941538D01*
X45622381Y-37961750D01*
X45627597Y-37982574D01*
X45630747Y-38003809D01*
X45631800Y-38025250D01*
X45631800Y-38462750D01*
X45630747Y-38484191D01*
X45627597Y-38505426D01*
X45622381Y-38526250D01*
X45615149Y-38546462D01*
X45605970Y-38565868D01*
X45594934Y-38584281D01*
X45582146Y-38601524D01*
X45567730Y-38617430D01*
X45551824Y-38631846D01*
X45534581Y-38644634D01*
X45516168Y-38655670D01*
X45496762Y-38664849D01*
X45476550Y-38672081D01*
X45455726Y-38677297D01*
X45434491Y-38680447D01*
X45413050Y-38681500D01*
X44900550Y-38681500D01*
X44879109Y-38680447D01*
X44857874Y-38677297D01*
X44837050Y-38672081D01*
X44816838Y-38664849D01*
X44797432Y-38655670D01*
X44779019Y-38644634D01*
X44761776Y-38631846D01*
X44745870Y-38617430D01*
X44731454Y-38601524D01*
X44718666Y-38584281D01*
X44707630Y-38565868D01*
X44698451Y-38546462D01*
X44691219Y-38526250D01*
X44686003Y-38505426D01*
X44682853Y-38484191D01*
X44681800Y-38462750D01*
X44681800Y-38025250D01*
X44682853Y-38003809D01*
X44686003Y-37982574D01*
X44691219Y-37961750D01*
X44698451Y-37941538D01*
X44707630Y-37922132D01*
X44718666Y-37903719D01*
X44731454Y-37886476D01*
X44745870Y-37870570D01*
X44761776Y-37856154D01*
X44779019Y-37843366D01*
X44797432Y-37832330D01*
X44816838Y-37823151D01*
X44837050Y-37815919D01*
X44857874Y-37810703D01*
X44879109Y-37807553D01*
X44900550Y-37806500D01*
X45413050Y-37806500D01*
X45434491Y-37807553D01*
G37*
G04 #@! TD.AperFunction*
G04 #@! TA.AperFunction,SMDPad,CuDef*
G36*
X45434491Y-36232553D02*
G01*
X45455726Y-36235703D01*
X45476550Y-36240919D01*
X45496762Y-36248151D01*
X45516168Y-36257330D01*
X45534581Y-36268366D01*
X45551824Y-36281154D01*
X45567730Y-36295570D01*
X45582146Y-36311476D01*
X45594934Y-36328719D01*
X45605970Y-36347132D01*
X45615149Y-36366538D01*
X45622381Y-36386750D01*
X45627597Y-36407574D01*
X45630747Y-36428809D01*
X45631800Y-36450250D01*
X45631800Y-36887750D01*
X45630747Y-36909191D01*
X45627597Y-36930426D01*
X45622381Y-36951250D01*
X45615149Y-36971462D01*
X45605970Y-36990868D01*
X45594934Y-37009281D01*
X45582146Y-37026524D01*
X45567730Y-37042430D01*
X45551824Y-37056846D01*
X45534581Y-37069634D01*
X45516168Y-37080670D01*
X45496762Y-37089849D01*
X45476550Y-37097081D01*
X45455726Y-37102297D01*
X45434491Y-37105447D01*
X45413050Y-37106500D01*
X44900550Y-37106500D01*
X44879109Y-37105447D01*
X44857874Y-37102297D01*
X44837050Y-37097081D01*
X44816838Y-37089849D01*
X44797432Y-37080670D01*
X44779019Y-37069634D01*
X44761776Y-37056846D01*
X44745870Y-37042430D01*
X44731454Y-37026524D01*
X44718666Y-37009281D01*
X44707630Y-36990868D01*
X44698451Y-36971462D01*
X44691219Y-36951250D01*
X44686003Y-36930426D01*
X44682853Y-36909191D01*
X44681800Y-36887750D01*
X44681800Y-36450250D01*
X44682853Y-36428809D01*
X44686003Y-36407574D01*
X44691219Y-36386750D01*
X44698451Y-36366538D01*
X44707630Y-36347132D01*
X44718666Y-36328719D01*
X44731454Y-36311476D01*
X44745870Y-36295570D01*
X44761776Y-36281154D01*
X44779019Y-36268366D01*
X44797432Y-36257330D01*
X44816838Y-36248151D01*
X44837050Y-36240919D01*
X44857874Y-36235703D01*
X44879109Y-36232553D01*
X44900550Y-36231500D01*
X45413050Y-36231500D01*
X45434491Y-36232553D01*
G37*
G04 #@! TD.AperFunction*
D23*
X17166000Y-34434000D03*
X17166000Y-43324000D03*
X43899500Y-32148002D03*
X38375000Y-29100000D03*
X28850000Y-28448000D03*
X38375000Y-19575000D03*
X28215000Y-19575000D03*
X26056000Y-27576000D03*
X26056000Y-24020000D03*
X26056000Y-20464000D03*
X33930000Y-24528000D03*
X33930000Y-19194000D03*
X44344000Y-16908000D03*
X17166000Y-39006000D03*
X21992000Y-43324000D03*
X43899500Y-18749500D03*
X23749000Y-21463000D03*
X23749000Y-17018000D03*
X42862500Y-22987000D03*
X44894500Y-22987000D03*
X40449500Y-31559500D03*
X23812500Y-34734500D03*
X33972500Y-44069000D03*
X30607000Y-43942000D03*
X20510500Y-33782000D03*
X21844000Y-40703500D03*
X41301500Y-16801000D03*
X30416500Y-29908500D03*
X41783000Y-32575500D03*
X25209500Y-43751500D03*
X29146500Y-43942000D03*
X24892000Y-29781500D03*
X30681270Y-42646432D03*
X24905500Y-18749500D03*
X30729600Y-41647599D03*
X26905500Y-18749500D03*
X31623000Y-43243500D03*
X28892500Y-29781500D03*
X42439000Y-39006000D03*
X37549500Y-39387000D03*
X32279601Y-41190400D03*
X32279601Y-42206400D03*
X33255342Y-38009142D03*
X27749500Y-25971500D03*
X33275505Y-37009344D03*
X27749500Y-24955500D03*
D24*
X42453000Y-40306500D02*
X43653000Y-40306500D01*
D25*
X44053000Y-43006500D02*
X37653000Y-43006500D01*
X42453000Y-42706500D02*
X42153000Y-43006500D01*
X38311500Y-42348000D02*
X37653000Y-43006500D01*
X38653000Y-40306500D02*
X38311500Y-40648000D01*
X38311500Y-40648000D02*
X38311500Y-42348000D01*
X38612500Y-40347000D02*
X38653000Y-40306500D01*
D24*
X36738510Y-38991490D02*
X36738510Y-40324990D01*
X37105000Y-38625000D02*
X36738510Y-38991490D01*
X37105000Y-38371000D02*
X37105000Y-38625000D01*
X36738510Y-40324990D02*
X36724000Y-40339500D01*
D25*
X36724000Y-40339500D02*
X38612500Y-40347000D01*
X35038500Y-40347000D02*
X36724000Y-40339500D01*
X43884300Y-26956600D02*
X43884300Y-27886600D01*
X43884300Y-29872200D02*
X43884300Y-31030400D01*
X43884300Y-27886600D02*
X43884300Y-29872200D01*
X43653000Y-39077000D02*
X43128001Y-38552001D01*
X43653000Y-40306500D02*
X43653000Y-39077000D01*
X43022602Y-36821600D02*
X41905600Y-36821600D01*
X43128001Y-38552001D02*
X43128001Y-36926999D01*
X43128001Y-36926999D02*
X43022602Y-36821600D01*
X41453000Y-36369000D02*
X41453000Y-35577000D01*
X41905600Y-36821600D02*
X41453000Y-36369000D01*
X42832700Y-19955800D02*
X44966500Y-19955800D01*
X43884300Y-31030400D02*
X43884300Y-32132802D01*
X43884300Y-32132802D02*
X43899500Y-32148002D01*
X43899500Y-18749500D02*
X44991700Y-19841700D01*
X36905500Y-16801000D02*
X38905500Y-16801000D01*
X38921500Y-16817000D02*
X38905500Y-16801000D01*
X39805500Y-16801000D02*
X38905500Y-16801000D01*
X43899500Y-18749500D02*
X41951000Y-16801000D01*
X41951000Y-16801000D02*
X41301500Y-16801000D01*
D24*
X30480000Y-24701500D02*
X36905500Y-18401000D01*
X27876500Y-27305000D02*
X30480000Y-24701500D01*
X26360600Y-34289200D02*
X26804300Y-33845500D01*
X36905500Y-18401000D02*
X36905500Y-16801000D01*
X27876500Y-33464500D02*
X27876500Y-27305000D01*
X26360600Y-34764200D02*
X26360600Y-34289200D01*
X26804300Y-33845500D02*
X27495500Y-33845500D01*
X27495500Y-33845500D02*
X27876500Y-33464500D01*
X26330900Y-34734500D02*
X26360600Y-34764200D01*
X23812500Y-34734500D02*
X26330900Y-34734500D01*
D25*
X41301500Y-16801000D02*
X39805500Y-16801000D01*
D24*
X39104000Y-36656500D02*
X38629000Y-36656500D01*
X41453000Y-37196998D02*
X40912502Y-36656500D01*
X41453000Y-37777000D02*
X41453000Y-37196998D01*
X39708500Y-39137000D02*
X39708500Y-36656500D01*
X39853000Y-40306500D02*
X39853000Y-39281500D01*
X40912502Y-36656500D02*
X39708500Y-36656500D01*
X39853000Y-39281500D02*
X39708500Y-39137000D01*
X39708500Y-36656500D02*
X39104000Y-36656500D01*
X37105000Y-36796000D02*
X37181000Y-36720000D01*
X38565500Y-36720000D02*
X38629000Y-36656500D01*
X37181000Y-36720000D02*
X38565500Y-36720000D01*
D25*
X40017500Y-41546000D02*
X44344000Y-41546000D01*
X39853000Y-41381500D02*
X40017500Y-41546000D01*
X39853000Y-40306500D02*
X39853000Y-41381500D01*
X45156800Y-40733200D02*
X45156800Y-38244000D01*
X44344000Y-41546000D02*
X45156800Y-40733200D01*
X42934300Y-31960400D02*
X42934300Y-31030400D01*
X44681800Y-38244000D02*
X44064600Y-37626800D01*
X45156800Y-38244000D02*
X44681800Y-38244000D01*
X44064600Y-37626800D02*
X44064600Y-35424600D01*
X44064600Y-35424600D02*
X42934300Y-34294300D01*
X42934300Y-34294300D02*
X42934300Y-31960400D01*
X44966500Y-21225800D02*
X44991700Y-21200600D01*
X42934300Y-28830400D02*
X42934300Y-26956600D01*
X42832700Y-21530800D02*
X43874100Y-21530800D01*
X43874100Y-21530800D02*
X44991500Y-21530800D01*
X43874100Y-25315400D02*
X43874100Y-21530800D01*
X42934300Y-26956600D02*
X42934300Y-26255200D01*
X42934300Y-26255200D02*
X43874100Y-25315400D01*
X35038500Y-39697000D02*
X35017000Y-39697000D01*
D24*
X30933000Y-35577000D02*
X30933000Y-39691600D01*
X30933000Y-39691600D02*
X30932800Y-39691800D01*
D25*
X30932800Y-39691800D02*
X29138500Y-39697000D01*
D24*
X27783000Y-39285200D02*
X27199000Y-39285200D01*
X29138500Y-39697000D02*
X28194800Y-39697000D01*
X28194800Y-39697000D02*
X27783000Y-39285200D01*
D25*
X35017000Y-39697000D02*
X31796400Y-39717200D01*
X31796400Y-39717200D02*
X30932800Y-39691800D01*
X38905500Y-32001000D02*
X38905500Y-33948602D01*
X38917888Y-33960990D02*
X39317500Y-33960990D01*
X38905500Y-33948602D02*
X38917888Y-33960990D01*
X41804000Y-25290000D02*
X42337400Y-24756600D01*
X30933000Y-34332200D02*
X31307399Y-33957801D01*
X42337400Y-24756600D02*
X42934300Y-24756600D01*
X30933000Y-35577000D02*
X30933000Y-34332200D01*
X31307399Y-33957801D02*
X41200699Y-33957801D01*
X41200699Y-33957801D02*
X41804000Y-33354500D01*
X41783000Y-32575500D02*
X41804000Y-25290000D01*
X41804000Y-33354500D02*
X41783000Y-32575500D01*
D24*
X27178100Y-43751500D02*
X27199000Y-43730600D01*
X25209500Y-43751500D02*
X27178100Y-43751500D01*
X26513400Y-39285200D02*
X27199000Y-39285200D01*
X27199000Y-43730600D02*
X26348990Y-43730600D01*
X26348990Y-39449610D02*
X26513400Y-39285200D01*
X26348990Y-43730600D02*
X26348990Y-39449610D01*
D25*
X45156800Y-36669000D02*
X45156800Y-34383200D01*
X45156800Y-32808200D02*
X45156800Y-32198800D01*
X44834300Y-31876300D02*
X44834300Y-31030400D01*
X45156800Y-32198800D02*
X44834300Y-31876300D01*
D24*
X29138500Y-42947000D02*
X29138500Y-43934000D01*
X29138500Y-43934000D02*
X29146500Y-43942000D01*
X24892000Y-31987500D02*
X24905500Y-32001000D01*
X24892000Y-29781500D02*
X24892000Y-31987500D01*
X30581431Y-42646432D02*
X30681270Y-42646432D01*
X29138500Y-42297000D02*
X30231999Y-42297000D01*
X30231999Y-42297000D02*
X30581431Y-42646432D01*
X24905500Y-18749500D02*
X24905500Y-16801000D01*
X29138500Y-41647000D02*
X30729001Y-41647000D01*
X30729001Y-41647000D02*
X30729600Y-41647599D01*
X26905500Y-18749500D02*
X26905500Y-16801000D01*
X33667000Y-43243500D02*
X31623000Y-43243500D01*
X35038500Y-42947000D02*
X33963500Y-42947000D01*
X33963500Y-42947000D02*
X33667000Y-43243500D01*
X28892500Y-31988000D02*
X28905500Y-32001000D01*
X28892500Y-29781500D02*
X28892500Y-31988000D01*
X42403000Y-37777000D02*
X42403000Y-38970000D01*
X42403000Y-38970000D02*
X42439000Y-39006000D01*
X41153000Y-39281500D02*
X41153000Y-40306500D01*
X41428500Y-39006000D02*
X41153000Y-39281500D01*
X42439000Y-39006000D02*
X41428500Y-39006000D01*
D25*
X37422500Y-39438000D02*
X38629000Y-38231500D01*
X37549500Y-39387000D02*
X37422500Y-39438000D01*
D24*
X40503000Y-37777000D02*
X40503000Y-40306500D01*
D25*
X40503000Y-35577000D02*
X37168500Y-35577000D01*
X36163500Y-39047000D02*
X35038500Y-39047000D01*
X36163523Y-36622024D02*
X36163500Y-39047000D01*
X35593500Y-35577000D02*
X35593500Y-36052000D01*
X35593500Y-36052000D02*
X36163523Y-36622024D01*
D24*
X32837800Y-38802800D02*
X32469500Y-38434500D01*
X32469500Y-38434500D02*
X32469500Y-35577000D01*
X35038500Y-38397000D02*
X33963500Y-38397000D01*
X33557700Y-38802800D02*
X32837800Y-38802800D01*
X33963500Y-38397000D02*
X33557700Y-38802800D01*
D25*
X41981800Y-34561000D02*
X34311000Y-34561000D01*
X34311000Y-34561000D02*
X34044500Y-34827500D01*
X42403000Y-35577000D02*
X42403000Y-34982200D01*
X34044500Y-34827500D02*
X34044500Y-35577000D01*
X42403000Y-34982200D02*
X41981800Y-34561000D01*
D24*
X28261800Y-37097000D02*
X29138500Y-37097000D01*
X27935600Y-34764200D02*
X27935600Y-36770800D01*
X27935600Y-36770800D02*
X28261800Y-37097000D01*
X30382990Y-38877510D02*
X30213500Y-39047000D01*
X30213500Y-39047000D02*
X29138500Y-39047000D01*
X29358000Y-35577000D02*
X30382990Y-36601990D01*
X30382990Y-36601990D02*
X30382990Y-38877510D01*
X30213500Y-40997000D02*
X29138500Y-40997000D01*
X30387001Y-40872599D02*
X30262600Y-40997000D01*
X30262600Y-40997000D02*
X30213500Y-40997000D01*
X31396115Y-40872599D02*
X30387001Y-40872599D01*
X31713916Y-41190400D02*
X31396115Y-40872599D01*
X32279601Y-41190400D02*
X31713916Y-41190400D01*
X28063500Y-40997000D02*
X29138500Y-40997000D01*
X28049010Y-41324896D02*
X28049010Y-41011490D01*
X28049010Y-41011490D02*
X28063500Y-40997000D01*
X27218306Y-42155600D02*
X28049010Y-41324896D01*
X27199000Y-42155600D02*
X27218306Y-42155600D01*
X30213500Y-40347000D02*
X29138500Y-40347000D01*
X32558792Y-40322589D02*
X30237911Y-40322589D01*
X33054602Y-40818399D02*
X32558792Y-40322589D01*
X30237911Y-40322589D02*
X30213500Y-40347000D01*
X33054602Y-41562401D02*
X33054602Y-40818399D01*
X32651602Y-41965401D02*
X33054602Y-41562401D01*
X32520600Y-41965401D02*
X32651602Y-41965401D01*
X32279601Y-42206400D02*
X32520600Y-41965401D01*
X27763000Y-40347000D02*
X29138500Y-40347000D01*
X27249800Y-40860200D02*
X27763000Y-40347000D01*
X29088501Y-38446999D02*
X29138500Y-38397000D01*
X26361001Y-38446999D02*
X29088501Y-38446999D01*
X24557400Y-40974000D02*
X24557400Y-40250600D01*
X24557400Y-40250600D02*
X26361001Y-38446999D01*
X26880400Y-37747000D02*
X28063500Y-37747000D01*
X26107400Y-36974000D02*
X26880400Y-37747000D01*
X28063500Y-37747000D02*
X29138500Y-37747000D01*
X24557400Y-36974000D02*
X26107400Y-36974000D01*
X35038500Y-37747000D02*
X33517484Y-37747000D01*
X33517484Y-37747000D02*
X33255342Y-38009142D01*
X20081500Y-39941500D02*
X20066000Y-39957000D01*
X26513498Y-25971500D02*
X22352000Y-30132998D01*
X27749500Y-25971500D02*
X26513498Y-25971500D01*
X22352000Y-30132998D02*
X22352000Y-39179500D01*
X22352000Y-39179500D02*
X21590000Y-39941500D01*
X21590000Y-39941500D02*
X20081500Y-39941500D01*
X35038500Y-37097000D02*
X33363161Y-37097000D01*
X33363161Y-37097000D02*
X33275505Y-37009344D01*
X20090000Y-38481000D02*
X20066000Y-38457000D01*
X26289000Y-24955500D02*
X21653500Y-29591000D01*
X21653500Y-37846000D02*
X21018500Y-38481000D01*
X27749500Y-24955500D02*
X26289000Y-24955500D01*
X21018500Y-38481000D02*
X20090000Y-38481000D01*
X21653500Y-29591000D02*
X21653500Y-37846000D01*
D26*
G36*
X36632295Y-39877256D02*
G01*
X36745563Y-40046774D01*
X36889726Y-40190937D01*
X37059244Y-40304205D01*
X37247602Y-40382226D01*
X37290032Y-40390666D01*
X37328952Y-40644791D01*
X37420391Y-40896600D01*
X37477550Y-41003535D01*
X37713867Y-41066028D01*
X38473395Y-40306500D01*
X38459253Y-40292358D01*
X38638858Y-40112753D01*
X38653000Y-40126895D01*
X38667143Y-40112753D01*
X38846748Y-40292358D01*
X38832605Y-40306500D01*
X38846748Y-40320643D01*
X38667143Y-40500248D01*
X38653000Y-40486105D01*
X37893472Y-41245633D01*
X37939909Y-41421233D01*
X37653000Y-41418428D01*
X37621808Y-41421500D01*
X37525998Y-41421500D01*
X37525998Y-41431452D01*
X37408820Y-41466998D01*
X37371735Y-41486821D01*
X37335391Y-41463038D01*
X37297718Y-41466909D01*
X37072467Y-41559079D01*
X36869526Y-41693422D01*
X36696693Y-41864775D01*
X36560610Y-42066554D01*
X36466507Y-42291004D01*
X36418000Y-42529500D01*
X36418000Y-42879500D01*
X40026000Y-42879500D01*
X40026000Y-42859500D01*
X40280000Y-42859500D01*
X40280000Y-42879500D01*
X42026000Y-42879500D01*
X42026000Y-42859500D01*
X42280000Y-42859500D01*
X42280000Y-42879500D01*
X44200000Y-42879500D01*
X44200000Y-43133500D01*
X42280000Y-43133500D01*
X42280000Y-43153500D01*
X42026000Y-43153500D01*
X42026000Y-43133500D01*
X40280000Y-43133500D01*
X40280000Y-43153500D01*
X40026000Y-43153500D01*
X40026000Y-43133500D01*
X36418000Y-43133500D01*
X36418000Y-43483500D01*
X36466507Y-43721996D01*
X36560610Y-43946446D01*
X36696693Y-44148225D01*
X36839693Y-44290000D01*
X30122630Y-44290000D01*
X30141726Y-44243898D01*
X30181500Y-44043939D01*
X30181500Y-43840061D01*
X30160281Y-43733386D01*
X30217994Y-43702537D01*
X30314685Y-43623185D01*
X30319782Y-43616975D01*
X30379372Y-43641658D01*
X30579331Y-43681432D01*
X30684122Y-43681432D01*
X30705795Y-43733756D01*
X30819063Y-43903274D01*
X30963226Y-44047437D01*
X31132744Y-44160705D01*
X31321102Y-44238726D01*
X31521061Y-44278500D01*
X31724939Y-44278500D01*
X31924898Y-44238726D01*
X32113256Y-44160705D01*
X32273700Y-44053500D01*
X33627212Y-44053500D01*
X33667000Y-44057419D01*
X33706788Y-44053500D01*
X33706791Y-44053500D01*
X33825788Y-44041780D01*
X33978473Y-43995463D01*
X34119189Y-43920249D01*
X34242528Y-43819028D01*
X34254636Y-43804275D01*
X34313500Y-43810072D01*
X35763500Y-43810072D01*
X35887982Y-43797812D01*
X36007680Y-43761502D01*
X36117994Y-43702537D01*
X36214685Y-43623185D01*
X36294037Y-43526494D01*
X36353002Y-43416180D01*
X36389312Y-43296482D01*
X36401572Y-43172000D01*
X36401572Y-42722000D01*
X36391723Y-42622000D01*
X36401572Y-42522000D01*
X36401572Y-42072000D01*
X36391723Y-41972000D01*
X36401572Y-41872000D01*
X36401572Y-41422000D01*
X36391723Y-41322000D01*
X36401572Y-41222000D01*
X36401572Y-40772000D01*
X36391405Y-40668773D01*
X36398500Y-40603750D01*
X36366253Y-40571503D01*
X36353002Y-40527820D01*
X36294037Y-40417506D01*
X36236174Y-40347000D01*
X36294037Y-40276494D01*
X36353002Y-40166180D01*
X36366253Y-40122497D01*
X36398500Y-40090250D01*
X36391405Y-40025227D01*
X36401572Y-39922000D01*
X36401572Y-39847354D01*
X36439466Y-39835859D01*
X36484579Y-39822175D01*
X36484581Y-39822174D01*
X36484587Y-39822172D01*
X36586839Y-39767517D01*
X36632295Y-39877256D01*
G37*
X36632295Y-39877256D02*
X36745563Y-40046774D01*
X36889726Y-40190937D01*
X37059244Y-40304205D01*
X37247602Y-40382226D01*
X37290032Y-40390666D01*
X37328952Y-40644791D01*
X37420391Y-40896600D01*
X37477550Y-41003535D01*
X37713867Y-41066028D01*
X38473395Y-40306500D01*
X38459253Y-40292358D01*
X38638858Y-40112753D01*
X38653000Y-40126895D01*
X38667143Y-40112753D01*
X38846748Y-40292358D01*
X38832605Y-40306500D01*
X38846748Y-40320643D01*
X38667143Y-40500248D01*
X38653000Y-40486105D01*
X37893472Y-41245633D01*
X37939909Y-41421233D01*
X37653000Y-41418428D01*
X37621808Y-41421500D01*
X37525998Y-41421500D01*
X37525998Y-41431452D01*
X37408820Y-41466998D01*
X37371735Y-41486821D01*
X37335391Y-41463038D01*
X37297718Y-41466909D01*
X37072467Y-41559079D01*
X36869526Y-41693422D01*
X36696693Y-41864775D01*
X36560610Y-42066554D01*
X36466507Y-42291004D01*
X36418000Y-42529500D01*
X36418000Y-42879500D01*
X40026000Y-42879500D01*
X40026000Y-42859500D01*
X40280000Y-42859500D01*
X40280000Y-42879500D01*
X42026000Y-42879500D01*
X42026000Y-42859500D01*
X42280000Y-42859500D01*
X42280000Y-42879500D01*
X44200000Y-42879500D01*
X44200000Y-43133500D01*
X42280000Y-43133500D01*
X42280000Y-43153500D01*
X42026000Y-43153500D01*
X42026000Y-43133500D01*
X40280000Y-43133500D01*
X40280000Y-43153500D01*
X40026000Y-43153500D01*
X40026000Y-43133500D01*
X36418000Y-43133500D01*
X36418000Y-43483500D01*
X36466507Y-43721996D01*
X36560610Y-43946446D01*
X36696693Y-44148225D01*
X36839693Y-44290000D01*
X30122630Y-44290000D01*
X30141726Y-44243898D01*
X30181500Y-44043939D01*
X30181500Y-43840061D01*
X30160281Y-43733386D01*
X30217994Y-43702537D01*
X30314685Y-43623185D01*
X30319782Y-43616975D01*
X30379372Y-43641658D01*
X30579331Y-43681432D01*
X30684122Y-43681432D01*
X30705795Y-43733756D01*
X30819063Y-43903274D01*
X30963226Y-44047437D01*
X31132744Y-44160705D01*
X31321102Y-44238726D01*
X31521061Y-44278500D01*
X31724939Y-44278500D01*
X31924898Y-44238726D01*
X32113256Y-44160705D01*
X32273700Y-44053500D01*
X33627212Y-44053500D01*
X33667000Y-44057419D01*
X33706788Y-44053500D01*
X33706791Y-44053500D01*
X33825788Y-44041780D01*
X33978473Y-43995463D01*
X34119189Y-43920249D01*
X34242528Y-43819028D01*
X34254636Y-43804275D01*
X34313500Y-43810072D01*
X35763500Y-43810072D01*
X35887982Y-43797812D01*
X36007680Y-43761502D01*
X36117994Y-43702537D01*
X36214685Y-43623185D01*
X36294037Y-43526494D01*
X36353002Y-43416180D01*
X36389312Y-43296482D01*
X36401572Y-43172000D01*
X36401572Y-42722000D01*
X36391723Y-42622000D01*
X36401572Y-42522000D01*
X36401572Y-42072000D01*
X36391723Y-41972000D01*
X36401572Y-41872000D01*
X36401572Y-41422000D01*
X36391723Y-41322000D01*
X36401572Y-41222000D01*
X36401572Y-40772000D01*
X36391405Y-40668773D01*
X36398500Y-40603750D01*
X36366253Y-40571503D01*
X36353002Y-40527820D01*
X36294037Y-40417506D01*
X36236174Y-40347000D01*
X36294037Y-40276494D01*
X36353002Y-40166180D01*
X36366253Y-40122497D01*
X36398500Y-40090250D01*
X36391405Y-40025227D01*
X36401572Y-39922000D01*
X36401572Y-39847354D01*
X36439466Y-39835859D01*
X36484579Y-39822175D01*
X36484581Y-39822174D01*
X36484587Y-39822172D01*
X36586839Y-39767517D01*
X36632295Y-39877256D01*
G36*
X20843501Y-35931052D02*
G01*
X20674676Y-35818247D01*
X20440821Y-35721381D01*
X20192561Y-35672000D01*
X19939439Y-35672000D01*
X19691179Y-35721381D01*
X19457324Y-35818247D01*
X19246860Y-35958875D01*
X19067875Y-36137860D01*
X18927247Y-36348324D01*
X18830381Y-36582179D01*
X18781000Y-36830439D01*
X18781000Y-37083561D01*
X18830381Y-37331821D01*
X18927247Y-37565676D01*
X19021677Y-37707000D01*
X18927247Y-37848324D01*
X18830381Y-38082179D01*
X18781000Y-38330439D01*
X18781000Y-38583561D01*
X18830381Y-38831821D01*
X18927247Y-39065676D01*
X19021677Y-39207000D01*
X18927247Y-39348324D01*
X18830381Y-39582179D01*
X18781000Y-39830439D01*
X18781000Y-40083561D01*
X18830381Y-40331821D01*
X18927247Y-40565676D01*
X19067875Y-40776140D01*
X19068869Y-40777134D01*
X18951799Y-40804466D01*
X18845905Y-41034374D01*
X18786898Y-41280524D01*
X18777048Y-41533455D01*
X18816730Y-41783449D01*
X18904422Y-42020896D01*
X18951799Y-42109534D01*
X19180473Y-42162922D01*
X19886395Y-41457000D01*
X19872253Y-41442858D01*
X20051858Y-41263253D01*
X20066000Y-41277395D01*
X20080143Y-41263253D01*
X20259748Y-41442858D01*
X20245605Y-41457000D01*
X20951527Y-42162922D01*
X21180201Y-42109534D01*
X21286095Y-41879626D01*
X21345102Y-41633476D01*
X21354952Y-41380545D01*
X21315270Y-41130551D01*
X21227578Y-40893104D01*
X21180201Y-40804466D01*
X21063131Y-40777134D01*
X21064125Y-40776140D01*
X21080589Y-40751500D01*
X21550212Y-40751500D01*
X21590000Y-40755419D01*
X21629788Y-40751500D01*
X21629791Y-40751500D01*
X21748788Y-40739780D01*
X21901473Y-40693463D01*
X22042189Y-40618249D01*
X22165528Y-40517028D01*
X22190899Y-40486113D01*
X22719328Y-39957685D01*
X22719328Y-42174000D01*
X22731588Y-42298482D01*
X22767898Y-42418180D01*
X22826863Y-42528494D01*
X22906215Y-42625185D01*
X23002906Y-42704537D01*
X23113220Y-42763502D01*
X23232918Y-42799812D01*
X23357400Y-42812072D01*
X24772895Y-42812072D01*
X24719244Y-42834295D01*
X24549726Y-42947563D01*
X24405563Y-43091726D01*
X24292295Y-43261244D01*
X24214274Y-43449602D01*
X24174500Y-43649561D01*
X24174500Y-43853439D01*
X24214274Y-44053398D01*
X24292295Y-44241756D01*
X24324531Y-44290000D01*
X18034721Y-44290000D01*
X17750101Y-44262093D01*
X17509718Y-44189517D01*
X17288011Y-44071633D01*
X17093420Y-43912929D01*
X16933365Y-43719455D01*
X16813936Y-43498576D01*
X16739683Y-43258701D01*
X16710000Y-42976291D01*
X16710000Y-42342527D01*
X19360078Y-42342527D01*
X19413466Y-42571201D01*
X19643374Y-42677095D01*
X19889524Y-42736102D01*
X20142455Y-42745952D01*
X20392449Y-42706270D01*
X20629896Y-42618578D01*
X20718534Y-42571201D01*
X20771922Y-42342527D01*
X20066000Y-41636605D01*
X19360078Y-42342527D01*
X16710000Y-42342527D01*
X16710000Y-33037000D01*
X20843500Y-33037000D01*
X20843501Y-35931052D01*
G37*
X20843501Y-35931052D02*
X20674676Y-35818247D01*
X20440821Y-35721381D01*
X20192561Y-35672000D01*
X19939439Y-35672000D01*
X19691179Y-35721381D01*
X19457324Y-35818247D01*
X19246860Y-35958875D01*
X19067875Y-36137860D01*
X18927247Y-36348324D01*
X18830381Y-36582179D01*
X18781000Y-36830439D01*
X18781000Y-37083561D01*
X18830381Y-37331821D01*
X18927247Y-37565676D01*
X19021677Y-37707000D01*
X18927247Y-37848324D01*
X18830381Y-38082179D01*
X18781000Y-38330439D01*
X18781000Y-38583561D01*
X18830381Y-38831821D01*
X18927247Y-39065676D01*
X19021677Y-39207000D01*
X18927247Y-39348324D01*
X18830381Y-39582179D01*
X18781000Y-39830439D01*
X18781000Y-40083561D01*
X18830381Y-40331821D01*
X18927247Y-40565676D01*
X19067875Y-40776140D01*
X19068869Y-40777134D01*
X18951799Y-40804466D01*
X18845905Y-41034374D01*
X18786898Y-41280524D01*
X18777048Y-41533455D01*
X18816730Y-41783449D01*
X18904422Y-42020896D01*
X18951799Y-42109534D01*
X19180473Y-42162922D01*
X19886395Y-41457000D01*
X19872253Y-41442858D01*
X20051858Y-41263253D01*
X20066000Y-41277395D01*
X20080143Y-41263253D01*
X20259748Y-41442858D01*
X20245605Y-41457000D01*
X20951527Y-42162922D01*
X21180201Y-42109534D01*
X21286095Y-41879626D01*
X21345102Y-41633476D01*
X21354952Y-41380545D01*
X21315270Y-41130551D01*
X21227578Y-40893104D01*
X21180201Y-40804466D01*
X21063131Y-40777134D01*
X21064125Y-40776140D01*
X21080589Y-40751500D01*
X21550212Y-40751500D01*
X21590000Y-40755419D01*
X21629788Y-40751500D01*
X21629791Y-40751500D01*
X21748788Y-40739780D01*
X21901473Y-40693463D01*
X22042189Y-40618249D01*
X22165528Y-40517028D01*
X22190899Y-40486113D01*
X22719328Y-39957685D01*
X22719328Y-42174000D01*
X22731588Y-42298482D01*
X22767898Y-42418180D01*
X22826863Y-42528494D01*
X22906215Y-42625185D01*
X23002906Y-42704537D01*
X23113220Y-42763502D01*
X23232918Y-42799812D01*
X23357400Y-42812072D01*
X24772895Y-42812072D01*
X24719244Y-42834295D01*
X24549726Y-42947563D01*
X24405563Y-43091726D01*
X24292295Y-43261244D01*
X24214274Y-43449602D01*
X24174500Y-43649561D01*
X24174500Y-43853439D01*
X24214274Y-44053398D01*
X24292295Y-44241756D01*
X24324531Y-44290000D01*
X18034721Y-44290000D01*
X17750101Y-44262093D01*
X17509718Y-44189517D01*
X17288011Y-44071633D01*
X17093420Y-43912929D01*
X16933365Y-43719455D01*
X16813936Y-43498576D01*
X16739683Y-43258701D01*
X16710000Y-42976291D01*
X16710000Y-42342527D01*
X19360078Y-42342527D01*
X19413466Y-42571201D01*
X19643374Y-42677095D01*
X19889524Y-42736102D01*
X20142455Y-42745952D01*
X20392449Y-42706270D01*
X20629896Y-42618578D01*
X20718534Y-42571201D01*
X20771922Y-42342527D01*
X20066000Y-41636605D01*
X19360078Y-42342527D01*
X16710000Y-42342527D01*
X16710000Y-33037000D01*
X20843500Y-33037000D01*
X20843501Y-35931052D01*
G36*
X43846748Y-40292358D02*
G01*
X43832605Y-40306500D01*
X43846748Y-40320643D01*
X43667143Y-40500248D01*
X43653000Y-40486105D01*
X43638858Y-40500248D01*
X43459253Y-40320643D01*
X43473395Y-40306500D01*
X43459253Y-40292358D01*
X43638858Y-40112753D01*
X43653000Y-40126895D01*
X43667143Y-40112753D01*
X43846748Y-40292358D01*
G37*
X43846748Y-40292358D02*
X43832605Y-40306500D01*
X43846748Y-40320643D01*
X43667143Y-40500248D01*
X43653000Y-40486105D01*
X43638858Y-40500248D01*
X43459253Y-40320643D01*
X43473395Y-40306500D01*
X43459253Y-40292358D01*
X43638858Y-40112753D01*
X43653000Y-40126895D01*
X43667143Y-40112753D01*
X43846748Y-40292358D01*
G36*
X37232000Y-38244000D02*
G01*
X37252000Y-38244000D01*
X37252000Y-38390899D01*
X37247602Y-38391774D01*
X37059244Y-38469795D01*
X36998505Y-38510380D01*
X36998508Y-38224000D01*
X37232000Y-38224000D01*
X37232000Y-38244000D01*
G37*
X37232000Y-38244000D02*
X37252000Y-38244000D01*
X37252000Y-38390899D01*
X37247602Y-38391774D01*
X37059244Y-38469795D01*
X36998505Y-38510380D01*
X36998508Y-38224000D01*
X37232000Y-38224000D01*
X37232000Y-38244000D01*
G36*
X43229600Y-36857246D02*
G01*
X43179185Y-36795815D01*
X43082494Y-36716463D01*
X43008665Y-36677000D01*
X43082494Y-36637537D01*
X43179185Y-36558185D01*
X43229601Y-36496753D01*
X43229600Y-36857246D01*
G37*
X43229600Y-36857246D02*
X43179185Y-36795815D01*
X43082494Y-36716463D01*
X43008665Y-36677000D01*
X43082494Y-36637537D01*
X43179185Y-36558185D01*
X43229601Y-36496753D01*
X43229600Y-36857246D01*
G36*
X23857000Y-29883439D02*
G01*
X23896774Y-30083398D01*
X23974795Y-30271756D01*
X23979650Y-30279023D01*
X23954315Y-30299815D01*
X23874963Y-30396506D01*
X23815998Y-30506820D01*
X23779688Y-30626518D01*
X23767428Y-30751000D01*
X23767428Y-33251000D01*
X23779688Y-33375482D01*
X23815998Y-33495180D01*
X23874963Y-33605494D01*
X23954315Y-33702185D01*
X24051006Y-33781537D01*
X24161320Y-33840502D01*
X24281018Y-33876812D01*
X24405500Y-33889072D01*
X25405500Y-33889072D01*
X25432169Y-33886445D01*
X25392563Y-33934706D01*
X25333598Y-34045020D01*
X25297288Y-34164718D01*
X25285028Y-34289200D01*
X25288100Y-34478450D01*
X25446850Y-34637200D01*
X26233600Y-34637200D01*
X26233600Y-34617200D01*
X26487600Y-34617200D01*
X26487600Y-34637200D01*
X26507600Y-34637200D01*
X26507600Y-34891200D01*
X26487600Y-34891200D01*
X26487600Y-34911200D01*
X26233600Y-34911200D01*
X26233600Y-34891200D01*
X25446850Y-34891200D01*
X25288100Y-35049950D01*
X25286704Y-35135928D01*
X23357400Y-35135928D01*
X23232918Y-35148188D01*
X23162000Y-35169701D01*
X23162000Y-33037000D01*
X23262000Y-33037000D01*
X23286776Y-33034560D01*
X23310601Y-33027333D01*
X23332557Y-33015597D01*
X23351803Y-32999803D01*
X23367597Y-32980557D01*
X23379333Y-32958601D01*
X23386560Y-32934776D01*
X23389000Y-32910000D01*
X23389000Y-30241510D01*
X23857000Y-29773510D01*
X23857000Y-29883439D01*
G37*
X23857000Y-29883439D02*
X23896774Y-30083398D01*
X23974795Y-30271756D01*
X23979650Y-30279023D01*
X23954315Y-30299815D01*
X23874963Y-30396506D01*
X23815998Y-30506820D01*
X23779688Y-30626518D01*
X23767428Y-30751000D01*
X23767428Y-33251000D01*
X23779688Y-33375482D01*
X23815998Y-33495180D01*
X23874963Y-33605494D01*
X23954315Y-33702185D01*
X24051006Y-33781537D01*
X24161320Y-33840502D01*
X24281018Y-33876812D01*
X24405500Y-33889072D01*
X25405500Y-33889072D01*
X25432169Y-33886445D01*
X25392563Y-33934706D01*
X25333598Y-34045020D01*
X25297288Y-34164718D01*
X25285028Y-34289200D01*
X25288100Y-34478450D01*
X25446850Y-34637200D01*
X26233600Y-34637200D01*
X26233600Y-34617200D01*
X26487600Y-34617200D01*
X26487600Y-34637200D01*
X26507600Y-34637200D01*
X26507600Y-34891200D01*
X26487600Y-34891200D01*
X26487600Y-34911200D01*
X26233600Y-34911200D01*
X26233600Y-34891200D01*
X25446850Y-34891200D01*
X25288100Y-35049950D01*
X25286704Y-35135928D01*
X23357400Y-35135928D01*
X23232918Y-35148188D01*
X23162000Y-35169701D01*
X23162000Y-33037000D01*
X23262000Y-33037000D01*
X23286776Y-33034560D01*
X23310601Y-33027333D01*
X23332557Y-33015597D01*
X23351803Y-32999803D01*
X23367597Y-32980557D01*
X23379333Y-32958601D01*
X23386560Y-32934776D01*
X23389000Y-32910000D01*
X23389000Y-30241510D01*
X23857000Y-29773510D01*
X23857000Y-29883439D01*
G36*
X43919798Y-31804580D02*
G01*
X43978763Y-31914894D01*
X44001830Y-31943001D01*
X44011382Y-32039988D01*
X44059128Y-32197386D01*
X44103331Y-32280083D01*
X44060192Y-32422292D01*
X44043728Y-32589450D01*
X44043728Y-33026950D01*
X44060192Y-33194108D01*
X44108950Y-33354842D01*
X44188129Y-33502975D01*
X44264226Y-33595700D01*
X44188129Y-33688425D01*
X44108950Y-33836558D01*
X44060192Y-33997292D01*
X44043728Y-34164450D01*
X44043728Y-34222860D01*
X43769300Y-33948433D01*
X43769300Y-31939918D01*
X43789837Y-31914894D01*
X43848802Y-31804580D01*
X43884300Y-31687559D01*
X43919798Y-31804580D01*
G37*
X43919798Y-31804580D02*
X43978763Y-31914894D01*
X44001830Y-31943001D01*
X44011382Y-32039988D01*
X44059128Y-32197386D01*
X44103331Y-32280083D01*
X44060192Y-32422292D01*
X44043728Y-32589450D01*
X44043728Y-33026950D01*
X44060192Y-33194108D01*
X44108950Y-33354842D01*
X44188129Y-33502975D01*
X44264226Y-33595700D01*
X44188129Y-33688425D01*
X44108950Y-33836558D01*
X44060192Y-33997292D01*
X44043728Y-34164450D01*
X44043728Y-34222860D01*
X43769300Y-33948433D01*
X43769300Y-31939918D01*
X43789837Y-31914894D01*
X43848802Y-31804580D01*
X43884300Y-31687559D01*
X43919798Y-31804580D01*
G36*
X40949773Y-31959562D02*
G01*
X40865795Y-32085244D01*
X40787774Y-32273602D01*
X40748000Y-32473561D01*
X40748000Y-32677439D01*
X40787774Y-32877398D01*
X40865795Y-33065756D01*
X40884253Y-33093380D01*
X40854832Y-33122801D01*
X40043572Y-33122801D01*
X40043572Y-30751000D01*
X40031312Y-30626518D01*
X40004786Y-30539072D01*
X40953867Y-30539072D01*
X40949773Y-31959562D01*
G37*
X40949773Y-31959562D02*
X40865795Y-32085244D01*
X40787774Y-32273602D01*
X40748000Y-32473561D01*
X40748000Y-32677439D01*
X40787774Y-32877398D01*
X40865795Y-33065756D01*
X40884253Y-33093380D01*
X40854832Y-33122801D01*
X40043572Y-33122801D01*
X40043572Y-30751000D01*
X40031312Y-30626518D01*
X40004786Y-30539072D01*
X40953867Y-30539072D01*
X40949773Y-31959562D01*
G36*
X43919798Y-29604580D02*
G01*
X43978763Y-29714894D01*
X44058115Y-29811585D01*
X44149153Y-29886297D01*
X44011300Y-30024150D01*
X44011300Y-30106259D01*
X43978763Y-30145906D01*
X43919798Y-30256220D01*
X43884300Y-30373241D01*
X43848802Y-30256220D01*
X43789837Y-30145906D01*
X43757300Y-30106259D01*
X43757300Y-30024150D01*
X43619447Y-29886297D01*
X43710485Y-29811585D01*
X43789837Y-29714894D01*
X43848802Y-29604580D01*
X43884300Y-29487559D01*
X43919798Y-29604580D01*
G37*
X43919798Y-29604580D02*
X43978763Y-29714894D01*
X44058115Y-29811585D01*
X44149153Y-29886297D01*
X44011300Y-30024150D01*
X44011300Y-30106259D01*
X43978763Y-30145906D01*
X43919798Y-30256220D01*
X43884300Y-30373241D01*
X43848802Y-30256220D01*
X43789837Y-30145906D01*
X43757300Y-30106259D01*
X43757300Y-30024150D01*
X43619447Y-29886297D01*
X43710485Y-29811585D01*
X43789837Y-29714894D01*
X43848802Y-29604580D01*
X43884300Y-29487559D01*
X43919798Y-29604580D01*
G36*
X23767428Y-18051000D02*
G01*
X23779688Y-18175482D01*
X23815998Y-18295180D01*
X23874963Y-18405494D01*
X23910127Y-18448341D01*
X23870500Y-18647561D01*
X23870500Y-18851439D01*
X23910274Y-19051398D01*
X23988295Y-19239756D01*
X24101563Y-19409274D01*
X24245726Y-19553437D01*
X24415244Y-19666705D01*
X24603602Y-19744726D01*
X24803561Y-19784500D01*
X25007439Y-19784500D01*
X25207398Y-19744726D01*
X25395756Y-19666705D01*
X25565274Y-19553437D01*
X25709437Y-19409274D01*
X25822705Y-19239756D01*
X25900726Y-19051398D01*
X25905500Y-19027397D01*
X25910274Y-19051398D01*
X25988295Y-19239756D01*
X26101563Y-19409274D01*
X26245726Y-19553437D01*
X26415244Y-19666705D01*
X26603602Y-19744726D01*
X26803561Y-19784500D01*
X27007439Y-19784500D01*
X27207398Y-19744726D01*
X27395756Y-19666705D01*
X27565274Y-19553437D01*
X27709437Y-19409274D01*
X27822705Y-19239756D01*
X27900726Y-19051398D01*
X27940500Y-18851439D01*
X27940500Y-18647561D01*
X27900873Y-18448341D01*
X27905500Y-18442704D01*
X27954315Y-18502185D01*
X28051006Y-18581537D01*
X28161320Y-18640502D01*
X28281018Y-18676812D01*
X28405500Y-18689072D01*
X29405500Y-18689072D01*
X29529982Y-18676812D01*
X29649680Y-18640502D01*
X29759994Y-18581537D01*
X29856685Y-18502185D01*
X29905500Y-18442704D01*
X29954315Y-18502185D01*
X30051006Y-18581537D01*
X30161320Y-18640502D01*
X30281018Y-18676812D01*
X30405500Y-18689072D01*
X31405500Y-18689072D01*
X31529982Y-18676812D01*
X31649680Y-18640502D01*
X31759994Y-18581537D01*
X31856685Y-18502185D01*
X31905500Y-18442704D01*
X31954315Y-18502185D01*
X32051006Y-18581537D01*
X32161320Y-18640502D01*
X32281018Y-18676812D01*
X32405500Y-18689072D01*
X33405500Y-18689072D01*
X33529982Y-18676812D01*
X33649680Y-18640502D01*
X33759994Y-18581537D01*
X33856685Y-18502185D01*
X33905500Y-18442704D01*
X33954315Y-18502185D01*
X34051006Y-18581537D01*
X34161320Y-18640502D01*
X34281018Y-18676812D01*
X34405500Y-18689072D01*
X35405500Y-18689072D01*
X35529982Y-18676812D01*
X35649680Y-18640502D01*
X35759994Y-18581537D01*
X35856685Y-18502185D01*
X35905500Y-18442704D01*
X35954315Y-18502185D01*
X36051006Y-18581537D01*
X36161320Y-18640502D01*
X36281018Y-18676812D01*
X36405500Y-18689072D01*
X36619750Y-18686000D01*
X36778500Y-18527250D01*
X36778500Y-16928000D01*
X37032500Y-16928000D01*
X37032500Y-18527250D01*
X37191250Y-18686000D01*
X37405500Y-18689072D01*
X37529982Y-18676812D01*
X37649680Y-18640502D01*
X37759994Y-18581537D01*
X37856685Y-18502185D01*
X37905500Y-18442704D01*
X37954315Y-18502185D01*
X38051006Y-18581537D01*
X38161320Y-18640502D01*
X38281018Y-18676812D01*
X38405500Y-18689072D01*
X38619750Y-18686000D01*
X38778500Y-18527250D01*
X38778500Y-16928000D01*
X37929250Y-16928000D01*
X37905500Y-16951750D01*
X37881750Y-16928000D01*
X37032500Y-16928000D01*
X36778500Y-16928000D01*
X36758500Y-16928000D01*
X36758500Y-16674000D01*
X36778500Y-16674000D01*
X36778500Y-16654000D01*
X37032500Y-16654000D01*
X37032500Y-16674000D01*
X37881750Y-16674000D01*
X37905500Y-16650250D01*
X37929250Y-16674000D01*
X38778500Y-16674000D01*
X38778500Y-16654000D01*
X39032500Y-16654000D01*
X39032500Y-16674000D01*
X39881750Y-16674000D01*
X40040500Y-16515250D01*
X40043065Y-15710000D01*
X43965279Y-15710000D01*
X44249899Y-15737907D01*
X44490285Y-15810484D01*
X44711991Y-15928368D01*
X44906577Y-16087068D01*
X45066635Y-16280545D01*
X45186064Y-16501424D01*
X45260317Y-16741297D01*
X45290000Y-17023716D01*
X45290000Y-18795600D01*
X45118700Y-18795600D01*
X45118700Y-19803600D01*
X45138700Y-19803600D01*
X45138700Y-20057600D01*
X45118700Y-20057600D01*
X45118700Y-20077600D01*
X44864700Y-20077600D01*
X44864700Y-20057600D01*
X43761746Y-20057600D01*
X43743565Y-20082800D01*
X42959700Y-20082800D01*
X42959700Y-20102800D01*
X42705700Y-20102800D01*
X42705700Y-20082800D01*
X42685700Y-20082800D01*
X42685700Y-19828800D01*
X42705700Y-19828800D01*
X42705700Y-19042050D01*
X42959700Y-19042050D01*
X42959700Y-19828800D01*
X43783950Y-19828800D01*
X43809150Y-19803600D01*
X44864700Y-19803600D01*
X44864700Y-18795600D01*
X44602700Y-18795600D01*
X44383713Y-18842185D01*
X44178022Y-18930597D01*
X43993531Y-19057439D01*
X43856562Y-19198089D01*
X43838237Y-19163806D01*
X43758885Y-19067115D01*
X43662194Y-18987763D01*
X43551880Y-18928798D01*
X43432182Y-18892488D01*
X43307700Y-18880228D01*
X43118450Y-18883300D01*
X42959700Y-19042050D01*
X42705700Y-19042050D01*
X42546950Y-18883300D01*
X42357700Y-18880228D01*
X42233218Y-18892488D01*
X42113520Y-18928798D01*
X42003206Y-18987763D01*
X41943572Y-19036703D01*
X41943572Y-18901000D01*
X41931312Y-18776518D01*
X41895002Y-18656820D01*
X41836037Y-18546506D01*
X41756685Y-18449815D01*
X41659994Y-18370463D01*
X41549680Y-18311498D01*
X41429982Y-18275188D01*
X41305500Y-18262928D01*
X40004786Y-18262928D01*
X40031312Y-18175482D01*
X40043572Y-18051000D01*
X40040500Y-17086750D01*
X39881750Y-16928000D01*
X39032500Y-16928000D01*
X39032500Y-18476397D01*
X38974963Y-18546506D01*
X38915998Y-18656820D01*
X38879688Y-18776518D01*
X38867428Y-18901000D01*
X38867428Y-19901000D01*
X38879688Y-20025482D01*
X38915998Y-20145180D01*
X38974963Y-20255494D01*
X39054315Y-20352185D01*
X39113796Y-20401000D01*
X39054315Y-20449815D01*
X38974963Y-20546506D01*
X38915998Y-20656820D01*
X38879688Y-20776518D01*
X38867428Y-20901000D01*
X38867428Y-21901000D01*
X38879688Y-22025482D01*
X38915998Y-22145180D01*
X38974963Y-22255494D01*
X39054315Y-22352185D01*
X39113796Y-22401000D01*
X39054315Y-22449815D01*
X38974963Y-22546506D01*
X38915998Y-22656820D01*
X38879688Y-22776518D01*
X38867428Y-22901000D01*
X38867428Y-23901000D01*
X38879688Y-24025482D01*
X38915998Y-24145180D01*
X38974963Y-24255494D01*
X39054315Y-24352185D01*
X39113796Y-24401000D01*
X39054315Y-24449815D01*
X38974963Y-24546506D01*
X38915998Y-24656820D01*
X38879688Y-24776518D01*
X38867428Y-24901000D01*
X38867428Y-25901000D01*
X38879688Y-26025482D01*
X38915998Y-26145180D01*
X38974963Y-26255494D01*
X39054315Y-26352185D01*
X39113796Y-26401000D01*
X39054315Y-26449815D01*
X38974963Y-26546506D01*
X38915998Y-26656820D01*
X38879688Y-26776518D01*
X38867428Y-26901000D01*
X38867428Y-27901000D01*
X38879688Y-28025482D01*
X38915998Y-28145180D01*
X38974963Y-28255494D01*
X39054315Y-28352185D01*
X39113796Y-28401000D01*
X39054315Y-28449815D01*
X38974963Y-28546506D01*
X38915998Y-28656820D01*
X38879688Y-28776518D01*
X38867428Y-28901000D01*
X38867428Y-29901000D01*
X38879688Y-30025482D01*
X38906214Y-30112928D01*
X38405500Y-30112928D01*
X38281018Y-30125188D01*
X38161320Y-30161498D01*
X38051006Y-30220463D01*
X37954315Y-30299815D01*
X37905500Y-30359296D01*
X37856685Y-30299815D01*
X37759994Y-30220463D01*
X37649680Y-30161498D01*
X37529982Y-30125188D01*
X37405500Y-30112928D01*
X36405500Y-30112928D01*
X36281018Y-30125188D01*
X36161320Y-30161498D01*
X36051006Y-30220463D01*
X35954315Y-30299815D01*
X35905500Y-30359296D01*
X35856685Y-30299815D01*
X35759994Y-30220463D01*
X35649680Y-30161498D01*
X35529982Y-30125188D01*
X35405500Y-30112928D01*
X34405500Y-30112928D01*
X34281018Y-30125188D01*
X34161320Y-30161498D01*
X34051006Y-30220463D01*
X33954315Y-30299815D01*
X33905500Y-30359296D01*
X33856685Y-30299815D01*
X33759994Y-30220463D01*
X33649680Y-30161498D01*
X33529982Y-30125188D01*
X33405500Y-30112928D01*
X32405500Y-30112928D01*
X32281018Y-30125188D01*
X32161320Y-30161498D01*
X32051006Y-30220463D01*
X31954315Y-30299815D01*
X31905500Y-30359296D01*
X31856685Y-30299815D01*
X31759994Y-30220463D01*
X31649680Y-30161498D01*
X31529982Y-30125188D01*
X31405500Y-30112928D01*
X30405500Y-30112928D01*
X30281018Y-30125188D01*
X30161320Y-30161498D01*
X30051006Y-30220463D01*
X29954315Y-30299815D01*
X29905500Y-30359296D01*
X29856685Y-30299815D01*
X29812950Y-30263923D01*
X29887726Y-30083398D01*
X29927500Y-29883439D01*
X29927500Y-29679561D01*
X29887726Y-29479602D01*
X29809705Y-29291244D01*
X29696437Y-29121726D01*
X29552274Y-28977563D01*
X29382756Y-28864295D01*
X29194398Y-28786274D01*
X28994439Y-28746500D01*
X28790561Y-28746500D01*
X28590602Y-28786274D01*
X28402244Y-28864295D01*
X28232726Y-28977563D01*
X28088563Y-29121726D01*
X27975295Y-29291244D01*
X27897274Y-29479602D01*
X27857500Y-29679561D01*
X27857500Y-29883439D01*
X27897274Y-30083398D01*
X27975295Y-30271756D01*
X27979973Y-30278758D01*
X27954315Y-30299815D01*
X27905500Y-30359296D01*
X27856685Y-30299815D01*
X27759994Y-30220463D01*
X27649680Y-30161498D01*
X27529982Y-30125188D01*
X27405500Y-30112928D01*
X26405500Y-30112928D01*
X26281018Y-30125188D01*
X26161320Y-30161498D01*
X26051006Y-30220463D01*
X25954315Y-30299815D01*
X25905500Y-30359296D01*
X25856685Y-30299815D01*
X25812577Y-30263616D01*
X25887226Y-30083398D01*
X25927000Y-29883439D01*
X25927000Y-29679561D01*
X25887226Y-29479602D01*
X25809205Y-29291244D01*
X25695937Y-29121726D01*
X25551774Y-28977563D01*
X25382256Y-28864295D01*
X25193898Y-28786274D01*
X24993939Y-28746500D01*
X24884010Y-28746500D01*
X26849011Y-26781500D01*
X27098800Y-26781500D01*
X27259244Y-26888705D01*
X27447602Y-26966726D01*
X27647561Y-27006500D01*
X27851439Y-27006500D01*
X28051398Y-26966726D01*
X28239756Y-26888705D01*
X28409274Y-26775437D01*
X28553437Y-26631274D01*
X28666705Y-26461756D01*
X28744726Y-26273398D01*
X28784500Y-26073439D01*
X28784500Y-25869561D01*
X28744726Y-25669602D01*
X28666705Y-25481244D01*
X28654849Y-25463500D01*
X28666705Y-25445756D01*
X28744726Y-25257398D01*
X28784500Y-25057439D01*
X28784500Y-24853561D01*
X28744726Y-24653602D01*
X28666705Y-24465244D01*
X28553437Y-24295726D01*
X28409274Y-24151563D01*
X28239756Y-24038295D01*
X28051398Y-23960274D01*
X27851439Y-23920500D01*
X27647561Y-23920500D01*
X27447602Y-23960274D01*
X27259244Y-24038295D01*
X27098800Y-24145500D01*
X26328788Y-24145500D01*
X26289000Y-24141581D01*
X26249212Y-24145500D01*
X26249209Y-24145500D01*
X26130212Y-24157220D01*
X25977527Y-24203537D01*
X25934379Y-24226600D01*
X25836810Y-24278751D01*
X25796908Y-24311498D01*
X25713472Y-24379972D01*
X25688105Y-24410882D01*
X23389000Y-26709988D01*
X23389000Y-15710000D01*
X23767428Y-15710000D01*
X23767428Y-18051000D01*
G37*
X23767428Y-18051000D02*
X23779688Y-18175482D01*
X23815998Y-18295180D01*
X23874963Y-18405494D01*
X23910127Y-18448341D01*
X23870500Y-18647561D01*
X23870500Y-18851439D01*
X23910274Y-19051398D01*
X23988295Y-19239756D01*
X24101563Y-19409274D01*
X24245726Y-19553437D01*
X24415244Y-19666705D01*
X24603602Y-19744726D01*
X24803561Y-19784500D01*
X25007439Y-19784500D01*
X25207398Y-19744726D01*
X25395756Y-19666705D01*
X25565274Y-19553437D01*
X25709437Y-19409274D01*
X25822705Y-19239756D01*
X25900726Y-19051398D01*
X25905500Y-19027397D01*
X25910274Y-19051398D01*
X25988295Y-19239756D01*
X26101563Y-19409274D01*
X26245726Y-19553437D01*
X26415244Y-19666705D01*
X26603602Y-19744726D01*
X26803561Y-19784500D01*
X27007439Y-19784500D01*
X27207398Y-19744726D01*
X27395756Y-19666705D01*
X27565274Y-19553437D01*
X27709437Y-19409274D01*
X27822705Y-19239756D01*
X27900726Y-19051398D01*
X27940500Y-18851439D01*
X27940500Y-18647561D01*
X27900873Y-18448341D01*
X27905500Y-18442704D01*
X27954315Y-18502185D01*
X28051006Y-18581537D01*
X28161320Y-18640502D01*
X28281018Y-18676812D01*
X28405500Y-18689072D01*
X29405500Y-18689072D01*
X29529982Y-18676812D01*
X29649680Y-18640502D01*
X29759994Y-18581537D01*
X29856685Y-18502185D01*
X29905500Y-18442704D01*
X29954315Y-18502185D01*
X30051006Y-18581537D01*
X30161320Y-18640502D01*
X30281018Y-18676812D01*
X30405500Y-18689072D01*
X31405500Y-18689072D01*
X31529982Y-18676812D01*
X31649680Y-18640502D01*
X31759994Y-18581537D01*
X31856685Y-18502185D01*
X31905500Y-18442704D01*
X31954315Y-18502185D01*
X32051006Y-18581537D01*
X32161320Y-18640502D01*
X32281018Y-18676812D01*
X32405500Y-18689072D01*
X33405500Y-18689072D01*
X33529982Y-18676812D01*
X33649680Y-18640502D01*
X33759994Y-18581537D01*
X33856685Y-18502185D01*
X33905500Y-18442704D01*
X33954315Y-18502185D01*
X34051006Y-18581537D01*
X34161320Y-18640502D01*
X34281018Y-18676812D01*
X34405500Y-18689072D01*
X35405500Y-18689072D01*
X35529982Y-18676812D01*
X35649680Y-18640502D01*
X35759994Y-18581537D01*
X35856685Y-18502185D01*
X35905500Y-18442704D01*
X35954315Y-18502185D01*
X36051006Y-18581537D01*
X36161320Y-18640502D01*
X36281018Y-18676812D01*
X36405500Y-18689072D01*
X36619750Y-18686000D01*
X36778500Y-18527250D01*
X36778500Y-16928000D01*
X37032500Y-16928000D01*
X37032500Y-18527250D01*
X37191250Y-18686000D01*
X37405500Y-18689072D01*
X37529982Y-18676812D01*
X37649680Y-18640502D01*
X37759994Y-18581537D01*
X37856685Y-18502185D01*
X37905500Y-18442704D01*
X37954315Y-18502185D01*
X38051006Y-18581537D01*
X38161320Y-18640502D01*
X38281018Y-18676812D01*
X38405500Y-18689072D01*
X38619750Y-18686000D01*
X38778500Y-18527250D01*
X38778500Y-16928000D01*
X37929250Y-16928000D01*
X37905500Y-16951750D01*
X37881750Y-16928000D01*
X37032500Y-16928000D01*
X36778500Y-16928000D01*
X36758500Y-16928000D01*
X36758500Y-16674000D01*
X36778500Y-16674000D01*
X36778500Y-16654000D01*
X37032500Y-16654000D01*
X37032500Y-16674000D01*
X37881750Y-16674000D01*
X37905500Y-16650250D01*
X37929250Y-16674000D01*
X38778500Y-16674000D01*
X38778500Y-16654000D01*
X39032500Y-16654000D01*
X39032500Y-16674000D01*
X39881750Y-16674000D01*
X40040500Y-16515250D01*
X40043065Y-15710000D01*
X43965279Y-15710000D01*
X44249899Y-15737907D01*
X44490285Y-15810484D01*
X44711991Y-15928368D01*
X44906577Y-16087068D01*
X45066635Y-16280545D01*
X45186064Y-16501424D01*
X45260317Y-16741297D01*
X45290000Y-17023716D01*
X45290000Y-18795600D01*
X45118700Y-18795600D01*
X45118700Y-19803600D01*
X45138700Y-19803600D01*
X45138700Y-20057600D01*
X45118700Y-20057600D01*
X45118700Y-20077600D01*
X44864700Y-20077600D01*
X44864700Y-20057600D01*
X43761746Y-20057600D01*
X43743565Y-20082800D01*
X42959700Y-20082800D01*
X42959700Y-20102800D01*
X42705700Y-20102800D01*
X42705700Y-20082800D01*
X42685700Y-20082800D01*
X42685700Y-19828800D01*
X42705700Y-19828800D01*
X42705700Y-19042050D01*
X42959700Y-19042050D01*
X42959700Y-19828800D01*
X43783950Y-19828800D01*
X43809150Y-19803600D01*
X44864700Y-19803600D01*
X44864700Y-18795600D01*
X44602700Y-18795600D01*
X44383713Y-18842185D01*
X44178022Y-18930597D01*
X43993531Y-19057439D01*
X43856562Y-19198089D01*
X43838237Y-19163806D01*
X43758885Y-19067115D01*
X43662194Y-18987763D01*
X43551880Y-18928798D01*
X43432182Y-18892488D01*
X43307700Y-18880228D01*
X43118450Y-18883300D01*
X42959700Y-19042050D01*
X42705700Y-19042050D01*
X42546950Y-18883300D01*
X42357700Y-18880228D01*
X42233218Y-18892488D01*
X42113520Y-18928798D01*
X42003206Y-18987763D01*
X41943572Y-19036703D01*
X41943572Y-18901000D01*
X41931312Y-18776518D01*
X41895002Y-18656820D01*
X41836037Y-18546506D01*
X41756685Y-18449815D01*
X41659994Y-18370463D01*
X41549680Y-18311498D01*
X41429982Y-18275188D01*
X41305500Y-18262928D01*
X40004786Y-18262928D01*
X40031312Y-18175482D01*
X40043572Y-18051000D01*
X40040500Y-17086750D01*
X39881750Y-16928000D01*
X39032500Y-16928000D01*
X39032500Y-18476397D01*
X38974963Y-18546506D01*
X38915998Y-18656820D01*
X38879688Y-18776518D01*
X38867428Y-18901000D01*
X38867428Y-19901000D01*
X38879688Y-20025482D01*
X38915998Y-20145180D01*
X38974963Y-20255494D01*
X39054315Y-20352185D01*
X39113796Y-20401000D01*
X39054315Y-20449815D01*
X38974963Y-20546506D01*
X38915998Y-20656820D01*
X38879688Y-20776518D01*
X38867428Y-20901000D01*
X38867428Y-21901000D01*
X38879688Y-22025482D01*
X38915998Y-22145180D01*
X38974963Y-22255494D01*
X39054315Y-22352185D01*
X39113796Y-22401000D01*
X39054315Y-22449815D01*
X38974963Y-22546506D01*
X38915998Y-22656820D01*
X38879688Y-22776518D01*
X38867428Y-22901000D01*
X38867428Y-23901000D01*
X38879688Y-24025482D01*
X38915998Y-24145180D01*
X38974963Y-24255494D01*
X39054315Y-24352185D01*
X39113796Y-24401000D01*
X39054315Y-24449815D01*
X38974963Y-24546506D01*
X38915998Y-24656820D01*
X38879688Y-24776518D01*
X38867428Y-24901000D01*
X38867428Y-25901000D01*
X38879688Y-26025482D01*
X38915998Y-26145180D01*
X38974963Y-26255494D01*
X39054315Y-26352185D01*
X39113796Y-26401000D01*
X39054315Y-26449815D01*
X38974963Y-26546506D01*
X38915998Y-26656820D01*
X38879688Y-26776518D01*
X38867428Y-26901000D01*
X38867428Y-27901000D01*
X38879688Y-28025482D01*
X38915998Y-28145180D01*
X38974963Y-28255494D01*
X39054315Y-28352185D01*
X39113796Y-28401000D01*
X39054315Y-28449815D01*
X38974963Y-28546506D01*
X38915998Y-28656820D01*
X38879688Y-28776518D01*
X38867428Y-28901000D01*
X38867428Y-29901000D01*
X38879688Y-30025482D01*
X38906214Y-30112928D01*
X38405500Y-30112928D01*
X38281018Y-30125188D01*
X38161320Y-30161498D01*
X38051006Y-30220463D01*
X37954315Y-30299815D01*
X37905500Y-30359296D01*
X37856685Y-30299815D01*
X37759994Y-30220463D01*
X37649680Y-30161498D01*
X37529982Y-30125188D01*
X37405500Y-30112928D01*
X36405500Y-30112928D01*
X36281018Y-30125188D01*
X36161320Y-30161498D01*
X36051006Y-30220463D01*
X35954315Y-30299815D01*
X35905500Y-30359296D01*
X35856685Y-30299815D01*
X35759994Y-30220463D01*
X35649680Y-30161498D01*
X35529982Y-30125188D01*
X35405500Y-30112928D01*
X34405500Y-30112928D01*
X34281018Y-30125188D01*
X34161320Y-30161498D01*
X34051006Y-30220463D01*
X33954315Y-30299815D01*
X33905500Y-30359296D01*
X33856685Y-30299815D01*
X33759994Y-30220463D01*
X33649680Y-30161498D01*
X33529982Y-30125188D01*
X33405500Y-30112928D01*
X32405500Y-30112928D01*
X32281018Y-30125188D01*
X32161320Y-30161498D01*
X32051006Y-30220463D01*
X31954315Y-30299815D01*
X31905500Y-30359296D01*
X31856685Y-30299815D01*
X31759994Y-30220463D01*
X31649680Y-30161498D01*
X31529982Y-30125188D01*
X31405500Y-30112928D01*
X30405500Y-30112928D01*
X30281018Y-30125188D01*
X30161320Y-30161498D01*
X30051006Y-30220463D01*
X29954315Y-30299815D01*
X29905500Y-30359296D01*
X29856685Y-30299815D01*
X29812950Y-30263923D01*
X29887726Y-30083398D01*
X29927500Y-29883439D01*
X29927500Y-29679561D01*
X29887726Y-29479602D01*
X29809705Y-29291244D01*
X29696437Y-29121726D01*
X29552274Y-28977563D01*
X29382756Y-28864295D01*
X29194398Y-28786274D01*
X28994439Y-28746500D01*
X28790561Y-28746500D01*
X28590602Y-28786274D01*
X28402244Y-28864295D01*
X28232726Y-28977563D01*
X28088563Y-29121726D01*
X27975295Y-29291244D01*
X27897274Y-29479602D01*
X27857500Y-29679561D01*
X27857500Y-29883439D01*
X27897274Y-30083398D01*
X27975295Y-30271756D01*
X27979973Y-30278758D01*
X27954315Y-30299815D01*
X27905500Y-30359296D01*
X27856685Y-30299815D01*
X27759994Y-30220463D01*
X27649680Y-30161498D01*
X27529982Y-30125188D01*
X27405500Y-30112928D01*
X26405500Y-30112928D01*
X26281018Y-30125188D01*
X26161320Y-30161498D01*
X26051006Y-30220463D01*
X25954315Y-30299815D01*
X25905500Y-30359296D01*
X25856685Y-30299815D01*
X25812577Y-30263616D01*
X25887226Y-30083398D01*
X25927000Y-29883439D01*
X25927000Y-29679561D01*
X25887226Y-29479602D01*
X25809205Y-29291244D01*
X25695937Y-29121726D01*
X25551774Y-28977563D01*
X25382256Y-28864295D01*
X25193898Y-28786274D01*
X24993939Y-28746500D01*
X24884010Y-28746500D01*
X26849011Y-26781500D01*
X27098800Y-26781500D01*
X27259244Y-26888705D01*
X27447602Y-26966726D01*
X27647561Y-27006500D01*
X27851439Y-27006500D01*
X28051398Y-26966726D01*
X28239756Y-26888705D01*
X28409274Y-26775437D01*
X28553437Y-26631274D01*
X28666705Y-26461756D01*
X28744726Y-26273398D01*
X28784500Y-26073439D01*
X28784500Y-25869561D01*
X28744726Y-25669602D01*
X28666705Y-25481244D01*
X28654849Y-25463500D01*
X28666705Y-25445756D01*
X28744726Y-25257398D01*
X28784500Y-25057439D01*
X28784500Y-24853561D01*
X28744726Y-24653602D01*
X28666705Y-24465244D01*
X28553437Y-24295726D01*
X28409274Y-24151563D01*
X28239756Y-24038295D01*
X28051398Y-23960274D01*
X27851439Y-23920500D01*
X27647561Y-23920500D01*
X27447602Y-23960274D01*
X27259244Y-24038295D01*
X27098800Y-24145500D01*
X26328788Y-24145500D01*
X26289000Y-24141581D01*
X26249212Y-24145500D01*
X26249209Y-24145500D01*
X26130212Y-24157220D01*
X25977527Y-24203537D01*
X25934379Y-24226600D01*
X25836810Y-24278751D01*
X25796908Y-24311498D01*
X25713472Y-24379972D01*
X25688105Y-24410882D01*
X23389000Y-26709988D01*
X23389000Y-15710000D01*
X23767428Y-15710000D01*
X23767428Y-18051000D01*
G36*
X43919798Y-27730780D02*
G01*
X43978763Y-27841094D01*
X44011300Y-27880741D01*
X44011300Y-27906259D01*
X43978763Y-27945906D01*
X43919798Y-28056220D01*
X43884300Y-28173241D01*
X43848802Y-28056220D01*
X43789837Y-27945906D01*
X43769300Y-27920882D01*
X43769300Y-27866118D01*
X43789837Y-27841094D01*
X43848802Y-27730780D01*
X43884300Y-27613759D01*
X43919798Y-27730780D01*
G37*
X43919798Y-27730780D02*
X43978763Y-27841094D01*
X44011300Y-27880741D01*
X44011300Y-27906259D01*
X43978763Y-27945906D01*
X43919798Y-28056220D01*
X43884300Y-28173241D01*
X43848802Y-28056220D01*
X43789837Y-27945906D01*
X43769300Y-27920882D01*
X43769300Y-27866118D01*
X43789837Y-27841094D01*
X43848802Y-27730780D01*
X43884300Y-27613759D01*
X43919798Y-27730780D01*
G36*
X41864029Y-22225575D02*
G01*
X41970585Y-22355415D01*
X42100425Y-22461971D01*
X42248558Y-22541150D01*
X42409292Y-22589908D01*
X42576450Y-22606372D01*
X43039101Y-22606372D01*
X43039100Y-23588528D01*
X42609300Y-23588528D01*
X42484818Y-23600788D01*
X42365120Y-23637098D01*
X42254806Y-23696063D01*
X42158115Y-23775415D01*
X42078763Y-23872106D01*
X42021105Y-23979974D01*
X42016313Y-23981428D01*
X41930812Y-24027129D01*
X41931312Y-24025482D01*
X41943572Y-23901000D01*
X41943572Y-22901000D01*
X41931312Y-22776518D01*
X41895002Y-22656820D01*
X41836037Y-22546506D01*
X41756685Y-22449815D01*
X41697204Y-22401000D01*
X41756685Y-22352185D01*
X41836037Y-22255494D01*
X41858029Y-22214350D01*
X41864029Y-22225575D01*
G37*
X41864029Y-22225575D02*
X41970585Y-22355415D01*
X42100425Y-22461971D01*
X42248558Y-22541150D01*
X42409292Y-22589908D01*
X42576450Y-22606372D01*
X43039101Y-22606372D01*
X43039100Y-23588528D01*
X42609300Y-23588528D01*
X42484818Y-23600788D01*
X42365120Y-23637098D01*
X42254806Y-23696063D01*
X42158115Y-23775415D01*
X42078763Y-23872106D01*
X42021105Y-23979974D01*
X42016313Y-23981428D01*
X41930812Y-24027129D01*
X41931312Y-24025482D01*
X41943572Y-23901000D01*
X41943572Y-22901000D01*
X41931312Y-22776518D01*
X41895002Y-22656820D01*
X41836037Y-22546506D01*
X41756685Y-22449815D01*
X41697204Y-22401000D01*
X41756685Y-22352185D01*
X41836037Y-22255494D01*
X41858029Y-22214350D01*
X41864029Y-22225575D01*
G36*
X45290000Y-23602674D02*
G01*
X45283782Y-23600788D01*
X45159300Y-23588528D01*
X44709100Y-23588528D01*
X44709100Y-22665600D01*
X45290000Y-22665600D01*
X45290000Y-23602674D01*
G37*
X45290000Y-23602674D02*
X45283782Y-23600788D01*
X45159300Y-23588528D01*
X44709100Y-23588528D01*
X44709100Y-22665600D01*
X45290000Y-22665600D01*
X45290000Y-23602674D01*
G36*
X36632295Y-39877256D02*
G01*
X36745563Y-40046774D01*
X36889726Y-40190937D01*
X37059244Y-40304205D01*
X37247602Y-40382226D01*
X37290032Y-40390666D01*
X37328952Y-40644791D01*
X37420391Y-40896600D01*
X37477550Y-41003535D01*
X37713867Y-41066028D01*
X38473395Y-40306500D01*
X38459253Y-40292358D01*
X38638858Y-40112753D01*
X38653000Y-40126895D01*
X38667143Y-40112753D01*
X38846748Y-40292358D01*
X38832605Y-40306500D01*
X38846748Y-40320643D01*
X38667143Y-40500248D01*
X38653000Y-40486105D01*
X37893472Y-41245633D01*
X37939909Y-41421233D01*
X37653000Y-41418428D01*
X37621808Y-41421500D01*
X37525998Y-41421500D01*
X37525998Y-41431452D01*
X37408820Y-41466998D01*
X37371735Y-41486821D01*
X37335391Y-41463038D01*
X37297718Y-41466909D01*
X37072467Y-41559079D01*
X36869526Y-41693422D01*
X36696693Y-41864775D01*
X36560610Y-42066554D01*
X36466507Y-42291004D01*
X36418000Y-42529500D01*
X36418000Y-42879500D01*
X40026000Y-42879500D01*
X40026000Y-42859500D01*
X40280000Y-42859500D01*
X40280000Y-42879500D01*
X42026000Y-42879500D01*
X42026000Y-42859500D01*
X42280000Y-42859500D01*
X42280000Y-42879500D01*
X44200000Y-42879500D01*
X44200000Y-43133500D01*
X42280000Y-43133500D01*
X42280000Y-43153500D01*
X42026000Y-43153500D01*
X42026000Y-43133500D01*
X40280000Y-43133500D01*
X40280000Y-43153500D01*
X40026000Y-43153500D01*
X40026000Y-43133500D01*
X36418000Y-43133500D01*
X36418000Y-43483500D01*
X36466507Y-43721996D01*
X36560610Y-43946446D01*
X36696693Y-44148225D01*
X36839693Y-44290000D01*
X30122630Y-44290000D01*
X30141726Y-44243898D01*
X30181500Y-44043939D01*
X30181500Y-43840061D01*
X30160281Y-43733386D01*
X30217994Y-43702537D01*
X30314685Y-43623185D01*
X30319782Y-43616975D01*
X30379372Y-43641658D01*
X30579331Y-43681432D01*
X30684122Y-43681432D01*
X30705795Y-43733756D01*
X30819063Y-43903274D01*
X30963226Y-44047437D01*
X31132744Y-44160705D01*
X31321102Y-44238726D01*
X31521061Y-44278500D01*
X31724939Y-44278500D01*
X31924898Y-44238726D01*
X32113256Y-44160705D01*
X32273700Y-44053500D01*
X33627212Y-44053500D01*
X33667000Y-44057419D01*
X33706788Y-44053500D01*
X33706791Y-44053500D01*
X33825788Y-44041780D01*
X33978473Y-43995463D01*
X34119189Y-43920249D01*
X34242528Y-43819028D01*
X34254636Y-43804275D01*
X34313500Y-43810072D01*
X35763500Y-43810072D01*
X35887982Y-43797812D01*
X36007680Y-43761502D01*
X36117994Y-43702537D01*
X36214685Y-43623185D01*
X36294037Y-43526494D01*
X36353002Y-43416180D01*
X36389312Y-43296482D01*
X36401572Y-43172000D01*
X36401572Y-42722000D01*
X36391723Y-42622000D01*
X36401572Y-42522000D01*
X36401572Y-42072000D01*
X36391723Y-41972000D01*
X36401572Y-41872000D01*
X36401572Y-41422000D01*
X36391723Y-41322000D01*
X36401572Y-41222000D01*
X36401572Y-40772000D01*
X36391405Y-40668773D01*
X36398500Y-40603750D01*
X36366253Y-40571503D01*
X36353002Y-40527820D01*
X36294037Y-40417506D01*
X36236174Y-40347000D01*
X36294037Y-40276494D01*
X36353002Y-40166180D01*
X36366253Y-40122497D01*
X36398500Y-40090250D01*
X36391405Y-40025227D01*
X36401572Y-39922000D01*
X36401572Y-39847354D01*
X36439466Y-39835859D01*
X36484579Y-39822175D01*
X36484581Y-39822174D01*
X36484587Y-39822172D01*
X36586839Y-39767517D01*
X36632295Y-39877256D01*
G37*
X36632295Y-39877256D02*
X36745563Y-40046774D01*
X36889726Y-40190937D01*
X37059244Y-40304205D01*
X37247602Y-40382226D01*
X37290032Y-40390666D01*
X37328952Y-40644791D01*
X37420391Y-40896600D01*
X37477550Y-41003535D01*
X37713867Y-41066028D01*
X38473395Y-40306500D01*
X38459253Y-40292358D01*
X38638858Y-40112753D01*
X38653000Y-40126895D01*
X38667143Y-40112753D01*
X38846748Y-40292358D01*
X38832605Y-40306500D01*
X38846748Y-40320643D01*
X38667143Y-40500248D01*
X38653000Y-40486105D01*
X37893472Y-41245633D01*
X37939909Y-41421233D01*
X37653000Y-41418428D01*
X37621808Y-41421500D01*
X37525998Y-41421500D01*
X37525998Y-41431452D01*
X37408820Y-41466998D01*
X37371735Y-41486821D01*
X37335391Y-41463038D01*
X37297718Y-41466909D01*
X37072467Y-41559079D01*
X36869526Y-41693422D01*
X36696693Y-41864775D01*
X36560610Y-42066554D01*
X36466507Y-42291004D01*
X36418000Y-42529500D01*
X36418000Y-42879500D01*
X40026000Y-42879500D01*
X40026000Y-42859500D01*
X40280000Y-42859500D01*
X40280000Y-42879500D01*
X42026000Y-42879500D01*
X42026000Y-42859500D01*
X42280000Y-42859500D01*
X42280000Y-42879500D01*
X44200000Y-42879500D01*
X44200000Y-43133500D01*
X42280000Y-43133500D01*
X42280000Y-43153500D01*
X42026000Y-43153500D01*
X42026000Y-43133500D01*
X40280000Y-43133500D01*
X40280000Y-43153500D01*
X40026000Y-43153500D01*
X40026000Y-43133500D01*
X36418000Y-43133500D01*
X36418000Y-43483500D01*
X36466507Y-43721996D01*
X36560610Y-43946446D01*
X36696693Y-44148225D01*
X36839693Y-44290000D01*
X30122630Y-44290000D01*
X30141726Y-44243898D01*
X30181500Y-44043939D01*
X30181500Y-43840061D01*
X30160281Y-43733386D01*
X30217994Y-43702537D01*
X30314685Y-43623185D01*
X30319782Y-43616975D01*
X30379372Y-43641658D01*
X30579331Y-43681432D01*
X30684122Y-43681432D01*
X30705795Y-43733756D01*
X30819063Y-43903274D01*
X30963226Y-44047437D01*
X31132744Y-44160705D01*
X31321102Y-44238726D01*
X31521061Y-44278500D01*
X31724939Y-44278500D01*
X31924898Y-44238726D01*
X32113256Y-44160705D01*
X32273700Y-44053500D01*
X33627212Y-44053500D01*
X33667000Y-44057419D01*
X33706788Y-44053500D01*
X33706791Y-44053500D01*
X33825788Y-44041780D01*
X33978473Y-43995463D01*
X34119189Y-43920249D01*
X34242528Y-43819028D01*
X34254636Y-43804275D01*
X34313500Y-43810072D01*
X35763500Y-43810072D01*
X35887982Y-43797812D01*
X36007680Y-43761502D01*
X36117994Y-43702537D01*
X36214685Y-43623185D01*
X36294037Y-43526494D01*
X36353002Y-43416180D01*
X36389312Y-43296482D01*
X36401572Y-43172000D01*
X36401572Y-42722000D01*
X36391723Y-42622000D01*
X36401572Y-42522000D01*
X36401572Y-42072000D01*
X36391723Y-41972000D01*
X36401572Y-41872000D01*
X36401572Y-41422000D01*
X36391723Y-41322000D01*
X36401572Y-41222000D01*
X36401572Y-40772000D01*
X36391405Y-40668773D01*
X36398500Y-40603750D01*
X36366253Y-40571503D01*
X36353002Y-40527820D01*
X36294037Y-40417506D01*
X36236174Y-40347000D01*
X36294037Y-40276494D01*
X36353002Y-40166180D01*
X36366253Y-40122497D01*
X36398500Y-40090250D01*
X36391405Y-40025227D01*
X36401572Y-39922000D01*
X36401572Y-39847354D01*
X36439466Y-39835859D01*
X36484579Y-39822175D01*
X36484581Y-39822174D01*
X36484587Y-39822172D01*
X36586839Y-39767517D01*
X36632295Y-39877256D01*
G36*
X20843501Y-35931052D02*
G01*
X20674676Y-35818247D01*
X20440821Y-35721381D01*
X20192561Y-35672000D01*
X19939439Y-35672000D01*
X19691179Y-35721381D01*
X19457324Y-35818247D01*
X19246860Y-35958875D01*
X19067875Y-36137860D01*
X18927247Y-36348324D01*
X18830381Y-36582179D01*
X18781000Y-36830439D01*
X18781000Y-37083561D01*
X18830381Y-37331821D01*
X18927247Y-37565676D01*
X19021677Y-37707000D01*
X18927247Y-37848324D01*
X18830381Y-38082179D01*
X18781000Y-38330439D01*
X18781000Y-38583561D01*
X18830381Y-38831821D01*
X18927247Y-39065676D01*
X19021677Y-39207000D01*
X18927247Y-39348324D01*
X18830381Y-39582179D01*
X18781000Y-39830439D01*
X18781000Y-40083561D01*
X18830381Y-40331821D01*
X18927247Y-40565676D01*
X19067875Y-40776140D01*
X19068869Y-40777134D01*
X18951799Y-40804466D01*
X18845905Y-41034374D01*
X18786898Y-41280524D01*
X18777048Y-41533455D01*
X18816730Y-41783449D01*
X18904422Y-42020896D01*
X18951799Y-42109534D01*
X19180473Y-42162922D01*
X19886395Y-41457000D01*
X19872253Y-41442858D01*
X20051858Y-41263253D01*
X20066000Y-41277395D01*
X20080143Y-41263253D01*
X20259748Y-41442858D01*
X20245605Y-41457000D01*
X20951527Y-42162922D01*
X21180201Y-42109534D01*
X21286095Y-41879626D01*
X21345102Y-41633476D01*
X21354952Y-41380545D01*
X21315270Y-41130551D01*
X21227578Y-40893104D01*
X21180201Y-40804466D01*
X21063131Y-40777134D01*
X21064125Y-40776140D01*
X21080589Y-40751500D01*
X21550212Y-40751500D01*
X21590000Y-40755419D01*
X21629788Y-40751500D01*
X21629791Y-40751500D01*
X21748788Y-40739780D01*
X21901473Y-40693463D01*
X22042189Y-40618249D01*
X22165528Y-40517028D01*
X22190899Y-40486113D01*
X22719328Y-39957685D01*
X22719328Y-42174000D01*
X22731588Y-42298482D01*
X22767898Y-42418180D01*
X22826863Y-42528494D01*
X22906215Y-42625185D01*
X23002906Y-42704537D01*
X23113220Y-42763502D01*
X23232918Y-42799812D01*
X23357400Y-42812072D01*
X24772895Y-42812072D01*
X24719244Y-42834295D01*
X24549726Y-42947563D01*
X24405563Y-43091726D01*
X24292295Y-43261244D01*
X24214274Y-43449602D01*
X24174500Y-43649561D01*
X24174500Y-43853439D01*
X24214274Y-44053398D01*
X24292295Y-44241756D01*
X24324531Y-44290000D01*
X18034721Y-44290000D01*
X17750101Y-44262093D01*
X17509718Y-44189517D01*
X17288011Y-44071633D01*
X17093420Y-43912929D01*
X16933365Y-43719455D01*
X16813936Y-43498576D01*
X16739683Y-43258701D01*
X16710000Y-42976291D01*
X16710000Y-42342527D01*
X19360078Y-42342527D01*
X19413466Y-42571201D01*
X19643374Y-42677095D01*
X19889524Y-42736102D01*
X20142455Y-42745952D01*
X20392449Y-42706270D01*
X20629896Y-42618578D01*
X20718534Y-42571201D01*
X20771922Y-42342527D01*
X20066000Y-41636605D01*
X19360078Y-42342527D01*
X16710000Y-42342527D01*
X16710000Y-33037000D01*
X20843500Y-33037000D01*
X20843501Y-35931052D01*
G37*
X20843501Y-35931052D02*
X20674676Y-35818247D01*
X20440821Y-35721381D01*
X20192561Y-35672000D01*
X19939439Y-35672000D01*
X19691179Y-35721381D01*
X19457324Y-35818247D01*
X19246860Y-35958875D01*
X19067875Y-36137860D01*
X18927247Y-36348324D01*
X18830381Y-36582179D01*
X18781000Y-36830439D01*
X18781000Y-37083561D01*
X18830381Y-37331821D01*
X18927247Y-37565676D01*
X19021677Y-37707000D01*
X18927247Y-37848324D01*
X18830381Y-38082179D01*
X18781000Y-38330439D01*
X18781000Y-38583561D01*
X18830381Y-38831821D01*
X18927247Y-39065676D01*
X19021677Y-39207000D01*
X18927247Y-39348324D01*
X18830381Y-39582179D01*
X18781000Y-39830439D01*
X18781000Y-40083561D01*
X18830381Y-40331821D01*
X18927247Y-40565676D01*
X19067875Y-40776140D01*
X19068869Y-40777134D01*
X18951799Y-40804466D01*
X18845905Y-41034374D01*
X18786898Y-41280524D01*
X18777048Y-41533455D01*
X18816730Y-41783449D01*
X18904422Y-42020896D01*
X18951799Y-42109534D01*
X19180473Y-42162922D01*
X19886395Y-41457000D01*
X19872253Y-41442858D01*
X20051858Y-41263253D01*
X20066000Y-41277395D01*
X20080143Y-41263253D01*
X20259748Y-41442858D01*
X20245605Y-41457000D01*
X20951527Y-42162922D01*
X21180201Y-42109534D01*
X21286095Y-41879626D01*
X21345102Y-41633476D01*
X21354952Y-41380545D01*
X21315270Y-41130551D01*
X21227578Y-40893104D01*
X21180201Y-40804466D01*
X21063131Y-40777134D01*
X21064125Y-40776140D01*
X21080589Y-40751500D01*
X21550212Y-40751500D01*
X21590000Y-40755419D01*
X21629788Y-40751500D01*
X21629791Y-40751500D01*
X21748788Y-40739780D01*
X21901473Y-40693463D01*
X22042189Y-40618249D01*
X22165528Y-40517028D01*
X22190899Y-40486113D01*
X22719328Y-39957685D01*
X22719328Y-42174000D01*
X22731588Y-42298482D01*
X22767898Y-42418180D01*
X22826863Y-42528494D01*
X22906215Y-42625185D01*
X23002906Y-42704537D01*
X23113220Y-42763502D01*
X23232918Y-42799812D01*
X23357400Y-42812072D01*
X24772895Y-42812072D01*
X24719244Y-42834295D01*
X24549726Y-42947563D01*
X24405563Y-43091726D01*
X24292295Y-43261244D01*
X24214274Y-43449602D01*
X24174500Y-43649561D01*
X24174500Y-43853439D01*
X24214274Y-44053398D01*
X24292295Y-44241756D01*
X24324531Y-44290000D01*
X18034721Y-44290000D01*
X17750101Y-44262093D01*
X17509718Y-44189517D01*
X17288011Y-44071633D01*
X17093420Y-43912929D01*
X16933365Y-43719455D01*
X16813936Y-43498576D01*
X16739683Y-43258701D01*
X16710000Y-42976291D01*
X16710000Y-42342527D01*
X19360078Y-42342527D01*
X19413466Y-42571201D01*
X19643374Y-42677095D01*
X19889524Y-42736102D01*
X20142455Y-42745952D01*
X20392449Y-42706270D01*
X20629896Y-42618578D01*
X20718534Y-42571201D01*
X20771922Y-42342527D01*
X20066000Y-41636605D01*
X19360078Y-42342527D01*
X16710000Y-42342527D01*
X16710000Y-33037000D01*
X20843500Y-33037000D01*
X20843501Y-35931052D01*
G36*
X43846748Y-40292358D02*
G01*
X43832605Y-40306500D01*
X43846748Y-40320643D01*
X43667143Y-40500248D01*
X43653000Y-40486105D01*
X43638858Y-40500248D01*
X43459253Y-40320643D01*
X43473395Y-40306500D01*
X43459253Y-40292358D01*
X43638858Y-40112753D01*
X43653000Y-40126895D01*
X43667143Y-40112753D01*
X43846748Y-40292358D01*
G37*
X43846748Y-40292358D02*
X43832605Y-40306500D01*
X43846748Y-40320643D01*
X43667143Y-40500248D01*
X43653000Y-40486105D01*
X43638858Y-40500248D01*
X43459253Y-40320643D01*
X43473395Y-40306500D01*
X43459253Y-40292358D01*
X43638858Y-40112753D01*
X43653000Y-40126895D01*
X43667143Y-40112753D01*
X43846748Y-40292358D01*
G36*
X37232000Y-38244000D02*
G01*
X37252000Y-38244000D01*
X37252000Y-38390899D01*
X37247602Y-38391774D01*
X37059244Y-38469795D01*
X36998505Y-38510380D01*
X36998508Y-38224000D01*
X37232000Y-38224000D01*
X37232000Y-38244000D01*
G37*
X37232000Y-38244000D02*
X37252000Y-38244000D01*
X37252000Y-38390899D01*
X37247602Y-38391774D01*
X37059244Y-38469795D01*
X36998505Y-38510380D01*
X36998508Y-38224000D01*
X37232000Y-38224000D01*
X37232000Y-38244000D01*
G36*
X43229600Y-36857246D02*
G01*
X43179185Y-36795815D01*
X43082494Y-36716463D01*
X43008665Y-36677000D01*
X43082494Y-36637537D01*
X43179185Y-36558185D01*
X43229601Y-36496753D01*
X43229600Y-36857246D01*
G37*
X43229600Y-36857246D02*
X43179185Y-36795815D01*
X43082494Y-36716463D01*
X43008665Y-36677000D01*
X43082494Y-36637537D01*
X43179185Y-36558185D01*
X43229601Y-36496753D01*
X43229600Y-36857246D01*
G36*
X23857000Y-29883439D02*
G01*
X23896774Y-30083398D01*
X23974795Y-30271756D01*
X23979650Y-30279023D01*
X23954315Y-30299815D01*
X23874963Y-30396506D01*
X23815998Y-30506820D01*
X23779688Y-30626518D01*
X23767428Y-30751000D01*
X23767428Y-33251000D01*
X23779688Y-33375482D01*
X23815998Y-33495180D01*
X23874963Y-33605494D01*
X23954315Y-33702185D01*
X24051006Y-33781537D01*
X24161320Y-33840502D01*
X24281018Y-33876812D01*
X24405500Y-33889072D01*
X25405500Y-33889072D01*
X25432169Y-33886445D01*
X25392563Y-33934706D01*
X25333598Y-34045020D01*
X25297288Y-34164718D01*
X25285028Y-34289200D01*
X25288100Y-34478450D01*
X25446850Y-34637200D01*
X26233600Y-34637200D01*
X26233600Y-34617200D01*
X26487600Y-34617200D01*
X26487600Y-34637200D01*
X26507600Y-34637200D01*
X26507600Y-34891200D01*
X26487600Y-34891200D01*
X26487600Y-34911200D01*
X26233600Y-34911200D01*
X26233600Y-34891200D01*
X25446850Y-34891200D01*
X25288100Y-35049950D01*
X25286704Y-35135928D01*
X23357400Y-35135928D01*
X23232918Y-35148188D01*
X23162000Y-35169701D01*
X23162000Y-33037000D01*
X23262000Y-33037000D01*
X23286776Y-33034560D01*
X23310601Y-33027333D01*
X23332557Y-33015597D01*
X23351803Y-32999803D01*
X23367597Y-32980557D01*
X23379333Y-32958601D01*
X23386560Y-32934776D01*
X23389000Y-32910000D01*
X23389000Y-30241510D01*
X23857000Y-29773510D01*
X23857000Y-29883439D01*
G37*
X23857000Y-29883439D02*
X23896774Y-30083398D01*
X23974795Y-30271756D01*
X23979650Y-30279023D01*
X23954315Y-30299815D01*
X23874963Y-30396506D01*
X23815998Y-30506820D01*
X23779688Y-30626518D01*
X23767428Y-30751000D01*
X23767428Y-33251000D01*
X23779688Y-33375482D01*
X23815998Y-33495180D01*
X23874963Y-33605494D01*
X23954315Y-33702185D01*
X24051006Y-33781537D01*
X24161320Y-33840502D01*
X24281018Y-33876812D01*
X24405500Y-33889072D01*
X25405500Y-33889072D01*
X25432169Y-33886445D01*
X25392563Y-33934706D01*
X25333598Y-34045020D01*
X25297288Y-34164718D01*
X25285028Y-34289200D01*
X25288100Y-34478450D01*
X25446850Y-34637200D01*
X26233600Y-34637200D01*
X26233600Y-34617200D01*
X26487600Y-34617200D01*
X26487600Y-34637200D01*
X26507600Y-34637200D01*
X26507600Y-34891200D01*
X26487600Y-34891200D01*
X26487600Y-34911200D01*
X26233600Y-34911200D01*
X26233600Y-34891200D01*
X25446850Y-34891200D01*
X25288100Y-35049950D01*
X25286704Y-35135928D01*
X23357400Y-35135928D01*
X23232918Y-35148188D01*
X23162000Y-35169701D01*
X23162000Y-33037000D01*
X23262000Y-33037000D01*
X23286776Y-33034560D01*
X23310601Y-33027333D01*
X23332557Y-33015597D01*
X23351803Y-32999803D01*
X23367597Y-32980557D01*
X23379333Y-32958601D01*
X23386560Y-32934776D01*
X23389000Y-32910000D01*
X23389000Y-30241510D01*
X23857000Y-29773510D01*
X23857000Y-29883439D01*
G36*
X43919798Y-31804580D02*
G01*
X43978763Y-31914894D01*
X44001830Y-31943001D01*
X44011382Y-32039988D01*
X44059128Y-32197386D01*
X44103331Y-32280083D01*
X44060192Y-32422292D01*
X44043728Y-32589450D01*
X44043728Y-33026950D01*
X44060192Y-33194108D01*
X44108950Y-33354842D01*
X44188129Y-33502975D01*
X44264226Y-33595700D01*
X44188129Y-33688425D01*
X44108950Y-33836558D01*
X44060192Y-33997292D01*
X44043728Y-34164450D01*
X44043728Y-34222860D01*
X43769300Y-33948433D01*
X43769300Y-31939918D01*
X43789837Y-31914894D01*
X43848802Y-31804580D01*
X43884300Y-31687559D01*
X43919798Y-31804580D01*
G37*
X43919798Y-31804580D02*
X43978763Y-31914894D01*
X44001830Y-31943001D01*
X44011382Y-32039988D01*
X44059128Y-32197386D01*
X44103331Y-32280083D01*
X44060192Y-32422292D01*
X44043728Y-32589450D01*
X44043728Y-33026950D01*
X44060192Y-33194108D01*
X44108950Y-33354842D01*
X44188129Y-33502975D01*
X44264226Y-33595700D01*
X44188129Y-33688425D01*
X44108950Y-33836558D01*
X44060192Y-33997292D01*
X44043728Y-34164450D01*
X44043728Y-34222860D01*
X43769300Y-33948433D01*
X43769300Y-31939918D01*
X43789837Y-31914894D01*
X43848802Y-31804580D01*
X43884300Y-31687559D01*
X43919798Y-31804580D01*
G36*
X40949773Y-31959562D02*
G01*
X40865795Y-32085244D01*
X40787774Y-32273602D01*
X40748000Y-32473561D01*
X40748000Y-32677439D01*
X40787774Y-32877398D01*
X40865795Y-33065756D01*
X40884253Y-33093380D01*
X40854832Y-33122801D01*
X40043572Y-33122801D01*
X40043572Y-30751000D01*
X40031312Y-30626518D01*
X40004786Y-30539072D01*
X40953867Y-30539072D01*
X40949773Y-31959562D01*
G37*
X40949773Y-31959562D02*
X40865795Y-32085244D01*
X40787774Y-32273602D01*
X40748000Y-32473561D01*
X40748000Y-32677439D01*
X40787774Y-32877398D01*
X40865795Y-33065756D01*
X40884253Y-33093380D01*
X40854832Y-33122801D01*
X40043572Y-33122801D01*
X40043572Y-30751000D01*
X40031312Y-30626518D01*
X40004786Y-30539072D01*
X40953867Y-30539072D01*
X40949773Y-31959562D01*
G36*
X43919798Y-29604580D02*
G01*
X43978763Y-29714894D01*
X44058115Y-29811585D01*
X44149153Y-29886297D01*
X44011300Y-30024150D01*
X44011300Y-30106259D01*
X43978763Y-30145906D01*
X43919798Y-30256220D01*
X43884300Y-30373241D01*
X43848802Y-30256220D01*
X43789837Y-30145906D01*
X43757300Y-30106259D01*
X43757300Y-30024150D01*
X43619447Y-29886297D01*
X43710485Y-29811585D01*
X43789837Y-29714894D01*
X43848802Y-29604580D01*
X43884300Y-29487559D01*
X43919798Y-29604580D01*
G37*
X43919798Y-29604580D02*
X43978763Y-29714894D01*
X44058115Y-29811585D01*
X44149153Y-29886297D01*
X44011300Y-30024150D01*
X44011300Y-30106259D01*
X43978763Y-30145906D01*
X43919798Y-30256220D01*
X43884300Y-30373241D01*
X43848802Y-30256220D01*
X43789837Y-30145906D01*
X43757300Y-30106259D01*
X43757300Y-30024150D01*
X43619447Y-29886297D01*
X43710485Y-29811585D01*
X43789837Y-29714894D01*
X43848802Y-29604580D01*
X43884300Y-29487559D01*
X43919798Y-29604580D01*
G36*
X23767428Y-18051000D02*
G01*
X23779688Y-18175482D01*
X23815998Y-18295180D01*
X23874963Y-18405494D01*
X23910127Y-18448341D01*
X23870500Y-18647561D01*
X23870500Y-18851439D01*
X23910274Y-19051398D01*
X23988295Y-19239756D01*
X24101563Y-19409274D01*
X24245726Y-19553437D01*
X24415244Y-19666705D01*
X24603602Y-19744726D01*
X24803561Y-19784500D01*
X25007439Y-19784500D01*
X25207398Y-19744726D01*
X25395756Y-19666705D01*
X25565274Y-19553437D01*
X25709437Y-19409274D01*
X25822705Y-19239756D01*
X25900726Y-19051398D01*
X25905500Y-19027397D01*
X25910274Y-19051398D01*
X25988295Y-19239756D01*
X26101563Y-19409274D01*
X26245726Y-19553437D01*
X26415244Y-19666705D01*
X26603602Y-19744726D01*
X26803561Y-19784500D01*
X27007439Y-19784500D01*
X27207398Y-19744726D01*
X27395756Y-19666705D01*
X27565274Y-19553437D01*
X27709437Y-19409274D01*
X27822705Y-19239756D01*
X27900726Y-19051398D01*
X27940500Y-18851439D01*
X27940500Y-18647561D01*
X27900873Y-18448341D01*
X27905500Y-18442704D01*
X27954315Y-18502185D01*
X28051006Y-18581537D01*
X28161320Y-18640502D01*
X28281018Y-18676812D01*
X28405500Y-18689072D01*
X29405500Y-18689072D01*
X29529982Y-18676812D01*
X29649680Y-18640502D01*
X29759994Y-18581537D01*
X29856685Y-18502185D01*
X29905500Y-18442704D01*
X29954315Y-18502185D01*
X30051006Y-18581537D01*
X30161320Y-18640502D01*
X30281018Y-18676812D01*
X30405500Y-18689072D01*
X31405500Y-18689072D01*
X31529982Y-18676812D01*
X31649680Y-18640502D01*
X31759994Y-18581537D01*
X31856685Y-18502185D01*
X31905500Y-18442704D01*
X31954315Y-18502185D01*
X32051006Y-18581537D01*
X32161320Y-18640502D01*
X32281018Y-18676812D01*
X32405500Y-18689072D01*
X33405500Y-18689072D01*
X33529982Y-18676812D01*
X33649680Y-18640502D01*
X33759994Y-18581537D01*
X33856685Y-18502185D01*
X33905500Y-18442704D01*
X33954315Y-18502185D01*
X34051006Y-18581537D01*
X34161320Y-18640502D01*
X34281018Y-18676812D01*
X34405500Y-18689072D01*
X35405500Y-18689072D01*
X35529982Y-18676812D01*
X35649680Y-18640502D01*
X35759994Y-18581537D01*
X35856685Y-18502185D01*
X35905500Y-18442704D01*
X35954315Y-18502185D01*
X36051006Y-18581537D01*
X36161320Y-18640502D01*
X36281018Y-18676812D01*
X36405500Y-18689072D01*
X36619750Y-18686000D01*
X36778500Y-18527250D01*
X36778500Y-16928000D01*
X37032500Y-16928000D01*
X37032500Y-18527250D01*
X37191250Y-18686000D01*
X37405500Y-18689072D01*
X37529982Y-18676812D01*
X37649680Y-18640502D01*
X37759994Y-18581537D01*
X37856685Y-18502185D01*
X37905500Y-18442704D01*
X37954315Y-18502185D01*
X38051006Y-18581537D01*
X38161320Y-18640502D01*
X38281018Y-18676812D01*
X38405500Y-18689072D01*
X38619750Y-18686000D01*
X38778500Y-18527250D01*
X38778500Y-16928000D01*
X37929250Y-16928000D01*
X37905500Y-16951750D01*
X37881750Y-16928000D01*
X37032500Y-16928000D01*
X36778500Y-16928000D01*
X36758500Y-16928000D01*
X36758500Y-16674000D01*
X36778500Y-16674000D01*
X36778500Y-16654000D01*
X37032500Y-16654000D01*
X37032500Y-16674000D01*
X37881750Y-16674000D01*
X37905500Y-16650250D01*
X37929250Y-16674000D01*
X38778500Y-16674000D01*
X38778500Y-16654000D01*
X39032500Y-16654000D01*
X39032500Y-16674000D01*
X39881750Y-16674000D01*
X40040500Y-16515250D01*
X40043065Y-15710000D01*
X43965279Y-15710000D01*
X44249899Y-15737907D01*
X44490285Y-15810484D01*
X44711991Y-15928368D01*
X44906577Y-16087068D01*
X45066635Y-16280545D01*
X45186064Y-16501424D01*
X45260317Y-16741297D01*
X45290000Y-17023716D01*
X45290000Y-18795600D01*
X45118700Y-18795600D01*
X45118700Y-19803600D01*
X45138700Y-19803600D01*
X45138700Y-20057600D01*
X45118700Y-20057600D01*
X45118700Y-20077600D01*
X44864700Y-20077600D01*
X44864700Y-20057600D01*
X43761746Y-20057600D01*
X43743565Y-20082800D01*
X42959700Y-20082800D01*
X42959700Y-20102800D01*
X42705700Y-20102800D01*
X42705700Y-20082800D01*
X42685700Y-20082800D01*
X42685700Y-19828800D01*
X42705700Y-19828800D01*
X42705700Y-19042050D01*
X42959700Y-19042050D01*
X42959700Y-19828800D01*
X43783950Y-19828800D01*
X43809150Y-19803600D01*
X44864700Y-19803600D01*
X44864700Y-18795600D01*
X44602700Y-18795600D01*
X44383713Y-18842185D01*
X44178022Y-18930597D01*
X43993531Y-19057439D01*
X43856562Y-19198089D01*
X43838237Y-19163806D01*
X43758885Y-19067115D01*
X43662194Y-18987763D01*
X43551880Y-18928798D01*
X43432182Y-18892488D01*
X43307700Y-18880228D01*
X43118450Y-18883300D01*
X42959700Y-19042050D01*
X42705700Y-19042050D01*
X42546950Y-18883300D01*
X42357700Y-18880228D01*
X42233218Y-18892488D01*
X42113520Y-18928798D01*
X42003206Y-18987763D01*
X41943572Y-19036703D01*
X41943572Y-18901000D01*
X41931312Y-18776518D01*
X41895002Y-18656820D01*
X41836037Y-18546506D01*
X41756685Y-18449815D01*
X41659994Y-18370463D01*
X41549680Y-18311498D01*
X41429982Y-18275188D01*
X41305500Y-18262928D01*
X40004786Y-18262928D01*
X40031312Y-18175482D01*
X40043572Y-18051000D01*
X40040500Y-17086750D01*
X39881750Y-16928000D01*
X39032500Y-16928000D01*
X39032500Y-18476397D01*
X38974963Y-18546506D01*
X38915998Y-18656820D01*
X38879688Y-18776518D01*
X38867428Y-18901000D01*
X38867428Y-19901000D01*
X38879688Y-20025482D01*
X38915998Y-20145180D01*
X38974963Y-20255494D01*
X39054315Y-20352185D01*
X39113796Y-20401000D01*
X39054315Y-20449815D01*
X38974963Y-20546506D01*
X38915998Y-20656820D01*
X38879688Y-20776518D01*
X38867428Y-20901000D01*
X38867428Y-21901000D01*
X38879688Y-22025482D01*
X38915998Y-22145180D01*
X38974963Y-22255494D01*
X39054315Y-22352185D01*
X39113796Y-22401000D01*
X39054315Y-22449815D01*
X38974963Y-22546506D01*
X38915998Y-22656820D01*
X38879688Y-22776518D01*
X38867428Y-22901000D01*
X38867428Y-23901000D01*
X38879688Y-24025482D01*
X38915998Y-24145180D01*
X38974963Y-24255494D01*
X39054315Y-24352185D01*
X39113796Y-24401000D01*
X39054315Y-24449815D01*
X38974963Y-24546506D01*
X38915998Y-24656820D01*
X38879688Y-24776518D01*
X38867428Y-24901000D01*
X38867428Y-25901000D01*
X38879688Y-26025482D01*
X38915998Y-26145180D01*
X38974963Y-26255494D01*
X39054315Y-26352185D01*
X39113796Y-26401000D01*
X39054315Y-26449815D01*
X38974963Y-26546506D01*
X38915998Y-26656820D01*
X38879688Y-26776518D01*
X38867428Y-26901000D01*
X38867428Y-27901000D01*
X38879688Y-28025482D01*
X38915998Y-28145180D01*
X38974963Y-28255494D01*
X39054315Y-28352185D01*
X39113796Y-28401000D01*
X39054315Y-28449815D01*
X38974963Y-28546506D01*
X38915998Y-28656820D01*
X38879688Y-28776518D01*
X38867428Y-28901000D01*
X38867428Y-29901000D01*
X38879688Y-30025482D01*
X38906214Y-30112928D01*
X38405500Y-30112928D01*
X38281018Y-30125188D01*
X38161320Y-30161498D01*
X38051006Y-30220463D01*
X37954315Y-30299815D01*
X37905500Y-30359296D01*
X37856685Y-30299815D01*
X37759994Y-30220463D01*
X37649680Y-30161498D01*
X37529982Y-30125188D01*
X37405500Y-30112928D01*
X36405500Y-30112928D01*
X36281018Y-30125188D01*
X36161320Y-30161498D01*
X36051006Y-30220463D01*
X35954315Y-30299815D01*
X35905500Y-30359296D01*
X35856685Y-30299815D01*
X35759994Y-30220463D01*
X35649680Y-30161498D01*
X35529982Y-30125188D01*
X35405500Y-30112928D01*
X34405500Y-30112928D01*
X34281018Y-30125188D01*
X34161320Y-30161498D01*
X34051006Y-30220463D01*
X33954315Y-30299815D01*
X33905500Y-30359296D01*
X33856685Y-30299815D01*
X33759994Y-30220463D01*
X33649680Y-30161498D01*
X33529982Y-30125188D01*
X33405500Y-30112928D01*
X32405500Y-30112928D01*
X32281018Y-30125188D01*
X32161320Y-30161498D01*
X32051006Y-30220463D01*
X31954315Y-30299815D01*
X31905500Y-30359296D01*
X31856685Y-30299815D01*
X31759994Y-30220463D01*
X31649680Y-30161498D01*
X31529982Y-30125188D01*
X31405500Y-30112928D01*
X30405500Y-30112928D01*
X30281018Y-30125188D01*
X30161320Y-30161498D01*
X30051006Y-30220463D01*
X29954315Y-30299815D01*
X29905500Y-30359296D01*
X29856685Y-30299815D01*
X29812950Y-30263923D01*
X29887726Y-30083398D01*
X29927500Y-29883439D01*
X29927500Y-29679561D01*
X29887726Y-29479602D01*
X29809705Y-29291244D01*
X29696437Y-29121726D01*
X29552274Y-28977563D01*
X29382756Y-28864295D01*
X29194398Y-28786274D01*
X28994439Y-28746500D01*
X28790561Y-28746500D01*
X28590602Y-28786274D01*
X28402244Y-28864295D01*
X28232726Y-28977563D01*
X28088563Y-29121726D01*
X27975295Y-29291244D01*
X27897274Y-29479602D01*
X27857500Y-29679561D01*
X27857500Y-29883439D01*
X27897274Y-30083398D01*
X27975295Y-30271756D01*
X27979973Y-30278758D01*
X27954315Y-30299815D01*
X27905500Y-30359296D01*
X27856685Y-30299815D01*
X27759994Y-30220463D01*
X27649680Y-30161498D01*
X27529982Y-30125188D01*
X27405500Y-30112928D01*
X26405500Y-30112928D01*
X26281018Y-30125188D01*
X26161320Y-30161498D01*
X26051006Y-30220463D01*
X25954315Y-30299815D01*
X25905500Y-30359296D01*
X25856685Y-30299815D01*
X25812577Y-30263616D01*
X25887226Y-30083398D01*
X25927000Y-29883439D01*
X25927000Y-29679561D01*
X25887226Y-29479602D01*
X25809205Y-29291244D01*
X25695937Y-29121726D01*
X25551774Y-28977563D01*
X25382256Y-28864295D01*
X25193898Y-28786274D01*
X24993939Y-28746500D01*
X24884010Y-28746500D01*
X26849011Y-26781500D01*
X27098800Y-26781500D01*
X27259244Y-26888705D01*
X27447602Y-26966726D01*
X27647561Y-27006500D01*
X27851439Y-27006500D01*
X28051398Y-26966726D01*
X28239756Y-26888705D01*
X28409274Y-26775437D01*
X28553437Y-26631274D01*
X28666705Y-26461756D01*
X28744726Y-26273398D01*
X28784500Y-26073439D01*
X28784500Y-25869561D01*
X28744726Y-25669602D01*
X28666705Y-25481244D01*
X28654849Y-25463500D01*
X28666705Y-25445756D01*
X28744726Y-25257398D01*
X28784500Y-25057439D01*
X28784500Y-24853561D01*
X28744726Y-24653602D01*
X28666705Y-24465244D01*
X28553437Y-24295726D01*
X28409274Y-24151563D01*
X28239756Y-24038295D01*
X28051398Y-23960274D01*
X27851439Y-23920500D01*
X27647561Y-23920500D01*
X27447602Y-23960274D01*
X27259244Y-24038295D01*
X27098800Y-24145500D01*
X26328788Y-24145500D01*
X26289000Y-24141581D01*
X26249212Y-24145500D01*
X26249209Y-24145500D01*
X26130212Y-24157220D01*
X25977527Y-24203537D01*
X25934379Y-24226600D01*
X25836810Y-24278751D01*
X25796908Y-24311498D01*
X25713472Y-24379972D01*
X25688105Y-24410882D01*
X23389000Y-26709988D01*
X23389000Y-15710000D01*
X23767428Y-15710000D01*
X23767428Y-18051000D01*
G37*
X23767428Y-18051000D02*
X23779688Y-18175482D01*
X23815998Y-18295180D01*
X23874963Y-18405494D01*
X23910127Y-18448341D01*
X23870500Y-18647561D01*
X23870500Y-18851439D01*
X23910274Y-19051398D01*
X23988295Y-19239756D01*
X24101563Y-19409274D01*
X24245726Y-19553437D01*
X24415244Y-19666705D01*
X24603602Y-19744726D01*
X24803561Y-19784500D01*
X25007439Y-19784500D01*
X25207398Y-19744726D01*
X25395756Y-19666705D01*
X25565274Y-19553437D01*
X25709437Y-19409274D01*
X25822705Y-19239756D01*
X25900726Y-19051398D01*
X25905500Y-19027397D01*
X25910274Y-19051398D01*
X25988295Y-19239756D01*
X26101563Y-19409274D01*
X26245726Y-19553437D01*
X26415244Y-19666705D01*
X26603602Y-19744726D01*
X26803561Y-19784500D01*
X27007439Y-19784500D01*
X27207398Y-19744726D01*
X27395756Y-19666705D01*
X27565274Y-19553437D01*
X27709437Y-19409274D01*
X27822705Y-19239756D01*
X27900726Y-19051398D01*
X27940500Y-18851439D01*
X27940500Y-18647561D01*
X27900873Y-18448341D01*
X27905500Y-18442704D01*
X27954315Y-18502185D01*
X28051006Y-18581537D01*
X28161320Y-18640502D01*
X28281018Y-18676812D01*
X28405500Y-18689072D01*
X29405500Y-18689072D01*
X29529982Y-18676812D01*
X29649680Y-18640502D01*
X29759994Y-18581537D01*
X29856685Y-18502185D01*
X29905500Y-18442704D01*
X29954315Y-18502185D01*
X30051006Y-18581537D01*
X30161320Y-18640502D01*
X30281018Y-18676812D01*
X30405500Y-18689072D01*
X31405500Y-18689072D01*
X31529982Y-18676812D01*
X31649680Y-18640502D01*
X31759994Y-18581537D01*
X31856685Y-18502185D01*
X31905500Y-18442704D01*
X31954315Y-18502185D01*
X32051006Y-18581537D01*
X32161320Y-18640502D01*
X32281018Y-18676812D01*
X32405500Y-18689072D01*
X33405500Y-18689072D01*
X33529982Y-18676812D01*
X33649680Y-18640502D01*
X33759994Y-18581537D01*
X33856685Y-18502185D01*
X33905500Y-18442704D01*
X33954315Y-18502185D01*
X34051006Y-18581537D01*
X34161320Y-18640502D01*
X34281018Y-18676812D01*
X34405500Y-18689072D01*
X35405500Y-18689072D01*
X35529982Y-18676812D01*
X35649680Y-18640502D01*
X35759994Y-18581537D01*
X35856685Y-18502185D01*
X35905500Y-18442704D01*
X35954315Y-18502185D01*
X36051006Y-18581537D01*
X36161320Y-18640502D01*
X36281018Y-18676812D01*
X36405500Y-18689072D01*
X36619750Y-18686000D01*
X36778500Y-18527250D01*
X36778500Y-16928000D01*
X37032500Y-16928000D01*
X37032500Y-18527250D01*
X37191250Y-18686000D01*
X37405500Y-18689072D01*
X37529982Y-18676812D01*
X37649680Y-18640502D01*
X37759994Y-18581537D01*
X37856685Y-18502185D01*
X37905500Y-18442704D01*
X37954315Y-18502185D01*
X38051006Y-18581537D01*
X38161320Y-18640502D01*
X38281018Y-18676812D01*
X38405500Y-18689072D01*
X38619750Y-18686000D01*
X38778500Y-18527250D01*
X38778500Y-16928000D01*
X37929250Y-16928000D01*
X37905500Y-16951750D01*
X37881750Y-16928000D01*
X37032500Y-16928000D01*
X36778500Y-16928000D01*
X36758500Y-16928000D01*
X36758500Y-16674000D01*
X36778500Y-16674000D01*
X36778500Y-16654000D01*
X37032500Y-16654000D01*
X37032500Y-16674000D01*
X37881750Y-16674000D01*
X37905500Y-16650250D01*
X37929250Y-16674000D01*
X38778500Y-16674000D01*
X38778500Y-16654000D01*
X39032500Y-16654000D01*
X39032500Y-16674000D01*
X39881750Y-16674000D01*
X40040500Y-16515250D01*
X40043065Y-15710000D01*
X43965279Y-15710000D01*
X44249899Y-15737907D01*
X44490285Y-15810484D01*
X44711991Y-15928368D01*
X44906577Y-16087068D01*
X45066635Y-16280545D01*
X45186064Y-16501424D01*
X45260317Y-16741297D01*
X45290000Y-17023716D01*
X45290000Y-18795600D01*
X45118700Y-18795600D01*
X45118700Y-19803600D01*
X45138700Y-19803600D01*
X45138700Y-20057600D01*
X45118700Y-20057600D01*
X45118700Y-20077600D01*
X44864700Y-20077600D01*
X44864700Y-20057600D01*
X43761746Y-20057600D01*
X43743565Y-20082800D01*
X42959700Y-20082800D01*
X42959700Y-20102800D01*
X42705700Y-20102800D01*
X42705700Y-20082800D01*
X42685700Y-20082800D01*
X42685700Y-19828800D01*
X42705700Y-19828800D01*
X42705700Y-19042050D01*
X42959700Y-19042050D01*
X42959700Y-19828800D01*
X43783950Y-19828800D01*
X43809150Y-19803600D01*
X44864700Y-19803600D01*
X44864700Y-18795600D01*
X44602700Y-18795600D01*
X44383713Y-18842185D01*
X44178022Y-18930597D01*
X43993531Y-19057439D01*
X43856562Y-19198089D01*
X43838237Y-19163806D01*
X43758885Y-19067115D01*
X43662194Y-18987763D01*
X43551880Y-18928798D01*
X43432182Y-18892488D01*
X43307700Y-18880228D01*
X43118450Y-18883300D01*
X42959700Y-19042050D01*
X42705700Y-19042050D01*
X42546950Y-18883300D01*
X42357700Y-18880228D01*
X42233218Y-18892488D01*
X42113520Y-18928798D01*
X42003206Y-18987763D01*
X41943572Y-19036703D01*
X41943572Y-18901000D01*
X41931312Y-18776518D01*
X41895002Y-18656820D01*
X41836037Y-18546506D01*
X41756685Y-18449815D01*
X41659994Y-18370463D01*
X41549680Y-18311498D01*
X41429982Y-18275188D01*
X41305500Y-18262928D01*
X40004786Y-18262928D01*
X40031312Y-18175482D01*
X40043572Y-18051000D01*
X40040500Y-17086750D01*
X39881750Y-16928000D01*
X39032500Y-16928000D01*
X39032500Y-18476397D01*
X38974963Y-18546506D01*
X38915998Y-18656820D01*
X38879688Y-18776518D01*
X38867428Y-18901000D01*
X38867428Y-19901000D01*
X38879688Y-20025482D01*
X38915998Y-20145180D01*
X38974963Y-20255494D01*
X39054315Y-20352185D01*
X39113796Y-20401000D01*
X39054315Y-20449815D01*
X38974963Y-20546506D01*
X38915998Y-20656820D01*
X38879688Y-20776518D01*
X38867428Y-20901000D01*
X38867428Y-21901000D01*
X38879688Y-22025482D01*
X38915998Y-22145180D01*
X38974963Y-22255494D01*
X39054315Y-22352185D01*
X39113796Y-22401000D01*
X39054315Y-22449815D01*
X38974963Y-22546506D01*
X38915998Y-22656820D01*
X38879688Y-22776518D01*
X38867428Y-22901000D01*
X38867428Y-23901000D01*
X38879688Y-24025482D01*
X38915998Y-24145180D01*
X38974963Y-24255494D01*
X39054315Y-24352185D01*
X39113796Y-24401000D01*
X39054315Y-24449815D01*
X38974963Y-24546506D01*
X38915998Y-24656820D01*
X38879688Y-24776518D01*
X38867428Y-24901000D01*
X38867428Y-25901000D01*
X38879688Y-26025482D01*
X38915998Y-26145180D01*
X38974963Y-26255494D01*
X39054315Y-26352185D01*
X39113796Y-26401000D01*
X39054315Y-26449815D01*
X38974963Y-26546506D01*
X38915998Y-26656820D01*
X38879688Y-26776518D01*
X38867428Y-26901000D01*
X38867428Y-27901000D01*
X38879688Y-28025482D01*
X38915998Y-28145180D01*
X38974963Y-28255494D01*
X39054315Y-28352185D01*
X39113796Y-28401000D01*
X39054315Y-28449815D01*
X38974963Y-28546506D01*
X38915998Y-28656820D01*
X38879688Y-28776518D01*
X38867428Y-28901000D01*
X38867428Y-29901000D01*
X38879688Y-30025482D01*
X38906214Y-30112928D01*
X38405500Y-30112928D01*
X38281018Y-30125188D01*
X38161320Y-30161498D01*
X38051006Y-30220463D01*
X37954315Y-30299815D01*
X37905500Y-30359296D01*
X37856685Y-30299815D01*
X37759994Y-30220463D01*
X37649680Y-30161498D01*
X37529982Y-30125188D01*
X37405500Y-30112928D01*
X36405500Y-30112928D01*
X36281018Y-30125188D01*
X36161320Y-30161498D01*
X36051006Y-30220463D01*
X35954315Y-30299815D01*
X35905500Y-30359296D01*
X35856685Y-30299815D01*
X35759994Y-30220463D01*
X35649680Y-30161498D01*
X35529982Y-30125188D01*
X35405500Y-30112928D01*
X34405500Y-30112928D01*
X34281018Y-30125188D01*
X34161320Y-30161498D01*
X34051006Y-30220463D01*
X33954315Y-30299815D01*
X33905500Y-30359296D01*
X33856685Y-30299815D01*
X33759994Y-30220463D01*
X33649680Y-30161498D01*
X33529982Y-30125188D01*
X33405500Y-30112928D01*
X32405500Y-30112928D01*
X32281018Y-30125188D01*
X32161320Y-30161498D01*
X32051006Y-30220463D01*
X31954315Y-30299815D01*
X31905500Y-30359296D01*
X31856685Y-30299815D01*
X31759994Y-30220463D01*
X31649680Y-30161498D01*
X31529982Y-30125188D01*
X31405500Y-30112928D01*
X30405500Y-30112928D01*
X30281018Y-30125188D01*
X30161320Y-30161498D01*
X30051006Y-30220463D01*
X29954315Y-30299815D01*
X29905500Y-30359296D01*
X29856685Y-30299815D01*
X29812950Y-30263923D01*
X29887726Y-30083398D01*
X29927500Y-29883439D01*
X29927500Y-29679561D01*
X29887726Y-29479602D01*
X29809705Y-29291244D01*
X29696437Y-29121726D01*
X29552274Y-28977563D01*
X29382756Y-28864295D01*
X29194398Y-28786274D01*
X28994439Y-28746500D01*
X28790561Y-28746500D01*
X28590602Y-28786274D01*
X28402244Y-28864295D01*
X28232726Y-28977563D01*
X28088563Y-29121726D01*
X27975295Y-29291244D01*
X27897274Y-29479602D01*
X27857500Y-29679561D01*
X27857500Y-29883439D01*
X27897274Y-30083398D01*
X27975295Y-30271756D01*
X27979973Y-30278758D01*
X27954315Y-30299815D01*
X27905500Y-30359296D01*
X27856685Y-30299815D01*
X27759994Y-30220463D01*
X27649680Y-30161498D01*
X27529982Y-30125188D01*
X27405500Y-30112928D01*
X26405500Y-30112928D01*
X26281018Y-30125188D01*
X26161320Y-30161498D01*
X26051006Y-30220463D01*
X25954315Y-30299815D01*
X25905500Y-30359296D01*
X25856685Y-30299815D01*
X25812577Y-30263616D01*
X25887226Y-30083398D01*
X25927000Y-29883439D01*
X25927000Y-29679561D01*
X25887226Y-29479602D01*
X25809205Y-29291244D01*
X25695937Y-29121726D01*
X25551774Y-28977563D01*
X25382256Y-28864295D01*
X25193898Y-28786274D01*
X24993939Y-28746500D01*
X24884010Y-28746500D01*
X26849011Y-26781500D01*
X27098800Y-26781500D01*
X27259244Y-26888705D01*
X27447602Y-26966726D01*
X27647561Y-27006500D01*
X27851439Y-27006500D01*
X28051398Y-26966726D01*
X28239756Y-26888705D01*
X28409274Y-26775437D01*
X28553437Y-26631274D01*
X28666705Y-26461756D01*
X28744726Y-26273398D01*
X28784500Y-26073439D01*
X28784500Y-25869561D01*
X28744726Y-25669602D01*
X28666705Y-25481244D01*
X28654849Y-25463500D01*
X28666705Y-25445756D01*
X28744726Y-25257398D01*
X28784500Y-25057439D01*
X28784500Y-24853561D01*
X28744726Y-24653602D01*
X28666705Y-24465244D01*
X28553437Y-24295726D01*
X28409274Y-24151563D01*
X28239756Y-24038295D01*
X28051398Y-23960274D01*
X27851439Y-23920500D01*
X27647561Y-23920500D01*
X27447602Y-23960274D01*
X27259244Y-24038295D01*
X27098800Y-24145500D01*
X26328788Y-24145500D01*
X26289000Y-24141581D01*
X26249212Y-24145500D01*
X26249209Y-24145500D01*
X26130212Y-24157220D01*
X25977527Y-24203537D01*
X25934379Y-24226600D01*
X25836810Y-24278751D01*
X25796908Y-24311498D01*
X25713472Y-24379972D01*
X25688105Y-24410882D01*
X23389000Y-26709988D01*
X23389000Y-15710000D01*
X23767428Y-15710000D01*
X23767428Y-18051000D01*
G36*
X43919798Y-27730780D02*
G01*
X43978763Y-27841094D01*
X44011300Y-27880741D01*
X44011300Y-27906259D01*
X43978763Y-27945906D01*
X43919798Y-28056220D01*
X43884300Y-28173241D01*
X43848802Y-28056220D01*
X43789837Y-27945906D01*
X43769300Y-27920882D01*
X43769300Y-27866118D01*
X43789837Y-27841094D01*
X43848802Y-27730780D01*
X43884300Y-27613759D01*
X43919798Y-27730780D01*
G37*
X43919798Y-27730780D02*
X43978763Y-27841094D01*
X44011300Y-27880741D01*
X44011300Y-27906259D01*
X43978763Y-27945906D01*
X43919798Y-28056220D01*
X43884300Y-28173241D01*
X43848802Y-28056220D01*
X43789837Y-27945906D01*
X43769300Y-27920882D01*
X43769300Y-27866118D01*
X43789837Y-27841094D01*
X43848802Y-27730780D01*
X43884300Y-27613759D01*
X43919798Y-27730780D01*
G36*
X41864029Y-22225575D02*
G01*
X41970585Y-22355415D01*
X42100425Y-22461971D01*
X42248558Y-22541150D01*
X42409292Y-22589908D01*
X42576450Y-22606372D01*
X43039101Y-22606372D01*
X43039100Y-23588528D01*
X42609300Y-23588528D01*
X42484818Y-23600788D01*
X42365120Y-23637098D01*
X42254806Y-23696063D01*
X42158115Y-23775415D01*
X42078763Y-23872106D01*
X42021105Y-23979974D01*
X42016313Y-23981428D01*
X41930812Y-24027129D01*
X41931312Y-24025482D01*
X41943572Y-23901000D01*
X41943572Y-22901000D01*
X41931312Y-22776518D01*
X41895002Y-22656820D01*
X41836037Y-22546506D01*
X41756685Y-22449815D01*
X41697204Y-22401000D01*
X41756685Y-22352185D01*
X41836037Y-22255494D01*
X41858029Y-22214350D01*
X41864029Y-22225575D01*
G37*
X41864029Y-22225575D02*
X41970585Y-22355415D01*
X42100425Y-22461971D01*
X42248558Y-22541150D01*
X42409292Y-22589908D01*
X42576450Y-22606372D01*
X43039101Y-22606372D01*
X43039100Y-23588528D01*
X42609300Y-23588528D01*
X42484818Y-23600788D01*
X42365120Y-23637098D01*
X42254806Y-23696063D01*
X42158115Y-23775415D01*
X42078763Y-23872106D01*
X42021105Y-23979974D01*
X42016313Y-23981428D01*
X41930812Y-24027129D01*
X41931312Y-24025482D01*
X41943572Y-23901000D01*
X41943572Y-22901000D01*
X41931312Y-22776518D01*
X41895002Y-22656820D01*
X41836037Y-22546506D01*
X41756685Y-22449815D01*
X41697204Y-22401000D01*
X41756685Y-22352185D01*
X41836037Y-22255494D01*
X41858029Y-22214350D01*
X41864029Y-22225575D01*
G36*
X45290000Y-23602674D02*
G01*
X45283782Y-23600788D01*
X45159300Y-23588528D01*
X44709100Y-23588528D01*
X44709100Y-22665600D01*
X45290000Y-22665600D01*
X45290000Y-23602674D01*
G37*
X45290000Y-23602674D02*
X45283782Y-23600788D01*
X45159300Y-23588528D01*
X44709100Y-23588528D01*
X44709100Y-22665600D01*
X45290000Y-22665600D01*
X45290000Y-23602674D01*
M02*
