M48
; DRILL file {KiCad (5.1.5)-3} date 05.07.2020 0:24:34
; FORMAT={-:-/ absolute / metric / decimal}
; #@! TF.CreationDate,2020-07-05T00:24:34+03:00
; #@! TF.GenerationSoftware,Kicad,Pcbnew,(5.1.5)-3
; #@! TF.FileFunction,Plated,1,2,PTH
FMAT,2
METRIC
T1C0.400
T2C0.600
T3C0.762
T4C0.850
%
G90
G05
T1
X17.166Y-34.434
X17.166Y-39.006
X17.166Y-43.324
X20.511Y-33.782
X21.844Y-40.703
X21.992Y-43.324
X23.749Y-17.018
X23.749Y-21.463
X23.812Y-34.734
X24.892Y-29.781
X24.905Y-18.749
X25.209Y-43.752
X26.056Y-20.464
X26.056Y-24.02
X26.056Y-27.576
X26.905Y-18.749
X27.749Y-24.955
X27.749Y-25.971
X28.215Y-19.575
X28.85Y-28.448
X28.892Y-29.781
X29.146Y-43.942
X30.416Y-29.909
X30.607Y-43.942
X30.681Y-42.646
X30.73Y-41.648
X31.623Y-43.243
X32.28Y-41.19
X32.28Y-42.206
X33.255Y-38.009
X33.276Y-37.009
X33.93Y-19.194
X33.93Y-24.528
X33.972Y-44.069
X37.549Y-39.387
X38.375Y-19.575
X38.375Y-29.1
X40.45Y-31.559
X41.301Y-16.801
X41.783Y-32.575
X42.439Y-39.006
X42.862Y-22.987
X43.899Y-18.749
X43.899Y-32.148
X44.344Y-16.908
X44.895Y-22.987
T3
X20.066Y-36.957
X20.066Y-38.457
X20.066Y-39.957
X20.066Y-41.457
T4
X38.653Y-40.306
X43.653Y-40.306
T2
G00X37.653Y-43.356
M15
G01X37.653Y-42.657
M16
G05
G00X44.653Y-42.657
M15
G01X44.653Y-43.356
M16
G05
T0
M30
