G04 #@! TF.GenerationSoftware,KiCad,Pcbnew,(5.1.5)-3*
G04 #@! TF.CreationDate,2020-07-05T00:24:43+03:00*
G04 #@! TF.ProjectId,body_temp,626f6479-5f74-4656-9d70-2e6b69636164,rev?*
G04 #@! TF.SameCoordinates,Original*
G04 #@! TF.FileFunction,Copper,L2,Bot*
G04 #@! TF.FilePolarity,Positive*
%FSLAX46Y46*%
G04 Gerber Fmt 4.6, Leading zero omitted, Abs format (unit mm)*
G04 Created by KiCad (PCBNEW (5.1.5)-3) date 2020-07-05 00:24:43*
%MOMM*%
%LPD*%
G04 APERTURE LIST*
%ADD10C,1.300000*%
%ADD11R,2.400000X1.500000*%
%ADD12C,0.100000*%
%ADD13O,1.200000X1.900000*%
%ADD14C,1.450000*%
%ADD15C,0.800000*%
%ADD16C,0.400000*%
%ADD17C,0.350000*%
%ADD18C,0.254000*%
G04 APERTURE END LIST*
D10*
X20066000Y-41457000D03*
X20066000Y-39957000D03*
X20066000Y-38457000D03*
X20066000Y-36957000D03*
D11*
X34352200Y-41362200D03*
G04 #@! TA.AperFunction,SMDPad,CuDef*
D12*
G36*
X33462002Y-42412682D02*
G01*
X33471709Y-42414121D01*
X33481228Y-42416506D01*
X33490468Y-42419812D01*
X33499340Y-42424008D01*
X33507757Y-42429053D01*
X33515639Y-42434899D01*
X33522911Y-42441489D01*
X33529501Y-42448761D01*
X33535347Y-42456643D01*
X33540392Y-42465060D01*
X33544588Y-42473932D01*
X33547894Y-42483172D01*
X33550279Y-42492691D01*
X33551718Y-42502398D01*
X33552200Y-42512200D01*
X33552200Y-43112200D01*
X33551718Y-43122002D01*
X33550279Y-43131709D01*
X33547894Y-43141228D01*
X33544588Y-43150468D01*
X33540392Y-43159340D01*
X33535347Y-43167757D01*
X33529501Y-43175639D01*
X33522911Y-43182911D01*
X33515639Y-43189501D01*
X33507757Y-43195347D01*
X33499340Y-43200392D01*
X33490468Y-43204588D01*
X33481228Y-43207894D01*
X33471709Y-43210279D01*
X33462002Y-43211718D01*
X33452200Y-43212200D01*
X33252200Y-43212200D01*
X33242398Y-43211718D01*
X33232691Y-43210279D01*
X33223172Y-43207894D01*
X33213932Y-43204588D01*
X33205060Y-43200392D01*
X33196643Y-43195347D01*
X33188761Y-43189501D01*
X33181489Y-43182911D01*
X33174899Y-43175639D01*
X33169053Y-43167757D01*
X33164008Y-43159340D01*
X33159812Y-43150468D01*
X33156506Y-43141228D01*
X33154121Y-43131709D01*
X33152682Y-43122002D01*
X33152200Y-43112200D01*
X33152200Y-42512200D01*
X33152682Y-42502398D01*
X33154121Y-42492691D01*
X33156506Y-42483172D01*
X33159812Y-42473932D01*
X33164008Y-42465060D01*
X33169053Y-42456643D01*
X33174899Y-42448761D01*
X33181489Y-42441489D01*
X33188761Y-42434899D01*
X33196643Y-42429053D01*
X33205060Y-42424008D01*
X33213932Y-42419812D01*
X33223172Y-42416506D01*
X33232691Y-42414121D01*
X33242398Y-42412682D01*
X33252200Y-42412200D01*
X33452200Y-42412200D01*
X33462002Y-42412682D01*
G37*
G04 #@! TD.AperFunction*
G04 #@! TA.AperFunction,SMDPad,CuDef*
G36*
X34462002Y-42412682D02*
G01*
X34471709Y-42414121D01*
X34481228Y-42416506D01*
X34490468Y-42419812D01*
X34499340Y-42424008D01*
X34507757Y-42429053D01*
X34515639Y-42434899D01*
X34522911Y-42441489D01*
X34529501Y-42448761D01*
X34535347Y-42456643D01*
X34540392Y-42465060D01*
X34544588Y-42473932D01*
X34547894Y-42483172D01*
X34550279Y-42492691D01*
X34551718Y-42502398D01*
X34552200Y-42512200D01*
X34552200Y-43112200D01*
X34551718Y-43122002D01*
X34550279Y-43131709D01*
X34547894Y-43141228D01*
X34544588Y-43150468D01*
X34540392Y-43159340D01*
X34535347Y-43167757D01*
X34529501Y-43175639D01*
X34522911Y-43182911D01*
X34515639Y-43189501D01*
X34507757Y-43195347D01*
X34499340Y-43200392D01*
X34490468Y-43204588D01*
X34481228Y-43207894D01*
X34471709Y-43210279D01*
X34462002Y-43211718D01*
X34452200Y-43212200D01*
X34252200Y-43212200D01*
X34242398Y-43211718D01*
X34232691Y-43210279D01*
X34223172Y-43207894D01*
X34213932Y-43204588D01*
X34205060Y-43200392D01*
X34196643Y-43195347D01*
X34188761Y-43189501D01*
X34181489Y-43182911D01*
X34174899Y-43175639D01*
X34169053Y-43167757D01*
X34164008Y-43159340D01*
X34159812Y-43150468D01*
X34156506Y-43141228D01*
X34154121Y-43131709D01*
X34152682Y-43122002D01*
X34152200Y-43112200D01*
X34152200Y-42512200D01*
X34152682Y-42502398D01*
X34154121Y-42492691D01*
X34156506Y-42483172D01*
X34159812Y-42473932D01*
X34164008Y-42465060D01*
X34169053Y-42456643D01*
X34174899Y-42448761D01*
X34181489Y-42441489D01*
X34188761Y-42434899D01*
X34196643Y-42429053D01*
X34205060Y-42424008D01*
X34213932Y-42419812D01*
X34223172Y-42416506D01*
X34232691Y-42414121D01*
X34242398Y-42412682D01*
X34252200Y-42412200D01*
X34452200Y-42412200D01*
X34462002Y-42412682D01*
G37*
G04 #@! TD.AperFunction*
G04 #@! TA.AperFunction,SMDPad,CuDef*
G36*
X35462002Y-42412682D02*
G01*
X35471709Y-42414121D01*
X35481228Y-42416506D01*
X35490468Y-42419812D01*
X35499340Y-42424008D01*
X35507757Y-42429053D01*
X35515639Y-42434899D01*
X35522911Y-42441489D01*
X35529501Y-42448761D01*
X35535347Y-42456643D01*
X35540392Y-42465060D01*
X35544588Y-42473932D01*
X35547894Y-42483172D01*
X35550279Y-42492691D01*
X35551718Y-42502398D01*
X35552200Y-42512200D01*
X35552200Y-43112200D01*
X35551718Y-43122002D01*
X35550279Y-43131709D01*
X35547894Y-43141228D01*
X35544588Y-43150468D01*
X35540392Y-43159340D01*
X35535347Y-43167757D01*
X35529501Y-43175639D01*
X35522911Y-43182911D01*
X35515639Y-43189501D01*
X35507757Y-43195347D01*
X35499340Y-43200392D01*
X35490468Y-43204588D01*
X35481228Y-43207894D01*
X35471709Y-43210279D01*
X35462002Y-43211718D01*
X35452200Y-43212200D01*
X35252200Y-43212200D01*
X35242398Y-43211718D01*
X35232691Y-43210279D01*
X35223172Y-43207894D01*
X35213932Y-43204588D01*
X35205060Y-43200392D01*
X35196643Y-43195347D01*
X35188761Y-43189501D01*
X35181489Y-43182911D01*
X35174899Y-43175639D01*
X35169053Y-43167757D01*
X35164008Y-43159340D01*
X35159812Y-43150468D01*
X35156506Y-43141228D01*
X35154121Y-43131709D01*
X35152682Y-43122002D01*
X35152200Y-43112200D01*
X35152200Y-42512200D01*
X35152682Y-42502398D01*
X35154121Y-42492691D01*
X35156506Y-42483172D01*
X35159812Y-42473932D01*
X35164008Y-42465060D01*
X35169053Y-42456643D01*
X35174899Y-42448761D01*
X35181489Y-42441489D01*
X35188761Y-42434899D01*
X35196643Y-42429053D01*
X35205060Y-42424008D01*
X35213932Y-42419812D01*
X35223172Y-42416506D01*
X35232691Y-42414121D01*
X35242398Y-42412682D01*
X35252200Y-42412200D01*
X35452200Y-42412200D01*
X35462002Y-42412682D01*
G37*
G04 #@! TD.AperFunction*
G04 #@! TA.AperFunction,SMDPad,CuDef*
G36*
X35462002Y-39512682D02*
G01*
X35471709Y-39514121D01*
X35481228Y-39516506D01*
X35490468Y-39519812D01*
X35499340Y-39524008D01*
X35507757Y-39529053D01*
X35515639Y-39534899D01*
X35522911Y-39541489D01*
X35529501Y-39548761D01*
X35535347Y-39556643D01*
X35540392Y-39565060D01*
X35544588Y-39573932D01*
X35547894Y-39583172D01*
X35550279Y-39592691D01*
X35551718Y-39602398D01*
X35552200Y-39612200D01*
X35552200Y-40212200D01*
X35551718Y-40222002D01*
X35550279Y-40231709D01*
X35547894Y-40241228D01*
X35544588Y-40250468D01*
X35540392Y-40259340D01*
X35535347Y-40267757D01*
X35529501Y-40275639D01*
X35522911Y-40282911D01*
X35515639Y-40289501D01*
X35507757Y-40295347D01*
X35499340Y-40300392D01*
X35490468Y-40304588D01*
X35481228Y-40307894D01*
X35471709Y-40310279D01*
X35462002Y-40311718D01*
X35452200Y-40312200D01*
X35252200Y-40312200D01*
X35242398Y-40311718D01*
X35232691Y-40310279D01*
X35223172Y-40307894D01*
X35213932Y-40304588D01*
X35205060Y-40300392D01*
X35196643Y-40295347D01*
X35188761Y-40289501D01*
X35181489Y-40282911D01*
X35174899Y-40275639D01*
X35169053Y-40267757D01*
X35164008Y-40259340D01*
X35159812Y-40250468D01*
X35156506Y-40241228D01*
X35154121Y-40231709D01*
X35152682Y-40222002D01*
X35152200Y-40212200D01*
X35152200Y-39612200D01*
X35152682Y-39602398D01*
X35154121Y-39592691D01*
X35156506Y-39583172D01*
X35159812Y-39573932D01*
X35164008Y-39565060D01*
X35169053Y-39556643D01*
X35174899Y-39548761D01*
X35181489Y-39541489D01*
X35188761Y-39534899D01*
X35196643Y-39529053D01*
X35205060Y-39524008D01*
X35213932Y-39519812D01*
X35223172Y-39516506D01*
X35232691Y-39514121D01*
X35242398Y-39512682D01*
X35252200Y-39512200D01*
X35452200Y-39512200D01*
X35462002Y-39512682D01*
G37*
G04 #@! TD.AperFunction*
G04 #@! TA.AperFunction,SMDPad,CuDef*
G36*
X34462002Y-39512682D02*
G01*
X34471709Y-39514121D01*
X34481228Y-39516506D01*
X34490468Y-39519812D01*
X34499340Y-39524008D01*
X34507757Y-39529053D01*
X34515639Y-39534899D01*
X34522911Y-39541489D01*
X34529501Y-39548761D01*
X34535347Y-39556643D01*
X34540392Y-39565060D01*
X34544588Y-39573932D01*
X34547894Y-39583172D01*
X34550279Y-39592691D01*
X34551718Y-39602398D01*
X34552200Y-39612200D01*
X34552200Y-40212200D01*
X34551718Y-40222002D01*
X34550279Y-40231709D01*
X34547894Y-40241228D01*
X34544588Y-40250468D01*
X34540392Y-40259340D01*
X34535347Y-40267757D01*
X34529501Y-40275639D01*
X34522911Y-40282911D01*
X34515639Y-40289501D01*
X34507757Y-40295347D01*
X34499340Y-40300392D01*
X34490468Y-40304588D01*
X34481228Y-40307894D01*
X34471709Y-40310279D01*
X34462002Y-40311718D01*
X34452200Y-40312200D01*
X34252200Y-40312200D01*
X34242398Y-40311718D01*
X34232691Y-40310279D01*
X34223172Y-40307894D01*
X34213932Y-40304588D01*
X34205060Y-40300392D01*
X34196643Y-40295347D01*
X34188761Y-40289501D01*
X34181489Y-40282911D01*
X34174899Y-40275639D01*
X34169053Y-40267757D01*
X34164008Y-40259340D01*
X34159812Y-40250468D01*
X34156506Y-40241228D01*
X34154121Y-40231709D01*
X34152682Y-40222002D01*
X34152200Y-40212200D01*
X34152200Y-39612200D01*
X34152682Y-39602398D01*
X34154121Y-39592691D01*
X34156506Y-39583172D01*
X34159812Y-39573932D01*
X34164008Y-39565060D01*
X34169053Y-39556643D01*
X34174899Y-39548761D01*
X34181489Y-39541489D01*
X34188761Y-39534899D01*
X34196643Y-39529053D01*
X34205060Y-39524008D01*
X34213932Y-39519812D01*
X34223172Y-39516506D01*
X34232691Y-39514121D01*
X34242398Y-39512682D01*
X34252200Y-39512200D01*
X34452200Y-39512200D01*
X34462002Y-39512682D01*
G37*
G04 #@! TD.AperFunction*
G04 #@! TA.AperFunction,SMDPad,CuDef*
G36*
X33462002Y-39512682D02*
G01*
X33471709Y-39514121D01*
X33481228Y-39516506D01*
X33490468Y-39519812D01*
X33499340Y-39524008D01*
X33507757Y-39529053D01*
X33515639Y-39534899D01*
X33522911Y-39541489D01*
X33529501Y-39548761D01*
X33535347Y-39556643D01*
X33540392Y-39565060D01*
X33544588Y-39573932D01*
X33547894Y-39583172D01*
X33550279Y-39592691D01*
X33551718Y-39602398D01*
X33552200Y-39612200D01*
X33552200Y-40212200D01*
X33551718Y-40222002D01*
X33550279Y-40231709D01*
X33547894Y-40241228D01*
X33544588Y-40250468D01*
X33540392Y-40259340D01*
X33535347Y-40267757D01*
X33529501Y-40275639D01*
X33522911Y-40282911D01*
X33515639Y-40289501D01*
X33507757Y-40295347D01*
X33499340Y-40300392D01*
X33490468Y-40304588D01*
X33481228Y-40307894D01*
X33471709Y-40310279D01*
X33462002Y-40311718D01*
X33452200Y-40312200D01*
X33252200Y-40312200D01*
X33242398Y-40311718D01*
X33232691Y-40310279D01*
X33223172Y-40307894D01*
X33213932Y-40304588D01*
X33205060Y-40300392D01*
X33196643Y-40295347D01*
X33188761Y-40289501D01*
X33181489Y-40282911D01*
X33174899Y-40275639D01*
X33169053Y-40267757D01*
X33164008Y-40259340D01*
X33159812Y-40250468D01*
X33156506Y-40241228D01*
X33154121Y-40231709D01*
X33152682Y-40222002D01*
X33152200Y-40212200D01*
X33152200Y-39612200D01*
X33152682Y-39602398D01*
X33154121Y-39592691D01*
X33156506Y-39583172D01*
X33159812Y-39573932D01*
X33164008Y-39565060D01*
X33169053Y-39556643D01*
X33174899Y-39548761D01*
X33181489Y-39541489D01*
X33188761Y-39534899D01*
X33196643Y-39529053D01*
X33205060Y-39524008D01*
X33213932Y-39519812D01*
X33223172Y-39516506D01*
X33232691Y-39514121D01*
X33242398Y-39512682D01*
X33252200Y-39512200D01*
X33452200Y-39512200D01*
X33462002Y-39512682D01*
G37*
G04 #@! TD.AperFunction*
D13*
X44653000Y-43006500D03*
X37653000Y-43006500D03*
D14*
X43653000Y-40306500D03*
X38653000Y-40306500D03*
D15*
X17166000Y-34434000D03*
X17166000Y-43324000D03*
X43899500Y-32148002D03*
X38375000Y-29100000D03*
X28850000Y-28448000D03*
X38375000Y-19575000D03*
X28215000Y-19575000D03*
X26056000Y-27576000D03*
X26056000Y-24020000D03*
X26056000Y-20464000D03*
X33930000Y-24528000D03*
X33930000Y-19194000D03*
X44344000Y-16908000D03*
X17166000Y-39006000D03*
X21992000Y-43324000D03*
X43899500Y-18749500D03*
X23749000Y-21463000D03*
X23749000Y-17018000D03*
X42862500Y-22987000D03*
X44894500Y-22987000D03*
X40449500Y-31559500D03*
X23812500Y-34734500D03*
X33972500Y-44069000D03*
X30607000Y-43942000D03*
X20510500Y-33782000D03*
X21844000Y-40703500D03*
X41301500Y-16801000D03*
X30416500Y-29908500D03*
X41783000Y-32575500D03*
X25209500Y-43751500D03*
X29146500Y-43942000D03*
X24892000Y-29781500D03*
X30681270Y-42646432D03*
X24905500Y-18749500D03*
X30729600Y-41647599D03*
X26905500Y-18749500D03*
X31623000Y-43243500D03*
X28892500Y-29781500D03*
X42439000Y-39006000D03*
X37549500Y-39387000D03*
X32279601Y-41190400D03*
X32279601Y-42206400D03*
X33255342Y-38009142D03*
X27749500Y-25971500D03*
X33275505Y-37009344D03*
X27749500Y-24955500D03*
D16*
X43653000Y-42606500D02*
X43653000Y-40306500D01*
X44653000Y-43006500D02*
X44053000Y-43006500D01*
X44053000Y-43006500D02*
X43653000Y-42606500D01*
X43899500Y-40060000D02*
X43899500Y-32148002D01*
X43653000Y-40306500D02*
X43899500Y-40060000D01*
D17*
X34352200Y-39912200D02*
X34352200Y-41362200D01*
D16*
X43899500Y-32148002D02*
X43878500Y-30226000D01*
X43878500Y-30226000D02*
X43899500Y-18749500D01*
D17*
X42672000Y-30226000D02*
X43878500Y-30226000D01*
X40322500Y-32702500D02*
X42672000Y-30226000D01*
X34353500Y-39910900D02*
X34353500Y-39306500D01*
X34353500Y-39306500D02*
X40322500Y-33337500D01*
X34352200Y-39912200D02*
X34353500Y-39910900D01*
X40322500Y-33337500D02*
X40322500Y-32702500D01*
X19812000Y-34734500D02*
X23812500Y-34734500D01*
X18478500Y-36068000D02*
X19812000Y-34734500D01*
X18478500Y-40830500D02*
X18478500Y-36068000D01*
X20066000Y-41457000D02*
X19105000Y-41457000D01*
X19105000Y-41457000D02*
X18478500Y-40830500D01*
X36639500Y-38989000D02*
X41783000Y-33845500D01*
X41783000Y-33845500D02*
X41783000Y-32575500D01*
X34352200Y-43212200D02*
X34727210Y-43587210D01*
X34352200Y-42812200D02*
X34352200Y-43212200D01*
X34727210Y-43587210D02*
X35914790Y-43587210D01*
X36639500Y-42862500D02*
X36639500Y-38989000D01*
X35914790Y-43587210D02*
X36639500Y-42862500D01*
X20066000Y-36957000D02*
X25209500Y-42100500D01*
X25209500Y-42100500D02*
X25209500Y-43751500D01*
X24892000Y-39687500D02*
X24892000Y-29781500D01*
X29146500Y-43942000D02*
X24892000Y-39687500D01*
X24905500Y-28097500D02*
X24905500Y-18749500D01*
X29845000Y-33037000D02*
X24905500Y-28097500D01*
X29845000Y-42375847D02*
X29845000Y-33037000D01*
X30681270Y-42646432D02*
X30115585Y-42646432D01*
X30115585Y-42646432D02*
X29845000Y-42375847D01*
X26905500Y-28937500D02*
X26905500Y-19315185D01*
X30734000Y-32766000D02*
X26905500Y-28937500D01*
X30729600Y-41647599D02*
X30734000Y-41643199D01*
X26905500Y-19315185D02*
X26905500Y-18749500D01*
X30734000Y-41643199D02*
X30734000Y-32766000D01*
X31504600Y-42559415D02*
X31504600Y-32393600D01*
X31504600Y-32393600D02*
X28892500Y-29781500D01*
X31623000Y-43243500D02*
X31623000Y-42677815D01*
X31623000Y-42677815D02*
X31504600Y-42559415D01*
D16*
X37930500Y-39006000D02*
X42439000Y-39006000D01*
X37549500Y-39387000D02*
X37930500Y-39006000D01*
D17*
X32279601Y-40351599D02*
X32279601Y-41190400D01*
X33352200Y-39912200D02*
X32719000Y-39912200D01*
X32719000Y-39912200D02*
X32279601Y-40351599D01*
X33352200Y-42812200D02*
X32885401Y-42812200D01*
X32885401Y-42812200D02*
X32279601Y-42206400D01*
X32500504Y-37819989D02*
X32500504Y-30722504D01*
X32500504Y-30722504D02*
X27749500Y-25971500D01*
X33255342Y-38009142D02*
X32689657Y-38009142D01*
X32689657Y-38009142D02*
X32500504Y-37819989D01*
X27880502Y-24955500D02*
X27749500Y-24955500D01*
X33275505Y-37009344D02*
X33275505Y-30350503D01*
X33275505Y-30350503D02*
X27880502Y-24955500D01*
D18*
G36*
X44249899Y-15737907D02*
G01*
X44490285Y-15810484D01*
X44711991Y-15928368D01*
X44906577Y-16087068D01*
X45066635Y-16280545D01*
X45186064Y-16501424D01*
X45260317Y-16741297D01*
X45290000Y-17023716D01*
X45290001Y-41596460D01*
X45233533Y-41559079D01*
X45008282Y-41466909D01*
X44970609Y-41463038D01*
X44780000Y-41587769D01*
X44780000Y-42879500D01*
X44800000Y-42879500D01*
X44800000Y-43133500D01*
X44780000Y-43133500D01*
X44780000Y-43153500D01*
X44526000Y-43153500D01*
X44526000Y-43133500D01*
X43418000Y-43133500D01*
X43418000Y-43483500D01*
X43466507Y-43721996D01*
X43560610Y-43946446D01*
X43696693Y-44148225D01*
X43839693Y-44290000D01*
X38466307Y-44290000D01*
X38609307Y-44148225D01*
X38745390Y-43946446D01*
X38839493Y-43721996D01*
X38888000Y-43483500D01*
X38888000Y-43133500D01*
X37780000Y-43133500D01*
X37780000Y-43153500D01*
X37526000Y-43153500D01*
X37526000Y-43133500D01*
X37506000Y-43133500D01*
X37506000Y-42879500D01*
X37526000Y-42879500D01*
X37526000Y-41587769D01*
X37780000Y-41587769D01*
X37780000Y-42879500D01*
X38888000Y-42879500D01*
X38888000Y-42529500D01*
X38839493Y-42291004D01*
X38745390Y-42066554D01*
X38609307Y-41864775D01*
X38436474Y-41693422D01*
X38341164Y-41630329D01*
X38458849Y-41659219D01*
X38726482Y-41671104D01*
X38991291Y-41630548D01*
X39243100Y-41539109D01*
X39350035Y-41481950D01*
X39412528Y-41245633D01*
X42893472Y-41245633D01*
X42955965Y-41481950D01*
X43198678Y-41595350D01*
X43458849Y-41659219D01*
X43726482Y-41671104D01*
X43956442Y-41635885D01*
X43869526Y-41693422D01*
X43696693Y-41864775D01*
X43560610Y-42066554D01*
X43466507Y-42291004D01*
X43418000Y-42529500D01*
X43418000Y-42879500D01*
X44526000Y-42879500D01*
X44526000Y-41587769D01*
X44352138Y-41473997D01*
X44412528Y-41245633D01*
X43653000Y-40486105D01*
X42893472Y-41245633D01*
X39412528Y-41245633D01*
X38653000Y-40486105D01*
X37893472Y-41245633D01*
X37953862Y-41473997D01*
X37780000Y-41587769D01*
X37526000Y-41587769D01*
X37449500Y-41537709D01*
X37449500Y-40951058D01*
X37477550Y-41003535D01*
X37713867Y-41066028D01*
X38473395Y-40306500D01*
X38459253Y-40292358D01*
X38638858Y-40112753D01*
X38653000Y-40126895D01*
X38667143Y-40112753D01*
X38846748Y-40292358D01*
X38832605Y-40306500D01*
X39592133Y-41066028D01*
X39828450Y-41003535D01*
X39941850Y-40760822D01*
X40005719Y-40500651D01*
X40017604Y-40233018D01*
X39977048Y-39968209D01*
X39930855Y-39841000D01*
X41825715Y-39841000D01*
X41948744Y-39923205D01*
X42137102Y-40001226D01*
X42318693Y-40037346D01*
X42300281Y-40112349D01*
X42288396Y-40379982D01*
X42328952Y-40644791D01*
X42420391Y-40896600D01*
X42477550Y-41003535D01*
X42713867Y-41066028D01*
X43473395Y-40306500D01*
X43832605Y-40306500D01*
X44592133Y-41066028D01*
X44828450Y-41003535D01*
X44941850Y-40760822D01*
X45005719Y-40500651D01*
X45017604Y-40233018D01*
X44977048Y-39968209D01*
X44885609Y-39716400D01*
X44828450Y-39609465D01*
X44592133Y-39546972D01*
X43832605Y-40306500D01*
X43473395Y-40306500D01*
X43459253Y-40292358D01*
X43638858Y-40112753D01*
X43653000Y-40126895D01*
X44412528Y-39367367D01*
X44350035Y-39131050D01*
X44107322Y-39017650D01*
X43847151Y-38953781D01*
X43579518Y-38941896D01*
X43474000Y-38958056D01*
X43474000Y-38904061D01*
X43434226Y-38704102D01*
X43356205Y-38515744D01*
X43242937Y-38346226D01*
X43098774Y-38202063D01*
X42929256Y-38088795D01*
X42740898Y-38010774D01*
X42540939Y-37971000D01*
X42337061Y-37971000D01*
X42137102Y-38010774D01*
X41948744Y-38088795D01*
X41825715Y-38171000D01*
X38603012Y-38171000D01*
X42327619Y-34446394D01*
X42358528Y-34421028D01*
X42459749Y-34297689D01*
X42534963Y-34156973D01*
X42581280Y-34004288D01*
X42593000Y-33885291D01*
X42593000Y-33885289D01*
X42596919Y-33845501D01*
X42593000Y-33805713D01*
X42593000Y-33226200D01*
X42700205Y-33065756D01*
X42778226Y-32877398D01*
X42818000Y-32677439D01*
X42818000Y-32473561D01*
X42778226Y-32273602D01*
X42700205Y-32085244D01*
X42586937Y-31915726D01*
X42442774Y-31771563D01*
X42273256Y-31658295D01*
X42084898Y-31580274D01*
X41884939Y-31540500D01*
X41681061Y-31540500D01*
X41481102Y-31580274D01*
X41292744Y-31658295D01*
X41123226Y-31771563D01*
X40979063Y-31915726D01*
X40865795Y-32085244D01*
X40787774Y-32273602D01*
X40748000Y-32473561D01*
X40748000Y-32677439D01*
X40787774Y-32877398D01*
X40865795Y-33065756D01*
X40973000Y-33226201D01*
X40973000Y-33509987D01*
X36094883Y-38388105D01*
X36063973Y-38413472D01*
X36018352Y-38469061D01*
X35962751Y-38536811D01*
X35892141Y-38668916D01*
X35887538Y-38677527D01*
X35843391Y-38823061D01*
X35841221Y-38830213D01*
X35826525Y-38979420D01*
X35734648Y-38930310D01*
X35596191Y-38888310D01*
X35452200Y-38874128D01*
X35252200Y-38874128D01*
X35108209Y-38888310D01*
X34969752Y-38930310D01*
X34889335Y-38973294D01*
X34809360Y-38928244D01*
X34690494Y-38889295D01*
X34583950Y-38877200D01*
X34425200Y-39035950D01*
X34425200Y-39785200D01*
X34499200Y-39785200D01*
X34499200Y-40039200D01*
X34425200Y-40039200D01*
X34425200Y-40788450D01*
X34479200Y-40842450D01*
X34479200Y-41235200D01*
X34499200Y-41235200D01*
X34499200Y-41489200D01*
X34479200Y-41489200D01*
X34479200Y-41509200D01*
X34225200Y-41509200D01*
X34225200Y-41489200D01*
X34205200Y-41489200D01*
X34205200Y-41235200D01*
X34225200Y-41235200D01*
X34225200Y-40842450D01*
X34279200Y-40788450D01*
X34279200Y-40039200D01*
X34205200Y-40039200D01*
X34205200Y-39785200D01*
X34279200Y-39785200D01*
X34279200Y-39035950D01*
X34120450Y-38877200D01*
X34013906Y-38889295D01*
X33895040Y-38928244D01*
X33815065Y-38973294D01*
X33735252Y-38930633D01*
X33745598Y-38926347D01*
X33915116Y-38813079D01*
X34059279Y-38668916D01*
X34172547Y-38499398D01*
X34250568Y-38311040D01*
X34290342Y-38111081D01*
X34290342Y-37907203D01*
X34250568Y-37707244D01*
X34175332Y-37525609D01*
X34192710Y-37499600D01*
X34270731Y-37311242D01*
X34310505Y-37111283D01*
X34310505Y-36907405D01*
X34270731Y-36707446D01*
X34192710Y-36519088D01*
X34085505Y-36358644D01*
X34085505Y-30390290D01*
X34089424Y-30350502D01*
X34081526Y-30270314D01*
X34073785Y-30191715D01*
X34027468Y-30039030D01*
X33952254Y-29898314D01*
X33851033Y-29774975D01*
X33820123Y-29749608D01*
X28749843Y-24679329D01*
X28744726Y-24653602D01*
X28666705Y-24465244D01*
X28553437Y-24295726D01*
X28409274Y-24151563D01*
X28239756Y-24038295D01*
X28051398Y-23960274D01*
X27851439Y-23920500D01*
X27715500Y-23920500D01*
X27715500Y-19400200D01*
X27822705Y-19239756D01*
X27900726Y-19051398D01*
X27940500Y-18851439D01*
X27940500Y-18647561D01*
X27900726Y-18447602D01*
X27822705Y-18259244D01*
X27709437Y-18089726D01*
X27565274Y-17945563D01*
X27395756Y-17832295D01*
X27207398Y-17754274D01*
X27007439Y-17714500D01*
X26803561Y-17714500D01*
X26603602Y-17754274D01*
X26415244Y-17832295D01*
X26245726Y-17945563D01*
X26101563Y-18089726D01*
X25988295Y-18259244D01*
X25910274Y-18447602D01*
X25905500Y-18471603D01*
X25900726Y-18447602D01*
X25822705Y-18259244D01*
X25709437Y-18089726D01*
X25565274Y-17945563D01*
X25395756Y-17832295D01*
X25207398Y-17754274D01*
X25007439Y-17714500D01*
X24803561Y-17714500D01*
X24603602Y-17754274D01*
X24415244Y-17832295D01*
X24245726Y-17945563D01*
X24101563Y-18089726D01*
X23988295Y-18259244D01*
X23910274Y-18447602D01*
X23870500Y-18647561D01*
X23870500Y-18851439D01*
X23910274Y-19051398D01*
X23988295Y-19239756D01*
X24095501Y-19400201D01*
X24095500Y-28057712D01*
X24091581Y-28097500D01*
X24095500Y-28137288D01*
X24095500Y-28137290D01*
X24107220Y-28256287D01*
X24153537Y-28408972D01*
X24153538Y-28408973D01*
X24228751Y-28549689D01*
X24260203Y-28588013D01*
X24329972Y-28673028D01*
X24360888Y-28698400D01*
X24490160Y-28827672D01*
X24401744Y-28864295D01*
X24232226Y-28977563D01*
X24088063Y-29121726D01*
X23974795Y-29291244D01*
X23896774Y-29479602D01*
X23857000Y-29679561D01*
X23857000Y-29883439D01*
X23896774Y-30083398D01*
X23974795Y-30271756D01*
X24082001Y-30432201D01*
X24082000Y-39647712D01*
X24078081Y-39687500D01*
X24082000Y-39727288D01*
X24082000Y-39727290D01*
X24092947Y-39838434D01*
X21348855Y-37094343D01*
X21351000Y-37083561D01*
X21351000Y-36830439D01*
X21301619Y-36582179D01*
X21204753Y-36348324D01*
X21064125Y-36137860D01*
X20885140Y-35958875D01*
X20674676Y-35818247D01*
X20440821Y-35721381D01*
X20192561Y-35672000D01*
X19939439Y-35672000D01*
X19691179Y-35721381D01*
X19457324Y-35818247D01*
X19246860Y-35958875D01*
X19067875Y-36137860D01*
X18927247Y-36348324D01*
X18830381Y-36582179D01*
X18781000Y-36830439D01*
X18781000Y-37083561D01*
X18830381Y-37331821D01*
X18927247Y-37565676D01*
X19021677Y-37707000D01*
X18927247Y-37848324D01*
X18830381Y-38082179D01*
X18781000Y-38330439D01*
X18781000Y-38583561D01*
X18830381Y-38831821D01*
X18927247Y-39065676D01*
X19021677Y-39207000D01*
X18927247Y-39348324D01*
X18830381Y-39582179D01*
X18781000Y-39830439D01*
X18781000Y-40083561D01*
X18830381Y-40331821D01*
X18927247Y-40565676D01*
X19067875Y-40776140D01*
X19068869Y-40777134D01*
X18951799Y-40804466D01*
X18845905Y-41034374D01*
X18786898Y-41280524D01*
X18777048Y-41533455D01*
X18816730Y-41783449D01*
X18904422Y-42020896D01*
X18951799Y-42109534D01*
X19180473Y-42162922D01*
X19886395Y-41457000D01*
X19872253Y-41442858D01*
X20051858Y-41263253D01*
X20066000Y-41277395D01*
X20080143Y-41263253D01*
X20259748Y-41442858D01*
X20245605Y-41457000D01*
X20951527Y-42162922D01*
X21180201Y-42109534D01*
X21286095Y-41879626D01*
X21345102Y-41633476D01*
X21354952Y-41380545D01*
X21315270Y-41130551D01*
X21227578Y-40893104D01*
X21180201Y-40804466D01*
X21063131Y-40777134D01*
X21064125Y-40776140D01*
X21204753Y-40565676D01*
X21301619Y-40331821D01*
X21351000Y-40083561D01*
X21351000Y-39830439D01*
X21301619Y-39582179D01*
X21204753Y-39348324D01*
X21110323Y-39207000D01*
X21134422Y-39170934D01*
X24399500Y-42436013D01*
X24399501Y-43100799D01*
X24292295Y-43261244D01*
X24214274Y-43449602D01*
X24174500Y-43649561D01*
X24174500Y-43853439D01*
X24214274Y-44053398D01*
X24292295Y-44241756D01*
X24324531Y-44290000D01*
X18034721Y-44290000D01*
X17750101Y-44262093D01*
X17509718Y-44189517D01*
X17288011Y-44071633D01*
X17093420Y-43912929D01*
X16933365Y-43719455D01*
X16813936Y-43498576D01*
X16739683Y-43258701D01*
X16710000Y-42976291D01*
X16710000Y-42342527D01*
X19360078Y-42342527D01*
X19413466Y-42571201D01*
X19643374Y-42677095D01*
X19889524Y-42736102D01*
X20142455Y-42745952D01*
X20392449Y-42706270D01*
X20629896Y-42618578D01*
X20718534Y-42571201D01*
X20771922Y-42342527D01*
X20066000Y-41636605D01*
X19360078Y-42342527D01*
X16710000Y-42342527D01*
X16710000Y-33037000D01*
X23262000Y-33037000D01*
X23286776Y-33034560D01*
X23310601Y-33027333D01*
X23332557Y-33015597D01*
X23351803Y-32999803D01*
X23367597Y-32980557D01*
X23379333Y-32958601D01*
X23386560Y-32934776D01*
X23389000Y-32910000D01*
X23389000Y-15710000D01*
X43965279Y-15710000D01*
X44249899Y-15737907D01*
G37*
X44249899Y-15737907D02*
X44490285Y-15810484D01*
X44711991Y-15928368D01*
X44906577Y-16087068D01*
X45066635Y-16280545D01*
X45186064Y-16501424D01*
X45260317Y-16741297D01*
X45290000Y-17023716D01*
X45290001Y-41596460D01*
X45233533Y-41559079D01*
X45008282Y-41466909D01*
X44970609Y-41463038D01*
X44780000Y-41587769D01*
X44780000Y-42879500D01*
X44800000Y-42879500D01*
X44800000Y-43133500D01*
X44780000Y-43133500D01*
X44780000Y-43153500D01*
X44526000Y-43153500D01*
X44526000Y-43133500D01*
X43418000Y-43133500D01*
X43418000Y-43483500D01*
X43466507Y-43721996D01*
X43560610Y-43946446D01*
X43696693Y-44148225D01*
X43839693Y-44290000D01*
X38466307Y-44290000D01*
X38609307Y-44148225D01*
X38745390Y-43946446D01*
X38839493Y-43721996D01*
X38888000Y-43483500D01*
X38888000Y-43133500D01*
X37780000Y-43133500D01*
X37780000Y-43153500D01*
X37526000Y-43153500D01*
X37526000Y-43133500D01*
X37506000Y-43133500D01*
X37506000Y-42879500D01*
X37526000Y-42879500D01*
X37526000Y-41587769D01*
X37780000Y-41587769D01*
X37780000Y-42879500D01*
X38888000Y-42879500D01*
X38888000Y-42529500D01*
X38839493Y-42291004D01*
X38745390Y-42066554D01*
X38609307Y-41864775D01*
X38436474Y-41693422D01*
X38341164Y-41630329D01*
X38458849Y-41659219D01*
X38726482Y-41671104D01*
X38991291Y-41630548D01*
X39243100Y-41539109D01*
X39350035Y-41481950D01*
X39412528Y-41245633D01*
X42893472Y-41245633D01*
X42955965Y-41481950D01*
X43198678Y-41595350D01*
X43458849Y-41659219D01*
X43726482Y-41671104D01*
X43956442Y-41635885D01*
X43869526Y-41693422D01*
X43696693Y-41864775D01*
X43560610Y-42066554D01*
X43466507Y-42291004D01*
X43418000Y-42529500D01*
X43418000Y-42879500D01*
X44526000Y-42879500D01*
X44526000Y-41587769D01*
X44352138Y-41473997D01*
X44412528Y-41245633D01*
X43653000Y-40486105D01*
X42893472Y-41245633D01*
X39412528Y-41245633D01*
X38653000Y-40486105D01*
X37893472Y-41245633D01*
X37953862Y-41473997D01*
X37780000Y-41587769D01*
X37526000Y-41587769D01*
X37449500Y-41537709D01*
X37449500Y-40951058D01*
X37477550Y-41003535D01*
X37713867Y-41066028D01*
X38473395Y-40306500D01*
X38459253Y-40292358D01*
X38638858Y-40112753D01*
X38653000Y-40126895D01*
X38667143Y-40112753D01*
X38846748Y-40292358D01*
X38832605Y-40306500D01*
X39592133Y-41066028D01*
X39828450Y-41003535D01*
X39941850Y-40760822D01*
X40005719Y-40500651D01*
X40017604Y-40233018D01*
X39977048Y-39968209D01*
X39930855Y-39841000D01*
X41825715Y-39841000D01*
X41948744Y-39923205D01*
X42137102Y-40001226D01*
X42318693Y-40037346D01*
X42300281Y-40112349D01*
X42288396Y-40379982D01*
X42328952Y-40644791D01*
X42420391Y-40896600D01*
X42477550Y-41003535D01*
X42713867Y-41066028D01*
X43473395Y-40306500D01*
X43832605Y-40306500D01*
X44592133Y-41066028D01*
X44828450Y-41003535D01*
X44941850Y-40760822D01*
X45005719Y-40500651D01*
X45017604Y-40233018D01*
X44977048Y-39968209D01*
X44885609Y-39716400D01*
X44828450Y-39609465D01*
X44592133Y-39546972D01*
X43832605Y-40306500D01*
X43473395Y-40306500D01*
X43459253Y-40292358D01*
X43638858Y-40112753D01*
X43653000Y-40126895D01*
X44412528Y-39367367D01*
X44350035Y-39131050D01*
X44107322Y-39017650D01*
X43847151Y-38953781D01*
X43579518Y-38941896D01*
X43474000Y-38958056D01*
X43474000Y-38904061D01*
X43434226Y-38704102D01*
X43356205Y-38515744D01*
X43242937Y-38346226D01*
X43098774Y-38202063D01*
X42929256Y-38088795D01*
X42740898Y-38010774D01*
X42540939Y-37971000D01*
X42337061Y-37971000D01*
X42137102Y-38010774D01*
X41948744Y-38088795D01*
X41825715Y-38171000D01*
X38603012Y-38171000D01*
X42327619Y-34446394D01*
X42358528Y-34421028D01*
X42459749Y-34297689D01*
X42534963Y-34156973D01*
X42581280Y-34004288D01*
X42593000Y-33885291D01*
X42593000Y-33885289D01*
X42596919Y-33845501D01*
X42593000Y-33805713D01*
X42593000Y-33226200D01*
X42700205Y-33065756D01*
X42778226Y-32877398D01*
X42818000Y-32677439D01*
X42818000Y-32473561D01*
X42778226Y-32273602D01*
X42700205Y-32085244D01*
X42586937Y-31915726D01*
X42442774Y-31771563D01*
X42273256Y-31658295D01*
X42084898Y-31580274D01*
X41884939Y-31540500D01*
X41681061Y-31540500D01*
X41481102Y-31580274D01*
X41292744Y-31658295D01*
X41123226Y-31771563D01*
X40979063Y-31915726D01*
X40865795Y-32085244D01*
X40787774Y-32273602D01*
X40748000Y-32473561D01*
X40748000Y-32677439D01*
X40787774Y-32877398D01*
X40865795Y-33065756D01*
X40973000Y-33226201D01*
X40973000Y-33509987D01*
X36094883Y-38388105D01*
X36063973Y-38413472D01*
X36018352Y-38469061D01*
X35962751Y-38536811D01*
X35892141Y-38668916D01*
X35887538Y-38677527D01*
X35843391Y-38823061D01*
X35841221Y-38830213D01*
X35826525Y-38979420D01*
X35734648Y-38930310D01*
X35596191Y-38888310D01*
X35452200Y-38874128D01*
X35252200Y-38874128D01*
X35108209Y-38888310D01*
X34969752Y-38930310D01*
X34889335Y-38973294D01*
X34809360Y-38928244D01*
X34690494Y-38889295D01*
X34583950Y-38877200D01*
X34425200Y-39035950D01*
X34425200Y-39785200D01*
X34499200Y-39785200D01*
X34499200Y-40039200D01*
X34425200Y-40039200D01*
X34425200Y-40788450D01*
X34479200Y-40842450D01*
X34479200Y-41235200D01*
X34499200Y-41235200D01*
X34499200Y-41489200D01*
X34479200Y-41489200D01*
X34479200Y-41509200D01*
X34225200Y-41509200D01*
X34225200Y-41489200D01*
X34205200Y-41489200D01*
X34205200Y-41235200D01*
X34225200Y-41235200D01*
X34225200Y-40842450D01*
X34279200Y-40788450D01*
X34279200Y-40039200D01*
X34205200Y-40039200D01*
X34205200Y-39785200D01*
X34279200Y-39785200D01*
X34279200Y-39035950D01*
X34120450Y-38877200D01*
X34013906Y-38889295D01*
X33895040Y-38928244D01*
X33815065Y-38973294D01*
X33735252Y-38930633D01*
X33745598Y-38926347D01*
X33915116Y-38813079D01*
X34059279Y-38668916D01*
X34172547Y-38499398D01*
X34250568Y-38311040D01*
X34290342Y-38111081D01*
X34290342Y-37907203D01*
X34250568Y-37707244D01*
X34175332Y-37525609D01*
X34192710Y-37499600D01*
X34270731Y-37311242D01*
X34310505Y-37111283D01*
X34310505Y-36907405D01*
X34270731Y-36707446D01*
X34192710Y-36519088D01*
X34085505Y-36358644D01*
X34085505Y-30390290D01*
X34089424Y-30350502D01*
X34081526Y-30270314D01*
X34073785Y-30191715D01*
X34027468Y-30039030D01*
X33952254Y-29898314D01*
X33851033Y-29774975D01*
X33820123Y-29749608D01*
X28749843Y-24679329D01*
X28744726Y-24653602D01*
X28666705Y-24465244D01*
X28553437Y-24295726D01*
X28409274Y-24151563D01*
X28239756Y-24038295D01*
X28051398Y-23960274D01*
X27851439Y-23920500D01*
X27715500Y-23920500D01*
X27715500Y-19400200D01*
X27822705Y-19239756D01*
X27900726Y-19051398D01*
X27940500Y-18851439D01*
X27940500Y-18647561D01*
X27900726Y-18447602D01*
X27822705Y-18259244D01*
X27709437Y-18089726D01*
X27565274Y-17945563D01*
X27395756Y-17832295D01*
X27207398Y-17754274D01*
X27007439Y-17714500D01*
X26803561Y-17714500D01*
X26603602Y-17754274D01*
X26415244Y-17832295D01*
X26245726Y-17945563D01*
X26101563Y-18089726D01*
X25988295Y-18259244D01*
X25910274Y-18447602D01*
X25905500Y-18471603D01*
X25900726Y-18447602D01*
X25822705Y-18259244D01*
X25709437Y-18089726D01*
X25565274Y-17945563D01*
X25395756Y-17832295D01*
X25207398Y-17754274D01*
X25007439Y-17714500D01*
X24803561Y-17714500D01*
X24603602Y-17754274D01*
X24415244Y-17832295D01*
X24245726Y-17945563D01*
X24101563Y-18089726D01*
X23988295Y-18259244D01*
X23910274Y-18447602D01*
X23870500Y-18647561D01*
X23870500Y-18851439D01*
X23910274Y-19051398D01*
X23988295Y-19239756D01*
X24095501Y-19400201D01*
X24095500Y-28057712D01*
X24091581Y-28097500D01*
X24095500Y-28137288D01*
X24095500Y-28137290D01*
X24107220Y-28256287D01*
X24153537Y-28408972D01*
X24153538Y-28408973D01*
X24228751Y-28549689D01*
X24260203Y-28588013D01*
X24329972Y-28673028D01*
X24360888Y-28698400D01*
X24490160Y-28827672D01*
X24401744Y-28864295D01*
X24232226Y-28977563D01*
X24088063Y-29121726D01*
X23974795Y-29291244D01*
X23896774Y-29479602D01*
X23857000Y-29679561D01*
X23857000Y-29883439D01*
X23896774Y-30083398D01*
X23974795Y-30271756D01*
X24082001Y-30432201D01*
X24082000Y-39647712D01*
X24078081Y-39687500D01*
X24082000Y-39727288D01*
X24082000Y-39727290D01*
X24092947Y-39838434D01*
X21348855Y-37094343D01*
X21351000Y-37083561D01*
X21351000Y-36830439D01*
X21301619Y-36582179D01*
X21204753Y-36348324D01*
X21064125Y-36137860D01*
X20885140Y-35958875D01*
X20674676Y-35818247D01*
X20440821Y-35721381D01*
X20192561Y-35672000D01*
X19939439Y-35672000D01*
X19691179Y-35721381D01*
X19457324Y-35818247D01*
X19246860Y-35958875D01*
X19067875Y-36137860D01*
X18927247Y-36348324D01*
X18830381Y-36582179D01*
X18781000Y-36830439D01*
X18781000Y-37083561D01*
X18830381Y-37331821D01*
X18927247Y-37565676D01*
X19021677Y-37707000D01*
X18927247Y-37848324D01*
X18830381Y-38082179D01*
X18781000Y-38330439D01*
X18781000Y-38583561D01*
X18830381Y-38831821D01*
X18927247Y-39065676D01*
X19021677Y-39207000D01*
X18927247Y-39348324D01*
X18830381Y-39582179D01*
X18781000Y-39830439D01*
X18781000Y-40083561D01*
X18830381Y-40331821D01*
X18927247Y-40565676D01*
X19067875Y-40776140D01*
X19068869Y-40777134D01*
X18951799Y-40804466D01*
X18845905Y-41034374D01*
X18786898Y-41280524D01*
X18777048Y-41533455D01*
X18816730Y-41783449D01*
X18904422Y-42020896D01*
X18951799Y-42109534D01*
X19180473Y-42162922D01*
X19886395Y-41457000D01*
X19872253Y-41442858D01*
X20051858Y-41263253D01*
X20066000Y-41277395D01*
X20080143Y-41263253D01*
X20259748Y-41442858D01*
X20245605Y-41457000D01*
X20951527Y-42162922D01*
X21180201Y-42109534D01*
X21286095Y-41879626D01*
X21345102Y-41633476D01*
X21354952Y-41380545D01*
X21315270Y-41130551D01*
X21227578Y-40893104D01*
X21180201Y-40804466D01*
X21063131Y-40777134D01*
X21064125Y-40776140D01*
X21204753Y-40565676D01*
X21301619Y-40331821D01*
X21351000Y-40083561D01*
X21351000Y-39830439D01*
X21301619Y-39582179D01*
X21204753Y-39348324D01*
X21110323Y-39207000D01*
X21134422Y-39170934D01*
X24399500Y-42436013D01*
X24399501Y-43100799D01*
X24292295Y-43261244D01*
X24214274Y-43449602D01*
X24174500Y-43649561D01*
X24174500Y-43853439D01*
X24214274Y-44053398D01*
X24292295Y-44241756D01*
X24324531Y-44290000D01*
X18034721Y-44290000D01*
X17750101Y-44262093D01*
X17509718Y-44189517D01*
X17288011Y-44071633D01*
X17093420Y-43912929D01*
X16933365Y-43719455D01*
X16813936Y-43498576D01*
X16739683Y-43258701D01*
X16710000Y-42976291D01*
X16710000Y-42342527D01*
X19360078Y-42342527D01*
X19413466Y-42571201D01*
X19643374Y-42677095D01*
X19889524Y-42736102D01*
X20142455Y-42745952D01*
X20392449Y-42706270D01*
X20629896Y-42618578D01*
X20718534Y-42571201D01*
X20771922Y-42342527D01*
X20066000Y-41636605D01*
X19360078Y-42342527D01*
X16710000Y-42342527D01*
X16710000Y-33037000D01*
X23262000Y-33037000D01*
X23286776Y-33034560D01*
X23310601Y-33027333D01*
X23332557Y-33015597D01*
X23351803Y-32999803D01*
X23367597Y-32980557D01*
X23379333Y-32958601D01*
X23386560Y-32934776D01*
X23389000Y-32910000D01*
X23389000Y-15710000D01*
X43965279Y-15710000D01*
X44249899Y-15737907D01*
G36*
X30191014Y-43563637D02*
G01*
X30379372Y-43641658D01*
X30579331Y-43681432D01*
X30684122Y-43681432D01*
X30705795Y-43733756D01*
X30819063Y-43903274D01*
X30963226Y-44047437D01*
X31132744Y-44160705D01*
X31321102Y-44238726D01*
X31521061Y-44278500D01*
X31724939Y-44278500D01*
X31924898Y-44238726D01*
X32113256Y-44160705D01*
X32282774Y-44047437D01*
X32426937Y-43903274D01*
X32540205Y-43733756D01*
X32606376Y-43574006D01*
X32705722Y-43604143D01*
X32730304Y-43634096D01*
X32842149Y-43725884D01*
X32969752Y-43794090D01*
X33108209Y-43836090D01*
X33252200Y-43850272D01*
X33452200Y-43850272D01*
X33596191Y-43836090D01*
X33734648Y-43794090D01*
X33767488Y-43776536D01*
X33776673Y-43787728D01*
X33807583Y-43813095D01*
X34126310Y-44131822D01*
X34151682Y-44162738D01*
X34275021Y-44263959D01*
X34323740Y-44290000D01*
X30122630Y-44290000D01*
X30141726Y-44243898D01*
X30181500Y-44043939D01*
X30181500Y-43840061D01*
X30141726Y-43640102D01*
X30079070Y-43488839D01*
X30191014Y-43563637D01*
G37*
X30191014Y-43563637D02*
X30379372Y-43641658D01*
X30579331Y-43681432D01*
X30684122Y-43681432D01*
X30705795Y-43733756D01*
X30819063Y-43903274D01*
X30963226Y-44047437D01*
X31132744Y-44160705D01*
X31321102Y-44238726D01*
X31521061Y-44278500D01*
X31724939Y-44278500D01*
X31924898Y-44238726D01*
X32113256Y-44160705D01*
X32282774Y-44047437D01*
X32426937Y-43903274D01*
X32540205Y-43733756D01*
X32606376Y-43574006D01*
X32705722Y-43604143D01*
X32730304Y-43634096D01*
X32842149Y-43725884D01*
X32969752Y-43794090D01*
X33108209Y-43836090D01*
X33252200Y-43850272D01*
X33452200Y-43850272D01*
X33596191Y-43836090D01*
X33734648Y-43794090D01*
X33767488Y-43776536D01*
X33776673Y-43787728D01*
X33807583Y-43813095D01*
X34126310Y-44131822D01*
X34151682Y-44162738D01*
X34275021Y-44263959D01*
X34323740Y-44290000D01*
X30122630Y-44290000D01*
X30141726Y-44243898D01*
X30181500Y-44043939D01*
X30181500Y-43840061D01*
X30141726Y-43640102D01*
X30079070Y-43488839D01*
X30191014Y-43563637D01*
G36*
X31690505Y-31058018D02*
G01*
X31690505Y-31433992D01*
X29925371Y-29668859D01*
X29887726Y-29479602D01*
X29809705Y-29291244D01*
X29696437Y-29121726D01*
X29552274Y-28977563D01*
X29382756Y-28864295D01*
X29194398Y-28786274D01*
X28994439Y-28746500D01*
X28790561Y-28746500D01*
X28590602Y-28786274D01*
X28402244Y-28864295D01*
X28232726Y-28977563D01*
X28161901Y-29048388D01*
X27715500Y-28601988D01*
X27715500Y-27083012D01*
X31690505Y-31058018D01*
G37*
X31690505Y-31058018D02*
X31690505Y-31433992D01*
X29925371Y-29668859D01*
X29887726Y-29479602D01*
X29809705Y-29291244D01*
X29696437Y-29121726D01*
X29552274Y-28977563D01*
X29382756Y-28864295D01*
X29194398Y-28786274D01*
X28994439Y-28746500D01*
X28790561Y-28746500D01*
X28590602Y-28786274D01*
X28402244Y-28864295D01*
X28232726Y-28977563D01*
X28161901Y-29048388D01*
X27715500Y-28601988D01*
X27715500Y-27083012D01*
X31690505Y-31058018D01*
G36*
X25910274Y-19051398D02*
G01*
X25988295Y-19239756D01*
X26095501Y-19400202D01*
X26095500Y-28141988D01*
X25715500Y-27761988D01*
X25715500Y-19400200D01*
X25822705Y-19239756D01*
X25900726Y-19051398D01*
X25905500Y-19027397D01*
X25910274Y-19051398D01*
G37*
X25910274Y-19051398D02*
X25988295Y-19239756D01*
X26095501Y-19400202D01*
X26095500Y-28141988D01*
X25715500Y-27761988D01*
X25715500Y-19400200D01*
X25822705Y-19239756D01*
X25900726Y-19051398D01*
X25905500Y-19027397D01*
X25910274Y-19051398D01*
M02*
