G04 #@! TF.GenerationSoftware,KiCad,Pcbnew,(5.1.7)-1*
G04 #@! TF.CreationDate,2020-10-26T16:21:14+03:00*
G04 #@! TF.ProjectId,body_temp,626f6479-5f74-4656-9d70-2e6b69636164,rev?*
G04 #@! TF.SameCoordinates,Original*
G04 #@! TF.FileFunction,Legend,Top*
G04 #@! TF.FilePolarity,Positive*
%FSLAX46Y46*%
G04 Gerber Fmt 4.6, Leading zero omitted, Abs format (unit mm)*
G04 Created by KiCad (PCBNEW (5.1.7)-1) date 2020-10-26 16:21:14*
%MOMM*%
%LPD*%
G01*
G04 APERTURE LIST*
%ADD10C,0.150000*%
%ADD11C,0.175000*%
%ADD12C,0.120000*%
%ADD13C,0.802000*%
%ADD14C,1.402000*%
%ADD15C,1.552000*%
%ADD16O,1.302000X2.002000*%
G04 APERTURE END LIST*
D10*
X34036000Y-40005000D02*
X34290000Y-39878000D01*
X34036000Y-39751000D02*
X34036000Y-40005000D01*
X34290000Y-39878000D02*
X34036000Y-39751000D01*
X33528000Y-39878000D02*
X34290000Y-39878000D01*
X31242000Y-40640000D02*
G75*
G02*
X31242000Y-39116000I762000J762000D01*
G01*
X31496000Y-40386000D02*
G75*
G02*
X31496000Y-39370000I508000J508000D01*
G01*
X31750000Y-40132000D02*
G75*
G02*
X31750000Y-39624000I254000J254000D01*
G01*
X32258000Y-38608000D02*
X32766000Y-39116000D01*
X32258000Y-41148000D02*
X32258000Y-38608000D01*
X32766000Y-40640000D02*
X32258000Y-41148000D01*
X32766000Y-40640000D02*
X33274000Y-40640000D01*
X32766000Y-39116000D02*
X32766000Y-40640000D01*
X33274000Y-39116000D02*
X32766000Y-39116000D01*
X33274000Y-40640000D02*
X33274000Y-39116000D01*
X20476473Y-47515015D02*
X20759941Y-47498000D01*
X20603470Y-47734986D02*
X20476473Y-47515015D01*
X20759941Y-47498000D02*
X20603470Y-47734986D01*
X20100030Y-47879000D02*
X20759941Y-47498000D01*
D11*
X30158000Y-47052666D02*
X30158000Y-46352666D01*
X30424666Y-46352666D01*
X30491333Y-46386000D01*
X30524666Y-46419333D01*
X30558000Y-46486000D01*
X30558000Y-46586000D01*
X30524666Y-46652666D01*
X30491333Y-46686000D01*
X30424666Y-46719333D01*
X30158000Y-46719333D01*
X30858000Y-47052666D02*
X30858000Y-46586000D01*
X30858000Y-46719333D02*
X30891333Y-46652666D01*
X30924666Y-46619333D01*
X30991333Y-46586000D01*
X31058000Y-46586000D01*
X31391333Y-47052666D02*
X31324666Y-47019333D01*
X31291333Y-46986000D01*
X31258000Y-46919333D01*
X31258000Y-46719333D01*
X31291333Y-46652666D01*
X31324666Y-46619333D01*
X31391333Y-46586000D01*
X31491333Y-46586000D01*
X31558000Y-46619333D01*
X31591333Y-46652666D01*
X31624666Y-46719333D01*
X31624666Y-46919333D01*
X31591333Y-46986000D01*
X31558000Y-47019333D01*
X31491333Y-47052666D01*
X31391333Y-47052666D01*
X32224666Y-46586000D02*
X32224666Y-47152666D01*
X32191333Y-47219333D01*
X32158000Y-47252666D01*
X32091333Y-47286000D01*
X31991333Y-47286000D01*
X31924666Y-47252666D01*
X32224666Y-47019333D02*
X32158000Y-47052666D01*
X32024666Y-47052666D01*
X31958000Y-47019333D01*
X31924666Y-46986000D01*
X31891333Y-46919333D01*
X31891333Y-46719333D01*
X31924666Y-46652666D01*
X31958000Y-46619333D01*
X32024666Y-46586000D01*
X32158000Y-46586000D01*
X32224666Y-46619333D01*
X33191333Y-47052666D02*
X33124666Y-47019333D01*
X33091333Y-46952666D01*
X33091333Y-46352666D01*
X33724666Y-47019333D02*
X33658000Y-47052666D01*
X33524666Y-47052666D01*
X33458000Y-47019333D01*
X33424666Y-46952666D01*
X33424666Y-46686000D01*
X33458000Y-46619333D01*
X33524666Y-46586000D01*
X33658000Y-46586000D01*
X33724666Y-46619333D01*
X33758000Y-46686000D01*
X33758000Y-46752666D01*
X33424666Y-46819333D01*
X34358000Y-47052666D02*
X34358000Y-46352666D01*
X34358000Y-47019333D02*
X34291333Y-47052666D01*
X34158000Y-47052666D01*
X34091333Y-47019333D01*
X34058000Y-46986000D01*
X34024666Y-46919333D01*
X34024666Y-46719333D01*
X34058000Y-46652666D01*
X34091333Y-46619333D01*
X34158000Y-46586000D01*
X34291333Y-46586000D01*
X34358000Y-46619333D01*
D10*
X54260952Y-20010428D02*
X55022857Y-20010428D01*
X54641904Y-20391380D02*
X54641904Y-19629476D01*
X55499047Y-20010428D02*
X56260952Y-20010428D01*
X55880000Y-20391380D02*
X55880000Y-19629476D01*
X56737142Y-20010428D02*
X57499047Y-20010428D01*
X57118095Y-20391380D02*
X57118095Y-19629476D01*
X35626000Y-18773000D02*
X35992666Y-18773000D01*
X35626000Y-19239666D01*
X35992666Y-19239666D01*
X36459333Y-19506333D02*
X36426000Y-19473000D01*
X36359333Y-19373000D01*
X36326000Y-19306333D01*
X36292666Y-19206333D01*
X36259333Y-19039666D01*
X36259333Y-18906333D01*
X36292666Y-18739666D01*
X36326000Y-18639666D01*
X36359333Y-18573000D01*
X36426000Y-18473000D01*
X36459333Y-18439666D01*
X36859333Y-18906333D02*
X36859333Y-19239666D01*
X36626000Y-18539666D02*
X36859333Y-18906333D01*
X37092666Y-18539666D01*
X37259333Y-19506333D02*
X37292666Y-19473000D01*
X37359333Y-19373000D01*
X37392666Y-19306333D01*
X37426000Y-19206333D01*
X37459333Y-19039666D01*
X37459333Y-18906333D01*
X37426000Y-18739666D01*
X37392666Y-18639666D01*
X37359333Y-18573000D01*
X37292666Y-18473000D01*
X37259333Y-18439666D01*
X36322000Y-17907000D02*
G75*
G03*
X36322000Y-17907000I-254000J0D01*
G01*
X32544666Y-17757000D02*
X32711333Y-18223666D01*
X32878000Y-17757000D02*
X32711333Y-18223666D01*
X32644666Y-18390333D01*
X32611333Y-18423666D01*
X32544666Y-18457000D01*
X33344666Y-18490333D02*
X33311333Y-18457000D01*
X33244666Y-18357000D01*
X33211333Y-18290333D01*
X33178000Y-18190333D01*
X33144666Y-18023666D01*
X33144666Y-17890333D01*
X33178000Y-17723666D01*
X33211333Y-17623666D01*
X33244666Y-17557000D01*
X33311333Y-17457000D01*
X33344666Y-17423666D01*
X34011333Y-18223666D02*
X33778000Y-17890333D01*
X33611333Y-18223666D02*
X33611333Y-17523666D01*
X33878000Y-17523666D01*
X33944666Y-17557000D01*
X33978000Y-17590333D01*
X34011333Y-17657000D01*
X34011333Y-17757000D01*
X33978000Y-17823666D01*
X33944666Y-17857000D01*
X33878000Y-17890333D01*
X33611333Y-17890333D01*
X34244666Y-18490333D02*
X34278000Y-18457000D01*
X34344666Y-18357000D01*
X34378000Y-18290333D01*
X34411333Y-18190333D01*
X34444666Y-18023666D01*
X34444666Y-17890333D01*
X34411333Y-17723666D01*
X34378000Y-17623666D01*
X34344666Y-17557000D01*
X34278000Y-17457000D01*
X34244666Y-17423666D01*
X35068000Y-16191666D02*
X35434666Y-15725000D01*
X35068000Y-15725000D02*
X35434666Y-16191666D01*
X35901333Y-16458333D02*
X35868000Y-16425000D01*
X35801333Y-16325000D01*
X35768000Y-16258333D01*
X35734666Y-16158333D01*
X35701333Y-15991666D01*
X35701333Y-15858333D01*
X35734666Y-15691666D01*
X35768000Y-15591666D01*
X35801333Y-15525000D01*
X35868000Y-15425000D01*
X35901333Y-15391666D01*
X36168000Y-16191666D02*
X36168000Y-15491666D01*
X36434666Y-15491666D01*
X36501333Y-15525000D01*
X36534666Y-15558333D01*
X36568000Y-15625000D01*
X36568000Y-15725000D01*
X36534666Y-15791666D01*
X36501333Y-15825000D01*
X36434666Y-15858333D01*
X36168000Y-15858333D01*
X36801333Y-16458333D02*
X36834666Y-16425000D01*
X36901333Y-16325000D01*
X36934666Y-16258333D01*
X36968000Y-16158333D01*
X37001333Y-15991666D01*
X37001333Y-15858333D01*
X36968000Y-15691666D01*
X36934666Y-15591666D01*
X36901333Y-15525000D01*
X36834666Y-15425000D01*
X36801333Y-15391666D01*
X35052000Y-18034000D02*
X34798000Y-17907000D01*
X34798000Y-17907000D02*
X35052000Y-17780000D01*
X36068000Y-17907000D02*
X34798000Y-17907000D01*
X35052000Y-17780000D02*
X35052000Y-18034000D01*
X35941000Y-16891000D02*
X36068000Y-16637000D01*
X36195000Y-16891000D02*
X35941000Y-16891000D01*
X36068000Y-16637000D02*
X36195000Y-16891000D01*
X36068000Y-17907000D02*
X36068000Y-16637000D01*
D12*
X28485000Y-18359000D02*
X28485000Y-19009000D01*
X31205000Y-15789000D02*
X31055000Y-15789000D01*
X31205000Y-16439000D02*
X31205000Y-15789000D01*
X31205000Y-19009000D02*
X31055000Y-19009000D01*
X31205000Y-18359000D02*
X31205000Y-19009000D01*
X28485000Y-15789000D02*
X28635000Y-15789000D01*
X28485000Y-16439000D02*
X28485000Y-15789000D01*
X18265000Y-38981000D02*
X18265000Y-35481000D01*
X21365000Y-35481000D02*
X21365000Y-38981000D01*
X17615000Y-36281000D02*
X18265000Y-36281000D01*
X17615000Y-38181000D02*
X17615000Y-36281000D01*
X18265000Y-38181000D02*
X17615000Y-38181000D01*
X25487000Y-18702500D02*
X25487000Y-22202500D01*
X17987000Y-18702500D02*
X25487000Y-18702500D01*
X17987000Y-22202500D02*
X17987000Y-18702500D01*
X25487000Y-22202500D02*
X17987000Y-22202500D01*
X45500000Y-19764000D02*
X45050000Y-19764000D01*
X45500000Y-17914000D02*
X45500000Y-19764000D01*
X37700000Y-15364000D02*
X37700000Y-15614000D01*
X45500000Y-15364000D02*
X45500000Y-15614000D01*
X37700000Y-17914000D02*
X37700000Y-19764000D01*
X37700000Y-19764000D02*
X38150000Y-19764000D01*
X43300000Y-20314000D02*
X42850000Y-20314000D01*
X43300000Y-20314000D02*
X43300000Y-19864000D01*
X53868000Y-25200000D02*
X53868000Y-22750000D01*
X50648000Y-23400000D02*
X50648000Y-25200000D01*
X57396000Y-51490000D02*
X41156000Y-51490000D01*
X41156000Y-51490000D02*
X41156000Y-43870000D01*
X41156000Y-27870000D02*
X41156000Y-27250000D01*
X41156000Y-27250000D02*
X43276000Y-27250000D01*
X55276000Y-27250000D02*
X57396000Y-27250000D01*
X57396000Y-27250000D02*
X57396000Y-27870000D01*
X57396000Y-43870000D02*
X57396000Y-51490000D01*
X57396000Y-43870000D02*
X58006000Y-43870000D01*
X41951000Y-37616000D02*
X41951000Y-42116000D01*
X41951000Y-42116000D02*
X38451000Y-42116000D01*
X38451000Y-42116000D02*
X38451000Y-37616000D01*
X38451000Y-37616000D02*
X41951000Y-37616000D01*
X29813000Y-39982500D02*
X27363000Y-39982500D01*
X28013000Y-43202500D02*
X29813000Y-43202500D01*
X25368000Y-39980000D02*
X22918000Y-39980000D01*
X23568000Y-43200000D02*
X25368000Y-43200000D01*
X33531742Y-44464500D02*
X34006258Y-44464500D01*
X33531742Y-43419500D02*
X34006258Y-43419500D01*
X25861742Y-44528000D02*
X26336258Y-44528000D01*
X25861742Y-43483000D02*
X26336258Y-43483000D01*
X20652000Y-45449758D02*
X20652000Y-44975242D01*
X19607000Y-45449758D02*
X19607000Y-44975242D01*
X20653742Y-43448500D02*
X21128258Y-43448500D01*
X20653742Y-42403500D02*
X21128258Y-42403500D01*
X19371500Y-42337258D02*
X19371500Y-41862742D01*
X18326500Y-42337258D02*
X18326500Y-41862742D01*
X24398500Y-38909258D02*
X24398500Y-38434742D01*
X23353500Y-38909258D02*
X23353500Y-38434742D01*
X27224258Y-38784000D02*
X26749742Y-38784000D01*
X27224258Y-39829000D02*
X26749742Y-39829000D01*
X33641500Y-44604000D02*
X31356500Y-44604000D01*
X33641500Y-46074000D02*
X33641500Y-44604000D01*
X31356500Y-46074000D02*
X33641500Y-46074000D01*
X22616000Y-42379000D02*
X20066000Y-42379000D01*
X22616000Y-40679000D02*
X20066000Y-40679000D01*
X22616000Y-42379000D02*
X22616000Y-40679000D01*
X35052000Y-31476000D02*
X31602000Y-31476000D01*
X35052000Y-31476000D02*
X37002000Y-31476000D01*
X35052000Y-36596000D02*
X33102000Y-36596000D01*
X35052000Y-36596000D02*
X37002000Y-36596000D01*
X35676000Y-23200000D02*
X38126000Y-23200000D01*
X37476000Y-19980000D02*
X35676000Y-19980000D01*
X48546000Y-18247000D02*
X50996000Y-18247000D01*
X50346000Y-15027000D02*
X48546000Y-15027000D01*
X57545500Y-24177258D02*
X57545500Y-23702742D01*
X56500500Y-24177258D02*
X56500500Y-23702742D01*
X50048000Y-20281000D02*
X47498000Y-20281000D01*
X50048000Y-18581000D02*
X47498000Y-18581000D01*
X50048000Y-20281000D02*
X50048000Y-18581000D01*
X54993000Y-24115580D02*
X54993000Y-23834420D01*
X53973000Y-24115580D02*
X53973000Y-23834420D01*
X37972420Y-30990000D02*
X38253580Y-30990000D01*
X37972420Y-29970000D02*
X38253580Y-29970000D01*
X29227500Y-33043000D02*
X29227500Y-36953000D01*
X31097500Y-33043000D02*
X29227500Y-33043000D01*
X31097500Y-36953000D02*
X31097500Y-33043000D01*
X33147580Y-36574000D02*
X32866420Y-36574000D01*
X33147580Y-37594000D02*
X32866420Y-37594000D01*
X18349500Y-45058420D02*
X18349500Y-45339580D01*
X19369500Y-45058420D02*
X19369500Y-45339580D01*
X22096000Y-38581420D02*
X22096000Y-38862580D01*
X23116000Y-38581420D02*
X23116000Y-38862580D01*
X33911000Y-25441080D02*
X33911000Y-25159920D01*
X32891000Y-25441080D02*
X32891000Y-25159920D01*
X45908500Y-16001420D02*
X45908500Y-16282580D01*
X46928500Y-16001420D02*
X46928500Y-16282580D01*
X52322000Y-17499420D02*
X52322000Y-17780580D01*
X53342000Y-17499420D02*
X53342000Y-17780580D01*
X22526258Y-43800500D02*
X22051742Y-43800500D01*
X22526258Y-44845500D02*
X22051742Y-44845500D01*
X22050742Y-47639500D02*
X22525258Y-47639500D01*
X22050742Y-46594500D02*
X22525258Y-46594500D01*
X27615000Y-46341000D02*
X27615000Y-47801000D01*
X24455000Y-46341000D02*
X24455000Y-48501000D01*
X24455000Y-46341000D02*
X25385000Y-46341000D01*
X27615000Y-46341000D02*
X26685000Y-46341000D01*
X39162258Y-36561500D02*
X38687742Y-36561500D01*
X39162258Y-37606500D02*
X38687742Y-37606500D01*
X54427000Y-20401000D02*
X50517000Y-20401000D01*
X54427000Y-22271000D02*
X54427000Y-20401000D01*
X50517000Y-22271000D02*
X54427000Y-22271000D01*
X43485000Y-25978000D02*
X44210000Y-25978000D01*
X38990000Y-20758000D02*
X38990000Y-21483000D01*
X39715000Y-20758000D02*
X38990000Y-20758000D01*
X44210000Y-20758000D02*
X44210000Y-21483000D01*
X43485000Y-20758000D02*
X44210000Y-20758000D01*
X38990000Y-25978000D02*
X38990000Y-25253000D01*
X39715000Y-25978000D02*
X38990000Y-25978000D01*
X20478000Y-32542000D02*
X20478000Y-33882000D01*
X19528000Y-32542000D02*
X20478000Y-32542000D01*
X19528000Y-31592000D02*
X19528000Y-32542000D01*
X19528000Y-22322000D02*
X20478000Y-22322000D01*
X19528000Y-23272000D02*
X19528000Y-22322000D01*
X29748000Y-32542000D02*
X28798000Y-32542000D01*
X29748000Y-31592000D02*
X29748000Y-32542000D01*
X29748000Y-22322000D02*
X28798000Y-22322000D01*
X29748000Y-23272000D02*
X29748000Y-22322000D01*
X25987742Y-35447500D02*
X26462258Y-35447500D01*
X25987742Y-34402500D02*
X26462258Y-34402500D01*
X56275500Y-24177258D02*
X56275500Y-23702742D01*
X55230500Y-24177258D02*
X55230500Y-23702742D01*
X35767742Y-37606500D02*
X36242258Y-37606500D01*
X35767742Y-36561500D02*
X36242258Y-36561500D01*
X22525258Y-48044500D02*
X22050742Y-48044500D01*
X22525258Y-49089500D02*
X22050742Y-49089500D01*
X31608500Y-25113242D02*
X31608500Y-25587758D01*
X32653500Y-25113242D02*
X32653500Y-25587758D01*
X22526258Y-45144500D02*
X22051742Y-45144500D01*
X22526258Y-46189500D02*
X22051742Y-46189500D01*
X24977500Y-34190000D02*
X22692500Y-34190000D01*
X24977500Y-35660000D02*
X24977500Y-34190000D01*
X22692500Y-35660000D02*
X24977500Y-35660000D01*
X46531500Y-24412500D02*
X49481500Y-24412500D01*
X48931500Y-21312500D02*
X46531500Y-21312500D01*
X40559000Y-35758000D02*
X40559000Y-31848000D01*
X38689000Y-35758000D02*
X40559000Y-35758000D01*
X38689000Y-31848000D02*
X38689000Y-35758000D01*
X37933920Y-29656500D02*
X38215080Y-29656500D01*
X37933920Y-28636500D02*
X38215080Y-28636500D01*
X46928500Y-19177580D02*
X46928500Y-18896420D01*
X45908500Y-19177580D02*
X45908500Y-18896420D01*
D10*
X53038380Y-17732333D02*
X53752666Y-17732333D01*
X53895523Y-17779952D01*
X53990761Y-17875190D01*
X54038380Y-18018047D01*
X54038380Y-18113285D01*
X53133619Y-17303761D02*
X53086000Y-17256142D01*
X53038380Y-17160904D01*
X53038380Y-16922809D01*
X53086000Y-16827571D01*
X53133619Y-16779952D01*
X53228857Y-16732333D01*
X53324095Y-16732333D01*
X53466952Y-16779952D01*
X54038380Y-17351380D01*
X54038380Y-16732333D01*
X31772333Y-15237666D02*
X31772333Y-15804333D01*
X31805666Y-15871000D01*
X31839000Y-15904333D01*
X31905666Y-15937666D01*
X32039000Y-15937666D01*
X32105666Y-15904333D01*
X32139000Y-15871000D01*
X32172333Y-15804333D01*
X32172333Y-15237666D01*
X32872333Y-15937666D02*
X32472333Y-15937666D01*
X32672333Y-15937666D02*
X32672333Y-15237666D01*
X32605666Y-15337666D01*
X32539000Y-15404333D01*
X32472333Y-15437666D01*
X33539000Y-15937666D02*
X33139000Y-15937666D01*
X33339000Y-15937666D02*
X33339000Y-15237666D01*
X33272333Y-15337666D01*
X33205666Y-15404333D01*
X33139000Y-15437666D01*
X18022666Y-33557333D02*
X18122666Y-33590666D01*
X18289333Y-33590666D01*
X18356000Y-33557333D01*
X18389333Y-33524000D01*
X18422666Y-33457333D01*
X18422666Y-33390666D01*
X18389333Y-33324000D01*
X18356000Y-33290666D01*
X18289333Y-33257333D01*
X18156000Y-33224000D01*
X18089333Y-33190666D01*
X18056000Y-33157333D01*
X18022666Y-33090666D01*
X18022666Y-33024000D01*
X18056000Y-32957333D01*
X18089333Y-32924000D01*
X18156000Y-32890666D01*
X18322666Y-32890666D01*
X18422666Y-32924000D01*
X18656000Y-32890666D02*
X18822666Y-33590666D01*
X18956000Y-33090666D01*
X19089333Y-33590666D01*
X19256000Y-32890666D01*
X19489333Y-32957333D02*
X19522666Y-32924000D01*
X19589333Y-32890666D01*
X19756000Y-32890666D01*
X19822666Y-32924000D01*
X19856000Y-32957333D01*
X19889333Y-33024000D01*
X19889333Y-33090666D01*
X19856000Y-33190666D01*
X19456000Y-33590666D01*
X19889333Y-33590666D01*
X21383666Y-17470880D02*
X21383666Y-18185166D01*
X21336047Y-18328023D01*
X21240809Y-18423261D01*
X21097952Y-18470880D01*
X21002714Y-18470880D01*
X22288428Y-17804214D02*
X22288428Y-18470880D01*
X22050333Y-17423261D02*
X21812238Y-18137547D01*
X22431285Y-18137547D01*
X41266666Y-20566380D02*
X41266666Y-21280666D01*
X41219047Y-21423523D01*
X41123809Y-21518761D01*
X40980952Y-21566380D01*
X40885714Y-21566380D01*
X42266666Y-21566380D02*
X41695238Y-21566380D01*
X41980952Y-21566380D02*
X41980952Y-20566380D01*
X41885714Y-20709238D01*
X41790476Y-20804476D01*
X41695238Y-20852095D01*
X53822666Y-25524666D02*
X53822666Y-26091333D01*
X53856000Y-26158000D01*
X53889333Y-26191333D01*
X53956000Y-26224666D01*
X54089333Y-26224666D01*
X54156000Y-26191333D01*
X54189333Y-26158000D01*
X54222666Y-26091333D01*
X54222666Y-25524666D01*
X54589333Y-26224666D02*
X54722666Y-26224666D01*
X54789333Y-26191333D01*
X54822666Y-26158000D01*
X54889333Y-26058000D01*
X54922666Y-25924666D01*
X54922666Y-25658000D01*
X54889333Y-25591333D01*
X54856000Y-25558000D01*
X54789333Y-25524666D01*
X54656000Y-25524666D01*
X54589333Y-25558000D01*
X54556000Y-25591333D01*
X54522666Y-25658000D01*
X54522666Y-25824666D01*
X54556000Y-25891333D01*
X54589333Y-25924666D01*
X54656000Y-25958000D01*
X54789333Y-25958000D01*
X54856000Y-25924666D01*
X54889333Y-25891333D01*
X54922666Y-25824666D01*
X39243095Y-45045380D02*
X39243095Y-45854904D01*
X39290714Y-45950142D01*
X39338333Y-45997761D01*
X39433571Y-46045380D01*
X39624047Y-46045380D01*
X39719285Y-45997761D01*
X39766904Y-45950142D01*
X39814523Y-45854904D01*
X39814523Y-45045380D01*
X40766904Y-45045380D02*
X40290714Y-45045380D01*
X40243095Y-45521571D01*
X40290714Y-45473952D01*
X40385952Y-45426333D01*
X40624047Y-45426333D01*
X40719285Y-45473952D01*
X40766904Y-45521571D01*
X40814523Y-45616809D01*
X40814523Y-45854904D01*
X40766904Y-45950142D01*
X40719285Y-45997761D01*
X40624047Y-46045380D01*
X40385952Y-46045380D01*
X40290714Y-45997761D01*
X40243095Y-45950142D01*
X39263666Y-42796666D02*
X39263666Y-43296666D01*
X39230333Y-43396666D01*
X39163666Y-43463333D01*
X39063666Y-43496666D01*
X38997000Y-43496666D01*
X39530333Y-42796666D02*
X39963666Y-42796666D01*
X39730333Y-43063333D01*
X39830333Y-43063333D01*
X39897000Y-43096666D01*
X39930333Y-43130000D01*
X39963666Y-43196666D01*
X39963666Y-43363333D01*
X39930333Y-43430000D01*
X39897000Y-43463333D01*
X39830333Y-43496666D01*
X39630333Y-43496666D01*
X39563666Y-43463333D01*
X39530333Y-43430000D01*
X28470333Y-38986666D02*
X28470333Y-39553333D01*
X28503666Y-39620000D01*
X28537000Y-39653333D01*
X28603666Y-39686666D01*
X28737000Y-39686666D01*
X28803666Y-39653333D01*
X28837000Y-39620000D01*
X28870333Y-39553333D01*
X28870333Y-38986666D01*
X29570333Y-39686666D02*
X29170333Y-39686666D01*
X29370333Y-39686666D02*
X29370333Y-38986666D01*
X29303666Y-39086666D01*
X29237000Y-39153333D01*
X29170333Y-39186666D01*
X30003666Y-38986666D02*
X30070333Y-38986666D01*
X30137000Y-39020000D01*
X30170333Y-39053333D01*
X30203666Y-39120000D01*
X30237000Y-39253333D01*
X30237000Y-39420000D01*
X30203666Y-39553333D01*
X30170333Y-39620000D01*
X30137000Y-39653333D01*
X30070333Y-39686666D01*
X30003666Y-39686666D01*
X29937000Y-39653333D01*
X29903666Y-39620000D01*
X29870333Y-39553333D01*
X29837000Y-39420000D01*
X29837000Y-39253333D01*
X29870333Y-39120000D01*
X29903666Y-39053333D01*
X29937000Y-39020000D01*
X30003666Y-38986666D01*
X24127666Y-42316333D02*
X24694333Y-42316333D01*
X24761000Y-42283000D01*
X24794333Y-42249666D01*
X24827666Y-42183000D01*
X24827666Y-42049666D01*
X24794333Y-41983000D01*
X24761000Y-41949666D01*
X24694333Y-41916333D01*
X24127666Y-41916333D01*
X24427666Y-41483000D02*
X24394333Y-41549666D01*
X24361000Y-41583000D01*
X24294333Y-41616333D01*
X24261000Y-41616333D01*
X24194333Y-41583000D01*
X24161000Y-41549666D01*
X24127666Y-41483000D01*
X24127666Y-41349666D01*
X24161000Y-41283000D01*
X24194333Y-41249666D01*
X24261000Y-41216333D01*
X24294333Y-41216333D01*
X24361000Y-41249666D01*
X24394333Y-41283000D01*
X24427666Y-41349666D01*
X24427666Y-41483000D01*
X24461000Y-41549666D01*
X24494333Y-41583000D01*
X24561000Y-41616333D01*
X24694333Y-41616333D01*
X24761000Y-41583000D01*
X24794333Y-41549666D01*
X24827666Y-41483000D01*
X24827666Y-41349666D01*
X24794333Y-41283000D01*
X24761000Y-41249666D01*
X24694333Y-41216333D01*
X24561000Y-41216333D01*
X24494333Y-41249666D01*
X24461000Y-41283000D01*
X24427666Y-41349666D01*
X33332000Y-43115666D02*
X33098666Y-42782333D01*
X32932000Y-43115666D02*
X32932000Y-42415666D01*
X33198666Y-42415666D01*
X33265333Y-42449000D01*
X33298666Y-42482333D01*
X33332000Y-42549000D01*
X33332000Y-42649000D01*
X33298666Y-42715666D01*
X33265333Y-42749000D01*
X33198666Y-42782333D01*
X32932000Y-42782333D01*
X33598666Y-42482333D02*
X33632000Y-42449000D01*
X33698666Y-42415666D01*
X33865333Y-42415666D01*
X33932000Y-42449000D01*
X33965333Y-42482333D01*
X33998666Y-42549000D01*
X33998666Y-42615666D01*
X33965333Y-42715666D01*
X33565333Y-43115666D01*
X33998666Y-43115666D01*
X34232000Y-42415666D02*
X34665333Y-42415666D01*
X34432000Y-42682333D01*
X34532000Y-42682333D01*
X34598666Y-42715666D01*
X34632000Y-42749000D01*
X34665333Y-42815666D01*
X34665333Y-42982333D01*
X34632000Y-43049000D01*
X34598666Y-43082333D01*
X34532000Y-43115666D01*
X34332000Y-43115666D01*
X34265333Y-43082333D01*
X34232000Y-43049000D01*
X28379000Y-44258666D02*
X28145666Y-43925333D01*
X27979000Y-44258666D02*
X27979000Y-43558666D01*
X28245666Y-43558666D01*
X28312333Y-43592000D01*
X28345666Y-43625333D01*
X28379000Y-43692000D01*
X28379000Y-43792000D01*
X28345666Y-43858666D01*
X28312333Y-43892000D01*
X28245666Y-43925333D01*
X27979000Y-43925333D01*
X28645666Y-43625333D02*
X28679000Y-43592000D01*
X28745666Y-43558666D01*
X28912333Y-43558666D01*
X28979000Y-43592000D01*
X29012333Y-43625333D01*
X29045666Y-43692000D01*
X29045666Y-43758666D01*
X29012333Y-43858666D01*
X28612333Y-44258666D01*
X29045666Y-44258666D01*
X29312333Y-43625333D02*
X29345666Y-43592000D01*
X29412333Y-43558666D01*
X29579000Y-43558666D01*
X29645666Y-43592000D01*
X29679000Y-43625333D01*
X29712333Y-43692000D01*
X29712333Y-43758666D01*
X29679000Y-43858666D01*
X29279000Y-44258666D01*
X29712333Y-44258666D01*
X19489000Y-47179666D02*
X19255666Y-46846333D01*
X19089000Y-47179666D02*
X19089000Y-46479666D01*
X19355666Y-46479666D01*
X19422333Y-46513000D01*
X19455666Y-46546333D01*
X19489000Y-46613000D01*
X19489000Y-46713000D01*
X19455666Y-46779666D01*
X19422333Y-46813000D01*
X19355666Y-46846333D01*
X19089000Y-46846333D01*
X19755666Y-46546333D02*
X19789000Y-46513000D01*
X19855666Y-46479666D01*
X20022333Y-46479666D01*
X20089000Y-46513000D01*
X20122333Y-46546333D01*
X20155666Y-46613000D01*
X20155666Y-46679666D01*
X20122333Y-46779666D01*
X19722333Y-47179666D01*
X20155666Y-47179666D01*
X20822333Y-47179666D02*
X20422333Y-47179666D01*
X20622333Y-47179666D02*
X20622333Y-46479666D01*
X20555666Y-46579666D01*
X20489000Y-46646333D01*
X20422333Y-46679666D01*
X21267000Y-44385666D02*
X21033666Y-44052333D01*
X20867000Y-44385666D02*
X20867000Y-43685666D01*
X21133666Y-43685666D01*
X21200333Y-43719000D01*
X21233666Y-43752333D01*
X21267000Y-43819000D01*
X21267000Y-43919000D01*
X21233666Y-43985666D01*
X21200333Y-44019000D01*
X21133666Y-44052333D01*
X20867000Y-44052333D01*
X21533666Y-43752333D02*
X21567000Y-43719000D01*
X21633666Y-43685666D01*
X21800333Y-43685666D01*
X21867000Y-43719000D01*
X21900333Y-43752333D01*
X21933666Y-43819000D01*
X21933666Y-43885666D01*
X21900333Y-43985666D01*
X21500333Y-44385666D01*
X21933666Y-44385666D01*
X22367000Y-43685666D02*
X22433666Y-43685666D01*
X22500333Y-43719000D01*
X22533666Y-43752333D01*
X22567000Y-43819000D01*
X22600333Y-43952333D01*
X22600333Y-44119000D01*
X22567000Y-44252333D01*
X22533666Y-44319000D01*
X22500333Y-44352333D01*
X22433666Y-44385666D01*
X22367000Y-44385666D01*
X22300333Y-44352333D01*
X22267000Y-44319000D01*
X22233666Y-44252333D01*
X22200333Y-44119000D01*
X22200333Y-43952333D01*
X22233666Y-43819000D01*
X22267000Y-43752333D01*
X22300333Y-43719000D01*
X22367000Y-43685666D01*
X18346000Y-42480666D02*
X18112666Y-42147333D01*
X17946000Y-42480666D02*
X17946000Y-41780666D01*
X18212666Y-41780666D01*
X18279333Y-41814000D01*
X18312666Y-41847333D01*
X18346000Y-41914000D01*
X18346000Y-42014000D01*
X18312666Y-42080666D01*
X18279333Y-42114000D01*
X18212666Y-42147333D01*
X17946000Y-42147333D01*
X19012666Y-42480666D02*
X18612666Y-42480666D01*
X18812666Y-42480666D02*
X18812666Y-41780666D01*
X18746000Y-41880666D01*
X18679333Y-41947333D01*
X18612666Y-41980666D01*
X19646000Y-41780666D02*
X19312666Y-41780666D01*
X19279333Y-42114000D01*
X19312666Y-42080666D01*
X19379333Y-42047333D01*
X19546000Y-42047333D01*
X19612666Y-42080666D01*
X19646000Y-42114000D01*
X19679333Y-42180666D01*
X19679333Y-42347333D01*
X19646000Y-42414000D01*
X19612666Y-42447333D01*
X19546000Y-42480666D01*
X19379333Y-42480666D01*
X19312666Y-42447333D01*
X19279333Y-42414000D01*
X25013500Y-38035666D02*
X24780166Y-37702333D01*
X24613500Y-38035666D02*
X24613500Y-37335666D01*
X24880166Y-37335666D01*
X24946833Y-37369000D01*
X24980166Y-37402333D01*
X25013500Y-37469000D01*
X25013500Y-37569000D01*
X24980166Y-37635666D01*
X24946833Y-37669000D01*
X24880166Y-37702333D01*
X24613500Y-37702333D01*
X25680166Y-38035666D02*
X25280166Y-38035666D01*
X25480166Y-38035666D02*
X25480166Y-37335666D01*
X25413500Y-37435666D01*
X25346833Y-37502333D01*
X25280166Y-37535666D01*
X26280166Y-37569000D02*
X26280166Y-38035666D01*
X26113500Y-37302333D02*
X25946833Y-37802333D01*
X26380166Y-37802333D01*
X27061333Y-38543666D02*
X26828000Y-38210333D01*
X26661333Y-38543666D02*
X26661333Y-37843666D01*
X26928000Y-37843666D01*
X26994666Y-37877000D01*
X27028000Y-37910333D01*
X27061333Y-37977000D01*
X27061333Y-38077000D01*
X27028000Y-38143666D01*
X26994666Y-38177000D01*
X26928000Y-38210333D01*
X26661333Y-38210333D01*
X27661333Y-37843666D02*
X27528000Y-37843666D01*
X27461333Y-37877000D01*
X27428000Y-37910333D01*
X27361333Y-38010333D01*
X27328000Y-38143666D01*
X27328000Y-38410333D01*
X27361333Y-38477000D01*
X27394666Y-38510333D01*
X27461333Y-38543666D01*
X27594666Y-38543666D01*
X27661333Y-38510333D01*
X27694666Y-38477000D01*
X27728000Y-38410333D01*
X27728000Y-38243666D01*
X27694666Y-38177000D01*
X27661333Y-38143666D01*
X27594666Y-38110333D01*
X27461333Y-38110333D01*
X27394666Y-38143666D01*
X27361333Y-38177000D01*
X27328000Y-38243666D01*
X31106333Y-44258666D02*
X31106333Y-43558666D01*
X31273000Y-43558666D01*
X31373000Y-43592000D01*
X31439666Y-43658666D01*
X31473000Y-43725333D01*
X31506333Y-43858666D01*
X31506333Y-43958666D01*
X31473000Y-44092000D01*
X31439666Y-44158666D01*
X31373000Y-44225333D01*
X31273000Y-44258666D01*
X31106333Y-44258666D01*
X31739666Y-43558666D02*
X32206333Y-43558666D01*
X31906333Y-44258666D01*
X20692333Y-41845666D02*
X20692333Y-41145666D01*
X20859000Y-41145666D01*
X20959000Y-41179000D01*
X21025666Y-41245666D01*
X21059000Y-41312333D01*
X21092333Y-41445666D01*
X21092333Y-41545666D01*
X21059000Y-41679000D01*
X21025666Y-41745666D01*
X20959000Y-41812333D01*
X20859000Y-41845666D01*
X20692333Y-41845666D01*
X21692333Y-41145666D02*
X21559000Y-41145666D01*
X21492333Y-41179000D01*
X21459000Y-41212333D01*
X21392333Y-41312333D01*
X21359000Y-41445666D01*
X21359000Y-41712333D01*
X21392333Y-41779000D01*
X21425666Y-41812333D01*
X21492333Y-41845666D01*
X21625666Y-41845666D01*
X21692333Y-41812333D01*
X21725666Y-41779000D01*
X21759000Y-41712333D01*
X21759000Y-41545666D01*
X21725666Y-41479000D01*
X21692333Y-41445666D01*
X21625666Y-41412333D01*
X21492333Y-41412333D01*
X21425666Y-41445666D01*
X21392333Y-41479000D01*
X21359000Y-41545666D01*
X32994666Y-30477666D02*
X32994666Y-31044333D01*
X33028000Y-31111000D01*
X33061333Y-31144333D01*
X33128000Y-31177666D01*
X33261333Y-31177666D01*
X33328000Y-31144333D01*
X33361333Y-31111000D01*
X33394666Y-31044333D01*
X33394666Y-30477666D01*
X33661333Y-30477666D02*
X34128000Y-30477666D01*
X33828000Y-31177666D01*
X36042666Y-23492666D02*
X36042666Y-24059333D01*
X36076000Y-24126000D01*
X36109333Y-24159333D01*
X36176000Y-24192666D01*
X36309333Y-24192666D01*
X36376000Y-24159333D01*
X36409333Y-24126000D01*
X36442666Y-24059333D01*
X36442666Y-23492666D01*
X37076000Y-23492666D02*
X36942666Y-23492666D01*
X36876000Y-23526000D01*
X36842666Y-23559333D01*
X36776000Y-23659333D01*
X36742666Y-23792666D01*
X36742666Y-24059333D01*
X36776000Y-24126000D01*
X36809333Y-24159333D01*
X36876000Y-24192666D01*
X37009333Y-24192666D01*
X37076000Y-24159333D01*
X37109333Y-24126000D01*
X37142666Y-24059333D01*
X37142666Y-23892666D01*
X37109333Y-23826000D01*
X37076000Y-23792666D01*
X37009333Y-23759333D01*
X36876000Y-23759333D01*
X36809333Y-23792666D01*
X36776000Y-23826000D01*
X36742666Y-23892666D01*
X48615666Y-16380666D02*
X48615666Y-16947333D01*
X48649000Y-17014000D01*
X48682333Y-17047333D01*
X48749000Y-17080666D01*
X48882333Y-17080666D01*
X48949000Y-17047333D01*
X48982333Y-17014000D01*
X49015666Y-16947333D01*
X49015666Y-16380666D01*
X49315666Y-16447333D02*
X49349000Y-16414000D01*
X49415666Y-16380666D01*
X49582333Y-16380666D01*
X49649000Y-16414000D01*
X49682333Y-16447333D01*
X49715666Y-16514000D01*
X49715666Y-16580666D01*
X49682333Y-16680666D01*
X49282333Y-17080666D01*
X49715666Y-17080666D01*
X57212666Y-26279666D02*
X56879333Y-26513000D01*
X57212666Y-26679666D02*
X56512666Y-26679666D01*
X56512666Y-26413000D01*
X56546000Y-26346333D01*
X56579333Y-26313000D01*
X56646000Y-26279666D01*
X56746000Y-26279666D01*
X56812666Y-26313000D01*
X56846000Y-26346333D01*
X56879333Y-26413000D01*
X56879333Y-26679666D01*
X57212666Y-25613000D02*
X57212666Y-26013000D01*
X57212666Y-25813000D02*
X56512666Y-25813000D01*
X56612666Y-25879666D01*
X56679333Y-25946333D01*
X56712666Y-26013000D01*
X50283333Y-19747666D02*
X50283333Y-19047666D01*
X50450000Y-19047666D01*
X50550000Y-19081000D01*
X50616666Y-19147666D01*
X50650000Y-19214333D01*
X50683333Y-19347666D01*
X50683333Y-19447666D01*
X50650000Y-19581000D01*
X50616666Y-19647666D01*
X50550000Y-19714333D01*
X50450000Y-19747666D01*
X50283333Y-19747666D01*
X51350000Y-19747666D02*
X50950000Y-19747666D01*
X51150000Y-19747666D02*
X51150000Y-19047666D01*
X51083333Y-19147666D01*
X51016666Y-19214333D01*
X50950000Y-19247666D01*
X55114000Y-22040000D02*
X55147333Y-22073333D01*
X55180666Y-22173333D01*
X55180666Y-22240000D01*
X55147333Y-22340000D01*
X55080666Y-22406666D01*
X55014000Y-22440000D01*
X54880666Y-22473333D01*
X54780666Y-22473333D01*
X54647333Y-22440000D01*
X54580666Y-22406666D01*
X54514000Y-22340000D01*
X54480666Y-22240000D01*
X54480666Y-22173333D01*
X54514000Y-22073333D01*
X54547333Y-22040000D01*
X55180666Y-21373333D02*
X55180666Y-21773333D01*
X55180666Y-21573333D02*
X54480666Y-21573333D01*
X54580666Y-21640000D01*
X54647333Y-21706666D01*
X54680666Y-21773333D01*
X54480666Y-20740000D02*
X54480666Y-21073333D01*
X54814000Y-21106666D01*
X54780666Y-21073333D01*
X54747333Y-21006666D01*
X54747333Y-20840000D01*
X54780666Y-20773333D01*
X54814000Y-20740000D01*
X54880666Y-20706666D01*
X55047333Y-20706666D01*
X55114000Y-20740000D01*
X55147333Y-20773333D01*
X55180666Y-20840000D01*
X55180666Y-21006666D01*
X55147333Y-21073333D01*
X55114000Y-21106666D01*
X35110000Y-30984000D02*
X35076666Y-31017333D01*
X34976666Y-31050666D01*
X34910000Y-31050666D01*
X34810000Y-31017333D01*
X34743333Y-30950666D01*
X34710000Y-30884000D01*
X34676666Y-30750666D01*
X34676666Y-30650666D01*
X34710000Y-30517333D01*
X34743333Y-30450666D01*
X34810000Y-30384000D01*
X34910000Y-30350666D01*
X34976666Y-30350666D01*
X35076666Y-30384000D01*
X35110000Y-30417333D01*
X35776666Y-31050666D02*
X35376666Y-31050666D01*
X35576666Y-31050666D02*
X35576666Y-30350666D01*
X35510000Y-30450666D01*
X35443333Y-30517333D01*
X35376666Y-30550666D01*
X36376666Y-30584000D02*
X36376666Y-31050666D01*
X36210000Y-30317333D02*
X36043333Y-30817333D01*
X36476666Y-30817333D01*
X29712500Y-38350000D02*
X29679166Y-38383333D01*
X29579166Y-38416666D01*
X29512500Y-38416666D01*
X29412500Y-38383333D01*
X29345833Y-38316666D01*
X29312500Y-38250000D01*
X29279166Y-38116666D01*
X29279166Y-38016666D01*
X29312500Y-37883333D01*
X29345833Y-37816666D01*
X29412500Y-37750000D01*
X29512500Y-37716666D01*
X29579166Y-37716666D01*
X29679166Y-37750000D01*
X29712500Y-37783333D01*
X30379166Y-38416666D02*
X29979166Y-38416666D01*
X30179166Y-38416666D02*
X30179166Y-37716666D01*
X30112500Y-37816666D01*
X30045833Y-37883333D01*
X29979166Y-37916666D01*
X30612500Y-37716666D02*
X31045833Y-37716666D01*
X30812500Y-37983333D01*
X30912500Y-37983333D01*
X30979166Y-38016666D01*
X31012500Y-38050000D01*
X31045833Y-38116666D01*
X31045833Y-38283333D01*
X31012500Y-38350000D01*
X30979166Y-38383333D01*
X30912500Y-38416666D01*
X30712500Y-38416666D01*
X30645833Y-38383333D01*
X30612500Y-38350000D01*
X32557000Y-38477000D02*
X32523666Y-38510333D01*
X32423666Y-38543666D01*
X32357000Y-38543666D01*
X32257000Y-38510333D01*
X32190333Y-38443666D01*
X32157000Y-38377000D01*
X32123666Y-38243666D01*
X32123666Y-38143666D01*
X32157000Y-38010333D01*
X32190333Y-37943666D01*
X32257000Y-37877000D01*
X32357000Y-37843666D01*
X32423666Y-37843666D01*
X32523666Y-37877000D01*
X32557000Y-37910333D01*
X33223666Y-38543666D02*
X32823666Y-38543666D01*
X33023666Y-38543666D02*
X33023666Y-37843666D01*
X32957000Y-37943666D01*
X32890333Y-38010333D01*
X32823666Y-38043666D01*
X33490333Y-37910333D02*
X33523666Y-37877000D01*
X33590333Y-37843666D01*
X33757000Y-37843666D01*
X33823666Y-37877000D01*
X33857000Y-37910333D01*
X33890333Y-37977000D01*
X33890333Y-38043666D01*
X33857000Y-38143666D01*
X33457000Y-38543666D01*
X33890333Y-38543666D01*
X18665000Y-48075000D02*
X18698333Y-48108333D01*
X18731666Y-48208333D01*
X18731666Y-48275000D01*
X18698333Y-48375000D01*
X18631666Y-48441666D01*
X18565000Y-48475000D01*
X18431666Y-48508333D01*
X18331666Y-48508333D01*
X18198333Y-48475000D01*
X18131666Y-48441666D01*
X18065000Y-48375000D01*
X18031666Y-48275000D01*
X18031666Y-48208333D01*
X18065000Y-48108333D01*
X18098333Y-48075000D01*
X18731666Y-47408333D02*
X18731666Y-47808333D01*
X18731666Y-47608333D02*
X18031666Y-47608333D01*
X18131666Y-47675000D01*
X18198333Y-47741666D01*
X18231666Y-47808333D01*
X18731666Y-46741666D02*
X18731666Y-47141666D01*
X18731666Y-46941666D02*
X18031666Y-46941666D01*
X18131666Y-47008333D01*
X18198333Y-47075000D01*
X18231666Y-47141666D01*
X22548333Y-37181000D02*
X22515000Y-37214333D01*
X22415000Y-37247666D01*
X22348333Y-37247666D01*
X22248333Y-37214333D01*
X22181666Y-37147666D01*
X22148333Y-37081000D01*
X22115000Y-36947666D01*
X22115000Y-36847666D01*
X22148333Y-36714333D01*
X22181666Y-36647666D01*
X22248333Y-36581000D01*
X22348333Y-36547666D01*
X22415000Y-36547666D01*
X22515000Y-36581000D01*
X22548333Y-36614333D01*
X22781666Y-36547666D02*
X23248333Y-36547666D01*
X22948333Y-37247666D01*
X33411333Y-27555000D02*
X33378000Y-27588333D01*
X33278000Y-27621666D01*
X33211333Y-27621666D01*
X33111333Y-27588333D01*
X33044666Y-27521666D01*
X33011333Y-27455000D01*
X32978000Y-27321666D01*
X32978000Y-27221666D01*
X33011333Y-27088333D01*
X33044666Y-27021666D01*
X33111333Y-26955000D01*
X33211333Y-26921666D01*
X33278000Y-26921666D01*
X33378000Y-26955000D01*
X33411333Y-26988333D01*
X34011333Y-26921666D02*
X33878000Y-26921666D01*
X33811333Y-26955000D01*
X33778000Y-26988333D01*
X33711333Y-27088333D01*
X33678000Y-27221666D01*
X33678000Y-27488333D01*
X33711333Y-27555000D01*
X33744666Y-27588333D01*
X33811333Y-27621666D01*
X33944666Y-27621666D01*
X34011333Y-27588333D01*
X34044666Y-27555000D01*
X34078000Y-27488333D01*
X34078000Y-27321666D01*
X34044666Y-27255000D01*
X34011333Y-27221666D01*
X33944666Y-27188333D01*
X33811333Y-27188333D01*
X33744666Y-27221666D01*
X33711333Y-27255000D01*
X33678000Y-27321666D01*
X47621000Y-16372666D02*
X47654333Y-16406000D01*
X47687666Y-16506000D01*
X47687666Y-16572666D01*
X47654333Y-16672666D01*
X47587666Y-16739333D01*
X47521000Y-16772666D01*
X47387666Y-16806000D01*
X47287666Y-16806000D01*
X47154333Y-16772666D01*
X47087666Y-16739333D01*
X47021000Y-16672666D01*
X46987666Y-16572666D01*
X46987666Y-16506000D01*
X47021000Y-16406000D01*
X47054333Y-16372666D01*
X46987666Y-15739333D02*
X46987666Y-16072666D01*
X47321000Y-16106000D01*
X47287666Y-16072666D01*
X47254333Y-16006000D01*
X47254333Y-15839333D01*
X47287666Y-15772666D01*
X47321000Y-15739333D01*
X47387666Y-15706000D01*
X47554333Y-15706000D01*
X47621000Y-15739333D01*
X47654333Y-15772666D01*
X47687666Y-15839333D01*
X47687666Y-16006000D01*
X47654333Y-16072666D01*
X47621000Y-16106000D01*
X52715333Y-15858000D02*
X52682000Y-15891333D01*
X52582000Y-15924666D01*
X52515333Y-15924666D01*
X52415333Y-15891333D01*
X52348666Y-15824666D01*
X52315333Y-15758000D01*
X52282000Y-15624666D01*
X52282000Y-15524666D01*
X52315333Y-15391333D01*
X52348666Y-15324666D01*
X52415333Y-15258000D01*
X52515333Y-15224666D01*
X52582000Y-15224666D01*
X52682000Y-15258000D01*
X52715333Y-15291333D01*
X52982000Y-15291333D02*
X53015333Y-15258000D01*
X53082000Y-15224666D01*
X53248666Y-15224666D01*
X53315333Y-15258000D01*
X53348666Y-15291333D01*
X53382000Y-15358000D01*
X53382000Y-15424666D01*
X53348666Y-15524666D01*
X52948666Y-15924666D01*
X53382000Y-15924666D01*
X24188000Y-45401666D02*
X23954666Y-45068333D01*
X23788000Y-45401666D02*
X23788000Y-44701666D01*
X24054666Y-44701666D01*
X24121333Y-44735000D01*
X24154666Y-44768333D01*
X24188000Y-44835000D01*
X24188000Y-44935000D01*
X24154666Y-45001666D01*
X24121333Y-45035000D01*
X24054666Y-45068333D01*
X23788000Y-45068333D01*
X24854666Y-45401666D02*
X24454666Y-45401666D01*
X24654666Y-45401666D02*
X24654666Y-44701666D01*
X24588000Y-44801666D01*
X24521333Y-44868333D01*
X24454666Y-44901666D01*
X25188000Y-45401666D02*
X25321333Y-45401666D01*
X25388000Y-45368333D01*
X25421333Y-45335000D01*
X25488000Y-45235000D01*
X25521333Y-45101666D01*
X25521333Y-44835000D01*
X25488000Y-44768333D01*
X25454666Y-44735000D01*
X25388000Y-44701666D01*
X25254666Y-44701666D01*
X25188000Y-44735000D01*
X25154666Y-44768333D01*
X25121333Y-44835000D01*
X25121333Y-45001666D01*
X25154666Y-45068333D01*
X25188000Y-45101666D01*
X25254666Y-45135000D01*
X25388000Y-45135000D01*
X25454666Y-45101666D01*
X25488000Y-45068333D01*
X25521333Y-45001666D01*
X19489000Y-48830666D02*
X19255666Y-48497333D01*
X19089000Y-48830666D02*
X19089000Y-48130666D01*
X19355666Y-48130666D01*
X19422333Y-48164000D01*
X19455666Y-48197333D01*
X19489000Y-48264000D01*
X19489000Y-48364000D01*
X19455666Y-48430666D01*
X19422333Y-48464000D01*
X19355666Y-48497333D01*
X19089000Y-48497333D01*
X20155666Y-48830666D02*
X19755666Y-48830666D01*
X19955666Y-48830666D02*
X19955666Y-48130666D01*
X19889000Y-48230666D01*
X19822333Y-48297333D01*
X19755666Y-48330666D01*
X20555666Y-48430666D02*
X20489000Y-48397333D01*
X20455666Y-48364000D01*
X20422333Y-48297333D01*
X20422333Y-48264000D01*
X20455666Y-48197333D01*
X20489000Y-48164000D01*
X20555666Y-48130666D01*
X20689000Y-48130666D01*
X20755666Y-48164000D01*
X20789000Y-48197333D01*
X20822333Y-48264000D01*
X20822333Y-48297333D01*
X20789000Y-48364000D01*
X20755666Y-48397333D01*
X20689000Y-48430666D01*
X20555666Y-48430666D01*
X20489000Y-48464000D01*
X20455666Y-48497333D01*
X20422333Y-48564000D01*
X20422333Y-48697333D01*
X20455666Y-48764000D01*
X20489000Y-48797333D01*
X20555666Y-48830666D01*
X20689000Y-48830666D01*
X20755666Y-48797333D01*
X20789000Y-48764000D01*
X20822333Y-48697333D01*
X20822333Y-48564000D01*
X20789000Y-48497333D01*
X20755666Y-48464000D01*
X20689000Y-48430666D01*
X28254333Y-47500333D02*
X28187666Y-47467000D01*
X28121000Y-47400333D01*
X28021000Y-47300333D01*
X27954333Y-47267000D01*
X27887666Y-47267000D01*
X27921000Y-47433666D02*
X27854333Y-47400333D01*
X27787666Y-47333666D01*
X27754333Y-47200333D01*
X27754333Y-46967000D01*
X27787666Y-46833666D01*
X27854333Y-46767000D01*
X27921000Y-46733666D01*
X28054333Y-46733666D01*
X28121000Y-46767000D01*
X28187666Y-46833666D01*
X28221000Y-46967000D01*
X28221000Y-47200333D01*
X28187666Y-47333666D01*
X28121000Y-47400333D01*
X28054333Y-47433666D01*
X27921000Y-47433666D01*
X28821000Y-46967000D02*
X28821000Y-47433666D01*
X28654333Y-46700333D02*
X28487666Y-47200333D01*
X28921000Y-47200333D01*
X37650000Y-38543666D02*
X37416666Y-38210333D01*
X37250000Y-38543666D02*
X37250000Y-37843666D01*
X37516666Y-37843666D01*
X37583333Y-37877000D01*
X37616666Y-37910333D01*
X37650000Y-37977000D01*
X37650000Y-38077000D01*
X37616666Y-38143666D01*
X37583333Y-38177000D01*
X37516666Y-38210333D01*
X37250000Y-38210333D01*
X38316666Y-38543666D02*
X37916666Y-38543666D01*
X38116666Y-38543666D02*
X38116666Y-37843666D01*
X38050000Y-37943666D01*
X37983333Y-38010333D01*
X37916666Y-38043666D01*
X38750000Y-37843666D02*
X38816666Y-37843666D01*
X38883333Y-37877000D01*
X38916666Y-37910333D01*
X38950000Y-37977000D01*
X38983333Y-38110333D01*
X38983333Y-38277000D01*
X38950000Y-38410333D01*
X38916666Y-38477000D01*
X38883333Y-38510333D01*
X38816666Y-38543666D01*
X38750000Y-38543666D01*
X38683333Y-38510333D01*
X38650000Y-38477000D01*
X38616666Y-38410333D01*
X38583333Y-38277000D01*
X38583333Y-38110333D01*
X38616666Y-37977000D01*
X38650000Y-37910333D01*
X38683333Y-37877000D01*
X38750000Y-37843666D01*
X52080333Y-20062000D02*
X52047000Y-20095333D01*
X51947000Y-20128666D01*
X51880333Y-20128666D01*
X51780333Y-20095333D01*
X51713666Y-20028666D01*
X51680333Y-19962000D01*
X51647000Y-19828666D01*
X51647000Y-19728666D01*
X51680333Y-19595333D01*
X51713666Y-19528666D01*
X51780333Y-19462000D01*
X51880333Y-19428666D01*
X51947000Y-19428666D01*
X52047000Y-19462000D01*
X52080333Y-19495333D01*
X52313666Y-19428666D02*
X52747000Y-19428666D01*
X52513666Y-19695333D01*
X52613666Y-19695333D01*
X52680333Y-19728666D01*
X52713666Y-19762000D01*
X52747000Y-19828666D01*
X52747000Y-19995333D01*
X52713666Y-20062000D01*
X52680333Y-20095333D01*
X52613666Y-20128666D01*
X52413666Y-20128666D01*
X52347000Y-20095333D01*
X52313666Y-20062000D01*
X43942095Y-26122380D02*
X43942095Y-26931904D01*
X43989714Y-27027142D01*
X44037333Y-27074761D01*
X44132571Y-27122380D01*
X44323047Y-27122380D01*
X44418285Y-27074761D01*
X44465904Y-27027142D01*
X44513523Y-26931904D01*
X44513523Y-26122380D01*
X44894476Y-26122380D02*
X45513523Y-26122380D01*
X45180190Y-26503333D01*
X45323047Y-26503333D01*
X45418285Y-26550952D01*
X45465904Y-26598571D01*
X45513523Y-26693809D01*
X45513523Y-26931904D01*
X45465904Y-27027142D01*
X45418285Y-27074761D01*
X45323047Y-27122380D01*
X45037333Y-27122380D01*
X44942095Y-27074761D01*
X44894476Y-27027142D01*
X18669095Y-20915380D02*
X18669095Y-21724904D01*
X18716714Y-21820142D01*
X18764333Y-21867761D01*
X18859571Y-21915380D01*
X19050047Y-21915380D01*
X19145285Y-21867761D01*
X19192904Y-21820142D01*
X19240523Y-21724904D01*
X19240523Y-20915380D01*
X20240523Y-21915380D02*
X19669095Y-21915380D01*
X19954809Y-21915380D02*
X19954809Y-20915380D01*
X19859571Y-21058238D01*
X19764333Y-21153476D01*
X19669095Y-21201095D01*
X25839000Y-36511666D02*
X25605666Y-36178333D01*
X25439000Y-36511666D02*
X25439000Y-35811666D01*
X25705666Y-35811666D01*
X25772333Y-35845000D01*
X25805666Y-35878333D01*
X25839000Y-35945000D01*
X25839000Y-36045000D01*
X25805666Y-36111666D01*
X25772333Y-36145000D01*
X25705666Y-36178333D01*
X25439000Y-36178333D01*
X26505666Y-36511666D02*
X26105666Y-36511666D01*
X26305666Y-36511666D02*
X26305666Y-35811666D01*
X26239000Y-35911666D01*
X26172333Y-35978333D01*
X26105666Y-36011666D01*
X26772333Y-35878333D02*
X26805666Y-35845000D01*
X26872333Y-35811666D01*
X27039000Y-35811666D01*
X27105666Y-35845000D01*
X27139000Y-35878333D01*
X27172333Y-35945000D01*
X27172333Y-36011666D01*
X27139000Y-36111666D01*
X26739000Y-36511666D01*
X27172333Y-36511666D01*
X56323666Y-22040000D02*
X55990333Y-22273333D01*
X56323666Y-22440000D02*
X55623666Y-22440000D01*
X55623666Y-22173333D01*
X55657000Y-22106666D01*
X55690333Y-22073333D01*
X55757000Y-22040000D01*
X55857000Y-22040000D01*
X55923666Y-22073333D01*
X55957000Y-22106666D01*
X55990333Y-22173333D01*
X55990333Y-22440000D01*
X56323666Y-21373333D02*
X56323666Y-21773333D01*
X56323666Y-21573333D02*
X55623666Y-21573333D01*
X55723666Y-21640000D01*
X55790333Y-21706666D01*
X55823666Y-21773333D01*
X56323666Y-20706666D02*
X56323666Y-21106666D01*
X56323666Y-20906666D02*
X55623666Y-20906666D01*
X55723666Y-20973333D01*
X55790333Y-21040000D01*
X55823666Y-21106666D01*
X35570333Y-38543666D02*
X35337000Y-38210333D01*
X35170333Y-38543666D02*
X35170333Y-37843666D01*
X35437000Y-37843666D01*
X35503666Y-37877000D01*
X35537000Y-37910333D01*
X35570333Y-37977000D01*
X35570333Y-38077000D01*
X35537000Y-38143666D01*
X35503666Y-38177000D01*
X35437000Y-38210333D01*
X35170333Y-38210333D01*
X35903666Y-38543666D02*
X36037000Y-38543666D01*
X36103666Y-38510333D01*
X36137000Y-38477000D01*
X36203666Y-38377000D01*
X36237000Y-38243666D01*
X36237000Y-37977000D01*
X36203666Y-37910333D01*
X36170333Y-37877000D01*
X36103666Y-37843666D01*
X35970333Y-37843666D01*
X35903666Y-37877000D01*
X35870333Y-37910333D01*
X35837000Y-37977000D01*
X35837000Y-38143666D01*
X35870333Y-38210333D01*
X35903666Y-38243666D01*
X35970333Y-38277000D01*
X36103666Y-38277000D01*
X36170333Y-38243666D01*
X36203666Y-38210333D01*
X36237000Y-38143666D01*
X22108333Y-50100666D02*
X21875000Y-49767333D01*
X21708333Y-50100666D02*
X21708333Y-49400666D01*
X21975000Y-49400666D01*
X22041666Y-49434000D01*
X22075000Y-49467333D01*
X22108333Y-49534000D01*
X22108333Y-49634000D01*
X22075000Y-49700666D01*
X22041666Y-49734000D01*
X21975000Y-49767333D01*
X21708333Y-49767333D01*
X22741666Y-49400666D02*
X22408333Y-49400666D01*
X22375000Y-49734000D01*
X22408333Y-49700666D01*
X22475000Y-49667333D01*
X22641666Y-49667333D01*
X22708333Y-49700666D01*
X22741666Y-49734000D01*
X22775000Y-49800666D01*
X22775000Y-49967333D01*
X22741666Y-50034000D01*
X22708333Y-50067333D01*
X22641666Y-50100666D01*
X22475000Y-50100666D01*
X22408333Y-50067333D01*
X22375000Y-50034000D01*
X31887333Y-27621666D02*
X31654000Y-27288333D01*
X31487333Y-27621666D02*
X31487333Y-26921666D01*
X31754000Y-26921666D01*
X31820666Y-26955000D01*
X31854000Y-26988333D01*
X31887333Y-27055000D01*
X31887333Y-27155000D01*
X31854000Y-27221666D01*
X31820666Y-27255000D01*
X31754000Y-27288333D01*
X31487333Y-27288333D01*
X32120666Y-26921666D02*
X32554000Y-26921666D01*
X32320666Y-27188333D01*
X32420666Y-27188333D01*
X32487333Y-27221666D01*
X32520666Y-27255000D01*
X32554000Y-27321666D01*
X32554000Y-27488333D01*
X32520666Y-27555000D01*
X32487333Y-27588333D01*
X32420666Y-27621666D01*
X32220666Y-27621666D01*
X32154000Y-27588333D01*
X32120666Y-27555000D01*
X24267333Y-46290666D02*
X24034000Y-45957333D01*
X23867333Y-46290666D02*
X23867333Y-45590666D01*
X24134000Y-45590666D01*
X24200666Y-45624000D01*
X24234000Y-45657333D01*
X24267333Y-45724000D01*
X24267333Y-45824000D01*
X24234000Y-45890666D01*
X24200666Y-45924000D01*
X24134000Y-45957333D01*
X23867333Y-45957333D01*
X24534000Y-45657333D02*
X24567333Y-45624000D01*
X24634000Y-45590666D01*
X24800666Y-45590666D01*
X24867333Y-45624000D01*
X24900666Y-45657333D01*
X24934000Y-45724000D01*
X24934000Y-45790666D01*
X24900666Y-45890666D01*
X24500666Y-46290666D01*
X24934000Y-46290666D01*
X22978333Y-36511666D02*
X22978333Y-35811666D01*
X23145000Y-35811666D01*
X23245000Y-35845000D01*
X23311666Y-35911666D01*
X23345000Y-35978333D01*
X23378333Y-36111666D01*
X23378333Y-36211666D01*
X23345000Y-36345000D01*
X23311666Y-36411666D01*
X23245000Y-36478333D01*
X23145000Y-36511666D01*
X22978333Y-36511666D01*
X24011666Y-35811666D02*
X23678333Y-35811666D01*
X23645000Y-36145000D01*
X23678333Y-36111666D01*
X23745000Y-36078333D01*
X23911666Y-36078333D01*
X23978333Y-36111666D01*
X24011666Y-36145000D01*
X24045000Y-36211666D01*
X24045000Y-36378333D01*
X24011666Y-36445000D01*
X23978333Y-36478333D01*
X23911666Y-36511666D01*
X23745000Y-36511666D01*
X23678333Y-36478333D01*
X23645000Y-36445000D01*
X47194833Y-25559166D02*
X47194833Y-24859166D01*
X47361500Y-24859166D01*
X47461500Y-24892500D01*
X47528166Y-24959166D01*
X47561500Y-25025833D01*
X47594833Y-25159166D01*
X47594833Y-25259166D01*
X47561500Y-25392500D01*
X47528166Y-25459166D01*
X47461500Y-25525833D01*
X47361500Y-25559166D01*
X47194833Y-25559166D01*
X48194833Y-25092500D02*
X48194833Y-25559166D01*
X48028166Y-24825833D02*
X47861500Y-25325833D01*
X48294833Y-25325833D01*
X40382000Y-30469666D02*
X40415333Y-30503000D01*
X40448666Y-30603000D01*
X40448666Y-30669666D01*
X40415333Y-30769666D01*
X40348666Y-30836333D01*
X40282000Y-30869666D01*
X40148666Y-30903000D01*
X40048666Y-30903000D01*
X39915333Y-30869666D01*
X39848666Y-30836333D01*
X39782000Y-30769666D01*
X39748666Y-30669666D01*
X39748666Y-30603000D01*
X39782000Y-30503000D01*
X39815333Y-30469666D01*
X40048666Y-30069666D02*
X40015333Y-30136333D01*
X39982000Y-30169666D01*
X39915333Y-30203000D01*
X39882000Y-30203000D01*
X39815333Y-30169666D01*
X39782000Y-30136333D01*
X39748666Y-30069666D01*
X39748666Y-29936333D01*
X39782000Y-29869666D01*
X39815333Y-29836333D01*
X39882000Y-29803000D01*
X39915333Y-29803000D01*
X39982000Y-29836333D01*
X40015333Y-29869666D01*
X40048666Y-29936333D01*
X40048666Y-30069666D01*
X40082000Y-30136333D01*
X40115333Y-30169666D01*
X40182000Y-30203000D01*
X40315333Y-30203000D01*
X40382000Y-30169666D01*
X40415333Y-30136333D01*
X40448666Y-30069666D01*
X40448666Y-29936333D01*
X40415333Y-29869666D01*
X40382000Y-29836333D01*
X40315333Y-29803000D01*
X40182000Y-29803000D01*
X40115333Y-29836333D01*
X40082000Y-29869666D01*
X40048666Y-29936333D01*
X35697333Y-29333000D02*
X35664000Y-29366333D01*
X35564000Y-29399666D01*
X35497333Y-29399666D01*
X35397333Y-29366333D01*
X35330666Y-29299666D01*
X35297333Y-29233000D01*
X35264000Y-29099666D01*
X35264000Y-28999666D01*
X35297333Y-28866333D01*
X35330666Y-28799666D01*
X35397333Y-28733000D01*
X35497333Y-28699666D01*
X35564000Y-28699666D01*
X35664000Y-28733000D01*
X35697333Y-28766333D01*
X36297333Y-28933000D02*
X36297333Y-29399666D01*
X36130666Y-28666333D02*
X35964000Y-29166333D01*
X36397333Y-29166333D01*
X47317833Y-19350500D02*
X47284500Y-19383833D01*
X47184500Y-19417166D01*
X47117833Y-19417166D01*
X47017833Y-19383833D01*
X46951166Y-19317166D01*
X46917833Y-19250500D01*
X46884500Y-19117166D01*
X46884500Y-19017166D01*
X46917833Y-18883833D01*
X46951166Y-18817166D01*
X47017833Y-18750500D01*
X47117833Y-18717166D01*
X47184500Y-18717166D01*
X47284500Y-18750500D01*
X47317833Y-18783833D01*
X47984500Y-19417166D02*
X47584500Y-19417166D01*
X47784500Y-19417166D02*
X47784500Y-18717166D01*
X47717833Y-18817166D01*
X47651166Y-18883833D01*
X47584500Y-18917166D01*
%LPC*%
G36*
G01*
X57411500Y-16950000D02*
X54360500Y-16950000D01*
G75*
G02*
X53835000Y-16424500I0J525500D01*
G01*
X53835000Y-15373500D01*
G75*
G02*
X54360500Y-14848000I525500J0D01*
G01*
X57411500Y-14848000D01*
G75*
G02*
X57937000Y-15373500I0J-525500D01*
G01*
X57937000Y-16424500D01*
G75*
G02*
X57411500Y-16950000I-525500J0D01*
G01*
G37*
G36*
G01*
X57411500Y-19500000D02*
X54360500Y-19500000D01*
G75*
G02*
X53835000Y-18974500I0J525500D01*
G01*
X53835000Y-17923500D01*
G75*
G02*
X54360500Y-17398000I525500J0D01*
G01*
X57411500Y-17398000D01*
G75*
G02*
X57937000Y-17923500I0J-525500D01*
G01*
X57937000Y-18974500D01*
G75*
G02*
X57411500Y-19500000I-525500J0D01*
G01*
G37*
G36*
G01*
X29212900Y-18100400D02*
X27686900Y-18100400D01*
G75*
G02*
X27598900Y-18012400I0J88000D01*
G01*
X27598900Y-17836400D01*
G75*
G02*
X27686900Y-17748400I88000J0D01*
G01*
X29212900Y-17748400D01*
G75*
G02*
X29300900Y-17836400I0J-88000D01*
G01*
X29300900Y-18012400D01*
G75*
G02*
X29212900Y-18100400I-88000J0D01*
G01*
G37*
G36*
G01*
X29211000Y-17075000D02*
X27685000Y-17075000D01*
G75*
G02*
X27597000Y-16987000I0J88000D01*
G01*
X27597000Y-16811000D01*
G75*
G02*
X27685000Y-16723000I88000J0D01*
G01*
X29211000Y-16723000D01*
G75*
G02*
X29299000Y-16811000I0J-88000D01*
G01*
X29299000Y-16987000D01*
G75*
G02*
X29211000Y-17075000I-88000J0D01*
G01*
G37*
G36*
G01*
X29183000Y-16604900D02*
X29007000Y-16604900D01*
G75*
G02*
X28919000Y-16516900I0J88000D01*
G01*
X28919000Y-14990900D01*
G75*
G02*
X29007000Y-14902900I88000J0D01*
G01*
X29183000Y-14902900D01*
G75*
G02*
X29271000Y-14990900I0J-88000D01*
G01*
X29271000Y-16516900D01*
G75*
G02*
X29183000Y-16604900I-88000J0D01*
G01*
G37*
G36*
G01*
X30695000Y-16599000D02*
X30519000Y-16599000D01*
G75*
G02*
X30431000Y-16511000I0J88000D01*
G01*
X30431000Y-14985000D01*
G75*
G02*
X30519000Y-14897000I88000J0D01*
G01*
X30695000Y-14897000D01*
G75*
G02*
X30783000Y-14985000I0J-88000D01*
G01*
X30783000Y-16511000D01*
G75*
G02*
X30695000Y-16599000I-88000J0D01*
G01*
G37*
G36*
G01*
X32003100Y-17075000D02*
X30477100Y-17075000D01*
G75*
G02*
X30389100Y-16987000I0J88000D01*
G01*
X30389100Y-16811000D01*
G75*
G02*
X30477100Y-16723000I88000J0D01*
G01*
X32003100Y-16723000D01*
G75*
G02*
X32091100Y-16811000I0J-88000D01*
G01*
X32091100Y-16987000D01*
G75*
G02*
X32003100Y-17075000I-88000J0D01*
G01*
G37*
G36*
G01*
X32003100Y-18075000D02*
X30477100Y-18075000D01*
G75*
G02*
X30389100Y-17987000I0J88000D01*
G01*
X30389100Y-17811000D01*
G75*
G02*
X30477100Y-17723000I88000J0D01*
G01*
X32003100Y-17723000D01*
G75*
G02*
X32091100Y-17811000I0J-88000D01*
G01*
X32091100Y-17987000D01*
G75*
G02*
X32003100Y-18075000I-88000J0D01*
G01*
G37*
G36*
G01*
X29183000Y-19920500D02*
X29007000Y-19920500D01*
G75*
G02*
X28919000Y-19832500I0J88000D01*
G01*
X28919000Y-18306500D01*
G75*
G02*
X29007000Y-18218500I88000J0D01*
G01*
X29183000Y-18218500D01*
G75*
G02*
X29271000Y-18306500I0J-88000D01*
G01*
X29271000Y-19832500D01*
G75*
G02*
X29183000Y-19920500I-88000J0D01*
G01*
G37*
G36*
G01*
X30683000Y-19920500D02*
X30507000Y-19920500D01*
G75*
G02*
X30419000Y-19832500I0J88000D01*
G01*
X30419000Y-18306500D01*
G75*
G02*
X30507000Y-18218500I88000J0D01*
G01*
X30683000Y-18218500D01*
G75*
G02*
X30771000Y-18306500I0J-88000D01*
G01*
X30771000Y-19832500D01*
G75*
G02*
X30683000Y-19920500I-88000J0D01*
G01*
G37*
G36*
G01*
X29212900Y-17600400D02*
X27686900Y-17600400D01*
G75*
G02*
X27598900Y-17512400I0J88000D01*
G01*
X27598900Y-17336400D01*
G75*
G02*
X27686900Y-17248400I88000J0D01*
G01*
X29212900Y-17248400D01*
G75*
G02*
X29300900Y-17336400I0J-88000D01*
G01*
X29300900Y-17512400D01*
G75*
G02*
X29212900Y-17600400I-88000J0D01*
G01*
G37*
G36*
G01*
X29683000Y-16604900D02*
X29507000Y-16604900D01*
G75*
G02*
X29419000Y-16516900I0J88000D01*
G01*
X29419000Y-14990900D01*
G75*
G02*
X29507000Y-14902900I88000J0D01*
G01*
X29683000Y-14902900D01*
G75*
G02*
X29771000Y-14990900I0J-88000D01*
G01*
X29771000Y-16516900D01*
G75*
G02*
X29683000Y-16604900I-88000J0D01*
G01*
G37*
G36*
G01*
X30183000Y-16604900D02*
X30007000Y-16604900D01*
G75*
G02*
X29919000Y-16516900I0J88000D01*
G01*
X29919000Y-14990900D01*
G75*
G02*
X30007000Y-14902900I88000J0D01*
G01*
X30183000Y-14902900D01*
G75*
G02*
X30271000Y-14990900I0J-88000D01*
G01*
X30271000Y-16516900D01*
G75*
G02*
X30183000Y-16604900I-88000J0D01*
G01*
G37*
G36*
G01*
X32003100Y-17575000D02*
X30477100Y-17575000D01*
G75*
G02*
X30389100Y-17487000I0J88000D01*
G01*
X30389100Y-17311000D01*
G75*
G02*
X30477100Y-17223000I88000J0D01*
G01*
X32003100Y-17223000D01*
G75*
G02*
X32091100Y-17311000I0J-88000D01*
G01*
X32091100Y-17487000D01*
G75*
G02*
X32003100Y-17575000I-88000J0D01*
G01*
G37*
G36*
G01*
X30183000Y-19920500D02*
X30007000Y-19920500D01*
G75*
G02*
X29919000Y-19832500I0J88000D01*
G01*
X29919000Y-18306500D01*
G75*
G02*
X30007000Y-18218500I88000J0D01*
G01*
X30183000Y-18218500D01*
G75*
G02*
X30271000Y-18306500I0J-88000D01*
G01*
X30271000Y-19832500D01*
G75*
G02*
X30183000Y-19920500I-88000J0D01*
G01*
G37*
G36*
G01*
X29683000Y-19921320D02*
X29507000Y-19921320D01*
G75*
G02*
X29419000Y-19833320I0J88000D01*
G01*
X29419000Y-18307320D01*
G75*
G02*
X29507000Y-18219320I88000J0D01*
G01*
X29683000Y-18219320D01*
G75*
G02*
X29771000Y-18307320I0J-88000D01*
G01*
X29771000Y-19833320D01*
G75*
G02*
X29683000Y-19921320I-88000J0D01*
G01*
G37*
D13*
X18415000Y-37211000D03*
X21115000Y-37211000D03*
G36*
G01*
X18390000Y-34080000D02*
X19440000Y-34080000D01*
G75*
G02*
X19491000Y-34131000I0J-51000D01*
G01*
X19491000Y-35531000D01*
G75*
G02*
X19440000Y-35582000I-51000J0D01*
G01*
X18390000Y-35582000D01*
G75*
G02*
X18339000Y-35531000I0J51000D01*
G01*
X18339000Y-34131000D01*
G75*
G02*
X18390000Y-34080000I51000J0D01*
G01*
G37*
G36*
G01*
X18390000Y-38830000D02*
X19440000Y-38830000D01*
G75*
G02*
X19491000Y-38881000I0J-51000D01*
G01*
X19491000Y-40281000D01*
G75*
G02*
X19440000Y-40332000I-51000J0D01*
G01*
X18390000Y-40332000D01*
G75*
G02*
X18339000Y-40281000I0J51000D01*
G01*
X18339000Y-38881000D01*
G75*
G02*
X18390000Y-38830000I51000J0D01*
G01*
G37*
G36*
G01*
X20090000Y-34080000D02*
X21140000Y-34080000D01*
G75*
G02*
X21191000Y-34131000I0J-51000D01*
G01*
X21191000Y-35531000D01*
G75*
G02*
X21140000Y-35582000I-51000J0D01*
G01*
X20090000Y-35582000D01*
G75*
G02*
X20039000Y-35531000I0J51000D01*
G01*
X20039000Y-34131000D01*
G75*
G02*
X20090000Y-34080000I51000J0D01*
G01*
G37*
G36*
G01*
X20090000Y-38830000D02*
X21140000Y-38830000D01*
G75*
G02*
X21191000Y-38881000I0J-51000D01*
G01*
X21191000Y-40281000D01*
G75*
G02*
X21140000Y-40332000I-51000J0D01*
G01*
X20090000Y-40332000D01*
G75*
G02*
X20039000Y-40281000I0J51000D01*
G01*
X20039000Y-38881000D01*
G75*
G02*
X20090000Y-38830000I51000J0D01*
G01*
G37*
D14*
X23987000Y-20002500D03*
X22487000Y-20002500D03*
X20987000Y-20002500D03*
X19487000Y-20002500D03*
G36*
G01*
X41401000Y-15814000D02*
X41401000Y-17714000D01*
G75*
G02*
X41350000Y-17765000I-51000J0D01*
G01*
X39850000Y-17765000D01*
G75*
G02*
X39799000Y-17714000I0J51000D01*
G01*
X39799000Y-15814000D01*
G75*
G02*
X39850000Y-15763000I51000J0D01*
G01*
X41350000Y-15763000D01*
G75*
G02*
X41401000Y-15814000I0J-51000D01*
G01*
G37*
D15*
X44100000Y-19464000D03*
G36*
G01*
X42501000Y-18789000D02*
X42501000Y-20139000D01*
G75*
G02*
X42450000Y-20190000I-51000J0D01*
G01*
X42050000Y-20190000D01*
G75*
G02*
X41999000Y-20139000I0J51000D01*
G01*
X41999000Y-18789000D01*
G75*
G02*
X42050000Y-18738000I51000J0D01*
G01*
X42450000Y-18738000D01*
G75*
G02*
X42501000Y-18789000I0J-51000D01*
G01*
G37*
G36*
G01*
X43151000Y-18789000D02*
X43151000Y-20139000D01*
G75*
G02*
X43100000Y-20190000I-51000J0D01*
G01*
X42700000Y-20190000D01*
G75*
G02*
X42649000Y-20139000I0J51000D01*
G01*
X42649000Y-18789000D01*
G75*
G02*
X42700000Y-18738000I51000J0D01*
G01*
X43100000Y-18738000D01*
G75*
G02*
X43151000Y-18789000I0J-51000D01*
G01*
G37*
G36*
G01*
X40551000Y-18789000D02*
X40551000Y-20139000D01*
G75*
G02*
X40500000Y-20190000I-51000J0D01*
G01*
X40100000Y-20190000D01*
G75*
G02*
X40049000Y-20139000I0J51000D01*
G01*
X40049000Y-18789000D01*
G75*
G02*
X40100000Y-18738000I51000J0D01*
G01*
X40500000Y-18738000D01*
G75*
G02*
X40551000Y-18789000I0J-51000D01*
G01*
G37*
G36*
G01*
X41201000Y-18789000D02*
X41201000Y-20139000D01*
G75*
G02*
X41150000Y-20190000I-51000J0D01*
G01*
X40750000Y-20190000D01*
G75*
G02*
X40699000Y-20139000I0J51000D01*
G01*
X40699000Y-18789000D01*
G75*
G02*
X40750000Y-18738000I51000J0D01*
G01*
X41150000Y-18738000D01*
G75*
G02*
X41201000Y-18789000I0J-51000D01*
G01*
G37*
G36*
G01*
X41851000Y-18789000D02*
X41851000Y-20139000D01*
G75*
G02*
X41800000Y-20190000I-51000J0D01*
G01*
X41400000Y-20190000D01*
G75*
G02*
X41349000Y-20139000I0J51000D01*
G01*
X41349000Y-18789000D01*
G75*
G02*
X41400000Y-18738000I51000J0D01*
G01*
X41800000Y-18738000D01*
G75*
G02*
X41851000Y-18789000I0J-51000D01*
G01*
G37*
X39100000Y-19464000D03*
G36*
G01*
X43401000Y-15814000D02*
X43401000Y-17714000D01*
G75*
G02*
X43350000Y-17765000I-51000J0D01*
G01*
X41850000Y-17765000D01*
G75*
G02*
X41799000Y-17714000I0J51000D01*
G01*
X41799000Y-15814000D01*
G75*
G02*
X41850000Y-15763000I51000J0D01*
G01*
X43350000Y-15763000D01*
G75*
G02*
X43401000Y-15814000I0J-51000D01*
G01*
G37*
D16*
X45100000Y-16764000D03*
X38100000Y-16764000D03*
G36*
G01*
X39351000Y-15813999D02*
X39351000Y-17714001D01*
G75*
G02*
X39300001Y-17765000I-50999J0D01*
G01*
X38099999Y-17765000D01*
G75*
G02*
X38049000Y-17714001I0J50999D01*
G01*
X38049000Y-15813999D01*
G75*
G02*
X38099999Y-15763000I50999J0D01*
G01*
X39300001Y-15763000D01*
G75*
G02*
X39351000Y-15813999I0J-50999D01*
G01*
G37*
G36*
G01*
X45151000Y-15813999D02*
X45151000Y-17714001D01*
G75*
G02*
X45100001Y-17765000I-50999J0D01*
G01*
X43899999Y-17765000D01*
G75*
G02*
X43849000Y-17714001I0J50999D01*
G01*
X43849000Y-15813999D01*
G75*
G02*
X43899999Y-15763000I50999J0D01*
G01*
X45100001Y-15763000D01*
G75*
G02*
X45151000Y-15813999I0J-50999D01*
G01*
G37*
G36*
G01*
X52882999Y-24819000D02*
X53533001Y-24819000D01*
G75*
G02*
X53584000Y-24869999I0J-50999D01*
G01*
X53584000Y-25930001D01*
G75*
G02*
X53533001Y-25981000I-50999J0D01*
G01*
X52882999Y-25981000D01*
G75*
G02*
X52832000Y-25930001I0J50999D01*
G01*
X52832000Y-24869999D01*
G75*
G02*
X52882999Y-24819000I50999J0D01*
G01*
G37*
G36*
G01*
X50982999Y-24819000D02*
X51633001Y-24819000D01*
G75*
G02*
X51684000Y-24869999I0J-50999D01*
G01*
X51684000Y-25930001D01*
G75*
G02*
X51633001Y-25981000I-50999J0D01*
G01*
X50982999Y-25981000D01*
G75*
G02*
X50932000Y-25930001I0J50999D01*
G01*
X50932000Y-24869999D01*
G75*
G02*
X50982999Y-24819000I50999J0D01*
G01*
G37*
G36*
G01*
X50982999Y-22619000D02*
X51633001Y-22619000D01*
G75*
G02*
X51684000Y-22669999I0J-50999D01*
G01*
X51684000Y-23730001D01*
G75*
G02*
X51633001Y-23781000I-50999J0D01*
G01*
X50982999Y-23781000D01*
G75*
G02*
X50932000Y-23730001I0J50999D01*
G01*
X50932000Y-22669999D01*
G75*
G02*
X50982999Y-22619000I50999J0D01*
G01*
G37*
G36*
G01*
X51932999Y-22619000D02*
X52583001Y-22619000D01*
G75*
G02*
X52634000Y-22669999I0J-50999D01*
G01*
X52634000Y-23730001D01*
G75*
G02*
X52583001Y-23781000I-50999J0D01*
G01*
X51932999Y-23781000D01*
G75*
G02*
X51882000Y-23730001I0J50999D01*
G01*
X51882000Y-22669999D01*
G75*
G02*
X51932999Y-22619000I50999J0D01*
G01*
G37*
G36*
G01*
X52882999Y-22619000D02*
X53533001Y-22619000D01*
G75*
G02*
X53584000Y-22669999I0J-50999D01*
G01*
X53584000Y-23730001D01*
G75*
G02*
X53533001Y-23781000I-50999J0D01*
G01*
X52882999Y-23781000D01*
G75*
G02*
X52832000Y-23730001I0J50999D01*
G01*
X52832000Y-22669999D01*
G75*
G02*
X52882999Y-22619000I50999J0D01*
G01*
G37*
G36*
G01*
X57827000Y-42269999D02*
X57827000Y-43470001D01*
G75*
G02*
X57776001Y-43521000I-50999J0D01*
G01*
X54775999Y-43521000D01*
G75*
G02*
X54725000Y-43470001I0J50999D01*
G01*
X54725000Y-42269999D01*
G75*
G02*
X54775999Y-42219000I50999J0D01*
G01*
X57776001Y-42219000D01*
G75*
G02*
X57827000Y-42269999I0J-50999D01*
G01*
G37*
G36*
G01*
X57827000Y-40269999D02*
X57827000Y-41470001D01*
G75*
G02*
X57776001Y-41521000I-50999J0D01*
G01*
X54775999Y-41521000D01*
G75*
G02*
X54725000Y-41470001I0J50999D01*
G01*
X54725000Y-40269999D01*
G75*
G02*
X54775999Y-40219000I50999J0D01*
G01*
X57776001Y-40219000D01*
G75*
G02*
X57827000Y-40269999I0J-50999D01*
G01*
G37*
G36*
G01*
X57827000Y-38269999D02*
X57827000Y-39470001D01*
G75*
G02*
X57776001Y-39521000I-50999J0D01*
G01*
X54775999Y-39521000D01*
G75*
G02*
X54725000Y-39470001I0J50999D01*
G01*
X54725000Y-38269999D01*
G75*
G02*
X54775999Y-38219000I50999J0D01*
G01*
X57776001Y-38219000D01*
G75*
G02*
X57827000Y-38269999I0J-50999D01*
G01*
G37*
G36*
G01*
X57827000Y-36269999D02*
X57827000Y-37470001D01*
G75*
G02*
X57776001Y-37521000I-50999J0D01*
G01*
X54775999Y-37521000D01*
G75*
G02*
X54725000Y-37470001I0J50999D01*
G01*
X54725000Y-36269999D01*
G75*
G02*
X54775999Y-36219000I50999J0D01*
G01*
X57776001Y-36219000D01*
G75*
G02*
X57827000Y-36269999I0J-50999D01*
G01*
G37*
G36*
G01*
X57827000Y-34269999D02*
X57827000Y-35470001D01*
G75*
G02*
X57776001Y-35521000I-50999J0D01*
G01*
X54775999Y-35521000D01*
G75*
G02*
X54725000Y-35470001I0J50999D01*
G01*
X54725000Y-34269999D01*
G75*
G02*
X54775999Y-34219000I50999J0D01*
G01*
X57776001Y-34219000D01*
G75*
G02*
X57827000Y-34269999I0J-50999D01*
G01*
G37*
G36*
G01*
X57827000Y-32269999D02*
X57827000Y-33470001D01*
G75*
G02*
X57776001Y-33521000I-50999J0D01*
G01*
X54775999Y-33521000D01*
G75*
G02*
X54725000Y-33470001I0J50999D01*
G01*
X54725000Y-32269999D01*
G75*
G02*
X54775999Y-32219000I50999J0D01*
G01*
X57776001Y-32219000D01*
G75*
G02*
X57827000Y-32269999I0J-50999D01*
G01*
G37*
G36*
G01*
X57827000Y-30269999D02*
X57827000Y-31470001D01*
G75*
G02*
X57776001Y-31521000I-50999J0D01*
G01*
X54775999Y-31521000D01*
G75*
G02*
X54725000Y-31470001I0J50999D01*
G01*
X54725000Y-30269999D01*
G75*
G02*
X54775999Y-30219000I50999J0D01*
G01*
X57776001Y-30219000D01*
G75*
G02*
X57827000Y-30269999I0J-50999D01*
G01*
G37*
G36*
G01*
X57827000Y-28269999D02*
X57827000Y-29470001D01*
G75*
G02*
X57776001Y-29521000I-50999J0D01*
G01*
X54775999Y-29521000D01*
G75*
G02*
X54725000Y-29470001I0J50999D01*
G01*
X54725000Y-28269999D01*
G75*
G02*
X54775999Y-28219000I50999J0D01*
G01*
X57776001Y-28219000D01*
G75*
G02*
X57827000Y-28269999I0J-50999D01*
G01*
G37*
G36*
G01*
X54827000Y-26420000D02*
X54827000Y-27420000D01*
G75*
G02*
X54776000Y-27471000I-51000J0D01*
G01*
X53776000Y-27471000D01*
G75*
G02*
X53725000Y-27420000I0J51000D01*
G01*
X53725000Y-26420000D01*
G75*
G02*
X53776000Y-26369000I51000J0D01*
G01*
X54776000Y-26369000D01*
G75*
G02*
X54827000Y-26420000I0J-51000D01*
G01*
G37*
G36*
G01*
X52827000Y-26420000D02*
X52827000Y-27420000D01*
G75*
G02*
X52776000Y-27471000I-51000J0D01*
G01*
X51776000Y-27471000D01*
G75*
G02*
X51725000Y-27420000I0J51000D01*
G01*
X51725000Y-26420000D01*
G75*
G02*
X51776000Y-26369000I51000J0D01*
G01*
X52776000Y-26369000D01*
G75*
G02*
X52827000Y-26420000I0J-51000D01*
G01*
G37*
G36*
G01*
X50827000Y-26420000D02*
X50827000Y-27420000D01*
G75*
G02*
X50776000Y-27471000I-51000J0D01*
G01*
X49776000Y-27471000D01*
G75*
G02*
X49725000Y-27420000I0J51000D01*
G01*
X49725000Y-26420000D01*
G75*
G02*
X49776000Y-26369000I51000J0D01*
G01*
X50776000Y-26369000D01*
G75*
G02*
X50827000Y-26420000I0J-51000D01*
G01*
G37*
G36*
G01*
X48827000Y-26420000D02*
X48827000Y-27420000D01*
G75*
G02*
X48776000Y-27471000I-51000J0D01*
G01*
X47776000Y-27471000D01*
G75*
G02*
X47725000Y-27420000I0J51000D01*
G01*
X47725000Y-26420000D01*
G75*
G02*
X47776000Y-26369000I51000J0D01*
G01*
X48776000Y-26369000D01*
G75*
G02*
X48827000Y-26420000I0J-51000D01*
G01*
G37*
G36*
G01*
X46827000Y-26420000D02*
X46827000Y-27420000D01*
G75*
G02*
X46776000Y-27471000I-51000J0D01*
G01*
X45776000Y-27471000D01*
G75*
G02*
X45725000Y-27420000I0J51000D01*
G01*
X45725000Y-26420000D01*
G75*
G02*
X45776000Y-26369000I51000J0D01*
G01*
X46776000Y-26369000D01*
G75*
G02*
X46827000Y-26420000I0J-51000D01*
G01*
G37*
G36*
G01*
X44827000Y-26420000D02*
X44827000Y-27420000D01*
G75*
G02*
X44776000Y-27471000I-51000J0D01*
G01*
X43776000Y-27471000D01*
G75*
G02*
X43725000Y-27420000I0J51000D01*
G01*
X43725000Y-26420000D01*
G75*
G02*
X43776000Y-26369000I51000J0D01*
G01*
X44776000Y-26369000D01*
G75*
G02*
X44827000Y-26420000I0J-51000D01*
G01*
G37*
G36*
G01*
X43827000Y-28269999D02*
X43827000Y-29470001D01*
G75*
G02*
X43776001Y-29521000I-50999J0D01*
G01*
X40775999Y-29521000D01*
G75*
G02*
X40725000Y-29470001I0J50999D01*
G01*
X40725000Y-28269999D01*
G75*
G02*
X40775999Y-28219000I50999J0D01*
G01*
X43776001Y-28219000D01*
G75*
G02*
X43827000Y-28269999I0J-50999D01*
G01*
G37*
G36*
G01*
X43827000Y-30269999D02*
X43827000Y-31470001D01*
G75*
G02*
X43776001Y-31521000I-50999J0D01*
G01*
X40775999Y-31521000D01*
G75*
G02*
X40725000Y-31470001I0J50999D01*
G01*
X40725000Y-30269999D01*
G75*
G02*
X40775999Y-30219000I50999J0D01*
G01*
X43776001Y-30219000D01*
G75*
G02*
X43827000Y-30269999I0J-50999D01*
G01*
G37*
G36*
G01*
X43827000Y-32269999D02*
X43827000Y-33470001D01*
G75*
G02*
X43776001Y-33521000I-50999J0D01*
G01*
X40775999Y-33521000D01*
G75*
G02*
X40725000Y-33470001I0J50999D01*
G01*
X40725000Y-32269999D01*
G75*
G02*
X40775999Y-32219000I50999J0D01*
G01*
X43776001Y-32219000D01*
G75*
G02*
X43827000Y-32269999I0J-50999D01*
G01*
G37*
G36*
G01*
X43827000Y-34269999D02*
X43827000Y-35470001D01*
G75*
G02*
X43776001Y-35521000I-50999J0D01*
G01*
X40775999Y-35521000D01*
G75*
G02*
X40725000Y-35470001I0J50999D01*
G01*
X40725000Y-34269999D01*
G75*
G02*
X40775999Y-34219000I50999J0D01*
G01*
X43776001Y-34219000D01*
G75*
G02*
X43827000Y-34269999I0J-50999D01*
G01*
G37*
G36*
G01*
X43827000Y-36269999D02*
X43827000Y-37470001D01*
G75*
G02*
X43776001Y-37521000I-50999J0D01*
G01*
X40775999Y-37521000D01*
G75*
G02*
X40725000Y-37470001I0J50999D01*
G01*
X40725000Y-36269999D01*
G75*
G02*
X40775999Y-36219000I50999J0D01*
G01*
X43776001Y-36219000D01*
G75*
G02*
X43827000Y-36269999I0J-50999D01*
G01*
G37*
G36*
G01*
X43827000Y-38269999D02*
X43827000Y-39470001D01*
G75*
G02*
X43776001Y-39521000I-50999J0D01*
G01*
X40775999Y-39521000D01*
G75*
G02*
X40725000Y-39470001I0J50999D01*
G01*
X40725000Y-38269999D01*
G75*
G02*
X40775999Y-38219000I50999J0D01*
G01*
X43776001Y-38219000D01*
G75*
G02*
X43827000Y-38269999I0J-50999D01*
G01*
G37*
G36*
G01*
X43827000Y-40269999D02*
X43827000Y-41470001D01*
G75*
G02*
X43776001Y-41521000I-50999J0D01*
G01*
X40775999Y-41521000D01*
G75*
G02*
X40725000Y-41470001I0J50999D01*
G01*
X40725000Y-40269999D01*
G75*
G02*
X40775999Y-40219000I50999J0D01*
G01*
X43776001Y-40219000D01*
G75*
G02*
X43827000Y-40269999I0J-50999D01*
G01*
G37*
G36*
G01*
X43827000Y-42269999D02*
X43827000Y-43470001D01*
G75*
G02*
X43776001Y-43521000I-50999J0D01*
G01*
X40775999Y-43521000D01*
G75*
G02*
X40725000Y-43470001I0J50999D01*
G01*
X40725000Y-42269999D01*
G75*
G02*
X40775999Y-42219000I50999J0D01*
G01*
X43776001Y-42219000D01*
G75*
G02*
X43827000Y-42269999I0J-50999D01*
G01*
G37*
D14*
X39751000Y-40616000D03*
X39751000Y-39116000D03*
G36*
G01*
X29432000Y-41917501D02*
X29432000Y-41267499D01*
G75*
G02*
X29482999Y-41216500I50999J0D01*
G01*
X30543001Y-41216500D01*
G75*
G02*
X30594000Y-41267499I0J-50999D01*
G01*
X30594000Y-41917501D01*
G75*
G02*
X30543001Y-41968500I-50999J0D01*
G01*
X29482999Y-41968500D01*
G75*
G02*
X29432000Y-41917501I0J50999D01*
G01*
G37*
G36*
G01*
X29432000Y-40967501D02*
X29432000Y-40317499D01*
G75*
G02*
X29482999Y-40266500I50999J0D01*
G01*
X30543001Y-40266500D01*
G75*
G02*
X30594000Y-40317499I0J-50999D01*
G01*
X30594000Y-40967501D01*
G75*
G02*
X30543001Y-41018500I-50999J0D01*
G01*
X29482999Y-41018500D01*
G75*
G02*
X29432000Y-40967501I0J50999D01*
G01*
G37*
G36*
G01*
X29432000Y-42867501D02*
X29432000Y-42217499D01*
G75*
G02*
X29482999Y-42166500I50999J0D01*
G01*
X30543001Y-42166500D01*
G75*
G02*
X30594000Y-42217499I0J-50999D01*
G01*
X30594000Y-42867501D01*
G75*
G02*
X30543001Y-42918500I-50999J0D01*
G01*
X29482999Y-42918500D01*
G75*
G02*
X29432000Y-42867501I0J50999D01*
G01*
G37*
G36*
G01*
X27232000Y-42867501D02*
X27232000Y-42217499D01*
G75*
G02*
X27282999Y-42166500I50999J0D01*
G01*
X28343001Y-42166500D01*
G75*
G02*
X28394000Y-42217499I0J-50999D01*
G01*
X28394000Y-42867501D01*
G75*
G02*
X28343001Y-42918500I-50999J0D01*
G01*
X27282999Y-42918500D01*
G75*
G02*
X27232000Y-42867501I0J50999D01*
G01*
G37*
G36*
G01*
X27232000Y-41917501D02*
X27232000Y-41267499D01*
G75*
G02*
X27282999Y-41216500I50999J0D01*
G01*
X28343001Y-41216500D01*
G75*
G02*
X28394000Y-41267499I0J-50999D01*
G01*
X28394000Y-41917501D01*
G75*
G02*
X28343001Y-41968500I-50999J0D01*
G01*
X27282999Y-41968500D01*
G75*
G02*
X27232000Y-41917501I0J50999D01*
G01*
G37*
G36*
G01*
X27232000Y-40967501D02*
X27232000Y-40317499D01*
G75*
G02*
X27282999Y-40266500I50999J0D01*
G01*
X28343001Y-40266500D01*
G75*
G02*
X28394000Y-40317499I0J-50999D01*
G01*
X28394000Y-40967501D01*
G75*
G02*
X28343001Y-41018500I-50999J0D01*
G01*
X27282999Y-41018500D01*
G75*
G02*
X27232000Y-40967501I0J50999D01*
G01*
G37*
G36*
G01*
X24987000Y-41915001D02*
X24987000Y-41264999D01*
G75*
G02*
X25037999Y-41214000I50999J0D01*
G01*
X26098001Y-41214000D01*
G75*
G02*
X26149000Y-41264999I0J-50999D01*
G01*
X26149000Y-41915001D01*
G75*
G02*
X26098001Y-41966000I-50999J0D01*
G01*
X25037999Y-41966000D01*
G75*
G02*
X24987000Y-41915001I0J50999D01*
G01*
G37*
G36*
G01*
X24987000Y-40965001D02*
X24987000Y-40314999D01*
G75*
G02*
X25037999Y-40264000I50999J0D01*
G01*
X26098001Y-40264000D01*
G75*
G02*
X26149000Y-40314999I0J-50999D01*
G01*
X26149000Y-40965001D01*
G75*
G02*
X26098001Y-41016000I-50999J0D01*
G01*
X25037999Y-41016000D01*
G75*
G02*
X24987000Y-40965001I0J50999D01*
G01*
G37*
G36*
G01*
X24987000Y-42865001D02*
X24987000Y-42214999D01*
G75*
G02*
X25037999Y-42164000I50999J0D01*
G01*
X26098001Y-42164000D01*
G75*
G02*
X26149000Y-42214999I0J-50999D01*
G01*
X26149000Y-42865001D01*
G75*
G02*
X26098001Y-42916000I-50999J0D01*
G01*
X25037999Y-42916000D01*
G75*
G02*
X24987000Y-42865001I0J50999D01*
G01*
G37*
G36*
G01*
X22787000Y-42865001D02*
X22787000Y-42214999D01*
G75*
G02*
X22837999Y-42164000I50999J0D01*
G01*
X23898001Y-42164000D01*
G75*
G02*
X23949000Y-42214999I0J-50999D01*
G01*
X23949000Y-42865001D01*
G75*
G02*
X23898001Y-42916000I-50999J0D01*
G01*
X22837999Y-42916000D01*
G75*
G02*
X22787000Y-42865001I0J50999D01*
G01*
G37*
G36*
G01*
X22787000Y-41915001D02*
X22787000Y-41264999D01*
G75*
G02*
X22837999Y-41214000I50999J0D01*
G01*
X23898001Y-41214000D01*
G75*
G02*
X23949000Y-41264999I0J-50999D01*
G01*
X23949000Y-41915001D01*
G75*
G02*
X23898001Y-41966000I-50999J0D01*
G01*
X22837999Y-41966000D01*
G75*
G02*
X22787000Y-41915001I0J50999D01*
G01*
G37*
G36*
G01*
X22787000Y-40965001D02*
X22787000Y-40314999D01*
G75*
G02*
X22837999Y-40264000I50999J0D01*
G01*
X23898001Y-40264000D01*
G75*
G02*
X23949000Y-40314999I0J-50999D01*
G01*
X23949000Y-40965001D01*
G75*
G02*
X23898001Y-41016000I-50999J0D01*
G01*
X22837999Y-41016000D01*
G75*
G02*
X22787000Y-40965001I0J50999D01*
G01*
G37*
G36*
G01*
X34143000Y-44242500D02*
X34143000Y-43641500D01*
G75*
G02*
X34368500Y-43416000I225500J0D01*
G01*
X34819500Y-43416000D01*
G75*
G02*
X35045000Y-43641500I0J-225500D01*
G01*
X35045000Y-44242500D01*
G75*
G02*
X34819500Y-44468000I-225500J0D01*
G01*
X34368500Y-44468000D01*
G75*
G02*
X34143000Y-44242500I0J225500D01*
G01*
G37*
G36*
G01*
X32493000Y-44242500D02*
X32493000Y-43641500D01*
G75*
G02*
X32718500Y-43416000I225500J0D01*
G01*
X33169500Y-43416000D01*
G75*
G02*
X33395000Y-43641500I0J-225500D01*
G01*
X33395000Y-44242500D01*
G75*
G02*
X33169500Y-44468000I-225500J0D01*
G01*
X32718500Y-44468000D01*
G75*
G02*
X32493000Y-44242500I0J225500D01*
G01*
G37*
G36*
G01*
X26473000Y-44306000D02*
X26473000Y-43705000D01*
G75*
G02*
X26698500Y-43479500I225500J0D01*
G01*
X27149500Y-43479500D01*
G75*
G02*
X27375000Y-43705000I0J-225500D01*
G01*
X27375000Y-44306000D01*
G75*
G02*
X27149500Y-44531500I-225500J0D01*
G01*
X26698500Y-44531500D01*
G75*
G02*
X26473000Y-44306000I0J225500D01*
G01*
G37*
G36*
G01*
X24823000Y-44306000D02*
X24823000Y-43705000D01*
G75*
G02*
X25048500Y-43479500I225500J0D01*
G01*
X25499500Y-43479500D01*
G75*
G02*
X25725000Y-43705000I0J-225500D01*
G01*
X25725000Y-44306000D01*
G75*
G02*
X25499500Y-44531500I-225500J0D01*
G01*
X25048500Y-44531500D01*
G75*
G02*
X24823000Y-44306000I0J225500D01*
G01*
G37*
G36*
G01*
X20430000Y-44838500D02*
X19829000Y-44838500D01*
G75*
G02*
X19603500Y-44613000I0J225500D01*
G01*
X19603500Y-44162000D01*
G75*
G02*
X19829000Y-43936500I225500J0D01*
G01*
X20430000Y-43936500D01*
G75*
G02*
X20655500Y-44162000I0J-225500D01*
G01*
X20655500Y-44613000D01*
G75*
G02*
X20430000Y-44838500I-225500J0D01*
G01*
G37*
G36*
G01*
X20430000Y-46488500D02*
X19829000Y-46488500D01*
G75*
G02*
X19603500Y-46263000I0J225500D01*
G01*
X19603500Y-45812000D01*
G75*
G02*
X19829000Y-45586500I225500J0D01*
G01*
X20430000Y-45586500D01*
G75*
G02*
X20655500Y-45812000I0J-225500D01*
G01*
X20655500Y-46263000D01*
G75*
G02*
X20430000Y-46488500I-225500J0D01*
G01*
G37*
G36*
G01*
X21265000Y-43226500D02*
X21265000Y-42625500D01*
G75*
G02*
X21490500Y-42400000I225500J0D01*
G01*
X21941500Y-42400000D01*
G75*
G02*
X22167000Y-42625500I0J-225500D01*
G01*
X22167000Y-43226500D01*
G75*
G02*
X21941500Y-43452000I-225500J0D01*
G01*
X21490500Y-43452000D01*
G75*
G02*
X21265000Y-43226500I0J225500D01*
G01*
G37*
G36*
G01*
X19615000Y-43226500D02*
X19615000Y-42625500D01*
G75*
G02*
X19840500Y-42400000I225500J0D01*
G01*
X20291500Y-42400000D01*
G75*
G02*
X20517000Y-42625500I0J-225500D01*
G01*
X20517000Y-43226500D01*
G75*
G02*
X20291500Y-43452000I-225500J0D01*
G01*
X19840500Y-43452000D01*
G75*
G02*
X19615000Y-43226500I0J225500D01*
G01*
G37*
G36*
G01*
X19149500Y-41726000D02*
X18548500Y-41726000D01*
G75*
G02*
X18323000Y-41500500I0J225500D01*
G01*
X18323000Y-41049500D01*
G75*
G02*
X18548500Y-40824000I225500J0D01*
G01*
X19149500Y-40824000D01*
G75*
G02*
X19375000Y-41049500I0J-225500D01*
G01*
X19375000Y-41500500D01*
G75*
G02*
X19149500Y-41726000I-225500J0D01*
G01*
G37*
G36*
G01*
X19149500Y-43376000D02*
X18548500Y-43376000D01*
G75*
G02*
X18323000Y-43150500I0J225500D01*
G01*
X18323000Y-42699500D01*
G75*
G02*
X18548500Y-42474000I225500J0D01*
G01*
X19149500Y-42474000D01*
G75*
G02*
X19375000Y-42699500I0J-225500D01*
G01*
X19375000Y-43150500D01*
G75*
G02*
X19149500Y-43376000I-225500J0D01*
G01*
G37*
G36*
G01*
X24176500Y-38298000D02*
X23575500Y-38298000D01*
G75*
G02*
X23350000Y-38072500I0J225500D01*
G01*
X23350000Y-37621500D01*
G75*
G02*
X23575500Y-37396000I225500J0D01*
G01*
X24176500Y-37396000D01*
G75*
G02*
X24402000Y-37621500I0J-225500D01*
G01*
X24402000Y-38072500D01*
G75*
G02*
X24176500Y-38298000I-225500J0D01*
G01*
G37*
G36*
G01*
X24176500Y-39948000D02*
X23575500Y-39948000D01*
G75*
G02*
X23350000Y-39722500I0J225500D01*
G01*
X23350000Y-39271500D01*
G75*
G02*
X23575500Y-39046000I225500J0D01*
G01*
X24176500Y-39046000D01*
G75*
G02*
X24402000Y-39271500I0J-225500D01*
G01*
X24402000Y-39722500D01*
G75*
G02*
X24176500Y-39948000I-225500J0D01*
G01*
G37*
G36*
G01*
X26613000Y-39006000D02*
X26613000Y-39607000D01*
G75*
G02*
X26387500Y-39832500I-225500J0D01*
G01*
X25936500Y-39832500D01*
G75*
G02*
X25711000Y-39607000I0J225500D01*
G01*
X25711000Y-39006000D01*
G75*
G02*
X25936500Y-38780500I225500J0D01*
G01*
X26387500Y-38780500D01*
G75*
G02*
X26613000Y-39006000I0J-225500D01*
G01*
G37*
G36*
G01*
X28263000Y-39006000D02*
X28263000Y-39607000D01*
G75*
G02*
X28037500Y-39832500I-225500J0D01*
G01*
X27586500Y-39832500D01*
G75*
G02*
X27361000Y-39607000I0J225500D01*
G01*
X27361000Y-39006000D01*
G75*
G02*
X27586500Y-38780500I225500J0D01*
G01*
X28037500Y-38780500D01*
G75*
G02*
X28263000Y-39006000I0J-225500D01*
G01*
G37*
G36*
G01*
X31857500Y-45057250D02*
X31857500Y-45620750D01*
G75*
G02*
X31613250Y-45865000I-244250J0D01*
G01*
X31124750Y-45865000D01*
G75*
G02*
X30880500Y-45620750I0J244250D01*
G01*
X30880500Y-45057250D01*
G75*
G02*
X31124750Y-44813000I244250J0D01*
G01*
X31613250Y-44813000D01*
G75*
G02*
X31857500Y-45057250I0J-244250D01*
G01*
G37*
G36*
G01*
X33432500Y-45057250D02*
X33432500Y-45620750D01*
G75*
G02*
X33188250Y-45865000I-244250J0D01*
G01*
X32699750Y-45865000D01*
G75*
G02*
X32455500Y-45620750I0J244250D01*
G01*
X32455500Y-45057250D01*
G75*
G02*
X32699750Y-44813000I244250J0D01*
G01*
X33188250Y-44813000D01*
G75*
G02*
X33432500Y-45057250I0J-244250D01*
G01*
G37*
G36*
G01*
X20417000Y-41304000D02*
X20417000Y-41754000D01*
G75*
G02*
X20366000Y-41805000I-51000J0D01*
G01*
X19766000Y-41805000D01*
G75*
G02*
X19715000Y-41754000I0J51000D01*
G01*
X19715000Y-41304000D01*
G75*
G02*
X19766000Y-41253000I51000J0D01*
G01*
X20366000Y-41253000D01*
G75*
G02*
X20417000Y-41304000I0J-51000D01*
G01*
G37*
G36*
G01*
X22517000Y-41304000D02*
X22517000Y-41754000D01*
G75*
G02*
X22466000Y-41805000I-51000J0D01*
G01*
X21866000Y-41805000D01*
G75*
G02*
X21815000Y-41754000I0J51000D01*
G01*
X21815000Y-41304000D01*
G75*
G02*
X21866000Y-41253000I51000J0D01*
G01*
X22466000Y-41253000D01*
G75*
G02*
X22517000Y-41304000I0J-51000D01*
G01*
G37*
G36*
G01*
X36501000Y-32306500D02*
X36501000Y-31955500D01*
G75*
G02*
X36676500Y-31780000I175500J0D01*
G01*
X38377500Y-31780000D01*
G75*
G02*
X38553000Y-31955500I0J-175500D01*
G01*
X38553000Y-32306500D01*
G75*
G02*
X38377500Y-32482000I-175500J0D01*
G01*
X36676500Y-32482000D01*
G75*
G02*
X36501000Y-32306500I0J175500D01*
G01*
G37*
G36*
G01*
X36501000Y-33576500D02*
X36501000Y-33225500D01*
G75*
G02*
X36676500Y-33050000I175500J0D01*
G01*
X38377500Y-33050000D01*
G75*
G02*
X38553000Y-33225500I0J-175500D01*
G01*
X38553000Y-33576500D01*
G75*
G02*
X38377500Y-33752000I-175500J0D01*
G01*
X36676500Y-33752000D01*
G75*
G02*
X36501000Y-33576500I0J175500D01*
G01*
G37*
G36*
G01*
X36501000Y-34846500D02*
X36501000Y-34495500D01*
G75*
G02*
X36676500Y-34320000I175500J0D01*
G01*
X38377500Y-34320000D01*
G75*
G02*
X38553000Y-34495500I0J-175500D01*
G01*
X38553000Y-34846500D01*
G75*
G02*
X38377500Y-35022000I-175500J0D01*
G01*
X36676500Y-35022000D01*
G75*
G02*
X36501000Y-34846500I0J175500D01*
G01*
G37*
G36*
G01*
X36501000Y-36116500D02*
X36501000Y-35765500D01*
G75*
G02*
X36676500Y-35590000I175500J0D01*
G01*
X38377500Y-35590000D01*
G75*
G02*
X38553000Y-35765500I0J-175500D01*
G01*
X38553000Y-36116500D01*
G75*
G02*
X38377500Y-36292000I-175500J0D01*
G01*
X36676500Y-36292000D01*
G75*
G02*
X36501000Y-36116500I0J175500D01*
G01*
G37*
G36*
G01*
X31551000Y-36116500D02*
X31551000Y-35765500D01*
G75*
G02*
X31726500Y-35590000I175500J0D01*
G01*
X33427500Y-35590000D01*
G75*
G02*
X33603000Y-35765500I0J-175500D01*
G01*
X33603000Y-36116500D01*
G75*
G02*
X33427500Y-36292000I-175500J0D01*
G01*
X31726500Y-36292000D01*
G75*
G02*
X31551000Y-36116500I0J175500D01*
G01*
G37*
G36*
G01*
X31551000Y-34846500D02*
X31551000Y-34495500D01*
G75*
G02*
X31726500Y-34320000I175500J0D01*
G01*
X33427500Y-34320000D01*
G75*
G02*
X33603000Y-34495500I0J-175500D01*
G01*
X33603000Y-34846500D01*
G75*
G02*
X33427500Y-35022000I-175500J0D01*
G01*
X31726500Y-35022000D01*
G75*
G02*
X31551000Y-34846500I0J175500D01*
G01*
G37*
G36*
G01*
X31551000Y-33576500D02*
X31551000Y-33225500D01*
G75*
G02*
X31726500Y-33050000I175500J0D01*
G01*
X33427500Y-33050000D01*
G75*
G02*
X33603000Y-33225500I0J-175500D01*
G01*
X33603000Y-33576500D01*
G75*
G02*
X33427500Y-33752000I-175500J0D01*
G01*
X31726500Y-33752000D01*
G75*
G02*
X31551000Y-33576500I0J175500D01*
G01*
G37*
G36*
G01*
X31551000Y-32306500D02*
X31551000Y-31955500D01*
G75*
G02*
X31726500Y-31780000I175500J0D01*
G01*
X33427500Y-31780000D01*
G75*
G02*
X33603000Y-31955500I0J-175500D01*
G01*
X33603000Y-32306500D01*
G75*
G02*
X33427500Y-32482000I-175500J0D01*
G01*
X31726500Y-32482000D01*
G75*
G02*
X31551000Y-32306500I0J175500D01*
G01*
G37*
G36*
G01*
X36057000Y-22214999D02*
X36057000Y-22865001D01*
G75*
G02*
X36006001Y-22916000I-50999J0D01*
G01*
X34945999Y-22916000D01*
G75*
G02*
X34895000Y-22865001I0J50999D01*
G01*
X34895000Y-22214999D01*
G75*
G02*
X34945999Y-22164000I50999J0D01*
G01*
X36006001Y-22164000D01*
G75*
G02*
X36057000Y-22214999I0J-50999D01*
G01*
G37*
G36*
G01*
X36057000Y-20314999D02*
X36057000Y-20965001D01*
G75*
G02*
X36006001Y-21016000I-50999J0D01*
G01*
X34945999Y-21016000D01*
G75*
G02*
X34895000Y-20965001I0J50999D01*
G01*
X34895000Y-20314999D01*
G75*
G02*
X34945999Y-20264000I50999J0D01*
G01*
X36006001Y-20264000D01*
G75*
G02*
X36057000Y-20314999I0J-50999D01*
G01*
G37*
G36*
G01*
X38257000Y-20314999D02*
X38257000Y-20965001D01*
G75*
G02*
X38206001Y-21016000I-50999J0D01*
G01*
X37145999Y-21016000D01*
G75*
G02*
X37095000Y-20965001I0J50999D01*
G01*
X37095000Y-20314999D01*
G75*
G02*
X37145999Y-20264000I50999J0D01*
G01*
X38206001Y-20264000D01*
G75*
G02*
X38257000Y-20314999I0J-50999D01*
G01*
G37*
G36*
G01*
X38257000Y-21264999D02*
X38257000Y-21915001D01*
G75*
G02*
X38206001Y-21966000I-50999J0D01*
G01*
X37145999Y-21966000D01*
G75*
G02*
X37095000Y-21915001I0J50999D01*
G01*
X37095000Y-21264999D01*
G75*
G02*
X37145999Y-21214000I50999J0D01*
G01*
X38206001Y-21214000D01*
G75*
G02*
X38257000Y-21264999I0J-50999D01*
G01*
G37*
G36*
G01*
X38257000Y-22214999D02*
X38257000Y-22865001D01*
G75*
G02*
X38206001Y-22916000I-50999J0D01*
G01*
X37145999Y-22916000D01*
G75*
G02*
X37095000Y-22865001I0J50999D01*
G01*
X37095000Y-22214999D01*
G75*
G02*
X37145999Y-22164000I50999J0D01*
G01*
X38206001Y-22164000D01*
G75*
G02*
X38257000Y-22214999I0J-50999D01*
G01*
G37*
G36*
G01*
X48927000Y-17261999D02*
X48927000Y-17912001D01*
G75*
G02*
X48876001Y-17963000I-50999J0D01*
G01*
X47815999Y-17963000D01*
G75*
G02*
X47765000Y-17912001I0J50999D01*
G01*
X47765000Y-17261999D01*
G75*
G02*
X47815999Y-17211000I50999J0D01*
G01*
X48876001Y-17211000D01*
G75*
G02*
X48927000Y-17261999I0J-50999D01*
G01*
G37*
G36*
G01*
X48927000Y-15361999D02*
X48927000Y-16012001D01*
G75*
G02*
X48876001Y-16063000I-50999J0D01*
G01*
X47815999Y-16063000D01*
G75*
G02*
X47765000Y-16012001I0J50999D01*
G01*
X47765000Y-15361999D01*
G75*
G02*
X47815999Y-15311000I50999J0D01*
G01*
X48876001Y-15311000D01*
G75*
G02*
X48927000Y-15361999I0J-50999D01*
G01*
G37*
G36*
G01*
X51127000Y-15361999D02*
X51127000Y-16012001D01*
G75*
G02*
X51076001Y-16063000I-50999J0D01*
G01*
X50015999Y-16063000D01*
G75*
G02*
X49965000Y-16012001I0J50999D01*
G01*
X49965000Y-15361999D01*
G75*
G02*
X50015999Y-15311000I50999J0D01*
G01*
X51076001Y-15311000D01*
G75*
G02*
X51127000Y-15361999I0J-50999D01*
G01*
G37*
G36*
G01*
X51127000Y-16311999D02*
X51127000Y-16962001D01*
G75*
G02*
X51076001Y-17013000I-50999J0D01*
G01*
X50015999Y-17013000D01*
G75*
G02*
X49965000Y-16962001I0J50999D01*
G01*
X49965000Y-16311999D01*
G75*
G02*
X50015999Y-16261000I50999J0D01*
G01*
X51076001Y-16261000D01*
G75*
G02*
X51127000Y-16311999I0J-50999D01*
G01*
G37*
G36*
G01*
X51127000Y-17261999D02*
X51127000Y-17912001D01*
G75*
G02*
X51076001Y-17963000I-50999J0D01*
G01*
X50015999Y-17963000D01*
G75*
G02*
X49965000Y-17912001I0J50999D01*
G01*
X49965000Y-17261999D01*
G75*
G02*
X50015999Y-17211000I50999J0D01*
G01*
X51076001Y-17211000D01*
G75*
G02*
X51127000Y-17261999I0J-50999D01*
G01*
G37*
G36*
G01*
X57323500Y-23566000D02*
X56722500Y-23566000D01*
G75*
G02*
X56497000Y-23340500I0J225500D01*
G01*
X56497000Y-22889500D01*
G75*
G02*
X56722500Y-22664000I225500J0D01*
G01*
X57323500Y-22664000D01*
G75*
G02*
X57549000Y-22889500I0J-225500D01*
G01*
X57549000Y-23340500D01*
G75*
G02*
X57323500Y-23566000I-225500J0D01*
G01*
G37*
G36*
G01*
X57323500Y-25216000D02*
X56722500Y-25216000D01*
G75*
G02*
X56497000Y-24990500I0J225500D01*
G01*
X56497000Y-24539500D01*
G75*
G02*
X56722500Y-24314000I225500J0D01*
G01*
X57323500Y-24314000D01*
G75*
G02*
X57549000Y-24539500I0J-225500D01*
G01*
X57549000Y-24990500D01*
G75*
G02*
X57323500Y-25216000I-225500J0D01*
G01*
G37*
G36*
G01*
X47849000Y-19206000D02*
X47849000Y-19656000D01*
G75*
G02*
X47798000Y-19707000I-51000J0D01*
G01*
X47198000Y-19707000D01*
G75*
G02*
X47147000Y-19656000I0J51000D01*
G01*
X47147000Y-19206000D01*
G75*
G02*
X47198000Y-19155000I51000J0D01*
G01*
X47798000Y-19155000D01*
G75*
G02*
X47849000Y-19206000I0J-51000D01*
G01*
G37*
G36*
G01*
X49949000Y-19206000D02*
X49949000Y-19656000D01*
G75*
G02*
X49898000Y-19707000I-51000J0D01*
G01*
X49298000Y-19707000D01*
G75*
G02*
X49247000Y-19656000I0J51000D01*
G01*
X49247000Y-19206000D01*
G75*
G02*
X49298000Y-19155000I51000J0D01*
G01*
X49898000Y-19155000D01*
G75*
G02*
X49949000Y-19206000I0J-51000D01*
G01*
G37*
G36*
G01*
X54758500Y-23701000D02*
X54207500Y-23701000D01*
G75*
G02*
X53957000Y-23450500I0J250500D01*
G01*
X53957000Y-22949500D01*
G75*
G02*
X54207500Y-22699000I250500J0D01*
G01*
X54758500Y-22699000D01*
G75*
G02*
X55009000Y-22949500I0J-250500D01*
G01*
X55009000Y-23450500D01*
G75*
G02*
X54758500Y-23701000I-250500J0D01*
G01*
G37*
G36*
G01*
X54758500Y-25251000D02*
X54207500Y-25251000D01*
G75*
G02*
X53957000Y-25000500I0J250500D01*
G01*
X53957000Y-24499500D01*
G75*
G02*
X54207500Y-24249000I250500J0D01*
G01*
X54758500Y-24249000D01*
G75*
G02*
X55009000Y-24499500I0J-250500D01*
G01*
X55009000Y-25000500D01*
G75*
G02*
X54758500Y-25251000I-250500J0D01*
G01*
G37*
G36*
G01*
X38387000Y-30755500D02*
X38387000Y-30204500D01*
G75*
G02*
X38637500Y-29954000I250500J0D01*
G01*
X39138500Y-29954000D01*
G75*
G02*
X39389000Y-30204500I0J-250500D01*
G01*
X39389000Y-30755500D01*
G75*
G02*
X39138500Y-31006000I-250500J0D01*
G01*
X38637500Y-31006000D01*
G75*
G02*
X38387000Y-30755500I0J250500D01*
G01*
G37*
G36*
G01*
X36837000Y-30755500D02*
X36837000Y-30204500D01*
G75*
G02*
X37087500Y-29954000I250500J0D01*
G01*
X37588500Y-29954000D01*
G75*
G02*
X37839000Y-30204500I0J-250500D01*
G01*
X37839000Y-30755500D01*
G75*
G02*
X37588500Y-31006000I-250500J0D01*
G01*
X37087500Y-31006000D01*
G75*
G02*
X36837000Y-30755500I0J250500D01*
G01*
G37*
G36*
G01*
X29705387Y-35952000D02*
X30619613Y-35952000D01*
G75*
G02*
X30888500Y-36220887I0J-268887D01*
G01*
X30888500Y-37185113D01*
G75*
G02*
X30619613Y-37454000I-268887J0D01*
G01*
X29705387Y-37454000D01*
G75*
G02*
X29436500Y-37185113I0J268887D01*
G01*
X29436500Y-36220887D01*
G75*
G02*
X29705387Y-35952000I268887J0D01*
G01*
G37*
G36*
G01*
X29705387Y-33252000D02*
X30619613Y-33252000D01*
G75*
G02*
X30888500Y-33520887I0J-268887D01*
G01*
X30888500Y-34485113D01*
G75*
G02*
X30619613Y-34754000I-268887J0D01*
G01*
X29705387Y-34754000D01*
G75*
G02*
X29436500Y-34485113I0J268887D01*
G01*
X29436500Y-33520887D01*
G75*
G02*
X29705387Y-33252000I268887J0D01*
G01*
G37*
G36*
G01*
X32733000Y-36808500D02*
X32733000Y-37359500D01*
G75*
G02*
X32482500Y-37610000I-250500J0D01*
G01*
X31981500Y-37610000D01*
G75*
G02*
X31731000Y-37359500I0J250500D01*
G01*
X31731000Y-36808500D01*
G75*
G02*
X31981500Y-36558000I250500J0D01*
G01*
X32482500Y-36558000D01*
G75*
G02*
X32733000Y-36808500I0J-250500D01*
G01*
G37*
G36*
G01*
X34283000Y-36808500D02*
X34283000Y-37359500D01*
G75*
G02*
X34032500Y-37610000I-250500J0D01*
G01*
X33531500Y-37610000D01*
G75*
G02*
X33281000Y-37359500I0J250500D01*
G01*
X33281000Y-36808500D01*
G75*
G02*
X33531500Y-36558000I250500J0D01*
G01*
X34032500Y-36558000D01*
G75*
G02*
X34283000Y-36808500I0J-250500D01*
G01*
G37*
G36*
G01*
X18584000Y-45473000D02*
X19135000Y-45473000D01*
G75*
G02*
X19385500Y-45723500I0J-250500D01*
G01*
X19385500Y-46224500D01*
G75*
G02*
X19135000Y-46475000I-250500J0D01*
G01*
X18584000Y-46475000D01*
G75*
G02*
X18333500Y-46224500I0J250500D01*
G01*
X18333500Y-45723500D01*
G75*
G02*
X18584000Y-45473000I250500J0D01*
G01*
G37*
G36*
G01*
X18584000Y-43923000D02*
X19135000Y-43923000D01*
G75*
G02*
X19385500Y-44173500I0J-250500D01*
G01*
X19385500Y-44674500D01*
G75*
G02*
X19135000Y-44925000I-250500J0D01*
G01*
X18584000Y-44925000D01*
G75*
G02*
X18333500Y-44674500I0J250500D01*
G01*
X18333500Y-44173500D01*
G75*
G02*
X18584000Y-43923000I250500J0D01*
G01*
G37*
G36*
G01*
X22330500Y-38996000D02*
X22881500Y-38996000D01*
G75*
G02*
X23132000Y-39246500I0J-250500D01*
G01*
X23132000Y-39747500D01*
G75*
G02*
X22881500Y-39998000I-250500J0D01*
G01*
X22330500Y-39998000D01*
G75*
G02*
X22080000Y-39747500I0J250500D01*
G01*
X22080000Y-39246500D01*
G75*
G02*
X22330500Y-38996000I250500J0D01*
G01*
G37*
G36*
G01*
X22330500Y-37446000D02*
X22881500Y-37446000D01*
G75*
G02*
X23132000Y-37696500I0J-250500D01*
G01*
X23132000Y-38197500D01*
G75*
G02*
X22881500Y-38448000I-250500J0D01*
G01*
X22330500Y-38448000D01*
G75*
G02*
X22080000Y-38197500I0J250500D01*
G01*
X22080000Y-37696500D01*
G75*
G02*
X22330500Y-37446000I250500J0D01*
G01*
G37*
G36*
G01*
X33676500Y-25026500D02*
X33125500Y-25026500D01*
G75*
G02*
X32875000Y-24776000I0J250500D01*
G01*
X32875000Y-24275000D01*
G75*
G02*
X33125500Y-24024500I250500J0D01*
G01*
X33676500Y-24024500D01*
G75*
G02*
X33927000Y-24275000I0J-250500D01*
G01*
X33927000Y-24776000D01*
G75*
G02*
X33676500Y-25026500I-250500J0D01*
G01*
G37*
G36*
G01*
X33676500Y-26576500D02*
X33125500Y-26576500D01*
G75*
G02*
X32875000Y-26326000I0J250500D01*
G01*
X32875000Y-25825000D01*
G75*
G02*
X33125500Y-25574500I250500J0D01*
G01*
X33676500Y-25574500D01*
G75*
G02*
X33927000Y-25825000I0J-250500D01*
G01*
X33927000Y-26326000D01*
G75*
G02*
X33676500Y-26576500I-250500J0D01*
G01*
G37*
G36*
G01*
X46143000Y-16416000D02*
X46694000Y-16416000D01*
G75*
G02*
X46944500Y-16666500I0J-250500D01*
G01*
X46944500Y-17167500D01*
G75*
G02*
X46694000Y-17418000I-250500J0D01*
G01*
X46143000Y-17418000D01*
G75*
G02*
X45892500Y-17167500I0J250500D01*
G01*
X45892500Y-16666500D01*
G75*
G02*
X46143000Y-16416000I250500J0D01*
G01*
G37*
G36*
G01*
X46143000Y-14866000D02*
X46694000Y-14866000D01*
G75*
G02*
X46944500Y-15116500I0J-250500D01*
G01*
X46944500Y-15617500D01*
G75*
G02*
X46694000Y-15868000I-250500J0D01*
G01*
X46143000Y-15868000D01*
G75*
G02*
X45892500Y-15617500I0J250500D01*
G01*
X45892500Y-15116500D01*
G75*
G02*
X46143000Y-14866000I250500J0D01*
G01*
G37*
G36*
G01*
X52556500Y-17914000D02*
X53107500Y-17914000D01*
G75*
G02*
X53358000Y-18164500I0J-250500D01*
G01*
X53358000Y-18665500D01*
G75*
G02*
X53107500Y-18916000I-250500J0D01*
G01*
X52556500Y-18916000D01*
G75*
G02*
X52306000Y-18665500I0J250500D01*
G01*
X52306000Y-18164500D01*
G75*
G02*
X52556500Y-17914000I250500J0D01*
G01*
G37*
G36*
G01*
X52556500Y-16364000D02*
X53107500Y-16364000D01*
G75*
G02*
X53358000Y-16614500I0J-250500D01*
G01*
X53358000Y-17115500D01*
G75*
G02*
X53107500Y-17366000I-250500J0D01*
G01*
X52556500Y-17366000D01*
G75*
G02*
X52306000Y-17115500I0J250500D01*
G01*
X52306000Y-16614500D01*
G75*
G02*
X52556500Y-16364000I250500J0D01*
G01*
G37*
G36*
G01*
X21915000Y-44022500D02*
X21915000Y-44623500D01*
G75*
G02*
X21689500Y-44849000I-225500J0D01*
G01*
X21238500Y-44849000D01*
G75*
G02*
X21013000Y-44623500I0J225500D01*
G01*
X21013000Y-44022500D01*
G75*
G02*
X21238500Y-43797000I225500J0D01*
G01*
X21689500Y-43797000D01*
G75*
G02*
X21915000Y-44022500I0J-225500D01*
G01*
G37*
G36*
G01*
X23565000Y-44022500D02*
X23565000Y-44623500D01*
G75*
G02*
X23339500Y-44849000I-225500J0D01*
G01*
X22888500Y-44849000D01*
G75*
G02*
X22663000Y-44623500I0J225500D01*
G01*
X22663000Y-44022500D01*
G75*
G02*
X22888500Y-43797000I225500J0D01*
G01*
X23339500Y-43797000D01*
G75*
G02*
X23565000Y-44022500I0J-225500D01*
G01*
G37*
G36*
G01*
X22662000Y-47417500D02*
X22662000Y-46816500D01*
G75*
G02*
X22887500Y-46591000I225500J0D01*
G01*
X23338500Y-46591000D01*
G75*
G02*
X23564000Y-46816500I0J-225500D01*
G01*
X23564000Y-47417500D01*
G75*
G02*
X23338500Y-47643000I-225500J0D01*
G01*
X22887500Y-47643000D01*
G75*
G02*
X22662000Y-47417500I0J225500D01*
G01*
G37*
G36*
G01*
X21012000Y-47417500D02*
X21012000Y-46816500D01*
G75*
G02*
X21237500Y-46591000I225500J0D01*
G01*
X21688500Y-46591000D01*
G75*
G02*
X21914000Y-46816500I0J-225500D01*
G01*
X21914000Y-47417500D01*
G75*
G02*
X21688500Y-47643000I-225500J0D01*
G01*
X21237500Y-47643000D01*
G75*
G02*
X21012000Y-47417500I0J225500D01*
G01*
G37*
G36*
G01*
X26435000Y-46602000D02*
X25635000Y-46602000D01*
G75*
G02*
X25584000Y-46551000I0J51000D01*
G01*
X25584000Y-45651000D01*
G75*
G02*
X25635000Y-45600000I51000J0D01*
G01*
X26435000Y-45600000D01*
G75*
G02*
X26486000Y-45651000I0J-51000D01*
G01*
X26486000Y-46551000D01*
G75*
G02*
X26435000Y-46602000I-51000J0D01*
G01*
G37*
G36*
G01*
X27385000Y-48602000D02*
X26585000Y-48602000D01*
G75*
G02*
X26534000Y-48551000I0J51000D01*
G01*
X26534000Y-47651000D01*
G75*
G02*
X26585000Y-47600000I51000J0D01*
G01*
X27385000Y-47600000D01*
G75*
G02*
X27436000Y-47651000I0J-51000D01*
G01*
X27436000Y-48551000D01*
G75*
G02*
X27385000Y-48602000I-51000J0D01*
G01*
G37*
G36*
G01*
X25485000Y-48602000D02*
X24685000Y-48602000D01*
G75*
G02*
X24634000Y-48551000I0J51000D01*
G01*
X24634000Y-47651000D01*
G75*
G02*
X24685000Y-47600000I51000J0D01*
G01*
X25485000Y-47600000D01*
G75*
G02*
X25536000Y-47651000I0J-51000D01*
G01*
X25536000Y-48551000D01*
G75*
G02*
X25485000Y-48602000I-51000J0D01*
G01*
G37*
G36*
G01*
X38551000Y-36783500D02*
X38551000Y-37384500D01*
G75*
G02*
X38325500Y-37610000I-225500J0D01*
G01*
X37874500Y-37610000D01*
G75*
G02*
X37649000Y-37384500I0J225500D01*
G01*
X37649000Y-36783500D01*
G75*
G02*
X37874500Y-36558000I225500J0D01*
G01*
X38325500Y-36558000D01*
G75*
G02*
X38551000Y-36783500I0J-225500D01*
G01*
G37*
G36*
G01*
X40201000Y-36783500D02*
X40201000Y-37384500D01*
G75*
G02*
X39975500Y-37610000I-225500J0D01*
G01*
X39524500Y-37610000D01*
G75*
G02*
X39299000Y-37384500I0J225500D01*
G01*
X39299000Y-36783500D01*
G75*
G02*
X39524500Y-36558000I225500J0D01*
G01*
X39975500Y-36558000D01*
G75*
G02*
X40201000Y-36783500I0J-225500D01*
G01*
G37*
G36*
G01*
X51518000Y-20878887D02*
X51518000Y-21793113D01*
G75*
G02*
X51249113Y-22062000I-268887J0D01*
G01*
X50284887Y-22062000D01*
G75*
G02*
X50016000Y-21793113I0J268887D01*
G01*
X50016000Y-20878887D01*
G75*
G02*
X50284887Y-20610000I268887J0D01*
G01*
X51249113Y-20610000D01*
G75*
G02*
X51518000Y-20878887I0J-268887D01*
G01*
G37*
G36*
G01*
X54218000Y-20878887D02*
X54218000Y-21793113D01*
G75*
G02*
X53949113Y-22062000I-268887J0D01*
G01*
X52984887Y-22062000D01*
G75*
G02*
X52716000Y-21793113I0J268887D01*
G01*
X52716000Y-20878887D01*
G75*
G02*
X52984887Y-20610000I268887J0D01*
G01*
X53949113Y-20610000D01*
G75*
G02*
X54218000Y-20878887I0J-268887D01*
G01*
G37*
G36*
G01*
X43326000Y-21693000D02*
X43326000Y-25043000D01*
G75*
G02*
X43275000Y-25094000I-51000J0D01*
G01*
X39925000Y-25094000D01*
G75*
G02*
X39874000Y-25043000I0J51000D01*
G01*
X39874000Y-21693000D01*
G75*
G02*
X39925000Y-21642000I51000J0D01*
G01*
X43275000Y-21642000D01*
G75*
G02*
X43326000Y-21693000I0J-51000D01*
G01*
G37*
G36*
G01*
X43276000Y-25455000D02*
X43276000Y-26181000D01*
G75*
G02*
X43188000Y-26269000I-88000J0D01*
G01*
X43012000Y-26269000D01*
G75*
G02*
X42924000Y-26181000I0J88000D01*
G01*
X42924000Y-25455000D01*
G75*
G02*
X43012000Y-25367000I88000J0D01*
G01*
X43188000Y-25367000D01*
G75*
G02*
X43276000Y-25455000I0J-88000D01*
G01*
G37*
G36*
G01*
X42776000Y-25455000D02*
X42776000Y-26181000D01*
G75*
G02*
X42688000Y-26269000I-88000J0D01*
G01*
X42512000Y-26269000D01*
G75*
G02*
X42424000Y-26181000I0J88000D01*
G01*
X42424000Y-25455000D01*
G75*
G02*
X42512000Y-25367000I88000J0D01*
G01*
X42688000Y-25367000D01*
G75*
G02*
X42776000Y-25455000I0J-88000D01*
G01*
G37*
G36*
G01*
X42276000Y-25455000D02*
X42276000Y-26181000D01*
G75*
G02*
X42188000Y-26269000I-88000J0D01*
G01*
X42012000Y-26269000D01*
G75*
G02*
X41924000Y-26181000I0J88000D01*
G01*
X41924000Y-25455000D01*
G75*
G02*
X42012000Y-25367000I88000J0D01*
G01*
X42188000Y-25367000D01*
G75*
G02*
X42276000Y-25455000I0J-88000D01*
G01*
G37*
G36*
G01*
X41776000Y-25455000D02*
X41776000Y-26181000D01*
G75*
G02*
X41688000Y-26269000I-88000J0D01*
G01*
X41512000Y-26269000D01*
G75*
G02*
X41424000Y-26181000I0J88000D01*
G01*
X41424000Y-25455000D01*
G75*
G02*
X41512000Y-25367000I88000J0D01*
G01*
X41688000Y-25367000D01*
G75*
G02*
X41776000Y-25455000I0J-88000D01*
G01*
G37*
G36*
G01*
X41276000Y-25455000D02*
X41276000Y-26181000D01*
G75*
G02*
X41188000Y-26269000I-88000J0D01*
G01*
X41012000Y-26269000D01*
G75*
G02*
X40924000Y-26181000I0J88000D01*
G01*
X40924000Y-25455000D01*
G75*
G02*
X41012000Y-25367000I88000J0D01*
G01*
X41188000Y-25367000D01*
G75*
G02*
X41276000Y-25455000I0J-88000D01*
G01*
G37*
G36*
G01*
X40776000Y-25455000D02*
X40776000Y-26181000D01*
G75*
G02*
X40688000Y-26269000I-88000J0D01*
G01*
X40512000Y-26269000D01*
G75*
G02*
X40424000Y-26181000I0J88000D01*
G01*
X40424000Y-25455000D01*
G75*
G02*
X40512000Y-25367000I88000J0D01*
G01*
X40688000Y-25367000D01*
G75*
G02*
X40776000Y-25455000I0J-88000D01*
G01*
G37*
G36*
G01*
X40276000Y-25455000D02*
X40276000Y-26181000D01*
G75*
G02*
X40188000Y-26269000I-88000J0D01*
G01*
X40012000Y-26269000D01*
G75*
G02*
X39924000Y-26181000I0J88000D01*
G01*
X39924000Y-25455000D01*
G75*
G02*
X40012000Y-25367000I88000J0D01*
G01*
X40188000Y-25367000D01*
G75*
G02*
X40276000Y-25455000I0J-88000D01*
G01*
G37*
G36*
G01*
X39601000Y-24780000D02*
X39601000Y-24956000D01*
G75*
G02*
X39513000Y-25044000I-88000J0D01*
G01*
X38787000Y-25044000D01*
G75*
G02*
X38699000Y-24956000I0J88000D01*
G01*
X38699000Y-24780000D01*
G75*
G02*
X38787000Y-24692000I88000J0D01*
G01*
X39513000Y-24692000D01*
G75*
G02*
X39601000Y-24780000I0J-88000D01*
G01*
G37*
G36*
G01*
X39601000Y-24280000D02*
X39601000Y-24456000D01*
G75*
G02*
X39513000Y-24544000I-88000J0D01*
G01*
X38787000Y-24544000D01*
G75*
G02*
X38699000Y-24456000I0J88000D01*
G01*
X38699000Y-24280000D01*
G75*
G02*
X38787000Y-24192000I88000J0D01*
G01*
X39513000Y-24192000D01*
G75*
G02*
X39601000Y-24280000I0J-88000D01*
G01*
G37*
G36*
G01*
X39601000Y-23780000D02*
X39601000Y-23956000D01*
G75*
G02*
X39513000Y-24044000I-88000J0D01*
G01*
X38787000Y-24044000D01*
G75*
G02*
X38699000Y-23956000I0J88000D01*
G01*
X38699000Y-23780000D01*
G75*
G02*
X38787000Y-23692000I88000J0D01*
G01*
X39513000Y-23692000D01*
G75*
G02*
X39601000Y-23780000I0J-88000D01*
G01*
G37*
G36*
G01*
X39601000Y-23280000D02*
X39601000Y-23456000D01*
G75*
G02*
X39513000Y-23544000I-88000J0D01*
G01*
X38787000Y-23544000D01*
G75*
G02*
X38699000Y-23456000I0J88000D01*
G01*
X38699000Y-23280000D01*
G75*
G02*
X38787000Y-23192000I88000J0D01*
G01*
X39513000Y-23192000D01*
G75*
G02*
X39601000Y-23280000I0J-88000D01*
G01*
G37*
G36*
G01*
X39601000Y-22780000D02*
X39601000Y-22956000D01*
G75*
G02*
X39513000Y-23044000I-88000J0D01*
G01*
X38787000Y-23044000D01*
G75*
G02*
X38699000Y-22956000I0J88000D01*
G01*
X38699000Y-22780000D01*
G75*
G02*
X38787000Y-22692000I88000J0D01*
G01*
X39513000Y-22692000D01*
G75*
G02*
X39601000Y-22780000I0J-88000D01*
G01*
G37*
G36*
G01*
X39601000Y-22280000D02*
X39601000Y-22456000D01*
G75*
G02*
X39513000Y-22544000I-88000J0D01*
G01*
X38787000Y-22544000D01*
G75*
G02*
X38699000Y-22456000I0J88000D01*
G01*
X38699000Y-22280000D01*
G75*
G02*
X38787000Y-22192000I88000J0D01*
G01*
X39513000Y-22192000D01*
G75*
G02*
X39601000Y-22280000I0J-88000D01*
G01*
G37*
G36*
G01*
X39601000Y-21780000D02*
X39601000Y-21956000D01*
G75*
G02*
X39513000Y-22044000I-88000J0D01*
G01*
X38787000Y-22044000D01*
G75*
G02*
X38699000Y-21956000I0J88000D01*
G01*
X38699000Y-21780000D01*
G75*
G02*
X38787000Y-21692000I88000J0D01*
G01*
X39513000Y-21692000D01*
G75*
G02*
X39601000Y-21780000I0J-88000D01*
G01*
G37*
G36*
G01*
X40276000Y-20555000D02*
X40276000Y-21281000D01*
G75*
G02*
X40188000Y-21369000I-88000J0D01*
G01*
X40012000Y-21369000D01*
G75*
G02*
X39924000Y-21281000I0J88000D01*
G01*
X39924000Y-20555000D01*
G75*
G02*
X40012000Y-20467000I88000J0D01*
G01*
X40188000Y-20467000D01*
G75*
G02*
X40276000Y-20555000I0J-88000D01*
G01*
G37*
G36*
G01*
X40776000Y-20555000D02*
X40776000Y-21281000D01*
G75*
G02*
X40688000Y-21369000I-88000J0D01*
G01*
X40512000Y-21369000D01*
G75*
G02*
X40424000Y-21281000I0J88000D01*
G01*
X40424000Y-20555000D01*
G75*
G02*
X40512000Y-20467000I88000J0D01*
G01*
X40688000Y-20467000D01*
G75*
G02*
X40776000Y-20555000I0J-88000D01*
G01*
G37*
G36*
G01*
X41276000Y-20555000D02*
X41276000Y-21281000D01*
G75*
G02*
X41188000Y-21369000I-88000J0D01*
G01*
X41012000Y-21369000D01*
G75*
G02*
X40924000Y-21281000I0J88000D01*
G01*
X40924000Y-20555000D01*
G75*
G02*
X41012000Y-20467000I88000J0D01*
G01*
X41188000Y-20467000D01*
G75*
G02*
X41276000Y-20555000I0J-88000D01*
G01*
G37*
G36*
G01*
X41776000Y-20555000D02*
X41776000Y-21281000D01*
G75*
G02*
X41688000Y-21369000I-88000J0D01*
G01*
X41512000Y-21369000D01*
G75*
G02*
X41424000Y-21281000I0J88000D01*
G01*
X41424000Y-20555000D01*
G75*
G02*
X41512000Y-20467000I88000J0D01*
G01*
X41688000Y-20467000D01*
G75*
G02*
X41776000Y-20555000I0J-88000D01*
G01*
G37*
G36*
G01*
X42276000Y-20555000D02*
X42276000Y-21281000D01*
G75*
G02*
X42188000Y-21369000I-88000J0D01*
G01*
X42012000Y-21369000D01*
G75*
G02*
X41924000Y-21281000I0J88000D01*
G01*
X41924000Y-20555000D01*
G75*
G02*
X42012000Y-20467000I88000J0D01*
G01*
X42188000Y-20467000D01*
G75*
G02*
X42276000Y-20555000I0J-88000D01*
G01*
G37*
G36*
G01*
X42776000Y-20555000D02*
X42776000Y-21281000D01*
G75*
G02*
X42688000Y-21369000I-88000J0D01*
G01*
X42512000Y-21369000D01*
G75*
G02*
X42424000Y-21281000I0J88000D01*
G01*
X42424000Y-20555000D01*
G75*
G02*
X42512000Y-20467000I88000J0D01*
G01*
X42688000Y-20467000D01*
G75*
G02*
X42776000Y-20555000I0J-88000D01*
G01*
G37*
G36*
G01*
X43276000Y-20555000D02*
X43276000Y-21281000D01*
G75*
G02*
X43188000Y-21369000I-88000J0D01*
G01*
X43012000Y-21369000D01*
G75*
G02*
X42924000Y-21281000I0J88000D01*
G01*
X42924000Y-20555000D01*
G75*
G02*
X43012000Y-20467000I88000J0D01*
G01*
X43188000Y-20467000D01*
G75*
G02*
X43276000Y-20555000I0J-88000D01*
G01*
G37*
G36*
G01*
X44501000Y-21780000D02*
X44501000Y-21956000D01*
G75*
G02*
X44413000Y-22044000I-88000J0D01*
G01*
X43687000Y-22044000D01*
G75*
G02*
X43599000Y-21956000I0J88000D01*
G01*
X43599000Y-21780000D01*
G75*
G02*
X43687000Y-21692000I88000J0D01*
G01*
X44413000Y-21692000D01*
G75*
G02*
X44501000Y-21780000I0J-88000D01*
G01*
G37*
G36*
G01*
X44501000Y-22280000D02*
X44501000Y-22456000D01*
G75*
G02*
X44413000Y-22544000I-88000J0D01*
G01*
X43687000Y-22544000D01*
G75*
G02*
X43599000Y-22456000I0J88000D01*
G01*
X43599000Y-22280000D01*
G75*
G02*
X43687000Y-22192000I88000J0D01*
G01*
X44413000Y-22192000D01*
G75*
G02*
X44501000Y-22280000I0J-88000D01*
G01*
G37*
G36*
G01*
X44501000Y-22780000D02*
X44501000Y-22956000D01*
G75*
G02*
X44413000Y-23044000I-88000J0D01*
G01*
X43687000Y-23044000D01*
G75*
G02*
X43599000Y-22956000I0J88000D01*
G01*
X43599000Y-22780000D01*
G75*
G02*
X43687000Y-22692000I88000J0D01*
G01*
X44413000Y-22692000D01*
G75*
G02*
X44501000Y-22780000I0J-88000D01*
G01*
G37*
G36*
G01*
X44501000Y-23280000D02*
X44501000Y-23456000D01*
G75*
G02*
X44413000Y-23544000I-88000J0D01*
G01*
X43687000Y-23544000D01*
G75*
G02*
X43599000Y-23456000I0J88000D01*
G01*
X43599000Y-23280000D01*
G75*
G02*
X43687000Y-23192000I88000J0D01*
G01*
X44413000Y-23192000D01*
G75*
G02*
X44501000Y-23280000I0J-88000D01*
G01*
G37*
G36*
G01*
X44501000Y-23780000D02*
X44501000Y-23956000D01*
G75*
G02*
X44413000Y-24044000I-88000J0D01*
G01*
X43687000Y-24044000D01*
G75*
G02*
X43599000Y-23956000I0J88000D01*
G01*
X43599000Y-23780000D01*
G75*
G02*
X43687000Y-23692000I88000J0D01*
G01*
X44413000Y-23692000D01*
G75*
G02*
X44501000Y-23780000I0J-88000D01*
G01*
G37*
G36*
G01*
X44501000Y-24280000D02*
X44501000Y-24456000D01*
G75*
G02*
X44413000Y-24544000I-88000J0D01*
G01*
X43687000Y-24544000D01*
G75*
G02*
X43599000Y-24456000I0J88000D01*
G01*
X43599000Y-24280000D01*
G75*
G02*
X43687000Y-24192000I88000J0D01*
G01*
X44413000Y-24192000D01*
G75*
G02*
X44501000Y-24280000I0J-88000D01*
G01*
G37*
G36*
G01*
X44501000Y-24780000D02*
X44501000Y-24956000D01*
G75*
G02*
X44413000Y-25044000I-88000J0D01*
G01*
X43687000Y-25044000D01*
G75*
G02*
X43599000Y-24956000I0J88000D01*
G01*
X43599000Y-24780000D01*
G75*
G02*
X43687000Y-24692000I88000J0D01*
G01*
X44413000Y-24692000D01*
G75*
G02*
X44501000Y-24780000I0J-88000D01*
G01*
G37*
G36*
G01*
X19688500Y-31383000D02*
X18237500Y-31383000D01*
G75*
G02*
X18137000Y-31282500I0J100500D01*
G01*
X18137000Y-31081500D01*
G75*
G02*
X18237500Y-30981000I100500J0D01*
G01*
X19688500Y-30981000D01*
G75*
G02*
X19789000Y-31081500I0J-100500D01*
G01*
X19789000Y-31282500D01*
G75*
G02*
X19688500Y-31383000I-100500J0D01*
G01*
G37*
G36*
G01*
X19688500Y-30883000D02*
X18237500Y-30883000D01*
G75*
G02*
X18137000Y-30782500I0J100500D01*
G01*
X18137000Y-30581500D01*
G75*
G02*
X18237500Y-30481000I100500J0D01*
G01*
X19688500Y-30481000D01*
G75*
G02*
X19789000Y-30581500I0J-100500D01*
G01*
X19789000Y-30782500D01*
G75*
G02*
X19688500Y-30883000I-100500J0D01*
G01*
G37*
G36*
G01*
X19688500Y-30383000D02*
X18237500Y-30383000D01*
G75*
G02*
X18137000Y-30282500I0J100500D01*
G01*
X18137000Y-30081500D01*
G75*
G02*
X18237500Y-29981000I100500J0D01*
G01*
X19688500Y-29981000D01*
G75*
G02*
X19789000Y-30081500I0J-100500D01*
G01*
X19789000Y-30282500D01*
G75*
G02*
X19688500Y-30383000I-100500J0D01*
G01*
G37*
G36*
G01*
X19688500Y-29883000D02*
X18237500Y-29883000D01*
G75*
G02*
X18137000Y-29782500I0J100500D01*
G01*
X18137000Y-29581500D01*
G75*
G02*
X18237500Y-29481000I100500J0D01*
G01*
X19688500Y-29481000D01*
G75*
G02*
X19789000Y-29581500I0J-100500D01*
G01*
X19789000Y-29782500D01*
G75*
G02*
X19688500Y-29883000I-100500J0D01*
G01*
G37*
G36*
G01*
X19688500Y-29383000D02*
X18237500Y-29383000D01*
G75*
G02*
X18137000Y-29282500I0J100500D01*
G01*
X18137000Y-29081500D01*
G75*
G02*
X18237500Y-28981000I100500J0D01*
G01*
X19688500Y-28981000D01*
G75*
G02*
X19789000Y-29081500I0J-100500D01*
G01*
X19789000Y-29282500D01*
G75*
G02*
X19688500Y-29383000I-100500J0D01*
G01*
G37*
G36*
G01*
X19688500Y-28883000D02*
X18237500Y-28883000D01*
G75*
G02*
X18137000Y-28782500I0J100500D01*
G01*
X18137000Y-28581500D01*
G75*
G02*
X18237500Y-28481000I100500J0D01*
G01*
X19688500Y-28481000D01*
G75*
G02*
X19789000Y-28581500I0J-100500D01*
G01*
X19789000Y-28782500D01*
G75*
G02*
X19688500Y-28883000I-100500J0D01*
G01*
G37*
G36*
G01*
X19688500Y-28383000D02*
X18237500Y-28383000D01*
G75*
G02*
X18137000Y-28282500I0J100500D01*
G01*
X18137000Y-28081500D01*
G75*
G02*
X18237500Y-27981000I100500J0D01*
G01*
X19688500Y-27981000D01*
G75*
G02*
X19789000Y-28081500I0J-100500D01*
G01*
X19789000Y-28282500D01*
G75*
G02*
X19688500Y-28383000I-100500J0D01*
G01*
G37*
G36*
G01*
X19688500Y-27883000D02*
X18237500Y-27883000D01*
G75*
G02*
X18137000Y-27782500I0J100500D01*
G01*
X18137000Y-27581500D01*
G75*
G02*
X18237500Y-27481000I100500J0D01*
G01*
X19688500Y-27481000D01*
G75*
G02*
X19789000Y-27581500I0J-100500D01*
G01*
X19789000Y-27782500D01*
G75*
G02*
X19688500Y-27883000I-100500J0D01*
G01*
G37*
G36*
G01*
X19688500Y-27383000D02*
X18237500Y-27383000D01*
G75*
G02*
X18137000Y-27282500I0J100500D01*
G01*
X18137000Y-27081500D01*
G75*
G02*
X18237500Y-26981000I100500J0D01*
G01*
X19688500Y-26981000D01*
G75*
G02*
X19789000Y-27081500I0J-100500D01*
G01*
X19789000Y-27282500D01*
G75*
G02*
X19688500Y-27383000I-100500J0D01*
G01*
G37*
G36*
G01*
X19688500Y-26883000D02*
X18237500Y-26883000D01*
G75*
G02*
X18137000Y-26782500I0J100500D01*
G01*
X18137000Y-26581500D01*
G75*
G02*
X18237500Y-26481000I100500J0D01*
G01*
X19688500Y-26481000D01*
G75*
G02*
X19789000Y-26581500I0J-100500D01*
G01*
X19789000Y-26782500D01*
G75*
G02*
X19688500Y-26883000I-100500J0D01*
G01*
G37*
G36*
G01*
X19688500Y-26383000D02*
X18237500Y-26383000D01*
G75*
G02*
X18137000Y-26282500I0J100500D01*
G01*
X18137000Y-26081500D01*
G75*
G02*
X18237500Y-25981000I100500J0D01*
G01*
X19688500Y-25981000D01*
G75*
G02*
X19789000Y-26081500I0J-100500D01*
G01*
X19789000Y-26282500D01*
G75*
G02*
X19688500Y-26383000I-100500J0D01*
G01*
G37*
G36*
G01*
X19688500Y-25883000D02*
X18237500Y-25883000D01*
G75*
G02*
X18137000Y-25782500I0J100500D01*
G01*
X18137000Y-25581500D01*
G75*
G02*
X18237500Y-25481000I100500J0D01*
G01*
X19688500Y-25481000D01*
G75*
G02*
X19789000Y-25581500I0J-100500D01*
G01*
X19789000Y-25782500D01*
G75*
G02*
X19688500Y-25883000I-100500J0D01*
G01*
G37*
G36*
G01*
X19688500Y-25383000D02*
X18237500Y-25383000D01*
G75*
G02*
X18137000Y-25282500I0J100500D01*
G01*
X18137000Y-25081500D01*
G75*
G02*
X18237500Y-24981000I100500J0D01*
G01*
X19688500Y-24981000D01*
G75*
G02*
X19789000Y-25081500I0J-100500D01*
G01*
X19789000Y-25282500D01*
G75*
G02*
X19688500Y-25383000I-100500J0D01*
G01*
G37*
G36*
G01*
X19688500Y-24883000D02*
X18237500Y-24883000D01*
G75*
G02*
X18137000Y-24782500I0J100500D01*
G01*
X18137000Y-24581500D01*
G75*
G02*
X18237500Y-24481000I100500J0D01*
G01*
X19688500Y-24481000D01*
G75*
G02*
X19789000Y-24581500I0J-100500D01*
G01*
X19789000Y-24782500D01*
G75*
G02*
X19688500Y-24883000I-100500J0D01*
G01*
G37*
G36*
G01*
X19688500Y-24383000D02*
X18237500Y-24383000D01*
G75*
G02*
X18137000Y-24282500I0J100500D01*
G01*
X18137000Y-24081500D01*
G75*
G02*
X18237500Y-23981000I100500J0D01*
G01*
X19688500Y-23981000D01*
G75*
G02*
X19789000Y-24081500I0J-100500D01*
G01*
X19789000Y-24282500D01*
G75*
G02*
X19688500Y-24383000I-100500J0D01*
G01*
G37*
G36*
G01*
X19688500Y-23883000D02*
X18237500Y-23883000D01*
G75*
G02*
X18137000Y-23782500I0J100500D01*
G01*
X18137000Y-23581500D01*
G75*
G02*
X18237500Y-23481000I100500J0D01*
G01*
X19688500Y-23481000D01*
G75*
G02*
X19789000Y-23581500I0J-100500D01*
G01*
X19789000Y-23782500D01*
G75*
G02*
X19688500Y-23883000I-100500J0D01*
G01*
G37*
G36*
G01*
X20988500Y-22583000D02*
X20787500Y-22583000D01*
G75*
G02*
X20687000Y-22482500I0J100500D01*
G01*
X20687000Y-21031500D01*
G75*
G02*
X20787500Y-20931000I100500J0D01*
G01*
X20988500Y-20931000D01*
G75*
G02*
X21089000Y-21031500I0J-100500D01*
G01*
X21089000Y-22482500D01*
G75*
G02*
X20988500Y-22583000I-100500J0D01*
G01*
G37*
G36*
G01*
X21488500Y-22583000D02*
X21287500Y-22583000D01*
G75*
G02*
X21187000Y-22482500I0J100500D01*
G01*
X21187000Y-21031500D01*
G75*
G02*
X21287500Y-20931000I100500J0D01*
G01*
X21488500Y-20931000D01*
G75*
G02*
X21589000Y-21031500I0J-100500D01*
G01*
X21589000Y-22482500D01*
G75*
G02*
X21488500Y-22583000I-100500J0D01*
G01*
G37*
G36*
G01*
X21988500Y-22583000D02*
X21787500Y-22583000D01*
G75*
G02*
X21687000Y-22482500I0J100500D01*
G01*
X21687000Y-21031500D01*
G75*
G02*
X21787500Y-20931000I100500J0D01*
G01*
X21988500Y-20931000D01*
G75*
G02*
X22089000Y-21031500I0J-100500D01*
G01*
X22089000Y-22482500D01*
G75*
G02*
X21988500Y-22583000I-100500J0D01*
G01*
G37*
G36*
G01*
X22488500Y-22583000D02*
X22287500Y-22583000D01*
G75*
G02*
X22187000Y-22482500I0J100500D01*
G01*
X22187000Y-21031500D01*
G75*
G02*
X22287500Y-20931000I100500J0D01*
G01*
X22488500Y-20931000D01*
G75*
G02*
X22589000Y-21031500I0J-100500D01*
G01*
X22589000Y-22482500D01*
G75*
G02*
X22488500Y-22583000I-100500J0D01*
G01*
G37*
G36*
G01*
X22988500Y-22583000D02*
X22787500Y-22583000D01*
G75*
G02*
X22687000Y-22482500I0J100500D01*
G01*
X22687000Y-21031500D01*
G75*
G02*
X22787500Y-20931000I100500J0D01*
G01*
X22988500Y-20931000D01*
G75*
G02*
X23089000Y-21031500I0J-100500D01*
G01*
X23089000Y-22482500D01*
G75*
G02*
X22988500Y-22583000I-100500J0D01*
G01*
G37*
G36*
G01*
X23488500Y-22583000D02*
X23287500Y-22583000D01*
G75*
G02*
X23187000Y-22482500I0J100500D01*
G01*
X23187000Y-21031500D01*
G75*
G02*
X23287500Y-20931000I100500J0D01*
G01*
X23488500Y-20931000D01*
G75*
G02*
X23589000Y-21031500I0J-100500D01*
G01*
X23589000Y-22482500D01*
G75*
G02*
X23488500Y-22583000I-100500J0D01*
G01*
G37*
G36*
G01*
X23988500Y-22583000D02*
X23787500Y-22583000D01*
G75*
G02*
X23687000Y-22482500I0J100500D01*
G01*
X23687000Y-21031500D01*
G75*
G02*
X23787500Y-20931000I100500J0D01*
G01*
X23988500Y-20931000D01*
G75*
G02*
X24089000Y-21031500I0J-100500D01*
G01*
X24089000Y-22482500D01*
G75*
G02*
X23988500Y-22583000I-100500J0D01*
G01*
G37*
G36*
G01*
X24488500Y-22583000D02*
X24287500Y-22583000D01*
G75*
G02*
X24187000Y-22482500I0J100500D01*
G01*
X24187000Y-21031500D01*
G75*
G02*
X24287500Y-20931000I100500J0D01*
G01*
X24488500Y-20931000D01*
G75*
G02*
X24589000Y-21031500I0J-100500D01*
G01*
X24589000Y-22482500D01*
G75*
G02*
X24488500Y-22583000I-100500J0D01*
G01*
G37*
G36*
G01*
X24988500Y-22583000D02*
X24787500Y-22583000D01*
G75*
G02*
X24687000Y-22482500I0J100500D01*
G01*
X24687000Y-21031500D01*
G75*
G02*
X24787500Y-20931000I100500J0D01*
G01*
X24988500Y-20931000D01*
G75*
G02*
X25089000Y-21031500I0J-100500D01*
G01*
X25089000Y-22482500D01*
G75*
G02*
X24988500Y-22583000I-100500J0D01*
G01*
G37*
G36*
G01*
X25488500Y-22583000D02*
X25287500Y-22583000D01*
G75*
G02*
X25187000Y-22482500I0J100500D01*
G01*
X25187000Y-21031500D01*
G75*
G02*
X25287500Y-20931000I100500J0D01*
G01*
X25488500Y-20931000D01*
G75*
G02*
X25589000Y-21031500I0J-100500D01*
G01*
X25589000Y-22482500D01*
G75*
G02*
X25488500Y-22583000I-100500J0D01*
G01*
G37*
G36*
G01*
X25988500Y-22583000D02*
X25787500Y-22583000D01*
G75*
G02*
X25687000Y-22482500I0J100500D01*
G01*
X25687000Y-21031500D01*
G75*
G02*
X25787500Y-20931000I100500J0D01*
G01*
X25988500Y-20931000D01*
G75*
G02*
X26089000Y-21031500I0J-100500D01*
G01*
X26089000Y-22482500D01*
G75*
G02*
X25988500Y-22583000I-100500J0D01*
G01*
G37*
G36*
G01*
X26488500Y-22583000D02*
X26287500Y-22583000D01*
G75*
G02*
X26187000Y-22482500I0J100500D01*
G01*
X26187000Y-21031500D01*
G75*
G02*
X26287500Y-20931000I100500J0D01*
G01*
X26488500Y-20931000D01*
G75*
G02*
X26589000Y-21031500I0J-100500D01*
G01*
X26589000Y-22482500D01*
G75*
G02*
X26488500Y-22583000I-100500J0D01*
G01*
G37*
G36*
G01*
X26988500Y-22583000D02*
X26787500Y-22583000D01*
G75*
G02*
X26687000Y-22482500I0J100500D01*
G01*
X26687000Y-21031500D01*
G75*
G02*
X26787500Y-20931000I100500J0D01*
G01*
X26988500Y-20931000D01*
G75*
G02*
X27089000Y-21031500I0J-100500D01*
G01*
X27089000Y-22482500D01*
G75*
G02*
X26988500Y-22583000I-100500J0D01*
G01*
G37*
G36*
G01*
X27488500Y-22583000D02*
X27287500Y-22583000D01*
G75*
G02*
X27187000Y-22482500I0J100500D01*
G01*
X27187000Y-21031500D01*
G75*
G02*
X27287500Y-20931000I100500J0D01*
G01*
X27488500Y-20931000D01*
G75*
G02*
X27589000Y-21031500I0J-100500D01*
G01*
X27589000Y-22482500D01*
G75*
G02*
X27488500Y-22583000I-100500J0D01*
G01*
G37*
G36*
G01*
X27988500Y-22583000D02*
X27787500Y-22583000D01*
G75*
G02*
X27687000Y-22482500I0J100500D01*
G01*
X27687000Y-21031500D01*
G75*
G02*
X27787500Y-20931000I100500J0D01*
G01*
X27988500Y-20931000D01*
G75*
G02*
X28089000Y-21031500I0J-100500D01*
G01*
X28089000Y-22482500D01*
G75*
G02*
X27988500Y-22583000I-100500J0D01*
G01*
G37*
G36*
G01*
X28488500Y-22583000D02*
X28287500Y-22583000D01*
G75*
G02*
X28187000Y-22482500I0J100500D01*
G01*
X28187000Y-21031500D01*
G75*
G02*
X28287500Y-20931000I100500J0D01*
G01*
X28488500Y-20931000D01*
G75*
G02*
X28589000Y-21031500I0J-100500D01*
G01*
X28589000Y-22482500D01*
G75*
G02*
X28488500Y-22583000I-100500J0D01*
G01*
G37*
G36*
G01*
X31038500Y-23883000D02*
X29587500Y-23883000D01*
G75*
G02*
X29487000Y-23782500I0J100500D01*
G01*
X29487000Y-23581500D01*
G75*
G02*
X29587500Y-23481000I100500J0D01*
G01*
X31038500Y-23481000D01*
G75*
G02*
X31139000Y-23581500I0J-100500D01*
G01*
X31139000Y-23782500D01*
G75*
G02*
X31038500Y-23883000I-100500J0D01*
G01*
G37*
G36*
G01*
X31038500Y-24383000D02*
X29587500Y-24383000D01*
G75*
G02*
X29487000Y-24282500I0J100500D01*
G01*
X29487000Y-24081500D01*
G75*
G02*
X29587500Y-23981000I100500J0D01*
G01*
X31038500Y-23981000D01*
G75*
G02*
X31139000Y-24081500I0J-100500D01*
G01*
X31139000Y-24282500D01*
G75*
G02*
X31038500Y-24383000I-100500J0D01*
G01*
G37*
G36*
G01*
X31038500Y-24883000D02*
X29587500Y-24883000D01*
G75*
G02*
X29487000Y-24782500I0J100500D01*
G01*
X29487000Y-24581500D01*
G75*
G02*
X29587500Y-24481000I100500J0D01*
G01*
X31038500Y-24481000D01*
G75*
G02*
X31139000Y-24581500I0J-100500D01*
G01*
X31139000Y-24782500D01*
G75*
G02*
X31038500Y-24883000I-100500J0D01*
G01*
G37*
G36*
G01*
X31038500Y-25383000D02*
X29587500Y-25383000D01*
G75*
G02*
X29487000Y-25282500I0J100500D01*
G01*
X29487000Y-25081500D01*
G75*
G02*
X29587500Y-24981000I100500J0D01*
G01*
X31038500Y-24981000D01*
G75*
G02*
X31139000Y-25081500I0J-100500D01*
G01*
X31139000Y-25282500D01*
G75*
G02*
X31038500Y-25383000I-100500J0D01*
G01*
G37*
G36*
G01*
X31038500Y-25883000D02*
X29587500Y-25883000D01*
G75*
G02*
X29487000Y-25782500I0J100500D01*
G01*
X29487000Y-25581500D01*
G75*
G02*
X29587500Y-25481000I100500J0D01*
G01*
X31038500Y-25481000D01*
G75*
G02*
X31139000Y-25581500I0J-100500D01*
G01*
X31139000Y-25782500D01*
G75*
G02*
X31038500Y-25883000I-100500J0D01*
G01*
G37*
G36*
G01*
X31038500Y-26383000D02*
X29587500Y-26383000D01*
G75*
G02*
X29487000Y-26282500I0J100500D01*
G01*
X29487000Y-26081500D01*
G75*
G02*
X29587500Y-25981000I100500J0D01*
G01*
X31038500Y-25981000D01*
G75*
G02*
X31139000Y-26081500I0J-100500D01*
G01*
X31139000Y-26282500D01*
G75*
G02*
X31038500Y-26383000I-100500J0D01*
G01*
G37*
G36*
G01*
X31038500Y-26883000D02*
X29587500Y-26883000D01*
G75*
G02*
X29487000Y-26782500I0J100500D01*
G01*
X29487000Y-26581500D01*
G75*
G02*
X29587500Y-26481000I100500J0D01*
G01*
X31038500Y-26481000D01*
G75*
G02*
X31139000Y-26581500I0J-100500D01*
G01*
X31139000Y-26782500D01*
G75*
G02*
X31038500Y-26883000I-100500J0D01*
G01*
G37*
G36*
G01*
X31038500Y-27383000D02*
X29587500Y-27383000D01*
G75*
G02*
X29487000Y-27282500I0J100500D01*
G01*
X29487000Y-27081500D01*
G75*
G02*
X29587500Y-26981000I100500J0D01*
G01*
X31038500Y-26981000D01*
G75*
G02*
X31139000Y-27081500I0J-100500D01*
G01*
X31139000Y-27282500D01*
G75*
G02*
X31038500Y-27383000I-100500J0D01*
G01*
G37*
G36*
G01*
X31038500Y-27883000D02*
X29587500Y-27883000D01*
G75*
G02*
X29487000Y-27782500I0J100500D01*
G01*
X29487000Y-27581500D01*
G75*
G02*
X29587500Y-27481000I100500J0D01*
G01*
X31038500Y-27481000D01*
G75*
G02*
X31139000Y-27581500I0J-100500D01*
G01*
X31139000Y-27782500D01*
G75*
G02*
X31038500Y-27883000I-100500J0D01*
G01*
G37*
G36*
G01*
X31038500Y-28383000D02*
X29587500Y-28383000D01*
G75*
G02*
X29487000Y-28282500I0J100500D01*
G01*
X29487000Y-28081500D01*
G75*
G02*
X29587500Y-27981000I100500J0D01*
G01*
X31038500Y-27981000D01*
G75*
G02*
X31139000Y-28081500I0J-100500D01*
G01*
X31139000Y-28282500D01*
G75*
G02*
X31038500Y-28383000I-100500J0D01*
G01*
G37*
G36*
G01*
X31038500Y-28883000D02*
X29587500Y-28883000D01*
G75*
G02*
X29487000Y-28782500I0J100500D01*
G01*
X29487000Y-28581500D01*
G75*
G02*
X29587500Y-28481000I100500J0D01*
G01*
X31038500Y-28481000D01*
G75*
G02*
X31139000Y-28581500I0J-100500D01*
G01*
X31139000Y-28782500D01*
G75*
G02*
X31038500Y-28883000I-100500J0D01*
G01*
G37*
G36*
G01*
X31038500Y-29383000D02*
X29587500Y-29383000D01*
G75*
G02*
X29487000Y-29282500I0J100500D01*
G01*
X29487000Y-29081500D01*
G75*
G02*
X29587500Y-28981000I100500J0D01*
G01*
X31038500Y-28981000D01*
G75*
G02*
X31139000Y-29081500I0J-100500D01*
G01*
X31139000Y-29282500D01*
G75*
G02*
X31038500Y-29383000I-100500J0D01*
G01*
G37*
G36*
G01*
X31038500Y-29883000D02*
X29587500Y-29883000D01*
G75*
G02*
X29487000Y-29782500I0J100500D01*
G01*
X29487000Y-29581500D01*
G75*
G02*
X29587500Y-29481000I100500J0D01*
G01*
X31038500Y-29481000D01*
G75*
G02*
X31139000Y-29581500I0J-100500D01*
G01*
X31139000Y-29782500D01*
G75*
G02*
X31038500Y-29883000I-100500J0D01*
G01*
G37*
G36*
G01*
X31038500Y-30383000D02*
X29587500Y-30383000D01*
G75*
G02*
X29487000Y-30282500I0J100500D01*
G01*
X29487000Y-30081500D01*
G75*
G02*
X29587500Y-29981000I100500J0D01*
G01*
X31038500Y-29981000D01*
G75*
G02*
X31139000Y-30081500I0J-100500D01*
G01*
X31139000Y-30282500D01*
G75*
G02*
X31038500Y-30383000I-100500J0D01*
G01*
G37*
G36*
G01*
X31038500Y-30883000D02*
X29587500Y-30883000D01*
G75*
G02*
X29487000Y-30782500I0J100500D01*
G01*
X29487000Y-30581500D01*
G75*
G02*
X29587500Y-30481000I100500J0D01*
G01*
X31038500Y-30481000D01*
G75*
G02*
X31139000Y-30581500I0J-100500D01*
G01*
X31139000Y-30782500D01*
G75*
G02*
X31038500Y-30883000I-100500J0D01*
G01*
G37*
G36*
G01*
X31038500Y-31383000D02*
X29587500Y-31383000D01*
G75*
G02*
X29487000Y-31282500I0J100500D01*
G01*
X29487000Y-31081500D01*
G75*
G02*
X29587500Y-30981000I100500J0D01*
G01*
X31038500Y-30981000D01*
G75*
G02*
X31139000Y-31081500I0J-100500D01*
G01*
X31139000Y-31282500D01*
G75*
G02*
X31038500Y-31383000I-100500J0D01*
G01*
G37*
G36*
G01*
X28488500Y-33933000D02*
X28287500Y-33933000D01*
G75*
G02*
X28187000Y-33832500I0J100500D01*
G01*
X28187000Y-32381500D01*
G75*
G02*
X28287500Y-32281000I100500J0D01*
G01*
X28488500Y-32281000D01*
G75*
G02*
X28589000Y-32381500I0J-100500D01*
G01*
X28589000Y-33832500D01*
G75*
G02*
X28488500Y-33933000I-100500J0D01*
G01*
G37*
G36*
G01*
X27988500Y-33933000D02*
X27787500Y-33933000D01*
G75*
G02*
X27687000Y-33832500I0J100500D01*
G01*
X27687000Y-32381500D01*
G75*
G02*
X27787500Y-32281000I100500J0D01*
G01*
X27988500Y-32281000D01*
G75*
G02*
X28089000Y-32381500I0J-100500D01*
G01*
X28089000Y-33832500D01*
G75*
G02*
X27988500Y-33933000I-100500J0D01*
G01*
G37*
G36*
G01*
X27488500Y-33933000D02*
X27287500Y-33933000D01*
G75*
G02*
X27187000Y-33832500I0J100500D01*
G01*
X27187000Y-32381500D01*
G75*
G02*
X27287500Y-32281000I100500J0D01*
G01*
X27488500Y-32281000D01*
G75*
G02*
X27589000Y-32381500I0J-100500D01*
G01*
X27589000Y-33832500D01*
G75*
G02*
X27488500Y-33933000I-100500J0D01*
G01*
G37*
G36*
G01*
X26988500Y-33933000D02*
X26787500Y-33933000D01*
G75*
G02*
X26687000Y-33832500I0J100500D01*
G01*
X26687000Y-32381500D01*
G75*
G02*
X26787500Y-32281000I100500J0D01*
G01*
X26988500Y-32281000D01*
G75*
G02*
X27089000Y-32381500I0J-100500D01*
G01*
X27089000Y-33832500D01*
G75*
G02*
X26988500Y-33933000I-100500J0D01*
G01*
G37*
G36*
G01*
X26488500Y-33933000D02*
X26287500Y-33933000D01*
G75*
G02*
X26187000Y-33832500I0J100500D01*
G01*
X26187000Y-32381500D01*
G75*
G02*
X26287500Y-32281000I100500J0D01*
G01*
X26488500Y-32281000D01*
G75*
G02*
X26589000Y-32381500I0J-100500D01*
G01*
X26589000Y-33832500D01*
G75*
G02*
X26488500Y-33933000I-100500J0D01*
G01*
G37*
G36*
G01*
X25988500Y-33933000D02*
X25787500Y-33933000D01*
G75*
G02*
X25687000Y-33832500I0J100500D01*
G01*
X25687000Y-32381500D01*
G75*
G02*
X25787500Y-32281000I100500J0D01*
G01*
X25988500Y-32281000D01*
G75*
G02*
X26089000Y-32381500I0J-100500D01*
G01*
X26089000Y-33832500D01*
G75*
G02*
X25988500Y-33933000I-100500J0D01*
G01*
G37*
G36*
G01*
X25488500Y-33933000D02*
X25287500Y-33933000D01*
G75*
G02*
X25187000Y-33832500I0J100500D01*
G01*
X25187000Y-32381500D01*
G75*
G02*
X25287500Y-32281000I100500J0D01*
G01*
X25488500Y-32281000D01*
G75*
G02*
X25589000Y-32381500I0J-100500D01*
G01*
X25589000Y-33832500D01*
G75*
G02*
X25488500Y-33933000I-100500J0D01*
G01*
G37*
G36*
G01*
X24988500Y-33933000D02*
X24787500Y-33933000D01*
G75*
G02*
X24687000Y-33832500I0J100500D01*
G01*
X24687000Y-32381500D01*
G75*
G02*
X24787500Y-32281000I100500J0D01*
G01*
X24988500Y-32281000D01*
G75*
G02*
X25089000Y-32381500I0J-100500D01*
G01*
X25089000Y-33832500D01*
G75*
G02*
X24988500Y-33933000I-100500J0D01*
G01*
G37*
G36*
G01*
X24488500Y-33933000D02*
X24287500Y-33933000D01*
G75*
G02*
X24187000Y-33832500I0J100500D01*
G01*
X24187000Y-32381500D01*
G75*
G02*
X24287500Y-32281000I100500J0D01*
G01*
X24488500Y-32281000D01*
G75*
G02*
X24589000Y-32381500I0J-100500D01*
G01*
X24589000Y-33832500D01*
G75*
G02*
X24488500Y-33933000I-100500J0D01*
G01*
G37*
G36*
G01*
X23988500Y-33933000D02*
X23787500Y-33933000D01*
G75*
G02*
X23687000Y-33832500I0J100500D01*
G01*
X23687000Y-32381500D01*
G75*
G02*
X23787500Y-32281000I100500J0D01*
G01*
X23988500Y-32281000D01*
G75*
G02*
X24089000Y-32381500I0J-100500D01*
G01*
X24089000Y-33832500D01*
G75*
G02*
X23988500Y-33933000I-100500J0D01*
G01*
G37*
G36*
G01*
X23488500Y-33933000D02*
X23287500Y-33933000D01*
G75*
G02*
X23187000Y-33832500I0J100500D01*
G01*
X23187000Y-32381500D01*
G75*
G02*
X23287500Y-32281000I100500J0D01*
G01*
X23488500Y-32281000D01*
G75*
G02*
X23589000Y-32381500I0J-100500D01*
G01*
X23589000Y-33832500D01*
G75*
G02*
X23488500Y-33933000I-100500J0D01*
G01*
G37*
G36*
G01*
X22988500Y-33933000D02*
X22787500Y-33933000D01*
G75*
G02*
X22687000Y-33832500I0J100500D01*
G01*
X22687000Y-32381500D01*
G75*
G02*
X22787500Y-32281000I100500J0D01*
G01*
X22988500Y-32281000D01*
G75*
G02*
X23089000Y-32381500I0J-100500D01*
G01*
X23089000Y-33832500D01*
G75*
G02*
X22988500Y-33933000I-100500J0D01*
G01*
G37*
G36*
G01*
X22488500Y-33933000D02*
X22287500Y-33933000D01*
G75*
G02*
X22187000Y-33832500I0J100500D01*
G01*
X22187000Y-32381500D01*
G75*
G02*
X22287500Y-32281000I100500J0D01*
G01*
X22488500Y-32281000D01*
G75*
G02*
X22589000Y-32381500I0J-100500D01*
G01*
X22589000Y-33832500D01*
G75*
G02*
X22488500Y-33933000I-100500J0D01*
G01*
G37*
G36*
G01*
X21988500Y-33933000D02*
X21787500Y-33933000D01*
G75*
G02*
X21687000Y-33832500I0J100500D01*
G01*
X21687000Y-32381500D01*
G75*
G02*
X21787500Y-32281000I100500J0D01*
G01*
X21988500Y-32281000D01*
G75*
G02*
X22089000Y-32381500I0J-100500D01*
G01*
X22089000Y-33832500D01*
G75*
G02*
X21988500Y-33933000I-100500J0D01*
G01*
G37*
G36*
G01*
X21488500Y-33933000D02*
X21287500Y-33933000D01*
G75*
G02*
X21187000Y-33832500I0J100500D01*
G01*
X21187000Y-32381500D01*
G75*
G02*
X21287500Y-32281000I100500J0D01*
G01*
X21488500Y-32281000D01*
G75*
G02*
X21589000Y-32381500I0J-100500D01*
G01*
X21589000Y-33832500D01*
G75*
G02*
X21488500Y-33933000I-100500J0D01*
G01*
G37*
G36*
G01*
X20988500Y-33933000D02*
X20787500Y-33933000D01*
G75*
G02*
X20687000Y-33832500I0J100500D01*
G01*
X20687000Y-32381500D01*
G75*
G02*
X20787500Y-32281000I100500J0D01*
G01*
X20988500Y-32281000D01*
G75*
G02*
X21089000Y-32381500I0J-100500D01*
G01*
X21089000Y-33832500D01*
G75*
G02*
X20988500Y-33933000I-100500J0D01*
G01*
G37*
G36*
G01*
X26599000Y-35225500D02*
X26599000Y-34624500D01*
G75*
G02*
X26824500Y-34399000I225500J0D01*
G01*
X27275500Y-34399000D01*
G75*
G02*
X27501000Y-34624500I0J-225500D01*
G01*
X27501000Y-35225500D01*
G75*
G02*
X27275500Y-35451000I-225500J0D01*
G01*
X26824500Y-35451000D01*
G75*
G02*
X26599000Y-35225500I0J225500D01*
G01*
G37*
G36*
G01*
X24949000Y-35225500D02*
X24949000Y-34624500D01*
G75*
G02*
X25174500Y-34399000I225500J0D01*
G01*
X25625500Y-34399000D01*
G75*
G02*
X25851000Y-34624500I0J-225500D01*
G01*
X25851000Y-35225500D01*
G75*
G02*
X25625500Y-35451000I-225500J0D01*
G01*
X25174500Y-35451000D01*
G75*
G02*
X24949000Y-35225500I0J225500D01*
G01*
G37*
G36*
G01*
X56053500Y-23566000D02*
X55452500Y-23566000D01*
G75*
G02*
X55227000Y-23340500I0J225500D01*
G01*
X55227000Y-22889500D01*
G75*
G02*
X55452500Y-22664000I225500J0D01*
G01*
X56053500Y-22664000D01*
G75*
G02*
X56279000Y-22889500I0J-225500D01*
G01*
X56279000Y-23340500D01*
G75*
G02*
X56053500Y-23566000I-225500J0D01*
G01*
G37*
G36*
G01*
X56053500Y-25216000D02*
X55452500Y-25216000D01*
G75*
G02*
X55227000Y-24990500I0J225500D01*
G01*
X55227000Y-24539500D01*
G75*
G02*
X55452500Y-24314000I225500J0D01*
G01*
X56053500Y-24314000D01*
G75*
G02*
X56279000Y-24539500I0J-225500D01*
G01*
X56279000Y-24990500D01*
G75*
G02*
X56053500Y-25216000I-225500J0D01*
G01*
G37*
G36*
G01*
X36379000Y-37384500D02*
X36379000Y-36783500D01*
G75*
G02*
X36604500Y-36558000I225500J0D01*
G01*
X37055500Y-36558000D01*
G75*
G02*
X37281000Y-36783500I0J-225500D01*
G01*
X37281000Y-37384500D01*
G75*
G02*
X37055500Y-37610000I-225500J0D01*
G01*
X36604500Y-37610000D01*
G75*
G02*
X36379000Y-37384500I0J225500D01*
G01*
G37*
G36*
G01*
X34729000Y-37384500D02*
X34729000Y-36783500D01*
G75*
G02*
X34954500Y-36558000I225500J0D01*
G01*
X35405500Y-36558000D01*
G75*
G02*
X35631000Y-36783500I0J-225500D01*
G01*
X35631000Y-37384500D01*
G75*
G02*
X35405500Y-37610000I-225500J0D01*
G01*
X34954500Y-37610000D01*
G75*
G02*
X34729000Y-37384500I0J225500D01*
G01*
G37*
G36*
G01*
X21914000Y-48266500D02*
X21914000Y-48867500D01*
G75*
G02*
X21688500Y-49093000I-225500J0D01*
G01*
X21237500Y-49093000D01*
G75*
G02*
X21012000Y-48867500I0J225500D01*
G01*
X21012000Y-48266500D01*
G75*
G02*
X21237500Y-48041000I225500J0D01*
G01*
X21688500Y-48041000D01*
G75*
G02*
X21914000Y-48266500I0J-225500D01*
G01*
G37*
G36*
G01*
X23564000Y-48266500D02*
X23564000Y-48867500D01*
G75*
G02*
X23338500Y-49093000I-225500J0D01*
G01*
X22887500Y-49093000D01*
G75*
G02*
X22662000Y-48867500I0J225500D01*
G01*
X22662000Y-48266500D01*
G75*
G02*
X22887500Y-48041000I225500J0D01*
G01*
X23338500Y-48041000D01*
G75*
G02*
X23564000Y-48266500I0J-225500D01*
G01*
G37*
G36*
G01*
X31830500Y-25724500D02*
X32431500Y-25724500D01*
G75*
G02*
X32657000Y-25950000I0J-225500D01*
G01*
X32657000Y-26401000D01*
G75*
G02*
X32431500Y-26626500I-225500J0D01*
G01*
X31830500Y-26626500D01*
G75*
G02*
X31605000Y-26401000I0J225500D01*
G01*
X31605000Y-25950000D01*
G75*
G02*
X31830500Y-25724500I225500J0D01*
G01*
G37*
G36*
G01*
X31830500Y-24074500D02*
X32431500Y-24074500D01*
G75*
G02*
X32657000Y-24300000I0J-225500D01*
G01*
X32657000Y-24751000D01*
G75*
G02*
X32431500Y-24976500I-225500J0D01*
G01*
X31830500Y-24976500D01*
G75*
G02*
X31605000Y-24751000I0J225500D01*
G01*
X31605000Y-24300000D01*
G75*
G02*
X31830500Y-24074500I225500J0D01*
G01*
G37*
G36*
G01*
X21915000Y-45366500D02*
X21915000Y-45967500D01*
G75*
G02*
X21689500Y-46193000I-225500J0D01*
G01*
X21238500Y-46193000D01*
G75*
G02*
X21013000Y-45967500I0J225500D01*
G01*
X21013000Y-45366500D01*
G75*
G02*
X21238500Y-45141000I225500J0D01*
G01*
X21689500Y-45141000D01*
G75*
G02*
X21915000Y-45366500I0J-225500D01*
G01*
G37*
G36*
G01*
X23565000Y-45366500D02*
X23565000Y-45967500D01*
G75*
G02*
X23339500Y-46193000I-225500J0D01*
G01*
X22888500Y-46193000D01*
G75*
G02*
X22663000Y-45967500I0J225500D01*
G01*
X22663000Y-45366500D01*
G75*
G02*
X22888500Y-45141000I225500J0D01*
G01*
X23339500Y-45141000D01*
G75*
G02*
X23565000Y-45366500I0J-225500D01*
G01*
G37*
G36*
G01*
X23193500Y-34643250D02*
X23193500Y-35206750D01*
G75*
G02*
X22949250Y-35451000I-244250J0D01*
G01*
X22460750Y-35451000D01*
G75*
G02*
X22216500Y-35206750I0J244250D01*
G01*
X22216500Y-34643250D01*
G75*
G02*
X22460750Y-34399000I244250J0D01*
G01*
X22949250Y-34399000D01*
G75*
G02*
X23193500Y-34643250I0J-244250D01*
G01*
G37*
G36*
G01*
X24768500Y-34643250D02*
X24768500Y-35206750D01*
G75*
G02*
X24524250Y-35451000I-244250J0D01*
G01*
X24035750Y-35451000D01*
G75*
G02*
X23791500Y-35206750I0J244250D01*
G01*
X23791500Y-34643250D01*
G75*
G02*
X24035750Y-34399000I244250J0D01*
G01*
X24524250Y-34399000D01*
G75*
G02*
X24768500Y-34643250I0J-244250D01*
G01*
G37*
G36*
G01*
X47331500Y-24363500D02*
X45931500Y-24363500D01*
G75*
G02*
X45880500Y-24312500I0J51000D01*
G01*
X45880500Y-23312500D01*
G75*
G02*
X45931500Y-23261500I51000J0D01*
G01*
X47331500Y-23261500D01*
G75*
G02*
X47382500Y-23312500I0J-51000D01*
G01*
X47382500Y-24312500D01*
G75*
G02*
X47331500Y-24363500I-51000J0D01*
G01*
G37*
G36*
G01*
X47331500Y-22463500D02*
X45931500Y-22463500D01*
G75*
G02*
X45880500Y-22412500I0J51000D01*
G01*
X45880500Y-21412500D01*
G75*
G02*
X45931500Y-21361500I51000J0D01*
G01*
X47331500Y-21361500D01*
G75*
G02*
X47382500Y-21412500I0J-51000D01*
G01*
X47382500Y-22412500D01*
G75*
G02*
X47331500Y-22463500I-51000J0D01*
G01*
G37*
G36*
G01*
X49531500Y-22463500D02*
X48131500Y-22463500D01*
G75*
G02*
X48080500Y-22412500I0J51000D01*
G01*
X48080500Y-21412500D01*
G75*
G02*
X48131500Y-21361500I51000J0D01*
G01*
X49531500Y-21361500D01*
G75*
G02*
X49582500Y-21412500I0J-51000D01*
G01*
X49582500Y-22412500D01*
G75*
G02*
X49531500Y-22463500I-51000J0D01*
G01*
G37*
G36*
G01*
X49531501Y-24283500D02*
X48131499Y-24283500D01*
G75*
G02*
X48080500Y-24232501I0J50999D01*
G01*
X48080500Y-23032499D01*
G75*
G02*
X48131499Y-22981500I50999J0D01*
G01*
X49531501Y-22981500D01*
G75*
G02*
X49582500Y-23032499I0J-50999D01*
G01*
X49582500Y-24232501D01*
G75*
G02*
X49531501Y-24283500I-50999J0D01*
G01*
G37*
G36*
G01*
X40081113Y-32849000D02*
X39166887Y-32849000D01*
G75*
G02*
X38898000Y-32580113I0J268887D01*
G01*
X38898000Y-31615887D01*
G75*
G02*
X39166887Y-31347000I268887J0D01*
G01*
X40081113Y-31347000D01*
G75*
G02*
X40350000Y-31615887I0J-268887D01*
G01*
X40350000Y-32580113D01*
G75*
G02*
X40081113Y-32849000I-268887J0D01*
G01*
G37*
G36*
G01*
X40081113Y-35549000D02*
X39166887Y-35549000D01*
G75*
G02*
X38898000Y-35280113I0J268887D01*
G01*
X38898000Y-34315887D01*
G75*
G02*
X39166887Y-34047000I268887J0D01*
G01*
X40081113Y-34047000D01*
G75*
G02*
X40350000Y-34315887I0J-268887D01*
G01*
X40350000Y-35280113D01*
G75*
G02*
X40081113Y-35549000I-268887J0D01*
G01*
G37*
G36*
G01*
X38348500Y-29422000D02*
X38348500Y-28871000D01*
G75*
G02*
X38599000Y-28620500I250500J0D01*
G01*
X39100000Y-28620500D01*
G75*
G02*
X39350500Y-28871000I0J-250500D01*
G01*
X39350500Y-29422000D01*
G75*
G02*
X39100000Y-29672500I-250500J0D01*
G01*
X38599000Y-29672500D01*
G75*
G02*
X38348500Y-29422000I0J250500D01*
G01*
G37*
G36*
G01*
X36798500Y-29422000D02*
X36798500Y-28871000D01*
G75*
G02*
X37049000Y-28620500I250500J0D01*
G01*
X37550000Y-28620500D01*
G75*
G02*
X37800500Y-28871000I0J-250500D01*
G01*
X37800500Y-29422000D01*
G75*
G02*
X37550000Y-29672500I-250500J0D01*
G01*
X37049000Y-29672500D01*
G75*
G02*
X36798500Y-29422000I0J250500D01*
G01*
G37*
G36*
G01*
X46694000Y-18763000D02*
X46143000Y-18763000D01*
G75*
G02*
X45892500Y-18512500I0J250500D01*
G01*
X45892500Y-18011500D01*
G75*
G02*
X46143000Y-17761000I250500J0D01*
G01*
X46694000Y-17761000D01*
G75*
G02*
X46944500Y-18011500I0J-250500D01*
G01*
X46944500Y-18512500D01*
G75*
G02*
X46694000Y-18763000I-250500J0D01*
G01*
G37*
G36*
G01*
X46694000Y-20313000D02*
X46143000Y-20313000D01*
G75*
G02*
X45892500Y-20062500I0J250500D01*
G01*
X45892500Y-19561500D01*
G75*
G02*
X46143000Y-19311000I250500J0D01*
G01*
X46694000Y-19311000D01*
G75*
G02*
X46944500Y-19561500I0J-250500D01*
G01*
X46944500Y-20062500D01*
G75*
G02*
X46694000Y-20313000I-250500J0D01*
G01*
G37*
M02*
