G04 #@! TF.GenerationSoftware,KiCad,Pcbnew,(5.1.7)-1*
G04 #@! TF.CreationDate,2020-10-26T16:21:14+03:00*
G04 #@! TF.ProjectId,body_temp,626f6479-5f74-4656-9d70-2e6b69636164,rev?*
G04 #@! TF.SameCoordinates,Original*
G04 #@! TF.FileFunction,Soldermask,Bot*
G04 #@! TF.FilePolarity,Negative*
%FSLAX46Y46*%
G04 Gerber Fmt 4.6, Leading zero omitted, Abs format (unit mm)*
G04 Created by KiCad (PCBNEW (5.1.7)-1) date 2020-10-26 16:21:14*
%MOMM*%
%LPD*%
G01*
G04 APERTURE LIST*
%ADD10C,0.802000*%
%ADD11C,1.402000*%
%ADD12C,1.552000*%
%ADD13O,1.302000X2.002000*%
%ADD14C,0.100000*%
G04 APERTURE END LIST*
G36*
G01*
X24909500Y-48116000D02*
X25160500Y-48116000D01*
G75*
G02*
X25286000Y-48241500I0J-125500D01*
G01*
X25286000Y-48892500D01*
G75*
G02*
X25160500Y-49018000I-125500J0D01*
G01*
X24909500Y-49018000D01*
G75*
G02*
X24784000Y-48892500I0J125500D01*
G01*
X24784000Y-48241500D01*
G75*
G02*
X24909500Y-48116000I125500J0D01*
G01*
G37*
G36*
G01*
X25909500Y-48116000D02*
X26160500Y-48116000D01*
G75*
G02*
X26286000Y-48241500I0J-125500D01*
G01*
X26286000Y-48892500D01*
G75*
G02*
X26160500Y-49018000I-125500J0D01*
G01*
X25909500Y-49018000D01*
G75*
G02*
X25784000Y-48892500I0J125500D01*
G01*
X25784000Y-48241500D01*
G75*
G02*
X25909500Y-48116000I125500J0D01*
G01*
G37*
G36*
G01*
X26909500Y-48116000D02*
X27160500Y-48116000D01*
G75*
G02*
X27286000Y-48241500I0J-125500D01*
G01*
X27286000Y-48892500D01*
G75*
G02*
X27160500Y-49018000I-125500J0D01*
G01*
X26909500Y-49018000D01*
G75*
G02*
X26784000Y-48892500I0J125500D01*
G01*
X26784000Y-48241500D01*
G75*
G02*
X26909500Y-48116000I125500J0D01*
G01*
G37*
G36*
G01*
X26909500Y-45216000D02*
X27160500Y-45216000D01*
G75*
G02*
X27286000Y-45341500I0J-125500D01*
G01*
X27286000Y-45992500D01*
G75*
G02*
X27160500Y-46118000I-125500J0D01*
G01*
X26909500Y-46118000D01*
G75*
G02*
X26784000Y-45992500I0J125500D01*
G01*
X26784000Y-45341500D01*
G75*
G02*
X26909500Y-45216000I125500J0D01*
G01*
G37*
G36*
G01*
X25909500Y-45216000D02*
X26160500Y-45216000D01*
G75*
G02*
X26286000Y-45341500I0J-125500D01*
G01*
X26286000Y-45992500D01*
G75*
G02*
X26160500Y-46118000I-125500J0D01*
G01*
X25909500Y-46118000D01*
G75*
G02*
X25784000Y-45992500I0J125500D01*
G01*
X25784000Y-45341500D01*
G75*
G02*
X25909500Y-45216000I125500J0D01*
G01*
G37*
G36*
G01*
X24909500Y-45216000D02*
X25160500Y-45216000D01*
G75*
G02*
X25286000Y-45341500I0J-125500D01*
G01*
X25286000Y-45992500D01*
G75*
G02*
X25160500Y-46118000I-125500J0D01*
G01*
X24909500Y-46118000D01*
G75*
G02*
X24784000Y-45992500I0J125500D01*
G01*
X24784000Y-45341500D01*
G75*
G02*
X24909500Y-45216000I125500J0D01*
G01*
G37*
D10*
X18415000Y-37211000D03*
X21115000Y-37211000D03*
D11*
X23987000Y-20002500D03*
X22487000Y-20002500D03*
X20987000Y-20002500D03*
X19487000Y-20002500D03*
D12*
X44100000Y-19464000D03*
X39100000Y-19464000D03*
D13*
X45100000Y-16764000D03*
X38100000Y-16764000D03*
G36*
G01*
X57827000Y-42269999D02*
X57827000Y-43470001D01*
G75*
G02*
X57776001Y-43521000I-50999J0D01*
G01*
X54775999Y-43521000D01*
G75*
G02*
X54725000Y-43470001I0J50999D01*
G01*
X54725000Y-42269999D01*
G75*
G02*
X54775999Y-42219000I50999J0D01*
G01*
X57776001Y-42219000D01*
G75*
G02*
X57827000Y-42269999I0J-50999D01*
G01*
G37*
G36*
G01*
X57827000Y-40269999D02*
X57827000Y-41470001D01*
G75*
G02*
X57776001Y-41521000I-50999J0D01*
G01*
X54775999Y-41521000D01*
G75*
G02*
X54725000Y-41470001I0J50999D01*
G01*
X54725000Y-40269999D01*
G75*
G02*
X54775999Y-40219000I50999J0D01*
G01*
X57776001Y-40219000D01*
G75*
G02*
X57827000Y-40269999I0J-50999D01*
G01*
G37*
G36*
G01*
X57827000Y-38269999D02*
X57827000Y-39470001D01*
G75*
G02*
X57776001Y-39521000I-50999J0D01*
G01*
X54775999Y-39521000D01*
G75*
G02*
X54725000Y-39470001I0J50999D01*
G01*
X54725000Y-38269999D01*
G75*
G02*
X54775999Y-38219000I50999J0D01*
G01*
X57776001Y-38219000D01*
G75*
G02*
X57827000Y-38269999I0J-50999D01*
G01*
G37*
G36*
G01*
X57827000Y-36269999D02*
X57827000Y-37470001D01*
G75*
G02*
X57776001Y-37521000I-50999J0D01*
G01*
X54775999Y-37521000D01*
G75*
G02*
X54725000Y-37470001I0J50999D01*
G01*
X54725000Y-36269999D01*
G75*
G02*
X54775999Y-36219000I50999J0D01*
G01*
X57776001Y-36219000D01*
G75*
G02*
X57827000Y-36269999I0J-50999D01*
G01*
G37*
G36*
G01*
X57827000Y-34269999D02*
X57827000Y-35470001D01*
G75*
G02*
X57776001Y-35521000I-50999J0D01*
G01*
X54775999Y-35521000D01*
G75*
G02*
X54725000Y-35470001I0J50999D01*
G01*
X54725000Y-34269999D01*
G75*
G02*
X54775999Y-34219000I50999J0D01*
G01*
X57776001Y-34219000D01*
G75*
G02*
X57827000Y-34269999I0J-50999D01*
G01*
G37*
G36*
G01*
X57827000Y-32269999D02*
X57827000Y-33470001D01*
G75*
G02*
X57776001Y-33521000I-50999J0D01*
G01*
X54775999Y-33521000D01*
G75*
G02*
X54725000Y-33470001I0J50999D01*
G01*
X54725000Y-32269999D01*
G75*
G02*
X54775999Y-32219000I50999J0D01*
G01*
X57776001Y-32219000D01*
G75*
G02*
X57827000Y-32269999I0J-50999D01*
G01*
G37*
G36*
G01*
X57827000Y-30269999D02*
X57827000Y-31470001D01*
G75*
G02*
X57776001Y-31521000I-50999J0D01*
G01*
X54775999Y-31521000D01*
G75*
G02*
X54725000Y-31470001I0J50999D01*
G01*
X54725000Y-30269999D01*
G75*
G02*
X54775999Y-30219000I50999J0D01*
G01*
X57776001Y-30219000D01*
G75*
G02*
X57827000Y-30269999I0J-50999D01*
G01*
G37*
G36*
G01*
X57827000Y-28269999D02*
X57827000Y-29470001D01*
G75*
G02*
X57776001Y-29521000I-50999J0D01*
G01*
X54775999Y-29521000D01*
G75*
G02*
X54725000Y-29470001I0J50999D01*
G01*
X54725000Y-28269999D01*
G75*
G02*
X54775999Y-28219000I50999J0D01*
G01*
X57776001Y-28219000D01*
G75*
G02*
X57827000Y-28269999I0J-50999D01*
G01*
G37*
G36*
G01*
X43827000Y-28269999D02*
X43827000Y-29470001D01*
G75*
G02*
X43776001Y-29521000I-50999J0D01*
G01*
X40775999Y-29521000D01*
G75*
G02*
X40725000Y-29470001I0J50999D01*
G01*
X40725000Y-28269999D01*
G75*
G02*
X40775999Y-28219000I50999J0D01*
G01*
X43776001Y-28219000D01*
G75*
G02*
X43827000Y-28269999I0J-50999D01*
G01*
G37*
G36*
G01*
X43827000Y-30269999D02*
X43827000Y-31470001D01*
G75*
G02*
X43776001Y-31521000I-50999J0D01*
G01*
X40775999Y-31521000D01*
G75*
G02*
X40725000Y-31470001I0J50999D01*
G01*
X40725000Y-30269999D01*
G75*
G02*
X40775999Y-30219000I50999J0D01*
G01*
X43776001Y-30219000D01*
G75*
G02*
X43827000Y-30269999I0J-50999D01*
G01*
G37*
G36*
G01*
X43827000Y-32269999D02*
X43827000Y-33470001D01*
G75*
G02*
X43776001Y-33521000I-50999J0D01*
G01*
X40775999Y-33521000D01*
G75*
G02*
X40725000Y-33470001I0J50999D01*
G01*
X40725000Y-32269999D01*
G75*
G02*
X40775999Y-32219000I50999J0D01*
G01*
X43776001Y-32219000D01*
G75*
G02*
X43827000Y-32269999I0J-50999D01*
G01*
G37*
G36*
G01*
X43827000Y-34269999D02*
X43827000Y-35470001D01*
G75*
G02*
X43776001Y-35521000I-50999J0D01*
G01*
X40775999Y-35521000D01*
G75*
G02*
X40725000Y-35470001I0J50999D01*
G01*
X40725000Y-34269999D01*
G75*
G02*
X40775999Y-34219000I50999J0D01*
G01*
X43776001Y-34219000D01*
G75*
G02*
X43827000Y-34269999I0J-50999D01*
G01*
G37*
G36*
G01*
X43827000Y-36269999D02*
X43827000Y-37470001D01*
G75*
G02*
X43776001Y-37521000I-50999J0D01*
G01*
X40775999Y-37521000D01*
G75*
G02*
X40725000Y-37470001I0J50999D01*
G01*
X40725000Y-36269999D01*
G75*
G02*
X40775999Y-36219000I50999J0D01*
G01*
X43776001Y-36219000D01*
G75*
G02*
X43827000Y-36269999I0J-50999D01*
G01*
G37*
G36*
G01*
X43827000Y-38269999D02*
X43827000Y-39470001D01*
G75*
G02*
X43776001Y-39521000I-50999J0D01*
G01*
X40775999Y-39521000D01*
G75*
G02*
X40725000Y-39470001I0J50999D01*
G01*
X40725000Y-38269999D01*
G75*
G02*
X40775999Y-38219000I50999J0D01*
G01*
X43776001Y-38219000D01*
G75*
G02*
X43827000Y-38269999I0J-50999D01*
G01*
G37*
G36*
G01*
X43827000Y-40269999D02*
X43827000Y-41470001D01*
G75*
G02*
X43776001Y-41521000I-50999J0D01*
G01*
X40775999Y-41521000D01*
G75*
G02*
X40725000Y-41470001I0J50999D01*
G01*
X40725000Y-40269999D01*
G75*
G02*
X40775999Y-40219000I50999J0D01*
G01*
X43776001Y-40219000D01*
G75*
G02*
X43827000Y-40269999I0J-50999D01*
G01*
G37*
G36*
G01*
X43827000Y-42269999D02*
X43827000Y-43470001D01*
G75*
G02*
X43776001Y-43521000I-50999J0D01*
G01*
X40775999Y-43521000D01*
G75*
G02*
X40725000Y-43470001I0J50999D01*
G01*
X40725000Y-42269999D01*
G75*
G02*
X40775999Y-42219000I50999J0D01*
G01*
X43776001Y-42219000D01*
G75*
G02*
X43827000Y-42269999I0J-50999D01*
G01*
G37*
D11*
X39751000Y-40616000D03*
X39751000Y-39116000D03*
G36*
G01*
X36549000Y-18959000D02*
X36323000Y-18959000D01*
G75*
G02*
X36210000Y-18846000I0J113000D01*
G01*
X36210000Y-17870000D01*
G75*
G02*
X36323000Y-17757000I113000J0D01*
G01*
X36549000Y-17757000D01*
G75*
G02*
X36662000Y-17870000I0J-113000D01*
G01*
X36662000Y-18846000D01*
G75*
G02*
X36549000Y-18959000I-113000J0D01*
G01*
G37*
G36*
G01*
X35749000Y-18959000D02*
X35523000Y-18959000D01*
G75*
G02*
X35410000Y-18846000I0J113000D01*
G01*
X35410000Y-17870000D01*
G75*
G02*
X35523000Y-17757000I113000J0D01*
G01*
X35749000Y-17757000D01*
G75*
G02*
X35862000Y-17870000I0J-113000D01*
G01*
X35862000Y-18846000D01*
G75*
G02*
X35749000Y-18959000I-113000J0D01*
G01*
G37*
G36*
G01*
X34949000Y-18959000D02*
X34723000Y-18959000D01*
G75*
G02*
X34610000Y-18846000I0J113000D01*
G01*
X34610000Y-17870000D01*
G75*
G02*
X34723000Y-17757000I113000J0D01*
G01*
X34949000Y-17757000D01*
G75*
G02*
X35062000Y-17870000I0J-113000D01*
G01*
X35062000Y-18846000D01*
G75*
G02*
X34949000Y-18959000I-113000J0D01*
G01*
G37*
G36*
G01*
X34149000Y-18959000D02*
X33923000Y-18959000D01*
G75*
G02*
X33810000Y-18846000I0J113000D01*
G01*
X33810000Y-17870000D01*
G75*
G02*
X33923000Y-17757000I113000J0D01*
G01*
X34149000Y-17757000D01*
G75*
G02*
X34262000Y-17870000I0J-113000D01*
G01*
X34262000Y-18846000D01*
G75*
G02*
X34149000Y-18959000I-113000J0D01*
G01*
G37*
G36*
G01*
X33349000Y-18959000D02*
X33123000Y-18959000D01*
G75*
G02*
X33010000Y-18846000I0J113000D01*
G01*
X33010000Y-17870000D01*
G75*
G02*
X33123000Y-17757000I113000J0D01*
G01*
X33349000Y-17757000D01*
G75*
G02*
X33462000Y-17870000I0J-113000D01*
G01*
X33462000Y-18846000D01*
G75*
G02*
X33349000Y-18959000I-113000J0D01*
G01*
G37*
G36*
G01*
X32549000Y-18959000D02*
X32323000Y-18959000D01*
G75*
G02*
X32210000Y-18846000I0J113000D01*
G01*
X32210000Y-17870000D01*
G75*
G02*
X32323000Y-17757000I113000J0D01*
G01*
X32549000Y-17757000D01*
G75*
G02*
X32662000Y-17870000I0J-113000D01*
G01*
X32662000Y-18846000D01*
G75*
G02*
X32549000Y-18959000I-113000J0D01*
G01*
G37*
G36*
G01*
X31749000Y-18959000D02*
X31523000Y-18959000D01*
G75*
G02*
X31410000Y-18846000I0J113000D01*
G01*
X31410000Y-17870000D01*
G75*
G02*
X31523000Y-17757000I113000J0D01*
G01*
X31749000Y-17757000D01*
G75*
G02*
X31862000Y-17870000I0J-113000D01*
G01*
X31862000Y-18846000D01*
G75*
G02*
X31749000Y-18959000I-113000J0D01*
G01*
G37*
G36*
G01*
X31749000Y-21867000D02*
X31523000Y-21867000D01*
G75*
G02*
X31410000Y-21754000I0J113000D01*
G01*
X31410000Y-20778000D01*
G75*
G02*
X31523000Y-20665000I113000J0D01*
G01*
X31749000Y-20665000D01*
G75*
G02*
X31862000Y-20778000I0J-113000D01*
G01*
X31862000Y-21754000D01*
G75*
G02*
X31749000Y-21867000I-113000J0D01*
G01*
G37*
G36*
G01*
X32549000Y-21867000D02*
X32323000Y-21867000D01*
G75*
G02*
X32210000Y-21754000I0J113000D01*
G01*
X32210000Y-20778000D01*
G75*
G02*
X32323000Y-20665000I113000J0D01*
G01*
X32549000Y-20665000D01*
G75*
G02*
X32662000Y-20778000I0J-113000D01*
G01*
X32662000Y-21754000D01*
G75*
G02*
X32549000Y-21867000I-113000J0D01*
G01*
G37*
G36*
G01*
X33349000Y-21867000D02*
X33123000Y-21867000D01*
G75*
G02*
X33010000Y-21754000I0J113000D01*
G01*
X33010000Y-20778000D01*
G75*
G02*
X33123000Y-20665000I113000J0D01*
G01*
X33349000Y-20665000D01*
G75*
G02*
X33462000Y-20778000I0J-113000D01*
G01*
X33462000Y-21754000D01*
G75*
G02*
X33349000Y-21867000I-113000J0D01*
G01*
G37*
G36*
G01*
X34149000Y-21867000D02*
X33923000Y-21867000D01*
G75*
G02*
X33810000Y-21754000I0J113000D01*
G01*
X33810000Y-20778000D01*
G75*
G02*
X33923000Y-20665000I113000J0D01*
G01*
X34149000Y-20665000D01*
G75*
G02*
X34262000Y-20778000I0J-113000D01*
G01*
X34262000Y-21754000D01*
G75*
G02*
X34149000Y-21867000I-113000J0D01*
G01*
G37*
G36*
G01*
X34949000Y-21867000D02*
X34723000Y-21867000D01*
G75*
G02*
X34610000Y-21754000I0J113000D01*
G01*
X34610000Y-20778000D01*
G75*
G02*
X34723000Y-20665000I113000J0D01*
G01*
X34949000Y-20665000D01*
G75*
G02*
X35062000Y-20778000I0J-113000D01*
G01*
X35062000Y-21754000D01*
G75*
G02*
X34949000Y-21867000I-113000J0D01*
G01*
G37*
G36*
G01*
X35749000Y-21867000D02*
X35523000Y-21867000D01*
G75*
G02*
X35410000Y-21754000I0J113000D01*
G01*
X35410000Y-20778000D01*
G75*
G02*
X35523000Y-20665000I113000J0D01*
G01*
X35749000Y-20665000D01*
G75*
G02*
X35862000Y-20778000I0J-113000D01*
G01*
X35862000Y-21754000D01*
G75*
G02*
X35749000Y-21867000I-113000J0D01*
G01*
G37*
G36*
G01*
X36549000Y-21867000D02*
X36323000Y-21867000D01*
G75*
G02*
X36210000Y-21754000I0J113000D01*
G01*
X36210000Y-20778000D01*
G75*
G02*
X36323000Y-20665000I113000J0D01*
G01*
X36549000Y-20665000D01*
G75*
G02*
X36662000Y-20778000I0J-113000D01*
G01*
X36662000Y-21754000D01*
G75*
G02*
X36549000Y-21867000I-113000J0D01*
G01*
G37*
G36*
G01*
X26106000Y-25607500D02*
X26106000Y-26208500D01*
G75*
G02*
X25880500Y-26434000I-225500J0D01*
G01*
X25429500Y-26434000D01*
G75*
G02*
X25204000Y-26208500I0J225500D01*
G01*
X25204000Y-25607500D01*
G75*
G02*
X25429500Y-25382000I225500J0D01*
G01*
X25880500Y-25382000D01*
G75*
G02*
X26106000Y-25607500I0J-225500D01*
G01*
G37*
G36*
G01*
X27756000Y-25607500D02*
X27756000Y-26208500D01*
G75*
G02*
X27530500Y-26434000I-225500J0D01*
G01*
X27079500Y-26434000D01*
G75*
G02*
X26854000Y-26208500I0J225500D01*
G01*
X26854000Y-25607500D01*
G75*
G02*
X27079500Y-25382000I225500J0D01*
G01*
X27530500Y-25382000D01*
G75*
G02*
X27756000Y-25607500I0J-225500D01*
G01*
G37*
G36*
G01*
X26106000Y-24337500D02*
X26106000Y-24938500D01*
G75*
G02*
X25880500Y-25164000I-225500J0D01*
G01*
X25429500Y-25164000D01*
G75*
G02*
X25204000Y-24938500I0J225500D01*
G01*
X25204000Y-24337500D01*
G75*
G02*
X25429500Y-24112000I225500J0D01*
G01*
X25880500Y-24112000D01*
G75*
G02*
X26106000Y-24337500I0J-225500D01*
G01*
G37*
G36*
G01*
X27756000Y-24337500D02*
X27756000Y-24938500D01*
G75*
G02*
X27530500Y-25164000I-225500J0D01*
G01*
X27079500Y-25164000D01*
G75*
G02*
X26854000Y-24938500I0J225500D01*
G01*
X26854000Y-24337500D01*
G75*
G02*
X27079500Y-24112000I225500J0D01*
G01*
X27530500Y-24112000D01*
G75*
G02*
X27756000Y-24337500I0J-225500D01*
G01*
G37*
D14*
G36*
X40036350Y-39751825D02*
G01*
X40037115Y-39753673D01*
X40036075Y-39755176D01*
X40020056Y-39763738D01*
X40001419Y-39779034D01*
X39986124Y-39797671D01*
X39974759Y-39818934D01*
X39967759Y-39842009D01*
X39965396Y-39866001D01*
X39967759Y-39889992D01*
X39974759Y-39913067D01*
X39986124Y-39934330D01*
X40001420Y-39952967D01*
X40020057Y-39968262D01*
X40036076Y-39976824D01*
X40037132Y-39978523D01*
X40036189Y-39980286D01*
X40034368Y-39980436D01*
X39953908Y-39947109D01*
X39819511Y-39920376D01*
X39682489Y-39920376D01*
X39548092Y-39947109D01*
X39467633Y-39980436D01*
X39465650Y-39980175D01*
X39464885Y-39978327D01*
X39465925Y-39976824D01*
X39481944Y-39968262D01*
X39500581Y-39952966D01*
X39515876Y-39934329D01*
X39527241Y-39913066D01*
X39534241Y-39889991D01*
X39536604Y-39865999D01*
X39534241Y-39842008D01*
X39527241Y-39818933D01*
X39515876Y-39797670D01*
X39500580Y-39779033D01*
X39481943Y-39763738D01*
X39465924Y-39755176D01*
X39464868Y-39753477D01*
X39465811Y-39751714D01*
X39467632Y-39751564D01*
X39548092Y-39784891D01*
X39682489Y-39811624D01*
X39819511Y-39811624D01*
X39953908Y-39784891D01*
X40034367Y-39751564D01*
X40036350Y-39751825D01*
G37*
G36*
X26107165Y-24936874D02*
G01*
X26108000Y-24938500D01*
X26108000Y-24994860D01*
X26107990Y-24995056D01*
X26104265Y-25032879D01*
X26104189Y-25033264D01*
X26094948Y-25063724D01*
X26094798Y-25064086D01*
X26079790Y-25092166D01*
X26079572Y-25092492D01*
X26059377Y-25117100D01*
X26059100Y-25117377D01*
X26034492Y-25137572D01*
X26034166Y-25137790D01*
X26006087Y-25152798D01*
X26005725Y-25152948D01*
X25998070Y-25155270D01*
X25975706Y-25164534D01*
X25955658Y-25177929D01*
X25938612Y-25194977D01*
X25925217Y-25215024D01*
X25915991Y-25237298D01*
X25911287Y-25260948D01*
X25911287Y-25285054D01*
X25915992Y-25308705D01*
X25925218Y-25330978D01*
X25938613Y-25351026D01*
X25955661Y-25368072D01*
X25975708Y-25381467D01*
X25998070Y-25390730D01*
X26005725Y-25393052D01*
X26006087Y-25393202D01*
X26034166Y-25408210D01*
X26034492Y-25408428D01*
X26059100Y-25428623D01*
X26059377Y-25428900D01*
X26079572Y-25453508D01*
X26079790Y-25453834D01*
X26094798Y-25481914D01*
X26094948Y-25482276D01*
X26104189Y-25512736D01*
X26104265Y-25513121D01*
X26107990Y-25550944D01*
X26108000Y-25551140D01*
X26108000Y-25607500D01*
X26107000Y-25609232D01*
X26105000Y-25609232D01*
X26104010Y-25607696D01*
X26099697Y-25563902D01*
X26086978Y-25521974D01*
X26066325Y-25483335D01*
X26038532Y-25449468D01*
X26004665Y-25421675D01*
X25966026Y-25401022D01*
X25924098Y-25388303D01*
X25880406Y-25384000D01*
X25429594Y-25384000D01*
X25385902Y-25388303D01*
X25343974Y-25401022D01*
X25305335Y-25421675D01*
X25271468Y-25449468D01*
X25243675Y-25483335D01*
X25223022Y-25521974D01*
X25210303Y-25563902D01*
X25205990Y-25607696D01*
X25204825Y-25609322D01*
X25202835Y-25609126D01*
X25202000Y-25607500D01*
X25202000Y-25551140D01*
X25202010Y-25550944D01*
X25205735Y-25513121D01*
X25205811Y-25512736D01*
X25215052Y-25482276D01*
X25215202Y-25481914D01*
X25230210Y-25453834D01*
X25230428Y-25453508D01*
X25250623Y-25428900D01*
X25250900Y-25428623D01*
X25275508Y-25408428D01*
X25275834Y-25408210D01*
X25303913Y-25393202D01*
X25304275Y-25393052D01*
X25311930Y-25390730D01*
X25334294Y-25381466D01*
X25354342Y-25368071D01*
X25371388Y-25351023D01*
X25384783Y-25330976D01*
X25394009Y-25308702D01*
X25398713Y-25285052D01*
X25398713Y-25260946D01*
X25394008Y-25237295D01*
X25384782Y-25215022D01*
X25371387Y-25194974D01*
X25354339Y-25177928D01*
X25334292Y-25164533D01*
X25311930Y-25155270D01*
X25304275Y-25152948D01*
X25303913Y-25152798D01*
X25275834Y-25137790D01*
X25275508Y-25137572D01*
X25250900Y-25117377D01*
X25250623Y-25117100D01*
X25230428Y-25092492D01*
X25230210Y-25092166D01*
X25215202Y-25064086D01*
X25215052Y-25063724D01*
X25205811Y-25033264D01*
X25205735Y-25032879D01*
X25202010Y-24995056D01*
X25202000Y-24994860D01*
X25202000Y-24938500D01*
X25203000Y-24936768D01*
X25205000Y-24936768D01*
X25205990Y-24938304D01*
X25210303Y-24982098D01*
X25223022Y-25024026D01*
X25243675Y-25062665D01*
X25271468Y-25096532D01*
X25305335Y-25124325D01*
X25343974Y-25144978D01*
X25385902Y-25157697D01*
X25429594Y-25162000D01*
X25880406Y-25162000D01*
X25924098Y-25157697D01*
X25966026Y-25144978D01*
X26004665Y-25124325D01*
X26038532Y-25096532D01*
X26066325Y-25062665D01*
X26086978Y-25024026D01*
X26099697Y-24982098D01*
X26104010Y-24938304D01*
X26105175Y-24936678D01*
X26107165Y-24936874D01*
G37*
G36*
X27757165Y-24936874D02*
G01*
X27758000Y-24938500D01*
X27758000Y-24994860D01*
X27757990Y-24995056D01*
X27754265Y-25032879D01*
X27754189Y-25033264D01*
X27744948Y-25063724D01*
X27744798Y-25064086D01*
X27729790Y-25092166D01*
X27729572Y-25092492D01*
X27709377Y-25117100D01*
X27709100Y-25117377D01*
X27684492Y-25137572D01*
X27684166Y-25137790D01*
X27656087Y-25152798D01*
X27655725Y-25152948D01*
X27648070Y-25155270D01*
X27625706Y-25164534D01*
X27605658Y-25177929D01*
X27588612Y-25194977D01*
X27575217Y-25215024D01*
X27565991Y-25237298D01*
X27561287Y-25260948D01*
X27561287Y-25285054D01*
X27565992Y-25308705D01*
X27575218Y-25330978D01*
X27588613Y-25351026D01*
X27605661Y-25368072D01*
X27625708Y-25381467D01*
X27648070Y-25390730D01*
X27655725Y-25393052D01*
X27656087Y-25393202D01*
X27684166Y-25408210D01*
X27684492Y-25408428D01*
X27709100Y-25428623D01*
X27709377Y-25428900D01*
X27729572Y-25453508D01*
X27729790Y-25453834D01*
X27744798Y-25481914D01*
X27744948Y-25482276D01*
X27754189Y-25512736D01*
X27754265Y-25513121D01*
X27757990Y-25550944D01*
X27758000Y-25551140D01*
X27758000Y-25607500D01*
X27757000Y-25609232D01*
X27755000Y-25609232D01*
X27754010Y-25607696D01*
X27749697Y-25563902D01*
X27736978Y-25521974D01*
X27716325Y-25483335D01*
X27688532Y-25449468D01*
X27654665Y-25421675D01*
X27616026Y-25401022D01*
X27574098Y-25388303D01*
X27530406Y-25384000D01*
X27079594Y-25384000D01*
X27035902Y-25388303D01*
X26993974Y-25401022D01*
X26955335Y-25421675D01*
X26921468Y-25449468D01*
X26893675Y-25483335D01*
X26873022Y-25521974D01*
X26860303Y-25563902D01*
X26855990Y-25607696D01*
X26854825Y-25609322D01*
X26852835Y-25609126D01*
X26852000Y-25607500D01*
X26852000Y-25551140D01*
X26852010Y-25550944D01*
X26855735Y-25513121D01*
X26855811Y-25512736D01*
X26865052Y-25482276D01*
X26865202Y-25481914D01*
X26880210Y-25453834D01*
X26880428Y-25453508D01*
X26900623Y-25428900D01*
X26900900Y-25428623D01*
X26925508Y-25408428D01*
X26925834Y-25408210D01*
X26953913Y-25393202D01*
X26954275Y-25393052D01*
X26961930Y-25390730D01*
X26984294Y-25381466D01*
X27004342Y-25368071D01*
X27021388Y-25351023D01*
X27034783Y-25330976D01*
X27044009Y-25308702D01*
X27048713Y-25285052D01*
X27048713Y-25260946D01*
X27044008Y-25237295D01*
X27034782Y-25215022D01*
X27021387Y-25194974D01*
X27004339Y-25177928D01*
X26984292Y-25164533D01*
X26961930Y-25155270D01*
X26954275Y-25152948D01*
X26953913Y-25152798D01*
X26925834Y-25137790D01*
X26925508Y-25137572D01*
X26900900Y-25117377D01*
X26900623Y-25117100D01*
X26880428Y-25092492D01*
X26880210Y-25092166D01*
X26865202Y-25064086D01*
X26865052Y-25063724D01*
X26855811Y-25033264D01*
X26855735Y-25032879D01*
X26852010Y-24995056D01*
X26852000Y-24994860D01*
X26852000Y-24938500D01*
X26853000Y-24936768D01*
X26855000Y-24936768D01*
X26855990Y-24938304D01*
X26860303Y-24982098D01*
X26873022Y-25024026D01*
X26893675Y-25062665D01*
X26921468Y-25096532D01*
X26955335Y-25124325D01*
X26993974Y-25144978D01*
X27035902Y-25157697D01*
X27079594Y-25162000D01*
X27530406Y-25162000D01*
X27574098Y-25157697D01*
X27616026Y-25144978D01*
X27654665Y-25124325D01*
X27688532Y-25096532D01*
X27716325Y-25062665D01*
X27736978Y-25024026D01*
X27749697Y-24982098D01*
X27754010Y-24938304D01*
X27755175Y-24936678D01*
X27757165Y-24936874D01*
G37*
G36*
X23351286Y-19717311D02*
G01*
X23351436Y-19719132D01*
X23318109Y-19799592D01*
X23291376Y-19933989D01*
X23291376Y-20071011D01*
X23318109Y-20205408D01*
X23351436Y-20285867D01*
X23351175Y-20287850D01*
X23349327Y-20288615D01*
X23347824Y-20287575D01*
X23339262Y-20271556D01*
X23323966Y-20252919D01*
X23305329Y-20237624D01*
X23284066Y-20226259D01*
X23260991Y-20219259D01*
X23236999Y-20216896D01*
X23213008Y-20219259D01*
X23189933Y-20226259D01*
X23168670Y-20237624D01*
X23150033Y-20252920D01*
X23134738Y-20271557D01*
X23126176Y-20287576D01*
X23124477Y-20288632D01*
X23122714Y-20287689D01*
X23122564Y-20285868D01*
X23155891Y-20205408D01*
X23182624Y-20071011D01*
X23182624Y-19933989D01*
X23155891Y-19799592D01*
X23122564Y-19719133D01*
X23122825Y-19717150D01*
X23124673Y-19716385D01*
X23126176Y-19717425D01*
X23134738Y-19733444D01*
X23150034Y-19752081D01*
X23168671Y-19767376D01*
X23189934Y-19778741D01*
X23213009Y-19785741D01*
X23237001Y-19788104D01*
X23260992Y-19785741D01*
X23284067Y-19778741D01*
X23305330Y-19767376D01*
X23323967Y-19752080D01*
X23339262Y-19733443D01*
X23347824Y-19717424D01*
X23349523Y-19716368D01*
X23351286Y-19717311D01*
G37*
G36*
X20351286Y-19717311D02*
G01*
X20351436Y-19719132D01*
X20318109Y-19799592D01*
X20291376Y-19933989D01*
X20291376Y-20071011D01*
X20318109Y-20205408D01*
X20351436Y-20285867D01*
X20351175Y-20287850D01*
X20349327Y-20288615D01*
X20347824Y-20287575D01*
X20339262Y-20271556D01*
X20323966Y-20252919D01*
X20305329Y-20237624D01*
X20284066Y-20226259D01*
X20260991Y-20219259D01*
X20236999Y-20216896D01*
X20213008Y-20219259D01*
X20189933Y-20226259D01*
X20168670Y-20237624D01*
X20150033Y-20252920D01*
X20134738Y-20271557D01*
X20126176Y-20287576D01*
X20124477Y-20288632D01*
X20122714Y-20287689D01*
X20122564Y-20285868D01*
X20155891Y-20205408D01*
X20182624Y-20071011D01*
X20182624Y-19933989D01*
X20155891Y-19799592D01*
X20122564Y-19719133D01*
X20122825Y-19717150D01*
X20124673Y-19716385D01*
X20126176Y-19717425D01*
X20134738Y-19733444D01*
X20150034Y-19752081D01*
X20168671Y-19767376D01*
X20189934Y-19778741D01*
X20213009Y-19785741D01*
X20237001Y-19788104D01*
X20260992Y-19785741D01*
X20284067Y-19778741D01*
X20305330Y-19767376D01*
X20323967Y-19752080D01*
X20339262Y-19733443D01*
X20347824Y-19717424D01*
X20349523Y-19716368D01*
X20351286Y-19717311D01*
G37*
G36*
X21851286Y-19717311D02*
G01*
X21851436Y-19719132D01*
X21818109Y-19799592D01*
X21791376Y-19933989D01*
X21791376Y-20071011D01*
X21818109Y-20205408D01*
X21851436Y-20285867D01*
X21851175Y-20287850D01*
X21849327Y-20288615D01*
X21847824Y-20287575D01*
X21839262Y-20271556D01*
X21823966Y-20252919D01*
X21805329Y-20237624D01*
X21784066Y-20226259D01*
X21760991Y-20219259D01*
X21736999Y-20216896D01*
X21713008Y-20219259D01*
X21689933Y-20226259D01*
X21668670Y-20237624D01*
X21650033Y-20252920D01*
X21634738Y-20271557D01*
X21626176Y-20287576D01*
X21624477Y-20288632D01*
X21622714Y-20287689D01*
X21622564Y-20285868D01*
X21655891Y-20205408D01*
X21682624Y-20071011D01*
X21682624Y-19933989D01*
X21655891Y-19799592D01*
X21622564Y-19719133D01*
X21622825Y-19717150D01*
X21624673Y-19716385D01*
X21626176Y-19717425D01*
X21634738Y-19733444D01*
X21650034Y-19752081D01*
X21668671Y-19767376D01*
X21689934Y-19778741D01*
X21713009Y-19785741D01*
X21737001Y-19788104D01*
X21760992Y-19785741D01*
X21784067Y-19778741D01*
X21805330Y-19767376D01*
X21823967Y-19752080D01*
X21839262Y-19733443D01*
X21847824Y-19717424D01*
X21849523Y-19716368D01*
X21851286Y-19717311D01*
G37*
M02*
