M48
; DRILL file {KiCad (5.1.7)-1} date 10/26/20 15:46:43
; FORMAT={-:-/ absolute / metric / decimal}
; #@! TF.CreationDate,2020-10-26T15:46:43+03:00
; #@! TF.GenerationSoftware,Kicad,Pcbnew,(5.1.7)-1
FMAT,2
METRIC
T1C0.400
T2C0.600
T3C0.762
T4C0.850
T5C0.700
%
G90
G05
T1
X18.542Y-21.082
X18.669Y-32.639
X18.86Y-43.624
X19.05Y-22.86
X20.193Y-47.053
X20.357Y-29.654
X20.447Y-50.292
X20.574Y-26.162
X20.701Y-27.686
X20.701Y-36.195
X21.14Y-42.926
X21.59Y-28.638
X22.162Y-36.703
X22.352Y-24.003
X22.352Y-26.67
X22.352Y-29.718
X22.352Y-31.407
X22.479Y-50.292
X23.241Y-25.654
X24.003Y-48.567
X24.13Y-46.228
X24.164Y-44.307
X24.384Y-50.292
X24.447Y-36.195
X25.006Y-39.684
X25.019Y-28.448
X25.019Y-38.672
X25.146Y-31.623
X26.035Y-46.99
X26.099Y-37.847
X26.416Y-50.292
X27.054Y-18.666
X27.092Y-36.385
X27.432Y-29.718
X27.432Y-31.496
X27.559Y-15.748
X27.596Y-46.609
X27.913Y-43.407
X28.194Y-50.038
X28.321Y-18.669
X28.321Y-48.133
X28.468Y-25.527
X28.479Y-26.543
X30.099Y-50.038
X30.162Y-35.814
X30.734Y-46.482
X31.038Y-32.766
X31.369Y-15.748
X31.496Y-37.084
X32.004Y-50.038
X32.258Y-30.607
X32.385Y-22.86
X32.893Y-41.148
X32.893Y-46.482
X33.274Y-20.066
X33.401Y-27.318
X33.909Y-50.038
X33.909Y-16.256
X34.417Y-31.623
X34.544Y-34.036
X34.798Y-29.21
X34.925Y-40.894
X34.925Y-42.672
X34.925Y-45.212
X34.925Y-46.482
X35.179Y-17.272
X35.56Y-29.882
X35.611Y-19.431
X35.801Y-47.358
X35.941Y-50.038
X36.195Y-26.67
X36.581Y-23.998
X37.401Y-47.371
X37.514Y-31.58
X37.719Y-23.368
X37.846Y-44.45
X37.883Y-41.783
X37.973Y-18.415
X38.1Y-50.038
X39.1Y-20.899
X39.116Y-46.101
X39.116Y-48.387
X39.37Y-42.926
X39.624Y-35.814
X40.132Y-50.038
X40.767Y-24.257
X41.557Y-18.277
X42.368Y-27.164
X42.418Y-22.733
X44.05Y-20.93
X45.217Y-23.373
X45.72Y-31.75
X45.72Y-36.195
X45.72Y-40.005
X45.974Y-20.79
X46.355Y-42.672
X47.371Y-30.226
X47.625Y-38.1
X48.26Y-34.29
X48.26Y-25.654
X48.387Y-18.542
X48.895Y-31.75
X49.657Y-41.783
X50.165Y-25.527
X50.165Y-36.195
X50.165Y-38.862
X50.8Y-18.656
X50.8Y-20.206
X51.562Y-33.02
X51.689Y-16.637
X52.258Y-24.323
X52.324Y-30.607
X52.578Y-36.195
X52.578Y-38.862
X52.578Y-42.291
X55.753Y-21.082
X56.769Y-27.178
X57.023Y-25.654
T2
X42.276Y-28.87
X42.276Y-30.87
X42.276Y-32.87
X42.276Y-34.87
X42.276Y-36.87
X42.276Y-38.87
X42.276Y-40.87
X42.276Y-42.87
X56.276Y-28.87
X56.276Y-30.87
X56.276Y-32.87
X56.276Y-34.87
X56.276Y-36.87
X56.276Y-38.87
X56.276Y-40.87
X56.276Y-42.87
T3
X39.751Y-39.116
X39.751Y-40.616
X19.487Y-20.002
X20.987Y-20.002
X22.487Y-20.002
X23.987Y-20.002
T4
X39.1Y-19.464
X44.1Y-19.464
T5
X18.415Y-37.211
X21.115Y-37.211
T2
G00X38.1Y-17.114
M15
G01X38.1Y-16.414
M16
G05
G00X45.1Y-16.414
M15
G01X45.1Y-17.114
M16
G05
T0
M30
