G04 #@! TF.GenerationSoftware,KiCad,Pcbnew,(5.1.7)-1*
G04 #@! TF.CreationDate,2020-10-26T16:21:14+03:00*
G04 #@! TF.ProjectId,body_temp,626f6479-5f74-4656-9d70-2e6b69636164,rev?*
G04 #@! TF.SameCoordinates,Original*
G04 #@! TF.FileFunction,Copper,L2,Bot*
G04 #@! TF.FilePolarity,Positive*
%FSLAX46Y46*%
G04 Gerber Fmt 4.6, Leading zero omitted, Abs format (unit mm)*
G04 Created by KiCad (PCBNEW (5.1.7)-1) date 2020-10-26 16:21:14*
%MOMM*%
%LPD*%
G01*
G04 APERTURE LIST*
G04 #@! TA.AperFunction,ComponentPad*
%ADD10C,1.300000*%
G04 #@! TD*
G04 #@! TA.AperFunction,ComponentPad*
%ADD11C,1.450000*%
G04 #@! TD*
G04 #@! TA.AperFunction,ComponentPad*
%ADD12O,1.200000X1.900000*%
G04 #@! TD*
G04 #@! TA.AperFunction,ComponentPad*
%ADD13R,3.000000X1.200000*%
G04 #@! TD*
G04 #@! TA.AperFunction,ViaPad*
%ADD14C,0.800000*%
G04 #@! TD*
G04 #@! TA.AperFunction,Conductor*
%ADD15C,0.400000*%
G04 #@! TD*
G04 #@! TA.AperFunction,Conductor*
%ADD16C,0.350000*%
G04 #@! TD*
G04 #@! TA.AperFunction,Conductor*
%ADD17C,0.250000*%
G04 #@! TD*
G04 #@! TA.AperFunction,Conductor*
%ADD18C,0.254000*%
G04 #@! TD*
G04 #@! TA.AperFunction,Conductor*
%ADD19C,0.100000*%
G04 #@! TD*
G04 APERTURE END LIST*
G04 #@! TA.AperFunction,SMDPad,CuDef*
G36*
G01*
X24935000Y-48167000D02*
X25135000Y-48167000D01*
G75*
G02*
X25235000Y-48267000I0J-100000D01*
G01*
X25235000Y-48867000D01*
G75*
G02*
X25135000Y-48967000I-100000J0D01*
G01*
X24935000Y-48967000D01*
G75*
G02*
X24835000Y-48867000I0J100000D01*
G01*
X24835000Y-48267000D01*
G75*
G02*
X24935000Y-48167000I100000J0D01*
G01*
G37*
G04 #@! TD.AperFunction*
G04 #@! TA.AperFunction,SMDPad,CuDef*
G36*
G01*
X25935000Y-48167000D02*
X26135000Y-48167000D01*
G75*
G02*
X26235000Y-48267000I0J-100000D01*
G01*
X26235000Y-48867000D01*
G75*
G02*
X26135000Y-48967000I-100000J0D01*
G01*
X25935000Y-48967000D01*
G75*
G02*
X25835000Y-48867000I0J100000D01*
G01*
X25835000Y-48267000D01*
G75*
G02*
X25935000Y-48167000I100000J0D01*
G01*
G37*
G04 #@! TD.AperFunction*
G04 #@! TA.AperFunction,SMDPad,CuDef*
G36*
G01*
X26935000Y-48167000D02*
X27135000Y-48167000D01*
G75*
G02*
X27235000Y-48267000I0J-100000D01*
G01*
X27235000Y-48867000D01*
G75*
G02*
X27135000Y-48967000I-100000J0D01*
G01*
X26935000Y-48967000D01*
G75*
G02*
X26835000Y-48867000I0J100000D01*
G01*
X26835000Y-48267000D01*
G75*
G02*
X26935000Y-48167000I100000J0D01*
G01*
G37*
G04 #@! TD.AperFunction*
G04 #@! TA.AperFunction,SMDPad,CuDef*
G36*
G01*
X26935000Y-45267000D02*
X27135000Y-45267000D01*
G75*
G02*
X27235000Y-45367000I0J-100000D01*
G01*
X27235000Y-45967000D01*
G75*
G02*
X27135000Y-46067000I-100000J0D01*
G01*
X26935000Y-46067000D01*
G75*
G02*
X26835000Y-45967000I0J100000D01*
G01*
X26835000Y-45367000D01*
G75*
G02*
X26935000Y-45267000I100000J0D01*
G01*
G37*
G04 #@! TD.AperFunction*
G04 #@! TA.AperFunction,SMDPad,CuDef*
G36*
G01*
X25935000Y-45267000D02*
X26135000Y-45267000D01*
G75*
G02*
X26235000Y-45367000I0J-100000D01*
G01*
X26235000Y-45967000D01*
G75*
G02*
X26135000Y-46067000I-100000J0D01*
G01*
X25935000Y-46067000D01*
G75*
G02*
X25835000Y-45967000I0J100000D01*
G01*
X25835000Y-45367000D01*
G75*
G02*
X25935000Y-45267000I100000J0D01*
G01*
G37*
G04 #@! TD.AperFunction*
G04 #@! TA.AperFunction,SMDPad,CuDef*
G36*
G01*
X24935000Y-45267000D02*
X25135000Y-45267000D01*
G75*
G02*
X25235000Y-45367000I0J-100000D01*
G01*
X25235000Y-45967000D01*
G75*
G02*
X25135000Y-46067000I-100000J0D01*
G01*
X24935000Y-46067000D01*
G75*
G02*
X24835000Y-45967000I0J100000D01*
G01*
X24835000Y-45367000D01*
G75*
G02*
X24935000Y-45267000I100000J0D01*
G01*
G37*
G04 #@! TD.AperFunction*
D10*
X23987000Y-20002500D03*
X22487000Y-20002500D03*
X20987000Y-20002500D03*
X19487000Y-20002500D03*
D11*
X44100000Y-19464000D03*
X39100000Y-19464000D03*
D12*
X45100000Y-16764000D03*
X38100000Y-16764000D03*
D13*
X56276000Y-42870000D03*
X56276000Y-40870000D03*
X56276000Y-38870000D03*
X56276000Y-36870000D03*
X56276000Y-34870000D03*
X56276000Y-32870000D03*
X56276000Y-30870000D03*
X56276000Y-28870000D03*
X42276000Y-28870000D03*
X42276000Y-30870000D03*
X42276000Y-32870000D03*
X42276000Y-34870000D03*
X42276000Y-36870000D03*
X42276000Y-38870000D03*
X42276000Y-40870000D03*
X42276000Y-42870000D03*
D10*
X39751000Y-40616000D03*
X39751000Y-39116000D03*
G04 #@! TA.AperFunction,SMDPad,CuDef*
G36*
G01*
X36523500Y-18908000D02*
X36348500Y-18908000D01*
G75*
G02*
X36261000Y-18820500I0J87500D01*
G01*
X36261000Y-17895500D01*
G75*
G02*
X36348500Y-17808000I87500J0D01*
G01*
X36523500Y-17808000D01*
G75*
G02*
X36611000Y-17895500I0J-87500D01*
G01*
X36611000Y-18820500D01*
G75*
G02*
X36523500Y-18908000I-87500J0D01*
G01*
G37*
G04 #@! TD.AperFunction*
G04 #@! TA.AperFunction,SMDPad,CuDef*
G36*
G01*
X35723500Y-18908000D02*
X35548500Y-18908000D01*
G75*
G02*
X35461000Y-18820500I0J87500D01*
G01*
X35461000Y-17895500D01*
G75*
G02*
X35548500Y-17808000I87500J0D01*
G01*
X35723500Y-17808000D01*
G75*
G02*
X35811000Y-17895500I0J-87500D01*
G01*
X35811000Y-18820500D01*
G75*
G02*
X35723500Y-18908000I-87500J0D01*
G01*
G37*
G04 #@! TD.AperFunction*
G04 #@! TA.AperFunction,SMDPad,CuDef*
G36*
G01*
X34923500Y-18908000D02*
X34748500Y-18908000D01*
G75*
G02*
X34661000Y-18820500I0J87500D01*
G01*
X34661000Y-17895500D01*
G75*
G02*
X34748500Y-17808000I87500J0D01*
G01*
X34923500Y-17808000D01*
G75*
G02*
X35011000Y-17895500I0J-87500D01*
G01*
X35011000Y-18820500D01*
G75*
G02*
X34923500Y-18908000I-87500J0D01*
G01*
G37*
G04 #@! TD.AperFunction*
G04 #@! TA.AperFunction,SMDPad,CuDef*
G36*
G01*
X34123500Y-18908000D02*
X33948500Y-18908000D01*
G75*
G02*
X33861000Y-18820500I0J87500D01*
G01*
X33861000Y-17895500D01*
G75*
G02*
X33948500Y-17808000I87500J0D01*
G01*
X34123500Y-17808000D01*
G75*
G02*
X34211000Y-17895500I0J-87500D01*
G01*
X34211000Y-18820500D01*
G75*
G02*
X34123500Y-18908000I-87500J0D01*
G01*
G37*
G04 #@! TD.AperFunction*
G04 #@! TA.AperFunction,SMDPad,CuDef*
G36*
G01*
X33323500Y-18908000D02*
X33148500Y-18908000D01*
G75*
G02*
X33061000Y-18820500I0J87500D01*
G01*
X33061000Y-17895500D01*
G75*
G02*
X33148500Y-17808000I87500J0D01*
G01*
X33323500Y-17808000D01*
G75*
G02*
X33411000Y-17895500I0J-87500D01*
G01*
X33411000Y-18820500D01*
G75*
G02*
X33323500Y-18908000I-87500J0D01*
G01*
G37*
G04 #@! TD.AperFunction*
G04 #@! TA.AperFunction,SMDPad,CuDef*
G36*
G01*
X32523500Y-18908000D02*
X32348500Y-18908000D01*
G75*
G02*
X32261000Y-18820500I0J87500D01*
G01*
X32261000Y-17895500D01*
G75*
G02*
X32348500Y-17808000I87500J0D01*
G01*
X32523500Y-17808000D01*
G75*
G02*
X32611000Y-17895500I0J-87500D01*
G01*
X32611000Y-18820500D01*
G75*
G02*
X32523500Y-18908000I-87500J0D01*
G01*
G37*
G04 #@! TD.AperFunction*
G04 #@! TA.AperFunction,SMDPad,CuDef*
G36*
G01*
X31723500Y-18908000D02*
X31548500Y-18908000D01*
G75*
G02*
X31461000Y-18820500I0J87500D01*
G01*
X31461000Y-17895500D01*
G75*
G02*
X31548500Y-17808000I87500J0D01*
G01*
X31723500Y-17808000D01*
G75*
G02*
X31811000Y-17895500I0J-87500D01*
G01*
X31811000Y-18820500D01*
G75*
G02*
X31723500Y-18908000I-87500J0D01*
G01*
G37*
G04 #@! TD.AperFunction*
G04 #@! TA.AperFunction,SMDPad,CuDef*
G36*
G01*
X31723500Y-21816000D02*
X31548500Y-21816000D01*
G75*
G02*
X31461000Y-21728500I0J87500D01*
G01*
X31461000Y-20803500D01*
G75*
G02*
X31548500Y-20716000I87500J0D01*
G01*
X31723500Y-20716000D01*
G75*
G02*
X31811000Y-20803500I0J-87500D01*
G01*
X31811000Y-21728500D01*
G75*
G02*
X31723500Y-21816000I-87500J0D01*
G01*
G37*
G04 #@! TD.AperFunction*
G04 #@! TA.AperFunction,SMDPad,CuDef*
G36*
G01*
X32523500Y-21816000D02*
X32348500Y-21816000D01*
G75*
G02*
X32261000Y-21728500I0J87500D01*
G01*
X32261000Y-20803500D01*
G75*
G02*
X32348500Y-20716000I87500J0D01*
G01*
X32523500Y-20716000D01*
G75*
G02*
X32611000Y-20803500I0J-87500D01*
G01*
X32611000Y-21728500D01*
G75*
G02*
X32523500Y-21816000I-87500J0D01*
G01*
G37*
G04 #@! TD.AperFunction*
G04 #@! TA.AperFunction,SMDPad,CuDef*
G36*
G01*
X33323500Y-21816000D02*
X33148500Y-21816000D01*
G75*
G02*
X33061000Y-21728500I0J87500D01*
G01*
X33061000Y-20803500D01*
G75*
G02*
X33148500Y-20716000I87500J0D01*
G01*
X33323500Y-20716000D01*
G75*
G02*
X33411000Y-20803500I0J-87500D01*
G01*
X33411000Y-21728500D01*
G75*
G02*
X33323500Y-21816000I-87500J0D01*
G01*
G37*
G04 #@! TD.AperFunction*
G04 #@! TA.AperFunction,SMDPad,CuDef*
G36*
G01*
X34123500Y-21816000D02*
X33948500Y-21816000D01*
G75*
G02*
X33861000Y-21728500I0J87500D01*
G01*
X33861000Y-20803500D01*
G75*
G02*
X33948500Y-20716000I87500J0D01*
G01*
X34123500Y-20716000D01*
G75*
G02*
X34211000Y-20803500I0J-87500D01*
G01*
X34211000Y-21728500D01*
G75*
G02*
X34123500Y-21816000I-87500J0D01*
G01*
G37*
G04 #@! TD.AperFunction*
G04 #@! TA.AperFunction,SMDPad,CuDef*
G36*
G01*
X34923500Y-21816000D02*
X34748500Y-21816000D01*
G75*
G02*
X34661000Y-21728500I0J87500D01*
G01*
X34661000Y-20803500D01*
G75*
G02*
X34748500Y-20716000I87500J0D01*
G01*
X34923500Y-20716000D01*
G75*
G02*
X35011000Y-20803500I0J-87500D01*
G01*
X35011000Y-21728500D01*
G75*
G02*
X34923500Y-21816000I-87500J0D01*
G01*
G37*
G04 #@! TD.AperFunction*
G04 #@! TA.AperFunction,SMDPad,CuDef*
G36*
G01*
X35723500Y-21816000D02*
X35548500Y-21816000D01*
G75*
G02*
X35461000Y-21728500I0J87500D01*
G01*
X35461000Y-20803500D01*
G75*
G02*
X35548500Y-20716000I87500J0D01*
G01*
X35723500Y-20716000D01*
G75*
G02*
X35811000Y-20803500I0J-87500D01*
G01*
X35811000Y-21728500D01*
G75*
G02*
X35723500Y-21816000I-87500J0D01*
G01*
G37*
G04 #@! TD.AperFunction*
G04 #@! TA.AperFunction,SMDPad,CuDef*
G36*
G01*
X36523500Y-21816000D02*
X36348500Y-21816000D01*
G75*
G02*
X36261000Y-21728500I0J87500D01*
G01*
X36261000Y-20803500D01*
G75*
G02*
X36348500Y-20716000I87500J0D01*
G01*
X36523500Y-20716000D01*
G75*
G02*
X36611000Y-20803500I0J-87500D01*
G01*
X36611000Y-21728500D01*
G75*
G02*
X36523500Y-21816000I-87500J0D01*
G01*
G37*
G04 #@! TD.AperFunction*
G04 #@! TA.AperFunction,SMDPad,CuDef*
G36*
G01*
X26055000Y-25633000D02*
X26055000Y-26183000D01*
G75*
G02*
X25855000Y-26383000I-200000J0D01*
G01*
X25455000Y-26383000D01*
G75*
G02*
X25255000Y-26183000I0J200000D01*
G01*
X25255000Y-25633000D01*
G75*
G02*
X25455000Y-25433000I200000J0D01*
G01*
X25855000Y-25433000D01*
G75*
G02*
X26055000Y-25633000I0J-200000D01*
G01*
G37*
G04 #@! TD.AperFunction*
G04 #@! TA.AperFunction,SMDPad,CuDef*
G36*
G01*
X27705000Y-25633000D02*
X27705000Y-26183000D01*
G75*
G02*
X27505000Y-26383000I-200000J0D01*
G01*
X27105000Y-26383000D01*
G75*
G02*
X26905000Y-26183000I0J200000D01*
G01*
X26905000Y-25633000D01*
G75*
G02*
X27105000Y-25433000I200000J0D01*
G01*
X27505000Y-25433000D01*
G75*
G02*
X27705000Y-25633000I0J-200000D01*
G01*
G37*
G04 #@! TD.AperFunction*
G04 #@! TA.AperFunction,SMDPad,CuDef*
G36*
G01*
X26055000Y-24363000D02*
X26055000Y-24913000D01*
G75*
G02*
X25855000Y-25113000I-200000J0D01*
G01*
X25455000Y-25113000D01*
G75*
G02*
X25255000Y-24913000I0J200000D01*
G01*
X25255000Y-24363000D01*
G75*
G02*
X25455000Y-24163000I200000J0D01*
G01*
X25855000Y-24163000D01*
G75*
G02*
X26055000Y-24363000I0J-200000D01*
G01*
G37*
G04 #@! TD.AperFunction*
G04 #@! TA.AperFunction,SMDPad,CuDef*
G36*
G01*
X27705000Y-24363000D02*
X27705000Y-24913000D01*
G75*
G02*
X27505000Y-25113000I-200000J0D01*
G01*
X27105000Y-25113000D01*
G75*
G02*
X26905000Y-24913000I0J200000D01*
G01*
X26905000Y-24363000D01*
G75*
G02*
X27105000Y-24163000I200000J0D01*
G01*
X27505000Y-24163000D01*
G75*
G02*
X27705000Y-24363000I0J-200000D01*
G01*
G37*
G04 #@! TD.AperFunction*
D14*
X42418000Y-22733000D03*
X40767000Y-24257000D03*
X52578000Y-38862000D03*
X50165000Y-38862000D03*
X46355000Y-42672000D03*
X52578000Y-42291000D03*
X45720000Y-40005000D03*
X47625000Y-38100000D03*
X50165000Y-36195000D03*
X52578000Y-36195000D03*
X48260000Y-34290000D03*
X45720000Y-36195000D03*
X45720000Y-31750000D03*
X48895000Y-31750000D03*
X49657000Y-41783000D03*
X30162500Y-35814000D03*
X34544000Y-34036000D03*
X50800000Y-18656000D03*
X50800000Y-20206000D03*
X39100000Y-20899266D03*
X51689000Y-16637000D03*
X23241000Y-25654000D03*
X18859500Y-43624500D03*
X37401500Y-47371000D03*
X35801000Y-47358000D03*
X36580653Y-23998347D03*
X33401000Y-27318000D03*
X25019000Y-28448000D03*
X51562000Y-33020000D03*
X52324000Y-30607000D03*
X47371000Y-30226000D03*
X39370000Y-42926000D03*
X34417000Y-31623000D03*
X34925000Y-40894000D03*
X34925000Y-42672000D03*
X34925000Y-45212000D03*
X34925000Y-46482000D03*
X32893000Y-46482000D03*
X30734000Y-46482000D03*
X28194000Y-50038000D03*
X30099000Y-50038000D03*
X32004000Y-50038000D03*
X33909000Y-50038000D03*
X35941000Y-50038000D03*
X38100000Y-50038000D03*
X40132000Y-50038000D03*
X39116000Y-48387000D03*
X39116000Y-46101000D03*
X37846000Y-44450000D03*
X26416000Y-50292000D03*
X24384000Y-50292000D03*
X22479000Y-50292000D03*
X20447000Y-50292000D03*
X52258000Y-24323000D03*
X50165000Y-25527000D03*
X56769000Y-27178000D03*
X55753000Y-21082000D03*
X36195000Y-26670000D03*
X20574000Y-26162000D03*
X18669000Y-32639000D03*
X18542000Y-21082000D03*
X32893000Y-41148000D03*
X22161500Y-36703000D03*
X25006349Y-39684154D03*
X26099500Y-37847000D03*
X35179000Y-17272000D03*
X36766500Y-19558000D03*
X44050000Y-20930417D03*
X45974000Y-20789900D03*
X22352000Y-29718000D03*
X27432000Y-29718000D03*
X27432000Y-31496000D03*
X39624000Y-35814000D03*
X37719000Y-23368000D03*
X22352000Y-31407000D03*
X22352000Y-26670000D03*
X22352000Y-24003000D03*
X28321000Y-48133000D03*
X48387000Y-18542000D03*
X27559000Y-15748000D03*
X31369000Y-15748000D03*
X33909002Y-16255998D03*
X37973000Y-18415000D03*
X42368254Y-27164393D03*
X48260012Y-25654000D03*
X19050000Y-22860000D03*
X25146000Y-31623000D03*
X32258000Y-30607000D03*
X25019000Y-38671500D03*
X24447500Y-36195000D03*
X35560000Y-29882000D03*
X31496000Y-37084000D03*
X45216732Y-23372587D03*
X41557344Y-18277037D03*
X33274000Y-20066000D03*
X28468392Y-25527000D03*
X28321000Y-18669000D03*
X28478538Y-26543000D03*
X27054339Y-18665671D03*
X37514424Y-31579791D03*
X21590000Y-28638500D03*
X24130000Y-46228000D03*
X24003000Y-48567000D03*
X20701000Y-27686000D03*
X31038000Y-32766000D03*
X34798000Y-29210000D03*
X37883000Y-41783000D03*
X20357000Y-29654500D03*
X20701000Y-36195000D03*
X35611000Y-19431000D03*
X26035000Y-46990000D03*
X27596000Y-46609000D03*
X27092372Y-36384970D03*
X21139990Y-42926000D03*
X20193000Y-47053500D03*
X27913500Y-43407500D03*
X24163581Y-44307009D03*
X57023000Y-25654000D03*
X32385000Y-22860000D03*
D15*
X32766000Y-35814000D02*
X34544000Y-34036000D01*
X29972000Y-35814000D02*
X32766000Y-35814000D01*
X50800000Y-18656000D02*
X50800000Y-20206000D01*
D16*
X42348322Y-24147588D02*
X39100000Y-20899266D01*
D15*
X42373322Y-24172588D02*
X42348322Y-24147588D01*
X42373322Y-24172588D02*
X39100000Y-20899266D01*
D17*
X23987000Y-24908000D02*
X23241000Y-25654000D01*
X23987000Y-19891000D02*
X23987000Y-24908000D01*
D15*
X42584734Y-24384000D02*
X42373322Y-24172588D01*
X45720000Y-24384000D02*
X42584734Y-24384000D01*
X47561500Y-22542500D02*
X45720000Y-24384000D01*
X47561500Y-16637000D02*
X47561500Y-22542500D01*
X51689000Y-16637000D02*
X47561500Y-16637000D01*
X45227000Y-16637000D02*
X45100000Y-16764000D01*
X47561500Y-16637000D02*
X45227000Y-16637000D01*
D16*
X34836000Y-19443800D02*
X34836000Y-18358000D01*
X34036000Y-20243800D02*
X34836000Y-19443800D01*
X34036000Y-21266000D02*
X34036000Y-20243800D01*
D15*
X40595002Y-47371000D02*
X37401500Y-47371000D01*
X50800000Y-37166002D02*
X40595002Y-47371000D01*
X50800000Y-20206000D02*
X50800000Y-37166002D01*
D16*
X27401498Y-47561500D02*
X27745498Y-47561500D01*
X26810001Y-46970003D02*
X27401498Y-47561500D01*
X27948998Y-47358000D02*
X35801000Y-47358000D01*
X27745498Y-47561500D02*
X27948998Y-47358000D01*
X26810001Y-46617999D02*
X26810001Y-46970003D01*
X26035000Y-45842998D02*
X26810001Y-46617999D01*
X26035000Y-45667000D02*
X26035000Y-45842998D01*
D15*
X35090186Y-27318000D02*
X33401000Y-27318000D01*
X36580653Y-25827533D02*
X36195000Y-26670000D01*
X36580653Y-23998347D02*
X36580653Y-25827533D01*
X36195000Y-26670000D02*
X35090186Y-27318000D01*
D17*
X20415250Y-38576250D02*
X18859500Y-40132000D01*
X21875750Y-38576250D02*
X20415250Y-38576250D01*
X22161500Y-38290500D02*
X21875750Y-38576250D01*
X18859500Y-40132000D02*
X18859500Y-43624500D01*
X22161500Y-36703000D02*
X22161500Y-38290500D01*
D16*
X37401500Y-48196500D02*
X37401500Y-47371000D01*
X20894010Y-49342010D02*
X36255990Y-49342010D01*
X18859500Y-47307500D02*
X20894010Y-49342010D01*
X36255990Y-49342010D02*
X37401500Y-48196500D01*
X18859500Y-43624500D02*
X18859500Y-47307500D01*
D17*
X26099500Y-39156688D02*
X26099500Y-37847000D01*
X25572034Y-39684154D02*
X26099500Y-39156688D01*
X25006349Y-39684154D02*
X25572034Y-39684154D01*
D16*
X34836000Y-17615000D02*
X35179000Y-17272000D01*
X34836000Y-18358000D02*
X34836000Y-17615000D01*
X44050000Y-20930417D02*
X44855583Y-20930417D01*
X44855583Y-20930417D02*
X44983400Y-20802600D01*
X45961300Y-20802600D02*
X45974000Y-20789900D01*
X44983400Y-20802600D02*
X45961300Y-20802600D01*
D17*
X22352000Y-29718000D02*
X22352000Y-29718000D01*
X27432000Y-31496000D02*
X27432000Y-29718000D01*
X25655000Y-24638000D02*
X25655000Y-25908000D01*
D16*
X39624000Y-35814000D02*
X39624000Y-27940000D01*
X34798000Y-27940000D02*
X33020000Y-29718000D01*
X33020000Y-29718000D02*
X27432000Y-29718000D01*
D17*
X22352000Y-31407000D02*
X22352000Y-29718000D01*
X26670000Y-26670000D02*
X25781000Y-26670000D01*
X27432000Y-27432000D02*
X26670000Y-26670000D01*
X27432000Y-29718000D02*
X27432000Y-27432000D01*
X22917685Y-26670000D02*
X22352000Y-26670000D01*
X25655000Y-26669000D02*
X25654000Y-26670000D01*
X25654000Y-26670000D02*
X22917685Y-26670000D01*
X25655000Y-25908000D02*
X25655000Y-26669000D01*
X25781000Y-26670000D02*
X25654000Y-26670000D01*
X22352000Y-26670000D02*
X22352000Y-24003000D01*
D16*
X33236000Y-18358000D02*
X32436000Y-18358000D01*
X36576000Y-27940000D02*
X36576000Y-47752000D01*
X34798000Y-27940000D02*
X36576000Y-27940000D01*
X36576000Y-27940000D02*
X39624000Y-27940000D01*
X36195000Y-48133000D02*
X28321000Y-48133000D01*
X36576000Y-47752000D02*
X36195000Y-48133000D01*
X39624000Y-27940000D02*
X39624000Y-26162000D01*
D15*
X37719000Y-23368000D02*
X39624000Y-25273000D01*
D16*
X39624000Y-26162000D02*
X39624000Y-25273000D01*
D15*
X39624000Y-25273000D02*
X39624000Y-35814000D01*
X45466000Y-26162000D02*
X39624000Y-26162000D01*
X48387000Y-23241000D02*
X45466000Y-26162000D01*
X48387000Y-18542000D02*
X48387000Y-23241000D01*
D16*
X33236000Y-16929000D02*
X33236000Y-18358000D01*
X33909002Y-16255998D02*
X33236000Y-16929000D01*
X35813998Y-16255998D02*
X33909002Y-16255998D01*
X37973000Y-18415000D02*
X35813998Y-16255998D01*
X37973000Y-22548315D02*
X37973000Y-18415000D01*
X37719000Y-22802315D02*
X37973000Y-22548315D01*
X37719000Y-23368000D02*
X37719000Y-22802315D01*
D17*
X27559000Y-16002000D02*
X31369000Y-16002000D01*
X42368254Y-27164393D02*
X46749619Y-27164393D01*
X46749619Y-27164393D02*
X48260012Y-25654000D01*
X19050000Y-21971000D02*
X19050000Y-22860000D01*
X20987000Y-20034000D02*
X19050000Y-21971000D01*
X20987000Y-19891000D02*
X20987000Y-20034000D01*
X29464000Y-30607000D02*
X32258000Y-30607000D01*
X27813000Y-32258000D02*
X29464000Y-30607000D01*
X25781000Y-32258000D02*
X27813000Y-32258000D01*
X25146000Y-31623000D02*
X25781000Y-32258000D01*
X24447500Y-38100000D02*
X24447500Y-36195000D01*
X25019000Y-38671500D02*
X24447500Y-38100000D01*
D16*
X34036000Y-37084000D02*
X31496000Y-37084000D01*
X35560000Y-35560000D02*
X34036000Y-37084000D01*
X35560000Y-29882000D02*
X35560000Y-35560000D01*
D17*
X45212000Y-23367855D02*
X45216732Y-23372587D01*
D16*
X41557344Y-19713199D02*
X41557344Y-18277037D01*
X45216732Y-23372587D02*
X41557344Y-19713199D01*
X34036000Y-19304000D02*
X34036000Y-18358000D01*
X33274000Y-20066000D02*
X34036000Y-19304000D01*
D17*
X27579392Y-24638000D02*
X28468392Y-25527000D01*
X27305000Y-24638000D02*
X27579392Y-24638000D01*
D16*
X34836000Y-25235000D02*
X34836000Y-21266000D01*
X34544000Y-25527000D02*
X34836000Y-25235000D01*
X28468392Y-25527000D02*
X34544000Y-25527000D01*
D17*
X27305000Y-24638000D02*
X27305000Y-19939000D01*
X27305000Y-19939000D02*
X28321000Y-18923000D01*
X27306011Y-25906989D02*
X27305000Y-25908000D01*
X27305000Y-25908000D02*
X27940000Y-26543000D01*
X27940000Y-26543000D02*
X28478538Y-26543000D01*
D16*
X35636000Y-25578000D02*
X35636000Y-21266000D01*
X34671000Y-26543000D02*
X35636000Y-25578000D01*
X28478538Y-26543000D02*
X34671000Y-26543000D01*
D17*
X27305000Y-25908000D02*
X26467541Y-25070541D01*
X26467541Y-25070541D02*
X26467541Y-19506469D01*
X26467541Y-19506469D02*
X27054339Y-18919671D01*
D15*
X37514424Y-38379424D02*
X37514424Y-37034576D01*
X39751000Y-40616000D02*
X37514424Y-38379424D01*
X37514424Y-31579791D02*
X37514424Y-37034576D01*
D17*
X23437011Y-45535011D02*
X24130000Y-46228000D01*
X21590000Y-32004000D02*
X23437011Y-33851010D01*
X21590000Y-28638500D02*
X21590000Y-32004000D01*
X23437011Y-33851010D02*
X23437011Y-45535011D01*
X25035000Y-45667000D02*
X25035000Y-46021500D01*
X24828500Y-46228000D02*
X24130000Y-46228000D01*
X25035000Y-46021500D02*
X24828500Y-46228000D01*
X25035000Y-48567000D02*
X24003000Y-48567000D01*
X21082000Y-32132410D02*
X21082000Y-29210000D01*
X20701000Y-28829000D02*
X20701000Y-27686000D01*
X22987000Y-34037410D02*
X21082000Y-32132410D01*
X24003000Y-48567000D02*
X22987000Y-47551000D01*
X21082000Y-29210000D02*
X20701000Y-28829000D01*
X22987000Y-47551000D02*
X22987000Y-34037410D01*
X31242000Y-32766000D02*
X34798000Y-29210000D01*
X31038000Y-32766000D02*
X31242000Y-32766000D01*
X41363000Y-41783000D02*
X42276000Y-40870000D01*
X37883000Y-41783000D02*
X41363000Y-41783000D01*
X20357000Y-33501500D02*
X20357000Y-29654500D01*
X20701000Y-33845500D02*
X20357000Y-33501500D01*
X20701000Y-36195000D02*
X20701000Y-33845500D01*
X35636000Y-19406000D02*
X35611000Y-19431000D01*
X35636000Y-18358000D02*
X35636000Y-19406000D01*
X26035000Y-48567000D02*
X26035000Y-46990000D01*
X28638501Y-37931099D02*
X27092372Y-36384970D01*
X28638501Y-45566499D02*
X28638501Y-37931099D01*
X27596000Y-46609000D02*
X28638501Y-45566499D01*
X25063090Y-43407500D02*
X27913500Y-43407500D01*
X24163581Y-44307009D02*
X25063090Y-43407500D01*
X20193000Y-46164500D02*
X21139990Y-45217510D01*
X20193000Y-47053500D02*
X20193000Y-46164500D01*
X21139990Y-42926000D02*
X21139990Y-45217510D01*
X56276000Y-38870000D02*
X54237000Y-38870000D01*
X54237000Y-38870000D02*
X53848000Y-38481000D01*
X53848000Y-38481000D02*
X53848000Y-29337000D01*
X54315000Y-28870000D02*
X56276000Y-28870000D01*
X53848000Y-29337000D02*
X54315000Y-28870000D01*
X57023000Y-25654000D02*
X57023000Y-20897998D01*
X57023000Y-20897998D02*
X51613992Y-15488990D01*
X51613992Y-15488990D02*
X33025010Y-15488990D01*
X33025010Y-15488990D02*
X30734000Y-17780000D01*
X31877000Y-22860000D02*
X30734000Y-21717000D01*
X32385000Y-22860000D02*
X31877000Y-22860000D01*
X30734000Y-17780000D02*
X30734000Y-21717000D01*
D18*
X25908000Y-19554428D02*
X25915542Y-19553685D01*
X25915541Y-23739897D01*
X25855000Y-23733934D01*
X25455000Y-23733934D01*
X25332275Y-23746021D01*
X25214267Y-23781819D01*
X25105510Y-23839951D01*
X25010183Y-23918183D01*
X24931951Y-24013510D01*
X24873819Y-24122267D01*
X24838021Y-24240275D01*
X24825934Y-24363000D01*
X24825934Y-24913000D01*
X24838021Y-25035725D01*
X24873819Y-25153733D01*
X24931951Y-25262490D01*
X24940576Y-25273000D01*
X24931951Y-25283510D01*
X24873819Y-25392267D01*
X24838021Y-25510275D01*
X24825934Y-25633000D01*
X24825934Y-26118000D01*
X22969553Y-26118000D01*
X22904000Y-26052447D01*
X22904000Y-24620553D01*
X22994372Y-24530181D01*
X23084877Y-24394731D01*
X23147218Y-24244227D01*
X23179000Y-24084452D01*
X23179000Y-23921548D01*
X23147218Y-23761773D01*
X23084877Y-23611269D01*
X22994372Y-23475819D01*
X22879181Y-23360628D01*
X22743731Y-23270123D01*
X22593227Y-23207782D01*
X22433452Y-23176000D01*
X22270548Y-23176000D01*
X22110773Y-23207782D01*
X21960269Y-23270123D01*
X21824819Y-23360628D01*
X21709628Y-23475819D01*
X21619123Y-23611269D01*
X21556782Y-23761773D01*
X21525000Y-23921548D01*
X21525000Y-24084452D01*
X21556782Y-24244227D01*
X21619123Y-24394731D01*
X21709628Y-24530181D01*
X21800001Y-24620554D01*
X21800000Y-26052447D01*
X21709628Y-26142819D01*
X21619123Y-26278269D01*
X21556782Y-26428773D01*
X21525000Y-26588548D01*
X21525000Y-26751452D01*
X21556782Y-26911227D01*
X21619123Y-27061731D01*
X21709628Y-27197181D01*
X21824819Y-27312372D01*
X21960269Y-27402877D01*
X22110773Y-27465218D01*
X22270548Y-27497000D01*
X22433452Y-27497000D01*
X22593227Y-27465218D01*
X22743731Y-27402877D01*
X22879181Y-27312372D01*
X22969553Y-27222000D01*
X25626894Y-27222000D01*
X25654000Y-27224670D01*
X25681106Y-27222000D01*
X26441356Y-27222000D01*
X26880001Y-27660646D01*
X26880000Y-29100447D01*
X26789628Y-29190819D01*
X26699123Y-29326269D01*
X26636782Y-29476773D01*
X26605000Y-29636548D01*
X26605000Y-29799452D01*
X26636782Y-29959227D01*
X26699123Y-30109731D01*
X26789628Y-30245181D01*
X26880001Y-30335554D01*
X26880000Y-30878447D01*
X26789628Y-30968819D01*
X26699123Y-31104269D01*
X26636782Y-31254773D01*
X26605000Y-31414548D01*
X26605000Y-31577452D01*
X26630570Y-31706000D01*
X26009645Y-31706000D01*
X25973000Y-31669355D01*
X25973000Y-31541548D01*
X25941218Y-31381773D01*
X25878877Y-31231269D01*
X25788372Y-31095819D01*
X25673181Y-30980628D01*
X25537731Y-30890123D01*
X25387227Y-30827782D01*
X25227452Y-30796000D01*
X25064548Y-30796000D01*
X24904773Y-30827782D01*
X24754269Y-30890123D01*
X24618819Y-30980628D01*
X24503628Y-31095819D01*
X24413123Y-31231269D01*
X24350782Y-31381773D01*
X24319000Y-31541548D01*
X24319000Y-31704452D01*
X24350782Y-31864227D01*
X24413123Y-32014731D01*
X24503628Y-32150181D01*
X24618819Y-32265372D01*
X24754269Y-32355877D01*
X24904773Y-32418218D01*
X25064548Y-32450000D01*
X25192355Y-32450000D01*
X25371508Y-32629154D01*
X25388789Y-32650211D01*
X25409845Y-32667491D01*
X25409846Y-32667492D01*
X25472842Y-32719191D01*
X25568737Y-32770448D01*
X25672789Y-32802012D01*
X25781000Y-32812670D01*
X25808108Y-32810000D01*
X27785894Y-32810000D01*
X27813000Y-32812670D01*
X27840106Y-32810000D01*
X27840109Y-32810000D01*
X27921211Y-32802012D01*
X28025263Y-32770448D01*
X28121158Y-32719191D01*
X28205211Y-32650211D01*
X28222500Y-32629144D01*
X29692646Y-31159000D01*
X31640447Y-31159000D01*
X31730819Y-31249372D01*
X31866269Y-31339877D01*
X31881266Y-31346089D01*
X31260332Y-31967024D01*
X31119452Y-31939000D01*
X30956548Y-31939000D01*
X30796773Y-31970782D01*
X30646269Y-32033123D01*
X30510819Y-32123628D01*
X30395628Y-32238819D01*
X30305123Y-32374269D01*
X30242782Y-32524773D01*
X30211000Y-32684548D01*
X30211000Y-32847452D01*
X30242782Y-33007227D01*
X30305123Y-33157731D01*
X30395628Y-33293181D01*
X30510819Y-33408372D01*
X30646269Y-33498877D01*
X30796773Y-33561218D01*
X30956548Y-33593000D01*
X31119452Y-33593000D01*
X31279227Y-33561218D01*
X31429731Y-33498877D01*
X31565181Y-33408372D01*
X31680372Y-33293181D01*
X31770877Y-33157731D01*
X31833218Y-33007227D01*
X31846081Y-32942563D01*
X34748296Y-30040350D01*
X34764782Y-30123227D01*
X34827123Y-30273731D01*
X34917628Y-30409181D01*
X34958000Y-30449553D01*
X34958001Y-35310642D01*
X33786645Y-36482000D01*
X32063553Y-36482000D01*
X32023181Y-36441628D01*
X31887731Y-36351123D01*
X31737227Y-36288782D01*
X31577452Y-36257000D01*
X31414548Y-36257000D01*
X31254773Y-36288782D01*
X31104269Y-36351123D01*
X30968819Y-36441628D01*
X30853628Y-36556819D01*
X30763123Y-36692269D01*
X30700782Y-36842773D01*
X30669000Y-37002548D01*
X30669000Y-37165452D01*
X30700782Y-37325227D01*
X30763123Y-37475731D01*
X30853628Y-37611181D01*
X30968819Y-37726372D01*
X31104269Y-37816877D01*
X31254773Y-37879218D01*
X31414548Y-37911000D01*
X31577452Y-37911000D01*
X31737227Y-37879218D01*
X31887731Y-37816877D01*
X32023181Y-37726372D01*
X32063553Y-37686000D01*
X34006444Y-37686000D01*
X34036000Y-37688911D01*
X34065556Y-37686000D01*
X34065566Y-37686000D01*
X34154012Y-37677289D01*
X34267490Y-37642866D01*
X34372071Y-37586966D01*
X34463737Y-37511737D01*
X34482589Y-37488766D01*
X35964777Y-36006580D01*
X35974000Y-35999010D01*
X35974001Y-47502643D01*
X35945645Y-47531000D01*
X28888553Y-47531000D01*
X28848181Y-47490628D01*
X28712731Y-47400123D01*
X28562227Y-47337782D01*
X28402452Y-47306000D01*
X28239548Y-47306000D01*
X28079773Y-47337782D01*
X27929269Y-47400123D01*
X27793819Y-47490628D01*
X27678628Y-47605819D01*
X27588123Y-47741269D01*
X27525782Y-47891773D01*
X27522349Y-47909031D01*
X27509106Y-47892894D01*
X27428933Y-47827098D01*
X27337465Y-47778207D01*
X27238216Y-47748100D01*
X27135000Y-47737934D01*
X26935000Y-47737934D01*
X26831784Y-47748100D01*
X26732535Y-47778207D01*
X26641067Y-47827098D01*
X26587000Y-47871469D01*
X26587000Y-47607553D01*
X26677372Y-47517181D01*
X26767877Y-47381731D01*
X26830218Y-47231227D01*
X26862000Y-47071452D01*
X26862000Y-46998020D01*
X26863123Y-47000731D01*
X26953628Y-47136181D01*
X27068819Y-47251372D01*
X27204269Y-47341877D01*
X27354773Y-47404218D01*
X27514548Y-47436000D01*
X27677452Y-47436000D01*
X27837227Y-47404218D01*
X27987731Y-47341877D01*
X28123181Y-47251372D01*
X28238372Y-47136181D01*
X28328877Y-47000731D01*
X28391218Y-46850227D01*
X28423000Y-46690452D01*
X28423000Y-46562645D01*
X29009655Y-45975991D01*
X29030712Y-45958710D01*
X29099692Y-45874657D01*
X29150949Y-45778762D01*
X29182513Y-45674710D01*
X29190501Y-45593608D01*
X29190501Y-45593606D01*
X29193171Y-45566500D01*
X29190501Y-45539394D01*
X29190501Y-37958207D01*
X29193171Y-37931099D01*
X29182513Y-37822888D01*
X29150949Y-37718836D01*
X29099692Y-37622941D01*
X29047993Y-37559945D01*
X29047992Y-37559944D01*
X29030712Y-37538888D01*
X29009655Y-37521607D01*
X27919372Y-36431325D01*
X27919372Y-36303518D01*
X27887590Y-36143743D01*
X27825249Y-35993239D01*
X27734744Y-35857789D01*
X27619553Y-35742598D01*
X27484103Y-35652093D01*
X27333599Y-35589752D01*
X27173824Y-35557970D01*
X27010920Y-35557970D01*
X26851145Y-35589752D01*
X26700641Y-35652093D01*
X26565191Y-35742598D01*
X26450000Y-35857789D01*
X26359495Y-35993239D01*
X26297154Y-36143743D01*
X26265372Y-36303518D01*
X26265372Y-36466422D01*
X26297154Y-36626197D01*
X26359495Y-36776701D01*
X26450000Y-36912151D01*
X26565191Y-37027342D01*
X26700641Y-37117847D01*
X26851145Y-37180188D01*
X27010920Y-37211970D01*
X27138727Y-37211970D01*
X28086502Y-38159746D01*
X28086501Y-42598711D01*
X27994952Y-42580500D01*
X27832048Y-42580500D01*
X27672273Y-42612282D01*
X27521769Y-42674623D01*
X27386319Y-42765128D01*
X27295947Y-42855500D01*
X25090198Y-42855500D01*
X25063090Y-42852830D01*
X25035981Y-42855500D01*
X24954879Y-42863488D01*
X24850827Y-42895052D01*
X24754932Y-42946309D01*
X24670879Y-43015289D01*
X24653598Y-43036346D01*
X24209936Y-43480009D01*
X24082129Y-43480009D01*
X23989011Y-43498532D01*
X23989011Y-38411450D01*
X24055289Y-38492211D01*
X24076356Y-38509500D01*
X24192000Y-38625145D01*
X24192000Y-38752952D01*
X24223782Y-38912727D01*
X24286123Y-39063231D01*
X24376628Y-39198681D01*
X24491819Y-39313872D01*
X24627269Y-39404377D01*
X24777773Y-39466718D01*
X24937548Y-39498500D01*
X25100452Y-39498500D01*
X25260227Y-39466718D01*
X25410731Y-39404377D01*
X25546181Y-39313872D01*
X25661372Y-39198681D01*
X25751877Y-39063231D01*
X25814218Y-38912727D01*
X25846000Y-38752952D01*
X25846000Y-38590048D01*
X25814218Y-38430273D01*
X25751877Y-38279769D01*
X25661372Y-38144319D01*
X25546181Y-38029128D01*
X25410731Y-37938623D01*
X25260227Y-37876282D01*
X25100452Y-37844500D01*
X24999500Y-37844500D01*
X24999500Y-36812553D01*
X25089872Y-36722181D01*
X25180377Y-36586731D01*
X25242718Y-36436227D01*
X25274500Y-36276452D01*
X25274500Y-36113548D01*
X25242718Y-35953773D01*
X25180377Y-35803269D01*
X25089872Y-35667819D01*
X24974681Y-35552628D01*
X24839231Y-35462123D01*
X24688727Y-35399782D01*
X24528952Y-35368000D01*
X24366048Y-35368000D01*
X24206273Y-35399782D01*
X24055769Y-35462123D01*
X23989011Y-35506729D01*
X23989011Y-33878107D01*
X23991680Y-33851009D01*
X23989011Y-33823911D01*
X23989011Y-33823901D01*
X23981023Y-33742799D01*
X23949459Y-33638747D01*
X23908019Y-33561218D01*
X23898202Y-33542851D01*
X23846502Y-33479855D01*
X23829222Y-33458799D01*
X23808165Y-33441518D01*
X22572906Y-32206260D01*
X22593227Y-32202218D01*
X22743731Y-32139877D01*
X22879181Y-32049372D01*
X22994372Y-31934181D01*
X23084877Y-31798731D01*
X23147218Y-31648227D01*
X23179000Y-31488452D01*
X23179000Y-31325548D01*
X23147218Y-31165773D01*
X23084877Y-31015269D01*
X22994372Y-30879819D01*
X22904000Y-30789447D01*
X22904000Y-30335553D01*
X22994372Y-30245181D01*
X23084877Y-30109731D01*
X23147218Y-29959227D01*
X23179000Y-29799452D01*
X23179000Y-29636548D01*
X23147218Y-29476773D01*
X23084877Y-29326269D01*
X22994372Y-29190819D01*
X22879181Y-29075628D01*
X22743731Y-28985123D01*
X22593227Y-28922782D01*
X22433452Y-28891000D01*
X22380549Y-28891000D01*
X22385218Y-28879727D01*
X22417000Y-28719952D01*
X22417000Y-28557048D01*
X22385218Y-28397273D01*
X22322877Y-28246769D01*
X22232372Y-28111319D01*
X22117181Y-27996128D01*
X21981731Y-27905623D01*
X21831227Y-27843282D01*
X21671452Y-27811500D01*
X21519238Y-27811500D01*
X21528000Y-27767452D01*
X21528000Y-27604548D01*
X21496218Y-27444773D01*
X21433877Y-27294269D01*
X21343372Y-27158819D01*
X21228181Y-27043628D01*
X21092731Y-26953123D01*
X20942227Y-26890782D01*
X20782452Y-26859000D01*
X20619548Y-26859000D01*
X20459773Y-26890782D01*
X20309269Y-26953123D01*
X20173819Y-27043628D01*
X20058628Y-27158819D01*
X19968123Y-27294269D01*
X19905782Y-27444773D01*
X19874000Y-27604548D01*
X19874000Y-27767452D01*
X19905782Y-27927227D01*
X19968123Y-28077731D01*
X20058628Y-28213181D01*
X20149000Y-28303553D01*
X20149000Y-28801894D01*
X20146330Y-28829000D01*
X20148668Y-28852739D01*
X20115773Y-28859282D01*
X19965269Y-28921623D01*
X19829819Y-29012128D01*
X19714628Y-29127319D01*
X19624123Y-29262769D01*
X19561782Y-29413273D01*
X19530000Y-29573048D01*
X19530000Y-29735952D01*
X19561782Y-29895727D01*
X19624123Y-30046231D01*
X19714628Y-30181681D01*
X19805001Y-30272054D01*
X19805000Y-33474394D01*
X19802330Y-33501500D01*
X19805000Y-33528606D01*
X19805000Y-33528608D01*
X19812988Y-33609710D01*
X19844552Y-33713762D01*
X19895809Y-33809658D01*
X19964789Y-33893711D01*
X19985856Y-33911000D01*
X20149001Y-34074145D01*
X20149000Y-35577447D01*
X20058628Y-35667819D01*
X19968123Y-35803269D01*
X19905782Y-35953773D01*
X19874000Y-36113548D01*
X19874000Y-36276452D01*
X19905782Y-36436227D01*
X19968123Y-36586731D01*
X20058628Y-36722181D01*
X20173819Y-36837372D01*
X20309269Y-36927877D01*
X20379247Y-36956863D01*
X20367859Y-36984357D01*
X20338000Y-37134472D01*
X20338000Y-37287528D01*
X20367859Y-37437643D01*
X20426431Y-37579048D01*
X20511464Y-37706309D01*
X20619691Y-37814536D01*
X20746952Y-37899569D01*
X20888357Y-37958141D01*
X21038472Y-37988000D01*
X21191528Y-37988000D01*
X21341643Y-37958141D01*
X21483048Y-37899569D01*
X21610309Y-37814536D01*
X21718536Y-37706309D01*
X21803569Y-37579048D01*
X21862141Y-37437643D01*
X21892000Y-37287528D01*
X21892000Y-37134472D01*
X21862141Y-36984357D01*
X21803569Y-36842952D01*
X21718536Y-36715691D01*
X21610309Y-36607464D01*
X21483048Y-36522431D01*
X21463811Y-36514463D01*
X21496218Y-36436227D01*
X21528000Y-36276452D01*
X21528000Y-36113548D01*
X21496218Y-35953773D01*
X21433877Y-35803269D01*
X21343372Y-35667819D01*
X21253000Y-35577447D01*
X21253000Y-33872597D01*
X21255669Y-33845499D01*
X21253000Y-33818401D01*
X21253000Y-33818391D01*
X21245012Y-33737289D01*
X21213448Y-33633237D01*
X21162191Y-33537342D01*
X21093211Y-33453289D01*
X21072148Y-33436003D01*
X20909000Y-33272856D01*
X20909000Y-32740054D01*
X22435001Y-34266057D01*
X22435000Y-47523894D01*
X22432330Y-47551000D01*
X22435000Y-47578106D01*
X22435000Y-47578108D01*
X22442988Y-47659210D01*
X22474552Y-47763262D01*
X22525809Y-47859158D01*
X22594789Y-47943211D01*
X22615856Y-47960500D01*
X23176000Y-48520645D01*
X23176000Y-48648452D01*
X23207782Y-48808227D01*
X23270123Y-48958731D01*
X23360628Y-49094181D01*
X23475819Y-49209372D01*
X23611269Y-49299877D01*
X23761773Y-49362218D01*
X23921548Y-49394000D01*
X24084452Y-49394000D01*
X24244227Y-49362218D01*
X24394731Y-49299877D01*
X24530181Y-49209372D01*
X24532746Y-49206807D01*
X24560894Y-49241106D01*
X24641067Y-49306902D01*
X24732535Y-49355793D01*
X24831784Y-49385900D01*
X24935000Y-49396066D01*
X25135000Y-49396066D01*
X25238216Y-49385900D01*
X25337465Y-49355793D01*
X25428933Y-49306902D01*
X25509106Y-49241106D01*
X25535000Y-49209554D01*
X25560894Y-49241106D01*
X25641067Y-49306902D01*
X25732535Y-49355793D01*
X25831784Y-49385900D01*
X25935000Y-49396066D01*
X26135000Y-49396066D01*
X26238216Y-49385900D01*
X26337465Y-49355793D01*
X26428933Y-49306902D01*
X26509106Y-49241106D01*
X26535000Y-49209554D01*
X26560894Y-49241106D01*
X26641067Y-49306902D01*
X26732535Y-49355793D01*
X26831784Y-49385900D01*
X26935000Y-49396066D01*
X27135000Y-49396066D01*
X27238216Y-49385900D01*
X27337465Y-49355793D01*
X27428933Y-49306902D01*
X27509106Y-49241106D01*
X27574902Y-49160933D01*
X27623793Y-49069465D01*
X27653900Y-48970216D01*
X27664066Y-48867000D01*
X27664066Y-48638387D01*
X27678628Y-48660181D01*
X27793819Y-48775372D01*
X27929269Y-48865877D01*
X28079773Y-48928218D01*
X28239548Y-48960000D01*
X28402452Y-48960000D01*
X28562227Y-48928218D01*
X28712731Y-48865877D01*
X28848181Y-48775372D01*
X28888553Y-48735000D01*
X36165444Y-48735000D01*
X36195000Y-48737911D01*
X36224556Y-48735000D01*
X36224566Y-48735000D01*
X36313012Y-48726289D01*
X36426490Y-48691866D01*
X36531071Y-48635966D01*
X36622737Y-48560737D01*
X36641588Y-48537767D01*
X36980771Y-48198585D01*
X37003737Y-48179737D01*
X37078966Y-48088071D01*
X37134866Y-47983490D01*
X37169289Y-47870012D01*
X37178000Y-47781566D01*
X37178000Y-47781557D01*
X37180911Y-47752001D01*
X37178000Y-47722444D01*
X37178000Y-42216452D01*
X37240628Y-42310181D01*
X37355819Y-42425372D01*
X37491269Y-42515877D01*
X37641773Y-42578218D01*
X37801548Y-42610000D01*
X37964452Y-42610000D01*
X38124227Y-42578218D01*
X38274731Y-42515877D01*
X38410181Y-42425372D01*
X38500553Y-42335000D01*
X40346934Y-42335000D01*
X40346934Y-43470000D01*
X40355178Y-43553707D01*
X40379595Y-43634196D01*
X40419245Y-43708376D01*
X40472605Y-43773395D01*
X40513770Y-43807179D01*
X40513000Y-43815000D01*
X40513000Y-50933000D01*
X20217551Y-50933000D01*
X19822286Y-50894244D01*
X19465691Y-50786582D01*
X19136800Y-50611707D01*
X18848142Y-50376282D01*
X18610706Y-50089273D01*
X18433539Y-49761609D01*
X18323390Y-49405775D01*
X18282000Y-49011976D01*
X18282000Y-46972048D01*
X19366000Y-46972048D01*
X19366000Y-47134952D01*
X19397782Y-47294727D01*
X19460123Y-47445231D01*
X19550628Y-47580681D01*
X19665819Y-47695872D01*
X19801269Y-47786377D01*
X19951773Y-47848718D01*
X20111548Y-47880500D01*
X20274452Y-47880500D01*
X20434227Y-47848718D01*
X20584731Y-47786377D01*
X20720181Y-47695872D01*
X20835372Y-47580681D01*
X20925877Y-47445231D01*
X20988218Y-47294727D01*
X21020000Y-47134952D01*
X21020000Y-46972048D01*
X20988218Y-46812273D01*
X20925877Y-46661769D01*
X20835372Y-46526319D01*
X20745000Y-46435947D01*
X20745000Y-46393144D01*
X21511144Y-45627002D01*
X21532201Y-45609721D01*
X21601181Y-45525668D01*
X21652438Y-45429773D01*
X21684002Y-45325721D01*
X21691990Y-45244619D01*
X21691990Y-45244617D01*
X21694660Y-45217511D01*
X21691990Y-45190405D01*
X21691990Y-43543553D01*
X21782362Y-43453181D01*
X21872867Y-43317731D01*
X21935208Y-43167227D01*
X21966990Y-43007452D01*
X21966990Y-42844548D01*
X21935208Y-42684773D01*
X21872867Y-42534269D01*
X21782362Y-42398819D01*
X21667171Y-42283628D01*
X21531721Y-42193123D01*
X21381217Y-42130782D01*
X21221442Y-42099000D01*
X21058538Y-42099000D01*
X20898763Y-42130782D01*
X20748259Y-42193123D01*
X20612809Y-42283628D01*
X20497618Y-42398819D01*
X20407113Y-42534269D01*
X20344772Y-42684773D01*
X20312990Y-42844548D01*
X20312990Y-43007452D01*
X20344772Y-43167227D01*
X20407113Y-43317731D01*
X20497618Y-43453181D01*
X20587990Y-43543553D01*
X20587991Y-44988863D01*
X19821852Y-45755004D01*
X19800790Y-45772289D01*
X19770467Y-45809238D01*
X19731809Y-45856343D01*
X19680552Y-45952238D01*
X19648989Y-46056290D01*
X19638330Y-46164500D01*
X19641000Y-46191606D01*
X19641000Y-46435947D01*
X19550628Y-46526319D01*
X19460123Y-46661769D01*
X19397782Y-46812273D01*
X19366000Y-46972048D01*
X18282000Y-46972048D01*
X18282000Y-37976767D01*
X18338472Y-37988000D01*
X18491528Y-37988000D01*
X18641643Y-37958141D01*
X18783048Y-37899569D01*
X18910309Y-37814536D01*
X19018536Y-37706309D01*
X19103569Y-37579048D01*
X19162141Y-37437643D01*
X19192000Y-37287528D01*
X19192000Y-37134472D01*
X19162141Y-36984357D01*
X19103569Y-36842952D01*
X19018536Y-36715691D01*
X18910309Y-36607464D01*
X18783048Y-36522431D01*
X18641643Y-36463859D01*
X18491528Y-36434000D01*
X18338472Y-36434000D01*
X18282000Y-36445233D01*
X18282000Y-23166937D01*
X18317123Y-23251731D01*
X18407628Y-23387181D01*
X18522819Y-23502372D01*
X18658269Y-23592877D01*
X18808773Y-23655218D01*
X18968548Y-23687000D01*
X19131452Y-23687000D01*
X19291227Y-23655218D01*
X19441731Y-23592877D01*
X19577181Y-23502372D01*
X19692372Y-23387181D01*
X19782877Y-23251731D01*
X19845218Y-23101227D01*
X19877000Y-22941452D01*
X19877000Y-22778548D01*
X19845218Y-22618773D01*
X19782877Y-22468269D01*
X19692372Y-22332819D01*
X19602000Y-22242447D01*
X19602000Y-22199644D01*
X20748489Y-21053156D01*
X20880925Y-21079500D01*
X21093075Y-21079500D01*
X21301149Y-21038111D01*
X21497151Y-20956925D01*
X21673547Y-20839060D01*
X21737000Y-20775607D01*
X21800453Y-20839060D01*
X21976849Y-20956925D01*
X22172851Y-21038111D01*
X22380925Y-21079500D01*
X22593075Y-21079500D01*
X22801149Y-21038111D01*
X22997151Y-20956925D01*
X23173547Y-20839060D01*
X23228065Y-20784542D01*
X23235605Y-20792082D01*
X23312330Y-20715357D01*
X23368207Y-20900131D01*
X23555216Y-21003604D01*
X23758818Y-21068605D01*
X23971190Y-21092636D01*
X24184168Y-21074774D01*
X24389570Y-21015705D01*
X24579501Y-20917699D01*
X24605793Y-20900131D01*
X24661671Y-20715355D01*
X23987000Y-20040684D01*
X23972858Y-20054826D01*
X23934674Y-20016642D01*
X23948816Y-20002500D01*
X23934674Y-19988358D01*
X23972858Y-19950174D01*
X23987000Y-19964316D01*
X24001142Y-19950174D01*
X24039326Y-19988358D01*
X24025184Y-20002500D01*
X24699855Y-20677171D01*
X24884631Y-20621293D01*
X24988104Y-20434284D01*
X25053105Y-20230682D01*
X25077136Y-20018310D01*
X25059274Y-19805332D01*
X25000205Y-19599930D01*
X24975473Y-19552000D01*
X25883347Y-19552000D01*
X25908000Y-19554428D01*
G04 #@! TA.AperFunction,Conductor*
D19*
G36*
X25908000Y-19554428D02*
G01*
X25915542Y-19553685D01*
X25915541Y-23739897D01*
X25855000Y-23733934D01*
X25455000Y-23733934D01*
X25332275Y-23746021D01*
X25214267Y-23781819D01*
X25105510Y-23839951D01*
X25010183Y-23918183D01*
X24931951Y-24013510D01*
X24873819Y-24122267D01*
X24838021Y-24240275D01*
X24825934Y-24363000D01*
X24825934Y-24913000D01*
X24838021Y-25035725D01*
X24873819Y-25153733D01*
X24931951Y-25262490D01*
X24940576Y-25273000D01*
X24931951Y-25283510D01*
X24873819Y-25392267D01*
X24838021Y-25510275D01*
X24825934Y-25633000D01*
X24825934Y-26118000D01*
X22969553Y-26118000D01*
X22904000Y-26052447D01*
X22904000Y-24620553D01*
X22994372Y-24530181D01*
X23084877Y-24394731D01*
X23147218Y-24244227D01*
X23179000Y-24084452D01*
X23179000Y-23921548D01*
X23147218Y-23761773D01*
X23084877Y-23611269D01*
X22994372Y-23475819D01*
X22879181Y-23360628D01*
X22743731Y-23270123D01*
X22593227Y-23207782D01*
X22433452Y-23176000D01*
X22270548Y-23176000D01*
X22110773Y-23207782D01*
X21960269Y-23270123D01*
X21824819Y-23360628D01*
X21709628Y-23475819D01*
X21619123Y-23611269D01*
X21556782Y-23761773D01*
X21525000Y-23921548D01*
X21525000Y-24084452D01*
X21556782Y-24244227D01*
X21619123Y-24394731D01*
X21709628Y-24530181D01*
X21800001Y-24620554D01*
X21800000Y-26052447D01*
X21709628Y-26142819D01*
X21619123Y-26278269D01*
X21556782Y-26428773D01*
X21525000Y-26588548D01*
X21525000Y-26751452D01*
X21556782Y-26911227D01*
X21619123Y-27061731D01*
X21709628Y-27197181D01*
X21824819Y-27312372D01*
X21960269Y-27402877D01*
X22110773Y-27465218D01*
X22270548Y-27497000D01*
X22433452Y-27497000D01*
X22593227Y-27465218D01*
X22743731Y-27402877D01*
X22879181Y-27312372D01*
X22969553Y-27222000D01*
X25626894Y-27222000D01*
X25654000Y-27224670D01*
X25681106Y-27222000D01*
X26441356Y-27222000D01*
X26880001Y-27660646D01*
X26880000Y-29100447D01*
X26789628Y-29190819D01*
X26699123Y-29326269D01*
X26636782Y-29476773D01*
X26605000Y-29636548D01*
X26605000Y-29799452D01*
X26636782Y-29959227D01*
X26699123Y-30109731D01*
X26789628Y-30245181D01*
X26880001Y-30335554D01*
X26880000Y-30878447D01*
X26789628Y-30968819D01*
X26699123Y-31104269D01*
X26636782Y-31254773D01*
X26605000Y-31414548D01*
X26605000Y-31577452D01*
X26630570Y-31706000D01*
X26009645Y-31706000D01*
X25973000Y-31669355D01*
X25973000Y-31541548D01*
X25941218Y-31381773D01*
X25878877Y-31231269D01*
X25788372Y-31095819D01*
X25673181Y-30980628D01*
X25537731Y-30890123D01*
X25387227Y-30827782D01*
X25227452Y-30796000D01*
X25064548Y-30796000D01*
X24904773Y-30827782D01*
X24754269Y-30890123D01*
X24618819Y-30980628D01*
X24503628Y-31095819D01*
X24413123Y-31231269D01*
X24350782Y-31381773D01*
X24319000Y-31541548D01*
X24319000Y-31704452D01*
X24350782Y-31864227D01*
X24413123Y-32014731D01*
X24503628Y-32150181D01*
X24618819Y-32265372D01*
X24754269Y-32355877D01*
X24904773Y-32418218D01*
X25064548Y-32450000D01*
X25192355Y-32450000D01*
X25371508Y-32629154D01*
X25388789Y-32650211D01*
X25409845Y-32667491D01*
X25409846Y-32667492D01*
X25472842Y-32719191D01*
X25568737Y-32770448D01*
X25672789Y-32802012D01*
X25781000Y-32812670D01*
X25808108Y-32810000D01*
X27785894Y-32810000D01*
X27813000Y-32812670D01*
X27840106Y-32810000D01*
X27840109Y-32810000D01*
X27921211Y-32802012D01*
X28025263Y-32770448D01*
X28121158Y-32719191D01*
X28205211Y-32650211D01*
X28222500Y-32629144D01*
X29692646Y-31159000D01*
X31640447Y-31159000D01*
X31730819Y-31249372D01*
X31866269Y-31339877D01*
X31881266Y-31346089D01*
X31260332Y-31967024D01*
X31119452Y-31939000D01*
X30956548Y-31939000D01*
X30796773Y-31970782D01*
X30646269Y-32033123D01*
X30510819Y-32123628D01*
X30395628Y-32238819D01*
X30305123Y-32374269D01*
X30242782Y-32524773D01*
X30211000Y-32684548D01*
X30211000Y-32847452D01*
X30242782Y-33007227D01*
X30305123Y-33157731D01*
X30395628Y-33293181D01*
X30510819Y-33408372D01*
X30646269Y-33498877D01*
X30796773Y-33561218D01*
X30956548Y-33593000D01*
X31119452Y-33593000D01*
X31279227Y-33561218D01*
X31429731Y-33498877D01*
X31565181Y-33408372D01*
X31680372Y-33293181D01*
X31770877Y-33157731D01*
X31833218Y-33007227D01*
X31846081Y-32942563D01*
X34748296Y-30040350D01*
X34764782Y-30123227D01*
X34827123Y-30273731D01*
X34917628Y-30409181D01*
X34958000Y-30449553D01*
X34958001Y-35310642D01*
X33786645Y-36482000D01*
X32063553Y-36482000D01*
X32023181Y-36441628D01*
X31887731Y-36351123D01*
X31737227Y-36288782D01*
X31577452Y-36257000D01*
X31414548Y-36257000D01*
X31254773Y-36288782D01*
X31104269Y-36351123D01*
X30968819Y-36441628D01*
X30853628Y-36556819D01*
X30763123Y-36692269D01*
X30700782Y-36842773D01*
X30669000Y-37002548D01*
X30669000Y-37165452D01*
X30700782Y-37325227D01*
X30763123Y-37475731D01*
X30853628Y-37611181D01*
X30968819Y-37726372D01*
X31104269Y-37816877D01*
X31254773Y-37879218D01*
X31414548Y-37911000D01*
X31577452Y-37911000D01*
X31737227Y-37879218D01*
X31887731Y-37816877D01*
X32023181Y-37726372D01*
X32063553Y-37686000D01*
X34006444Y-37686000D01*
X34036000Y-37688911D01*
X34065556Y-37686000D01*
X34065566Y-37686000D01*
X34154012Y-37677289D01*
X34267490Y-37642866D01*
X34372071Y-37586966D01*
X34463737Y-37511737D01*
X34482589Y-37488766D01*
X35964777Y-36006580D01*
X35974000Y-35999010D01*
X35974001Y-47502643D01*
X35945645Y-47531000D01*
X28888553Y-47531000D01*
X28848181Y-47490628D01*
X28712731Y-47400123D01*
X28562227Y-47337782D01*
X28402452Y-47306000D01*
X28239548Y-47306000D01*
X28079773Y-47337782D01*
X27929269Y-47400123D01*
X27793819Y-47490628D01*
X27678628Y-47605819D01*
X27588123Y-47741269D01*
X27525782Y-47891773D01*
X27522349Y-47909031D01*
X27509106Y-47892894D01*
X27428933Y-47827098D01*
X27337465Y-47778207D01*
X27238216Y-47748100D01*
X27135000Y-47737934D01*
X26935000Y-47737934D01*
X26831784Y-47748100D01*
X26732535Y-47778207D01*
X26641067Y-47827098D01*
X26587000Y-47871469D01*
X26587000Y-47607553D01*
X26677372Y-47517181D01*
X26767877Y-47381731D01*
X26830218Y-47231227D01*
X26862000Y-47071452D01*
X26862000Y-46998020D01*
X26863123Y-47000731D01*
X26953628Y-47136181D01*
X27068819Y-47251372D01*
X27204269Y-47341877D01*
X27354773Y-47404218D01*
X27514548Y-47436000D01*
X27677452Y-47436000D01*
X27837227Y-47404218D01*
X27987731Y-47341877D01*
X28123181Y-47251372D01*
X28238372Y-47136181D01*
X28328877Y-47000731D01*
X28391218Y-46850227D01*
X28423000Y-46690452D01*
X28423000Y-46562645D01*
X29009655Y-45975991D01*
X29030712Y-45958710D01*
X29099692Y-45874657D01*
X29150949Y-45778762D01*
X29182513Y-45674710D01*
X29190501Y-45593608D01*
X29190501Y-45593606D01*
X29193171Y-45566500D01*
X29190501Y-45539394D01*
X29190501Y-37958207D01*
X29193171Y-37931099D01*
X29182513Y-37822888D01*
X29150949Y-37718836D01*
X29099692Y-37622941D01*
X29047993Y-37559945D01*
X29047992Y-37559944D01*
X29030712Y-37538888D01*
X29009655Y-37521607D01*
X27919372Y-36431325D01*
X27919372Y-36303518D01*
X27887590Y-36143743D01*
X27825249Y-35993239D01*
X27734744Y-35857789D01*
X27619553Y-35742598D01*
X27484103Y-35652093D01*
X27333599Y-35589752D01*
X27173824Y-35557970D01*
X27010920Y-35557970D01*
X26851145Y-35589752D01*
X26700641Y-35652093D01*
X26565191Y-35742598D01*
X26450000Y-35857789D01*
X26359495Y-35993239D01*
X26297154Y-36143743D01*
X26265372Y-36303518D01*
X26265372Y-36466422D01*
X26297154Y-36626197D01*
X26359495Y-36776701D01*
X26450000Y-36912151D01*
X26565191Y-37027342D01*
X26700641Y-37117847D01*
X26851145Y-37180188D01*
X27010920Y-37211970D01*
X27138727Y-37211970D01*
X28086502Y-38159746D01*
X28086501Y-42598711D01*
X27994952Y-42580500D01*
X27832048Y-42580500D01*
X27672273Y-42612282D01*
X27521769Y-42674623D01*
X27386319Y-42765128D01*
X27295947Y-42855500D01*
X25090198Y-42855500D01*
X25063090Y-42852830D01*
X25035981Y-42855500D01*
X24954879Y-42863488D01*
X24850827Y-42895052D01*
X24754932Y-42946309D01*
X24670879Y-43015289D01*
X24653598Y-43036346D01*
X24209936Y-43480009D01*
X24082129Y-43480009D01*
X23989011Y-43498532D01*
X23989011Y-38411450D01*
X24055289Y-38492211D01*
X24076356Y-38509500D01*
X24192000Y-38625145D01*
X24192000Y-38752952D01*
X24223782Y-38912727D01*
X24286123Y-39063231D01*
X24376628Y-39198681D01*
X24491819Y-39313872D01*
X24627269Y-39404377D01*
X24777773Y-39466718D01*
X24937548Y-39498500D01*
X25100452Y-39498500D01*
X25260227Y-39466718D01*
X25410731Y-39404377D01*
X25546181Y-39313872D01*
X25661372Y-39198681D01*
X25751877Y-39063231D01*
X25814218Y-38912727D01*
X25846000Y-38752952D01*
X25846000Y-38590048D01*
X25814218Y-38430273D01*
X25751877Y-38279769D01*
X25661372Y-38144319D01*
X25546181Y-38029128D01*
X25410731Y-37938623D01*
X25260227Y-37876282D01*
X25100452Y-37844500D01*
X24999500Y-37844500D01*
X24999500Y-36812553D01*
X25089872Y-36722181D01*
X25180377Y-36586731D01*
X25242718Y-36436227D01*
X25274500Y-36276452D01*
X25274500Y-36113548D01*
X25242718Y-35953773D01*
X25180377Y-35803269D01*
X25089872Y-35667819D01*
X24974681Y-35552628D01*
X24839231Y-35462123D01*
X24688727Y-35399782D01*
X24528952Y-35368000D01*
X24366048Y-35368000D01*
X24206273Y-35399782D01*
X24055769Y-35462123D01*
X23989011Y-35506729D01*
X23989011Y-33878107D01*
X23991680Y-33851009D01*
X23989011Y-33823911D01*
X23989011Y-33823901D01*
X23981023Y-33742799D01*
X23949459Y-33638747D01*
X23908019Y-33561218D01*
X23898202Y-33542851D01*
X23846502Y-33479855D01*
X23829222Y-33458799D01*
X23808165Y-33441518D01*
X22572906Y-32206260D01*
X22593227Y-32202218D01*
X22743731Y-32139877D01*
X22879181Y-32049372D01*
X22994372Y-31934181D01*
X23084877Y-31798731D01*
X23147218Y-31648227D01*
X23179000Y-31488452D01*
X23179000Y-31325548D01*
X23147218Y-31165773D01*
X23084877Y-31015269D01*
X22994372Y-30879819D01*
X22904000Y-30789447D01*
X22904000Y-30335553D01*
X22994372Y-30245181D01*
X23084877Y-30109731D01*
X23147218Y-29959227D01*
X23179000Y-29799452D01*
X23179000Y-29636548D01*
X23147218Y-29476773D01*
X23084877Y-29326269D01*
X22994372Y-29190819D01*
X22879181Y-29075628D01*
X22743731Y-28985123D01*
X22593227Y-28922782D01*
X22433452Y-28891000D01*
X22380549Y-28891000D01*
X22385218Y-28879727D01*
X22417000Y-28719952D01*
X22417000Y-28557048D01*
X22385218Y-28397273D01*
X22322877Y-28246769D01*
X22232372Y-28111319D01*
X22117181Y-27996128D01*
X21981731Y-27905623D01*
X21831227Y-27843282D01*
X21671452Y-27811500D01*
X21519238Y-27811500D01*
X21528000Y-27767452D01*
X21528000Y-27604548D01*
X21496218Y-27444773D01*
X21433877Y-27294269D01*
X21343372Y-27158819D01*
X21228181Y-27043628D01*
X21092731Y-26953123D01*
X20942227Y-26890782D01*
X20782452Y-26859000D01*
X20619548Y-26859000D01*
X20459773Y-26890782D01*
X20309269Y-26953123D01*
X20173819Y-27043628D01*
X20058628Y-27158819D01*
X19968123Y-27294269D01*
X19905782Y-27444773D01*
X19874000Y-27604548D01*
X19874000Y-27767452D01*
X19905782Y-27927227D01*
X19968123Y-28077731D01*
X20058628Y-28213181D01*
X20149000Y-28303553D01*
X20149000Y-28801894D01*
X20146330Y-28829000D01*
X20148668Y-28852739D01*
X20115773Y-28859282D01*
X19965269Y-28921623D01*
X19829819Y-29012128D01*
X19714628Y-29127319D01*
X19624123Y-29262769D01*
X19561782Y-29413273D01*
X19530000Y-29573048D01*
X19530000Y-29735952D01*
X19561782Y-29895727D01*
X19624123Y-30046231D01*
X19714628Y-30181681D01*
X19805001Y-30272054D01*
X19805000Y-33474394D01*
X19802330Y-33501500D01*
X19805000Y-33528606D01*
X19805000Y-33528608D01*
X19812988Y-33609710D01*
X19844552Y-33713762D01*
X19895809Y-33809658D01*
X19964789Y-33893711D01*
X19985856Y-33911000D01*
X20149001Y-34074145D01*
X20149000Y-35577447D01*
X20058628Y-35667819D01*
X19968123Y-35803269D01*
X19905782Y-35953773D01*
X19874000Y-36113548D01*
X19874000Y-36276452D01*
X19905782Y-36436227D01*
X19968123Y-36586731D01*
X20058628Y-36722181D01*
X20173819Y-36837372D01*
X20309269Y-36927877D01*
X20379247Y-36956863D01*
X20367859Y-36984357D01*
X20338000Y-37134472D01*
X20338000Y-37287528D01*
X20367859Y-37437643D01*
X20426431Y-37579048D01*
X20511464Y-37706309D01*
X20619691Y-37814536D01*
X20746952Y-37899569D01*
X20888357Y-37958141D01*
X21038472Y-37988000D01*
X21191528Y-37988000D01*
X21341643Y-37958141D01*
X21483048Y-37899569D01*
X21610309Y-37814536D01*
X21718536Y-37706309D01*
X21803569Y-37579048D01*
X21862141Y-37437643D01*
X21892000Y-37287528D01*
X21892000Y-37134472D01*
X21862141Y-36984357D01*
X21803569Y-36842952D01*
X21718536Y-36715691D01*
X21610309Y-36607464D01*
X21483048Y-36522431D01*
X21463811Y-36514463D01*
X21496218Y-36436227D01*
X21528000Y-36276452D01*
X21528000Y-36113548D01*
X21496218Y-35953773D01*
X21433877Y-35803269D01*
X21343372Y-35667819D01*
X21253000Y-35577447D01*
X21253000Y-33872597D01*
X21255669Y-33845499D01*
X21253000Y-33818401D01*
X21253000Y-33818391D01*
X21245012Y-33737289D01*
X21213448Y-33633237D01*
X21162191Y-33537342D01*
X21093211Y-33453289D01*
X21072148Y-33436003D01*
X20909000Y-33272856D01*
X20909000Y-32740054D01*
X22435001Y-34266057D01*
X22435000Y-47523894D01*
X22432330Y-47551000D01*
X22435000Y-47578106D01*
X22435000Y-47578108D01*
X22442988Y-47659210D01*
X22474552Y-47763262D01*
X22525809Y-47859158D01*
X22594789Y-47943211D01*
X22615856Y-47960500D01*
X23176000Y-48520645D01*
X23176000Y-48648452D01*
X23207782Y-48808227D01*
X23270123Y-48958731D01*
X23360628Y-49094181D01*
X23475819Y-49209372D01*
X23611269Y-49299877D01*
X23761773Y-49362218D01*
X23921548Y-49394000D01*
X24084452Y-49394000D01*
X24244227Y-49362218D01*
X24394731Y-49299877D01*
X24530181Y-49209372D01*
X24532746Y-49206807D01*
X24560894Y-49241106D01*
X24641067Y-49306902D01*
X24732535Y-49355793D01*
X24831784Y-49385900D01*
X24935000Y-49396066D01*
X25135000Y-49396066D01*
X25238216Y-49385900D01*
X25337465Y-49355793D01*
X25428933Y-49306902D01*
X25509106Y-49241106D01*
X25535000Y-49209554D01*
X25560894Y-49241106D01*
X25641067Y-49306902D01*
X25732535Y-49355793D01*
X25831784Y-49385900D01*
X25935000Y-49396066D01*
X26135000Y-49396066D01*
X26238216Y-49385900D01*
X26337465Y-49355793D01*
X26428933Y-49306902D01*
X26509106Y-49241106D01*
X26535000Y-49209554D01*
X26560894Y-49241106D01*
X26641067Y-49306902D01*
X26732535Y-49355793D01*
X26831784Y-49385900D01*
X26935000Y-49396066D01*
X27135000Y-49396066D01*
X27238216Y-49385900D01*
X27337465Y-49355793D01*
X27428933Y-49306902D01*
X27509106Y-49241106D01*
X27574902Y-49160933D01*
X27623793Y-49069465D01*
X27653900Y-48970216D01*
X27664066Y-48867000D01*
X27664066Y-48638387D01*
X27678628Y-48660181D01*
X27793819Y-48775372D01*
X27929269Y-48865877D01*
X28079773Y-48928218D01*
X28239548Y-48960000D01*
X28402452Y-48960000D01*
X28562227Y-48928218D01*
X28712731Y-48865877D01*
X28848181Y-48775372D01*
X28888553Y-48735000D01*
X36165444Y-48735000D01*
X36195000Y-48737911D01*
X36224556Y-48735000D01*
X36224566Y-48735000D01*
X36313012Y-48726289D01*
X36426490Y-48691866D01*
X36531071Y-48635966D01*
X36622737Y-48560737D01*
X36641588Y-48537767D01*
X36980771Y-48198585D01*
X37003737Y-48179737D01*
X37078966Y-48088071D01*
X37134866Y-47983490D01*
X37169289Y-47870012D01*
X37178000Y-47781566D01*
X37178000Y-47781557D01*
X37180911Y-47752001D01*
X37178000Y-47722444D01*
X37178000Y-42216452D01*
X37240628Y-42310181D01*
X37355819Y-42425372D01*
X37491269Y-42515877D01*
X37641773Y-42578218D01*
X37801548Y-42610000D01*
X37964452Y-42610000D01*
X38124227Y-42578218D01*
X38274731Y-42515877D01*
X38410181Y-42425372D01*
X38500553Y-42335000D01*
X40346934Y-42335000D01*
X40346934Y-43470000D01*
X40355178Y-43553707D01*
X40379595Y-43634196D01*
X40419245Y-43708376D01*
X40472605Y-43773395D01*
X40513770Y-43807179D01*
X40513000Y-43815000D01*
X40513000Y-50933000D01*
X20217551Y-50933000D01*
X19822286Y-50894244D01*
X19465691Y-50786582D01*
X19136800Y-50611707D01*
X18848142Y-50376282D01*
X18610706Y-50089273D01*
X18433539Y-49761609D01*
X18323390Y-49405775D01*
X18282000Y-49011976D01*
X18282000Y-46972048D01*
X19366000Y-46972048D01*
X19366000Y-47134952D01*
X19397782Y-47294727D01*
X19460123Y-47445231D01*
X19550628Y-47580681D01*
X19665819Y-47695872D01*
X19801269Y-47786377D01*
X19951773Y-47848718D01*
X20111548Y-47880500D01*
X20274452Y-47880500D01*
X20434227Y-47848718D01*
X20584731Y-47786377D01*
X20720181Y-47695872D01*
X20835372Y-47580681D01*
X20925877Y-47445231D01*
X20988218Y-47294727D01*
X21020000Y-47134952D01*
X21020000Y-46972048D01*
X20988218Y-46812273D01*
X20925877Y-46661769D01*
X20835372Y-46526319D01*
X20745000Y-46435947D01*
X20745000Y-46393144D01*
X21511144Y-45627002D01*
X21532201Y-45609721D01*
X21601181Y-45525668D01*
X21652438Y-45429773D01*
X21684002Y-45325721D01*
X21691990Y-45244619D01*
X21691990Y-45244617D01*
X21694660Y-45217511D01*
X21691990Y-45190405D01*
X21691990Y-43543553D01*
X21782362Y-43453181D01*
X21872867Y-43317731D01*
X21935208Y-43167227D01*
X21966990Y-43007452D01*
X21966990Y-42844548D01*
X21935208Y-42684773D01*
X21872867Y-42534269D01*
X21782362Y-42398819D01*
X21667171Y-42283628D01*
X21531721Y-42193123D01*
X21381217Y-42130782D01*
X21221442Y-42099000D01*
X21058538Y-42099000D01*
X20898763Y-42130782D01*
X20748259Y-42193123D01*
X20612809Y-42283628D01*
X20497618Y-42398819D01*
X20407113Y-42534269D01*
X20344772Y-42684773D01*
X20312990Y-42844548D01*
X20312990Y-43007452D01*
X20344772Y-43167227D01*
X20407113Y-43317731D01*
X20497618Y-43453181D01*
X20587990Y-43543553D01*
X20587991Y-44988863D01*
X19821852Y-45755004D01*
X19800790Y-45772289D01*
X19770467Y-45809238D01*
X19731809Y-45856343D01*
X19680552Y-45952238D01*
X19648989Y-46056290D01*
X19638330Y-46164500D01*
X19641000Y-46191606D01*
X19641000Y-46435947D01*
X19550628Y-46526319D01*
X19460123Y-46661769D01*
X19397782Y-46812273D01*
X19366000Y-46972048D01*
X18282000Y-46972048D01*
X18282000Y-37976767D01*
X18338472Y-37988000D01*
X18491528Y-37988000D01*
X18641643Y-37958141D01*
X18783048Y-37899569D01*
X18910309Y-37814536D01*
X19018536Y-37706309D01*
X19103569Y-37579048D01*
X19162141Y-37437643D01*
X19192000Y-37287528D01*
X19192000Y-37134472D01*
X19162141Y-36984357D01*
X19103569Y-36842952D01*
X19018536Y-36715691D01*
X18910309Y-36607464D01*
X18783048Y-36522431D01*
X18641643Y-36463859D01*
X18491528Y-36434000D01*
X18338472Y-36434000D01*
X18282000Y-36445233D01*
X18282000Y-23166937D01*
X18317123Y-23251731D01*
X18407628Y-23387181D01*
X18522819Y-23502372D01*
X18658269Y-23592877D01*
X18808773Y-23655218D01*
X18968548Y-23687000D01*
X19131452Y-23687000D01*
X19291227Y-23655218D01*
X19441731Y-23592877D01*
X19577181Y-23502372D01*
X19692372Y-23387181D01*
X19782877Y-23251731D01*
X19845218Y-23101227D01*
X19877000Y-22941452D01*
X19877000Y-22778548D01*
X19845218Y-22618773D01*
X19782877Y-22468269D01*
X19692372Y-22332819D01*
X19602000Y-22242447D01*
X19602000Y-22199644D01*
X20748489Y-21053156D01*
X20880925Y-21079500D01*
X21093075Y-21079500D01*
X21301149Y-21038111D01*
X21497151Y-20956925D01*
X21673547Y-20839060D01*
X21737000Y-20775607D01*
X21800453Y-20839060D01*
X21976849Y-20956925D01*
X22172851Y-21038111D01*
X22380925Y-21079500D01*
X22593075Y-21079500D01*
X22801149Y-21038111D01*
X22997151Y-20956925D01*
X23173547Y-20839060D01*
X23228065Y-20784542D01*
X23235605Y-20792082D01*
X23312330Y-20715357D01*
X23368207Y-20900131D01*
X23555216Y-21003604D01*
X23758818Y-21068605D01*
X23971190Y-21092636D01*
X24184168Y-21074774D01*
X24389570Y-21015705D01*
X24579501Y-20917699D01*
X24605793Y-20900131D01*
X24661671Y-20715355D01*
X23987000Y-20040684D01*
X23972858Y-20054826D01*
X23934674Y-20016642D01*
X23948816Y-20002500D01*
X23934674Y-19988358D01*
X23972858Y-19950174D01*
X23987000Y-19964316D01*
X24001142Y-19950174D01*
X24039326Y-19988358D01*
X24025184Y-20002500D01*
X24699855Y-20677171D01*
X24884631Y-20621293D01*
X24988104Y-20434284D01*
X25053105Y-20230682D01*
X25077136Y-20018310D01*
X25059274Y-19805332D01*
X25000205Y-19599930D01*
X24975473Y-19552000D01*
X25883347Y-19552000D01*
X25908000Y-19554428D01*
G37*
G04 #@! TD.AperFunction*
D18*
X26641067Y-46406902D02*
X26732535Y-46455793D01*
X26780386Y-46470308D01*
X26769000Y-46527548D01*
X26769000Y-46600980D01*
X26767877Y-46598269D01*
X26677372Y-46462819D01*
X26565064Y-46350511D01*
X26567998Y-46346936D01*
X26641067Y-46406902D01*
G04 #@! TA.AperFunction,Conductor*
D19*
G36*
X26641067Y-46406902D02*
G01*
X26732535Y-46455793D01*
X26780386Y-46470308D01*
X26769000Y-46527548D01*
X26769000Y-46600980D01*
X26767877Y-46598269D01*
X26677372Y-46462819D01*
X26565064Y-46350511D01*
X26567998Y-46346936D01*
X26641067Y-46406902D01*
G37*
G04 #@! TD.AperFunction*
D18*
X27386319Y-44049872D02*
X27521769Y-44140377D01*
X27672273Y-44202718D01*
X27832048Y-44234500D01*
X27994952Y-44234500D01*
X28086501Y-44216289D01*
X28086501Y-45337853D01*
X27664066Y-45760289D01*
X27664066Y-45367000D01*
X27653900Y-45263784D01*
X27623793Y-45164535D01*
X27574902Y-45073067D01*
X27509106Y-44992894D01*
X27428933Y-44927098D01*
X27337465Y-44878207D01*
X27238216Y-44848100D01*
X27135000Y-44837934D01*
X26935000Y-44837934D01*
X26831784Y-44848100D01*
X26732535Y-44878207D01*
X26641067Y-44927098D01*
X26567998Y-44987064D01*
X26544080Y-44957920D01*
X26477843Y-44903560D01*
X26402273Y-44863168D01*
X26320275Y-44838294D01*
X26235000Y-44829895D01*
X26170750Y-44832000D01*
X26062000Y-44940750D01*
X26062000Y-45640000D01*
X26082000Y-45640000D01*
X26082000Y-45694000D01*
X26062000Y-45694000D01*
X26062000Y-45714000D01*
X26008000Y-45714000D01*
X26008000Y-45694000D01*
X25988000Y-45694000D01*
X25988000Y-45640000D01*
X26008000Y-45640000D01*
X26008000Y-44940750D01*
X25899250Y-44832000D01*
X25835000Y-44829895D01*
X25749725Y-44838294D01*
X25667727Y-44863168D01*
X25592157Y-44903560D01*
X25525920Y-44957920D01*
X25502002Y-44987064D01*
X25428933Y-44927098D01*
X25337465Y-44878207D01*
X25238216Y-44848100D01*
X25135000Y-44837934D01*
X24935000Y-44837934D01*
X24831784Y-44848100D01*
X24774738Y-44865405D01*
X24805953Y-44834190D01*
X24896458Y-44698740D01*
X24958799Y-44548236D01*
X24990581Y-44388461D01*
X24990581Y-44260654D01*
X25291736Y-43959500D01*
X27295947Y-43959500D01*
X27386319Y-44049872D01*
G04 #@! TA.AperFunction,Conductor*
D19*
G36*
X27386319Y-44049872D02*
G01*
X27521769Y-44140377D01*
X27672273Y-44202718D01*
X27832048Y-44234500D01*
X27994952Y-44234500D01*
X28086501Y-44216289D01*
X28086501Y-45337853D01*
X27664066Y-45760289D01*
X27664066Y-45367000D01*
X27653900Y-45263784D01*
X27623793Y-45164535D01*
X27574902Y-45073067D01*
X27509106Y-44992894D01*
X27428933Y-44927098D01*
X27337465Y-44878207D01*
X27238216Y-44848100D01*
X27135000Y-44837934D01*
X26935000Y-44837934D01*
X26831784Y-44848100D01*
X26732535Y-44878207D01*
X26641067Y-44927098D01*
X26567998Y-44987064D01*
X26544080Y-44957920D01*
X26477843Y-44903560D01*
X26402273Y-44863168D01*
X26320275Y-44838294D01*
X26235000Y-44829895D01*
X26170750Y-44832000D01*
X26062000Y-44940750D01*
X26062000Y-45640000D01*
X26082000Y-45640000D01*
X26082000Y-45694000D01*
X26062000Y-45694000D01*
X26062000Y-45714000D01*
X26008000Y-45714000D01*
X26008000Y-45694000D01*
X25988000Y-45694000D01*
X25988000Y-45640000D01*
X26008000Y-45640000D01*
X26008000Y-44940750D01*
X25899250Y-44832000D01*
X25835000Y-44829895D01*
X25749725Y-44838294D01*
X25667727Y-44863168D01*
X25592157Y-44903560D01*
X25525920Y-44957920D01*
X25502002Y-44987064D01*
X25428933Y-44927098D01*
X25337465Y-44878207D01*
X25238216Y-44848100D01*
X25135000Y-44837934D01*
X24935000Y-44837934D01*
X24831784Y-44848100D01*
X24774738Y-44865405D01*
X24805953Y-44834190D01*
X24896458Y-44698740D01*
X24958799Y-44548236D01*
X24990581Y-44388461D01*
X24990581Y-44260654D01*
X25291736Y-43959500D01*
X27295947Y-43959500D01*
X27386319Y-44049872D01*
G37*
G04 #@! TD.AperFunction*
D18*
X44090155Y-16185600D02*
X44065000Y-16387000D01*
X44065000Y-16737000D01*
X45073000Y-16737000D01*
X45073000Y-16717000D01*
X45127000Y-16717000D01*
X45127000Y-16737000D01*
X46135000Y-16737000D01*
X46135000Y-16387000D01*
X46109845Y-16185600D01*
X46061825Y-16040990D01*
X51385348Y-16040990D01*
X56471001Y-21126645D01*
X56471000Y-25036447D01*
X56380628Y-25126819D01*
X56290123Y-25262269D01*
X56227782Y-25412773D01*
X56196000Y-25572548D01*
X56196000Y-25735452D01*
X56227782Y-25895227D01*
X56290123Y-26045731D01*
X56380628Y-26181181D01*
X56495819Y-26296372D01*
X56631269Y-26386877D01*
X56781773Y-26449218D01*
X56941548Y-26481000D01*
X57104452Y-26481000D01*
X57264227Y-26449218D01*
X57414731Y-26386877D01*
X57550181Y-26296372D01*
X57664000Y-26182553D01*
X57664000Y-27840934D01*
X54776000Y-27840934D01*
X54692293Y-27849178D01*
X54611804Y-27873595D01*
X54537624Y-27913245D01*
X54472605Y-27966605D01*
X54419245Y-28031624D01*
X54379595Y-28105804D01*
X54355178Y-28186293D01*
X54346934Y-28270000D01*
X54346934Y-28318000D01*
X54342108Y-28318000D01*
X54315000Y-28315330D01*
X54287891Y-28318000D01*
X54206789Y-28325988D01*
X54102737Y-28357552D01*
X54006842Y-28408809D01*
X53922789Y-28477789D01*
X53905508Y-28498846D01*
X53476851Y-28927505D01*
X53455790Y-28944789D01*
X53422689Y-28985123D01*
X53386809Y-29028843D01*
X53335552Y-29124738D01*
X53303989Y-29228790D01*
X53293330Y-29337000D01*
X53296001Y-29364116D01*
X53296000Y-38453894D01*
X53293330Y-38481000D01*
X53296000Y-38508106D01*
X53296000Y-38508108D01*
X53303988Y-38589210D01*
X53335552Y-38693262D01*
X53386809Y-38789158D01*
X53455789Y-38873211D01*
X53476856Y-38890500D01*
X53827508Y-39241154D01*
X53844789Y-39262211D01*
X53928842Y-39331191D01*
X54024737Y-39382448D01*
X54128789Y-39414012D01*
X54209891Y-39422000D01*
X54209893Y-39422000D01*
X54236999Y-39424670D01*
X54264105Y-39422000D01*
X54346934Y-39422000D01*
X54346934Y-39470000D01*
X54355178Y-39553707D01*
X54379595Y-39634196D01*
X54419245Y-39708376D01*
X54472605Y-39773395D01*
X54537624Y-39826755D01*
X54611804Y-39866405D01*
X54623655Y-39870000D01*
X54611804Y-39873595D01*
X54537624Y-39913245D01*
X54472605Y-39966605D01*
X54419245Y-40031624D01*
X54379595Y-40105804D01*
X54355178Y-40186293D01*
X54346934Y-40270000D01*
X54346934Y-41470000D01*
X54355178Y-41553707D01*
X54379595Y-41634196D01*
X54419245Y-41708376D01*
X54472605Y-41773395D01*
X54537624Y-41826755D01*
X54611804Y-41866405D01*
X54623655Y-41870000D01*
X54611804Y-41873595D01*
X54537624Y-41913245D01*
X54472605Y-41966605D01*
X54419245Y-42031624D01*
X54379595Y-42105804D01*
X54355178Y-42186293D01*
X54346934Y-42270000D01*
X54346934Y-43470000D01*
X54355178Y-43553707D01*
X54379595Y-43634196D01*
X54408354Y-43688000D01*
X44143646Y-43688000D01*
X44172405Y-43634196D01*
X44196822Y-43553707D01*
X44205066Y-43470000D01*
X44205066Y-42270000D01*
X44196822Y-42186293D01*
X44172405Y-42105804D01*
X44132755Y-42031624D01*
X44079395Y-41966605D01*
X44014376Y-41913245D01*
X43940196Y-41873595D01*
X43928345Y-41870000D01*
X43940196Y-41866405D01*
X44014376Y-41826755D01*
X44079395Y-41773395D01*
X44132755Y-41708376D01*
X44172405Y-41634196D01*
X44196822Y-41553707D01*
X44205066Y-41470000D01*
X44205066Y-40270000D01*
X44196822Y-40186293D01*
X44172405Y-40105804D01*
X44132755Y-40031624D01*
X44079395Y-39966605D01*
X44014376Y-39913245D01*
X43940196Y-39873595D01*
X43928345Y-39870000D01*
X43940196Y-39866405D01*
X44014376Y-39826755D01*
X44079395Y-39773395D01*
X44132755Y-39708376D01*
X44172405Y-39634196D01*
X44196822Y-39553707D01*
X44205066Y-39470000D01*
X44205066Y-38270000D01*
X44196822Y-38186293D01*
X44172405Y-38105804D01*
X44132755Y-38031624D01*
X44079395Y-37966605D01*
X44014376Y-37913245D01*
X43940196Y-37873595D01*
X43928345Y-37870000D01*
X43940196Y-37866405D01*
X44014376Y-37826755D01*
X44079395Y-37773395D01*
X44132755Y-37708376D01*
X44172405Y-37634196D01*
X44196822Y-37553707D01*
X44205066Y-37470000D01*
X44205066Y-36270000D01*
X44196822Y-36186293D01*
X44172405Y-36105804D01*
X44132755Y-36031624D01*
X44079395Y-35966605D01*
X44014376Y-35913245D01*
X43940196Y-35873595D01*
X43928345Y-35870000D01*
X43940196Y-35866405D01*
X44014376Y-35826755D01*
X44079395Y-35773395D01*
X44132755Y-35708376D01*
X44172405Y-35634196D01*
X44196822Y-35553707D01*
X44205066Y-35470000D01*
X44205066Y-34270000D01*
X44196822Y-34186293D01*
X44172405Y-34105804D01*
X44132755Y-34031624D01*
X44079395Y-33966605D01*
X44014376Y-33913245D01*
X43940196Y-33873595D01*
X43928345Y-33870000D01*
X43940196Y-33866405D01*
X44014376Y-33826755D01*
X44079395Y-33773395D01*
X44132755Y-33708376D01*
X44172405Y-33634196D01*
X44196822Y-33553707D01*
X44205066Y-33470000D01*
X44205066Y-32270000D01*
X44196822Y-32186293D01*
X44172405Y-32105804D01*
X44132755Y-32031624D01*
X44079395Y-31966605D01*
X44014376Y-31913245D01*
X43941593Y-31874342D01*
X43943273Y-31873832D01*
X44018843Y-31833440D01*
X44085080Y-31779080D01*
X44139440Y-31712843D01*
X44179832Y-31637273D01*
X44204706Y-31555275D01*
X44213105Y-31470000D01*
X44211000Y-31005750D01*
X44102250Y-30897000D01*
X42303000Y-30897000D01*
X42303000Y-30917000D01*
X42249000Y-30917000D01*
X42249000Y-30897000D01*
X40449750Y-30897000D01*
X40341000Y-31005750D01*
X40338895Y-31470000D01*
X40347294Y-31555275D01*
X40372168Y-31637273D01*
X40412560Y-31712843D01*
X40466920Y-31779080D01*
X40533157Y-31833440D01*
X40608727Y-31873832D01*
X40610407Y-31874342D01*
X40537624Y-31913245D01*
X40472605Y-31966605D01*
X40419245Y-32031624D01*
X40379595Y-32105804D01*
X40355178Y-32186293D01*
X40346934Y-32270000D01*
X40346934Y-33470000D01*
X40355178Y-33553707D01*
X40379595Y-33634196D01*
X40419245Y-33708376D01*
X40472605Y-33773395D01*
X40537624Y-33826755D01*
X40611804Y-33866405D01*
X40623655Y-33870000D01*
X40611804Y-33873595D01*
X40537624Y-33913245D01*
X40472605Y-33966605D01*
X40419245Y-34031624D01*
X40379595Y-34105804D01*
X40355178Y-34186293D01*
X40346934Y-34270000D01*
X40346934Y-35407388D01*
X40266372Y-35286819D01*
X40251000Y-35271447D01*
X40251000Y-29470000D01*
X40338895Y-29470000D01*
X40347294Y-29555275D01*
X40372168Y-29637273D01*
X40412560Y-29712843D01*
X40466920Y-29779080D01*
X40533157Y-29833440D01*
X40601558Y-29870000D01*
X40533157Y-29906560D01*
X40466920Y-29960920D01*
X40412560Y-30027157D01*
X40372168Y-30102727D01*
X40347294Y-30184725D01*
X40338895Y-30270000D01*
X40341000Y-30734250D01*
X40449750Y-30843000D01*
X42249000Y-30843000D01*
X42249000Y-29943750D01*
X42175250Y-29870000D01*
X42249000Y-29796250D01*
X42249000Y-28897000D01*
X42303000Y-28897000D01*
X42303000Y-29796250D01*
X42376750Y-29870000D01*
X42303000Y-29943750D01*
X42303000Y-30843000D01*
X44102250Y-30843000D01*
X44211000Y-30734250D01*
X44213105Y-30270000D01*
X44204706Y-30184725D01*
X44179832Y-30102727D01*
X44139440Y-30027157D01*
X44085080Y-29960920D01*
X44018843Y-29906560D01*
X43950442Y-29870000D01*
X44018843Y-29833440D01*
X44085080Y-29779080D01*
X44139440Y-29712843D01*
X44179832Y-29637273D01*
X44204706Y-29555275D01*
X44213105Y-29470000D01*
X44211000Y-29005750D01*
X44102250Y-28897000D01*
X42303000Y-28897000D01*
X42249000Y-28897000D01*
X40449750Y-28897000D01*
X40341000Y-29005750D01*
X40338895Y-29470000D01*
X40251000Y-29470000D01*
X40251000Y-26789000D01*
X41628610Y-26789000D01*
X41573036Y-26923166D01*
X41541254Y-27082941D01*
X41541254Y-27245845D01*
X41573036Y-27405620D01*
X41635377Y-27556124D01*
X41725882Y-27691574D01*
X41841073Y-27806765D01*
X41882735Y-27834603D01*
X40776000Y-27832895D01*
X40690725Y-27841294D01*
X40608727Y-27866168D01*
X40533157Y-27906560D01*
X40466920Y-27960920D01*
X40412560Y-28027157D01*
X40372168Y-28102727D01*
X40347294Y-28184725D01*
X40338895Y-28270000D01*
X40341000Y-28734250D01*
X40449750Y-28843000D01*
X42249000Y-28843000D01*
X42249000Y-28823000D01*
X42303000Y-28823000D01*
X42303000Y-28843000D01*
X44102250Y-28843000D01*
X44211000Y-28734250D01*
X44213105Y-28270000D01*
X44204706Y-28184725D01*
X44179832Y-28102727D01*
X44139440Y-28027157D01*
X44085080Y-27960920D01*
X44018843Y-27906560D01*
X43943273Y-27866168D01*
X43861275Y-27841294D01*
X43776000Y-27832895D01*
X42854200Y-27834317D01*
X42895435Y-27806765D01*
X42985807Y-27716393D01*
X46722513Y-27716393D01*
X46749619Y-27719063D01*
X46776725Y-27716393D01*
X46776728Y-27716393D01*
X46857830Y-27708405D01*
X46961882Y-27676841D01*
X47057777Y-27625584D01*
X47141830Y-27556604D01*
X47159119Y-27535537D01*
X48213657Y-26481000D01*
X48341464Y-26481000D01*
X48501239Y-26449218D01*
X48651743Y-26386877D01*
X48787193Y-26296372D01*
X48902384Y-26181181D01*
X48992889Y-26045731D01*
X49055230Y-25895227D01*
X49087012Y-25735452D01*
X49087012Y-25572548D01*
X49055230Y-25412773D01*
X48992889Y-25262269D01*
X48902384Y-25126819D01*
X48787193Y-25011628D01*
X48651743Y-24921123D01*
X48501239Y-24858782D01*
X48341464Y-24827000D01*
X48178560Y-24827000D01*
X48018785Y-24858782D01*
X47868281Y-24921123D01*
X47732831Y-25011628D01*
X47617640Y-25126819D01*
X47527135Y-25262269D01*
X47464794Y-25412773D01*
X47433012Y-25572548D01*
X47433012Y-25700355D01*
X46520975Y-26612393D01*
X45905540Y-26612393D01*
X45911501Y-26607501D01*
X45931138Y-26583573D01*
X48808578Y-23706134D01*
X48832501Y-23686501D01*
X48910853Y-23591028D01*
X48969075Y-23482103D01*
X49004927Y-23363913D01*
X49014000Y-23271794D01*
X49017033Y-23241000D01*
X49014000Y-23210206D01*
X49014000Y-19084553D01*
X49029372Y-19069181D01*
X49119877Y-18933731D01*
X49182218Y-18783227D01*
X49214000Y-18623452D01*
X49214000Y-18460548D01*
X49182218Y-18300773D01*
X49119877Y-18150269D01*
X49029372Y-18014819D01*
X48914181Y-17899628D01*
X48778731Y-17809123D01*
X48628227Y-17746782D01*
X48468452Y-17715000D01*
X48305548Y-17715000D01*
X48145773Y-17746782D01*
X47995269Y-17809123D01*
X47859819Y-17899628D01*
X47744628Y-18014819D01*
X47654123Y-18150269D01*
X47591782Y-18300773D01*
X47560000Y-18460548D01*
X47560000Y-18623452D01*
X47591782Y-18783227D01*
X47654123Y-18933731D01*
X47744628Y-19069181D01*
X47760000Y-19084553D01*
X47760001Y-22981287D01*
X45206289Y-25535000D01*
X40251000Y-25535000D01*
X40251000Y-25303794D01*
X40254033Y-25273000D01*
X40241927Y-25150087D01*
X40233476Y-25122229D01*
X40206075Y-25031897D01*
X40147853Y-24922972D01*
X40069501Y-24827499D01*
X40045579Y-24807867D01*
X38546000Y-23308289D01*
X38546000Y-23286548D01*
X38514218Y-23126773D01*
X38451877Y-22976269D01*
X38428846Y-22941801D01*
X38475966Y-22884386D01*
X38531866Y-22779805D01*
X38566289Y-22666327D01*
X38575000Y-22577881D01*
X38575000Y-22577872D01*
X38577911Y-22548316D01*
X38575000Y-22518759D01*
X38575000Y-20499319D01*
X38636656Y-20533563D01*
X38854220Y-20603406D01*
X39081230Y-20629461D01*
X39308961Y-20610729D01*
X39528661Y-20547928D01*
X39731888Y-20443474D01*
X39763102Y-20422618D01*
X39827979Y-20230163D01*
X39100000Y-19502184D01*
X39085858Y-19516326D01*
X39047674Y-19478142D01*
X39061816Y-19464000D01*
X39138184Y-19464000D01*
X39866163Y-20191979D01*
X40058618Y-20127102D01*
X40169563Y-19927344D01*
X40239406Y-19709780D01*
X40265461Y-19482770D01*
X40246729Y-19255039D01*
X40183928Y-19035339D01*
X40079474Y-18832112D01*
X40058618Y-18800898D01*
X39866163Y-18736021D01*
X39138184Y-19464000D01*
X39061816Y-19464000D01*
X39047674Y-19449858D01*
X39085858Y-19411674D01*
X39100000Y-19425816D01*
X39827979Y-18697837D01*
X39763102Y-18505382D01*
X39563344Y-18394437D01*
X39345780Y-18324594D01*
X39118770Y-18298539D01*
X38891039Y-18317271D01*
X38800000Y-18343294D01*
X38800000Y-18333548D01*
X38772557Y-18195585D01*
X40730344Y-18195585D01*
X40730344Y-18358489D01*
X40762126Y-18518264D01*
X40824467Y-18668768D01*
X40914972Y-18804218D01*
X40955345Y-18844591D01*
X40955344Y-19683642D01*
X40952433Y-19713199D01*
X40955344Y-19742755D01*
X40955344Y-19742764D01*
X40964055Y-19831210D01*
X40998478Y-19944688D01*
X41054378Y-20049269D01*
X41129607Y-20140936D01*
X41152578Y-20159788D01*
X44389732Y-23396944D01*
X44389732Y-23454039D01*
X44421514Y-23613814D01*
X44483855Y-23764318D01*
X44574360Y-23899768D01*
X44689551Y-24014959D01*
X44825001Y-24105464D01*
X44975505Y-24167805D01*
X45135280Y-24199587D01*
X45298184Y-24199587D01*
X45457959Y-24167805D01*
X45608463Y-24105464D01*
X45743913Y-24014959D01*
X45859104Y-23899768D01*
X45949609Y-23764318D01*
X46011950Y-23613814D01*
X46043732Y-23454039D01*
X46043732Y-23291135D01*
X46011950Y-23131360D01*
X45949609Y-22980856D01*
X45859104Y-22845406D01*
X45743913Y-22730215D01*
X45608463Y-22639710D01*
X45457959Y-22577369D01*
X45298184Y-22545587D01*
X45241089Y-22545587D01*
X44383087Y-21687585D01*
X44441731Y-21663294D01*
X44577181Y-21572789D01*
X44617553Y-21532417D01*
X44826027Y-21532417D01*
X44855583Y-21535328D01*
X44885139Y-21532417D01*
X44885149Y-21532417D01*
X44973595Y-21523706D01*
X45087073Y-21489283D01*
X45191654Y-21433383D01*
X45226726Y-21404600D01*
X45419147Y-21404600D01*
X45446819Y-21432272D01*
X45582269Y-21522777D01*
X45732773Y-21585118D01*
X45892548Y-21616900D01*
X46055452Y-21616900D01*
X46215227Y-21585118D01*
X46365731Y-21522777D01*
X46501181Y-21432272D01*
X46616372Y-21317081D01*
X46706877Y-21181631D01*
X46769218Y-21031127D01*
X46801000Y-20871352D01*
X46801000Y-20708448D01*
X46769218Y-20548673D01*
X46706877Y-20398169D01*
X46616372Y-20262719D01*
X46501181Y-20147528D01*
X46365731Y-20057023D01*
X46215227Y-19994682D01*
X46055452Y-19962900D01*
X45892548Y-19962900D01*
X45732773Y-19994682D01*
X45582269Y-20057023D01*
X45446819Y-20147528D01*
X45393747Y-20200600D01*
X45012959Y-20200600D01*
X44983400Y-20197689D01*
X44953841Y-20200600D01*
X44953834Y-20200600D01*
X44881874Y-20207688D01*
X44866164Y-20191978D01*
X45058618Y-20127102D01*
X45169563Y-19927344D01*
X45239406Y-19709780D01*
X45265461Y-19482770D01*
X45246729Y-19255039D01*
X45183928Y-19035339D01*
X45079474Y-18832112D01*
X45058618Y-18800898D01*
X44866163Y-18736021D01*
X44138184Y-19464000D01*
X44152326Y-19478142D01*
X44114142Y-19516326D01*
X44100000Y-19502184D01*
X43372021Y-20230163D01*
X43424632Y-20386232D01*
X43407628Y-20403236D01*
X43317123Y-20538686D01*
X43292831Y-20597331D01*
X42159344Y-19463844D01*
X42159344Y-19445230D01*
X42934539Y-19445230D01*
X42953271Y-19672961D01*
X43016072Y-19892661D01*
X43120526Y-20095888D01*
X43141382Y-20127102D01*
X43333837Y-20191979D01*
X44061816Y-19464000D01*
X43333837Y-18736021D01*
X43141382Y-18800898D01*
X43030437Y-19000656D01*
X42960594Y-19218220D01*
X42934539Y-19445230D01*
X42159344Y-19445230D01*
X42159344Y-18844590D01*
X42199716Y-18804218D01*
X42270797Y-18697837D01*
X43372021Y-18697837D01*
X44100000Y-19425816D01*
X44827979Y-18697837D01*
X44763102Y-18505382D01*
X44563344Y-18394437D01*
X44345780Y-18324594D01*
X44118770Y-18298539D01*
X43891039Y-18317271D01*
X43671339Y-18380072D01*
X43468112Y-18484526D01*
X43436898Y-18505382D01*
X43372021Y-18697837D01*
X42270797Y-18697837D01*
X42290221Y-18668768D01*
X42352562Y-18518264D01*
X42384344Y-18358489D01*
X42384344Y-18195585D01*
X42352562Y-18035810D01*
X42290221Y-17885306D01*
X42199716Y-17749856D01*
X42084525Y-17634665D01*
X41949075Y-17544160D01*
X41798571Y-17481819D01*
X41638796Y-17450037D01*
X41475892Y-17450037D01*
X41316117Y-17481819D01*
X41165613Y-17544160D01*
X41030163Y-17634665D01*
X40914972Y-17749856D01*
X40824467Y-17885306D01*
X40762126Y-18035810D01*
X40730344Y-18195585D01*
X38772557Y-18195585D01*
X38768218Y-18173773D01*
X38705877Y-18023269D01*
X38672828Y-17973808D01*
X38812763Y-17864947D01*
X38945570Y-17711465D01*
X39045882Y-17535022D01*
X39109845Y-17342400D01*
X39135000Y-17141000D01*
X39135000Y-16791000D01*
X44065000Y-16791000D01*
X44065000Y-17141000D01*
X44090155Y-17342400D01*
X44154118Y-17535022D01*
X44254430Y-17711465D01*
X44387237Y-17864947D01*
X44547435Y-17989571D01*
X44728868Y-18080547D01*
X44911478Y-18131686D01*
X45073000Y-18039856D01*
X45073000Y-16791000D01*
X45127000Y-16791000D01*
X45127000Y-18039856D01*
X45288522Y-18131686D01*
X45471132Y-18080547D01*
X45652565Y-17989571D01*
X45812763Y-17864947D01*
X45945570Y-17711465D01*
X46045882Y-17535022D01*
X46109845Y-17342400D01*
X46135000Y-17141000D01*
X46135000Y-16791000D01*
X45127000Y-16791000D01*
X45073000Y-16791000D01*
X44065000Y-16791000D01*
X39135000Y-16791000D01*
X38127000Y-16791000D01*
X38127000Y-16811000D01*
X38073000Y-16811000D01*
X38073000Y-16791000D01*
X38053000Y-16791000D01*
X38053000Y-16737000D01*
X38073000Y-16737000D01*
X38073000Y-16717000D01*
X38127000Y-16717000D01*
X38127000Y-16737000D01*
X39135000Y-16737000D01*
X39135000Y-16387000D01*
X39109845Y-16185600D01*
X39061825Y-16040990D01*
X44138175Y-16040990D01*
X44090155Y-16185600D01*
G04 #@! TA.AperFunction,Conductor*
D19*
G36*
X44090155Y-16185600D02*
G01*
X44065000Y-16387000D01*
X44065000Y-16737000D01*
X45073000Y-16737000D01*
X45073000Y-16717000D01*
X45127000Y-16717000D01*
X45127000Y-16737000D01*
X46135000Y-16737000D01*
X46135000Y-16387000D01*
X46109845Y-16185600D01*
X46061825Y-16040990D01*
X51385348Y-16040990D01*
X56471001Y-21126645D01*
X56471000Y-25036447D01*
X56380628Y-25126819D01*
X56290123Y-25262269D01*
X56227782Y-25412773D01*
X56196000Y-25572548D01*
X56196000Y-25735452D01*
X56227782Y-25895227D01*
X56290123Y-26045731D01*
X56380628Y-26181181D01*
X56495819Y-26296372D01*
X56631269Y-26386877D01*
X56781773Y-26449218D01*
X56941548Y-26481000D01*
X57104452Y-26481000D01*
X57264227Y-26449218D01*
X57414731Y-26386877D01*
X57550181Y-26296372D01*
X57664000Y-26182553D01*
X57664000Y-27840934D01*
X54776000Y-27840934D01*
X54692293Y-27849178D01*
X54611804Y-27873595D01*
X54537624Y-27913245D01*
X54472605Y-27966605D01*
X54419245Y-28031624D01*
X54379595Y-28105804D01*
X54355178Y-28186293D01*
X54346934Y-28270000D01*
X54346934Y-28318000D01*
X54342108Y-28318000D01*
X54315000Y-28315330D01*
X54287891Y-28318000D01*
X54206789Y-28325988D01*
X54102737Y-28357552D01*
X54006842Y-28408809D01*
X53922789Y-28477789D01*
X53905508Y-28498846D01*
X53476851Y-28927505D01*
X53455790Y-28944789D01*
X53422689Y-28985123D01*
X53386809Y-29028843D01*
X53335552Y-29124738D01*
X53303989Y-29228790D01*
X53293330Y-29337000D01*
X53296001Y-29364116D01*
X53296000Y-38453894D01*
X53293330Y-38481000D01*
X53296000Y-38508106D01*
X53296000Y-38508108D01*
X53303988Y-38589210D01*
X53335552Y-38693262D01*
X53386809Y-38789158D01*
X53455789Y-38873211D01*
X53476856Y-38890500D01*
X53827508Y-39241154D01*
X53844789Y-39262211D01*
X53928842Y-39331191D01*
X54024737Y-39382448D01*
X54128789Y-39414012D01*
X54209891Y-39422000D01*
X54209893Y-39422000D01*
X54236999Y-39424670D01*
X54264105Y-39422000D01*
X54346934Y-39422000D01*
X54346934Y-39470000D01*
X54355178Y-39553707D01*
X54379595Y-39634196D01*
X54419245Y-39708376D01*
X54472605Y-39773395D01*
X54537624Y-39826755D01*
X54611804Y-39866405D01*
X54623655Y-39870000D01*
X54611804Y-39873595D01*
X54537624Y-39913245D01*
X54472605Y-39966605D01*
X54419245Y-40031624D01*
X54379595Y-40105804D01*
X54355178Y-40186293D01*
X54346934Y-40270000D01*
X54346934Y-41470000D01*
X54355178Y-41553707D01*
X54379595Y-41634196D01*
X54419245Y-41708376D01*
X54472605Y-41773395D01*
X54537624Y-41826755D01*
X54611804Y-41866405D01*
X54623655Y-41870000D01*
X54611804Y-41873595D01*
X54537624Y-41913245D01*
X54472605Y-41966605D01*
X54419245Y-42031624D01*
X54379595Y-42105804D01*
X54355178Y-42186293D01*
X54346934Y-42270000D01*
X54346934Y-43470000D01*
X54355178Y-43553707D01*
X54379595Y-43634196D01*
X54408354Y-43688000D01*
X44143646Y-43688000D01*
X44172405Y-43634196D01*
X44196822Y-43553707D01*
X44205066Y-43470000D01*
X44205066Y-42270000D01*
X44196822Y-42186293D01*
X44172405Y-42105804D01*
X44132755Y-42031624D01*
X44079395Y-41966605D01*
X44014376Y-41913245D01*
X43940196Y-41873595D01*
X43928345Y-41870000D01*
X43940196Y-41866405D01*
X44014376Y-41826755D01*
X44079395Y-41773395D01*
X44132755Y-41708376D01*
X44172405Y-41634196D01*
X44196822Y-41553707D01*
X44205066Y-41470000D01*
X44205066Y-40270000D01*
X44196822Y-40186293D01*
X44172405Y-40105804D01*
X44132755Y-40031624D01*
X44079395Y-39966605D01*
X44014376Y-39913245D01*
X43940196Y-39873595D01*
X43928345Y-39870000D01*
X43940196Y-39866405D01*
X44014376Y-39826755D01*
X44079395Y-39773395D01*
X44132755Y-39708376D01*
X44172405Y-39634196D01*
X44196822Y-39553707D01*
X44205066Y-39470000D01*
X44205066Y-38270000D01*
X44196822Y-38186293D01*
X44172405Y-38105804D01*
X44132755Y-38031624D01*
X44079395Y-37966605D01*
X44014376Y-37913245D01*
X43940196Y-37873595D01*
X43928345Y-37870000D01*
X43940196Y-37866405D01*
X44014376Y-37826755D01*
X44079395Y-37773395D01*
X44132755Y-37708376D01*
X44172405Y-37634196D01*
X44196822Y-37553707D01*
X44205066Y-37470000D01*
X44205066Y-36270000D01*
X44196822Y-36186293D01*
X44172405Y-36105804D01*
X44132755Y-36031624D01*
X44079395Y-35966605D01*
X44014376Y-35913245D01*
X43940196Y-35873595D01*
X43928345Y-35870000D01*
X43940196Y-35866405D01*
X44014376Y-35826755D01*
X44079395Y-35773395D01*
X44132755Y-35708376D01*
X44172405Y-35634196D01*
X44196822Y-35553707D01*
X44205066Y-35470000D01*
X44205066Y-34270000D01*
X44196822Y-34186293D01*
X44172405Y-34105804D01*
X44132755Y-34031624D01*
X44079395Y-33966605D01*
X44014376Y-33913245D01*
X43940196Y-33873595D01*
X43928345Y-33870000D01*
X43940196Y-33866405D01*
X44014376Y-33826755D01*
X44079395Y-33773395D01*
X44132755Y-33708376D01*
X44172405Y-33634196D01*
X44196822Y-33553707D01*
X44205066Y-33470000D01*
X44205066Y-32270000D01*
X44196822Y-32186293D01*
X44172405Y-32105804D01*
X44132755Y-32031624D01*
X44079395Y-31966605D01*
X44014376Y-31913245D01*
X43941593Y-31874342D01*
X43943273Y-31873832D01*
X44018843Y-31833440D01*
X44085080Y-31779080D01*
X44139440Y-31712843D01*
X44179832Y-31637273D01*
X44204706Y-31555275D01*
X44213105Y-31470000D01*
X44211000Y-31005750D01*
X44102250Y-30897000D01*
X42303000Y-30897000D01*
X42303000Y-30917000D01*
X42249000Y-30917000D01*
X42249000Y-30897000D01*
X40449750Y-30897000D01*
X40341000Y-31005750D01*
X40338895Y-31470000D01*
X40347294Y-31555275D01*
X40372168Y-31637273D01*
X40412560Y-31712843D01*
X40466920Y-31779080D01*
X40533157Y-31833440D01*
X40608727Y-31873832D01*
X40610407Y-31874342D01*
X40537624Y-31913245D01*
X40472605Y-31966605D01*
X40419245Y-32031624D01*
X40379595Y-32105804D01*
X40355178Y-32186293D01*
X40346934Y-32270000D01*
X40346934Y-33470000D01*
X40355178Y-33553707D01*
X40379595Y-33634196D01*
X40419245Y-33708376D01*
X40472605Y-33773395D01*
X40537624Y-33826755D01*
X40611804Y-33866405D01*
X40623655Y-33870000D01*
X40611804Y-33873595D01*
X40537624Y-33913245D01*
X40472605Y-33966605D01*
X40419245Y-34031624D01*
X40379595Y-34105804D01*
X40355178Y-34186293D01*
X40346934Y-34270000D01*
X40346934Y-35407388D01*
X40266372Y-35286819D01*
X40251000Y-35271447D01*
X40251000Y-29470000D01*
X40338895Y-29470000D01*
X40347294Y-29555275D01*
X40372168Y-29637273D01*
X40412560Y-29712843D01*
X40466920Y-29779080D01*
X40533157Y-29833440D01*
X40601558Y-29870000D01*
X40533157Y-29906560D01*
X40466920Y-29960920D01*
X40412560Y-30027157D01*
X40372168Y-30102727D01*
X40347294Y-30184725D01*
X40338895Y-30270000D01*
X40341000Y-30734250D01*
X40449750Y-30843000D01*
X42249000Y-30843000D01*
X42249000Y-29943750D01*
X42175250Y-29870000D01*
X42249000Y-29796250D01*
X42249000Y-28897000D01*
X42303000Y-28897000D01*
X42303000Y-29796250D01*
X42376750Y-29870000D01*
X42303000Y-29943750D01*
X42303000Y-30843000D01*
X44102250Y-30843000D01*
X44211000Y-30734250D01*
X44213105Y-30270000D01*
X44204706Y-30184725D01*
X44179832Y-30102727D01*
X44139440Y-30027157D01*
X44085080Y-29960920D01*
X44018843Y-29906560D01*
X43950442Y-29870000D01*
X44018843Y-29833440D01*
X44085080Y-29779080D01*
X44139440Y-29712843D01*
X44179832Y-29637273D01*
X44204706Y-29555275D01*
X44213105Y-29470000D01*
X44211000Y-29005750D01*
X44102250Y-28897000D01*
X42303000Y-28897000D01*
X42249000Y-28897000D01*
X40449750Y-28897000D01*
X40341000Y-29005750D01*
X40338895Y-29470000D01*
X40251000Y-29470000D01*
X40251000Y-26789000D01*
X41628610Y-26789000D01*
X41573036Y-26923166D01*
X41541254Y-27082941D01*
X41541254Y-27245845D01*
X41573036Y-27405620D01*
X41635377Y-27556124D01*
X41725882Y-27691574D01*
X41841073Y-27806765D01*
X41882735Y-27834603D01*
X40776000Y-27832895D01*
X40690725Y-27841294D01*
X40608727Y-27866168D01*
X40533157Y-27906560D01*
X40466920Y-27960920D01*
X40412560Y-28027157D01*
X40372168Y-28102727D01*
X40347294Y-28184725D01*
X40338895Y-28270000D01*
X40341000Y-28734250D01*
X40449750Y-28843000D01*
X42249000Y-28843000D01*
X42249000Y-28823000D01*
X42303000Y-28823000D01*
X42303000Y-28843000D01*
X44102250Y-28843000D01*
X44211000Y-28734250D01*
X44213105Y-28270000D01*
X44204706Y-28184725D01*
X44179832Y-28102727D01*
X44139440Y-28027157D01*
X44085080Y-27960920D01*
X44018843Y-27906560D01*
X43943273Y-27866168D01*
X43861275Y-27841294D01*
X43776000Y-27832895D01*
X42854200Y-27834317D01*
X42895435Y-27806765D01*
X42985807Y-27716393D01*
X46722513Y-27716393D01*
X46749619Y-27719063D01*
X46776725Y-27716393D01*
X46776728Y-27716393D01*
X46857830Y-27708405D01*
X46961882Y-27676841D01*
X47057777Y-27625584D01*
X47141830Y-27556604D01*
X47159119Y-27535537D01*
X48213657Y-26481000D01*
X48341464Y-26481000D01*
X48501239Y-26449218D01*
X48651743Y-26386877D01*
X48787193Y-26296372D01*
X48902384Y-26181181D01*
X48992889Y-26045731D01*
X49055230Y-25895227D01*
X49087012Y-25735452D01*
X49087012Y-25572548D01*
X49055230Y-25412773D01*
X48992889Y-25262269D01*
X48902384Y-25126819D01*
X48787193Y-25011628D01*
X48651743Y-24921123D01*
X48501239Y-24858782D01*
X48341464Y-24827000D01*
X48178560Y-24827000D01*
X48018785Y-24858782D01*
X47868281Y-24921123D01*
X47732831Y-25011628D01*
X47617640Y-25126819D01*
X47527135Y-25262269D01*
X47464794Y-25412773D01*
X47433012Y-25572548D01*
X47433012Y-25700355D01*
X46520975Y-26612393D01*
X45905540Y-26612393D01*
X45911501Y-26607501D01*
X45931138Y-26583573D01*
X48808578Y-23706134D01*
X48832501Y-23686501D01*
X48910853Y-23591028D01*
X48969075Y-23482103D01*
X49004927Y-23363913D01*
X49014000Y-23271794D01*
X49017033Y-23241000D01*
X49014000Y-23210206D01*
X49014000Y-19084553D01*
X49029372Y-19069181D01*
X49119877Y-18933731D01*
X49182218Y-18783227D01*
X49214000Y-18623452D01*
X49214000Y-18460548D01*
X49182218Y-18300773D01*
X49119877Y-18150269D01*
X49029372Y-18014819D01*
X48914181Y-17899628D01*
X48778731Y-17809123D01*
X48628227Y-17746782D01*
X48468452Y-17715000D01*
X48305548Y-17715000D01*
X48145773Y-17746782D01*
X47995269Y-17809123D01*
X47859819Y-17899628D01*
X47744628Y-18014819D01*
X47654123Y-18150269D01*
X47591782Y-18300773D01*
X47560000Y-18460548D01*
X47560000Y-18623452D01*
X47591782Y-18783227D01*
X47654123Y-18933731D01*
X47744628Y-19069181D01*
X47760000Y-19084553D01*
X47760001Y-22981287D01*
X45206289Y-25535000D01*
X40251000Y-25535000D01*
X40251000Y-25303794D01*
X40254033Y-25273000D01*
X40241927Y-25150087D01*
X40233476Y-25122229D01*
X40206075Y-25031897D01*
X40147853Y-24922972D01*
X40069501Y-24827499D01*
X40045579Y-24807867D01*
X38546000Y-23308289D01*
X38546000Y-23286548D01*
X38514218Y-23126773D01*
X38451877Y-22976269D01*
X38428846Y-22941801D01*
X38475966Y-22884386D01*
X38531866Y-22779805D01*
X38566289Y-22666327D01*
X38575000Y-22577881D01*
X38575000Y-22577872D01*
X38577911Y-22548316D01*
X38575000Y-22518759D01*
X38575000Y-20499319D01*
X38636656Y-20533563D01*
X38854220Y-20603406D01*
X39081230Y-20629461D01*
X39308961Y-20610729D01*
X39528661Y-20547928D01*
X39731888Y-20443474D01*
X39763102Y-20422618D01*
X39827979Y-20230163D01*
X39100000Y-19502184D01*
X39085858Y-19516326D01*
X39047674Y-19478142D01*
X39061816Y-19464000D01*
X39138184Y-19464000D01*
X39866163Y-20191979D01*
X40058618Y-20127102D01*
X40169563Y-19927344D01*
X40239406Y-19709780D01*
X40265461Y-19482770D01*
X40246729Y-19255039D01*
X40183928Y-19035339D01*
X40079474Y-18832112D01*
X40058618Y-18800898D01*
X39866163Y-18736021D01*
X39138184Y-19464000D01*
X39061816Y-19464000D01*
X39047674Y-19449858D01*
X39085858Y-19411674D01*
X39100000Y-19425816D01*
X39827979Y-18697837D01*
X39763102Y-18505382D01*
X39563344Y-18394437D01*
X39345780Y-18324594D01*
X39118770Y-18298539D01*
X38891039Y-18317271D01*
X38800000Y-18343294D01*
X38800000Y-18333548D01*
X38772557Y-18195585D01*
X40730344Y-18195585D01*
X40730344Y-18358489D01*
X40762126Y-18518264D01*
X40824467Y-18668768D01*
X40914972Y-18804218D01*
X40955345Y-18844591D01*
X40955344Y-19683642D01*
X40952433Y-19713199D01*
X40955344Y-19742755D01*
X40955344Y-19742764D01*
X40964055Y-19831210D01*
X40998478Y-19944688D01*
X41054378Y-20049269D01*
X41129607Y-20140936D01*
X41152578Y-20159788D01*
X44389732Y-23396944D01*
X44389732Y-23454039D01*
X44421514Y-23613814D01*
X44483855Y-23764318D01*
X44574360Y-23899768D01*
X44689551Y-24014959D01*
X44825001Y-24105464D01*
X44975505Y-24167805D01*
X45135280Y-24199587D01*
X45298184Y-24199587D01*
X45457959Y-24167805D01*
X45608463Y-24105464D01*
X45743913Y-24014959D01*
X45859104Y-23899768D01*
X45949609Y-23764318D01*
X46011950Y-23613814D01*
X46043732Y-23454039D01*
X46043732Y-23291135D01*
X46011950Y-23131360D01*
X45949609Y-22980856D01*
X45859104Y-22845406D01*
X45743913Y-22730215D01*
X45608463Y-22639710D01*
X45457959Y-22577369D01*
X45298184Y-22545587D01*
X45241089Y-22545587D01*
X44383087Y-21687585D01*
X44441731Y-21663294D01*
X44577181Y-21572789D01*
X44617553Y-21532417D01*
X44826027Y-21532417D01*
X44855583Y-21535328D01*
X44885139Y-21532417D01*
X44885149Y-21532417D01*
X44973595Y-21523706D01*
X45087073Y-21489283D01*
X45191654Y-21433383D01*
X45226726Y-21404600D01*
X45419147Y-21404600D01*
X45446819Y-21432272D01*
X45582269Y-21522777D01*
X45732773Y-21585118D01*
X45892548Y-21616900D01*
X46055452Y-21616900D01*
X46215227Y-21585118D01*
X46365731Y-21522777D01*
X46501181Y-21432272D01*
X46616372Y-21317081D01*
X46706877Y-21181631D01*
X46769218Y-21031127D01*
X46801000Y-20871352D01*
X46801000Y-20708448D01*
X46769218Y-20548673D01*
X46706877Y-20398169D01*
X46616372Y-20262719D01*
X46501181Y-20147528D01*
X46365731Y-20057023D01*
X46215227Y-19994682D01*
X46055452Y-19962900D01*
X45892548Y-19962900D01*
X45732773Y-19994682D01*
X45582269Y-20057023D01*
X45446819Y-20147528D01*
X45393747Y-20200600D01*
X45012959Y-20200600D01*
X44983400Y-20197689D01*
X44953841Y-20200600D01*
X44953834Y-20200600D01*
X44881874Y-20207688D01*
X44866164Y-20191978D01*
X45058618Y-20127102D01*
X45169563Y-19927344D01*
X45239406Y-19709780D01*
X45265461Y-19482770D01*
X45246729Y-19255039D01*
X45183928Y-19035339D01*
X45079474Y-18832112D01*
X45058618Y-18800898D01*
X44866163Y-18736021D01*
X44138184Y-19464000D01*
X44152326Y-19478142D01*
X44114142Y-19516326D01*
X44100000Y-19502184D01*
X43372021Y-20230163D01*
X43424632Y-20386232D01*
X43407628Y-20403236D01*
X43317123Y-20538686D01*
X43292831Y-20597331D01*
X42159344Y-19463844D01*
X42159344Y-19445230D01*
X42934539Y-19445230D01*
X42953271Y-19672961D01*
X43016072Y-19892661D01*
X43120526Y-20095888D01*
X43141382Y-20127102D01*
X43333837Y-20191979D01*
X44061816Y-19464000D01*
X43333837Y-18736021D01*
X43141382Y-18800898D01*
X43030437Y-19000656D01*
X42960594Y-19218220D01*
X42934539Y-19445230D01*
X42159344Y-19445230D01*
X42159344Y-18844590D01*
X42199716Y-18804218D01*
X42270797Y-18697837D01*
X43372021Y-18697837D01*
X44100000Y-19425816D01*
X44827979Y-18697837D01*
X44763102Y-18505382D01*
X44563344Y-18394437D01*
X44345780Y-18324594D01*
X44118770Y-18298539D01*
X43891039Y-18317271D01*
X43671339Y-18380072D01*
X43468112Y-18484526D01*
X43436898Y-18505382D01*
X43372021Y-18697837D01*
X42270797Y-18697837D01*
X42290221Y-18668768D01*
X42352562Y-18518264D01*
X42384344Y-18358489D01*
X42384344Y-18195585D01*
X42352562Y-18035810D01*
X42290221Y-17885306D01*
X42199716Y-17749856D01*
X42084525Y-17634665D01*
X41949075Y-17544160D01*
X41798571Y-17481819D01*
X41638796Y-17450037D01*
X41475892Y-17450037D01*
X41316117Y-17481819D01*
X41165613Y-17544160D01*
X41030163Y-17634665D01*
X40914972Y-17749856D01*
X40824467Y-17885306D01*
X40762126Y-18035810D01*
X40730344Y-18195585D01*
X38772557Y-18195585D01*
X38768218Y-18173773D01*
X38705877Y-18023269D01*
X38672828Y-17973808D01*
X38812763Y-17864947D01*
X38945570Y-17711465D01*
X39045882Y-17535022D01*
X39109845Y-17342400D01*
X39135000Y-17141000D01*
X39135000Y-16791000D01*
X44065000Y-16791000D01*
X44065000Y-17141000D01*
X44090155Y-17342400D01*
X44154118Y-17535022D01*
X44254430Y-17711465D01*
X44387237Y-17864947D01*
X44547435Y-17989571D01*
X44728868Y-18080547D01*
X44911478Y-18131686D01*
X45073000Y-18039856D01*
X45073000Y-16791000D01*
X45127000Y-16791000D01*
X45127000Y-18039856D01*
X45288522Y-18131686D01*
X45471132Y-18080547D01*
X45652565Y-17989571D01*
X45812763Y-17864947D01*
X45945570Y-17711465D01*
X46045882Y-17535022D01*
X46109845Y-17342400D01*
X46135000Y-17141000D01*
X46135000Y-16791000D01*
X45127000Y-16791000D01*
X45073000Y-16791000D01*
X44065000Y-16791000D01*
X39135000Y-16791000D01*
X38127000Y-16791000D01*
X38127000Y-16811000D01*
X38073000Y-16811000D01*
X38073000Y-16791000D01*
X38053000Y-16791000D01*
X38053000Y-16737000D01*
X38073000Y-16737000D01*
X38073000Y-16717000D01*
X38127000Y-16717000D01*
X38127000Y-16737000D01*
X39135000Y-16737000D01*
X39135000Y-16387000D01*
X39109845Y-16185600D01*
X39061825Y-16040990D01*
X44138175Y-16040990D01*
X44090155Y-16185600D01*
G37*
G04 #@! TD.AperFunction*
D18*
X37146000Y-18439356D02*
X37146000Y-18496452D01*
X37177782Y-18656227D01*
X37240123Y-18806731D01*
X37330628Y-18942181D01*
X37371001Y-18982554D01*
X37371000Y-22298960D01*
X37314229Y-22355731D01*
X37291264Y-22374578D01*
X37216035Y-22466244D01*
X37160134Y-22570825D01*
X37125711Y-22684303D01*
X37117000Y-22772749D01*
X37117000Y-22772759D01*
X37114089Y-22802315D01*
X37114183Y-22803264D01*
X37076628Y-22840819D01*
X36986123Y-22976269D01*
X36923782Y-23126773D01*
X36892000Y-23286548D01*
X36892000Y-23449452D01*
X36923782Y-23609227D01*
X36986123Y-23759731D01*
X37076628Y-23895181D01*
X37191819Y-24010372D01*
X37327269Y-24100877D01*
X37477773Y-24163218D01*
X37637548Y-24195000D01*
X37659289Y-24195000D01*
X38997000Y-25532712D01*
X38997000Y-26131205D01*
X38993967Y-26162000D01*
X38997000Y-26192795D01*
X38997000Y-27338000D01*
X36605566Y-27338000D01*
X36576000Y-27335088D01*
X36546434Y-27338000D01*
X34827556Y-27338000D01*
X34798000Y-27335089D01*
X34768443Y-27338000D01*
X34768434Y-27338000D01*
X34679988Y-27346711D01*
X34566510Y-27381134D01*
X34461929Y-27437034D01*
X34370263Y-27512263D01*
X34351416Y-27535228D01*
X32770645Y-29116000D01*
X27999553Y-29116000D01*
X27984000Y-29100447D01*
X27984000Y-27459108D01*
X27986670Y-27432000D01*
X27976012Y-27323789D01*
X27944448Y-27219737D01*
X27897054Y-27131069D01*
X27951357Y-27185372D01*
X28086807Y-27275877D01*
X28237311Y-27338218D01*
X28397086Y-27370000D01*
X28559990Y-27370000D01*
X28719765Y-27338218D01*
X28870269Y-27275877D01*
X29005719Y-27185372D01*
X29046091Y-27145000D01*
X34641444Y-27145000D01*
X34671000Y-27147911D01*
X34700556Y-27145000D01*
X34700566Y-27145000D01*
X34789012Y-27136289D01*
X34902490Y-27101866D01*
X35007071Y-27045966D01*
X35098737Y-26970737D01*
X35117588Y-26947767D01*
X36040778Y-26024579D01*
X36063737Y-26005737D01*
X36082580Y-25982777D01*
X36082584Y-25982773D01*
X36134748Y-25919211D01*
X36138966Y-25914071D01*
X36194866Y-25809490D01*
X36229289Y-25696012D01*
X36238000Y-25607566D01*
X36238000Y-25607557D01*
X36240911Y-25578001D01*
X36238000Y-25548444D01*
X36238000Y-22232191D01*
X36247723Y-22235140D01*
X36348500Y-22245066D01*
X36523500Y-22245066D01*
X36624277Y-22235140D01*
X36721181Y-22205745D01*
X36810489Y-22158009D01*
X36888767Y-22093767D01*
X36953009Y-22015489D01*
X37000745Y-21926181D01*
X37030140Y-21829277D01*
X37040066Y-21728500D01*
X37040066Y-20803500D01*
X37030140Y-20702723D01*
X37000745Y-20605819D01*
X36953009Y-20516511D01*
X36888767Y-20438233D01*
X36810489Y-20373991D01*
X36721181Y-20326255D01*
X36624277Y-20296860D01*
X36523500Y-20286934D01*
X36348500Y-20286934D01*
X36247723Y-20296860D01*
X36150819Y-20326255D01*
X36061511Y-20373991D01*
X36036000Y-20394928D01*
X36010489Y-20373991D01*
X35921181Y-20326255D01*
X35824277Y-20296860D01*
X35723500Y-20286934D01*
X35548500Y-20286934D01*
X35447723Y-20296860D01*
X35350819Y-20326255D01*
X35261511Y-20373991D01*
X35236000Y-20394928D01*
X35210489Y-20373991D01*
X35121181Y-20326255D01*
X35024277Y-20296860D01*
X34923500Y-20286934D01*
X34748500Y-20286934D01*
X34647723Y-20296860D01*
X34550819Y-20326255D01*
X34472681Y-20368020D01*
X34453843Y-20352560D01*
X34378273Y-20312168D01*
X34296275Y-20287294D01*
X34211000Y-20278895D01*
X34171750Y-20281000D01*
X34063002Y-20389748D01*
X34063002Y-20322234D01*
X34069218Y-20307227D01*
X34101000Y-20147452D01*
X34101000Y-20090356D01*
X34440773Y-19750583D01*
X34463737Y-19731737D01*
X34538966Y-19640071D01*
X34594866Y-19535490D01*
X34629289Y-19422012D01*
X34637095Y-19342751D01*
X34661000Y-19345105D01*
X34700250Y-19343000D01*
X34806422Y-19236828D01*
X34784000Y-19349548D01*
X34784000Y-19512452D01*
X34815782Y-19672227D01*
X34878123Y-19822731D01*
X34968628Y-19958181D01*
X35083819Y-20073372D01*
X35219269Y-20163877D01*
X35369773Y-20226218D01*
X35529548Y-20258000D01*
X35692452Y-20258000D01*
X35852227Y-20226218D01*
X36002731Y-20163877D01*
X36138181Y-20073372D01*
X36253372Y-19958181D01*
X36343877Y-19822731D01*
X36406218Y-19672227D01*
X36438000Y-19512452D01*
X36438000Y-19349548D01*
X36435517Y-19337066D01*
X36523500Y-19337066D01*
X36624277Y-19327140D01*
X36721181Y-19297745D01*
X36810489Y-19250009D01*
X36888767Y-19185767D01*
X36953009Y-19107489D01*
X37000745Y-19018181D01*
X37030140Y-18921277D01*
X37040066Y-18820500D01*
X37040066Y-18333422D01*
X37146000Y-18439356D01*
G04 #@! TA.AperFunction,Conductor*
D19*
G36*
X37146000Y-18439356D02*
G01*
X37146000Y-18496452D01*
X37177782Y-18656227D01*
X37240123Y-18806731D01*
X37330628Y-18942181D01*
X37371001Y-18982554D01*
X37371000Y-22298960D01*
X37314229Y-22355731D01*
X37291264Y-22374578D01*
X37216035Y-22466244D01*
X37160134Y-22570825D01*
X37125711Y-22684303D01*
X37117000Y-22772749D01*
X37117000Y-22772759D01*
X37114089Y-22802315D01*
X37114183Y-22803264D01*
X37076628Y-22840819D01*
X36986123Y-22976269D01*
X36923782Y-23126773D01*
X36892000Y-23286548D01*
X36892000Y-23449452D01*
X36923782Y-23609227D01*
X36986123Y-23759731D01*
X37076628Y-23895181D01*
X37191819Y-24010372D01*
X37327269Y-24100877D01*
X37477773Y-24163218D01*
X37637548Y-24195000D01*
X37659289Y-24195000D01*
X38997000Y-25532712D01*
X38997000Y-26131205D01*
X38993967Y-26162000D01*
X38997000Y-26192795D01*
X38997000Y-27338000D01*
X36605566Y-27338000D01*
X36576000Y-27335088D01*
X36546434Y-27338000D01*
X34827556Y-27338000D01*
X34798000Y-27335089D01*
X34768443Y-27338000D01*
X34768434Y-27338000D01*
X34679988Y-27346711D01*
X34566510Y-27381134D01*
X34461929Y-27437034D01*
X34370263Y-27512263D01*
X34351416Y-27535228D01*
X32770645Y-29116000D01*
X27999553Y-29116000D01*
X27984000Y-29100447D01*
X27984000Y-27459108D01*
X27986670Y-27432000D01*
X27976012Y-27323789D01*
X27944448Y-27219737D01*
X27897054Y-27131069D01*
X27951357Y-27185372D01*
X28086807Y-27275877D01*
X28237311Y-27338218D01*
X28397086Y-27370000D01*
X28559990Y-27370000D01*
X28719765Y-27338218D01*
X28870269Y-27275877D01*
X29005719Y-27185372D01*
X29046091Y-27145000D01*
X34641444Y-27145000D01*
X34671000Y-27147911D01*
X34700556Y-27145000D01*
X34700566Y-27145000D01*
X34789012Y-27136289D01*
X34902490Y-27101866D01*
X35007071Y-27045966D01*
X35098737Y-26970737D01*
X35117588Y-26947767D01*
X36040778Y-26024579D01*
X36063737Y-26005737D01*
X36082580Y-25982777D01*
X36082584Y-25982773D01*
X36134748Y-25919211D01*
X36138966Y-25914071D01*
X36194866Y-25809490D01*
X36229289Y-25696012D01*
X36238000Y-25607566D01*
X36238000Y-25607557D01*
X36240911Y-25578001D01*
X36238000Y-25548444D01*
X36238000Y-22232191D01*
X36247723Y-22235140D01*
X36348500Y-22245066D01*
X36523500Y-22245066D01*
X36624277Y-22235140D01*
X36721181Y-22205745D01*
X36810489Y-22158009D01*
X36888767Y-22093767D01*
X36953009Y-22015489D01*
X37000745Y-21926181D01*
X37030140Y-21829277D01*
X37040066Y-21728500D01*
X37040066Y-20803500D01*
X37030140Y-20702723D01*
X37000745Y-20605819D01*
X36953009Y-20516511D01*
X36888767Y-20438233D01*
X36810489Y-20373991D01*
X36721181Y-20326255D01*
X36624277Y-20296860D01*
X36523500Y-20286934D01*
X36348500Y-20286934D01*
X36247723Y-20296860D01*
X36150819Y-20326255D01*
X36061511Y-20373991D01*
X36036000Y-20394928D01*
X36010489Y-20373991D01*
X35921181Y-20326255D01*
X35824277Y-20296860D01*
X35723500Y-20286934D01*
X35548500Y-20286934D01*
X35447723Y-20296860D01*
X35350819Y-20326255D01*
X35261511Y-20373991D01*
X35236000Y-20394928D01*
X35210489Y-20373991D01*
X35121181Y-20326255D01*
X35024277Y-20296860D01*
X34923500Y-20286934D01*
X34748500Y-20286934D01*
X34647723Y-20296860D01*
X34550819Y-20326255D01*
X34472681Y-20368020D01*
X34453843Y-20352560D01*
X34378273Y-20312168D01*
X34296275Y-20287294D01*
X34211000Y-20278895D01*
X34171750Y-20281000D01*
X34063002Y-20389748D01*
X34063002Y-20322234D01*
X34069218Y-20307227D01*
X34101000Y-20147452D01*
X34101000Y-20090356D01*
X34440773Y-19750583D01*
X34463737Y-19731737D01*
X34538966Y-19640071D01*
X34594866Y-19535490D01*
X34629289Y-19422012D01*
X34637095Y-19342751D01*
X34661000Y-19345105D01*
X34700250Y-19343000D01*
X34806422Y-19236828D01*
X34784000Y-19349548D01*
X34784000Y-19512452D01*
X34815782Y-19672227D01*
X34878123Y-19822731D01*
X34968628Y-19958181D01*
X35083819Y-20073372D01*
X35219269Y-20163877D01*
X35369773Y-20226218D01*
X35529548Y-20258000D01*
X35692452Y-20258000D01*
X35852227Y-20226218D01*
X36002731Y-20163877D01*
X36138181Y-20073372D01*
X36253372Y-19958181D01*
X36343877Y-19822731D01*
X36406218Y-19672227D01*
X36438000Y-19512452D01*
X36438000Y-19349548D01*
X36435517Y-19337066D01*
X36523500Y-19337066D01*
X36624277Y-19327140D01*
X36721181Y-19297745D01*
X36810489Y-19250009D01*
X36888767Y-19185767D01*
X36953009Y-19107489D01*
X37000745Y-19018181D01*
X37030140Y-18921277D01*
X37040066Y-18820500D01*
X37040066Y-18333422D01*
X37146000Y-18439356D01*
G37*
G04 #@! TD.AperFunction*
D18*
X26916628Y-15220819D02*
X26826123Y-15356269D01*
X26763782Y-15506773D01*
X26732000Y-15666548D01*
X26732000Y-15829452D01*
X26763782Y-15989227D01*
X26826123Y-16139731D01*
X26916628Y-16275181D01*
X27031819Y-16390372D01*
X27167269Y-16480877D01*
X27317773Y-16543218D01*
X27477548Y-16575000D01*
X27640452Y-16575000D01*
X27746024Y-16554000D01*
X31179355Y-16554000D01*
X30362856Y-17370500D01*
X30341789Y-17387789D01*
X30272809Y-17471842D01*
X30221552Y-17567738D01*
X30189988Y-17671790D01*
X30182602Y-17746782D01*
X30179330Y-17780000D01*
X30182000Y-17807106D01*
X30182001Y-21689884D01*
X30179330Y-21717000D01*
X30188984Y-21815009D01*
X30189989Y-21825211D01*
X30199564Y-21856774D01*
X30221552Y-21929262D01*
X30272809Y-22025157D01*
X30272810Y-22025158D01*
X30341790Y-22109211D01*
X30362852Y-22126496D01*
X31467508Y-23231154D01*
X31484789Y-23252211D01*
X31568842Y-23321191D01*
X31664737Y-23372448D01*
X31755396Y-23399949D01*
X31857819Y-23502372D01*
X31993269Y-23592877D01*
X32143773Y-23655218D01*
X32303548Y-23687000D01*
X32466452Y-23687000D01*
X32626227Y-23655218D01*
X32776731Y-23592877D01*
X32912181Y-23502372D01*
X33027372Y-23387181D01*
X33117877Y-23251731D01*
X33180218Y-23101227D01*
X33212000Y-22941452D01*
X33212000Y-22778548D01*
X33180218Y-22618773D01*
X33117877Y-22468269D01*
X33027372Y-22332819D01*
X32912181Y-22217628D01*
X32816084Y-22153418D01*
X32836000Y-22137072D01*
X32861511Y-22158009D01*
X32950819Y-22205745D01*
X33047723Y-22235140D01*
X33148500Y-22245066D01*
X33323500Y-22245066D01*
X33424277Y-22235140D01*
X33521181Y-22205745D01*
X33599319Y-22163980D01*
X33618157Y-22179440D01*
X33693727Y-22219832D01*
X33775725Y-22244706D01*
X33861000Y-22253105D01*
X33900250Y-22251000D01*
X34009000Y-22142250D01*
X34009000Y-21293000D01*
X33989000Y-21293000D01*
X33989000Y-21239000D01*
X34009000Y-21239000D01*
X34009000Y-21219000D01*
X34063000Y-21219000D01*
X34063000Y-21239000D01*
X34083000Y-21239000D01*
X34083000Y-21293000D01*
X34063000Y-21293000D01*
X34063000Y-22142250D01*
X34171750Y-22251000D01*
X34211000Y-22253105D01*
X34234001Y-22250840D01*
X34234000Y-24925000D01*
X29035945Y-24925000D01*
X28995573Y-24884628D01*
X28860123Y-24794123D01*
X28709619Y-24731782D01*
X28549844Y-24700000D01*
X28422037Y-24700000D01*
X28134066Y-24412030D01*
X28134066Y-24363000D01*
X28121979Y-24240275D01*
X28086181Y-24122267D01*
X28028049Y-24013510D01*
X27949817Y-23918183D01*
X27857000Y-23842011D01*
X27857000Y-20167644D01*
X28559980Y-19464665D01*
X28562227Y-19464218D01*
X28712731Y-19401877D01*
X28848181Y-19311372D01*
X28963372Y-19196181D01*
X29053877Y-19060731D01*
X29116218Y-18910227D01*
X29148000Y-18750452D01*
X29148000Y-18587548D01*
X29116218Y-18427773D01*
X29053877Y-18277269D01*
X28963372Y-18141819D01*
X28848181Y-18026628D01*
X28712731Y-17936123D01*
X28562227Y-17873782D01*
X28402452Y-17842000D01*
X28239548Y-17842000D01*
X28079773Y-17873782D01*
X27929269Y-17936123D01*
X27793819Y-18026628D01*
X27689334Y-18131113D01*
X27581520Y-18023299D01*
X27446070Y-17932794D01*
X27295566Y-17870453D01*
X27135791Y-17838671D01*
X26972887Y-17838671D01*
X26813112Y-17870453D01*
X26662608Y-17932794D01*
X26527158Y-18023299D01*
X26411967Y-18138490D01*
X26410000Y-18141434D01*
X26410000Y-15107000D01*
X27030447Y-15107000D01*
X26916628Y-15220819D01*
G04 #@! TA.AperFunction,Conductor*
D19*
G36*
X26916628Y-15220819D02*
G01*
X26826123Y-15356269D01*
X26763782Y-15506773D01*
X26732000Y-15666548D01*
X26732000Y-15829452D01*
X26763782Y-15989227D01*
X26826123Y-16139731D01*
X26916628Y-16275181D01*
X27031819Y-16390372D01*
X27167269Y-16480877D01*
X27317773Y-16543218D01*
X27477548Y-16575000D01*
X27640452Y-16575000D01*
X27746024Y-16554000D01*
X31179355Y-16554000D01*
X30362856Y-17370500D01*
X30341789Y-17387789D01*
X30272809Y-17471842D01*
X30221552Y-17567738D01*
X30189988Y-17671790D01*
X30182602Y-17746782D01*
X30179330Y-17780000D01*
X30182000Y-17807106D01*
X30182001Y-21689884D01*
X30179330Y-21717000D01*
X30188984Y-21815009D01*
X30189989Y-21825211D01*
X30199564Y-21856774D01*
X30221552Y-21929262D01*
X30272809Y-22025157D01*
X30272810Y-22025158D01*
X30341790Y-22109211D01*
X30362852Y-22126496D01*
X31467508Y-23231154D01*
X31484789Y-23252211D01*
X31568842Y-23321191D01*
X31664737Y-23372448D01*
X31755396Y-23399949D01*
X31857819Y-23502372D01*
X31993269Y-23592877D01*
X32143773Y-23655218D01*
X32303548Y-23687000D01*
X32466452Y-23687000D01*
X32626227Y-23655218D01*
X32776731Y-23592877D01*
X32912181Y-23502372D01*
X33027372Y-23387181D01*
X33117877Y-23251731D01*
X33180218Y-23101227D01*
X33212000Y-22941452D01*
X33212000Y-22778548D01*
X33180218Y-22618773D01*
X33117877Y-22468269D01*
X33027372Y-22332819D01*
X32912181Y-22217628D01*
X32816084Y-22153418D01*
X32836000Y-22137072D01*
X32861511Y-22158009D01*
X32950819Y-22205745D01*
X33047723Y-22235140D01*
X33148500Y-22245066D01*
X33323500Y-22245066D01*
X33424277Y-22235140D01*
X33521181Y-22205745D01*
X33599319Y-22163980D01*
X33618157Y-22179440D01*
X33693727Y-22219832D01*
X33775725Y-22244706D01*
X33861000Y-22253105D01*
X33900250Y-22251000D01*
X34009000Y-22142250D01*
X34009000Y-21293000D01*
X33989000Y-21293000D01*
X33989000Y-21239000D01*
X34009000Y-21239000D01*
X34009000Y-21219000D01*
X34063000Y-21219000D01*
X34063000Y-21239000D01*
X34083000Y-21239000D01*
X34083000Y-21293000D01*
X34063000Y-21293000D01*
X34063000Y-22142250D01*
X34171750Y-22251000D01*
X34211000Y-22253105D01*
X34234001Y-22250840D01*
X34234000Y-24925000D01*
X29035945Y-24925000D01*
X28995573Y-24884628D01*
X28860123Y-24794123D01*
X28709619Y-24731782D01*
X28549844Y-24700000D01*
X28422037Y-24700000D01*
X28134066Y-24412030D01*
X28134066Y-24363000D01*
X28121979Y-24240275D01*
X28086181Y-24122267D01*
X28028049Y-24013510D01*
X27949817Y-23918183D01*
X27857000Y-23842011D01*
X27857000Y-20167644D01*
X28559980Y-19464665D01*
X28562227Y-19464218D01*
X28712731Y-19401877D01*
X28848181Y-19311372D01*
X28963372Y-19196181D01*
X29053877Y-19060731D01*
X29116218Y-18910227D01*
X29148000Y-18750452D01*
X29148000Y-18587548D01*
X29116218Y-18427773D01*
X29053877Y-18277269D01*
X28963372Y-18141819D01*
X28848181Y-18026628D01*
X28712731Y-17936123D01*
X28562227Y-17873782D01*
X28402452Y-17842000D01*
X28239548Y-17842000D01*
X28079773Y-17873782D01*
X27929269Y-17936123D01*
X27793819Y-18026628D01*
X27689334Y-18131113D01*
X27581520Y-18023299D01*
X27446070Y-17932794D01*
X27295566Y-17870453D01*
X27135791Y-17838671D01*
X26972887Y-17838671D01*
X26813112Y-17870453D01*
X26662608Y-17932794D01*
X26527158Y-18023299D01*
X26411967Y-18138490D01*
X26410000Y-18141434D01*
X26410000Y-15107000D01*
X27030447Y-15107000D01*
X26916628Y-15220819D01*
G37*
G04 #@! TD.AperFunction*
D18*
X18451389Y-19688351D02*
X18410000Y-19896425D01*
X18410000Y-20108575D01*
X18451389Y-20316649D01*
X18532575Y-20512651D01*
X18650440Y-20689047D01*
X18800453Y-20839060D01*
X18976849Y-20956925D01*
X19172851Y-21038111D01*
X19197368Y-21042988D01*
X18678856Y-21561500D01*
X18657789Y-21578789D01*
X18588809Y-21662842D01*
X18537552Y-21758738D01*
X18505988Y-21862790D01*
X18499441Y-21929262D01*
X18495330Y-21971000D01*
X18498000Y-21998106D01*
X18498000Y-22242447D01*
X18407628Y-22332819D01*
X18317123Y-22468269D01*
X18282000Y-22553063D01*
X18282000Y-19552000D01*
X18507867Y-19552000D01*
X18451389Y-19688351D01*
G04 #@! TA.AperFunction,Conductor*
D19*
G36*
X18451389Y-19688351D02*
G01*
X18410000Y-19896425D01*
X18410000Y-20108575D01*
X18451389Y-20316649D01*
X18532575Y-20512651D01*
X18650440Y-20689047D01*
X18800453Y-20839060D01*
X18976849Y-20956925D01*
X19172851Y-21038111D01*
X19197368Y-21042988D01*
X18678856Y-21561500D01*
X18657789Y-21578789D01*
X18588809Y-21662842D01*
X18537552Y-21758738D01*
X18505988Y-21862790D01*
X18499441Y-21929262D01*
X18495330Y-21971000D01*
X18498000Y-21998106D01*
X18498000Y-22242447D01*
X18407628Y-22332819D01*
X18317123Y-22468269D01*
X18282000Y-22553063D01*
X18282000Y-19552000D01*
X18507867Y-19552000D01*
X18451389Y-19688351D01*
G37*
G04 #@! TD.AperFunction*
D18*
X36133928Y-17427283D02*
X36061511Y-17465991D01*
X36036000Y-17486928D01*
X36010489Y-17465991D01*
X35921181Y-17418255D01*
X35824277Y-17388860D01*
X35723500Y-17378934D01*
X35548500Y-17378934D01*
X35447723Y-17388860D01*
X35350819Y-17418255D01*
X35272681Y-17460020D01*
X35253843Y-17444560D01*
X35178273Y-17404168D01*
X35096275Y-17379294D01*
X35011000Y-17370895D01*
X34971750Y-17373000D01*
X34863000Y-17481750D01*
X34863000Y-18331000D01*
X34883000Y-18331000D01*
X34883000Y-18385000D01*
X34863000Y-18385000D01*
X34863000Y-18405000D01*
X34809000Y-18405000D01*
X34809000Y-18385000D01*
X34789000Y-18385000D01*
X34789000Y-18331000D01*
X34809000Y-18331000D01*
X34809000Y-17481750D01*
X34700250Y-17373000D01*
X34661000Y-17370895D01*
X34575725Y-17379294D01*
X34493727Y-17404168D01*
X34418157Y-17444560D01*
X34399319Y-17460020D01*
X34321181Y-17418255D01*
X34224277Y-17388860D01*
X34123500Y-17378934D01*
X33948500Y-17378934D01*
X33847723Y-17388860D01*
X33838000Y-17391809D01*
X33838000Y-17178355D01*
X33933357Y-17082998D01*
X33990454Y-17082998D01*
X34150229Y-17051216D01*
X34300733Y-16988875D01*
X34436183Y-16898370D01*
X34476555Y-16857998D01*
X35564643Y-16857998D01*
X36133928Y-17427283D01*
G04 #@! TA.AperFunction,Conductor*
D19*
G36*
X36133928Y-17427283D02*
G01*
X36061511Y-17465991D01*
X36036000Y-17486928D01*
X36010489Y-17465991D01*
X35921181Y-17418255D01*
X35824277Y-17388860D01*
X35723500Y-17378934D01*
X35548500Y-17378934D01*
X35447723Y-17388860D01*
X35350819Y-17418255D01*
X35272681Y-17460020D01*
X35253843Y-17444560D01*
X35178273Y-17404168D01*
X35096275Y-17379294D01*
X35011000Y-17370895D01*
X34971750Y-17373000D01*
X34863000Y-17481750D01*
X34863000Y-18331000D01*
X34883000Y-18331000D01*
X34883000Y-18385000D01*
X34863000Y-18385000D01*
X34863000Y-18405000D01*
X34809000Y-18405000D01*
X34809000Y-18385000D01*
X34789000Y-18385000D01*
X34789000Y-18331000D01*
X34809000Y-18331000D01*
X34809000Y-17481750D01*
X34700250Y-17373000D01*
X34661000Y-17370895D01*
X34575725Y-17379294D01*
X34493727Y-17404168D01*
X34418157Y-17444560D01*
X34399319Y-17460020D01*
X34321181Y-17418255D01*
X34224277Y-17388860D01*
X34123500Y-17378934D01*
X33948500Y-17378934D01*
X33847723Y-17388860D01*
X33838000Y-17391809D01*
X33838000Y-17178355D01*
X33933357Y-17082998D01*
X33990454Y-17082998D01*
X34150229Y-17051216D01*
X34300733Y-16988875D01*
X34436183Y-16898370D01*
X34476555Y-16857998D01*
X35564643Y-16857998D01*
X36133928Y-17427283D01*
G37*
G04 #@! TD.AperFunction*
M02*
