%FSLAX45Y45*%
G04 Gerber Fmt 4.5, Leading zero omitted, Abs format (unit mm)*
G04 Created by KiCad (PCBNEW (5.1.7)-1) date 2020-10-26 15:46:45*
%MOMM*%
%LPD*%
G01*
G04 APERTURE LIST*
%TA.AperFunction,Profile*%
%ADD10C,0.150000*%
%TD*%
%ADD11C,0.200000*%
%ADD12C,0.300000*%
G04 APERTURE END LIST*
D10*
X5727700Y-1460500D02*
G75*
G02*
X5816600Y-1549400I0J-88900D01*
G01*
X2590800Y-1905000D02*
X1778000Y-1905000D01*
X2590800Y-1460500D02*
X2590800Y-1905000D01*
X2019300Y-5143500D02*
G75*
G02*
X1778000Y-4902200I0J241300D01*
G01*
X5816600Y-4902200D02*
G75*
G02*
X5575300Y-5143500I-241300J0D01*
G01*
X2590800Y-1460500D02*
X5727700Y-1460500D01*
X1778000Y-4902200D02*
X1778000Y-1905000D01*
X5575300Y-5143500D02*
X2019300Y-5143500D01*
X5816600Y-1549400D02*
X5816600Y-4902200D01*
D11*
X1834200Y-2088200D02*
X1874200Y-2128200D01*
X1874200Y-2088200D02*
X1834200Y-2128200D01*
X1846900Y-3243900D02*
X1886900Y-3283900D01*
X1886900Y-3243900D02*
X1846900Y-3283900D01*
X1865950Y-4342450D02*
X1905950Y-4382450D01*
X1905950Y-4342450D02*
X1865950Y-4382450D01*
X1885000Y-2266000D02*
X1925000Y-2306000D01*
X1925000Y-2266000D02*
X1885000Y-2306000D01*
X1999300Y-4685350D02*
X2039300Y-4725350D01*
X2039300Y-4685350D02*
X1999300Y-4725350D01*
X2015700Y-2945450D02*
X2055700Y-2985450D01*
X2055700Y-2945450D02*
X2015700Y-2985450D01*
X2024700Y-5009200D02*
X2064700Y-5049200D01*
X2064700Y-5009200D02*
X2024700Y-5049200D01*
X2037400Y-2596200D02*
X2077400Y-2636200D01*
X2077400Y-2596200D02*
X2037400Y-2636200D01*
X2050100Y-2748600D02*
X2090100Y-2788600D01*
X2090100Y-2748600D02*
X2050100Y-2788600D01*
X2050100Y-3599500D02*
X2090100Y-3639500D01*
X2090100Y-3599500D02*
X2050100Y-3639500D01*
X2093999Y-4272600D02*
X2133999Y-4312600D01*
X2133999Y-4272600D02*
X2093999Y-4312600D01*
X2139000Y-2843850D02*
X2179000Y-2883850D01*
X2179000Y-2843850D02*
X2139000Y-2883850D01*
X2196150Y-3650300D02*
X2236150Y-3690300D01*
X2236150Y-3650300D02*
X2196150Y-3690300D01*
X2215200Y-2380300D02*
X2255200Y-2420300D01*
X2255200Y-2380300D02*
X2215200Y-2420300D01*
X2215200Y-2647000D02*
X2255200Y-2687000D01*
X2255200Y-2647000D02*
X2215200Y-2687000D01*
X2215200Y-2951800D02*
X2255200Y-2991800D01*
X2255200Y-2951800D02*
X2215200Y-2991800D01*
X2215200Y-3120700D02*
X2255200Y-3160700D01*
X2255200Y-3120700D02*
X2215200Y-3160700D01*
X2227900Y-5009200D02*
X2267900Y-5049200D01*
X2267900Y-5009200D02*
X2227900Y-5049200D01*
X2304100Y-2545400D02*
X2344100Y-2585400D01*
X2344100Y-2545400D02*
X2304100Y-2585400D01*
X2380300Y-4836700D02*
X2420300Y-4876700D01*
X2420300Y-4836700D02*
X2380300Y-4876700D01*
X2393000Y-4602800D02*
X2433000Y-4642800D01*
X2433000Y-4602800D02*
X2393000Y-4642800D01*
X2396358Y-4410701D02*
X2436358Y-4450701D01*
X2436358Y-4410701D02*
X2396358Y-4450701D01*
X2418400Y-5009200D02*
X2458400Y-5049200D01*
X2458400Y-5009200D02*
X2418400Y-5049200D01*
X2424750Y-3599500D02*
X2464750Y-3639500D01*
X2464750Y-3599500D02*
X2424750Y-3639500D01*
X2480635Y-3948415D02*
X2520635Y-3988415D01*
X2520635Y-3948415D02*
X2480635Y-3988415D01*
X2481900Y-2824800D02*
X2521900Y-2864800D01*
X2521900Y-2824800D02*
X2481900Y-2864800D01*
X2481900Y-3847150D02*
X2521900Y-3887150D01*
X2521900Y-3847150D02*
X2481900Y-3887150D01*
X2494600Y-3142300D02*
X2534600Y-3182300D01*
X2534600Y-3142300D02*
X2494600Y-3182300D01*
X2583500Y-4679000D02*
X2623500Y-4719000D01*
X2623500Y-4679000D02*
X2583500Y-4719000D01*
X2589950Y-3764700D02*
X2629950Y-3804700D01*
X2629950Y-3764700D02*
X2589950Y-3804700D01*
X2621600Y-5009200D02*
X2661600Y-5049200D01*
X2661600Y-5009200D02*
X2621600Y-5049200D01*
X2685434Y-1846567D02*
X2725434Y-1886567D01*
X2725434Y-1846567D02*
X2685434Y-1886567D01*
X2689237Y-3618497D02*
X2729237Y-3658497D01*
X2729237Y-3618497D02*
X2689237Y-3658497D01*
X2723200Y-2951800D02*
X2763200Y-2991800D01*
X2763200Y-2951800D02*
X2723200Y-2991800D01*
X2723200Y-3129600D02*
X2763200Y-3169600D01*
X2763200Y-3129600D02*
X2723200Y-3169600D01*
X2735900Y-1554800D02*
X2775900Y-1594800D01*
X2775900Y-1554800D02*
X2735900Y-1594800D01*
X2739600Y-4640900D02*
X2779600Y-4680900D01*
X2779600Y-4640900D02*
X2739600Y-4680900D01*
X2771350Y-4320750D02*
X2811350Y-4360750D01*
X2811350Y-4320750D02*
X2771350Y-4360750D01*
X2799400Y-4983800D02*
X2839400Y-5023800D01*
X2839400Y-4983800D02*
X2799400Y-5023800D01*
X2812100Y-1846900D02*
X2852100Y-1886900D01*
X2852100Y-1846900D02*
X2812100Y-1886900D01*
X2812100Y-4793300D02*
X2852100Y-4833300D01*
X2852100Y-4793300D02*
X2812100Y-4833300D01*
X2826839Y-2532700D02*
X2866839Y-2572700D01*
X2866839Y-2532700D02*
X2826839Y-2572700D01*
X2827854Y-2634300D02*
X2867854Y-2674300D01*
X2867854Y-2634300D02*
X2827854Y-2674300D01*
X2989900Y-4983800D02*
X3029900Y-5023800D01*
X3029900Y-4983800D02*
X2989900Y-5023800D01*
X2996250Y-3561400D02*
X3036250Y-3601400D01*
X3036250Y-3561400D02*
X2996250Y-3601400D01*
X3053400Y-4628200D02*
X3093400Y-4668200D01*
X3093400Y-4628200D02*
X3053400Y-4668200D01*
X3083800Y-3256600D02*
X3123800Y-3296600D01*
X3123800Y-3256600D02*
X3083800Y-3296600D01*
X3116900Y-1554800D02*
X3156900Y-1594800D01*
X3156900Y-1554800D02*
X3116900Y-1594800D01*
X3129600Y-3688400D02*
X3169600Y-3728400D01*
X3169600Y-3688400D02*
X3129600Y-3728400D01*
X3180400Y-4983800D02*
X3220400Y-5023800D01*
X3220400Y-4983800D02*
X3180400Y-5023800D01*
X3205800Y-3040700D02*
X3245800Y-3080700D01*
X3245800Y-3040700D02*
X3205800Y-3080700D01*
X3218500Y-2266000D02*
X3258500Y-2306000D01*
X3258500Y-2266000D02*
X3218500Y-2306000D01*
X3269300Y-4094800D02*
X3309300Y-4134800D01*
X3309300Y-4094800D02*
X3269300Y-4134800D01*
X3269300Y-4628200D02*
X3309300Y-4668200D01*
X3309300Y-4628200D02*
X3269300Y-4668200D01*
X3307400Y-1986600D02*
X3347400Y-2026600D01*
X3347400Y-1986600D02*
X3307400Y-2026600D01*
X3320100Y-2711800D02*
X3360100Y-2751800D01*
X3360100Y-2711800D02*
X3320100Y-2751800D01*
X3370900Y-4983800D02*
X3410900Y-5023800D01*
X3410900Y-4983800D02*
X3370900Y-5023800D01*
X3370900Y-1605600D02*
X3410900Y-1645600D01*
X3410900Y-1605600D02*
X3370900Y-1645600D01*
X3421700Y-3142300D02*
X3461700Y-3182300D01*
X3461700Y-3142300D02*
X3421700Y-3182300D01*
X3434400Y-3383600D02*
X3474400Y-3423600D01*
X3474400Y-3383600D02*
X3434400Y-3423600D01*
X3459800Y-2901000D02*
X3499800Y-2941000D01*
X3499800Y-2901000D02*
X3459800Y-2941000D01*
X3472500Y-4069400D02*
X3512500Y-4109400D01*
X3512500Y-4069400D02*
X3472500Y-4109400D01*
X3472500Y-4247200D02*
X3512500Y-4287200D01*
X3512500Y-4247200D02*
X3472500Y-4287200D01*
X3472500Y-4501200D02*
X3512500Y-4541200D01*
X3512500Y-4501200D02*
X3472500Y-4541200D01*
X3472500Y-4628200D02*
X3512500Y-4668200D01*
X3512500Y-4628200D02*
X3472500Y-4668200D01*
X3497900Y-1707200D02*
X3537900Y-1747200D01*
X3537900Y-1707200D02*
X3497900Y-1747200D01*
X3536000Y-2968200D02*
X3576000Y-3008200D01*
X3576000Y-2968200D02*
X3536000Y-3008200D01*
X3541100Y-1923100D02*
X3581100Y-1963100D01*
X3581100Y-1923100D02*
X3541100Y-1963100D01*
X3560100Y-4715800D02*
X3600100Y-4755800D01*
X3600100Y-4715800D02*
X3560100Y-4755800D01*
X3574100Y-4983800D02*
X3614100Y-5023800D01*
X3614100Y-4983800D02*
X3574100Y-5023800D01*
X3599500Y-2647000D02*
X3639500Y-2687000D01*
X3639500Y-2647000D02*
X3599500Y-2687000D01*
X3638065Y-2379835D02*
X3678065Y-2419835D01*
X3678065Y-2379835D02*
X3638065Y-2419835D01*
X3720150Y-4717100D02*
X3760150Y-4757100D01*
X3760150Y-4717100D02*
X3720150Y-4757100D01*
X3731442Y-3137979D02*
X3771442Y-3177979D01*
X3771442Y-3137979D02*
X3731442Y-3177979D01*
X3751900Y-2316800D02*
X3791900Y-2356800D01*
X3791900Y-2316800D02*
X3751900Y-2356800D01*
X3764600Y-4425000D02*
X3804600Y-4465000D01*
X3804600Y-4425000D02*
X3764600Y-4465000D01*
X3768300Y-4158300D02*
X3808300Y-4198300D01*
X3808300Y-4158300D02*
X3768300Y-4198300D01*
X3777300Y-1821500D02*
X3817300Y-1861500D01*
X3817300Y-1821500D02*
X3777300Y-1861500D01*
X3790000Y-4983800D02*
X3830000Y-5023800D01*
X3830000Y-4983800D02*
X3790000Y-5023800D01*
X3890000Y-2069927D02*
X3930000Y-2109927D01*
X3930000Y-2069927D02*
X3890000Y-2109927D01*
X3891600Y-4590100D02*
X3931600Y-4630100D01*
X3931600Y-4590100D02*
X3891600Y-4630100D01*
X3891600Y-4818700D02*
X3931600Y-4858700D01*
X3931600Y-4818700D02*
X3891600Y-4858700D01*
X3917000Y-4272600D02*
X3957000Y-4312600D01*
X3957000Y-4272600D02*
X3917000Y-4312600D01*
X3942400Y-3561400D02*
X3982400Y-3601400D01*
X3982400Y-3561400D02*
X3942400Y-3601400D01*
X3993200Y-4983800D02*
X4033200Y-5023800D01*
X4033200Y-4983800D02*
X3993200Y-5023800D01*
X4056700Y-2405700D02*
X4096700Y-2445700D01*
X4096700Y-2405700D02*
X4056700Y-2445700D01*
X4135734Y-1807704D02*
X4175734Y-1847704D01*
X4175734Y-1807704D02*
X4135734Y-1847704D01*
X4216825Y-2696439D02*
X4256825Y-2736439D01*
X4256825Y-2696439D02*
X4216825Y-2736439D01*
X4221800Y-2253300D02*
X4261800Y-2293300D01*
X4261800Y-2253300D02*
X4221800Y-2293300D01*
X4385000Y-2073042D02*
X4425000Y-2113042D01*
X4425000Y-2073042D02*
X4385000Y-2113042D01*
X4501673Y-2317259D02*
X4541673Y-2357259D01*
X4541673Y-2317259D02*
X4501673Y-2357259D01*
X4552000Y-3155000D02*
X4592000Y-3195000D01*
X4592000Y-3155000D02*
X4552000Y-3195000D01*
X4552000Y-3599500D02*
X4592000Y-3639500D01*
X4592000Y-3599500D02*
X4552000Y-3639500D01*
X4552000Y-3980500D02*
X4592000Y-4020500D01*
X4592000Y-3980500D02*
X4552000Y-4020500D01*
X4577400Y-2058990D02*
X4617400Y-2098990D01*
X4617400Y-2058990D02*
X4577400Y-2098990D01*
X4615500Y-4247200D02*
X4655500Y-4287200D01*
X4655500Y-4247200D02*
X4615500Y-4287200D01*
X4717100Y-3002600D02*
X4757100Y-3042600D01*
X4757100Y-3002600D02*
X4717100Y-3042600D01*
X4742500Y-3790000D02*
X4782500Y-3830000D01*
X4782500Y-3790000D02*
X4742500Y-3830000D01*
X4806000Y-3409000D02*
X4846000Y-3449000D01*
X4846000Y-3409000D02*
X4806000Y-3449000D01*
X4806001Y-2545400D02*
X4846001Y-2585400D01*
X4846001Y-2545400D02*
X4806001Y-2585400D01*
X4818700Y-1834200D02*
X4858700Y-1874200D01*
X4858700Y-1834200D02*
X4818700Y-1874200D01*
X4869500Y-3155000D02*
X4909500Y-3195000D01*
X4909500Y-3155000D02*
X4869500Y-3195000D01*
X4945700Y-4158300D02*
X4985700Y-4198300D01*
X4985700Y-4158300D02*
X4945700Y-4198300D01*
X4996500Y-2532700D02*
X5036500Y-2572700D01*
X5036500Y-2532700D02*
X4996500Y-2572700D01*
X4996500Y-3599500D02*
X5036500Y-3639500D01*
X5036500Y-3599500D02*
X4996500Y-3639500D01*
X4996500Y-3866200D02*
X5036500Y-3906200D01*
X5036500Y-3866200D02*
X4996500Y-3906200D01*
X5060000Y-1845600D02*
X5100000Y-1885600D01*
X5100000Y-1845600D02*
X5060000Y-1885600D01*
X5060000Y-2000600D02*
X5100000Y-2040600D01*
X5100000Y-2000600D02*
X5060000Y-2040600D01*
X5136200Y-3282000D02*
X5176200Y-3322000D01*
X5176200Y-3282000D02*
X5136200Y-3322000D01*
X5148900Y-1643700D02*
X5188900Y-1683700D01*
X5188900Y-1643700D02*
X5148900Y-1683700D01*
X5205800Y-2412300D02*
X5245800Y-2452300D01*
X5245800Y-2412300D02*
X5205800Y-2452300D01*
X5212400Y-3040700D02*
X5252400Y-3080700D01*
X5252400Y-3040700D02*
X5212400Y-3080700D01*
X5237800Y-3599500D02*
X5277800Y-3639500D01*
X5277800Y-3599500D02*
X5237800Y-3639500D01*
X5237800Y-3866200D02*
X5277800Y-3906200D01*
X5277800Y-3866200D02*
X5237800Y-3906200D01*
X5237800Y-4209100D02*
X5277800Y-4249100D01*
X5277800Y-4209100D02*
X5237800Y-4249100D01*
X5555300Y-2088200D02*
X5595300Y-2128200D01*
X5595300Y-2088200D02*
X5555300Y-2128200D01*
X5656900Y-2697800D02*
X5696900Y-2737800D01*
X5696900Y-2697800D02*
X5656900Y-2737800D01*
X5682300Y-2545400D02*
X5722300Y-2585400D01*
X5722300Y-2545400D02*
X5682300Y-2585400D01*
X4257600Y-2887000D02*
G75*
G03*
X4257600Y-2887000I-30000J0D01*
G01*
X4257600Y-3087000D02*
G75*
G03*
X4257600Y-3087000I-30000J0D01*
G01*
X4257600Y-3287000D02*
G75*
G03*
X4257600Y-3287000I-30000J0D01*
G01*
X4257600Y-3487000D02*
G75*
G03*
X4257600Y-3487000I-30000J0D01*
G01*
X4257600Y-3687000D02*
G75*
G03*
X4257600Y-3687000I-30000J0D01*
G01*
X4257600Y-3887000D02*
G75*
G03*
X4257600Y-3887000I-30000J0D01*
G01*
X4257600Y-4087000D02*
G75*
G03*
X4257600Y-4087000I-30000J0D01*
G01*
X4257600Y-4287000D02*
G75*
G03*
X4257600Y-4287000I-30000J0D01*
G01*
X5657600Y-2887000D02*
G75*
G03*
X5657600Y-2887000I-30000J0D01*
G01*
X5657600Y-3087000D02*
G75*
G03*
X5657600Y-3087000I-30000J0D01*
G01*
X5657600Y-3287000D02*
G75*
G03*
X5657600Y-3287000I-30000J0D01*
G01*
X5657600Y-3487000D02*
G75*
G03*
X5657600Y-3487000I-30000J0D01*
G01*
X5657600Y-3687000D02*
G75*
G03*
X5657600Y-3687000I-30000J0D01*
G01*
X5657600Y-3887000D02*
G75*
G03*
X5657600Y-3887000I-30000J0D01*
G01*
X5657600Y-4087000D02*
G75*
G03*
X5657600Y-4087000I-30000J0D01*
G01*
X5657600Y-4287000D02*
G75*
G03*
X5657600Y-4287000I-30000J0D01*
G01*
X3840000Y-1676400D02*
G75*
G03*
X3840000Y-1676400I-30000J0D01*
G01*
X3830000Y-1711400D02*
X3830000Y-1641400D01*
X3790000Y-1711400D02*
X3790000Y-1641400D01*
X3830000Y-1641400D02*
G75*
G03*
X3790000Y-1641400I-20000J0D01*
G01*
X3790000Y-1711400D02*
G75*
G03*
X3830000Y-1711400I20000J0D01*
G01*
X4540000Y-1676400D02*
G75*
G03*
X4540000Y-1676400I-30000J0D01*
G01*
X4490000Y-1641400D02*
X4490000Y-1711400D01*
X4530000Y-1641400D02*
X4530000Y-1711400D01*
X4490000Y-1711400D02*
G75*
G03*
X4530000Y-1711400I20000J0D01*
G01*
X4530000Y-1641400D02*
G75*
G03*
X4490000Y-1641400I-20000J0D01*
G01*
X3975100Y-3873500D02*
X3975100Y-3949700D01*
X3937000Y-3911600D02*
X4013200Y-3911600D01*
X3975100Y-4023500D02*
X3975100Y-4099700D01*
X3937000Y-4061600D02*
X4013200Y-4061600D01*
X1948700Y-1962150D02*
X1948700Y-2038350D01*
X1910600Y-2000250D02*
X1986800Y-2000250D01*
X2098700Y-1962150D02*
X2098700Y-2038350D01*
X2060600Y-2000250D02*
X2136800Y-2000250D01*
X2248700Y-1962150D02*
X2248700Y-2038350D01*
X2210600Y-2000250D02*
X2286800Y-2000250D01*
X2398700Y-1962150D02*
X2398700Y-2038350D01*
X2360600Y-2000250D02*
X2436800Y-2000250D01*
X3940052Y-1976452D02*
X3940052Y-1916348D01*
X3879948Y-1916348D01*
X3879948Y-1976452D01*
X3940052Y-1976452D01*
X4440052Y-1976452D02*
X4440052Y-1916348D01*
X4379948Y-1916348D01*
X4379948Y-1976452D01*
X4440052Y-1976452D01*
X1841500Y-3756100D02*
X1876500Y-3721100D01*
X1841500Y-3686100D01*
X1806500Y-3721100D01*
X1841500Y-3756100D01*
X2111500Y-3756100D02*
X2146500Y-3721100D01*
X2111500Y-3686100D01*
X2076500Y-3721100D01*
X2111500Y-3756100D01*
D12*
X2056928Y-5616714D02*
X2056928Y-5316714D01*
X2128357Y-5316714D01*
X2171214Y-5331000D01*
X2199786Y-5359572D01*
X2214071Y-5388143D01*
X2228357Y-5445286D01*
X2228357Y-5488143D01*
X2214071Y-5545286D01*
X2199786Y-5573857D01*
X2171214Y-5602429D01*
X2128357Y-5616714D01*
X2056928Y-5616714D01*
X2356928Y-5616714D02*
X2356928Y-5416714D01*
X2356928Y-5473857D02*
X2371214Y-5445286D01*
X2385500Y-5431000D01*
X2414071Y-5416714D01*
X2442643Y-5416714D01*
X2542643Y-5616714D02*
X2542643Y-5416714D01*
X2542643Y-5316714D02*
X2528357Y-5331000D01*
X2542643Y-5345286D01*
X2556928Y-5331000D01*
X2542643Y-5316714D01*
X2542643Y-5345286D01*
X2728357Y-5616714D02*
X2699786Y-5602429D01*
X2685500Y-5573857D01*
X2685500Y-5316714D01*
X2885500Y-5616714D02*
X2856928Y-5602429D01*
X2842643Y-5573857D01*
X2842643Y-5316714D01*
X3228357Y-5616714D02*
X3228357Y-5316714D01*
X3328357Y-5531000D01*
X3428357Y-5316714D01*
X3428357Y-5616714D01*
X3699786Y-5616714D02*
X3699786Y-5459572D01*
X3685500Y-5431000D01*
X3656928Y-5416714D01*
X3599786Y-5416714D01*
X3571214Y-5431000D01*
X3699786Y-5602429D02*
X3671214Y-5616714D01*
X3599786Y-5616714D01*
X3571214Y-5602429D01*
X3556928Y-5573857D01*
X3556928Y-5545286D01*
X3571214Y-5516714D01*
X3599786Y-5502429D01*
X3671214Y-5502429D01*
X3699786Y-5488143D01*
X3842643Y-5416714D02*
X3842643Y-5716714D01*
X3842643Y-5431000D02*
X3871214Y-5416714D01*
X3928357Y-5416714D01*
X3956928Y-5431000D01*
X3971214Y-5445286D01*
X3985500Y-5473857D01*
X3985500Y-5559572D01*
X3971214Y-5588143D01*
X3956928Y-5602429D01*
X3928357Y-5616714D01*
X3871214Y-5616714D01*
X3842643Y-5602429D01*
X4114071Y-5588143D02*
X4128357Y-5602429D01*
X4114071Y-5616714D01*
X4099786Y-5602429D01*
X4114071Y-5588143D01*
X4114071Y-5616714D01*
X4114071Y-5431000D02*
X4128357Y-5445286D01*
X4114071Y-5459572D01*
X4099786Y-5445286D01*
X4114071Y-5431000D01*
X4114071Y-5459572D01*
X1730500Y-6091000D02*
X1770500Y-6131000D01*
X1770500Y-6091000D02*
X1730500Y-6131000D01*
X2114071Y-5946714D02*
X2142643Y-5946714D01*
X2171214Y-5961000D01*
X2185500Y-5975286D01*
X2199786Y-6003857D01*
X2214071Y-6061000D01*
X2214071Y-6132429D01*
X2199786Y-6189571D01*
X2185500Y-6218143D01*
X2171214Y-6232429D01*
X2142643Y-6246714D01*
X2114071Y-6246714D01*
X2085500Y-6232429D01*
X2071214Y-6218143D01*
X2056928Y-6189571D01*
X2042643Y-6132429D01*
X2042643Y-6061000D01*
X2056928Y-6003857D01*
X2071214Y-5975286D01*
X2085500Y-5961000D01*
X2114071Y-5946714D01*
X2342643Y-6218143D02*
X2356928Y-6232429D01*
X2342643Y-6246714D01*
X2328357Y-6232429D01*
X2342643Y-6218143D01*
X2342643Y-6246714D01*
X2614071Y-6046714D02*
X2614071Y-6246714D01*
X2542643Y-5932429D02*
X2471214Y-6146714D01*
X2656928Y-6146714D01*
X2828357Y-5946714D02*
X2856928Y-5946714D01*
X2885500Y-5961000D01*
X2899786Y-5975286D01*
X2914071Y-6003857D01*
X2928357Y-6061000D01*
X2928357Y-6132429D01*
X2914071Y-6189571D01*
X2899786Y-6218143D01*
X2885500Y-6232429D01*
X2856928Y-6246714D01*
X2828357Y-6246714D01*
X2799786Y-6232429D01*
X2785500Y-6218143D01*
X2771214Y-6189571D01*
X2756928Y-6132429D01*
X2756928Y-6061000D01*
X2771214Y-6003857D01*
X2785500Y-5975286D01*
X2799786Y-5961000D01*
X2828357Y-5946714D01*
X3056928Y-6246714D02*
X3056928Y-6046714D01*
X3056928Y-6075286D02*
X3071214Y-6061000D01*
X3099786Y-6046714D01*
X3142643Y-6046714D01*
X3171214Y-6061000D01*
X3185500Y-6089571D01*
X3185500Y-6246714D01*
X3185500Y-6089571D02*
X3199786Y-6061000D01*
X3228357Y-6046714D01*
X3271214Y-6046714D01*
X3299786Y-6061000D01*
X3314071Y-6089571D01*
X3314071Y-6246714D01*
X3456928Y-6246714D02*
X3456928Y-6046714D01*
X3456928Y-6075286D02*
X3471214Y-6061000D01*
X3499786Y-6046714D01*
X3542643Y-6046714D01*
X3571214Y-6061000D01*
X3585500Y-6089571D01*
X3585500Y-6246714D01*
X3585500Y-6089571D02*
X3599786Y-6061000D01*
X3628357Y-6046714D01*
X3671214Y-6046714D01*
X3699786Y-6061000D01*
X3714071Y-6089571D01*
X3714071Y-6246714D01*
X4299786Y-5932429D02*
X4042643Y-6318143D01*
X4685500Y-5946714D02*
X4714071Y-5946714D01*
X4742643Y-5961000D01*
X4756928Y-5975286D01*
X4771214Y-6003857D01*
X4785500Y-6061000D01*
X4785500Y-6132429D01*
X4771214Y-6189571D01*
X4756928Y-6218143D01*
X4742643Y-6232429D01*
X4714071Y-6246714D01*
X4685500Y-6246714D01*
X4656928Y-6232429D01*
X4642643Y-6218143D01*
X4628357Y-6189571D01*
X4614071Y-6132429D01*
X4614071Y-6061000D01*
X4628357Y-6003857D01*
X4642643Y-5975286D01*
X4656928Y-5961000D01*
X4685500Y-5946714D01*
X4914071Y-6218143D02*
X4928357Y-6232429D01*
X4914071Y-6246714D01*
X4899786Y-6232429D01*
X4914071Y-6218143D01*
X4914071Y-6246714D01*
X5114071Y-5946714D02*
X5142643Y-5946714D01*
X5171214Y-5961000D01*
X5185500Y-5975286D01*
X5199786Y-6003857D01*
X5214071Y-6061000D01*
X5214071Y-6132429D01*
X5199786Y-6189571D01*
X5185500Y-6218143D01*
X5171214Y-6232429D01*
X5142643Y-6246714D01*
X5114071Y-6246714D01*
X5085500Y-6232429D01*
X5071214Y-6218143D01*
X5056928Y-6189571D01*
X5042643Y-6132429D01*
X5042643Y-6061000D01*
X5056928Y-6003857D01*
X5071214Y-5975286D01*
X5085500Y-5961000D01*
X5114071Y-5946714D01*
X5499786Y-6246714D02*
X5328357Y-6246714D01*
X5414071Y-6246714D02*
X5414071Y-5946714D01*
X5385500Y-5989571D01*
X5356928Y-6018143D01*
X5328357Y-6032429D01*
X5756928Y-5946714D02*
X5699786Y-5946714D01*
X5671214Y-5961000D01*
X5656928Y-5975286D01*
X5628357Y-6018143D01*
X5614071Y-6075286D01*
X5614071Y-6189571D01*
X5628357Y-6218143D01*
X5642643Y-6232429D01*
X5671214Y-6246714D01*
X5728357Y-6246714D01*
X5756928Y-6232429D01*
X5771214Y-6218143D01*
X5785500Y-6189571D01*
X5785500Y-6118143D01*
X5771214Y-6089571D01*
X5756928Y-6075286D01*
X5728357Y-6061000D01*
X5671214Y-6061000D01*
X5642643Y-6075286D01*
X5628357Y-6089571D01*
X5614071Y-6118143D01*
X5899786Y-5946714D02*
X5899786Y-6003857D01*
X6014071Y-5946714D02*
X6014071Y-6003857D01*
X6456928Y-6361000D02*
X6442643Y-6346714D01*
X6414071Y-6303857D01*
X6399786Y-6275286D01*
X6385500Y-6232429D01*
X6371214Y-6161000D01*
X6371214Y-6103857D01*
X6385500Y-6032429D01*
X6399786Y-5989571D01*
X6414071Y-5961000D01*
X6442643Y-5918143D01*
X6456928Y-5903857D01*
X6728357Y-6246714D02*
X6556928Y-6246714D01*
X6642643Y-6246714D02*
X6642643Y-5946714D01*
X6614071Y-5989571D01*
X6585500Y-6018143D01*
X6556928Y-6032429D01*
X7014071Y-6246714D02*
X6842643Y-6246714D01*
X6928357Y-6246714D02*
X6928357Y-5946714D01*
X6899786Y-5989571D01*
X6871214Y-6018143D01*
X6842643Y-6032429D01*
X7185500Y-6075286D02*
X7156928Y-6061000D01*
X7142643Y-6046714D01*
X7128357Y-6018143D01*
X7128357Y-6003857D01*
X7142643Y-5975286D01*
X7156928Y-5961000D01*
X7185500Y-5946714D01*
X7242643Y-5946714D01*
X7271214Y-5961000D01*
X7285500Y-5975286D01*
X7299786Y-6003857D01*
X7299786Y-6018143D01*
X7285500Y-6046714D01*
X7271214Y-6061000D01*
X7242643Y-6075286D01*
X7185500Y-6075286D01*
X7156928Y-6089571D01*
X7142643Y-6103857D01*
X7128357Y-6132429D01*
X7128357Y-6189571D01*
X7142643Y-6218143D01*
X7156928Y-6232429D01*
X7185500Y-6246714D01*
X7242643Y-6246714D01*
X7271214Y-6232429D01*
X7285500Y-6218143D01*
X7299786Y-6189571D01*
X7299786Y-6132429D01*
X7285500Y-6103857D01*
X7271214Y-6089571D01*
X7242643Y-6075286D01*
X7656928Y-6246714D02*
X7656928Y-5946714D01*
X7785500Y-6246714D02*
X7785500Y-6089571D01*
X7771214Y-6061000D01*
X7742643Y-6046714D01*
X7699786Y-6046714D01*
X7671214Y-6061000D01*
X7656928Y-6075286D01*
X7971214Y-6246714D02*
X7942643Y-6232429D01*
X7928357Y-6218143D01*
X7914071Y-6189571D01*
X7914071Y-6103857D01*
X7928357Y-6075286D01*
X7942643Y-6061000D01*
X7971214Y-6046714D01*
X8014071Y-6046714D01*
X8042643Y-6061000D01*
X8056928Y-6075286D01*
X8071214Y-6103857D01*
X8071214Y-6189571D01*
X8056928Y-6218143D01*
X8042643Y-6232429D01*
X8014071Y-6246714D01*
X7971214Y-6246714D01*
X8242643Y-6246714D02*
X8214071Y-6232429D01*
X8199786Y-6203857D01*
X8199786Y-5946714D01*
X8471214Y-6232429D02*
X8442643Y-6246714D01*
X8385500Y-6246714D01*
X8356928Y-6232429D01*
X8342643Y-6203857D01*
X8342643Y-6089571D01*
X8356928Y-6061000D01*
X8385500Y-6046714D01*
X8442643Y-6046714D01*
X8471214Y-6061000D01*
X8485500Y-6089571D01*
X8485500Y-6118143D01*
X8342643Y-6146714D01*
X8599786Y-6232429D02*
X8628357Y-6246714D01*
X8685500Y-6246714D01*
X8714071Y-6232429D01*
X8728357Y-6203857D01*
X8728357Y-6189571D01*
X8714071Y-6161000D01*
X8685500Y-6146714D01*
X8642643Y-6146714D01*
X8614071Y-6132429D01*
X8599786Y-6103857D01*
X8599786Y-6089571D01*
X8614071Y-6061000D01*
X8642643Y-6046714D01*
X8685500Y-6046714D01*
X8714071Y-6061000D01*
X8828357Y-6361000D02*
X8842643Y-6346714D01*
X8871214Y-6303857D01*
X8885500Y-6275286D01*
X8899786Y-6232429D01*
X8914071Y-6161000D01*
X8914071Y-6103857D01*
X8899786Y-6032429D01*
X8885500Y-5989571D01*
X8871214Y-5961000D01*
X8842643Y-5918143D01*
X8828357Y-5903857D01*
X1770500Y-6507000D02*
G75*
G03*
X1770500Y-6507000I-30000J0D01*
G01*
X2114071Y-6342714D02*
X2142643Y-6342714D01*
X2171214Y-6357000D01*
X2185500Y-6371286D01*
X2199786Y-6399857D01*
X2214071Y-6457000D01*
X2214071Y-6528429D01*
X2199786Y-6585571D01*
X2185500Y-6614143D01*
X2171214Y-6628429D01*
X2142643Y-6642714D01*
X2114071Y-6642714D01*
X2085500Y-6628429D01*
X2071214Y-6614143D01*
X2056928Y-6585571D01*
X2042643Y-6528429D01*
X2042643Y-6457000D01*
X2056928Y-6399857D01*
X2071214Y-6371286D01*
X2085500Y-6357000D01*
X2114071Y-6342714D01*
X2342643Y-6614143D02*
X2356928Y-6628429D01*
X2342643Y-6642714D01*
X2328357Y-6628429D01*
X2342643Y-6614143D01*
X2342643Y-6642714D01*
X2614071Y-6342714D02*
X2556928Y-6342714D01*
X2528357Y-6357000D01*
X2514071Y-6371286D01*
X2485500Y-6414143D01*
X2471214Y-6471286D01*
X2471214Y-6585571D01*
X2485500Y-6614143D01*
X2499786Y-6628429D01*
X2528357Y-6642714D01*
X2585500Y-6642714D01*
X2614071Y-6628429D01*
X2628357Y-6614143D01*
X2642643Y-6585571D01*
X2642643Y-6514143D01*
X2628357Y-6485571D01*
X2614071Y-6471286D01*
X2585500Y-6457000D01*
X2528357Y-6457000D01*
X2499786Y-6471286D01*
X2485500Y-6485571D01*
X2471214Y-6514143D01*
X2828357Y-6342714D02*
X2856928Y-6342714D01*
X2885500Y-6357000D01*
X2899786Y-6371286D01*
X2914071Y-6399857D01*
X2928357Y-6457000D01*
X2928357Y-6528429D01*
X2914071Y-6585571D01*
X2899786Y-6614143D01*
X2885500Y-6628429D01*
X2856928Y-6642714D01*
X2828357Y-6642714D01*
X2799786Y-6628429D01*
X2785500Y-6614143D01*
X2771214Y-6585571D01*
X2756928Y-6528429D01*
X2756928Y-6457000D01*
X2771214Y-6399857D01*
X2785500Y-6371286D01*
X2799786Y-6357000D01*
X2828357Y-6342714D01*
X3056928Y-6642714D02*
X3056928Y-6442714D01*
X3056928Y-6471286D02*
X3071214Y-6457000D01*
X3099786Y-6442714D01*
X3142643Y-6442714D01*
X3171214Y-6457000D01*
X3185500Y-6485571D01*
X3185500Y-6642714D01*
X3185500Y-6485571D02*
X3199786Y-6457000D01*
X3228357Y-6442714D01*
X3271214Y-6442714D01*
X3299786Y-6457000D01*
X3314071Y-6485571D01*
X3314071Y-6642714D01*
X3456928Y-6642714D02*
X3456928Y-6442714D01*
X3456928Y-6471286D02*
X3471214Y-6457000D01*
X3499786Y-6442714D01*
X3542643Y-6442714D01*
X3571214Y-6457000D01*
X3585500Y-6485571D01*
X3585500Y-6642714D01*
X3585500Y-6485571D02*
X3599786Y-6457000D01*
X3628357Y-6442714D01*
X3671214Y-6442714D01*
X3699786Y-6457000D01*
X3714071Y-6485571D01*
X3714071Y-6642714D01*
X4299786Y-6328429D02*
X4042643Y-6714143D01*
X4685500Y-6342714D02*
X4714071Y-6342714D01*
X4742643Y-6357000D01*
X4756928Y-6371286D01*
X4771214Y-6399857D01*
X4785500Y-6457000D01*
X4785500Y-6528429D01*
X4771214Y-6585571D01*
X4756928Y-6614143D01*
X4742643Y-6628429D01*
X4714071Y-6642714D01*
X4685500Y-6642714D01*
X4656928Y-6628429D01*
X4642643Y-6614143D01*
X4628357Y-6585571D01*
X4614071Y-6528429D01*
X4614071Y-6457000D01*
X4628357Y-6399857D01*
X4642643Y-6371286D01*
X4656928Y-6357000D01*
X4685500Y-6342714D01*
X4914071Y-6614143D02*
X4928357Y-6628429D01*
X4914071Y-6642714D01*
X4899786Y-6628429D01*
X4914071Y-6614143D01*
X4914071Y-6642714D01*
X5114071Y-6342714D02*
X5142643Y-6342714D01*
X5171214Y-6357000D01*
X5185500Y-6371286D01*
X5199786Y-6399857D01*
X5214071Y-6457000D01*
X5214071Y-6528429D01*
X5199786Y-6585571D01*
X5185500Y-6614143D01*
X5171214Y-6628429D01*
X5142643Y-6642714D01*
X5114071Y-6642714D01*
X5085500Y-6628429D01*
X5071214Y-6614143D01*
X5056928Y-6585571D01*
X5042643Y-6528429D01*
X5042643Y-6457000D01*
X5056928Y-6399857D01*
X5071214Y-6371286D01*
X5085500Y-6357000D01*
X5114071Y-6342714D01*
X5328357Y-6371286D02*
X5342643Y-6357000D01*
X5371214Y-6342714D01*
X5442643Y-6342714D01*
X5471214Y-6357000D01*
X5485500Y-6371286D01*
X5499786Y-6399857D01*
X5499786Y-6428429D01*
X5485500Y-6471286D01*
X5314071Y-6642714D01*
X5499786Y-6642714D01*
X5756928Y-6442714D02*
X5756928Y-6642714D01*
X5685500Y-6328429D02*
X5614071Y-6542714D01*
X5799786Y-6542714D01*
X5899786Y-6342714D02*
X5899786Y-6399857D01*
X6014071Y-6342714D02*
X6014071Y-6399857D01*
X6456928Y-6757000D02*
X6442643Y-6742714D01*
X6414071Y-6699857D01*
X6399786Y-6671286D01*
X6385500Y-6628429D01*
X6371214Y-6557000D01*
X6371214Y-6499857D01*
X6385500Y-6428429D01*
X6399786Y-6385571D01*
X6414071Y-6357000D01*
X6442643Y-6314143D01*
X6456928Y-6299857D01*
X6728357Y-6642714D02*
X6556928Y-6642714D01*
X6642643Y-6642714D02*
X6642643Y-6342714D01*
X6614071Y-6385571D01*
X6585500Y-6414143D01*
X6556928Y-6428429D01*
X6985500Y-6342714D02*
X6928357Y-6342714D01*
X6899786Y-6357000D01*
X6885500Y-6371286D01*
X6856928Y-6414143D01*
X6842643Y-6471286D01*
X6842643Y-6585571D01*
X6856928Y-6614143D01*
X6871214Y-6628429D01*
X6899786Y-6642714D01*
X6956928Y-6642714D01*
X6985500Y-6628429D01*
X6999786Y-6614143D01*
X7014071Y-6585571D01*
X7014071Y-6514143D01*
X6999786Y-6485571D01*
X6985500Y-6471286D01*
X6956928Y-6457000D01*
X6899786Y-6457000D01*
X6871214Y-6471286D01*
X6856928Y-6485571D01*
X6842643Y-6514143D01*
X7371214Y-6642714D02*
X7371214Y-6342714D01*
X7499786Y-6642714D02*
X7499786Y-6485571D01*
X7485500Y-6457000D01*
X7456928Y-6442714D01*
X7414071Y-6442714D01*
X7385500Y-6457000D01*
X7371214Y-6471286D01*
X7685500Y-6642714D02*
X7656928Y-6628429D01*
X7642643Y-6614143D01*
X7628357Y-6585571D01*
X7628357Y-6499857D01*
X7642643Y-6471286D01*
X7656928Y-6457000D01*
X7685500Y-6442714D01*
X7728357Y-6442714D01*
X7756928Y-6457000D01*
X7771214Y-6471286D01*
X7785500Y-6499857D01*
X7785500Y-6585571D01*
X7771214Y-6614143D01*
X7756928Y-6628429D01*
X7728357Y-6642714D01*
X7685500Y-6642714D01*
X7956928Y-6642714D02*
X7928357Y-6628429D01*
X7914071Y-6599857D01*
X7914071Y-6342714D01*
X8185500Y-6628429D02*
X8156928Y-6642714D01*
X8099786Y-6642714D01*
X8071214Y-6628429D01*
X8056928Y-6599857D01*
X8056928Y-6485571D01*
X8071214Y-6457000D01*
X8099786Y-6442714D01*
X8156928Y-6442714D01*
X8185500Y-6457000D01*
X8199786Y-6485571D01*
X8199786Y-6514143D01*
X8056928Y-6542714D01*
X8314071Y-6628429D02*
X8342643Y-6642714D01*
X8399786Y-6642714D01*
X8428357Y-6628429D01*
X8442643Y-6599857D01*
X8442643Y-6585571D01*
X8428357Y-6557000D01*
X8399786Y-6542714D01*
X8356928Y-6542714D01*
X8328357Y-6528429D01*
X8314071Y-6499857D01*
X8314071Y-6485571D01*
X8328357Y-6457000D01*
X8356928Y-6442714D01*
X8399786Y-6442714D01*
X8428357Y-6457000D01*
X8799786Y-6528429D02*
X9028357Y-6528429D01*
X8914071Y-6642714D02*
X8914071Y-6414143D01*
X9385500Y-6371286D02*
X9399786Y-6357000D01*
X9428357Y-6342714D01*
X9499786Y-6342714D01*
X9528357Y-6357000D01*
X9542643Y-6371286D01*
X9556928Y-6399857D01*
X9556928Y-6428429D01*
X9542643Y-6471286D01*
X9371214Y-6642714D01*
X9556928Y-6642714D01*
X9899786Y-6628429D02*
X9928357Y-6642714D01*
X9985500Y-6642714D01*
X10014071Y-6628429D01*
X10028357Y-6599857D01*
X10028357Y-6585571D01*
X10014071Y-6557000D01*
X9985500Y-6542714D01*
X9942643Y-6542714D01*
X9914071Y-6528429D01*
X9899786Y-6499857D01*
X9899786Y-6485571D01*
X9914071Y-6457000D01*
X9942643Y-6442714D01*
X9985500Y-6442714D01*
X10014071Y-6457000D01*
X10199786Y-6642714D02*
X10171214Y-6628429D01*
X10156928Y-6599857D01*
X10156928Y-6342714D01*
X10356928Y-6642714D02*
X10328357Y-6628429D01*
X10314071Y-6614143D01*
X10299786Y-6585571D01*
X10299786Y-6499857D01*
X10314071Y-6471286D01*
X10328357Y-6457000D01*
X10356928Y-6442714D01*
X10399786Y-6442714D01*
X10428357Y-6457000D01*
X10442643Y-6471286D01*
X10456928Y-6499857D01*
X10456928Y-6585571D01*
X10442643Y-6614143D01*
X10428357Y-6628429D01*
X10399786Y-6642714D01*
X10356928Y-6642714D01*
X10542643Y-6442714D02*
X10656928Y-6442714D01*
X10585500Y-6342714D02*
X10585500Y-6599857D01*
X10599786Y-6628429D01*
X10628357Y-6642714D01*
X10656928Y-6642714D01*
X10742643Y-6628429D02*
X10771214Y-6642714D01*
X10828357Y-6642714D01*
X10856928Y-6628429D01*
X10871214Y-6599857D01*
X10871214Y-6585571D01*
X10856928Y-6557000D01*
X10828357Y-6542714D01*
X10785500Y-6542714D01*
X10756928Y-6528429D01*
X10742643Y-6499857D01*
X10742643Y-6485571D01*
X10756928Y-6457000D01*
X10785500Y-6442714D01*
X10828357Y-6442714D01*
X10856928Y-6457000D01*
X10971214Y-6757000D02*
X10985500Y-6742714D01*
X11014071Y-6699857D01*
X11028357Y-6671286D01*
X11042643Y-6628429D01*
X11056928Y-6557000D01*
X11056928Y-6499857D01*
X11042643Y-6428429D01*
X11028357Y-6385571D01*
X11014071Y-6357000D01*
X10985500Y-6314143D01*
X10971214Y-6299857D01*
X1732400Y-6864900D02*
X1732400Y-6941100D01*
X1694300Y-6903000D02*
X1770500Y-6903000D01*
X2114071Y-6738714D02*
X2142643Y-6738714D01*
X2171214Y-6753000D01*
X2185500Y-6767286D01*
X2199786Y-6795857D01*
X2214071Y-6853000D01*
X2214071Y-6924429D01*
X2199786Y-6981571D01*
X2185500Y-7010143D01*
X2171214Y-7024429D01*
X2142643Y-7038714D01*
X2114071Y-7038714D01*
X2085500Y-7024429D01*
X2071214Y-7010143D01*
X2056928Y-6981571D01*
X2042643Y-6924429D01*
X2042643Y-6853000D01*
X2056928Y-6795857D01*
X2071214Y-6767286D01*
X2085500Y-6753000D01*
X2114071Y-6738714D01*
X2342643Y-7010143D02*
X2356928Y-7024429D01*
X2342643Y-7038714D01*
X2328357Y-7024429D01*
X2342643Y-7010143D01*
X2342643Y-7038714D01*
X2456928Y-6738714D02*
X2656928Y-6738714D01*
X2528357Y-7038714D01*
X2899786Y-6738714D02*
X2842643Y-6738714D01*
X2814071Y-6753000D01*
X2799786Y-6767286D01*
X2771214Y-6810143D01*
X2756928Y-6867286D01*
X2756928Y-6981571D01*
X2771214Y-7010143D01*
X2785500Y-7024429D01*
X2814071Y-7038714D01*
X2871214Y-7038714D01*
X2899786Y-7024429D01*
X2914071Y-7010143D01*
X2928357Y-6981571D01*
X2928357Y-6910143D01*
X2914071Y-6881571D01*
X2899786Y-6867286D01*
X2871214Y-6853000D01*
X2814071Y-6853000D01*
X2785500Y-6867286D01*
X2771214Y-6881571D01*
X2756928Y-6910143D01*
X3056928Y-7038714D02*
X3056928Y-6838714D01*
X3056928Y-6867286D02*
X3071214Y-6853000D01*
X3099786Y-6838714D01*
X3142643Y-6838714D01*
X3171214Y-6853000D01*
X3185500Y-6881571D01*
X3185500Y-7038714D01*
X3185500Y-6881571D02*
X3199786Y-6853000D01*
X3228357Y-6838714D01*
X3271214Y-6838714D01*
X3299786Y-6853000D01*
X3314071Y-6881571D01*
X3314071Y-7038714D01*
X3456928Y-7038714D02*
X3456928Y-6838714D01*
X3456928Y-6867286D02*
X3471214Y-6853000D01*
X3499786Y-6838714D01*
X3542643Y-6838714D01*
X3571214Y-6853000D01*
X3585500Y-6881571D01*
X3585500Y-7038714D01*
X3585500Y-6881571D02*
X3599786Y-6853000D01*
X3628357Y-6838714D01*
X3671214Y-6838714D01*
X3699786Y-6853000D01*
X3714071Y-6881571D01*
X3714071Y-7038714D01*
X4299786Y-6724429D02*
X4042643Y-7110143D01*
X4685500Y-6738714D02*
X4714071Y-6738714D01*
X4742643Y-6753000D01*
X4756928Y-6767286D01*
X4771214Y-6795857D01*
X4785500Y-6853000D01*
X4785500Y-6924429D01*
X4771214Y-6981571D01*
X4756928Y-7010143D01*
X4742643Y-7024429D01*
X4714071Y-7038714D01*
X4685500Y-7038714D01*
X4656928Y-7024429D01*
X4642643Y-7010143D01*
X4628357Y-6981571D01*
X4614071Y-6924429D01*
X4614071Y-6853000D01*
X4628357Y-6795857D01*
X4642643Y-6767286D01*
X4656928Y-6753000D01*
X4685500Y-6738714D01*
X4914071Y-7010143D02*
X4928357Y-7024429D01*
X4914071Y-7038714D01*
X4899786Y-7024429D01*
X4914071Y-7010143D01*
X4914071Y-7038714D01*
X5114071Y-6738714D02*
X5142643Y-6738714D01*
X5171214Y-6753000D01*
X5185500Y-6767286D01*
X5199786Y-6795857D01*
X5214071Y-6853000D01*
X5214071Y-6924429D01*
X5199786Y-6981571D01*
X5185500Y-7010143D01*
X5171214Y-7024429D01*
X5142643Y-7038714D01*
X5114071Y-7038714D01*
X5085500Y-7024429D01*
X5071214Y-7010143D01*
X5056928Y-6981571D01*
X5042643Y-6924429D01*
X5042643Y-6853000D01*
X5056928Y-6795857D01*
X5071214Y-6767286D01*
X5085500Y-6753000D01*
X5114071Y-6738714D01*
X5314071Y-6738714D02*
X5499786Y-6738714D01*
X5399786Y-6853000D01*
X5442643Y-6853000D01*
X5471214Y-6867286D01*
X5485500Y-6881571D01*
X5499786Y-6910143D01*
X5499786Y-6981571D01*
X5485500Y-7010143D01*
X5471214Y-7024429D01*
X5442643Y-7038714D01*
X5356928Y-7038714D01*
X5328357Y-7024429D01*
X5314071Y-7010143D01*
X5685500Y-6738714D02*
X5714071Y-6738714D01*
X5742643Y-6753000D01*
X5756928Y-6767286D01*
X5771214Y-6795857D01*
X5785500Y-6853000D01*
X5785500Y-6924429D01*
X5771214Y-6981571D01*
X5756928Y-7010143D01*
X5742643Y-7024429D01*
X5714071Y-7038714D01*
X5685500Y-7038714D01*
X5656928Y-7024429D01*
X5642643Y-7010143D01*
X5628357Y-6981571D01*
X5614071Y-6924429D01*
X5614071Y-6853000D01*
X5628357Y-6795857D01*
X5642643Y-6767286D01*
X5656928Y-6753000D01*
X5685500Y-6738714D01*
X5899786Y-6738714D02*
X5899786Y-6795857D01*
X6014071Y-6738714D02*
X6014071Y-6795857D01*
X6456928Y-7153000D02*
X6442643Y-7138714D01*
X6414071Y-7095857D01*
X6399786Y-7067286D01*
X6385500Y-7024429D01*
X6371214Y-6953000D01*
X6371214Y-6895857D01*
X6385500Y-6824429D01*
X6399786Y-6781571D01*
X6414071Y-6753000D01*
X6442643Y-6710143D01*
X6456928Y-6695857D01*
X6699786Y-6738714D02*
X6642643Y-6738714D01*
X6614071Y-6753000D01*
X6599786Y-6767286D01*
X6571214Y-6810143D01*
X6556928Y-6867286D01*
X6556928Y-6981571D01*
X6571214Y-7010143D01*
X6585500Y-7024429D01*
X6614071Y-7038714D01*
X6671214Y-7038714D01*
X6699786Y-7024429D01*
X6714071Y-7010143D01*
X6728357Y-6981571D01*
X6728357Y-6910143D01*
X6714071Y-6881571D01*
X6699786Y-6867286D01*
X6671214Y-6853000D01*
X6614071Y-6853000D01*
X6585500Y-6867286D01*
X6571214Y-6881571D01*
X6556928Y-6910143D01*
X7085500Y-7038714D02*
X7085500Y-6738714D01*
X7214071Y-7038714D02*
X7214071Y-6881571D01*
X7199786Y-6853000D01*
X7171214Y-6838714D01*
X7128357Y-6838714D01*
X7099786Y-6853000D01*
X7085500Y-6867286D01*
X7399786Y-7038714D02*
X7371214Y-7024429D01*
X7356928Y-7010143D01*
X7342643Y-6981571D01*
X7342643Y-6895857D01*
X7356928Y-6867286D01*
X7371214Y-6853000D01*
X7399786Y-6838714D01*
X7442643Y-6838714D01*
X7471214Y-6853000D01*
X7485500Y-6867286D01*
X7499786Y-6895857D01*
X7499786Y-6981571D01*
X7485500Y-7010143D01*
X7471214Y-7024429D01*
X7442643Y-7038714D01*
X7399786Y-7038714D01*
X7671214Y-7038714D02*
X7642643Y-7024429D01*
X7628357Y-6995857D01*
X7628357Y-6738714D01*
X7899786Y-7024429D02*
X7871214Y-7038714D01*
X7814071Y-7038714D01*
X7785500Y-7024429D01*
X7771214Y-6995857D01*
X7771214Y-6881571D01*
X7785500Y-6853000D01*
X7814071Y-6838714D01*
X7871214Y-6838714D01*
X7899786Y-6853000D01*
X7914071Y-6881571D01*
X7914071Y-6910143D01*
X7771214Y-6938714D01*
X8028357Y-7024429D02*
X8056928Y-7038714D01*
X8114071Y-7038714D01*
X8142643Y-7024429D01*
X8156928Y-6995857D01*
X8156928Y-6981571D01*
X8142643Y-6953000D01*
X8114071Y-6938714D01*
X8071214Y-6938714D01*
X8042643Y-6924429D01*
X8028357Y-6895857D01*
X8028357Y-6881571D01*
X8042643Y-6853000D01*
X8071214Y-6838714D01*
X8114071Y-6838714D01*
X8142643Y-6853000D01*
X8256928Y-7153000D02*
X8271214Y-7138714D01*
X8299786Y-7095857D01*
X8314071Y-7067286D01*
X8328357Y-7024429D01*
X8342643Y-6953000D01*
X8342643Y-6895857D01*
X8328357Y-6824429D01*
X8314071Y-6781571D01*
X8299786Y-6753000D01*
X8271214Y-6710143D01*
X8256928Y-6695857D01*
X1758052Y-7329052D02*
X1758052Y-7268948D01*
X1697948Y-7268948D01*
X1697948Y-7329052D01*
X1758052Y-7329052D01*
X2114071Y-7134714D02*
X2142643Y-7134714D01*
X2171214Y-7149000D01*
X2185500Y-7163286D01*
X2199786Y-7191857D01*
X2214071Y-7249000D01*
X2214071Y-7320429D01*
X2199786Y-7377571D01*
X2185500Y-7406143D01*
X2171214Y-7420429D01*
X2142643Y-7434714D01*
X2114071Y-7434714D01*
X2085500Y-7420429D01*
X2071214Y-7406143D01*
X2056928Y-7377571D01*
X2042643Y-7320429D01*
X2042643Y-7249000D01*
X2056928Y-7191857D01*
X2071214Y-7163286D01*
X2085500Y-7149000D01*
X2114071Y-7134714D01*
X2342643Y-7406143D02*
X2356928Y-7420429D01*
X2342643Y-7434714D01*
X2328357Y-7420429D01*
X2342643Y-7406143D01*
X2342643Y-7434714D01*
X2528357Y-7263286D02*
X2499786Y-7249000D01*
X2485500Y-7234714D01*
X2471214Y-7206143D01*
X2471214Y-7191857D01*
X2485500Y-7163286D01*
X2499786Y-7149000D01*
X2528357Y-7134714D01*
X2585500Y-7134714D01*
X2614071Y-7149000D01*
X2628357Y-7163286D01*
X2642643Y-7191857D01*
X2642643Y-7206143D01*
X2628357Y-7234714D01*
X2614071Y-7249000D01*
X2585500Y-7263286D01*
X2528357Y-7263286D01*
X2499786Y-7277571D01*
X2485500Y-7291857D01*
X2471214Y-7320429D01*
X2471214Y-7377571D01*
X2485500Y-7406143D01*
X2499786Y-7420429D01*
X2528357Y-7434714D01*
X2585500Y-7434714D01*
X2614071Y-7420429D01*
X2628357Y-7406143D01*
X2642643Y-7377571D01*
X2642643Y-7320429D01*
X2628357Y-7291857D01*
X2614071Y-7277571D01*
X2585500Y-7263286D01*
X2914071Y-7134714D02*
X2771214Y-7134714D01*
X2756928Y-7277571D01*
X2771214Y-7263286D01*
X2799786Y-7249000D01*
X2871214Y-7249000D01*
X2899786Y-7263286D01*
X2914071Y-7277571D01*
X2928357Y-7306143D01*
X2928357Y-7377571D01*
X2914071Y-7406143D01*
X2899786Y-7420429D01*
X2871214Y-7434714D01*
X2799786Y-7434714D01*
X2771214Y-7420429D01*
X2756928Y-7406143D01*
X3056928Y-7434714D02*
X3056928Y-7234714D01*
X3056928Y-7263286D02*
X3071214Y-7249000D01*
X3099786Y-7234714D01*
X3142643Y-7234714D01*
X3171214Y-7249000D01*
X3185500Y-7277571D01*
X3185500Y-7434714D01*
X3185500Y-7277571D02*
X3199786Y-7249000D01*
X3228357Y-7234714D01*
X3271214Y-7234714D01*
X3299786Y-7249000D01*
X3314071Y-7277571D01*
X3314071Y-7434714D01*
X3456928Y-7434714D02*
X3456928Y-7234714D01*
X3456928Y-7263286D02*
X3471214Y-7249000D01*
X3499786Y-7234714D01*
X3542643Y-7234714D01*
X3571214Y-7249000D01*
X3585500Y-7277571D01*
X3585500Y-7434714D01*
X3585500Y-7277571D02*
X3599786Y-7249000D01*
X3628357Y-7234714D01*
X3671214Y-7234714D01*
X3699786Y-7249000D01*
X3714071Y-7277571D01*
X3714071Y-7434714D01*
X4299786Y-7120429D02*
X4042643Y-7506143D01*
X4685500Y-7134714D02*
X4714071Y-7134714D01*
X4742643Y-7149000D01*
X4756928Y-7163286D01*
X4771214Y-7191857D01*
X4785500Y-7249000D01*
X4785500Y-7320429D01*
X4771214Y-7377571D01*
X4756928Y-7406143D01*
X4742643Y-7420429D01*
X4714071Y-7434714D01*
X4685500Y-7434714D01*
X4656928Y-7420429D01*
X4642643Y-7406143D01*
X4628357Y-7377571D01*
X4614071Y-7320429D01*
X4614071Y-7249000D01*
X4628357Y-7191857D01*
X4642643Y-7163286D01*
X4656928Y-7149000D01*
X4685500Y-7134714D01*
X4914071Y-7406143D02*
X4928357Y-7420429D01*
X4914071Y-7434714D01*
X4899786Y-7420429D01*
X4914071Y-7406143D01*
X4914071Y-7434714D01*
X5114071Y-7134714D02*
X5142643Y-7134714D01*
X5171214Y-7149000D01*
X5185500Y-7163286D01*
X5199786Y-7191857D01*
X5214071Y-7249000D01*
X5214071Y-7320429D01*
X5199786Y-7377571D01*
X5185500Y-7406143D01*
X5171214Y-7420429D01*
X5142643Y-7434714D01*
X5114071Y-7434714D01*
X5085500Y-7420429D01*
X5071214Y-7406143D01*
X5056928Y-7377571D01*
X5042643Y-7320429D01*
X5042643Y-7249000D01*
X5056928Y-7191857D01*
X5071214Y-7163286D01*
X5085500Y-7149000D01*
X5114071Y-7134714D01*
X5314071Y-7134714D02*
X5499786Y-7134714D01*
X5399786Y-7249000D01*
X5442643Y-7249000D01*
X5471214Y-7263286D01*
X5485500Y-7277571D01*
X5499786Y-7306143D01*
X5499786Y-7377571D01*
X5485500Y-7406143D01*
X5471214Y-7420429D01*
X5442643Y-7434714D01*
X5356928Y-7434714D01*
X5328357Y-7420429D01*
X5314071Y-7406143D01*
X5599786Y-7134714D02*
X5785500Y-7134714D01*
X5685500Y-7249000D01*
X5728357Y-7249000D01*
X5756928Y-7263286D01*
X5771214Y-7277571D01*
X5785500Y-7306143D01*
X5785500Y-7377571D01*
X5771214Y-7406143D01*
X5756928Y-7420429D01*
X5728357Y-7434714D01*
X5642643Y-7434714D01*
X5614071Y-7420429D01*
X5599786Y-7406143D01*
X5899786Y-7134714D02*
X5899786Y-7191857D01*
X6014071Y-7134714D02*
X6014071Y-7191857D01*
X6456928Y-7549000D02*
X6442643Y-7534714D01*
X6414071Y-7491857D01*
X6399786Y-7463286D01*
X6385500Y-7420429D01*
X6371214Y-7349000D01*
X6371214Y-7291857D01*
X6385500Y-7220429D01*
X6399786Y-7177571D01*
X6414071Y-7149000D01*
X6442643Y-7106143D01*
X6456928Y-7091857D01*
X6556928Y-7163286D02*
X6571214Y-7149000D01*
X6599786Y-7134714D01*
X6671214Y-7134714D01*
X6699786Y-7149000D01*
X6714071Y-7163286D01*
X6728357Y-7191857D01*
X6728357Y-7220429D01*
X6714071Y-7263286D01*
X6542643Y-7434714D01*
X6728357Y-7434714D01*
X7085500Y-7434714D02*
X7085500Y-7134714D01*
X7214071Y-7434714D02*
X7214071Y-7277571D01*
X7199786Y-7249000D01*
X7171214Y-7234714D01*
X7128357Y-7234714D01*
X7099786Y-7249000D01*
X7085500Y-7263286D01*
X7399786Y-7434714D02*
X7371214Y-7420429D01*
X7356928Y-7406143D01*
X7342643Y-7377571D01*
X7342643Y-7291857D01*
X7356928Y-7263286D01*
X7371214Y-7249000D01*
X7399786Y-7234714D01*
X7442643Y-7234714D01*
X7471214Y-7249000D01*
X7485500Y-7263286D01*
X7499786Y-7291857D01*
X7499786Y-7377571D01*
X7485500Y-7406143D01*
X7471214Y-7420429D01*
X7442643Y-7434714D01*
X7399786Y-7434714D01*
X7671214Y-7434714D02*
X7642643Y-7420429D01*
X7628357Y-7391857D01*
X7628357Y-7134714D01*
X7899786Y-7420429D02*
X7871214Y-7434714D01*
X7814071Y-7434714D01*
X7785500Y-7420429D01*
X7771214Y-7391857D01*
X7771214Y-7277571D01*
X7785500Y-7249000D01*
X7814071Y-7234714D01*
X7871214Y-7234714D01*
X7899786Y-7249000D01*
X7914071Y-7277571D01*
X7914071Y-7306143D01*
X7771214Y-7334714D01*
X8028357Y-7420429D02*
X8056928Y-7434714D01*
X8114071Y-7434714D01*
X8142643Y-7420429D01*
X8156928Y-7391857D01*
X8156928Y-7377571D01*
X8142643Y-7349000D01*
X8114071Y-7334714D01*
X8071214Y-7334714D01*
X8042643Y-7320429D01*
X8028357Y-7291857D01*
X8028357Y-7277571D01*
X8042643Y-7249000D01*
X8071214Y-7234714D01*
X8114071Y-7234714D01*
X8142643Y-7249000D01*
X8256928Y-7549000D02*
X8271214Y-7534714D01*
X8299786Y-7491857D01*
X8314071Y-7463286D01*
X8328357Y-7420429D01*
X8342643Y-7349000D01*
X8342643Y-7291857D01*
X8328357Y-7220429D01*
X8314071Y-7177571D01*
X8299786Y-7149000D01*
X8271214Y-7106143D01*
X8256928Y-7091857D01*
X1735500Y-7730000D02*
X1770500Y-7695000D01*
X1735500Y-7660000D01*
X1700500Y-7695000D01*
X1735500Y-7730000D01*
X2114071Y-7530714D02*
X2142643Y-7530714D01*
X2171214Y-7545000D01*
X2185500Y-7559286D01*
X2199786Y-7587857D01*
X2214071Y-7645000D01*
X2214071Y-7716429D01*
X2199786Y-7773571D01*
X2185500Y-7802143D01*
X2171214Y-7816429D01*
X2142643Y-7830714D01*
X2114071Y-7830714D01*
X2085500Y-7816429D01*
X2071214Y-7802143D01*
X2056928Y-7773571D01*
X2042643Y-7716429D01*
X2042643Y-7645000D01*
X2056928Y-7587857D01*
X2071214Y-7559286D01*
X2085500Y-7545000D01*
X2114071Y-7530714D01*
X2342643Y-7802143D02*
X2356928Y-7816429D01*
X2342643Y-7830714D01*
X2328357Y-7816429D01*
X2342643Y-7802143D01*
X2342643Y-7830714D01*
X2456928Y-7530714D02*
X2656928Y-7530714D01*
X2528357Y-7830714D01*
X2828357Y-7530714D02*
X2856928Y-7530714D01*
X2885500Y-7545000D01*
X2899786Y-7559286D01*
X2914071Y-7587857D01*
X2928357Y-7645000D01*
X2928357Y-7716429D01*
X2914071Y-7773571D01*
X2899786Y-7802143D01*
X2885500Y-7816429D01*
X2856928Y-7830714D01*
X2828357Y-7830714D01*
X2799786Y-7816429D01*
X2785500Y-7802143D01*
X2771214Y-7773571D01*
X2756928Y-7716429D01*
X2756928Y-7645000D01*
X2771214Y-7587857D01*
X2785500Y-7559286D01*
X2799786Y-7545000D01*
X2828357Y-7530714D01*
X3056928Y-7830714D02*
X3056928Y-7630714D01*
X3056928Y-7659286D02*
X3071214Y-7645000D01*
X3099786Y-7630714D01*
X3142643Y-7630714D01*
X3171214Y-7645000D01*
X3185500Y-7673571D01*
X3185500Y-7830714D01*
X3185500Y-7673571D02*
X3199786Y-7645000D01*
X3228357Y-7630714D01*
X3271214Y-7630714D01*
X3299786Y-7645000D01*
X3314071Y-7673571D01*
X3314071Y-7830714D01*
X3456928Y-7830714D02*
X3456928Y-7630714D01*
X3456928Y-7659286D02*
X3471214Y-7645000D01*
X3499786Y-7630714D01*
X3542643Y-7630714D01*
X3571214Y-7645000D01*
X3585500Y-7673571D01*
X3585500Y-7830714D01*
X3585500Y-7673571D02*
X3599786Y-7645000D01*
X3628357Y-7630714D01*
X3671214Y-7630714D01*
X3699786Y-7645000D01*
X3714071Y-7673571D01*
X3714071Y-7830714D01*
X4299786Y-7516429D02*
X4042643Y-7902143D01*
X4685500Y-7530714D02*
X4714071Y-7530714D01*
X4742643Y-7545000D01*
X4756928Y-7559286D01*
X4771214Y-7587857D01*
X4785500Y-7645000D01*
X4785500Y-7716429D01*
X4771214Y-7773571D01*
X4756928Y-7802143D01*
X4742643Y-7816429D01*
X4714071Y-7830714D01*
X4685500Y-7830714D01*
X4656928Y-7816429D01*
X4642643Y-7802143D01*
X4628357Y-7773571D01*
X4614071Y-7716429D01*
X4614071Y-7645000D01*
X4628357Y-7587857D01*
X4642643Y-7559286D01*
X4656928Y-7545000D01*
X4685500Y-7530714D01*
X4914071Y-7802143D02*
X4928357Y-7816429D01*
X4914071Y-7830714D01*
X4899786Y-7816429D01*
X4914071Y-7802143D01*
X4914071Y-7830714D01*
X5114071Y-7530714D02*
X5142643Y-7530714D01*
X5171214Y-7545000D01*
X5185500Y-7559286D01*
X5199786Y-7587857D01*
X5214071Y-7645000D01*
X5214071Y-7716429D01*
X5199786Y-7773571D01*
X5185500Y-7802143D01*
X5171214Y-7816429D01*
X5142643Y-7830714D01*
X5114071Y-7830714D01*
X5085500Y-7816429D01*
X5071214Y-7802143D01*
X5056928Y-7773571D01*
X5042643Y-7716429D01*
X5042643Y-7645000D01*
X5056928Y-7587857D01*
X5071214Y-7559286D01*
X5085500Y-7545000D01*
X5114071Y-7530714D01*
X5328357Y-7559286D02*
X5342643Y-7545000D01*
X5371214Y-7530714D01*
X5442643Y-7530714D01*
X5471214Y-7545000D01*
X5485500Y-7559286D01*
X5499786Y-7587857D01*
X5499786Y-7616429D01*
X5485500Y-7659286D01*
X5314071Y-7830714D01*
X5499786Y-7830714D01*
X5671214Y-7659286D02*
X5642643Y-7645000D01*
X5628357Y-7630714D01*
X5614071Y-7602143D01*
X5614071Y-7587857D01*
X5628357Y-7559286D01*
X5642643Y-7545000D01*
X5671214Y-7530714D01*
X5728357Y-7530714D01*
X5756928Y-7545000D01*
X5771214Y-7559286D01*
X5785500Y-7587857D01*
X5785500Y-7602143D01*
X5771214Y-7630714D01*
X5756928Y-7645000D01*
X5728357Y-7659286D01*
X5671214Y-7659286D01*
X5642643Y-7673571D01*
X5628357Y-7687857D01*
X5614071Y-7716429D01*
X5614071Y-7773571D01*
X5628357Y-7802143D01*
X5642643Y-7816429D01*
X5671214Y-7830714D01*
X5728357Y-7830714D01*
X5756928Y-7816429D01*
X5771214Y-7802143D01*
X5785500Y-7773571D01*
X5785500Y-7716429D01*
X5771214Y-7687857D01*
X5756928Y-7673571D01*
X5728357Y-7659286D01*
X5899786Y-7530714D02*
X5899786Y-7587857D01*
X6014071Y-7530714D02*
X6014071Y-7587857D01*
X6456928Y-7945000D02*
X6442643Y-7930714D01*
X6414071Y-7887857D01*
X6399786Y-7859286D01*
X6385500Y-7816429D01*
X6371214Y-7745000D01*
X6371214Y-7687857D01*
X6385500Y-7616429D01*
X6399786Y-7573571D01*
X6414071Y-7545000D01*
X6442643Y-7502143D01*
X6456928Y-7487857D01*
X6556928Y-7559286D02*
X6571214Y-7545000D01*
X6599786Y-7530714D01*
X6671214Y-7530714D01*
X6699786Y-7545000D01*
X6714071Y-7559286D01*
X6728357Y-7587857D01*
X6728357Y-7616429D01*
X6714071Y-7659286D01*
X6542643Y-7830714D01*
X6728357Y-7830714D01*
X7085500Y-7830714D02*
X7085500Y-7530714D01*
X7214071Y-7830714D02*
X7214071Y-7673571D01*
X7199786Y-7645000D01*
X7171214Y-7630714D01*
X7128357Y-7630714D01*
X7099786Y-7645000D01*
X7085500Y-7659286D01*
X7399786Y-7830714D02*
X7371214Y-7816429D01*
X7356928Y-7802143D01*
X7342643Y-7773571D01*
X7342643Y-7687857D01*
X7356928Y-7659286D01*
X7371214Y-7645000D01*
X7399786Y-7630714D01*
X7442643Y-7630714D01*
X7471214Y-7645000D01*
X7485500Y-7659286D01*
X7499786Y-7687857D01*
X7499786Y-7773571D01*
X7485500Y-7802143D01*
X7471214Y-7816429D01*
X7442643Y-7830714D01*
X7399786Y-7830714D01*
X7671214Y-7830714D02*
X7642643Y-7816429D01*
X7628357Y-7787857D01*
X7628357Y-7530714D01*
X7899786Y-7816429D02*
X7871214Y-7830714D01*
X7814071Y-7830714D01*
X7785500Y-7816429D01*
X7771214Y-7787857D01*
X7771214Y-7673571D01*
X7785500Y-7645000D01*
X7814071Y-7630714D01*
X7871214Y-7630714D01*
X7899786Y-7645000D01*
X7914071Y-7673571D01*
X7914071Y-7702143D01*
X7771214Y-7730714D01*
X8028357Y-7816429D02*
X8056928Y-7830714D01*
X8114071Y-7830714D01*
X8142643Y-7816429D01*
X8156928Y-7787857D01*
X8156928Y-7773571D01*
X8142643Y-7745000D01*
X8114071Y-7730714D01*
X8071214Y-7730714D01*
X8042643Y-7716429D01*
X8028357Y-7687857D01*
X8028357Y-7673571D01*
X8042643Y-7645000D01*
X8071214Y-7630714D01*
X8114071Y-7630714D01*
X8142643Y-7645000D01*
X8256928Y-7945000D02*
X8271214Y-7930714D01*
X8299786Y-7887857D01*
X8314071Y-7859286D01*
X8328357Y-7816429D01*
X8342643Y-7745000D01*
X8342643Y-7687857D01*
X8328357Y-7616429D01*
X8314071Y-7573571D01*
X8299786Y-7545000D01*
X8271214Y-7502143D01*
X8256928Y-7487857D01*
X8799786Y-7945000D02*
X8785500Y-7930714D01*
X8756928Y-7887857D01*
X8742643Y-7859286D01*
X8728357Y-7816429D01*
X8714071Y-7745000D01*
X8714071Y-7687857D01*
X8728357Y-7616429D01*
X8742643Y-7573571D01*
X8756928Y-7545000D01*
X8785500Y-7502143D01*
X8799786Y-7487857D01*
X8914071Y-7630714D02*
X8914071Y-7830714D01*
X8914071Y-7659286D02*
X8928357Y-7645000D01*
X8956928Y-7630714D01*
X8999786Y-7630714D01*
X9028357Y-7645000D01*
X9042643Y-7673571D01*
X9042643Y-7830714D01*
X9228357Y-7830714D02*
X9199786Y-7816429D01*
X9185500Y-7802143D01*
X9171214Y-7773571D01*
X9171214Y-7687857D01*
X9185500Y-7659286D01*
X9199786Y-7645000D01*
X9228357Y-7630714D01*
X9271214Y-7630714D01*
X9299786Y-7645000D01*
X9314071Y-7659286D01*
X9328357Y-7687857D01*
X9328357Y-7773571D01*
X9314071Y-7802143D01*
X9299786Y-7816429D01*
X9271214Y-7830714D01*
X9228357Y-7830714D01*
X9414071Y-7630714D02*
X9528357Y-7630714D01*
X9456928Y-7530714D02*
X9456928Y-7787857D01*
X9471214Y-7816429D01*
X9499786Y-7830714D01*
X9528357Y-7830714D01*
X9856928Y-7630714D02*
X9856928Y-7930714D01*
X9856928Y-7645000D02*
X9885500Y-7630714D01*
X9942643Y-7630714D01*
X9971214Y-7645000D01*
X9985500Y-7659286D01*
X9999786Y-7687857D01*
X9999786Y-7773571D01*
X9985500Y-7802143D01*
X9971214Y-7816429D01*
X9942643Y-7830714D01*
X9885500Y-7830714D01*
X9856928Y-7816429D01*
X10171214Y-7830714D02*
X10142643Y-7816429D01*
X10128357Y-7787857D01*
X10128357Y-7530714D01*
X10414071Y-7830714D02*
X10414071Y-7673571D01*
X10399786Y-7645000D01*
X10371214Y-7630714D01*
X10314071Y-7630714D01*
X10285500Y-7645000D01*
X10414071Y-7816429D02*
X10385500Y-7830714D01*
X10314071Y-7830714D01*
X10285500Y-7816429D01*
X10271214Y-7787857D01*
X10271214Y-7759286D01*
X10285500Y-7730714D01*
X10314071Y-7716429D01*
X10385500Y-7716429D01*
X10414071Y-7702143D01*
X10514071Y-7630714D02*
X10628357Y-7630714D01*
X10556928Y-7530714D02*
X10556928Y-7787857D01*
X10571214Y-7816429D01*
X10599786Y-7830714D01*
X10628357Y-7830714D01*
X10842643Y-7816429D02*
X10814071Y-7830714D01*
X10756928Y-7830714D01*
X10728357Y-7816429D01*
X10714071Y-7787857D01*
X10714071Y-7673571D01*
X10728357Y-7645000D01*
X10756928Y-7630714D01*
X10814071Y-7630714D01*
X10842643Y-7645000D01*
X10856928Y-7673571D01*
X10856928Y-7702143D01*
X10714071Y-7730714D01*
X11114071Y-7830714D02*
X11114071Y-7530714D01*
X11114071Y-7816429D02*
X11085500Y-7830714D01*
X11028357Y-7830714D01*
X10999786Y-7816429D01*
X10985500Y-7802143D01*
X10971214Y-7773571D01*
X10971214Y-7687857D01*
X10985500Y-7659286D01*
X10999786Y-7645000D01*
X11028357Y-7630714D01*
X11085500Y-7630714D01*
X11114071Y-7645000D01*
X11228357Y-7945000D02*
X11242643Y-7930714D01*
X11271214Y-7887857D01*
X11285500Y-7859286D01*
X11299786Y-7816429D01*
X11314071Y-7745000D01*
X11314071Y-7687857D01*
X11299786Y-7616429D01*
X11285500Y-7573571D01*
X11271214Y-7545000D01*
X11242643Y-7502143D01*
X11228357Y-7487857D01*
M02*
